<?xml version="1.0" standalone="no"?><!DOCTYPE svg PUBLIC "-//W3C//DTD SVG 1.1//EN" "http://www.w3.org/Graphics/SVG/1.1/DTD/svg11.dtd" ><svg xmlns="http://www.w3.org/2000/svg"><metadata></metadata><defs><font id="851tegakizatsu" horiz-adv-x="1024"><font-face font-family="851tegakizatsu" font-weight="400" font-stretch="normal" units-per-em="1024" panose-1="2 0 6 0 0 0 0 0 0 0" ascent="880" descent="-144" x-height="0" bbox="10 -140 1024 876" underline-thickness="48" underline-position="-96" unicode-range="U+0020-ff3d" /><missing-glyph horiz-adv-x="1024" d="M402 258 l0 220 l220 0 l0 -220 l-220 0 Z" /><glyph glyph-name="" unicode=" " d="" /><glyph glyph-name="" unicode="!" d="M281 -30 l-35 26 l0 4 q-26 20 -52 36 q-8 12 -6 30 l22 21 l16 0 q24 -17 48.5 -37 q24.5 -20 42.5 -42 l0 -18 q-6 -14 -20 -20 l-16 0 ZM254 199 q-14 6 -20 20 l0 30 q12 136 37.5 270.5 q25.5 134.5 65.5 264.5 q12 8 30 6 q14 -6 20 -20 l0 -18 q-38 -134 -63 -271.5 q-25 -137.5 -43 -275.5 q-10 -8 -27 -6 Z" /><glyph glyph-name="" unicode="&quot;" d="M130 581 q-6 2 -12 8 q-6 6 -8 12 l0 20 q6 25 11 49 q5 24 10 48 q5 24 8 49 q3 25 15 47 q6 4 12 5 q6 1 14 1 q6 -2 12 -8 q6 -6 8 -12 l0 -26 q-6 -24 -10 -47 q-4 -23 -9 -47 q-5 -24 -8 -48.5 q-3 -24.5 -17 -44.5 q-6 -4 -12 -5 q-6 -1 -14 -1 ZM275 587 q-6 2 -12 8 q-6 6 -9 12 l0 29 q5 24 9 48 q4 24 9 47 q5 23 9 47 q4 24 16 44 q6 6 13 6 q7 0 15 0 q6 -2 12 -8 q6 -6 8 -12 l0 -18 q-8 -24 -12 -49 q-4 -25 -10 -49 q-6 -24 -8 -50.5 q-2 -26.5 -14 -48.5 q-6 -4 -12 -5 q-6 -1 -14 -1 Z" /><glyph glyph-name="" unicode="#" d="M132 12 q-6 2 -12 8 q-6 6 -8 12 l0 20 l12 52 l0 23 l2 2 l0 24 l2 2 l0 26 l6 34 l0 28 l-4 4 l-20 0 l-14 -4 l-22 0 l-22 12 q-4 6 -5 12 q-1 6 -1 14 q2 6 8 12 q6 6 12 8 l30 0 l44 10 q6 26 9 52 q3 26 7 53 q4 27 8 53 q4 26 8 52 l-4 4 l-44 0 l-2 -2 l-36 0 l-22 12 q-4 6 -5 12 q-1 6 -1 14 q2 6 8 12 q6 6 12 8 l44 0 l2 2 l54 0 l6 2 q4 20 7 40.5 q3 20.5 6 40.5 q3 20 5 41 q2 21 14 37 q6 4 12 5 q6 1 14 1 q6 -2 12.5 -8 q6.5 -6 8.5 -12 l0 -36 q-6 -12 -7.5 -25 q-1.5 -13 -3.5 -26 q-2 -13 -5 -25.5 q-3 -12.5 -3 -26.5 l4 -4 l25 0 l2 2 l90 0 q6 4 7 11 q1 7 3 13 l0 21 l4 14 l0 20 q2 12 5 25 q3 13 4 26 q1 13 11 23 q6 4 12 5 q6 1 14 1 q6 -2 12 -8 q6 -6 8 -12 l0 -28 l-8 -32 l0 -26 l-8 -49 q10 -8 24 -8 q14 0 22 -10 q4 -6 5 -12 q1 -6 1 -14 q-2 -6 -8 -12 q-6 -6 -12 -8 l-16 -2 l-20 2 q-8 -10 -8 -23 q0 -13 -2 -26 q-2 -13 -4 -26 q-2 -13 -4 -25 l0 -32 l-6 -34 l0 -32 l-2 -10 q6 -8 18 -6 l2 2 l56 0 q6 -2 12 -8 q6 -6 8 -12 l0 -16 q-2 -6 -8 -12 q-6 -6 -12 -8 l-10 -2 l-46 0 l-24 -6 l-4 -20 l0 -28 l-10 -56 l0 -24 q-4 -12 -5 -26.5 q-1 -14.5 -3 -27.5 q-2 -13 -4 -26 q-2 -13 -12 -23 q-6 -4 -12 -5 q-6 -1 -14 -1 q-6 2 -12 8 q-6 6 -8 12 l0 20 l12 69 l0 24 l10 56 l0 28 l2 18 l-4 4 l-123 0 l-14 -6 l-2 -2 l0 -32 l-6 -34 l0 -26 l-2 -2 l0 -24 l-2 -2 l0 -23 q-2 -16 -5 -30 q-3 -14 -5 -29 q-2 -15 -14 -27 q-6 -4 -12 -5 q-6 -1 -14 -1 ZM337 317 l6 14 l0 32 l6 34 l0 32 l12 98 l-4 4 l-82 0 l-2 -2 l-35 0 q-12 -24 -15 -51 q-3 -27 -8 -54 q-5 -27 -7 -54 q-2 -27 -6 -55 l2 -2 l127 0 l6 4 Z" /><glyph glyph-name="" unicode="$" d="M305 -76 q-6 2 -12 8 q-6 6 -8 12 l0 24 l2 2 l0 20 l2 2 l0 54 l-8 4 q-12 -8 -24.5 -19 q-12.5 -11 -23.5 -23 q-11 -12 -29 -8 q-6 2 -12 8 q-6 6 -8 12 l0 16 q8 16 22 28 q14 12 28 22 q14 10 28.5 20.5 q14.5 10.5 26.5 24.5 l0 54 l-2 2 l0 130 l-2 6 l-6 2 l-22 0 l-3 -2 l-70 0 q-18 4 -36 7 q-18 3 -35 9 q-17 6 -31 16 q-14 10 -28 24 q-6 8 -11 16 q-5 8 -8 17 q-3 9 -5 19 l0 22 q4 20 12 39 q8 19 19 36 q11 17 25 33 q14 16 30 32 q18 16 37 31.5 q19 15.5 39 27.5 q20 12 42.5 22 q22.5 10 42.5 20 l2 2 l0 112 l12 22 q6 4 12 5 q6 1 14 1 q6 -2 12 -8 q6 -6 8 -12 l0 -100 l10 -4 q12 4 24 7 q12 3 24 5 l58 0 q12 -2 21 -8 q9 -6 17 -14 q6 -6 6 -13 q0 -7 0 -15 q-2 -6 -8 -12 q-6 -6 -12 -8 l-16 0 l-18 12 l-48 0 l-54 -18 l-2 -2 l0 -109 l2 -2 l0 -80 l2 -2 l0 -64 l6 -6 l40 0 q14 -4 27 -6 q13 -2 25 -6 q12 -4 23 -12 q11 -8 21 -20 l10 -18 l0 -40 q-2 -18 -11 -34 q-9 -16 -20 -30 q-11 -14 -24 -28 q-13 -14 -27 -28 l-66 -63 l0 -106 l-2 -2 l0 -20 q-2 -10 -4 -21 q-2 -11 -10 -19 q-6 -4 -12 -5 q-6 -1 -14 -1 ZM355 187 q12 10 22 20 q10 10 21 21 q11 11 20 23 q9 12 15 24 l4 28 l-18 14 l-30 8 l-40 0 l-4 -4 l0 -132 l8 -4 l2 2 ZM281 385 l4 4 l0 64 l-2 2 l0 80 l-2 2 l0 84 l-10 5 q-19 -9 -37 -19 q-18 -10 -35 -22 q-17 -12 -33 -26 q-16 -14 -32 -30 q-8 -10 -16 -20 q-8 -10 -13 -22 q-5 -12 -10 -23 q-5 -11 -7 -25 l20 -32 q12 -8 24 -12 q12 -4 25 -7 q13 -3 27 -7 l70 0 l3 2 l22 0 l2 2 Z" /><glyph glyph-name="" unicode="%" d="M104 30 q-6 2 -12 8 q-6 6 -8 12 l0 20 q42 85 80 172 q38 87 82.5 170 q44.5 83 95.5 162.5 q51 79.5 105 157.5 q6 4 12 5 q6 1 14 1 q6 -2 12 -8 q6 -6 8 -12 l0 -20 q-54 -79 -104 -159 q-50 -80 -94.5 -163 q-44.5 -83 -82.5 -170 q-38 -87 -82 -170 q-6 -4 -12 -5 q-6 -1 -14 -1 ZM359 26 q-12 4 -25 5 q-13 1 -23 9 q-10 8 -20 18 q-10 10 -14 22.5 q-4 12.5 -5 25.5 q-1 13 -1 27 q4 26 12 50 q8 24 19 47 q11 23 24 46 q13 23 35 41 q8 8 18 13 q10 5 22 3 l2 -2 l34 0 q10 -2 19 -4 q9 -2 17 -8 q8 -6 16 -14 l12 -26 l0 -34 q-4 -28 -10 -54 q-6 -26 -13 -52 q-7 -26 -20 -49.5 q-13 -23.5 -37 -43.5 q-8 -8 -19 -11 q-11 -3 -21 -6 q-10 -3 -22 -3 ZM387 95 q18 14 25 33 q7 19 13 38 q6 19 10 39 q4 20 8 40 l0 20 l-12 8 l-32 0 q-18 -16 -27 -36 q-9 -20 -19 -39 q-10 -19 -17 -39 q-7 -20 -7 -44 l10 -22 l24 -8 l24 10 ZM152 485 q-12 2 -24 6 q-12 4 -23 11 q-11 7 -19 17 q-6 8 -11 16 q-5 8 -7 17 q-2 9 -4 19 l0 38 q4 19 9 37 q5 18 16 34 q11 16 23 31 q12 15 28 29 q12 8 23 17 q11 9 24 16 q13 7 27 9 l40 0 l29 -16 q4 -8 12 -15 q8 -7 12 -15 q4 -8 8 -16 l0 -44 q-4 -24 -15 -45.5 q-11 -21.5 -20 -42.5 q-9 -21 -24.5 -40 q-15.5 -19 -35.5 -37 q-10 -6 -20 -13 q-10 -7 -23 -10 q-13 -3 -25 -3 ZM172 549 q12 8 23 19 q11 11 19 23 q8 12 14 24 l29 67 l0 20 l-3 6 l-26 0 q-10 8 -22 8 q-12 -8 -24 -17 q-12 -9 -23 -21 q-11 -12 -18 -25 q-7 -13 -13 -25 l-6 -19 l0 -34 l12 -22 q6 -4 14 -7 q8 -3 18 -1 l6 4 Z" /><glyph glyph-name="" unicode="&amp;" d="M122 14 q-12 2 -24 6 q-12 4 -21 13 q-9 9 -19 19 q-6 8 -9 19 q-3 11 -5 21 l0 37 q4 42 21 79 q17 37 37 74 q20 37 40 73 q20 36 30 76 q-8 18 -12 38 q-4 20 -7 40 q-3 20 -9 39 q-6 19 -8 39 l0 26 l-2 2 l0 31 q2 18 5 36 q3 18 7 36 q4 18 12 34 q8 16 22 30 l22 14 l83 0 q12 -2 23 -5 q11 -3 22 -8 q11 -5 19 -15 l20 -34 l0 -50 q-10 -36 -23 -71.5 q-13 -35.5 -30 -68.5 q-17 -33 -39 -64 q-22 -31 -32 -67 q10 -18 20 -37 q10 -19 22 -37 q12 -18 23 -36 q11 -18 19 -38 l6 0 q14 20 25 42 q11 22 22 43 q11 21 18 44 q7 23 23 43 q6 4 12 5 q6 1 14 1 q6 -2 12 -8 q6 -6 8 -12 l0 -18 q-12 -24 -21 -50 q-9 -26 -22 -51 q-13 -25 -27 -49 q-14 -24 -26 -48 q14 -16 27 -33 q13 -17 38 -46 q25 -29 40 -45.5 q15 -16.5 13 -38.5 q-2 -6 -8 -12 q-6 -6 -12 -8 l-18 0 q-14 10 -34 38 q-20 28 -33 40 q-13 12 -23 26.5 q-10 14.5 -24 24.5 q-12 -18 -25 -36.5 q-13 -18.5 -29 -35.5 q-16 -17 -34.5 -31 q-18.5 -14 -38.5 -24 q-12 -2 -23 -5 q-11 -3 -23 -4 q-12 -1 -24 -3 l-20 0 ZM194 84 q18 8 33.5 21.5 q15.5 13.5 28.5 29.5 q13 16 22 33 q9 17 19 33 l0 6 q-12 16 -21 35 q-9 19 -19 36 q-10 17 -22.5 34 q-12.5 17 -22.5 35 l-6 0 q-14 -28 -30 -54 q-16 -26 -30 -54 q-14 -28 -27 -55 q-13 -27 -17 -59 l0 -25 l8 -18 l24 -10 q10 2 20 3 q10 1 20 3 q10 2 20 6 ZM220 501 q14 22 29.5 45 q15.5 23 25.5 47 q10 24 19 48.5 q9 24.5 17 50.5 l0 28 l-8 10 l-28 8 l-55 0 q-10 -10 -13 -22 q-3 -12 -6 -25 q-3 -13 -5 -26 q-2 -13 -4 -25 l0 -25 l2 -2 l0 -22 q2 -16 6 -31 q4 -15 8 -30 q4 -15 4 -31 l6 0 l2 2 Z" /><glyph glyph-name="" unicode="&#39;" d="M244 565 q-6 2 -12 8 q-6 6 -8 12 l-2 8 l0 35 l2 2 l0 20 l2 2 l0 20 q4 16 7 33 q3 17 7 34 q4 17 5 34 q1 17 14 31 q6 4 12 5 q6 1 14 1 q6 -2 12 -8 q6 -6 8 -12 l0 -28 l-20 -90 l0 -20 l-2 -2 l0 -20 l-2 -2 l0 -43 q-2 -6 -8 -12 q-6 -6 -12 -8 l-17 0 Z" /><glyph glyph-name="" unicode="(" d="M407 12 q-20 16 -35 37 q-15 21 -29 41 q-36 79 -49 162 q-13 83 -11 171 q8 92 33 179.5 q25 87.5 67 169.5 q16 18 40 16 q14 -6 20 -20 l0 -16 q-52 -92 -78 -193.5 q-26 -101.5 -24 -207.5 q2 -86 29 -167.5 q27 -81.5 73 -151.5 q-6 -14 -20 -20 l-16 0 Z" /><glyph glyph-name="" unicode=")" d="M124 -16 q-14 6 -20 20 l0 20 q48 56 71 124.5 q23 68.5 27 140.5 l0 94 q-2 80 -21 159 q-19 79 -73 142 q-14 6 -20 20 l0 16 l8 14 q14 10 32 8 q28 -24 50 -54 q22 -30 40 -62 q18 -57 29.5 -118 q11.5 -61 13.5 -125 l0 -94 q-4 -82 -30.5 -159.5 q-26.5 -77.5 -80.5 -139.5 q-10 -8 -26 -6 Z" /><glyph glyph-name="" unicode="*" d="M250 58 q-6 2 -12 8 q-6 6 -8 12 l-2 8 l0 67 l-2 2 l0 56 l-2 2 l0 86 l-10 2 q-18 -16 -36 -31 q-18 -15 -36 -32 q-18 -17 -33 -35 q-15 -18 -35 -32 l-16 0 q-6 2 -12 8 q-6 6 -8 12 l0 16 q16 22 34 42 q18 20 39 39 q21 19 42 36 q21 17 41 35 l0 6 q-16 16 -32 32 q-16 16 -33 28 q-17 12 -35 23 q-18 11 -30 29 l0 16 q2 6 8 12 q6 6 12 8 l18 0 q14 -12 30 -21 q16 -9 31 -20 q15 -11 29 -24 q14 -13 30 -23 l2 2 l0 94 l2 2 l0 143 l12 22 q6 4 12.5 5 q6.5 1 14.5 1 q6 -2 12 -8 q6 -6 8 -12 l0 -151 l-2 -2 l0 -78 l8 -4 q16 14 33 29 q17 15 34 32 q17 17 33 33 q16 16 32 30 l16 0 q6 -2 12 -8 q6 -6 8 -12 l0 -18 q-16 -24 -38 -46 q-22 -22 -44 -42 q-22 -20 -45 -38 q-23 -18 -45 -40 l0 -6 q22 -18 43 -36 q21 -18 42 -37 q21 -19 46 -32 q25 -13 41 -35 l0 -16 q-2 -6 -8 -12 q-6 -6 -12 -8 l-16 0 q-18 10 -35 21 q-17 11 -34 24 q-17 13 -34 27 q-17 14 -33 28 l-4 -4 l0 -60 l2 -2 l0 -56 l2 -2 l0 -75 q-2 -6 -8 -12 q-6 -6 -12 -8 l-17 0 Z" /><glyph glyph-name="" unicode="+" d="M254 153 q-6 2 -12 8 q-6 6 -8 12 l0 112 l-2 2 l0 82 l-6 6 l-34 0 l-2 -2 l-40 0 l-52 -8 l-26 0 l-22 12 q-4 6 -5 12 q-1 6 -1 14 q2 6 8 12 q6 6 12 8 l34 0 l52 8 l40 0 l2 2 l36 0 l6 6 l0 24 l2 2 l0 62 l2 2 l0 99 q2 8 5 16 q3 8 9 14 q7 4 13 5 q6 1 14 1 q6 -2 12 -8 q6 -6 8 -12 l0 -23 l-2 -2 l0 -90 l-2 -2 l0 -62 l-2 -2 l0 -26 l6 -6 l24 0 l2 -2 l60 0 l2 -2 l82 0 q6 -2 12 -8 q6 -6 8 -12 l0 -16 q-2 -6 -8 -12 q-6 -6 -12 -8 l-10 -2 l-72 0 l-2 2 l-60 0 l-2 2 l-26 0 l-6 -6 l0 -80 l2 -2 l0 -108 q-4 -8 -9 -15 q-5 -7 -13 -9 l-17 0 Z" /><glyph glyph-name="" unicode="," d="M206 -68 q-14 6 -20 20 l0 32 q8 36 7 76 q-1 40 13 75 q12 10 30 8 q14 -6 21 -20 l0 -17 q-7 -42 -8 -86 q-1 -44 -17 -82 q-10 -8 -26 -6 Z" /><glyph glyph-name="" unicode="-" d="M417 381 l-2 2 l-30 0 l-2 2 l-24 0 l-2 2 l-163 0 l-2 -2 l-40 0 l-2 -2 l-54 0 q-10 2 -20 4 q-10 2 -18 10 q-4 6 -5 12 q-1 6 -1 14 q2 6 8 12 q6 6 12 8 l28 0 l2 -2 l48 0 l2 2 l40 0 l2 2 l163 0 l2 -2 l24 0 l2 -2 l30 0 l2 -2 l40 0 q6 -2 12 -8 q6 -6 8 -12 l0 -16 q-2 -6 -8 -12 q-6 -6 -12 -8 l-10 -2 l-30 0 Z" /><glyph glyph-name="" unicode="." d="M257 -44 q-21 6 -27 26 l-2 18 q2 16 12 30 q14 10 33 8 q14 -6 20 -20 l4 -38 q-8 -16 -24 -24 l-16 0 Z" /><glyph glyph-name="" unicode="/" d="M98 -54 q-6 2 -12 8 q-6 6 -8 12 l0 20 q40 100 77 202.5 q37 102.5 82.5 202.5 q45.5 100 95.5 197.5 q50 97.5 96 195.5 q6 4 12 5 q6 1 14 1 q6 -2 12 -8 q6 -6 8 -12 l0 -22 q-44 -98 -94 -196.5 q-50 -98.5 -94.5 -197.5 q-44.5 -99 -81.5 -201.5 q-37 -102.5 -81 -200.5 q-6 -4 -12 -5 q-6 -1 -14 -1 Z" /><glyph glyph-name="" unicode="0" d="M235 -8 q-26 6 -48 21 q-22 15 -42 37 q-32 44 -45 95 q-13 51 -19 106 l0 110 q10 108 32 216 q22 108 100 195 q38 34 91 38 q14 -6 20 -20 l0 -16 l-4 -12 q28 -8 48 -32 q36 -65 49 -135 q13 -70 15 -144 l0 -108 q-4 -82 -17 -164.5 q-13 -82.5 -71 -146.5 q-22 -22 -49.5 -32 q-27.5 -10 -59.5 -8 ZM288 62 q36 26 52 66 q18 50 25 104.5 q7 54.5 9 110.5 l0 108 q-2 66 -13 128 q-11 62 -41 118 l-38 17 l-8 24 l-7 0 q-32 -18 -48 -48.5 q-16 -30.5 -30 -58.5 q-20 -66 -32 -133 q-12 -67 -18 -137 l0 -110 q8 -50 21 -98.5 q13 -48.5 51 -86.5 q20 -16 48 -16 l29 12 Z" /><glyph glyph-name="" unicode="1" d="M242 18 q-14 6 -20 20 l-2 38 q6 107 10 214 q4 107 10 213 l0 132 l4 40 l-4 0 q-30 -38 -74 -40 q-14 6 -20 20 l0 18 q8 19 26 27 q22 12 43 30 q21 18 42 34 q6 14 20 20 l18 0 q16 -6 22 -22 l0 -16 q-10 -24 -13 -53.5 q-3 -29.5 -5 -57.5 l0 -132 q-8 -120 -11 -241.5 q-3 -121.5 -19 -237.5 q-10 -8 -27 -6 Z" /><glyph glyph-name="" unicode="2" d="M121 -22 q-14 6 -20 20 l0 18 q96 146 165.5 309.5 q69.5 163.5 103.5 333.5 q-6 33 -36 57 q-34 26 -83 20 q-24 -8 -47 -17 q-23 -9 -43 -27 q-30 -33 -30 -77 l14 -28 l18 -10 q8 -10 6 -26 q-6 -16 -22 -22 l-18 0 q-32 18 -48 52 q-12 28 -8 64 q6 26 19 48.5 q13 22.5 31 42.5 q36 32 79 47 q43 15 94 11 q30 -4 55 -20 q25 -16 47 -40 q24 -28 28 -65.5 q4 -37.5 2 -77.5 q-48 -138 -102 -274 q-54 -136 -131 -261 l24 0 l109 4 q28 0 56 -3 q28 -3 50 -21 q10 -14 6 -34 q-6 -14 -20 -20 l-16 0 l-16 12 l0 4 l-124 4 q-39 0 -74 -6 q-35 -6 -69 -18 Z" /><glyph glyph-name="" unicode="3" d="M192 4 q-26 4 -52 13 q-26 9 -46 29 l-8 22 q2 16 16 26 q12 6 26 4 l18 -16 l0 -4 q36 -20 80 -16 q29 6 56 15 q27 9 47 33 q32 44 54 93.5 q22 49.5 14 111.5 q-4 28 -18 51 q-14 23 -36 43 q-34 26 -80 22 l-49 -10 l-22 12 q-8 10 -6 26 l20 22 q40 6 79.5 18 q39.5 12 69.5 44 q24 34 32 74 q-12 38 -42 71 q-32 16 -64 33 q-32 17 -73 15 q-18 -14 -40 -16 l-22 12 q-8 10 -6 26 l20 22 q36 18 82 14 q47 -10 89 -30 q42 -20 76 -56 q16 -26 28 -53.5 q12 -27.5 10 -61.5 q-12 -32 -29 -62 q-17 -30 -45 -54 l-8 -10 q24 -16 42 -39 q18 -23 32 -45 q14 -30 17 -66 q3 -36 1 -72 q-8 -54 -36 -101.5 q-28 -47.5 -64 -89.5 q-34 -28 -75.5 -40 q-41.5 -12 -87.5 -10 Z" /><glyph glyph-name="" unicode="4" d="M317 2 q-14 6 -20 20 l-2 22 l14 112 l-16 0 l-41 -4 q-44 2 -83 14 q-39 12 -69 44 q-22 31 -33 65 q-11 34 -11 72 q16 148 69 238.5 q53 90.5 156 198.5 q14 16 38 14 q14 -6 20 -20 l0 -18 q-60 -56 -110.5 -120.5 q-50.5 -64.5 -72 -121 q-21.5 -56.5 -31 -90 q-9.5 -33.5 -11.5 -105.5 q8 -44 36 -80 q26 -21 56 -27 q30 -6 65 -6 l46 6 q10 75 18 149 q8 74 24 146 q10 8 26 6 q16 -6 22 -22 l0 -16 q-8 -64 -16 -127 q-8 -63 -16 -128 l8 0 q24 9 50 13 q16 -6 24 -23 l0 -16 q-6 -16 -22 -22 l-66 -10 q-4 -40 -9 -80 q-5 -40 -17 -78 q-10 -8 -26 -6 Z" /><glyph glyph-name="" unicode="5" d="M134 -20 l-22 12 q-8 10 -6 26 l8 14 q72 44 147.5 85 q75.5 41 117.5 120 l4 46 q-20 24 -48 38 q-60 22 -126.5 31 q-66.5 9 -118.5 53 q-24 28 -22 66 q10 88 36 173.5 q26 85.5 76 161.5 q14 12 34 10 q14 -6 20 -20 l0 -18 l-8 -16 l6 0 q53 8 105 13 q52 5 108 5 q14 -6 20 -20 l0 -16 q-6 -14 -20 -20 q-66 -2 -130.5 -9.5 q-64.5 -7.5 -128.5 -15.5 q-22 -56 -39 -116 q-17 -60 -21 -124 l12 -20 q70 -32 148.5 -43 q78.5 -11 138.5 -71 q22 -34 16 -80 q-8 -38 -29 -69.5 q-21 -31.5 -51 -59.5 q-52 -42 -110.5 -74 q-58.5 -32 -116.5 -62 Z" /><glyph glyph-name="" unicode="6" d="M208 6 q-54 0 -92 38 q-38 46 -48 103.5 q-10 57.5 -10 117.5 q10 138 54 270 q44 132 130 245 q17 14 39 10 q14 -6 20 -20 l0 -16 q-6 -14 -20 -20 l-4 0 q-53 -81 -90 -167 q-37 -86 -53 -178 l4 0 q48 32 95.5 67 q47.5 35 109.5 35 q34 -4 60 -30 q34 -38 49 -83 q15 -45 9 -99 q-10 -62 -37 -118.5 q-27 -56.5 -75 -102.5 q-30 -26 -65 -39 q-35 -13 -76 -13 ZM299 92 q26 20 43 44 q17 24 31 51 q16 36 25 74 q9 38 5 82 q-14 44 -44 80 q-16 12 -38 10 q-42 -12 -77.5 -40 q-35.5 -28 -71.5 -52 q-24 -32 -42 -66 q-18 -34 -12 -78 q4 -30 13 -59.5 q9 -29.5 27 -53.5 q32 -24 74 -20 l67 28 Z" /><glyph glyph-name="" unicode="7" d="M246 10 q-14 6 -20 20 l-2 16 q31 159 80 312 q49 153 97 307 l-64 0 q-56 -8 -107.5 -31 q-51.5 -23 -103.5 -39 l-6 -98 q8 -18 8 -38 q-6 -14 -20 -20 l-16 0 q-16 8 -24 24 q-8 34 -6 72 q4 68 13 135.5 q9 67.5 31 127.5 q10 8 26 6 q14 -6 20 -20 l0 -20 q-8 -24 -12 -50.5 q-4 -26.5 -6 -52.5 l4 0 q48 18 96.5 38.5 q48.5 20.5 102.5 24.5 l88 0 l32 2 q14 -6 20 -20 l0 -19 q-62 -162 -113 -332 q-51 -170 -91 -339 q-10 -8 -27 -6 Z" /><glyph glyph-name="" unicode="8" d="M283 10 q-31 4 -60 14 q-29 10 -53 32 q-26 26 -33 61 q-7 35 -9 72 q6 70 37 142 q31 72 73 126 q-32 22 -66 39 q-34 17 -62 47 q-24 26 -42 55 q-18 29 -18 65 q8 38 40 67 q48 40 110 54 q62 14 129 12 q50 -2 88 -30 q12 -16 8 -38 q-6 -15 -20 -21 l-16 0 q-16 10 -26 25 q-46 10 -98 6 q-41 -6 -78 -19.5 q-37 -13.5 -67 -41.5 q-14 -12 -12 -30 q24 -56 72 -86 q48 -30 95 -62 l6 0 q36 34 74 65 q38 31 78 57 l16 0 q16 -6 22 -22 l0 -16 q-34 -30 -72 -58 q-38 -28 -74 -62 l0 -6 q36 -24 59 -57 q23 -33 43 -67 q18 -34 23 -86 q5 -52 3 -95 q-6 -30 -17 -59 q-11 -29 -35 -53 q-24 -20 -55 -25 q-31 -5 -63 -5 ZM361 82 q24 28 31 64 q7 36 3 77 q-10 40 -30 87 q-20 47 -48 79 q-16 16 -36 24 q-39 -48 -65 -114 q-26 -66 -30 -129 q0 -44 28 -76 q24 -14 50.5 -21 q26.5 -7 56.5 -5 l40 14 Z" /><glyph glyph-name="" unicode="9" d="M391 -16 q-14 6 -20 20 l-2 38 q8 70 13 142.5 q5 72.5 5 146.5 l-4 0 q-22 -32 -53 -60 q-31 -28 -65 -46 q-37 -12 -77 -10 q-38 4 -66 32 q-34 40 -55 85 q-21 45 -19 99 q6 76 38 146 q32 70 84 131 q40 34 85.5 54 q45.5 20 101.5 14 q34 -4 58 -30 q22 -22 20 -54 q-6 -14 -20 -20 l-16 0 q-18 10 -26 28 l-4 10 q-26 12 -60 8 q-30 -10 -58.5 -25 q-28.5 -15 -52.5 -40 q-38 -54 -64 -115 q-26 -61 -28 -129 q4 -36 21 -66 q17 -30 39 -58 q22 -14 50 -12 q32 4 56.5 25 q24.5 21 48.5 45 q34 38 51 84 q17 46 27 94 l-2 8 l12 22 q10 8 26 6 q16 -8 22 -24 l0 -44 q-12 -124 -15 -250.5 q-3 -126.5 -25 -248.5 q-10 -8 -26 -6 Z" /><glyph glyph-name="" unicode=":" d="M271 195 q-23 10 -33 30 l0 18 q6 16 23 24 l16 0 q20 -14 34 -36 l0 -16 q-6 -14 -20 -20 l-20 0 ZM269 489 q-23 2 -41 16 q-8 10 -6 26 q6 14 20 20 l29 0 q18 -2 32 -16 q8 -10 6 -26 q-6 -14 -20 -20 l-20 0 Z" /><glyph glyph-name="" unicode=";" d="M206 -68 q-14 6 -20 20 l0 32 q8 36 7 76 q-1 40 13 75 q12 10 30 8 q14 -6 21 -20 l0 -17 q-7 -42 -8 -86 q-1 -44 -17 -82 q-10 -8 -26 -6 ZM225 372 q-21 6 -27 26 l-2 18 q2 16 12 30 q14 10 33 8 q14 -6 20 -20 l4 -38 q-8 -16 -24 -24 l-16 0 Z" /><glyph glyph-name="" unicode="&lt;" d="M401 -10 q-42 44 -88 86.5 q-46 42.5 -90.5 86.5 q-44.5 44 -85.5 91 q-41 47 -87 87 l0 16 q42 52 94 96 q52 44 101.5 92 q49.5 48 97.5 96.5 q48 48.5 98 92.5 l16 0 q6 -2 12 -8 q6 -6 8 -12 l0 -18 q-2 -8 -8 -14 q-6 -6 -13 -13 q-7 -7 -13 -13 q-42 -37 -80 -77 q-38 -40 -79.5 -78 q-41.5 -38 -82.5 -76 q-41 -38 -79 -74 q40 -38 77 -80 q37 -42 77.5 -80 q40.5 -38 81.5 -76.5 q41 -38.5 77 -80.5 l2 -24 q-2 -6 -8 -12 q-6 -6 -12 -8 l-16 0 Z" /><glyph glyph-name="" unicode="=" d="M457 259 l-18 4 l-20 0 l-50 8 l-153 0 l-2 -2 l-32 0 l-2 -2 l-26 0 l-16 -4 l-20 0 l-20 -2 q-6 2 -12 8 q-6 6 -8 12 l0 16 q4 8 9 13 q5 5 13 9 l8 2 l30 0 l16 4 l26 0 l2 2 l32 0 l2 2 l153 0 l50 -8 l20 0 q8 -2 17 -3 q9 -1 17 -2 q8 -1 14 -9 q4 -6 5 -12 q1 -6 1 -14 q-2 -6 -8 -12 q-6 -6 -12 -8 l-16 -2 ZM100 447 l-22 12 q-4 6 -5 12 q-1 6 -1 14 q2 6 8 12 q6 6 12 8 l68 0 l2 2 l24 0 l2 2 l26 0 l2 2 l24 0 l2 2 l101 0 l2 2 l84 0 q10 -2 19 -4 q9 -2 15 -10 q4 -6 5 -12 q1 -6 1 -14 q-2 -6 -8 -12 q-6 -6 -12 -8 l-18 0 l-2 2 l-84 0 l-2 -2 l-101 0 l-2 -2 l-24 0 l-2 -2 l-26 0 l-2 -2 l-24 0 l-2 -2 l-60 0 Z" /><glyph glyph-name="" unicode="&gt;" d="M90 14 q-6 2 -12 8 q-6 6 -8 12 l0 16 q40 45 85 84 q45 39 90.5 76 q45.5 37 91.5 75 q46 38 88 78 l0 8 q-44 42 -88 82 q-44 40 -86.5 83 q-42.5 43 -85.5 85.5 q-43 42.5 -85 84.5 l0 22 q2 6 8 12 q6 6 12 8 l18 0 q46 -44 93 -91 q47 -47 94.5 -94.5 q47.5 -47.5 96.5 -91.5 q49 -44 93 -92 l0 -18 q-38 -54 -89 -95 q-51 -41 -101.5 -82 q-50.5 -41 -99.5 -84.5 q-49 -43.5 -99 -85.5 l-16 0 Z" /><glyph glyph-name="" unicode="?" d="M277 -54 q-14 6 -22.5 20 q-8.5 14 -19.5 24 q-11 10 -23 20 q-12 10 -18 24 l0 16 q2 6 8 12 q6 6 12 8 l16 0 q12 -8 23.5 -19 q11.5 -11 23.5 -21 q12 -10 22 -22 q10 -12 16 -24 l0 -18 q-2 -6 -8 -12 q-6 -6 -12 -8 l-18 0 ZM301 203 q-14 8 -24 21 q-10 13 -19.5 26 q-9.5 13 -15.5 27 l-8 48 q6 40 31.5 72 q25.5 32 55.5 73 q30 41 54 85 q24 44 34 84 l0 43 l-18 38 q-8 6 -18 11 q-10 5 -20 8 q-10 3 -20 5 l-58 0 q-21 -6 -41 -12 q-20 -6 -39 -15 q-19 -9 -37 -20 q-18 -11 -34 -28 l-22 -38 l22 -24 l0 -16 q-2 -6 -8 -12 q-6 -6 -12 -8 l-20 0 q-10 2 -17 9 q-7 7 -15 15 q-6 10 -8 21 q-2 11 -2 23 q2 16 11 30.5 q9 14.5 18 27.5 q9 13 23 25 q20 16 41 30 q21 14 44 24 q23 10 47 16 q24 6 49 10 l60 0 q14 -4 29 -7 q15 -3 29 -9 q14 -6 26 -15 q12 -9 24 -21 q6 -10 11 -21 q5 -11 8 -22 q3 -11 5 -23 l0 -51 q-6 -40 -27 -88 q-21 -48 -53 -88 q-32 -40 -58 -72 q-26 -32 -36 -72 q4 -12 9 -23 q5 -11 14 -21 q9 -10 17 -21 q8 -11 4 -25 q-2 -6 -8 -12 q-6 -6 -12 -8 l-16 0 Z" /><glyph glyph-name="" unicode="@" d="M236 -52 l-2 2 l-20 0 q-18 2 -37 7 q-19 5 -35 14 q-16 9 -30 23 q-14 14 -28 28 q-12 14 -19 31 q-7 17 -14 34 q-7 17 -11 35.5 q-4 18.5 -6 36.5 l0 22 l-4 14 l0 20 l-2 2 l0 102 l2 2 l0 40 q8 56 19 110 q11 54 25 108.5 q14 54.5 46 101.5 q32 47 72 87 q12 8 26 15 q14 7 28.5 13 q14.5 6 28.5 8 l48 0 q14 -6 27 -11 q13 -5 26 -13 q13 -8 25 -17 q12 -9 24 -19 q12 -12 20 -26 q8 -14 13 -29 q5 -15 7 -32 q2 -17 4 -34 l0 -48 l2 -2 l0 -140 l-2 -2 l0 -40 l-2 -2 l0 -42 l-4 -16 l0 -24 q-4 -18 -7 -36 q-3 -18 -7 -36 q-4 -18 -14 -33 q-10 -15 -26 -29 q-8 -4 -16 -11 q-8 -7 -16 -11 q-8 -4 -20 -2 l-26 20 l-26 68 l-10 0 l-36 -40 q-9 -6 -18 -12 q-9 -6 -18 -10 q-9 -4 -19 -6 l-24 0 q-10 2 -18 5 q-8 3 -15 9 q-7 6 -13 14 q-4 8 -7 15 q-3 7 -5 16 q-2 9 -4 17 l0 22 l2 2 l0 24 q4 36 14 69 q10 33 24 66 q14 33 32 64 q18 31 42 57 q10 8 20.5 16 q10.5 8 21.5 14 q11 6 23 10 l30 0 q10 -4 16 -11 q6 -7 13 -14 q7 -7 11 -15 l0 -16 l-6 -18 l0 -22 l-2 -2 l0 -24 l-2 -2 l0 -24 l-2 -2 l0 -24 l-4 -14 l0 -28 l-2 -2 l0 -38 l-2 -2 l0 -34 q2 -12 7 -24 q5 -12 8 -25 q3 -13 11 -23 l6 0 q10 12 14 25 q4 13 6 28 q2 15 6 29 l0 24 l4 16 l0 42 l2 2 l0 40 l2 2 l0 140 l-2 2 l0 48 q-2 15 -4 27 q-2 12 -7 24 q-5 12 -13 22 q-8 10 -18 20 q-10 6 -18 12 q-8 6 -18 10 q-10 4 -20 8 l-30 0 q-14 -4 -26.5 -9 q-12.5 -5 -24.5 -13 q-12 -8 -22 -20 q-32 -36 -55 -78.5 q-23 -42.5 -32 -88.5 q-9 -46 -19 -92 q-10 -46 -16 -92 l0 -40 l-2 -2 l0 -86 l2 -2 l0 -20 l4 -14 l0 -22 q2 -18 7 -37.5 q5 -19.5 11 -36.5 q6 -17 18 -32 q12 -15 28 -29 q10 -6 20 -12 q10 -6 22 -8 q12 -2 24 -4 l20 0 l19 -2 q26 6 48 21 q22 15 43 33 q21 18 41 37.5 q20 19.5 46 23.5 q6 -2 12 -8.5 q6 -6.5 8 -12.5 l0 -18 q-12 -20 -31 -34 q-19 -14 -36 -29 q-17 -15 -35 -31 q-18 -16 -38 -24 l-50 -16 l-33 0 ZM216 237 q16 14 30.5 29 q14.5 15 23.5 33 q9 18 12 37 q3 19 11 37 l0 28 l4 14 l0 24 l2 2 l0 24 l2 2 l0 24 l2 2 l0 26 l-10 4 q-14 -10 -25 -22 q-11 -12 -20.5 -25 q-9.5 -13 -15.5 -27 q-6 -14 -14 -28 q-4 -16 -11 -31 q-7 -15 -13 -31 q-6 -16 -9 -33 q-3 -17 -7 -33 l0 -24 l-2 -2 l0 -22 l10 -16 l12 -2 l18 10 Z" /><glyph glyph-name="" unicode="a" d="M439 -16 l-22 10 q-22 74 -27 154.5 q-5 80.5 -17 158.5 l-38 0 l-42 -4 l-101 0 q-28 -74 -51 -150.5 q-23 -76.5 -47 -150.5 q-10 -8 -26 -6 q-14 6 -20 20 l0 18 q54 195 118 386 q64 191 155 372 q12 10 30 8 q14 -6 20 -20 q24 -193 49 -386 q25 -193 51 -384 q-6 -16 -22 -24 l-10 -2 ZM365 365 l0 8 q-10 70 -19 141 q-9 71 -17 144 l-4 0 q-34 -73 -64.5 -146 q-30.5 -73 -50.5 -151 l83 0 l72 4 Z" /><glyph glyph-name="" unicode="b" d="M126 -30 l-28 12 l-18 -2 q-14 6 -20 20 l0 22 q20 171 52 340 q32 169 48 340 l-4 0 q-24 -8 -48 -18 q-24 -10 -50 -12 q-14 6 -20 20 l0 18 q6 14 20 20 q54 22 109 34 q55 12 120 8 q52 -14 100 -36 q48 -22 88 -64 q18 -22 27 -46.5 q9 -24.5 7 -54.5 q-10 -34 -28 -66 q-18 -32 -46 -60 l-92 -62 l0 -4 q36 -2 65 -17 q29 -15 53 -43 q26 -32 39 -71 q13 -39 7 -85 q-6 -38 -27 -69.5 q-21 -31.5 -49 -59.5 q-68 -42 -146.5 -51 q-78.5 -9 -158.5 -13 ZM375 68 q22 8 38 30 q20 25 31 54 q11 29 5 65 q-14 48 -52 84 q-38 22 -84 26 l-117 0 l-34 -6 q-12 -70 -21 -143.5 q-9 -73.5 -17 -147.5 l62 -2 q48 10 97.5 14 q49.5 4 91.5 26 ZM301 425 q40 26 81 54 q41 28 59 76 q10 16 10 38 q-10 37 -42 63 q-42 24 -86 44 q-44 20 -99 14 q-12 -82 -23 -163.5 q-11 -81.5 -25 -161.5 l12 0 q28 8 57.5 15 q29.5 7 55.5 21 Z" /><glyph glyph-name="" unicode="c" d="M196 -12 q-26 4 -49 14 q-23 10 -43 30 q-32 36 -47 79.5 q-15 43.5 -17 91.5 l0 138 q10 106 32 212.5 q22 106.5 108 182.5 q34 28 70.5 49 q36.5 21 84.5 15 q26 -6 50 -17 q24 -11 44 -33 q24 -28 18 -66 q-6 -16 -22 -22 l-16 0 q-14 6 -20 20 q4 24 -14 40 q-34 24 -80 20 q-30 -14 -57.5 -35 q-27.5 -21 -51.5 -47 q-50 -69 -65 -152 q-15 -83 -23 -167 l0 -138 q2 -38 15 -73.5 q13 -35.5 39 -63.5 q30 -20 68 -20 q63 10 116 40.5 q53 30.5 111 48.5 q14 -6 20 -20 l0 -17 q-18 -26 -48 -38 q-52 -26 -106 -49 q-54 -23 -117 -23 Z" /><glyph glyph-name="" unicode="d" d="M50 -14 l-22 12 q-8 12 -6 28 l12 22 l-2 6 q24 175 48 349 q24 174 56 349 l-8 0 q-28 -10 -58 -12 q-14 6 -20 20 l0 16 q8 18 26 24 q42 10 84 15 q42 5 89 3 q54 -10 98 -47 q44 -37 86 -75 q28 -53 43 -109 q15 -56 23 -116 l0 -88 q-18 -70 -58 -129 q-40 -59 -94 -111 q-66 -59 -139.5 -102 q-73.5 -43 -157.5 -55 ZM164 84 q73 40 135 95.5 q62 55.5 106 127.5 q22 40 36 82 l0 82 q-10 58 -25 113 q-15 55 -53 100 q-36 30 -74 57 q-38 27 -91 19 q-36 -173 -60 -348 q-24 -175 -42 -352 l6 0 l62 24 Z" /><glyph glyph-name="" unicode="e" d="M214 -4 q-38 2 -73 11 q-35 9 -61 39 q-18 22 -29 48 q-11 26 -13 55 l0 150 q8 102 20 219 q12 117 22 220 q-18 -4 -30 10 q-8 10 -6 26 l8 14 q48 12 98 20 q50 8 104 8 l117 0 l78 6 q14 -6 20 -20 l0 -18 q-6 -14 -20 -20 l-78 -6 l-117 0 l-108 -10 q-20 -60 -24 -142.5 q-4 -82.5 -14 -146.5 l86 0 q58 8 119.5 9 q61.5 1 119.5 9 q14 -6 20 -20 l0 -18 q-6 -14 -20 -20 q-58 -8 -119.5 -8 q-61.5 0 -119.5 -10 l-90 0 l-8 -102 l0 -146 q4 -45 36 -77 q24 -14 51 -18 q27 -4 55 -4 q57 14 109 38 q52 24 108 39 q14 -7 20 -21 l0 -18 q-6 -14 -20 -20 q-58 -22 -116 -47 q-58 -25 -125 -29 Z" /><glyph glyph-name="" unicode="f" d="M64 -8 q-14 6 -20 20 l-2 24 q12 117 17 235 q5 118 13 236 l0 98 q4 26 6 52.5 q2 26.5 2 52.5 q-18 0 -32 12 q-8 10 -6 26 q6 16 22 22 q102 16 206.5 21 q104.5 5 204.5 23 q14 -6 20 -20 l0 -18 q-6 -16 -22 -22 l-32 -4 l-6 2 q-72 -16 -146.5 -19 q-74.5 -3 -148.5 -11 l-10 -117 l0 -98 l-4 -82 l12 0 q70 18 142.5 24 q72.5 6 146.5 10 l20 -12 q8 -10 6 -26 q-6 -14 -20 -20 l-14 -2 l-24 2 q-68 -6 -137.5 -13 q-69.5 -7 -133.5 -27 q-8 -90 -11 -183.5 q-3 -93.5 -23 -179.5 q-10 -8 -26 -6 Z" /><glyph glyph-name="" unicode="g" d="M367 -32 q-14 6 -20 20 l-2 34 l3 78 q-41 -42 -85.5 -68 q-44.5 -26 -96.5 -34 q-42 2 -72 34 q-32 36 -41 83.5 q-9 47.5 -13 95.5 l0 166 q4 108 50 214.5 q46 106.5 126 188.5 q26 22 56.5 33 q30.5 11 66.5 7 q46 -6 78 -44 q18 -16 14 -42 q-6 -14 -20 -20 l-16 0 q-20 26 -50 44 l-44 4 q-28 -10 -53 -32 q-68 -76 -106 -167.5 q-38 -91.5 -44 -185.5 l0 -166 q4 -38 10 -74 q6 -36 30 -67 q16 -14 36 -14 q75 31 102.5 53 q27.5 22 78.5 72 l2 76 l0 80 l-123 0 q-16 6 -24 22 l0 16 q6 14 20 20 l131 0 l34 -4 l56 0 q14 -6 20 -20 l0 -16 q-6 -14 -20 -20 l-36 -2 l-2 -78 l0 -104 l-10 -143 l2 -18 q-6 -16 -22 -22 l-16 0 Z" /><glyph glyph-name="" unicode="h" d="M395 -34 q-14 6 -20 20 l-2 8 l0 104 q6 73 9 145 q3 72 5 146 l-225 0 l-22 -2 q-12 -98 -19 -197.5 q-7 -99.5 -25 -195.5 q-10 -8 -26 -6 q-14 6 -20 20 l-2 56 q14 85 19 171 q5 86 17 170 l-2 18 q20 86 31 187.5 q11 101.5 35 187.5 q10 8 26 6 q14 -6 20 -20 l0 -18 q-12 -74 -23 -160.5 q-11 -86.5 -23 -160.5 l12 0 l2 2 l217 0 l10 2 q4 86 15 171.5 q11 85.5 33 167.5 q12 10 30 8 q14 -6 20 -20 l0 -16 q-36 -165 -40 -332 q-4 -167 -16 -336 l0 -106 q-6 -14 -20 -20 l-16 0 Z" /><glyph glyph-name="" unicode="i" d="M212 -16 q-32 2 -56 22 q-8 10 -6 26 q6 14 20 20 l20 0 l22 -8 q-2 55 4 121 q6 66 10 120 l4 230 l14 138 l0 105 q-36 -6 -64 12 q-8 10 -6 26 q6 14 20 20 l50 2 l85 0 q30 0 52 -16 q8 -10 6 -26 q-6 -14 -20 -20 l-16 -2 q-22 8 -48 6 l0 -107 q-2 -28 -7 -69 q-5 -41 -7 -69 l-5 -163 l-13 -229 l0 -81 l36 0 l22 4 q14 -6 20 -20 l0 -20 q-6 -14 -20 -20 l-10 -2 l-107 0 Z" /><glyph glyph-name="" unicode="k" d="M455 -14 l-18 12 q-74 80 -140.5 175.5 q-66.5 95.5 -126.5 197.5 l-20 28 q-18 -90 -27 -198 q-9 -108 -23 -199 q-10 -8 -26 -6 q-14 6 -20 20 l-2 40 q16 175 42 364 q26 189 64 384 q10 8 26 6 q14 -6 20 -20 l0 -20 q-12 -66 -24 -145.5 q-12 -79.5 -20 -145.5 l4 0 q70 70 142.5 148.5 q72.5 78.5 144.5 142.5 l16 0 q14 -6 20 -20 l0 -16 q-66 -70 -137 -146.5 q-71 -76.5 -140 -144.5 l0 -10 q36 -78 91.5 -165 q55.5 -87 111.5 -155 q34 -30 60 -65 l0 -4 l14 -8 q8 -10 6 -26 q-6 -16 -22 -24 l-16 0 Z" /><glyph glyph-name="" unicode="l" d="M88 -8 l-22 12 q-8 12 -6 28 q28 195 51 365 q23 170 41 341 l-22 12 q-8 10 -6 26 q6 14 20 20 l44 0 l20 -12 q10 -16 6 -38 q-20 -167 -42 -332 q-22 -165 -48 -354 l6 0 l2 2 l84 0 l77 -4 l108 0 l38 -4 l24 4 q14 -6 20 -20 l0 -16 q-8 -18 -26 -24 l-34 -2 l-30 4 l-104 0 l-151 4 l-50 -12 Z" /><glyph glyph-name="" unicode="m" d="M407 -44 q-14 6 -20 20 l-4 54 l0 85 l10 148 l0 140 l14 172 l-4 0 q-46 -118 -83 -238 q-37 -120 -80 -237 q-10 -8 -26 -6 q-14 6 -20 21 q-20 106 -32 213 q-12 107 -20 215 l-4 0 q-22 -140 -30 -282 q-8 -142 -32 -281 q-10 -8 -26 -6 q-14 6 -20 20 l-2 26 q14 199 37 397 q23 198 59 393 q10 8 26 6 q14 -6 20 -20 l0 -18 q-6 -22 -4 -46 q28 -117 38 -237 q10 -120 24 -238 l4 0 q41 144 96 282.5 q55 138.5 111 274.5 q14 8 32 6 q18 -8 24 -26 l0 -16 q-18 -92 -28 -186.5 q-10 -94.5 -16 -188.5 l0 -140 q-2 -56 -6 -111.5 q-4 -55.5 -4 -113.5 l2 -62 q-6 -14 -20 -20 l-16 0 Z" /><glyph glyph-name="" unicode="n" d="M66 -24 l-22 12 q-8 10 -6 26 l6 14 l0 131 q12 162 30 323 q18 161 64 316 q10 8 26 6 q14 -6 20 -20 l0 -22 q-8 -10 -6 -24 q54 -155 95.5 -314 q41.5 -159 113.5 -306 l4 0 l0 93 q4 148 12 297.5 q8 149.5 36 293.5 q12 12 32 10 q14 -6 20 -20 l0 -16 q-24 -139 -30 -281 q-6 -142 -12 -284 l0 -99 l2 -2 l0 -82 l2 -18 q-8 -16 -24 -24 l-16 0 q-38 32 -61 74 q-23 42 -47 83 q-48 118 -79.5 242 q-31.5 124 -69.5 246 l-4 0 q-14 -118 -29 -235 q-15 -117 -21 -237 l0 -135 q2 -24 -14 -40 l-22 -8 Z" /><glyph glyph-name="" unicode="o" d="M214 -14 q-32 8 -62 21 q-30 13 -58 33 q-34 40 -44 91.5 q-10 51.5 -14 103.5 l0 132 q8 104 44 203.5 q36 99.5 96 183.5 q34 24 68.5 46 q34.5 22 76.5 22 q30 -14 64 -20 q34 -6 58 -36 q36 -56 44 -121.5 q8 -65.5 12 -131.5 l0 -128 q-22 -100 -57 -197.5 q-35 -97.5 -121 -167.5 q-22 -16 -48.5 -26 q-26.5 -10 -58.5 -8 ZM257 50 l26 12 l0 4 l20 22 l4 0 l58 73 l14 16 q16 54 32 108 q16 54 30 108 l0 112 q-6 60 -11 119.5 q-5 59.5 -37 109.5 l-4 2 l0 4 q-44 14 -94 18 q-24 -12 -48.5 -26 q-24.5 -14 -44.5 -34 q-42 -81 -72 -164 q-30 -83 -36 -173 l0 -120 q4 -44 11 -85.5 q7 -41.5 33 -75.5 q24 -14 49 -25 q25 -11 53 -11 l17 6 Z" /><glyph glyph-name="" unicode="p" d="M88 -10 l-22 12 l-8 22 q28 175 38 351 q10 176 28 353 l-4 0 q-28 -18 -60 -22 q-14 6 -20 20 l0 18 l20 22 q56 24 117 35 q61 11 128 9 q42 -6 77 -25 q35 -19 65 -51 q30 -42 37 -92.5 q7 -50.5 5 -104.5 q-6 -42 -29 -77 q-23 -35 -57 -65 q-58 -40 -122.5 -68 q-64.5 -28 -132.5 -40 q-6 -74 -16 -146.5 q-10 -72.5 -24 -142.5 l-20 -8 ZM301 401 q38 16 71 45 q33 29 51 67 q12 46 8 98 q-4 30 -14 58.5 q-10 28.5 -36 48.5 q-30 22 -66 30 q-36 8 -79 4 l-48 -8 q-14 -99 -23 -198 q-9 -99 -13 -199 l10 0 q36 10 70.5 24 q34.5 14 68.5 30 Z" /><glyph glyph-name="" unicode="r" d="M427 -28 l-14 8 q-60 90 -119.5 180.5 q-59.5 90.5 -97.5 194.5 l-10 2 l-52 -20 q-2 -80 -4 -168.5 q-2 -88.5 -20 -162.5 q-10 -8 -26 -6 q-14 6 -20 20 l-2 18 q6 191 21 364 q15 173 41 346 l-4 0 q-38 -12 -74 -24 q-14 6 -20 20 l0 18 q8 16 24 26 q60 20 121 32 q61 12 130 10 q48 -4 88 -26 q40 -22 72 -62 q22 -22 31 -50 q9 -28 7 -63 q-8 -40 -31 -73 q-23 -33 -53 -63 q-42 -28 -83 -55 q-41 -27 -85 -51 l0 -4 q40 -106 102 -200.5 q62 -94.5 114 -190.5 q-6 -14 -20 -20 l-16 0 ZM228 443 q61 36 122 75 q61 39 89 107 l2 39 q-18 42 -60 76 q-30 20 -64 28 q-34 8 -72 4 l-57 -8 q-16 -90 -27 -179.5 q-11 -89.5 -19 -181.5 l6 0 l80 40 Z" /><glyph glyph-name="" unicode="s" d="M182 -4 l-22 12 q-8 10 -6 26 q6 14 20 20 q66 -6 117.5 29 q51.5 35 97.5 82 q18 20 28 44 q10 24 6 54 q-6 58 -28 82 q-78 42 -166.5 45 q-88.5 3 -162.5 53 q-22 22 -28 50 q-6 28 -4 58 q2 52 22 97.5 q20 45.5 56 83.5 q46 42 99.5 72 q53.5 30 119.5 24 q28 -2 51 -15 q23 -13 43 -35 q26 -26 20 -66 q-6 -14 -20 -20 l-18 0 q-14 6 -20 20 q4 20 -12 34 q-36 32 -86 24 q-43 -10 -79 -35 q-36 -25 -70 -57 q-26 -35 -38 -75 q-12 -40 -10 -86 q4 -24 24 -42 q86 -26 176.5 -35 q90.5 -9 160.5 -71 q18 -26 24 -70 q6 -44 4 -78 q-6 -36 -26 -65.5 q-20 -29.5 -48 -55.5 q-48 -46 -102.5 -77 q-54.5 -31 -122.5 -27 Z" /><glyph glyph-name="" unicode="t" d="M204 -18 q-14 6 -20 20 l-2 20 q6 24 7 51 q1 27 5 54 l0 136 l12 186 l0 130 l10 161 l-96 0 l-72 -6 l-22 12 q-8 10 -6 26 l8 14 q44 12 92 12 l229 0 q36 -4 73 -3 q37 1 69 -13 q8 -10 6 -26 q-6 -14 -20 -20 l-26 -2 l-172 6 q-8 -28 -10 -59.5 q-2 -31.5 -4 -101.5 l0 -130 l-13 -186 l0 -136 q-6 -35 -6 -72 q0 -37 -16 -67 q-10 -8 -26 -6 Z" /><glyph glyph-name="" unicode="u" d="M212 -6 q-34 6 -63 23 q-29 17 -55 45 q-22 26 -32 57 q-10 31 -14 66 l0 146 q12 112 26 223.5 q14 111.5 24 223.5 q12 8 28 6 q14 -6 20 -20 l0 -50 q-6 -97 -18 -192 q-12 -95 -22 -191 l0 -140 q4 -30 14 -56.5 q10 -26.5 32 -48.5 q34 -32 80 -34 q39 6 69 34 q52 62 66 142.5 q14 80.5 30 158.5 l0 144 q10 56 15 114.5 q5 58.5 5 118.5 l-2 18 q6 14 20 20 l20 0 q14 -6 20 -20 l0 -80 q-4 -47 -8 -91 q-4 -44 -12 -88 l0 -144 q-16 -92 -35 -186.5 q-19 -94.5 -95 -164.5 q-24 -16 -52.5 -26 q-28.5 -10 -60.5 -8 Z" /><glyph glyph-name="" unicode="w" d="M64 -20 q-14 6 -20 20 l-2 12 l10 34 l0 275 l-4 38 l0 240 l-12 177 l10 22 q14 10 32 8 q14 -6 20 -20 l0 -16 l-4 -12 l12 -159 l0 -240 l4 -38 l0 -150 l4 0 q38 74 61 151 q23 77 57 149 q12 8 29 6 q14 -6 20 -20 q30 -82 51 -167 q21 -85 47 -170 l4 0 q16 125 21 252 q5 127 19 251 l0 123 q0 34 16 60 q14 12 34 8 q14 -6 20 -20 l0 -16 q-12 -16 -12 -36 l0 -119 q-18 -158 -21 -319 q-3 -161 -57 -312 q-10 -8 -26 -6 q-20 10 -28 30 q-28 84 -51 170.5 q-23 86.5 -45 170.5 l-4 0 q-25 -98 -72 -189.5 q-47 -91.5 -87 -181.5 q-10 -8 -26 -6 Z" /><glyph glyph-name="" unicode="x" d="M411 -22 q-18 8 -24 26 q-32 88 -57 175.5 q-25 87.5 -51 175.5 l-4 0 q-49 -84 -84 -178.5 q-35 -94.5 -87 -190.5 q-12 -8 -28 -6 q-14 6 -20 20 l0 16 q56 114 98 223.5 q42 109.5 101 207.5 q-29 74 -53 151.5 q-24 77.5 -44 153.5 l-4 0 q-24 -18 -43 -40 q-19 -22 -37 -43 l-16 0 q-14 7 -20 21 l-2 14 q10 32 40 56 q24 20 47 43 q23 23 57 21 q20 -12 28 -34 q18 -66 38.5 -134.5 q20.5 -68.5 44.5 -134.5 l4 0 q36 70 73 139.5 q37 69.5 69 141.5 q10 8 26 6 q14 -6 20 -20 l0 -20 q-36 -88 -82 -171.5 q-46 -83.5 -82 -171.5 q32 -106 64 -213.5 q32 -107.5 64 -213.5 q-6 -14 -20 -20 l-16 0 Z" /><glyph glyph-name="" unicode="y" d="M339 -22 q-14 6 -20 20 l-2 18 q14 86 23 138.5 q9 52.5 15 138.5 l-4 0 q-30 -26 -67.5 -38 q-37.5 -12 -79.5 -8 q-50 8 -86 48 q-34 32 -42 76 q-8 44 -4 92 q6 60 18 141.5 q12 81.5 18 139.5 l-4 10 q-30 -4 -52 12 q-8 10 -6 26 q6 14 20 20 l54 0 l30 -22 q22 -32 16 -76 q-14 -67 -27 -158 q-13 -91 -9 -165 q8 -38 40 -66 q34 -26 80 -20 q31 8 55 26 q24 18 48 40 q14 102 28 205.5 q14 103.5 42 203.5 q10 8 26 6 q14 -6 20 -20 l0 -22 q-42 -209 -54 -393.5 q-12 -184.5 -50 -366.5 q-10 -8 -26 -6 Z" /><glyph glyph-name="" unicode="[" d="M379 -62 l-2 2 l-20 0 l-14 4 l-72 0 l-2 2 l-51 0 l-22 12 q-4 6 -5 12 q-1 6 -1 14 l2 6 l-2 2 l0 78 l4 22 l0 49 l2 2 l0 26 l2 2 l0 26 l2 2 l0 58 l2 2 l0 30 l2 2 l0 30 l2 2 l0 32 l2 2 l0 60 l2 2 l0 30 l2 2 l0 28 l2 2 l0 26 l2 2 l0 26 l2 2 l0 24 l2 2 l0 22 l2 2 l0 22 l2 2 l0 23 l2 2 l0 52 l2 2 l0 72 l2 18 l-4 22 q2 6 8 12 q6 6 12 8 l21 0 l2 2 l36 0 l2 2 l86 0 q10 -2 20 -4 q10 -2 18 -10 q6 -6 6 -13 q0 -7 0 -15 q-2 -6 -8 -12 q-6 -6 -12 -8 l-16 0 l-10 4 l-84 0 l-16 -6 l-4 -8 l0 -64 l-2 -2 l0 -52 l-2 -2 l0 -23 l-2 -2 l0 -22 l-2 -2 l0 -22 l-2 -2 l0 -24 l-2 -2 l0 -26 l-2 -2 l0 -26 l-2 -2 l0 -28 l-2 -2 l0 -30 l-2 -2 l0 -60 l-2 -2 l0 -32 l-2 -2 l0 -30 l-2 -2 l0 -30 l-2 -2 l0 -58 l-2 -2 l0 -26 l-3 -2 l0 -26 l-2 -2 l0 -49 l-4 -22 l0 -60 q11 -8 23 -8 l72 0 l14 -4 l20 0 q10 -2 21 -4 q11 -2 19 -10 q4 -6 5 -12 q1 -6 1 -14 q-2 -6 -8 -12 q-6 -6 -12 -8 l-24 0 Z" /><glyph glyph-name="" unicode="\" d="M311 -92 q-6 2 -12 8 q-6 6 -8 12 l-2 8 l0 24 l2 2 l0 26 l2 2 l0 38 l2 2 l0 28 l-4 4 l-127 0 l-2 -2 l-52 0 l-16 -2 l-22 12 q-4 6 -5 12 q-1 6 -1 14 q2 6 8 12.5 q6 6.5 12 8.5 l22 0 l2 2 l52 0 l2 2 l131 0 q6 10 7 22 q1 12 3 24 q2 12 2 24 l-4 4 l-44 0 l-2 -2 l-25 0 l-2 -2 l-44 0 l-2 -2 l-44 0 q-10 2 -19 4 q-9 2 -17 10 q-4 6 -5 12 q-1 6 -1 14 q2 6 8 12 q6 6 12 8 l20 0 l2 -2 l44 0 l2 2 l44 0 l2 2 l25 0 l2 2 l54 0 q8 16 10 34 q2 18 5 35 q3 17 7 34 q4 17 8 35 l-6 2 q-14 -12 -28 -22 q-14 -10 -28 -21 q-14 -11 -30.5 -17 q-16.5 -6 -34.5 -10 l-30 0 q-14 2 -26 7 q-12 5 -23 13 q-11 8 -21 18 q-10 12 -18 25 q-8 13 -12 27 q-4 14 -6 30 q-2 16 -4 30 l0 38 l2 2 l0 42 q4 34 12 65.5 q8 31.5 19 62.5 q11 31 24 62 q13 31 33 57 l16 12 l20 0 q6 -2 12 -8 q6 -6 8 -12 l0 -16 q-20 -24 -32 -51 q-12 -27 -22 -55 q-10 -28 -19 -57.5 q-9 -29.5 -13 -59.5 l0 -42 l-2 -2 l0 -38 q2 -14 5 -29 q3 -15 10 -27 q7 -12 17 -24 l22 -12 l22 0 q18 6 33.5 15 q15.5 9 30.5 20 q15 11 29 25 q14 14 28 28 q34 32 46 73 q12 41 19 83.5 q7 42.5 15 84.5 q8 42 28 80 q6 4 12 5 q6 1 14 1 q6 -2 12 -8 q6 -6 8 -12 l0 -20 q-10 -22 -15 -46 q-5 -24 -10 -48 q-5 -24 -10 -49.5 q-5 -25.5 -7 -49.5 l2 -2 l0 -22 q-16 -32 -24 -68 q-8 -36 -16 -71 q-8 -35 -16 -70 q-8 -35 -12 -73 l4 -4 l38 0 q6 -2 12 -8 q6 -6 8 -12 l0 -16 q-2 -6 -8 -12 q-6 -6 -12 -8 l-10 -2 l-38 0 q-6 -6 -7 -15 q-1 -9 -2 -18 q-1 -9 -3 -17 l0 -22 q4 -8 12 -6 q8 2 14 -2 l30 0 l24 -13 q4 -6 5 -12 q1 -6 1 -14 q-2 -6 -8 -12 q-6 -6 -12 -8 l-40 0 l-26 4 l-6 -6 l0 -24 l-2 -2 l0 -38 l-2 -2 l0 -26 l-2 -8 l2 -2 l0 -22 q-4 -8 -9 -13 q-5 -5 -13 -9 l-16 0 Z" /><glyph glyph-name="" unicode="]" d="M220 -36 l-2 2 l-98 0 l-22 12 q-4 6 -5 12 q-1 6 -1 14 q2 6 8 12 q6 6 12 8 l78 0 l6 2 l2 6 l0 26 l2 2 l0 34 l2 2 l0 43 l2 2 l0 24 l2 2 l0 56 l2 2 l0 60 l2 2 l0 30 l2 2 l0 32 l2 2 l0 30 l2 2 l0 30 l2 2 l0 28 l2 2 l0 28 l2 2 l0 26 l2 2 l0 26 l2 2 l0 24 l2 2 l0 22 l2 2 l0 22 l2 2 l0 21 l2 2 l0 46 l2 2 l0 54 q-6 8 -16 8 l-20 0 l-2 2 l-20 0 l-2 2 l-30 0 q-8 4 -15 9 q-7 5 -9 13 l0 16 q2 6 8 12 q6 6 12 8 l34 0 l2 -2 l20 0 l2 -2 l20 0 l2 -2 l20 0 q12 -2 25.5 -4 q13.5 -2 21.5 -12 q6 -6 9 -14 q3 -8 1 -18 l-4 -14 l0 -56 l-2 -2 l0 -46 l-2 -2 l0 -21 l-2 -2 l0 -22 l-2 -2 l0 -22 l-2 -2 l0 -24 l-2 -2 l0 -26 l-2 -2 l0 -26 l-2 -2 l0 -28 l-2 -2 l0 -28 l-2 -2 l0 -30 l-2 -2 l0 -30 l-2 -2 l0 -32 l-2 -2 l0 -30 l-2 -2 l0 -60 l-2 -2 l0 -56 l-2 -2 l0 -24 l-2 -2 l0 -43 l-2 -2 l0 -34 l-2 -2 l0 -26 l-5 -26 l5 -22 q-3 -6 -9 -12 q-6 -6 -12 -8 l-16 0 Z" /><glyph glyph-name="" unicode="_" d="M449 -38 l-22 4 l-28 0 l-2 2 l-34 0 l-2 2 l-90 0 l-2 -2 l-135 0 l-2 -2 l-42 0 q-8 2 -16 5 q-8 3 -14 9 q-4 6 -5 12 q-1 6 -1 14 q2 6 8 12 q6 6 12 8 l22 0 l2 -2 l34 0 l2 2 l135 0 l2 2 l90 0 l2 -2 l34 0 l2 -2 l28 0 q10 -2 20 -3 q10 -1 21 -2 q11 -1 17 -11 q4 -6 5 -12 q1 -6 1 -14 q-2 -6 -8 -12 q-6 -6 -12 -8 l-22 0 Z" /><glyph glyph-name="" unicode="`" d="M341 658 q-38 34 -82.5 51 q-44.5 17 -84.5 43 q-8 10 -6 26 q6 14 20 20 l20 0 q42 -22 84.5 -40 q42.5 -18 78.5 -54 q8 -10 6 -26 q-6 -14 -20 -20 l-16 0 Z" /><glyph glyph-name="" unicode="a" d="M186 -16 q-28 2 -51 12 q-23 10 -43 30 q-22 32 -32 69 q-10 37 -10 80 q0 76 34 143 q34 67 92 119 q34 34 76.5 50 q42.5 16 92.5 10 q34 -10 62 -36 l18 2 q14 -6 20 -20 l0 -20 q-18 -80 -40 -159 q-22 -79 -24 -164 q4 -28 20 -52 l20 -12 q8 -12 6 -28 q-6 -14 -20 -20 l-20 0 q-26 16 -44 42 l-2 10 l-4 0 q-34 -22 -71.5 -38 q-37.5 -16 -79.5 -18 ZM299 84 l24 20 q0 79 19 152 q19 73 35 149 l-14 8 q-10 18 -28 26 l-46 0 q-47 -14 -83 -54 q-50 -48 -75 -107 q-25 -59 -23 -127 q6 -49 32 -91 q28 -18 62 -18 q26 6 49.5 18 q23.5 12 47.5 24 Z" /><glyph glyph-name="" unicode="b" d="M204 -8 l-2 2 l-22 0 q-16 4 -34 7 q-18 3 -33 11 q-15 8 -32 13 q-17 5 -31 15 q-4 6 -5 12 q-1 6 -1 14 q14 74 24 148.5 q10 74.5 23 147.5 q13 73 25 147 q12 74 22 148 l0 25 l2 2 l0 22 l6 38 l-14 4 l-10 -2 l-22 12 q-4 6 -5 12 q-1 6 -1 14 q2 6 8 12 q6 6 12 8 l44 10 l32 0 q6 -2 12 -8 q6 -6 8 -12 l0 -20 l-4 -6 l0 -20 l-8 -42 l0 -22 l-2 -2 l0 -25 l-30 -196 l8 -4 q12 6 24 12 q12 6 25 9 q13 3 27.5 5 q14.5 2 26.5 6 l52 0 q14 -2 26 -7 q12 -5 23 -12 q11 -7 22 -16 q11 -9 21 -19 q10 -12 19 -26 q9 -14 14 -28 q5 -14 9 -29 q4 -15 8 -31 l0 -78 q-8 -28 -14 -56.5 q-6 -28.5 -20 -53.5 q-14 -25 -31 -48 q-17 -23 -39 -45 q-14 -10 -28 -20 q-14 -10 -30 -15 q-16 -5 -34 -7 q-18 -2 -35 -6 l-36 0 ZM313 72 q14 10 26 22 q12 12 21 26 q9 14 18 28 q9 14 15 29 l20 72 l0 68 q-4 14 -8 27 q-4 13 -10 26 q-6 13 -15 24 q-9 11 -21 21 l-36 16 l-46 0 q-18 -2 -35.5 -8 q-17.5 -6 -33.5 -14 q-16 -8 -30 -19 q-14 -11 -28 -23 q-6 -36 -12 -72 q-6 -36 -11 -72 q-5 -36 -10 -72.5 q-5 -36.5 -9 -72.5 q12 -6 24 -11 q12 -5 24 -8 q12 -3 24 -7 l22 0 l2 -2 l36 0 q13 2 26 4 q13 2 25 7 q12 5 22 11 Z" /><glyph glyph-name="" unicode="c" d="M232 -30 q-76 2 -112 38 q-30 36 -39 81.5 q-9 45.5 -5 95.5 q6 66 27 129 q21 63 69 115 q64 38 107.5 56 q43.5 18 97.5 12 q30 -4 50 -30 q18 -20 16 -48 q-6 -16 -22 -22 l-16 0 q-14 6 -20 20 l-8 18 q-26 6 -54 4 q-26 -6 -49.5 -16 q-23.5 -10 -71.5 -42 q-38 -56 -55 -122 q-17 -66 -13 -140 q6 -43 32 -75 q56 -18 92 -16 q41 12 75 38 q6 14 20 20 l16 0 q14 -6 20 -20 l0 -24 q-34 -38 -78 -58 q-36 -16 -79 -14 Z" /><glyph glyph-name="" unicode="d" d="M337 -36 q-14 6 -20 20 l-2 14 l-6 0 q-28 -10 -58.5 -15 q-30.5 -5 -62.5 -3 q-26 4 -50 14 q-24 10 -44 32 q-34 38 -45 87.5 q-11 49.5 -9 103.5 q-2 64 24 117 q26 53 78 95 q34 28 73 44 q39 16 88 10 q36 -4 68 -16 q10 84 27 168.5 q17 84.5 39 164.5 q10 8 26 6 q14 -6 20 -20 l0 -28 q-46 -195 -64 -394 q-18 -199 -56 -394 q-10 -8 -26 -6 ZM301 60 l26 22 q8 71 18 142 q10 71 16 141 q-6 26 -20 48 q-36 14 -80 12 q-31 -8 -58 -24 q-27 -16 -49 -42 q-42 -36 -49 -87 q-7 -51 -7 -105 q2 -32 14 -60.5 q12 -28.5 34 -50.5 q40 -22 92 -18 q33 8 63 22 Z" /><glyph glyph-name="" unicode="e" d="M265 -6 q-45 2 -85 16 q-40 14 -72 48 q-34 34 -47 76.5 q-13 42.5 -9 90.5 q8 50 23 97 q15 47 51 85 q38 34 85.5 49 q47.5 15 101.5 13 q30 -2 56 -11 q26 -9 46 -33 q14 -22 18 -47 q4 -25 2 -53 q-16 -38 -50 -70 q-56 -46 -124.5 -65 q-68.5 -19 -140.5 -23 l-6 2 l0 -8 q10 -36 38 -65 q28 -26 63 -35 q35 -9 74 -9 q40 0 75 12 q35 12 71 22 q14 -6 20 -20 l0 -18 q-8 -18 -26 -24 q-38 -16 -79 -23 q-41 -7 -85 -7 ZM323 281 q36 20 54 56 l0 32 l-14 26 q-40 20 -90 16 q-31 -4 -57 -15 q-26 -11 -50 -31 q-26 -30 -37 -65 q-11 -35 -17 -73 l24 0 q52 2 98.5 16 q46.5 14 88.5 38 Z" /><glyph glyph-name="" unicode="f" d="M202 -36 q-14 6 -20 20 l-2 14 q4 104 8 209.5 q4 105.5 14 209.5 l-44 0 l-48 -6 q-14 6 -20 20 l0 18 q6 14 20 20 q46 8 94 6 q2 70 11 138.5 q9 68.5 54 122.5 q36 20 75 32 q39 12 83 8 q30 0 50 -20 q8 -12 6 -28 q-6 -14 -20 -20 l-18 0 q-28 16 -66 10 q-40 -12 -78 -32 q-24 -46 -31 -100.5 q-7 -54.5 -7 -110.5 l86 0 l36 2 q14 -6 20 -20 l0 -18 q-6 -14 -20 -20 l-28 -2 l-96 0 q-13 -110 -15 -223.5 q-2 -113.5 -18 -223.5 q-10 -8 -26 -6 Z" /><glyph glyph-name="" unicode="g" d="M162 -128 q-28 8 -57 13 q-29 5 -55 17 q-8 10 -6 26 q6 14 20 20 l28 0 q32 -8 64 -15 q32 -7 68 -3 q35 4 65 13 q30 9 56 31 q20 40 26 86 l-6 0 q-36 -14 -75 -24 q-39 -10 -82 -10 q-30 2 -58 10 q-28 8 -52 28 q-22 25 -29 55 q-7 30 -5 104 q4 58 24 111 q20 53 62 95 q40 34 87.5 50 q47.5 16 103.5 10 q28 -4 51 -22 q23 -18 51 -26 q8 -12 6 -28 q-12 -42 -16 -88 l0 -251 q-6 -40 -15 -78 q-9 -38 -37 -68 q-44 -38 -101.5 -48 q-57.5 -10 -117.5 -8 ZM353 117 l22 8 l0 200 l8 72 l-32 28 q-34 10 -72 6 q-26 -6 -48.5 -18 q-22.5 -12 -42.5 -28 q-36 -42 -52 -92 q-16 -50 -14 -146 q2 -24 18 -42 q22 -12 46 -17 q24 -5 52 -3 q31 6 59 15 q28 9 56 17 Z" /><glyph glyph-name="" unicode="h" d="M104 6 q-14 6 -20 20 l-2 32 q16 189 42 377 q26 188 62 373 q10 8 26 6 q14 -6 20 -20 l0 -32 q-14 -84 -26 -168.5 q-12 -84.5 -26 -168.5 l4 0 q38 36 87.5 49 q49.5 13 103.5 9 q38 -2 64 -36 q16 -20 20 -44 l0 -82 q-6 -62 -16 -122 q-10 -60 -14 -123 q14 -22 16 -50 q-6 -14 -20 -20 l-16 0 l-16 10 q-26 38 -22 88 q8 71 20 142 q12 71 10 145 l-14 26 q-32 12 -70 8 q-44 -6 -79.5 -31 q-35.5 -25 -67.5 -59 q-10 -80 -18 -162.5 q-8 -82.5 -22 -160.5 q-10 -8 -26 -6 Z" /><glyph glyph-name="" unicode="i" d="M275 -8 q-16 2 -27 16 q-10 32 -15 66 q-5 34 -3 71 q6 74 16.5 146 q10.5 72 38.5 136 q10 8 26 6 q14 -6 20 -20 l0 -18 q-24 -72 -33 -150 q-9 -78 -9 -157 q8 -38 16 -74 q-6 -14 -20 -20 l-10 -2 ZM319 545 l-22 10 q-12 16 -12 36 l10 22 q14 19 38 15 q20 -13 32 -35 l0 -22 q-8 -16 -24 -24 l-22 -2 Z" /><glyph glyph-name="" unicode="j" d="M134 -120 q-18 2 -32 14 q-8 12 -6 28 q6 14 20 20 l16 0 q30 -6 64 -4 l87 12 q52 100 61 210.5 q9 110.5 17 222.5 l-28 0 l-74 -10 q-15 6 -21 20 l0 18 q6 14 21 20 q36 4 72 8 q36 4 74 4 q14 -6 20 -20 l0 -22 q-14 -128 -26 -259.5 q-12 -131.5 -84 -241.5 q-40 -16 -86.5 -18 q-46.5 -2 -94.5 -2 ZM369 557 q-20 12 -32 34 l-2 26 q6 17 22 23 l16 0 q24 -17 40 -43 l0 -18 q-6 -14 -20 -20 l-24 -2 Z" /><glyph glyph-name="" unicode="k" d="M128 0 l-22 12 q-18 40 -24 86.5 q-6 46.5 -10 92.5 l0 94 q8 136 25 272.5 q17 136.5 67 260.5 q12 8 30 6 q14 -6 20 -20 l0 -16 l-18 -20 q-28 -114 -43 -230.5 q-15 -116.5 -21 -234.5 l4 0 q64 40 132.5 72 q68.5 32 138.5 56 q14 -6 20 -20 l0 -16 q-8 -16 -24 -24 q-58 -28 -119.5 -55 q-61.5 -27 -117.5 -63 l0 -4 q64 -58 134.5 -107.5 q70.5 -49.5 136.5 -103.5 l0 -16 q-6 -14 -20 -20 l-16 0 q-70 44 -137.5 94.5 q-67.5 50.5 -133.5 102.5 l0 -8 q2 -44 9 -86.5 q7 -42.5 19 -82.5 q-6 -14 -20 -20 l-10 -2 Z" /><glyph glyph-name="" unicode="l" d="M226 -22 q-22 4 -40 18 q-14 22 -14 49 q0 27 0 53 q18 153 38 305 q20 152 44 353 l-4 0 l-42 -8 q-14 6 -20 20 l0 18 q6 14 20 20 q44 16 93 20 q14 -6 20 -20 l0 -18 q-30 -221 -54.5 -395 q-24.5 -174 -36.5 -351 l2 -6 l12 0 l39 2 q14 -6 20 -20 l0 -16 q-6 -14 -20 -20 l-57 -4 Z" /><glyph glyph-name="" unicode="m" d="M443 -40 q-20 4 -36 18 l-10 22 l0 133 q4 70 13 138 q9 68 17 136 l-4 0 q-34 -18 -64 -44 q-30 -26 -62 -50 q-24 -70 -31 -147.5 q-7 -77.5 -11 -155.5 l2 -20 q-7 -14 -21 -20 l-16 0 l-14 8 q-16 34 -10 76 q10 85 19 169 q9 84 21 168 l-4 0 q-30 -32 -57 -64 q-27 -32 -51 -66 l-4 0 q-12 -70 -23 -140.5 q-11 -70.5 -21 -142.5 q-10 -8 -26 -6 q-14 6 -20 20 l-2 46 q18 117 35 234 q17 117 39 203 q10 8 26 6 q14 -6 20 -20 l0 -30 q-8 -12 -10 -54 l4 0 q24 26 47 53 q23 27 53 43 l31 2 q16 -6 22 -22 l2 -58 l-2 -8 l4 0 q36 32 74 60 q38 28 90 24 q16 -8 22 -24 l0 -72 q-12 -58 -19 -119 q-7 -61 -11 -123 l0 -117 l14 -8 q8 -10 6 -26 q-6 -14 -20 -20 l-12 -2 Z" /><glyph glyph-name="" unicode="n" d="M399 -14 l-22 12 q-12 26 -12 58 l2 2 l0 91 q4 56 11 110 q7 54 7 110 q-2 28 -16 50 l-52 2 q-44 -10 -82.5 -35 q-38.5 -25 -72.5 -59 l-14 -14 l-4 0 q-14 -78 -18 -159.5 q-4 -81.5 -18 -159.5 q-10 -8 -26 -6 q-14 6 -20 20 l-2 32 q4 117 19 230 q15 113 51 221 q10 8 26 6 q14 -6 20 -20 l0 -20 l-12 -48 l4 0 q42 38 93.5 57 q51.5 19 111.5 13 q24 -4 42 -24 q20 -30 25 -66 q5 -36 3 -76 l-18 -168 l0 -107 q10 -12 8 -28 q-6 -16 -22 -22 l-12 -2 Z" /><glyph glyph-name="" unicode="o" d="M243 -30 q-33 4 -60 18 q-27 14 -51 36 q-44 40 -56 93.5 q-12 53.5 -8 113.5 q2 62 30 115 q28 53 74 97 q22 22 51.5 30 q29.5 8 63.5 4 q24 -8 50 -14 q26 -6 44 -32 q40 -48 60 -104 q20 -56 14 -122 q0 -62 -27 -113.5 q-27 -51.5 -71 -95.5 q-24 -16 -53 -22 q-29 -6 -61 -4 ZM321 44 q46 40 62 93.5 q16 53.5 14 115.5 q-2 44 -22 80 q-20 36 -48 70 q-42 10 -84 16 q-33 -16 -56 -45 q-23 -29 -41 -57 q-16 -36 -19 -77 q-3 -41 -1 -83 q4 -26 16 -49.5 q12 -23.5 32 -43.5 q20 -20 45.5 -29 q25.5 -9 55.5 -7 q24 4 46 16 Z" /><glyph glyph-name="" unicode="p" d="M82 -138 l-22 12 l-8 22 q22 130 37 277.5 q15 147.5 47 275.5 q12 10 30 8 l20 -12 q32 22 68.5 32 q36.5 10 78.5 6 q38 -6 66 -34 q38 -42 61 -89 q23 -47 17 -107 q-10 -74 -33 -111 q-23 -37 -53 -72 q-28 -20 -63 -26 q-35 -6 -74 -4 q-30 4 -59 11 q-29 7 -59 15 q-6 -50 -12 -100 q-6 -50 -22 -96 l-20 -8 ZM333 107 l24 12 q36 46 51 90 q15 44 11 90 q-6 32 -24 58 q-18 26 -38 52 q-28 22 -70 16 q-26 -6 -50.5 -18 q-24.5 -12 -46.5 -30 l-12 -20 l-8 -6 q-8 -46 -14 -108 q-6 -62 -10 -110 q36 -20 76.5 -28 q40.5 -8 86.5 -6 l24 8 Z" /><glyph glyph-name="" unicode="q" d="M427 -118 q-44 -2 -78 18 q-22 28 -20 66 l14 98 l-6 0 q-26 -12 -60.5 -22 q-34.5 -10 -74.5 -8 q-52 2 -90 43 q-22 30 -32 66 q-10 36 -8 78 q6 98 24 136 q18 38 60 80 q34 26 75.5 40 q41.5 14 89.5 8 q50 -4 90 -34 l22 4 q14 -6 20 -20 l0 -16 q-18 -96 -35 -240.5 q-17 -144.5 -31 -228.5 l2 -6 l36 -2 l22 4 q14 -6 20 -20 l0 -20 q-6 -16 -22 -22 l-18 -2 ZM351 123 l0 18 q10 58 20 125 q10 67 14 127 q-24 24 -55 30 q-31 6 -65 4 q-49 -14 -87 -50 q-32 -46 -41 -77 q-9 -31 -7 -123 q10 -36 32 -68 q34 -22 80 -16 q29 8 56 17 q27 9 47 15 l6 -2 Z" /><glyph glyph-name="" unicode="r" d="M86 -10 q-14 6 -20 20 l-2 18 q22 149 36 253 q14 104 44 204 q12 12 32 10 q14 -6 20 -20 l0 -18 q-18 -40 -22 -84 l4 0 q44 46 96.5 77 q52.5 31 120.5 25 q32 -8 58 -28 q8 -10 6 -26 q-6 -14 -20 -20 l-18 0 q-32 18 -72 16 q-48 -14 -88.5 -50 q-40.5 -36 -80.5 -68 l-22 -24 q-10 -58 -22 -140.5 q-12 -82.5 -24 -138.5 q-10 -8 -26 -6 Z" /><glyph glyph-name="" unicode="s" d="M240 -4 l-22 12 q-8 10 -6 26 q6 14 20 20 q51 4 96 19.5 q45 15.5 81 51.5 l6 16 q-10 12 -26 18 q-42 10 -90 6 q-34 -6 -68.5 -10 q-34.5 -4 -70.5 -6 q-28 2 -52 12 q-24 10 -44 32 q-24 38 -20 90 q6 34 29 62 q23 28 47 54 q50 40 109.5 60 q59.5 20 127.5 14 q50 -2 86 -40 q10 -14 8 -34 q-6 -14 -20 -20 l-16 0 q-18 20 -40 32 q-42 6 -88 4 q-38 -10 -75.5 -27 q-37.5 -17 -67.5 -47 q-44 -36 -42 -90 q2 -16 14 -28 q28 -18 64 -16 q48 6 95.5 12 q47.5 6 99.5 4 q48 -8 84 -40 q16 -20 14 -48 q-4 -40 -40 -69 q-42 -34 -90 -49 q-48 -15 -103 -21 Z" /><glyph glyph-name="" unicode="t" d="M214 6 q-22 12 -30 34 l-2 30 q10 84 21 168.5 q11 84.5 21 168.5 l-12 0 l-110 -16 l-22 12 q-8 10 -6 26 q6 14 20 20 q36 4 70 10 q34 6 72 6 q6 48 13.5 94 q7.5 46 19.5 90 q12 8 28 6 q14 -6 20 -20 l0 -34 q-8 -32 -13 -66 q-5 -34 -9 -68 q34 0 69 -1 q35 -1 65 -13 q8 -10 6 -26 q-6 -14 -20 -20 l-40 -2 l-90 4 q-12 -86 -24 -174.5 q-12 -88.5 -19 -176.5 q11 -14 9 -32 q-6 -14 -21 -20 l-16 0 Z" /><glyph glyph-name="" unicode="u" d="M391 -16 l-54 30 q-16 34 -16 76 l-4 0 q-46 -16 -83.5 -52 q-37.5 -36 -91.5 -32 q-34 2 -58 30 q-24 30 -30 69.5 q-6 39.5 -4 81.5 q6 66 19 140 q13 74 39 134 q12 8 28 6 q14 -6 20 -20 l0 -16 q-24 -66 -36 -146 q-12 -80 -12 -154 q4 -33 22 -59 q16 -10 36 -8 q34 22 68.5 47.5 q34.5 25.5 66.5 53.5 q30 64 38 147 q8 83 32 149 q12 8 28 6 q14 -6 20 -20 l0 -16 q-14 -62 -25 -133 q-11 -71 -15 -137 l0 -91 l4 -18 q22 -2 38 -20 q8 -12 6 -28 q-6 -14 -20 -20 l-16 0 Z" /><glyph glyph-name="" unicode="v" d="M152 0 l-22 12 q-10 14 -8 32 q2 48 6 97.5 q4 49.5 10 133.5 l0 112 l-8 22 l-18 2 q-24 -16 -52 -18 q-14 6 -20 20 l0 16 q12 22 34 32 q32 12 72 8 q24 -14 40 -36 q10 -22 10 -46 l0 -112 q-6 -78 -9 -120.5 q-3 -42.5 -5 -84.5 l6 0 q34 18 68.5 40.5 q34.5 22.5 64.5 48.5 q30 54 56 135 q26 81 44 139 q10 8 26 6 q14 -6 20 -20 l0 -22 q-16 -66 -47 -153 q-31 -87 -73 -142 q-46 -32 -92.5 -62 q-46.5 -30 -102.5 -40 Z" /><glyph glyph-name="" unicode="w" d="M337 -26 l-28 20 q-28 48 -43 117.5 q-15 69.5 -30 139.5 l-4 0 q-36 -64 -58 -132.5 q-22 -68.5 -50 -134.5 q-10 -8 -26 -6 q-16 8 -22 24 q-14 72 -24 147.5 q-10 75.5 -12 151.5 l0 82 l-4 42 l12 22 q10 8 26 6 q14 -6 20 -20 l4 -50 l0 -82 q0 -44 5 -86 q5 -42 9 -86 l4 0 q26 76 64 158 q38 82 54 160 q11 8 27 6 q14 -6 20 -20 q2 -86 16 -178 q14 -92 36 -173 l4 0 q26 89 42 189 q16 100 46 186 q10 8 26 6 q14 -6 20 -20 l0 -18 q-26 -110 -50 -231.5 q-24 -121.5 -58 -213.5 q-10 -8 -26 -6 Z" /><glyph glyph-name="" unicode="x" d="M68 -28 q-14 6 -20 20 l0 16 q58 70 105 152.5 q47 82.5 43 178.5 l-14 26 q-16 12 -40 8 q-30 -14 -54 -42 q-10 -20 -20 -40 q-14 -8 -32 -6 l-20 22 l-2 12 q14 40 52 72 q22 22 48 33 q26 11 58 7 q38 -4 64 -38 q13 -20 17 -46 l4 0 q22 28 44 56 q22 28 52 46 l28 0 q16 -6 22 -22 l0 -22 q-6 -14 -20 -20 q-24 4 -38 -18 q-44 -52 -69 -113 q-25 -61 -27 -131 q6 -27 26 -47 q24 -18 56 -16 q38 10 73 29 q35 19 73 30 q16 -6 22 -23 l0 -16 q-30 -30 -70 -46 q-26 -12 -54 -22 q-28 -10 -60 -10 q-52 2 -89 40 q-26 28 -32 62 l-6 2 q-22 -36 -44 -72 q-22 -36 -58 -62 l-18 0 Z" /><glyph glyph-name="" unicode="y" d="M200 -138 q-14 2 -29 4 q-15 2 -29 7 q-14 5 -26 15 q-6 6 -6 13 q0 7 0 15 q2 6 8 12 q6 6 12 8 l16 0 q8 -6 18 -8 q10 -2 21 -4 q11 -2 21 -4 l28 0 q15 4 30 7 q15 3 29 8 q14 5 27 12 q13 7 23 19 q8 10 12 21 q4 11 7 22 q3 11 5 23 l0 23 l-8 0 q-12 -11 -26 -16 q-14 -5 -28 -12 q-14 -7 -29 -10 q-15 -3 -29 -7 l-39 0 q-14 4 -28 7 q-14 3 -27 10 q-13 7 -23 19 q-8 11 -14 23 q-6 12 -10 24 q-4 12 -6 25 q-2 13 -4 25 l0 46 q2 28 6 55 q4 27 10 53 q6 26 12 52 q6 26 12 52 l0 44 l-12 6 q-14 -6 -27 -13 q-13 -7 -24 -18 q-11 -11 -29 -9 q-6 2 -12 8 q-6 6 -8 12 l0 18 q6 14 19 23 q13 9 25 16 q12 7 26 15 l24 6 l38 0 q8 -4 15 -11 q7 -7 12 -14 q5 -7 9 -15 l2 -6 l0 -62 q-4 -26 -10 -52 q-6 -26 -13 -52 q-7 -26 -10 -53 q-3 -27 -7 -55 l0 -46 q2 -10 5 -21 q3 -11 7 -21 q4 -10 10 -18 l32 -14 l37 0 q16 4 32 11 q16 7 32 13 q16 6 30 18 q14 12 26 26 q10 8 11 20 q1 12 3 24 l0 96 q8 30 11 60 q3 30 8 60 q5 30 10 60 q5 30 21 56 q6 6 13 6 q7 0 15 0 q6 -2 12 -8 q6 -6 8 -12 l0 -16 q-8 -26 -13 -52 q-5 -26 -9 -53 q-4 -27 -8 -54 q-4 -27 -10 -53 l0 -98 l-6 -36 l0 -28 l-2 -2 l0 -38 l-2 -2 l0 -25 q-2 -20 -6 -39 q-4 -19 -10 -37 q-6 -18 -20 -33 q-14 -15 -28 -29 q-14 -10 -28 -16 q-14 -6 -30 -11 q-16 -5 -32 -8 q-16 -3 -32 -7 l-41 0 Z" /><glyph glyph-name="" unicode="z" d="M329 -64 q-62 8 -116.5 35 q-54.5 27 -118.5 27 l-22 -2 q-14 6 -20 20 l0 18 q64 79 134.5 173 q70.5 94 130.5 174 q-48 -4 -92.5 3 q-44.5 7 -92.5 7 q-24 -24 -56 -24 q-14 6 -20 20 l0 16 q20 28 52 42 q38 6 78 4 l55 -10 l80 0 q38 2 76 10 q14 -6 20 -20 l0 -20 q-66 -78 -133.5 -179 q-67.5 -101 -141.5 -178 q54 -4 101.5 -30 q47.5 -26 103.5 -26 q28 8 53 26 q25 18 55 20 q14 -6 20 -20 l0 -16 q-12 -20 -32 -28 q-26 -16 -54 -29 q-28 -13 -60 -13 Z" /><glyph glyph-name="" unicode="{" d="M379 -68 q-12 6 -24 11 q-12 5 -24 13 q-12 8 -24 14 q-12 6 -22 16 q-10 12 -19 24 q-9 12 -14.5 27 q-5.5 15 -7.5 30 q-2 15 -6 29 l0 35 l-2 2 l0 108 l-2 2 l0 20 q-4 14 -5 30 q-1 16 -3 31 q-2 15 -10 29 q-10 2 -19 4 q-9 2 -15 10 l-8 22 l12 22 l24 10 q36 44 46.5 97 q10.5 53 25.5 105.5 q15 52.5 32 103.5 q17 51 51 97 l36 22 l36 0 l24 -14 q6 -6 6 -13 q0 -7 0 -15 q-2 -6 -8 -12 q-6 -6 -12 -8 l-16 0 l-14 4 q-8 -4 -14 -11 q-6 -7 -10 -15 q-4 -8 -8 -16 q-18 -44 -33 -89.5 q-15 -45.5 -25 -91.5 q-10 -46 -22 -92 q-12 -46 -40 -86 q12 -12 15 -28 q3 -16 5 -32 q2 -16 3 -32 q1 -16 5 -32 l0 -20 l2 -2 l0 -108 l2 -2 l0 -35 q2 -12 6 -25 q4 -13 10 -24 q6 -11 16 -21 q14 -8 28 -17 q14 -9 29 -15 q15 -6 27 -16 q4 -6 5 -12 q1 -6 1 -14 q-2 -6 -8 -12 q-6 -6 -12 -8 l-20 0 Z" /><glyph glyph-name="" unicode="|" d="M240 -132 q-6 2 -12 8 q-6 6 -8 12 l0 28 l2 2 l0 24 l2 2 l0 26 l2 2 l0 28 l2 2 l0 67 l2 2 l0 116 l2 2 l0 533 l-2 2 l0 22 l-2 2 l0 66 l2 2 l0 24 q2 8 6 14 q4 6 10 12 q6 4 12.5 5 q6.5 1 14.5 1 q6 -2 12 -8 q6 -6 8 -12 l0 -16 l-6 -22 l0 -66 l2 -2 l0 -22 l2 -2 l0 -533 l-2 -2 l0 -116 l-2 -2 l0 -67 l-2 -2 l0 -28 l-2 -2 l0 -26 l-2 -2 l0 -24 q-2 -12 -3 -24 q-1 -12 -11 -20 q-6 -4 -12.5 -5 q-6.5 -1 -14.5 -1 Z" /><glyph glyph-name="" unicode="}" d="M171 -88 q-6 2 -12 8 q-6 6 -8 12 l0 18 q2 6 8 12 q6 6 12 8 q12 0 22 3 q10 3 18 11 q6 12 10 25 q4 13 7 26 q3 13 5 27.5 q2 14.5 4 28.5 l5 158 l2 2 l0 24 q2 16 5 30 q3 14 5.5 29 q2.5 15 7.5 28 q5 13 13 25 q-12 12 -20.5 26 q-8.5 14 -11.5 30 q-3 16 -5 32 l0 46 q2 22 7 42 q5 20 10.5 40 q5.5 20 10.5 40.5 q5 20.5 11 56.5 l0 70 l-16 14 l-29 0 l-36 -12 l-20 0 q-6 2 -12 8 q-6 6 -8 12 l0 16 q4 8 11 14 q7 6 15 10 l26 8 l22 0 l2 2 l35 0 q10 0 19 -5 q9 -5 17 -10 q8 -5 16 -13 q6 -8 10 -16 q4 -8 6 -18 l0 -80 q-6 -36 -11 -57.5 q-5 -21.5 -9 -41.5 q-4 -20 -9 -40 q-5 -20 -9 -40 l0 -46 q2 -8 4 -16 q2 -8 6 -16 q4 -8 10 -14 q8 -6 17 -13 q9 -7 18 -12 q9 -5 13 -15 l0 -16 q-2 -6 -8 -12 q-6 -6 -12 -8 l-26 -8 q-6 -10 -7 -23 q-1 -13 -4 -24 q-3 -11 -5 -23 l0 -28 l-2 -2 l-5 -154 l-4 -22 l0 -21 q-4 -16 -8 -31 q-4 -15 -8 -30 q-4 -15 -12 -29 q-8 -14 -21 -26 q-8 -4 -16 -9 q-8 -5 -17 -7 q-9 -2 -19 -4 l-20 0 Z" /><glyph glyph-name="" unicode="~" d="M305 619 q-12 0 -21 7.5 q-9 7.5 -19 15.5 q-8 10 -14.5 21 q-6.5 11 -10.5 23 q-4 12 -8 24 q-4 12 -10 24 l-14 2 q-12 -4 -23 -10 q-11 -6 -22 -13 q-11 -7 -21 -15 q-10 -8 -20 -18 l-24 -22 l-16 0 q-6 2 -12 8 q-6 6 -8 12 l0 16 q8 16 22 30 q14 14 29 25 q15 11 31 21 q16 10 32 18 l26 6 l38 0 q8 -4 16.5 -10 q8.5 -6 14.5 -14 q6 -8 10 -16 l26 -72 l14 -2 q14 8 27 21 q13 13 25 26 q12 13 23 26 q11 13 27 21 l16 0 q6 -2 12 -8 q6 -6 8 -12 l0 -16 q-12 -16 -26 -31 q-14 -15 -27 -30 q-13 -15 -29 -28 q-16 -13 -32 -23 l-40 -7 Z" /><glyph glyph-name="" unicode="&#x2261;" d="M545 106 l-2 2 l-264 0 q-23 0 -39 12 q-10 12 -8 30 q6 14 20 20 l25 0 l6 -4 l260 0 l2 -2 l228 0 q15 -6 21 -20 l0 -16 q-6 -14 -21 -20 l-10 -2 l-218 0 ZM266 278 l-22 12 q-8 10 -6 26 q6 14 22 22 l107 6 l380 0 l32 -18 q9 -10 7 -26 q-7 -14 -21 -20 l-14 -2 l-18 8 l-366 0 l-101 -8 ZM264 458 l-22 12 q-8 10 -6 26 q6 14 20 20 l113 0 l2 2 l98 0 l2 2 l234 0 l52 2 q14 -6 20 -20 l0 -16 q-6 -14 -20 -20 l-52 -4 l-234 0 l-2 -2 l-98 0 l-2 -2 l-105 0 Z" /><glyph glyph-name="" unicode="&#x2716;" d="M372 31 q-26 14 -50 36 q-24 22 -48.5 43.5 q-24.5 21.5 -47.5 45.5 q-23 24 -45 42 l0 18 q52 66 109 130 q16 19 33 37 q-19 21 -38 42 q-56 61 -114 119 q-2 10 1 18 q3 8 7 14 q18 18 39 34.5 q21 16.5 40.5 32.5 q19.5 16 39.5 33 q20 17 42 27 q12 2 21 -2 q9 -4 19 -4 q62 -58 121 -119 q2 -2 3 -4 q10 10 19 20 q59 61 121 119 q10 0 19 4 q9 4 21 2 q22 -10 42 -27 q20 -17 39.5 -33 q19.5 -16 40.5 -32.5 q21 -16.5 39 -34.5 q4 -6 7 -14 q3 -8 1 -18 q-58 -58 -113 -119 q-27 -29 -54 -58 q25 -26 49 -53 q56 -64 108 -130 l0 -18 q-22 -18 -45 -42 q-23 -24 -47.5 -45.5 q-24.5 -21.5 -48.5 -43.5 q-24 -22 -50 -36 l-16 0 q-6 2 -12 8 q-6 6 -8 12 l2 18 l0 6 q-54 63 -109 124 q-2 2 -4 5 q-50 -56 -99 -113 l0 -6 l2 -18 q-2 -6 -8 -12 q-6 -6 -12 -8 l-16 0 Z" /><glyph glyph-name="" unicode="&#x3001;" d="M273 -48 q-38 52 -84.5 104.5 q-46.5 52.5 -92.5 100.5 l0 18 q6 14 20 20 l16 0 q50 -44 97.5 -96.5 q47.5 -52.5 79.5 -108.5 l0 -18 q-6 -14 -20 -20 l-16 0 Z" /><glyph glyph-name="" unicode="&#x3002;" d="M176 -60 q-14 4 -29 6 q-15 2 -28 9 q-13 7 -25 17 q-6 8 -13 16 q-7 8 -9 18 q-2 10 -4 20 l0 28 q2 16 6 32 q4 16 12 30.5 q8 14.5 20 28.5 q10 8 18 15 q8 7 21 7 q13 0 21 8 l34 0 q14 -2 26 -6 q12 -4 23.5 -12 q11.5 -8 21.5 -18 q6 -8 12 -16 q6 -8 10 -17.5 q4 -9.5 6 -19.5 l0 -48 q-2 -12 -6 -24 q-4 -12 -11 -23 q-7 -11 -17 -19 q-11 -10 -22 -16 q-11 -6 -23 -10 q-12 -4 -24 -6 l-20 0 ZM222 12 l18 28 l0 40 q-6 12 -15 21 q-9 9 -21 14 l-8 2 l-24 0 l-28 -19 q-6 -10 -11 -21 q-5 -11 -7 -23 l0 -26 q4 -6 8 -13 q4 -7 12 -9 l48 -8 l28 14 Z" /><glyph glyph-name="" unicode="&#x3005;" d="M668 -18 q-38 32 -80 58 q-42 26 -83 54.5 q-41 28.5 -88 42.5 q-47 14 -93 30 q-5 6 -6 12 q-1 6 -1 14 q2 6 8.5 12 q6.5 6 12.5 8 l26 0 q18 -6 37 -10 q19 -4 38 -10 q19 -6 36 -14 q17 -8 35 -16 l6 2 q18 34 44 63 q26 29 46 61 q20 32 41 65 q21 33 39 67 l-8 0 q-40 -16 -82 -29 q-42 -13 -82 -28 q-40 -15 -80 -30 q-40 -15 -82 -25 l-55 0 q-10 2 -18 5 q-8 3 -16 8 q-8 5 -14 13 q-6 6 -9 14 q-3 8 -5 16 l0 34 q6 30 21 55 q15 25 33 49 q18 24 38.5 47 q20.5 23 42.5 46 q24 22 48 44 q24 22 49 43 q25 21 48 43 q23 22 53 32 l22 0 q6 -2 12 -8 q6 -6 8 -12 l0 -16 q-2 -6 -8 -12 q-6 -6 -12 -8 q-30 -12 -56 -36 q-26 -24 -52 -46 q-26 -22 -51 -47.5 q-25 -25.5 -51 -49.5 q-14 -18 -28 -34 q-14 -16 -26.5 -34 q-12.5 -18 -22.5 -37 q-10 -19 -10 -41 l12 -10 l43 0 q52 16 104 36 q52 20 104 37 q52 17 105 35 q53 18 105 32 q8 -4 15 -9 q7 -5 9 -13 l0 -18 q-28 -42 -56 -85 q-28 -43 -55 -87 q-27 -44 -59 -83 q-32 -39 -58 -83 q18 -14 37 -26 q19 -12 38 -23.5 q19 -11.5 37 -27.5 q18 -16 30 -34 l0 -16 q-2 -6 -8 -12 q-6 -6 -12 -8 l-16 0 Z" /><glyph glyph-name="" unicode="&#x300c;" d="M743 281 q-14 6 -20 20 q-6 34 -7 70 q-1 36 -5 72 l0 96 l6 109 l0 108 q-6 28 -14 56 l12 22 q50 4 99.5 13 q49.5 9 99.5 11 q22 0 38 -16 q8 -10 6 -26 q-6 -14 -20 -20 l-20 0 q-18 6 -38 4 q-26 -6 -53 -10 q-27 -4 -55 -6 l0 -10 l4 -18 l0 -108 l-6 -109 l0 -96 q4 -36 5 -71 q1 -35 5 -71 q-6 -14 -21 -20 l-16 0 Z" /><glyph glyph-name="" unicode="&#x300d;" d="M150 -70 q-22 0 -38 14 q-8 12 -6 28 q6 14 20 20 l18 0 q22 -6 48 -4 l123 10 l2 2 l0 106 l-8 97 l0 92 l-10 166 q6 14 20 20 l16 0 q16 -6 22 -22 l10 -164 l0 -92 l8 -97 l0 -128 l-16 -30 q-50 -10 -103.5 -13 q-53.5 -3 -105.5 -5 Z" /><glyph glyph-name="" unicode="&#x3042;" d="M748 -58 q-15 6 -21 20 l0 20 q39 52 60 111 q21 59 17 128 q-4 34 -17 66 q-13 32 -43 56 q-31 24 -65 36 q-34 12 -74 8 q-22 -80 -58 -158.5 q-36 -78.5 -84 -148.5 q14 -24 14 -52 q-6 -14 -20 -20 l-16 0 l-20 16 l-2 10 l-4 0 q-28 -24 -58 -40 q-30 -16 -68 -14 q-26 4 -49.5 15 q-23.5 11 -43.5 29 q-30 32 -30 78 q4 58 36.5 103.5 q32.5 45.5 74.5 85.5 q28 22 56 45 q28 23 58 41 l20 194 l-6 0 l-195 -34 q-14 6 -20 20 l0 16 l16 20 l213 36 q8 46 15 92.5 q7 46.5 29 86.5 q16 10 36 6 q14 -6 20 -20 l0 -16 l-12 -16 l-4 0 q-8 -30 -14 -61.5 q-6 -31.5 -10 -63.5 l34 0 q28 6 57 6 q29 0 59 2 l115 0 q14 -6 20 -20 l0 -16 q-6 -14 -20 -20 l-11 -2 l-104 0 q-40 0 -79 -4 q-39 -4 -79 -6 l-20 -166 l4 0 q26 12 53 19 q27 7 55 13 q12 20 32 32 l16 0 q14 -6 20 -20 l0 -10 q56 0 101.5 -25 q45.5 -25 83.5 -67 q30 -40 39 -89 q9 -49 7 -104 q-8 -58 -30 -112 q-22 -54 -58 -100 q-10 -8 -26 -6 ZM341 52 q34 18 58 52 q-8 34 -12 68.5 q-4 34.5 -4 72.5 l4 58 l-4 0 q-40 -30 -79 -67 q-39 -37 -65 -82 l-14 -62 l18 -32 q26 -18 60 -22 q20 2 38 14 ZM449 168 l0 2 q30 49 53 102 q23 53 39 107 l-4 0 q-48 -12 -90 -38 l-6 -140 l6 -35 l2 2 Z" /><glyph glyph-name="" unicode="&#x3044;" d="M271 10 q-25 4 -41 24 q-44 87 -55 182 q-11 95 -19 191 l0 86 q-4 38 16 66 q10 8 26 6 q16 -6 22 -22 l0 -16 q-6 -16 -6 -34 l0 -86 q6 -86 16 -171 q10 -85 45 -164 l8 -2 q24 31 39 65 q15 34 39 64 q10 8 26 6 q14 -6 20 -20 l0 -18 q-22 -36 -41 -74.5 q-19 -38.5 -49 -70.5 q-20 -16 -46 -12 ZM856 113 l-20 16 q-14 82 -39 162 q-25 80 -76 148 q-16 0 -28 12 q-8 10 -6 26 l8 14 q16 12 38 8 q24 -10 43 -32 q52 -74 78 -159 q26 -85 38 -175 q-6 -14 -20 -20 l-16 0 Z" /><glyph glyph-name="" unicode="&#x3046;" d="M587 -78 q-14 6 -20 20 l-2 14 q32 112 86 220.5 q54 108.5 56 228.5 q-4 38 -30 66 q-24 18 -56 21 q-32 3 -64 1 q-82 -10 -156 -46 q-74 -36 -149 -68 q-14 6 -20 20 l0 16 l16 20 q87 54 181 87 q94 33 196 29 q30 -2 57 -15 q27 -13 49 -37 q24 -32 30 -71 q6 -39 4 -83 q-18 -108 -68 -210.5 q-50 -102.5 -84 -206.5 q-10 -8 -26 -6 ZM619 659 q-54 29 -113 41 q-59 12 -111 40 q-8 10 -6 26 q6 14 20 20 l20 0 q54 -24 112 -36 q58 -12 108 -44 q8 -10 6 -26 q-6 -14 -20 -21 l-16 0 Z" /><glyph glyph-name="" unicode="&#x3048;" d="M645 -56 q-36 4 -68 19 q-32 15 -58 41 q-26 30 -35 68 q-9 38 -23 75 l-26 2 q-34 -12 -64 -34.5 q-30 -22.5 -58 -50.5 q-16 -22 -31 -44 q-15 -22 -30 -46 q-10 -8 -26 -6 q-14 6 -20 20 l0 20 q69 114 144 225.5 q75 111.5 129 233.5 l-14 0 q-44 -14 -87 -34 q-43 -20 -85 -44 l-6 -10 q-16 -10 -37 -8 q-14 6 -20 20 l0 16 l8 14 q63 42 129 73 q66 31 142 31 q20 -8 30 -28 l2 -36 q-22 -70 -63 -133 q-41 -63 -79 -127 l10 0 q26 10 58 6 q28 -4 46 -30 q16 -34 23 -72.5 q7 -38.5 33 -68.5 q26 -20 56 -29 q30 -9 66 -5 q42 10 84.5 22 q42.5 12 84.5 22 q14 -6 20 -20 l0 -16 q-8 -18 -28 -26 q-50 -12 -100.5 -27 q-50.5 -15 -106.5 -13 ZM637 629 q-52 23 -108 34 q-56 11 -106 39 q-10 12 -8 30 q6 14 20 20 l16 0 q52 -26 110 -37 q58 -11 110 -39 q8 -10 6 -26 q-6 -15 -20 -21 l-20 0 Z" /><glyph glyph-name="" unicode="&#x304a;" d="M695 -44 q-14 6 -20 20 l0 20 q34 68 68.5 137.5 q34.5 69.5 36.5 149.5 q-6 36 -37 62 q-26 14 -58 15 q-32 1 -64 1 q-58 -8 -111 -29 q-53 -21 -103 -51 l-2 -2 l0 -104 q-2 -51 -9 -99 q-7 -48 -41 -84 l-30 -10 q-32 20 -64.5 37 q-32.5 17 -60.5 43 q-24 28 -20 66 q10 35 33 63 q23 28 50 56 l84 64 l0 174 l-4 0 q-40 -14 -80.5 -30 q-40.5 -16 -80.5 -28 q-14 6 -20 20 l0 18 l22 24 l165 60 q2 56 3 111.5 q1 55.5 19 105.5 q10 8 26 6 q14 -6 20 -20 l0 -22 q-6 -38 -7 -77.5 q-1 -39.5 -3 -79.5 l8 0 q20 12 46 12 q14 -6 20 -20 l0 -16 q-8 -18 -26 -24 l-50 -16 l0 -160 l4 0 q66 38 137 56 q71 18 149 14 q30 -4 58.5 -14 q28.5 -10 48.5 -36 q22 -24 30 -56 q8 -32 6 -66 q-12 -76 -45.5 -146.5 q-33.5 -70.5 -71.5 -138.5 q-10 -8 -26 -6 ZM327 52 q16 42 18 90.5 q2 48.5 2 96.5 l-4 0 q-30 -22 -56 -50 q-26 -28 -45 -59 l-4 -24 q21 -20 43 -31 q22 -11 44 -25 l2 2 ZM828 551 q-32 24 -64.5 53 q-32.5 29 -66.5 51 q-8 11 -6 27 l8 14 q14 12 36 8 q32 -30 66.5 -56.5 q34.5 -26.5 62.5 -60.5 l0 -16 q-6 -14 -20 -20 l-16 0 Z" /><glyph glyph-name="" unicode="&#x304b;" d="M435 -40 q-14 6 -20 20 l0 20 q24 68 42 138.5 q18 70.5 24 144.5 l0 90 q0 36 -10 68 q-10 32 -32 58 q-32 20 -74 14 q-38 -122 -74.5 -245 q-36.5 -123 -76.5 -246 q-10 -8 -26 -6 q-14 6 -20 20 l0 18 q30 109 61.5 217 q31.5 108 63.5 216 l-4 0 q-43 -22 -86 -44 q-43 -22 -89 -36 q-14 6 -20 20 l0 16 l8 14 q52 28 105.5 55 q53.5 27 107.5 49 q10 36 20 73.5 q10 37.5 16 75.5 l-2 20 q6 14 20 20 l18 0 q16 -8 22 -24 l0 -28 q-6 -32 -14 -63.5 q-8 -31.5 -16 -63.5 q32 2 60 -7 q28 -9 50 -33 q28 -34 38 -74 q10 -40 12 -84 l0 -90 q-6 -82 -26 -161.5 q-20 -79.5 -52 -155.5 q-10 -8 -26 -6 ZM892 117 l-20 18 q-36 104 -87.5 204 q-51.5 100 -105.5 198 l-20 12 q-8 12 -6 28 q6 14 20 20 l20 0 l34 -26 q59 -104 114 -212 q55 -108 87 -222 q-6 -14 -20 -20 l-16 0 Z" /><glyph glyph-name="" unicode="&#x304c;" d="M429 16 q-14 6 -20 20 l0 20 q34 80 56 164.5 q22 84.5 18 174.5 q-6 36 -28 64 q-38 24 -90 16 q-34 -114 -74.5 -226.5 q-40.5 -112.5 -90.5 -218.5 q-10 -8 -26 -6 q-14 6 -20 20 l0 20 q42 97 77.5 196 q35.5 99 67.5 197 l-8 0 q-41 -16 -79 -38 q-38 -22 -78 -38 q-14 6 -20 20 l0 18 q16 24 42 37 q26 13 50 29 q28 12 55.5 23 q27.5 11 57.5 15 q12 46 21 95.5 q9 49.5 17 97.5 q10 8 26 6 q14 -6 20 -20 l2 -53 l-22 -116 q36 4 67 -6 q31 -10 55 -36 q16 -20 24 -44 q8 -24 12 -50 l0 -80 q-10 -76 -31 -150.5 q-21 -74.5 -55 -144.5 q-10 -8 -26 -6 ZM864 112 l-20 16 q-34 101 -67.5 201 q-33.5 100 -67.5 198 l-16 18 l0 16 l8 14 q14 12 34 8 q24 -16 35 -42 q32 -102 67 -204 q35 -102 63 -205 q-6 -14 -20 -20 l-16 0 ZM860 549 q-24 16 -34 42 q-18 46 -36 91 q6 14 20 20 l20 0 q24 -14 32 -38 q22 -47 34 -95 q-6 -14 -20 -20 l-16 0 ZM946 591 l-20 16 q-6 24 -14 49.5 q-8 25.5 -16 49.5 l12 22 q10 8 26 6 q16 -8 24 -26 q16 -46 24 -97 q-6 -14 -20 -20 l-16 0 Z" /><glyph glyph-name="" unicode="&#x304d;" d="M573 -66 q-24 2 -42 20 q-10 36 -40 63 q-30 27 -56 55 q-32 34 -69 53 q-37 19 -77 34 q-10 12 -8 30 q6 14 20 20 l24 0 q36 -18 79 -23 q43 -5 87 -3 q28 2 55 9 q27 7 51 23 q16 32 10 74 l-26 106 l-12 0 q-86 -16 -174 -29 q-88 -13 -177 -23 l-22 12 q-8 10 -6 26 q6 14 20 20 q89 8 177 21 q88 13 174 29 l0 4 l-40 116 l-8 0 q-68 -10 -134 -21 q-66 -11 -135 -19 l-22 12 q-8 10 -6 26 q6 14 20 20 q67 6 131 17 q64 11 130 19 l0 4 q-12 32 -25 63.5 q-13 31.5 -19 65.5 l10 22 q12 10 30 8 q14 -6 20 -20 q6 -36 20 -68 q14 -32 26 -65 l10 -2 q46 6 94 11 q48 5 98 5 q15 -6 21 -20 l0 -16 q-6 -14 -21 -20 q-46 -2 -90 -6 q-44 -4 -88 -10 l0 -10 l36 -104 l10 0 q30 8 62 15 q32 7 64 11 q15 -6 21 -20 l0 -16 q-6 -16 -23 -22 l-114 -24 l0 -10 q12 -40 21 -81 q9 -41 5 -87 q-6 -42 -42 -70 q-34 -19 -74 -27 q-40 -8 -82 -8 l0 -4 q38 -34 72 -71 q34 -37 64 -75 l0 -18 q-6 -14 -20 -20 l-10 -2 Z" /><glyph glyph-name="" unicode="&#x304e;" d="M545 -82 q-20 0 -32 16 q-8 42 -50 70 q-56 50 -117 93 q-61 43 -129 68 q-8 12 -6 28 q6 14 20 20 l24 0 q36 -18 75 -27 q39 -9 81 -9 q40 2 79 8 q39 6 71 30 q12 34 8 74 q-4 38 -12 75 q-8 37 -16 75 l-10 0 q-88 -24 -177 -48 q-89 -24 -182 -34 q-14 6 -20 20 l0 16 q6 14 22 22 q91 12 177 36 q86 24 172 46 l0 8 l-28 90 l-22 0 q-68 -10 -135 -21 q-67 -11 -134 -27 q-14 6 -20 20 l0 16 l8 14 q67 24 138 35 q71 11 141 19 l2 12 q-12 31 -27 60 q-15 29 -19 61 q6 14 20 20 l18 0 q14 -6 20 -20 q14 -30 27 -61 q13 -31 23 -64 l12 0 q40 9 81 14 q41 5 85 7 l0 6 q-18 32 -26 70 q6 14 20 20 l17 0 q22 -14 34 -40 q12 -38 26 -76.5 q14 -38.5 26 -78.5 q-6 -14 -20 -20 l-16 0 l-20 16 l-24 60 l-4 0 l-17 -14 q-38 -4 -77 -9 q-39 -5 -77 -11 l0 -6 l26 -86 l12 0 q34 8 67 14 q33 6 70 8 q14 -6 20 -20 l0 -16 l-18 -20 l-135 -22 l0 -8 q14 -54 23 -109 q9 -55 7 -113 q-6 -36 -36 -62 q-38 -27 -82 -34 q-44 -7 -92 -9 l0 -4 q44 -34 87 -72 q43 -38 77 -84 l0 -20 q-6 -14 -20 -20 l-16 -2 ZM864 559 q-16 8 -22 24 q-18 42 -23 88.5 q-5 46.5 -17 90.5 q6 14 20 20 l20 0 q16 -8 22 -24 q6 -46 15 -90.5 q9 -44.5 21 -88.5 q-6 -14 -20 -20 l-16 0 Z" /><glyph glyph-name="" unicode="&#x304f;" d="M583 -40 q-16 8 -24 24 q-56 82 -108 166.5 q-52 84.5 -116 162.5 q-20 10 -40 22 q-8 12 -6 28 q76 80 146 165 q70 85 102 190 q-6 10 -4 24 q6 14 20 20 l16 0 q18 -8 26 -26 l0 -44 q-34 -95 -97 -175 q-63 -80 -129 -156 q76 -88 137 -186.5 q61 -98.5 113 -194.5 q-6 -14 -20 -20 l-16 0 Z" /><glyph glyph-name="" unicode="&#x3050;" d="M567 -52 l-22 10 q-80 84 -135 188.5 q-55 104.5 -117 202.5 l-8 0 l-6 -2 l-22 12 q-9 10 -7 26 q93 88 188 177 q95 89 183 182 l16 0 q14 -6 20 -20 l0 -18 q-70 -87 -153 -163 q-83 -76 -163 -154 l0 -8 q66 -102 124 -210.5 q58 -108.5 132 -200.5 q-6 -14 -20 -20 l-10 -2 ZM836 613 q-14 6 -20 20 q-4 37 -9 74 q-5 37 -13 71 q6 14 20 20 l16 0 q18 -8 26 -26 l16 -139 q-6 -14 -20 -20 l-16 0 ZM735 627 l-20 16 q-8 29 -13 57 q-5 28 -9 56 l12 22 q10 8 26 6 q16 -8 22 -24 q2 -30 8 -57 q6 -27 11 -56 q-7 -14 -21 -20 l-16 0 Z" /><glyph glyph-name="" unicode="&#x3051;" d="M679 -66 q-14 6 -20 20 l-2 52 q6 124 16 249.5 q10 125.5 18 249.5 l-60 0 q-64 0 -126 -10 q-62 -10 -124 -20 q-14 6 -20 20 l0 18 q6 14 20 20 q76 14 155 23 q79 9 161 7 l8 80 l0 83 l12 22 q10 8 26 6 q15 -6 21 -20 l0 -91 l-8 -80 l54 0 l40 4 q14 -6 20 -20 l0 -16 q-6 -14 -20 -20 q-24 -4 -49 -5 q-25 -1 -52 -1 q-10 -142 -21 -283.5 q-11 -141.5 -23 -281.5 q-10 -8 -26 -6 ZM257 150 q-27 21 -43 49 q-20 42 -26 90 q-6 48 -4 100 q2 50 8 98 q6 48 24 92 q10 8 27 6 q14 -6 20 -20 l0 -20 q-12 -54 -16 -111 q-4 -57 -4 -115 q2 -42 19 -77 q17 -35 31 -71 q-6 -15 -20 -21 l-16 0 Z" /><glyph glyph-name="" unicode="&#x3052;" d="M585 -50 q-14 6 -20 20 l-2 12 q36 136 45 277.5 q9 141.5 27 281.5 l-92 0 q-54 -2 -109 -6 q-55 -4 -103 -22 q-14 6 -20 20 l0 18 q10 20 30 28 q48 10 99 14 q51 4 103 6 l96 0 q6 42 5 88.5 q-1 46.5 15 84.5 q12 10 30 8 q14 -6 20 -20 l0 -16 q-6 -34 -7 -71.5 q-1 -37.5 -5 -73.5 l85 -2 l0 16 l-10 85 l12 22 q10 8 26 6 q14 -6 20 -20 q4 -55 11 -110 q7 -55 17 -107 q-6 -14 -20 -20 l-16 0 l-20 16 l-12 52 l-97 4 q-18 -146 -28 -295.5 q-10 -149.5 -54 -289.5 q-10 -8 -26 -6 ZM172 200 l-22 20 q-14 55 -20 113 q-6 58 -10 116 l0 156 l-4 36 q6 14 20 20 l16 0 q16 -6 22 -22 l4 -34 l0 -156 q4 -58 10 -116 q6 -58 21 -113 q-6 -14 -21 -20 l-16 0 ZM902 481 l-20 16 q-10 46 -13 93 q-3 47 -7 96 l12 22 q10 8 26 6 q14 -6 20 -20 q4 -49 7 -98 q3 -49 11 -95 q-6 -14 -20 -20 l-16 0 Z" /><glyph glyph-name="" unicode="&#x3053;" d="M629 -24 q-96 2 -191 17 q-95 15 -170 77 q-34 38 -26 95 q8 34 22 65 q14 31 41 57 q14 10 34 6 q14 -6 20 -20 l0 -16 q-32 -26 -48 -64 q-13 -28 -10 -61 q4 -22 26 -38 q84 -44 179 -52 q95 -8 191 -8 l40 2 q14 -6 20 -20 l0 -16 q-6 -14 -20 -20 l-108 -4 ZM717 533 q-100 20 -202 39 q-102 19 -202 41 q-8 10 -6 26 q8 16 24 22 l16 0 q102 -16 204 -36 q102 -20 200 -46 q8 -10 6 -26 q-6 -14 -20 -20 l-20 0 Z" /><glyph glyph-name="" unicode="&#x3054;" d="M559 4 q-84 6 -171 13 q-87 7 -156 61 q-30 32 -22 81 q6 28 19 52 q13 24 36 46 q16 12 40 8 q14 -6 20 -20 l0 -16 q-6 -14 -20 -20 l-10 -4 q-26 -32 -26 -75 q8 -20 28 -32 q68 -24 143 -28 q75 -4 149 -8 l90 8 q14 -6 20 -20 l0 -16 q-6 -14 -20 -20 q-28 -6 -59 -8 q-31 -2 -61 -2 ZM868 405 q-24 14 -34 40 q-16 54 -24 111 q-8 57 -6 118 l12 22 q10 8 26 6 q14 -6 20 -20 q-2 -69 7 -134 q9 -65 35 -123 q-6 -14 -20 -20 l-16 0 ZM713 421 l-20 16 q-14 34 -20 74 q-100 8 -196 35 q-96 27 -188 63 q-8 10 -6 26 q6 14 20 20 l20 0 q84 -28 169 -53 q85 -25 175 -31 l0 82 q6 15 20 21 l18 0 q14 -6 20 -21 l0 -86 q0 -34 9 -64 q9 -30 15 -62 q-6 -14 -20 -20 l-16 0 Z" /><glyph glyph-name="" unicode="&#x3055;" d="M587 -62 q-18 0 -30 16 l-10 20 q-68 60 -132 126 q-64 66 -134 123 l-25 12 q-8 12 -6 28 q6 14 20 20 l21 0 q30 -10 64 -11 q34 -1 68 -3 q38 0 70 12 q32 12 60 38 q20 42 14 94 q-4 40 -12 77 q-8 37 -16 75 l-8 0 q-92 -6 -181.5 -17 q-89.5 -11 -179.5 -21 l-22 12 q-8 12 -6 28 q6 14 20 20 l16 0 l16 -2 q81 12 162 22 q81 10 165 14 l0 8 q-10 36 -23 71.5 q-13 35.5 -31 69.5 l12 22 q10 8 26 6 q20 -10 30 -30 q14 -34 26 -69.5 q12 -35.5 22 -71.5 l2 -2 l176 0 q39 2 75 12 l20 -14 q8 -10 6 -26 q-6 -14 -20 -20 l-81 -10 l-162 0 l0 -8 q10 -50 20 -100 q10 -50 6 -106 q-2 -28 -15 -52 q-13 -24 -37 -44 q-38 -28 -85 -38 q-47 -10 -97 -8 l0 -4 q56 -61 116 -115 q60 -54 112 -116 l0 -16 q-6 -14 -20 -20 l-12 -2 Z" /><glyph glyph-name="" unicode="&#x3056;" d="M519 -48 q-20 2 -32 18 q-36 62 -73 123.5 q-37 61.5 -95 113.5 q-28 18 -48 42 l0 16 q6 14 20 20 l18 0 q38 -12 76 -21 q38 -9 80 -7 q42 4 78 26 q12 34 8 74 l-34 134 l-22 0 q-78 -8 -158 -17 q-80 -9 -159 -19 q-14 6 -20 20 l-2 12 l12 22 q80 14 162.5 23 q82.5 9 164.5 17 l0 8 q-16 40 -31 82.5 q-15 42.5 -37 80.5 l-16 18 l0 16 q6 14 20 20 l20 0 q34 -22 46 -56 l60 -163 l20 0 l180 20 l0 10 l-12 58 l12 23 q10 8 27 6 q14 -6 20 -21 q8 -46 18 -93 q10 -47 22 -93 q-6 -14 -20 -20 l-16 0 l-20 16 l-18 54 l-13 2 q-44 -6 -89 -11 q-45 -5 -91 -9 l0 -10 q16 -46 26 -94 q10 -48 6 -102 q-4 -28 -26 -50 q-34 -28 -76 -35 q-42 -7 -86 -7 l-12 2 l0 -4 q42 -55 78 -110 q36 -55 64 -113 q-6 -14 -20 -20 l-12 -2 ZM902 443 l-22 20 q-18 42 -26 86 q-8 44 -10 92 l12 22 q10 9 26 7 q14 -7 20 -21 q0 -50 11 -96 q11 -46 25 -90 q-6 -14 -20 -20 l-16 0 Z" /><glyph glyph-name="" unicode="&#x3057;" d="M457 -38 q-38 2 -71 16 q-33 14 -61 44 q-32 44 -42 99.5 q-10 55.5 -10 113.5 q8 106 25 250 q17 144 33 249 q10 8 26 6 q14 -6 20 -20 l0 -61 q-14 -98 -29 -235 q-15 -137 -17 -237 q4 -38 13 -73.5 q9 -35.5 35 -63.5 q24 -20 52 -26 q28 -6 60 -4 q68 4 130 31 q62 27 124 52 q14 -6 20 -21 l0 -16 q-22 -28 -54 -40 q-60 -30 -122 -47 q-62 -17 -132 -17 Z" /><glyph glyph-name="" unicode="&#x3058;" d="M405 -40 q-52 2 -86 44 q-28 40 -38.5 87.5 q-10.5 47.5 -8.5 99.5 q7 98 24 237 q17 139 31 235 l-2 20 l8 15 q14 10 32 8 q14 -6 20 -21 l0 -38 q-18 -102 -35 -245 q-17 -143 -19 -249 q2 -34 11 -64.5 q9 -30.5 31 -56.5 q38 -20 88 -14 q70 20 137 51.5 q67 31.5 141 47.5 q14 -6 20 -20 l0 -17 l-18 -20 q-82 -28 -163 -65 q-81 -37 -173 -35 ZM681 445 q-20 10 -32 28 q-14 36 -19 76 q-5 40 -17 77 l12 22 q10 8 26 6 l22 -20 q8 -45 17 -88 q9 -43 27 -81 q-6 -14 -20 -20 l-16 0 ZM828 447 q-32 20 -47 56 q-12 32 -23 66 q-11 34 -15 71 l12 22 q12 8 28 6 q15 -6 21 -20 q4 -51 22 -95 q18 -44 38 -86 q-6 -14 -20 -20 l-16 0 Z" /><glyph glyph-name="" unicode="&#x3059;" d="M661 -62 q-14 6 -20 20 l0 18 l2 70 q-4 34 -9 66 q-5 32 -13 65 l-4 0 q-14 -31 -40 -58 q-26 -27 -56 -41 l-44 -6 q-50 2 -84 42 q-24 36 -20 83 q2 46 22 84 q20 38 56 70 q20 20 43 30 q23 10 53 8 q30 -4 54 -28 l6 154 l-20 0 q-122 -12 -225 -21 q-103 -9 -222 -37 l-22 12 q-8 10 -6 26 q6 14 22 22 q127 24 237 35 q110 11 238 21 l6 169 l-2 18 q6 14 20 20 l20 0 q14 -6 20 -20 l0 -76 l-6 -105 l6 0 l171 12 q14 -6 20 -20 l0 -16 q-6 -14 -20 -20 l-179 -14 q-2 -60 -5 -120 q-3 -60 -11 -118 q26 -74 40 -149.5 q14 -75.5 12 -155.5 q-2 -20 -14 -34 q-10 -8 -26 -6 ZM511 140 q42 31 60 75 l16 68 q-18 28 -46 48 l-16 0 q-24 -10 -44 -31 q-20 -21 -32 -43 q-20 -36 -18 -82 l14 -31 q20 -14 44 -14 l22 10 Z" /><glyph glyph-name="" unicode="&#x305a;" d="M655 -76 q-14 6 -20 20 l0 20 l6 20 l0 162 q-2 49 -14 93 l-4 0 q-8 -34 -24 -64.5 q-16 -30.5 -44 -56.5 q-24 -18 -52 -29 q-28 -11 -62 -7 q-48 8 -86 44 q-36 35 -28 89 q6 26 23 49 q17 23 37 43 q40 36 84 60 q44 24 100 18 l28 -8 l16 142 l-44 0 q-102 -10 -204 -27 q-102 -17 -205 -29 l-22 12 q-8 12 -6 28 q6 14 20 20 l18 0 l8 -2 q109 16 217 33 q108 17 220 23 l0 141 l-6 36 l12 22 q10 8 26 6 q14 -6 20 -20 l6 -44 l0 -135 l26 0 l64 2 l0 14 l-12 73 l12 22 q13 8 29 6 q14 -6 20 -20 q4 -53 12 -104 q8 -51 18 -99 q-6 -14 -20 -20 l-16 0 l-20 16 l-12 54 l-73 0 l-30 -2 q-2 -50 -10 -99 q-8 -49 -16 -97 q30 -38 39 -85 q9 -47 13 -98 l0 -162 q0 -30 -18 -54 q-10 -8 -26 -6 ZM513 161 q32 26 44 62 q16 44 24 94 q-24 14 -56 10 q-32 -12 -60 -32 q-28 -20 -54 -46 q-26 -26 -26 -62 l16 -24 q30 -27 72 -23 l40 21 ZM914 481 l-20 16 q-16 40 -23 84 q-7 44 -17 86 l12 23 q10 8 26 6 q14 -6 20 -20 q8 -45 18 -89 q10 -44 20 -86 q-6 -14 -20 -20 l-16 0 Z" /><glyph glyph-name="" unicode="&#x305b;" d="M671 -20 q-72 8 -139 30 q-67 22 -119 74 q-58 62 -84 140.5 q-26 78.5 -28 162.5 l-12 0 q-40 -6 -79.5 -15 q-39.5 -9 -79.5 -17 q-14 6 -20 20 l0 16 l16 20 q42 12 85.5 20 q43.5 8 87.5 14 l0 82 q-2 44 10 84 q12 10 30 8 q14 -6 20 -20 l0 -70 l-2 -76 l8 0 q54 8 109 14 q55 6 111 12 l16 108 l0 111 q-8 12 -6 28 q6 14 20 20 l18 0 l20 -18 l6 -30 l0 -111 l-14 -96 l10 0 q48 10 95.5 21 q47.5 11 97.5 17 q14 -6 20 -20 l0 -16 q-6 -14 -20 -20 l-213 -42 q-12 -58 -18 -117 q-6 -59 -26 -115 q-10 -8 -26 -6 q-14 6 -20 20 l0 20 q10 46 16 94 q6 48 14 94 l-10 0 q-52 -8 -104 -13 q-52 -5 -104 -13 l0 -6 q2 -80 30 -153 q28 -73 86 -130 q56 -38 120 -53 q64 -15 130 -25 q8 -10 6 -26 q-6 -14 -20 -20 l-38 -2 Z" /><glyph glyph-name="" unicode="&#x305c;" d="M635 -24 q-64 6 -126 22 q-62 16 -110 62 q-54 60 -69 135.5 q-15 75.5 -19 153.5 l-16 0 q-40 -8 -81.5 -11 q-41.5 -3 -79.5 -11 q-16 6 -22 22 l0 16 l8 14 q44 14 92.5 18 q48.5 4 96.5 10 l0 114 l12 22 q10 8 26 6 q14 -6 20 -20 l0 -116 l12 0 l198 30 q10 70 18 142.5 q8 72.5 18 142.5 q12 8 28 6 q14 -6 20 -20 l0 -44 q-4 -55 -11 -108 q-7 -53 -13 -107 l12 0 l143 26 l0 4 l-14 16 q-12 36 -18 73 q-6 37 -19 71 q7 15 21 21 l20 0 q16 -6 22 -23 q8 -36 16 -71 q8 -35 14 -71 l-10 -18 q20 4 34 -10 q8 -10 6 -26 q-6 -14 -20 -20 q-56 -2 -108.5 -13 q-52.5 -11 -106.5 -19 q-10 -58 -15 -120 q-5 -62 -21 -118 q-10 -8 -26 -6 q-14 6 -20 20 l0 26 q6 46 10 93 q4 47 12 93 l-12 0 l-188 -28 l0 -24 q4 -66 20 -129.5 q16 -63.5 64 -113.5 q40 -26 86 -38 q46 -12 96 -16 l96 0 q15 -6 21 -20 l0 -16 q-6 -14 -21 -20 l-10 -2 l-86 0 ZM894 475 l-20 16 q-10 44 -20 87 q-10 43 -18 88 q6 14 20 20 l18 0 q14 -6 20 -20 q10 -43 20 -85 q10 -42 16 -86 q-6 -14 -20 -20 l-16 0 Z" /><glyph glyph-name="" unicode="&#x305d;" d="M677 -46 q-62 22 -122 52 q-60 30 -112 74 q-28 30 -48 62.5 q-20 32.5 -16 74.5 q4 38 28 69 q24 31 52 59 q26 22 52 42 q26 20 54 36 l0 4 l-6 0 q-92 -28 -184 -56 q-92 -28 -183 -60 q-14 6 -20 20 l0 16 q99 64 188 140 q89 76 175 156 l-4 0 q-44 -14 -94 -12 q-40 2 -68 37 q-20 22 -16 52 q0 16 12 26 q12 12 32 10 q14 -6 20 -20 l0 -16 l-4 -14 q26 -22 66 -16 q52 12 102 30 q50 18 104 28 q14 -6 20 -20 l0 -16 q-78 -65 -154 -136 q-76 -71 -154 -135 l8 0 q74 24 150 44 q76 20 152 32 l81 0 q14 -6 20 -20 l0 -18 q-6 -14 -20 -20 q-89 -20 -169 -70 q-80 -50 -148 -114 q-36 -34 -34 -82 q18 -45 56 -81 q50 -34 103 -60 q53 -26 105 -50 q8 -10 6 -26 q-6 -14 -20 -20 l-10 -2 Z" /><glyph glyph-name="" unicode="&#x305e;" d="M667 -48 q-86 32 -154 82 q-68 50 -144 112 q-26 27 -28 63 q6 38 30 68 q24 30 54 58 l76 66 l0 4 l-4 0 q-92 -16 -148.5 -27 q-56.5 -11 -142.5 -45 l-22 12 q-8 10 -6 26 q42 34 139 96 q28 30 75 67 q47 37 89 85 l-16 0 l-50 -6 q-32 2 -63 9 q-31 7 -55 29 q-30 33 -30 77 q0 16 12 26 q12 10 30 8 q14 -6 20 -20 l0 -16 l-2 -14 q8 -22 30 -30 q38 -11 80 -11 q34 4 66 14.5 q32 10.5 62 26.5 l36 32 l28 0 q16 -6 22 -22 l0 -20 l-18 -20 l-32 -19 q-52 -64 -112 -120 q-60 -56 -122 -106 l8 0 q88 20 176 36 q88 16 180 16 q14 -6 20 -20 l0 -16 q-6 -14 -20 -20 q-88 -14 -164 -60 q-76 -46 -138 -116 q-22 -24 -30 -56 q58 -61 115 -99 q57 -38 125 -82 q30 0 52 -16 q8 -12 6 -30 q-6 -14 -20 -20 l-10 -2 ZM846 581 q-16 8 -22 24 q-12 34 -17 70.5 q-5 36.5 -5 74.5 l12 22 q12 8 28 6 q14 -6 20 -20 l0 -16 l-2 -20 q2 -32 10 -61.5 q8 -29.5 12 -59.5 q-6 -14 -20 -20 l-16 0 ZM721 597 q-16 8 -28 24 q-8 32 -10 65.5 q-2 33.5 -2 67.5 l8 14 q12 10 30 8 q14 -6 20 -20 q0 -36 3 -71.5 q3 -35.5 15 -67.5 q-6 -14 -20 -20 l-16 0 Z" /><glyph glyph-name="" unicode="&#x305f;" d="M216 -60 q-14 6 -20 20 l0 38 q16 128 42.5 256.5 q26.5 128.5 54.5 256.5 l-10 0 q-26 -6 -53.5 -15 q-27.5 -9 -55.5 -11 q-14 6 -20 20 l0 16 l20 22 q34 8 67.5 17 q33.5 9 67.5 19 q8 38 19 74.5 q11 36.5 29 68.5 q14 12 34 10 q14 -6 20 -20 l0 -16 q-14 -22 -22 -46.5 q-8 -24.5 -14 -48.5 l8 0 q36 16 78 16 q14 -6 20 -20 l0 -16 q-6 -14 -20 -20 l-104 -30 q-32 -146 -62 -292.5 q-30 -146.5 -53 -292.5 q-10 -8 -26 -6 ZM842 -6 q-97 18 -193 42 q-96 24 -186 70 q-8 10 -6 26 q6 14 20 21 l20 0 q90 -41 186.5 -65 q96.5 -24 192.5 -46 q8 -10 6 -26 q-6 -14 -20 -20 l-20 -2 ZM477 385 l-22 12 q-8 10 -6 26 l18 20 q88 24 177 41 q89 17 182 19 q16 -6 22 -22 l0 -18 q-6 -14 -20 -20 l-16 0 l-42 2 q-75 -10 -148 -25 q-73 -15 -145 -35 Z" /><glyph glyph-name="" unicode="&#x3060;" d="M232 -34 q-14 6 -20 20 l-2 86 q4 121 27.5 238 q23.5 117 47.5 233 l-6 0 q-37 -8 -70 -21 q-33 -13 -69 -21 q-14 6 -20 20 l0 18 q6 14 20 20 q38 16 79.5 28 q41.5 12 83.5 20 q6 36 13 72.5 q7 36.5 21 68.5 q10 8 26 6 q14 -6 20 -20 l0 -24 l-18 -89 l8 0 l66 8 q14 -6 20 -20 l0 -16 q-6 -16 -22 -22 q-44 -4 -88 -12 q-28 -120 -52 -241 q-24 -121 -28 -246 l0 -86 q-6 -14 -21 -20 l-16 0 ZM808 10 q-87 26 -174 44 q-87 18 -169 60 q-8 10 -6 26 q6 15 20 21 l26 0 q80 -41 167 -57 q87 -16 170 -48 q8 -10 6 -26 q-6 -14 -20 -20 l-20 0 ZM469 397 l-22 12 q-8 10 -6 26 q6 14 20 20 q86 22 172 42 q86 20 179 20 q16 -6 22 -22 l0 -16 q-6 -16 -22 -22 l-16 0 l-51 2 q-72 -10 -140 -28 q-68 -18 -136 -34 ZM753 579 q-22 12 -32 36 q-6 28 -10 57.5 q-4 29.5 -4 61.5 q6 14 20 20 l18 0 q14 -6 20 -20 q-2 -36 5.5 -69.5 q7.5 -33.5 19.5 -65.5 q-6 -14 -20 -20 l-17 0 ZM868 589 l-14 8 q-16 26 -23 57.5 q-7 31.5 -13 63.5 l12 22 q10 8 26 6 q14 -6 20 -20 q4 -30 13 -58.5 q9 -28.5 15 -58.5 q-6 -14 -20 -20 l-16 0 Z" /><glyph glyph-name="" unicode="&#x3061;" d="M647 -66 q-14 6 -20 20 l0 20 q30 78 72.5 150.5 q42.5 72.5 60.5 154.5 l-67 0 q-64 -14 -124 -36 q-60 -22 -128 -22 q-32 0 -61 13 q-29 13 -51 37 q-22 24 -29 53 q-7 29 -7 63 q2 34 6 68 q4 34 12 66 l-4 0 q-36 -10 -72.5 -18 q-36.5 -8 -74.5 -14 q-14 6 -20 20 l0 16 l16 20 l169 38 q12 46 28 92.5 q16 46.5 46 84.5 q12 6 26 4 q14 -6 20 -20 l0 -16 q-20 -30 -32 -64.5 q-12 -34.5 -22 -68.5 l4 0 q46 10 93 17 q47 7 93 13 q14 -6 20 -20 l0 -16 q-6 -14 -20 -20 q-52 -10 -105 -17 q-53 -7 -105 -17 q-10 -42 -15 -86 q-5 -44 -5 -90 q4 -34 32 -60 q36 -24 84 -20 q74 14 148 39 q74 25 157 19 q22 -8 38 -26 q12 -24 8 -56 q-22 -85 -66.5 -161 q-44.5 -76 -78.5 -154 q-10 -8 -26 -6 Z" /><glyph glyph-name="" unicode="&#x3063;" d="M585 -34 q-14 6 -20 20 l0 20 q36 52 69 106.5 q33 54.5 37 118.5 q-6 14 -20 20 q-30 10 -66 6 q-84 -14 -161 -46 q-77 -32 -153 -68 q-14 6 -21 20 l0 16 l9 14 q86 54 180 87 q94 33 196 35 q42 -4 74 -36 q26 -34 20 -80 q-14 -64 -47 -119.5 q-33 -55.5 -71 -107.5 q-10 -8 -26 -6 Z" /><glyph glyph-name="" unicode="&#x3064;" d="M641 48 q-14 6 -20 20 l0 16 q56 81 117.5 159 q61.5 78 75.5 176 q-6 22 -24 40 q-37 24 -81 28 l-110 0 q-114 -12 -221 -53 q-107 -41 -212 -85 q-14 6 -20 20 l0 16 l8 14 q105 56 217 95 q112 39 228 51 l110 0 q40 -4 76.5 -18 q36.5 -14 64.5 -46 q26 -42 22 -96 q-24 -96 -85.5 -174.5 q-61.5 -78.5 -119.5 -156.5 q-10 -8 -26 -6 Z" /><glyph glyph-name="" unicode="&#x3065;" d="M641 14 q-14 6 -20 20 l0 20 q44 72 85 148.5 q41 76.5 41 164.5 q-10 38 -42 68 q-36 24 -80 30 l-88 0 q-108 -8 -209.5 -51 q-101.5 -43 -199.5 -85 q-14 6 -20 20 l0 16 l20 24 q98 50 199.5 89 q101.5 39 209.5 45 l88 0 q42 -4 79 -20 q37 -16 68 -52 q22 -30 30 -66 q8 -36 4 -76 q-18 -78 -56.5 -150.5 q-38.5 -72.5 -82.5 -138.5 q-10 -8 -26 -6 ZM739 557 q-22 14 -36 38 q-8 28 -14 58.5 q-6 30.5 -10 60.5 q6 14 20 20 l18 0 q14 -6 20 -20 q4 -36 15 -70.5 q11 -34.5 24 -66.5 q-6 -14 -21 -20 l-16 0 ZM868 577 l-20 16 q-10 34 -20 67.5 q-10 33.5 -20 67.5 q6 14 20 20 l18 0 l22 -20 q10 -32 21 -64.5 q11 -32.5 15 -66.5 q-6 -14 -20 -20 l-16 0 Z" /><glyph glyph-name="" unicode="&#x3066;" d="M735 -26 q-80 32 -163 61 q-83 29 -153 89 q-34 31 -32 75 q18 76 71 136 q53 60 111 118 q38 34 78 68 q40 34 70 76 q-32 10 -68 6 q-124 -10 -241 -48 q-117 -38 -232 -86 q-14 6 -20 20 l0 16 q8 16 24 24 q125 62 256 96.5 q131 34.5 269 36.5 q40 -2 68 -35 q8 -20 6 -46 q-76 -90 -167 -169 q-91 -79 -155 -179 q-10 -20 -12 -44 q14 -28 40 -44.5 q26 -16.5 50 -30.5 q56 -28 116 -44 q60 -16 114 -48 q8 -12 6 -28 q-6 -14 -20 -20 l-16 0 Z" /><glyph glyph-name="" unicode="&#x3067;" d="M705 -44 q-72 36 -149 62 q-77 26 -141 76 q-22 20 -20 49 q46 124 141 220 q95 96 165 206 q-32 12 -70 8 q-128 -14 -246 -68 q-118 -54 -235 -104 q-14 6 -20 20 l0 18 q8 16 24 24 q127 64 258 117.5 q131 53.5 275 50.5 q36 -2 62 -30 q17 -22 10 -52 q-64 -112 -158 -205 q-94 -93 -146 -211 q62 -45 135 -69 q73 -24 139 -64 q8 -10 6 -26 q-6 -14 -20 -20 l-10 -2 ZM830 545 q-20 10 -28 30 q-6 32 -13 63.5 q-7 31.5 -15 61.5 q6 14 20 20 l18 0 q20 -10 26 -32 q6 -30 13 -61.5 q7 -31.5 15 -61.5 q-6 -14 -20 -20 l-16 0 ZM928 577 l-20 16 q-10 38 -20 76.5 q-10 38.5 -22 76.5 q6 14 20 20 l20 0 q18 -8 24 -28 q10 -34 20 -69.5 q10 -35.5 14 -71.5 q-6 -14 -20 -20 l-16 0 Z" /><glyph glyph-name="" unicode="&#x3068;" d="M505 -24 q-54 2 -102 14 q-48 12 -86 52 q-20 24 -27 52 q-7 28 -5 61 q10 58 41 106 q31 48 71 92 q-60 74 -85 161 q-25 87 -38 180 q0 16 13 26 q12 10 30 8 q14 -6 20 -20 l0 -16 l-4 -10 q14 -77 35 -151 q21 -74 69 -136 l8 -2 q66 54 142 98 q76 44 158 62 q14 -6 20 -20 l0 -16 q-6 -14 -20 -20 q-70 -26 -135 -61 q-65 -35 -123 -83 l-2 -6 l12 -8 q8 -10 6 -26 q-6 -14 -20 -20 l-16 0 l-28 16 q-40 -40 -67 -84 q-27 -44 -29 -101 q4 -30 28 -54 q38 -26 83 -32 q45 -6 93 -4 q54 4 105 16 q51 12 103 22 q14 -6 20 -20 l0 -16 l-18 -20 q-60 -16 -123 -28 q-63 -12 -129 -12 Z" /><glyph glyph-name="" unicode="&#x3069;" d="M425 -38 q-46 4 -89 17 q-43 13 -78 47 q-20 20 -29 46 q-9 26 -5 57 q12 68 54.5 123 q42.5 55 92.5 105 q-50 80 -67 173 q-17 93 -27 186 q6 14 20 20 l16 0 l20 -18 q10 -82 26 -165.5 q16 -83.5 56 -157.5 l6 -2 q58 40 118 78 q60 38 134 38 q14 -6 20 -20 l0 -16 q-6 -14 -20 -20 q-62 -6 -114 -38 q-52 -32 -102 -66 l-2 -8 q28 -22 30 -54 q-6 -14 -20 -20 l-16 0 q-24 14 -38 38 l-6 0 q-48 -44 -84 -94 q-36 -50 -38 -115 q12 -32 42 -50 q32 -16 68 -22 q36 -6 76 -4 q78 2 151 24 q73 22 147 36 q15 -6 21 -20 l0 -16 l-19 -20 q-84 -24 -169 -44 q-85 -20 -175 -18 ZM894 427 l-24 22 q-10 34 -16 71 q-6 37 -6 75 l14 30 q10 9 26 6 q14 -6 20 -20 l0 -22 l-2 -18 q2 -32 10 -63 q8 -31 14 -61 q-6 -14 -20 -20 l-16 0 ZM788 439 l-29 22 q-14 30 -19 64 q-5 34 -7 70 l14 26 q10 8 26 6 q15 -6 21 -20 l0 -18 l-2 -8 q2 -34 11 -63 q9 -29 21 -59 q-6 -14 -20 -20 l-16 0 Z" /><glyph glyph-name="" unicode="&#x306a;" d="M583 -44 q-48 10 -88 39 q-40 29 -76 67 q-36 36 -34 88 q2 25 24 41 q24 20 54 27 q30 7 60 11 l82 0 l30 -4 q2 54 4 108 q2 54 28 98 q18 16 40 18 l2 6 q-32 16 -67 25 q-35 9 -65 27 q-8 12 -6 28 q6 14 20 20 l16 0 q62 -14 118 -43 q56 -29 109 -67 q8 -12 6 -28 q-6 -14 -20 -20 l-10 -2 l-89 0 l-18 -14 q-6 -40 -8 -82 q-2 -42 -2 -86 q42 -10 83.5 -26 q41.5 -16 75.5 -45 q8 -12 6 -28 q-6 -14 -20 -20 l-18 0 q-28 22 -61.5 35 q-33.5 13 -67.5 23 q-6 -50 -16 -98 q-10 -48 -44 -86 q-22 -10 -48 -12 ZM599 16 l0 4 q18 32 25 69 q7 37 9 77 l-28 5 l-82 0 q-42 -5 -78 -27 l-2 -8 q14 -38 52 -68 q22 -18 46 -33 q24 -15 50 -21 l8 2 ZM210 50 l-20 16 l-6 60 q16 111 57.5 214 q41.5 103 81.5 207 l-4 0 q-28 -10 -57.5 -20 q-29.5 -10 -59.5 -14 q-14 6 -20 20 l0 20 l22 20 q38 10 75.5 22 q37.5 12 73.5 24 q18 36 34 72.5 q16 36.5 38 70.5 q10 8 26 6 q14 -6 20 -20 l0 -18 l-42 -93 l4 0 q38 10 80 12 q14 -6 20 -20 l0 -16 q-6 -14 -20 -20 q-30 -4 -59 -10 q-29 -6 -57 -16 q-44 -114 -91.5 -228 q-47.5 -114 -63.5 -237 l4 -32 q-6 -14 -20 -20 l-16 0 Z" /><glyph glyph-name="" unicode="&#x306b;" d="M232 -30 q-14 6 -20 20 q-12 46 -14 94 l0 81 q4 124 21 246 q17 122 66 237 q10 8 26 6 q14 -6 20 -20 l0 -20 q-40 -109 -55 -221 q-15 -112 -20 -228 l0 -81 q5 -48 13 -94 q-6 -14 -21 -20 l-16 0 ZM836 -8 q-77 38 -155 66 q-78 28 -158 55 q-8 10 -6 26 l20 22 l24 0 q76 -24 150.5 -51.5 q74.5 -27.5 146.5 -65.5 q10 -12 8 -30 q-6 -14 -20 -20 l-10 -2 ZM537 473 l-22 12 q-8 12 -6 28 l8 14 q72 20 148 32 q76 12 155 16 q14 -6 20 -20 l0 -16 q-6 -14 -20 -20 q-73 -6 -144 -16 q-71 -10 -139 -30 Z" /><glyph glyph-name="" unicode="&#x306c;" d="M593 -34 q-24 2 -40 20 q-28 34 -26 80 q2 29 20 49 q26 24 60 29 q34 5 70 3 l48 -12 q22 30 33.5 65 q11.5 35 7.5 75 q-5 36 -21 68 q-16 32 -44 60 q-24 18 -53 21 q-29 3 -61 1 l-8 -2 q-28 -92 -77 -176 q-49 -84 -103 -163 q-48 -18 -88 -59 q-40 -41 -93 -51 q-16 0 -26 12 q-6 38 -17 74.5 q-11 36.5 -15 74.5 q4 42 28 76 q24 34 50 68 q-18 48 -32 97 q-14 49 -18 103 l10 22 q12 10 30 8 q14 -6 20 -20 l0 -16 l-2 -16 q9 -34 18 -66 q9 -32 19 -64 l6 0 q56 46 115 87 q59 41 127 59 q18 52 24 110.5 q6 58.5 20 112.5 q10 8 26 6 q16 -6 22 -22 l0 -22 q-6 -44 -12 -88.5 q-6 -44.5 -16 -86.5 q48 4 90 -8 q42 -12 74 -48 q39 -42 54 -95 q15 -53 11 -113 q-6 -32 -18 -60 q-12 -28 -28 -56 q32 -19 58 -49 l42 -44 l0 -16 q-6 -14 -20 -20 l-18 0 q-28 16 -50 42 q-22 26 -51 40 q-18 -22 -40 -45 q-22 -23 -48 -35 q-26 -10 -58 -10 ZM641 38 l42 40 l0 6 q-26 7 -54 5 l-40 -13 l-4 -20 l8 -28 l16 -4 l32 14 ZM244 46 q23 14 43 34.5 q20 20.5 42 36.5 l0 6 q-18 22 -34 45 q-16 23 -26 49 l-4 0 q-19 -20 -31 -43 q-12 -23 -16 -49 q14 -41 24 -81 l2 2 ZM375 163 q46 54 77 115 q31 61 57 125 l-4 0 q-52 -24 -99 -58 q-47 -34 -93 -74 l-2 -10 q12 -26 28 -51 q16 -25 34 -49 l2 2 Z" /><glyph glyph-name="" unicode="&#x306d;" d="M840 -6 q-38 20 -72.5 49 q-34.5 29 -70.5 51 q-18 -28 -43 -53 q-25 -25 -55 -39 l-52 -4 q-50 8 -86 48 q-32 40 -34 95 q2 30 26 50 q24 24 55 29 q31 5 65 3 q28 -4 53 -17 q25 -13 51 -23 q18 42 33 87 q15 45 19 93 l0 96 q-4 28 -22 50 l-20 4 q-72 -24 -136 -68 q-64 -44 -120 -102 q-22 -30 -50 -56 q-28 -26 -38 -60 l16 -265 q-6 -14 -20 -20 l-18 0 q-14 6 -20 20 l-14 207 l-4 0 q-28 -30 -50.5 -62.5 q-22.5 -32.5 -48.5 -60.5 l-18 0 q-14 6 -20 20 l0 16 q30 55 75.5 102 q45.5 47 59.5 107 l-8 96 l-6 0 q-33 -26 -68 -48 q-35 -22 -77 -24 q-14 6 -20 20 l0 22 l16 20 q44 4 78 30 q34 26 71 50 l2 2 l0 190 l-8 27 l12 22 q10 8 26 6 q16 -8 22 -24 l6 -29 l0 -152 l6 0 q14 12 36 10 q14 -6 20 -20 l0 -16 q-22 -28 -56 -42 l-4 0 l0 -36 l6 -68 l4 0 q54 66 119 120 q65 54 137 94 q28 10 55 21 q27 11 59 9 q30 -6 53 -34 q22 -36 26 -78 l0 -96 q-6 -58 -22.5 -112 q-16.5 -54 -40.5 -106 q39 -24 75 -53.5 q36 -29.5 74 -51.5 q8 -10 6 -26 q-6 -14 -20 -20 l-20 0 ZM597 68 q30 24 50 57 l0 6 q-28 14 -56 27 q-28 13 -64 7 q-22 -4 -38 -20 l-4 -16 q8 -27 24 -49 q26 -26 64 -24 l24 12 Z" /><glyph glyph-name="" unicode="&#x306e;" d="M721 -64 q-14 6 -20 20 l0 20 q34 58 63.5 118 q29.5 60 39.5 129 l0 102 q-4 62 -23.5 121 q-19.5 59 -65.5 105 q-28 24 -63 31 q-35 7 -75 3 q-42 -4 -80 -22 q-14 -126 -48 -250 q-34 -124 -116 -227 q-34 -26 -81 -22 q-42 4 -72 38 q-22 24 -31 54.5 q-9 30.5 -9 64.5 q8 80 48 150 q40 70 103 126 q74 68 162 111 q88 43 192 35 q40 -4 74 -24 q34 -20 63 -52 q40 -52 58 -114 q18 -62 22 -128 l0 -102 q-8 -77 -40 -147 q-32 -70 -75 -134 q-10 -8 -26 -6 ZM297 132 q62 89 93 191 q31 102 43 206 l-4 0 q-54 -34 -106 -82 q-52 -48 -85 -104 q-16 -34 -28 -69 q-12 -35 -12 -75 q4 -37 32 -65 q20 -14 47 -12 l20 10 Z" /><glyph glyph-name="" unicode="&#x306f;" d="M597 -58 q-42 6 -80 23 q-38 17 -70 49 q-20 24 -31 50 q-11 26 -11 59 q4 34 32 56 q26 24 57 33 q31 9 67 5 q44 -8 82 -32 q38 -24 76 -48 l0 116 l-16 242 l-6 0 q-64 -6 -127 -11 q-63 -5 -127 -11 q-14 6 -20 20 l0 16 l20 22 q64 6 127 11 q63 5 127 11 l2 14 q-2 38 -7 74.5 q-5 36.5 -9 72.5 q0 16 14 26 q10 8 26 6 q14 -6 20 -20 l0 -18 l-2 -8 q6 -34 10 -69.5 q4 -35.5 6 -71.5 l4 0 l69 6 q14 -6 20 -20 l0 -16 q-6 -14 -20 -20 l-69 -8 l-2 -6 q4 -60 9 -120 q5 -60 9 -122 l0 -140 l-4 -25 q21 -20 43 -34 q22 -14 44 -30 q8 -10 6 -26 q-6 -14 -20 -20 l-20 0 l-71 46 q-8 -26 -30 -46 q-26 -22 -59 -30 q-33 -8 -69 -6 ZM214 6 q-14 6 -20 20 q-14 72 -21 146.5 q-7 74.5 -7 148.5 q2 72 10 143 q8 71 26 139 q12 10 30 8 q14 -6 20 -20 l0 -18 q-16 -72 -22 -146 q-6 -74 -6 -150 q2 -64 9 -127.5 q7 -63.5 17 -123.5 q-6 -14 -20 -20 l-16 0 ZM685 20 q18 22 22 50 q-42 32 -87 60.5 q-45 28.5 -101 28.5 q-26 -8 -48 -28 l-8 -22 q10 -35 34 -63 q30 -24 64 -36 q34 -12 74 -10 q26 6 50 20 Z" /><glyph glyph-name="" unicode="&#x3070;" d="M573 -46 q-46 8 -87 28 q-41 20 -77 54 q-32 32 -34 77 q2 20 16 36 q26 24 62 27 q36 3 74 1 q38 -8 75 -16 q37 -8 71 -22 l0 118 q-4 64 -9 129 q-5 65 -11 127 l-6 0 q-58 -6 -117 -16 q-59 -10 -117 -22 q-14 6 -20 20 l0 16 l8 14 q58 20 121 29 q63 9 127 17 l0 34 l-2 2 l0 89 q-2 28 14 50 q10 8 26 6 q14 -6 20 -20 l0 -34 l-2 -2 l0 -89 l2 -32 l14 0 l47 2 q14 -6 20 -20 l0 -16 q-6 -14 -20 -20 l-57 -4 l0 -8 q6 -64 11 -126 q5 -62 9 -126 l0 -128 l-2 -20 l119 -73 q8 -10 6 -26 q-6 -14 -20 -20 l-20 0 l-97 56 q-10 -38 -40 -66 q-20 -20 -48 -23 q-28 -3 -56 -3 ZM168 -28 q-14 6 -20 20 q-12 46 -19 93.5 q-7 47.5 -13 95.5 l0 86 q4 76 18 149 q14 73 34 143 q12 8 28 6 q14 -6 20 -20 l0 -18 q-16 -64 -27 -129 q-11 -65 -15 -131 l0 -86 q6 -48 14 -94.5 q8 -46.5 16 -94.5 q-6 -14 -20 -20 l-16 0 ZM637 22 q22 24 26 56 q-48 20 -98 32.5 q-50 12.5 -106 8.5 l-26 -8 l0 -5 q10 -24 32 -44 q32 -20 67 -36 q35 -16 77 -14 l28 10 ZM934 427 q-14 6 -22 22 q-8 38 -12 76 q-4 38 -6 78 q-2 35 18 61 q10 8 26 6 q14 -6 20 -20 l0 -18 q-8 -29 -6 -59 q4 -32 8 -64 q4 -32 10 -62 q-6 -14 -20 -20 l-16 0 ZM840 451 l-20 16 q-12 40 -17 85 q-5 45 -7 90 l20 22 l20 0 q14 -6 20 -20 q-2 -47 4 -89 q6 -42 16 -84 q-6 -14 -20 -20 l-16 0 Z" /><glyph glyph-name="" unicode="&#x3071;" d="M545 -46 q-38 4 -73 17 q-35 13 -63 41 q-26 30 -41 66 q-15 36 -15 79 q6 26 30 46 q24 16 53 20 q29 4 61 2 q44 -8 84 -26 q40 -18 80 -36 l2 6 l0 140 q-2 54 -8 105 q-6 51 -8 103 l-28 0 q-38 -6 -78 -9 q-40 -3 -80 -3 l-22 12 q-8 10 -6 26 q6 14 20 20 q48 0 95 4 q47 4 95 8 l0 24 l-8 109 l12 22 q10 8 26 6 q14 -6 20 -20 l8 -135 l18 0 l57 2 l14 -6 q0 48 38 83 q16 18 40 14 q28 -6 55 -15 q27 -9 47 -36 q32 -36 24 -88 q-6 -28 -32 -50 q-36 -28 -84 -22 q-38 6 -66 36 q-14 16 -18 38 l-4 0 q-39 -16 -85 -14 l0 -22 q4 -48 9 -95 q5 -47 7 -97 l0 -140 l-6 -46 q30 -25 60.5 -48 q30.5 -23 62.5 -39 q8 -10 6 -26 q-6 -14 -20 -20 l-16 0 q-30 10 -57.5 30 q-27.5 20 -53.5 40 q-10 -32 -34 -56 q-24 -24 -54 -38 q-30 -10 -64 -12 ZM603 30 q32 24 44 60 l0 8 q-46 27 -95 49 q-49 22 -107 20 l-30 -14 l-4 -18 q12 -49 46 -89 q22 -16 47 -25 q25 -9 55 -9 l44 18 ZM196 36 l-20 16 q-20 48 -29 100.5 q-9 52.5 -13 106.5 l0 86 q6 56 10 112 q4 56 18 108 q12 8 28 6 q14 -6 20 -20 l0 -24 q-6 -46 -10 -91 q-4 -45 -8 -91 l0 -86 q2 -54 13 -104.5 q11 -50.5 27 -98.5 q-6 -14 -20 -20 l-16 0 ZM928 533 q12 14 8 34 q-12 26 -36 38 l-42 4 q-12 -22 -12 -48 l12 -26 q20 -18 48 -14 l22 12 Z" /><glyph glyph-name="" unicode="&#x3072;" d="M367 -22 q-34 2 -62.5 15 q-28.5 13 -52.5 39 q-26 34 -33 75.5 q-7 41.5 -7 85.5 q4 104 49 200 q45 96 110 180 q-36 -2 -70.5 2 q-34.5 4 -60.5 28 q-16 16 -14 39 l12 22 q12 8 28 6 q14 -6 20 -20 l0 -10 q45 -13 95 -8 q32 2 62 7 q30 5 60 9 q14 -6 20 -21 l0 -18 q-6 -14 -20 -20 q-44 -12 -78 -46 q-66 -84 -110.5 -179 q-44.5 -95 -44.5 -203 q2 -28 9 -55.5 q7 -27.5 30 -47.5 q32 -24 76 -22 q48 8 85 41 q37 33 73 72 q58 86 101 181 q43 95 73 189 q12 8 28 6 q14 -6 20 -20 l0 -38 q-10 -22 -12 -48 q-2 -26 -2 -54 q2 -32 10 -62 q8 -30 28 -54 q28 -24 63 -36 q8 -10 6 -26 q-6 -14 -20 -20 l-19 0 q-44 10 -78 48 q-18 20 -27 45 q-9 25 -13 51 l-4 0 q-30 -76 -72 -146.5 q-42 -70.5 -110 -126.5 q-30 -30 -68 -44 q-38 -14 -80 -16 Z" /><glyph glyph-name="" unicode="&#x3073;" d="M323 -50 q-36 4 -67.5 18 q-31.5 14 -55.5 42 q-26 36 -34 79.5 q-8 43.5 -8 91.5 q6 108 56 204 q50 96 125 174 q-40 4 -77.5 11 q-37.5 7 -67.5 33 q-14 16 -14 38 q0 19 18 31 q14 6 30 4 q14 -6 20 -20 l0 -21 q37 -14 78 -17 q41 -3 83 -1 q46 12 96 12 q14 -6 20 -20 l0 -16 q-6 -14 -20 -20 q-38 -4 -70 -18 q-32 -14 -58 -44 q-74 -74 -117.5 -167 q-43.5 -93 -43.5 -197 q0 -35 11 -64 q11 -29 35 -53 q37 -22 81 -22 q54 14 103 45 q49 31 89 80 q62 82 110 175 q48 93 66 193 q14 10 32 8 q14 -6 20 -20 l0 -28 q-10 -28 -12 -58 q6 -52 36.5 -95 q30.5 -43 74.5 -81 l16 -18 l0 -16 q-6 -14 -20 -20 l-18 0 q-34 28 -67.5 61 q-33.5 33 -53.5 71 l-6 6 q-50 -106 -122 -200.5 q-72 -94.5 -184 -144.5 q-40 -16 -84 -16 ZM808 559 q-29 16 -50 41 q-21 25 -35 54 q-10 18 -10 40 q6 14 20 20 l18 0 q20 -10 26 -30 q13 -34 43 -63 q18 -8 28 -26 l0 -16 q-6 -14 -20 -20 l-20 0 ZM920 587 q-30 8 -50 34 q-18 25 -32 51 q-14 26 -20 56 q6 14 20 20 l16 0 q20 -12 30 -32 q12 -36 40 -66 q18 -9 26 -25 l0 -16 q-6 -14 -20 -20 l-10 -2 Z" /><glyph glyph-name="" unicode="&#x3074;" d="M339 -44 q-28 2 -54.5 13 q-26.5 11 -46.5 33 q-32 38 -41 84.5 q-9 46.5 -7 98.5 q0 98 44.5 185 q44.5 87 110.5 157 q-42 2 -80.5 10 q-38.5 8 -68.5 40 q-8 14 -10 32 q0 21 16 35 q10 8 26 6 q14 -6 20 -20 l4 -25 q27 -14 56 -18 q29 -4 61 -2 q34 4 64 14 q30 10 64 10 q14 -6 20 -20 l0 -16 q-8 -16 -24 -22 q-34 -10 -63 -31 q-29 -21 -55 -49 q-66 -70 -100.5 -158 q-34.5 -88 -26.5 -186 q4 -27 13.5 -51 q9.5 -24 29.5 -44 q30 -18 66 -18 q60 16 109 56.5 q49 40.5 97 86.5 q60 80 101 172 q41 92 47 190 q10 8 26 6 q16 -6 22 -22 l2 -62 l-2 -30 q8 -32 24.5 -60 q16.5 -28 44.5 -52 q18 -6 26 -24 l0 -16 q-6 -14 -20 -20 l-20 0 q-24 14 -45.5 36 q-21.5 22 -37.5 46 l0 4 l-6 0 q-24 -66 -62 -126 q-38 -60 -88 -113 q-52 -48 -109 -87 q-57 -39 -127 -43 ZM828 487 q-34 8 -61 34 q-24 28 -22 68 q12 49 41 91 q40 30 96 22 q32 -2 54 -26 q24 -38 18 -89 q0 -44 -36 -72 q-38 -34 -90 -28 ZM870 553 q18 8 24 26 l2 47 l-6 12 q-18 10 -42 6 l-6 -10 l-20 -10 q-16 -23 -18 -51 q10 -22 34 -28 l16 0 l16 8 Z" /><glyph glyph-name="" unicode="&#x3075;" d="M457 -66 q-40 2 -76 15 q-36 13 -66 39 q-16 14 -12 38 q6 14 20 20 l16 0 l20 -18 l0 -4 q28 -14 57 -23 q29 -9 63 -9 q36 0 64 16 q14 30 8 68 q-12 81 -45 155 q-33 74 -47 154 q6 50 48 86 l66 58 l0 10 q-34 40 -79 67 q-45 27 -89 51 q-16 0 -28 13 q-8 10 -6 26 q6 14 20 20 l20 0 q54 -22 103 -53.5 q49 -31.5 95 -71.5 q28 -30 22 -74 q-14 -32 -44 -56 q-44 -28 -68 -70 l-2 -18 q32 -86 63 -173.5 q31 -87.5 29 -183.5 q-8 -30 -32 -54 q-26 -18 -57 -23 q-31 -5 -63 -5 ZM904 8 l-14 8 l0 4 l-12 8 q-38 48 -71 99.5 q-33 51.5 -66 103.5 l-20 10 q-8 10 -6 26 q8 16 24 22 l18 0 q57 -54 93 -120.5 q36 -66.5 90 -122.5 l0 -18 q-6 -14 -20 -20 l-16 0 ZM132 16 q-14 6 -20 20 l0 18 q16 74 45 143.5 q29 69.5 69 133.5 q10 8 27 6 q14 -6 20 -20 l0 -20 q-39 -66 -67 -134.5 q-28 -68.5 -48 -140.5 q-10 -8 -26 -6 Z" /><glyph glyph-name="" unicode="&#x3076;" d="M405 2 q-36 2 -70 12 q-34 10 -63 32 q-8 10 -6 26 q6 14 21 20 l18 0 q30 -20 67 -27 q37 -7 77 -5 q46 0 82 28 q20 30 14 71 q-14 84 -49 144 q-35 60 -49 164 q4 24 24 40 q22 18 47 29 q25 11 49 27 l2 18 q-24 36 -60 64 q-36 28 -72 53 l-30 14 q-8 10 -6 26 q6 14 20 20 l28 0 q42 -24 81 -55.5 q39 -31.5 75 -67.5 q30 -36 22 -86 q-26 -44 -74 -62 l-46 -26 l-2 -16 q40 -102 70 -170 q30 -68 28 -165 q-6 -40 -38 -70 q-32 -28 -74 -33 q-42 -5 -86 -5 ZM862 38 q-22 14 -30 38 q-32 68 -62.5 137.5 q-30.5 69.5 -66.5 135.5 q6 14 20 20 l18 0 q33 -26 50 -62 q17 -36 35 -70 q14 -46 37 -88.5 q23 -42.5 35 -90.5 q-6 -14 -20 -20 l-16 0 ZM128 86 q-14 6 -20 20 l0 20 q14 59 39 114 q25 55 63 103 q10 8 26 6 q14 -6 20 -20 l0 -18 q-38 -55 -60 -108.5 q-22 -53.5 -42 -110.5 q-10 -8 -26 -6 ZM902 611 q-22 16 -36 42 q-12 34 -17 72.5 q-5 38.5 -3 78.5 q6 14 20 20 l16 0 q16 -6 22 -22 q-6 -48 6 -89.5 q12 -41.5 28 -81.5 q-6 -14 -20 -20 l-16 0 ZM771 623 q-26 20 -40 48 q-8 24 -12 49.5 q-4 25.5 -6 51.5 q2 20 16 34 q10 8 26 6 q14 -6 20 -20 l0 -22 l-4 -16 q2 -32 16.5 -57.5 q14.5 -25.5 24.5 -53.5 q-6 -14 -20 -20 l-21 0 Z" /><glyph glyph-name="" unicode="&#x3077;" d="M447 -56 q-34 2 -62 17 q-28 15 -54 37 q-12 12 -10 32 q6 14 20 20 l16 0 q22 -18 47 -32 q25 -14 55 -16 q34 6 60 32 q14 24 17 53.5 q3 29.5 1 59.5 q-12 84 -57 157 q-45 73 -63 155 q4 16 18 28 q26 18 52 34 q26 16 46 42 l0 16 q-10 22 -28 41.5 q-18 19.5 -42 31.5 q-24 6 -48 18 q-10 12 -8 30 q6 14 20 20 l16 0 q32 -6 60 -23 q28 -17 52 -43 q18 -22 29 -47.5 q11 -25.5 7 -57.5 q-18 -36 -51 -61 q-33 -25 -63 -47 q46 -86 87 -174 q41 -88 31 -189 q-6 -28 -15 -53 q-9 -25 -33 -45 q-22 -18 -47 -26 q-25 -8 -53 -10 ZM192 -44 q-14 6 -20 20 l0 38 q6 68 24 134.5 q18 66.5 48 126.5 q10 8 27 6 q14 -6 20 -20 l0 -20 q-28 -66 -44.5 -136.5 q-16.5 -70.5 -28.5 -142.5 q-10 -8 -26 -6 ZM838 -26 l-20 16 q-26 78 -47.5 158.5 q-21.5 80.5 -49.5 158.5 q6 14 20 20 l20 0 q19 -10 27 -30 q24 -74 45 -150.5 q21 -76.5 41 -152.5 q-6 -14 -20 -20 l-16 0 ZM796 521 q-33 4 -57 28 q-24 28 -22 66 q2 37 21 65 q19 28 27 60 q23 10 51 6 q38 -6 66 -42 q30 -40 24 -97 q-6 -42 -44 -70 q-30 -16 -66 -16 ZM830 587 q24 20 18 55 l-16 30 l-10 2 l-24 -10 q-20 -26 -22 -61 l6 -14 l26 -10 l22 8 Z" /><glyph glyph-name="" unicode="&#x3078;" d="M866 52 q-117 99 -213 214 q-96 115 -200 219 l-24 2 q-48 -18 -90 -52 q-42 -34 -82 -76 q-33 -38 -65 -74 l-16 0 q-14 6 -20 20 l0 22 q46 62 103.5 116 q57.5 54 125.5 90 q28 14 64 12 q38 -8 68 -35 q30 -27 58 -57 q72 -98 156.5 -188 q84.5 -90 174.5 -175 l0 -18 q-6 -14 -20 -20 l-20 0 Z" /><glyph glyph-name="" unicode="&#x3079;" d="M890 14 q-20 4 -34 24 q-113 105 -219 218 q-106 113 -212 221 l-44 0 q-60 -16 -110.5 -55 q-50.5 -39 -96.5 -89 q-8 -14 -22 -18 l-16 0 q-14 6 -20 20 l0 18 q44 50 93.5 93 q49.5 43 105.5 71 q26 12 56 16 q30 4 62 2 q28 -8 51 -24 q23 -16 45 -40 q82 -116 188.5 -214 q106.5 -98 202.5 -205 l0 -16 q-6 -14 -20 -20 l-10 -2 ZM850 503 l-20 16 q-16 42 -27 87 q-11 45 -17 92 l8 14 q12 10 30 8 q14 -6 20 -20 q6 -46 19 -89.5 q13 -43.5 23 -87.5 q-6 -14 -20 -20 l-16 0 ZM707 507 l-20 16 q-12 38 -21 76 q-9 38 -21 77 l8 14 q14 10 32 8 q14 -6 20 -20 q12 -37 21 -75 q9 -38 17 -76 q-6 -14 -20 -20 l-16 0 Z" /><glyph glyph-name="" unicode="&#x307b;" d="M559 -46 q-30 8 -58 23 q-28 15 -52 41 q-26 32 -47 66 q-21 34 -21 77 q2 28 26 48 q26 20 62 14 q52 -16 102 -39 q50 -23 100 -47 l2 12 l0 272 l-50 0 q-54 -2 -105 -11 q-51 -9 -101 -17 q-14 6 -20 20 l0 16 l16 20 q62 14 126 22 q64 8 132 8 l0 104 l4 16 q-40 4 -81 5 q-41 1 -77 15 q-8 10 -6 27 q6 14 20 20 l40 0 l84 -8 l86 0 q38 2 67 -18 q8 -11 6 -27 q-6 -14 -20 -20 l-21 0 q-22 6 -46 6 l0 -6 l2 -2 l0 -112 q52 4 97 -14 q8 -12 6 -28 q-6 -14 -20 -20 l-20 0 l-61 4 l0 -272 l-8 -43 q36 -24 74.5 -39 q38.5 -15 74.5 -35 q8 -10 6 -26 q-6 -14 -20 -20 l-22 0 q-32 16 -65.5 29 q-33.5 13 -65.5 29 q-12 -26 -35 -49 q-23 -23 -49 -35 q-28 -8 -62 -6 ZM611 22 q28 16 40 46 l2 10 q-50 26 -101 50.5 q-51 24.5 -107 36.5 l-6 -18 q10 -29 25 -53 q15 -24 37 -46 q38 -32 88 -36 l22 10 ZM214 40 l-20 16 q-10 34 -15 70.5 q-5 36.5 -7 74.5 l0 80 q2 80 13 157 q11 77 31 149 q12 10 30 8 q14 -6 20 -20 l0 -16 q-16 -68 -25 -137 q-9 -69 -11 -141 l0 -80 q0 -36 7 -71.5 q7 -35.5 13 -69.5 q-6 -14 -20 -20 l-16 0 Z" /><glyph glyph-name="" unicode="&#x307c;" d="M543 -44 q-46 10 -88 31 q-42 21 -76 57 q-34 38 -34 90 q6 29 28 51 q28 22 62 29 q34 7 72 5 q36 -6 69 -19 q33 -13 65 -27 l2 6 l0 220 l-10 0 q-58 -12 -117 -19 q-59 -7 -119 -11 q-18 0 -30 14 q-8 10 -6 26 l8 14 q12 10 30 8 l18 -4 q58 4 114 13 q56 9 112 17 l0 88 l-2 28 l12 22 q10 8 26 6 q14 -6 20 -20 l2 -114 l14 0 l93 6 q14 -6 20 -20 l0 -18 q-6 -14 -20 -20 l-107 -6 l0 -230 l-4 -47 q43 -34 87 -62 q44 -28 84 -60 l0 -18 q-6 -14 -20 -20 l-18 0 q-36 22 -72.5 45 q-36.5 23 -70.5 47 q-2 -50 -42 -84 q-22 -16 -48 -21 q-26 -5 -54 -3 ZM124 26 q-14 6 -20 20 q-10 46 -10 99 q4 114 21 225 q17 111 53 217 q12 8 28 6 q14 -6 21 -20 l0 -22 q-35 -106 -50 -217 q-15 -111 -15 -226 l8 -62 q-6 -14 -20 -20 l-16 0 ZM609 26 q26 36 26 82 q-42 22 -85 39.5 q-43 17.5 -95 13.5 l-42 -19 l-10 -20 q6 -34 38 -58 q32 -20 66 -36 q34 -16 76 -14 l26 12 ZM916 517 q-14 6 -22 22 q-12 52 -15 106.5 q-3 54.5 -11 108.5 q6 14 20 20 l18 0 q16 -8 24 -24 q2 -54 7 -108.5 q5 -54.5 15 -104.5 q-6 -14 -20 -20 l-16 0 ZM820 527 l-20 16 l-10 70 l-4 0 q-12 -8 -30 -6 l-69 2 l-192 -18 l-22 12 q-8 10 -6 26 q6 14 20 20 q68 4 135 12.5 q67 8.5 138 6.5 l20 -4 l0 10 l-8 52 l12 22 q12 8 30 6 q14 -6 20 -20 l0 -16 l-4 -10 q8 -40 14 -80.5 q6 -40.5 12 -80.5 q-6 -14 -20 -20 l-16 0 Z" /><glyph glyph-name="" unicode="&#x307e;" d="M447 -42 q-48 6 -91.5 24 q-43.5 18 -81.5 48 q-32 36 -32 84 q0 31 22 53 q34 28 77.5 38 q43.5 10 91.5 6 q44 -8 85 -27 q41 -19 79 -41 l4 62 l0 182 l-14 0 q-76 -6 -152 -16 q-76 -10 -155 -12 q-14 6 -20 20 l0 16 q6 14 20 20 q81 6 160 16 q79 10 159 14 l0 126 l-172 0 l-107 -8 l-22 12 q-8 10 -6 26 q6 14 20 20 l115 8 l172 0 q4 27 5 54 q1 27 15 47 q10 8 26 6 q14 -6 20 -20 l0 -22 q-4 -32 -8 -67 l94 0 l20 -12 q8 -10 6 -26 q-6 -14 -20 -20 l-100 0 l0 -120 l124 0 q20 0 32 -16 q8 -10 6 -26 q-6 -14 -20 -20 l-16 0 l-8 4 l-116 0 l0 -186 l-10 -107 q26 -20 54 -36 q28 -16 54 -34 q8 -10 6 -26 q-6 -14 -20 -20 l-16 0 q-24 10 -46 25 q-22 15 -46 27 q-12 -24 -36 -44 q-32 -22 -71 -28 q-39 -6 -81 -4 ZM563 36 q20 16 22 40 q-48 34 -99 58.5 q-51 24.5 -115 18.5 q-34 -8 -65 -27 l-6 -22 q4 -20 18 -36 q43 -26 89 -41 q46 -15 100 -11 q30 4 56 20 Z" /><glyph glyph-name="" unicode="&#x307f;" d="M671 -33 q-14 6 -20 20 l0 20 q10 44 17 89 q7 45 15 89 q-88 18 -152 39 q-64 21 -152 47 q-20 -44 -44 -87.5 q-24 -43.5 -57 -81.5 q-22 -20 -52 -22 q-32 4 -54 32 q-26 38 -43 79.5 q-17 41.5 -17 89.5 q0 30 24 50 q26 22 60 23 q34 1 68 1 l79 -12 q24 70 55 137 q31 67 47 139 q-44 16 -85 44 q-41 28 -84 50 q-8 11 -6 27 q6 16 22 24 l25 0 q40 -38 88 -58.5 q48 -20.5 90 -54.5 q12 -26 8 -58 q-20 -70 -49 -135 q-29 -65 -53 -133 q86 -24 147 -44.5 q61 -20.5 147 -36.5 q10 48 24 96 q14 48 24 96 l-4 22 l8 14 q15 12 35 8 q14 -6 20 -20 l0 -30 q-8 -52 -24 -102 q-16 -50 -27 -102 q47 -10 90 -24.5 q43 -14.5 83 -36.5 q8 -10 6 -26 q-6 -16 -22 -22 l-16 0 q-36 18 -74 31 q-38 13 -79 19 q-8 -50 -16 -99 q-8 -49 -26 -95 q-10 -8 -26 -6 ZM240 146 q24 32 44.5 67.5 q20.5 35.5 32.5 73.5 q-29 8 -59 9 q-30 1 -62 1 l-22 -10 q-6 -14 -4 -32 q6 -30 19 -58.5 q13 -28.5 33 -52.5 l12 -2 l6 4 Z" /><glyph glyph-name="" unicode="&#x3080;" d="M553 -42 q-50 0 -93 21 q-43 21 -77 59 l-24 28 q-12 -22 -36 -30 l-28 -2 q-49 14 -87 48 q-22 28 -42 56.5 q-20 28.5 -20 64.5 q2 32 20 58 q18 26 42 50 q22 18 46.5 30 q24.5 12 56.5 8 l20 -6 l0 166 l-6 0 q-44 -16 -89.5 -26 q-45.5 -10 -91.5 -20 q-14 6 -20 20 l0 18 l20 22 q48 8 95.5 20 q47.5 12 91.5 30 l6 135 l-2 6 l12 22 q10 8 26 6 q14 -6 20 -20 l2 -63 l-4 -66 l8 0 q28 14 62 14 q14 -6 20 -20 l0 -16 l-18 -20 l-70 -22 l-4 -24 l0 -264 l-4 -56 q8 -33 17 -63 q9 -30 33 -54 q34 -36 79 -46 q45 -10 95 -6 q50 6 98 17 q48 11 95 27 q14 -6 20 -20 l0 -16 q-12 -22 -34 -30 q-57 -16 -115 -27 q-58 -11 -120 -9 ZM309 94 l0 4 q16 44 18 95 q-2 52 -24 96 l-16 2 q-35 -14 -61 -44 q-20 -24 -22 -56 q18 -37 44 -67 q27 -24 61 -30 ZM858 419 q-28 26 -49 59 q-21 33 -44 65 q-8 26 -23 48 q-15 22 -19 48 q6 14 20 20 l16 0 q18 -8 29 -24 q20 -52 52 -98 q32 -46 54 -98 q-6 -14 -20 -20 l-16 0 Z" /><glyph glyph-name="" unicode="&#x3081;" d="M745 -30 q-14 6 -20 20 l0 20 q26 46 44.5 95.5 q18.5 49.5 28.5 103.5 l0 104 q-8 40 -23 75 q-15 35 -46 65 q-26 22 -56 32 q-30 10 -66 6 l-42 -10 q-34 -80 -70 -161 q-36 -81 -76 -159 q32 -26 40 -65 q-6 -14 -20 -20 l-16 0 q-22 12 -38 37 l-4 0 q-30 -37 -66 -60 q-36 -23 -83 -23 q-26 2 -44 22 q-22 22 -29 49.5 q-7 27.5 -9 57.5 q2 62 37 111 q35 49 68 97 q-23 58 -39 120 q-16 62 -24 126 l12 23 q10 8 26 6 q15 -6 21 -21 q6 -56 20 -108 q14 -52 32 -104 l6 0 q48 42 100 72 q52 30 110 48 q16 44 29 88.5 q13 44.5 29 88.5 q10 8 26 6 q16 -8 22 -24 l0 -20 l-36 -121 l16 0 l54 2 q40 -6 74.5 -27 q34.5 -21 62.5 -53 q26 -34 41 -73 q15 -39 19 -83 l0 -104 q-8 -62 -29 -121.5 q-21 -59.5 -55 -111.5 q-10 -8 -27 -6 ZM287 104 l58 59 q-18 32 -35 64 q-17 32 -29 66 l-4 0 q-28 -32 -48.5 -68 q-20.5 -36 -20.5 -80 q4 -28 20 -53 l21 -4 l38 16 ZM383 221 l0 2 q28 58 55 116 q27 58 51 116 l-4 0 q-42 -20 -82 -46 q-40 -26 -76 -60 l-2 -10 q12 -30 26 -61 q14 -31 30 -59 l2 2 Z" /><glyph glyph-name="" unicode="&#x3082;" d="M511 -36 q-38 6 -72 17 q-34 11 -62 41 q-34 42 -45 93.5 q-11 51.5 -9 107.5 l12 90 l-6 0 q-37 -8 -73 -13 q-36 -5 -72 -13 q-14 6 -20 20 l0 18 l16 20 l167 28 q8 44 19 86 q11 42 25 82 l-4 0 q-38 -6 -76.5 -9 q-38.5 -3 -76.5 -5 q-14 6 -20 20 l0 16 l18 20 l183 16 q20 44 42 87.5 q22 43.5 48 85.5 q12 10 30 8 q14 -6 20 -20 l0 -16 q-20 -34 -38 -67.5 q-18 -33.5 -32 -69.5 l94 0 q18 0 30 -14 q8 -10 6 -26 q-6 -14 -20 -20 l-20 0 l-2 2 l-92 0 l-26 -2 q-14 -40 -26 -81 q-12 -41 -22 -83 l12 0 q34 4 68 9 q34 5 72 3 q14 -6 20 -20 l0 -16 q-6 -14 -20 -20 q-42 -2 -83 -6 q-41 -4 -81 -14 q-6 -34 -10 -69 q-4 -35 -4 -73 q2 -36 13 -67.5 q11 -31.5 35 -57.5 q26 -16 55 -24 q29 -8 61 -6 q70 6 130 37 q60 31 118 67 q14 -6 20 -20 l0 -16 q-26 -30 -58 -52 q-32 -22 -66 -38 q-40 -18 -84 -28 q-44 -10 -94 -8 Z" /><glyph glyph-name="" unicode="&#x3083;" d="M485 -30 l-14 8 q-36 68 -67 137.5 q-31 69.5 -61 141.5 l-4 0 q-38 -16 -74.5 -37 q-36.5 -21 -78.5 -27 q-14 6 -20 20 l0 16 l16 20 q34 14 66.5 31 q32.5 17 66.5 29 l0 6 q-20 38 -30 80 l12 22 q10 8 26 6 q18 -8 24 -26 q8 -32 22 -62 l4 0 l104 40 q4 34 10 68 q6 34 6 70 l-2 6 l12 22 q10 8 26 6 q16 -6 22 -22 l0 -36 l-12 -94 l4 0 q32 8 66 15 q34 7 70 5 q38 -2 66 -30 q14 -26 10 -58 q-16 -38 -43 -71 q-27 -33 -59 -65 q-10 -9 -26 -6 q-14 6 -20 20 l0 16 q24 32 52 62 q28 30 38 68 q-28 8 -60 6 q-26 -6 -53 -12 q-27 -6 -53 -14 q-6 -32 -4 -66 l2 -22 q-6 -14 -20 -20 l-16 0 q-14 6 -20 20 l-4 66 l-6 0 l-66 -26 l0 -6 q30 -72 63 -143.5 q33 -71.5 61 -143.5 q-6 -14 -20 -20 l-16 0 Z" /><glyph glyph-name="" unicode="&#x3084;" d="M507 -53 q-16 8 -24 24 q-50 114 -90 231.5 q-40 117.5 -74 235.5 l-4 0 q-40 -22 -79.5 -45 q-39.5 -23 -83.5 -35 q-14 6 -20 20 l0 16 q36 34 81.5 56 q45.5 22 87.5 46 l0 10 q-12 42 -26 84 q6 16 22 24 l16 0 q18 -10 26 -28 l16 -62 l4 0 q44 20 91 34 q47 14 95 24 q6 40 11 81.5 q5 41.5 3 83.5 l-2 18 q6 14 20 20 l18 0 q16 -6 22 -22 l0 -76 l-12 -95 l6 0 l18 4 l98 0 q37 -6 70 -18 q33 -12 59 -42 q22 -36 16 -82 q-18 -50 -51 -95 q-33 -45 -72 -87 q-10 -8 -26 -6 q-14 6 -20 20 l0 16 q34 44 69.5 88 q35.5 44 41.5 100 q-10 22 -34 32 l-55 16 l-96 0 l-32 -4 q-6 -44 -7 -89 q-1 -45 -13 -87 q-10 -8 -26 -6 q-14 6 -20 20 l-2 40 q2 28 4 55 q2 27 6 55 l-4 0 q-42 -10 -83 -24 q-41 -14 -81 -32 l0 -4 q38 -124 81 -248.5 q43 -124.5 91 -246.5 q-6 -14 -20 -20 l-16 0 Z" /><glyph glyph-name="" unicode="&#x3085;" d="M491 -48 q-14 6 -20 20 l0 20 l14 96 l0 149 l-4 0 q-34 -34 -61 -69.5 q-27 -35.5 -61 -67.5 l-24 -4 q-26 2 -44 28 q-31 59 -43 125 q-12 66 -12 134 l12 22 q10 8 26 6 q15 -6 21 -20 q-2 -62 8 -118 q10 -56 32 -110 l6 0 q32 38 65 77 q33 39 71 73 l4 0 l0 8 q-2 44 -15 83 q-13 39 -21 79 q6 14 20 20 l18 0 l20 -18 q8 -32 18 -63 q10 -31 14 -63 l4 0 q36 26 78 40 q42 14 92 8 q26 -6 46 -28 q24 -38 18 -88 q-18 -68 -59 -125.5 q-41 -57.5 -87 -111.5 q-10 -8 -26 -6 q-14 6 -20 20 l0 16 q42 56 85 113.5 q43 57.5 49 129.5 l-6 18 q-26 6 -54 4 q-30 -8 -57 -23 q-27 -15 -53 -33 l-2 -2 l0 -203 q-4 -34 -8 -67 q-4 -33 -18 -63 q-10 -8 -26 -6 Z" /><glyph glyph-name="" unicode="&#x3086;" d="M507 -44 l-22 12 q-8 10 -6 26 q24 106 32 216.5 q8 110.5 10 220.5 l-4 0 q-48 -50 -92 -104 q-44 -54 -104 -88 l-53 -6 q-48 2 -80 40 q-34 48 -45 105 q-11 57 -9 119 q4 26 7 54 q3 28 15 50 q12 8 28 6 q14 -6 20 -20 l0 -16 q-8 -32 -11 -66 q-3 -34 -1 -70 q4 -36 15 -69 q11 -33 31 -61 q20 -16 47 -14 q24 4 44 21 q20 17 38 37 q38 42 74 85 q36 43 82 79 l0 40 l-10 173 l12 22 q10 8 26 6 q14 -6 20 -20 q0 -46 5 -89.5 q5 -43.5 3 -89.5 l4 0 q44 30 92 46 q48 16 106 12 q45 -2 73 -40 q18 -24 22 -54 q4 -30 2 -62 q-14 -82 -66.5 -148 q-52.5 -66 -108.5 -128 q-10 -8 -26 -6 q-14 6 -20 20 l0 16 q56 66 110.5 137 q54.5 71 52.5 163 q-4 20 -20 34 q-33 16 -73 10 q-40 -10 -75 -28 q-35 -18 -69 -42 l-4 -48 l0 -80 q-6 -100 -15 -199.5 q-9 -99.5 -37 -193.5 l-20 -8 Z" /><glyph glyph-name="" unicode="&#x3087;" d="M397 -48 q-34 6 -64 23 q-30 17 -56 43 q-33 30 -31 72 q4 30 31 52 q36 29 80 34 q44 5 92 3 l80 -20 l0 14 q-16 94 -41 186 q-25 92 -25 190 q2 20 14 34 q10 8 26 6 q16 -6 22 -22 l0 -16 q-6 -24 -4 -50 l8 -66 l10 0 q40 6 79 14 q39 8 81 10 q14 -6 20 -20 l0 -16 q-6 -14 -20 -20 l-154 -24 l0 -8 q16 -58 29 -118 q13 -60 15 -125 q34 -20 71 -38 q37 -18 69 -44 q8 -10 6 -26 q-6 -14 -20 -20 l-20 0 q-26 18 -55 33 q-29 15 -57 29 q-10 -40 -44 -72 q-28 -26 -65 -33 q-37 -7 -77 -5 ZM491 26 q22 16 32 38 l8 30 q-36 16 -76 23 q-40 7 -84 3 q-34 -4 -62 -28 l-4 -14 q24 -36 62 -56 q32 -16 74 -12 l50 16 Z" /><glyph glyph-name="" unicode="&#x3088;" d="M397 -46 q-54 8 -100.5 35 q-46.5 27 -90.5 61 q-28 28 -30 66 q2 27 24 43 q34 20 71.5 28 q37.5 8 77.5 14 l84 0 l106 -20 l0 10 q-28 112 -55 223 q-27 111 -29 227 q-2 49 16 89 q10 8 26 6 q14 -6 20 -20 l0 -36 l-4 -83 l6 -52 l8 0 q48 18 94 38 q46 20 96 34 q14 -6 20 -20 l0 -16 q-12 -22 -36 -30 q-44 -16 -86 -35 q-42 -19 -86 -31 l-2 -6 q18 -82 43 -161 q25 -79 29 -165 q50 -23 94 -59 q44 -36 97 -50 q14 -18 10 -42 q-6 -14 -20 -20 l-23 0 q-42 24 -82 54 q-40 30 -82 52 q-8 -46 -46 -78 q-32 -28 -69 -43 q-37 -15 -81 -13 ZM481 34 q34 16 50 50 l8 34 q-26 8 -52 14 q-26 6 -54 11 l-84 0 q-30 -5 -58 -12 q-28 -7 -55 -19 l0 -4 q21 -30 52 -46 q31 -16 59 -34 q32 -16 70 -16 q36 2 64 22 Z" /><glyph glyph-name="" unicode="&#x3089;" d="M719 -64 q-14 6 -20 20 l0 20 q24 54 50.5 134.5 q26.5 80.5 24.5 142.5 q-7 20 -27 28 q-32 6 -66 4 q-96 -22 -182 -75.5 q-86 -53.5 -184 -63.5 q-44 0 -73 35 q-18 22 -22 49 q-4 27 -4 55 q8 70 31.5 136 q23.5 66 65.5 124 q18 22 48 20 q14 -6 20 -20 l0 -16 q-38 -30 -56 -74 q-22 -46 -36 -96 q-14 -50 -14 -106 q2 -22 16 -38 q20 -12 46 -10 q100 38 196 89 q96 51 206 49 q41 -4 71 -36 q18 -22 21 -50 q3 -28 1 -58 q-12 -55 -36 -132 q-24 -77 -51 -125 q-10 -8 -26 -6 ZM611 653 q-50 29 -108 40 q-58 11 -112 31 q-8 10 -6 26 q6 14 20 20 l22 0 q54 -16 110 -27 q56 -11 104 -43 q8 -10 6 -26 q-6 -15 -20 -21 l-16 0 Z" /><glyph glyph-name="" unicode="&#x308a;" d="M603 -58 q-14 6 -20 20 l0 22 q30 86 55 174.5 q25 88.5 31 180.5 l0 132 q0 38 -11 73 q-11 35 -23 69 q6 14 20 20 l16 0 q20 -14 32 -36 q10 -30 16 -62 q6 -32 8 -64 l0 -132 q-8 -102 -34 -199.5 q-26 -97.5 -64 -191.5 q-10 -8 -26 -6 ZM349 185 l-14 8 q-34 44 -44 99 q-10 55 -10 113 q6 96 22 188.5 q16 92.5 56 178.5 q10 8 26 6 q14 -6 20 -20 l0 -20 q-36 -89 -50 -182 q-14 -93 -16 -191 q4 -50 18 -94 q14 0 22 -10 q8 -12 6 -28 l-2 -6 l2 -22 q-6 -14 -20 -20 l-16 0 Z" /><glyph glyph-name="" unicode="&#x308b;" d="M523 -56 q-28 4 -48 30 q-26 38 -24 90 q6 30 24 57 q18 27 44 49 q24 21 53 32 q29 11 63 9 q38 -4 62 -38 l14 -31 l6 -2 q32 47 60 97 q28 50 24 112 l-14 28 q-22 20 -52 22 q-30 2 -62 0 q-120 -22 -222 -92 q-102 -70 -187 -161 l-24 -22 l-16 0 q-14 6 -20 20 l0 16 q78 133 168.5 259 q90.5 126 132.5 273 l-32 0 q-58 -21 -110 -52 q-52 -31 -109 -53 q-14 6 -20 20 l0 20 q36 32 78.5 53.5 q42.5 21.5 82.5 45.5 q28 14 59 21 q31 7 67 3 q28 -14 40 -42 l2 -49 q-22 -90 -76 -168 q-54 -78 -100 -156 l2 0 q76 58 165 92 q89 34 187 30 q52 -4 91 -42 q22 -24 26 -54 q4 -30 2 -64 q-18 -80 -65.5 -148.5 q-47.5 -68.5 -109.5 -126.5 q-36 -32 -74 -56 q-38 -24 -88 -22 ZM589 20 q22 14 43 32 q21 18 37 40 q-8 30 -30 56 q-14 6 -30 4 q-44 -12 -76 -50 q-18 -24 -24 -54 q0 -24 16 -42 q10 -6 24 -4 l40 18 Z" /><glyph glyph-name="" unicode="&#x308c;" d="M305 -34 q-14 6 -20 20 l-2 16 l2 50 l-10 133 l-4 0 q-27 -28 -51 -57.5 q-24 -29.5 -50 -55.5 l-20 0 q-14 6 -20 20 l0 16 q32 43 67 83 q35 40 74 78 l0 188 l-6 0 q-39 -14 -75 -36 q-36 -22 -78 -26 q-14 6 -20 20 l0 16 l18 20 q40 14 78 35 q38 21 81 35 l2 2 l0 130 q-6 37 -6 75 l12 22 q14 8 32 6 q14 -6 20 -20 l0 -16 q-8 -12 -6 -30 l6 -37 l0 -106 l6 0 q20 14 46 12 q14 -6 20 -20 l0 -16 q-6 -16 -22 -22 l-48 -20 l-2 -2 l0 -150 l4 0 q86 78 178 153 q92 75 206 99 q18 -8 26 -26 l2 -46 q-22 -88 -40 -176 q-18 -88 -16 -182 q6 -45 36 -81 q36 -22 82.5 -22 q46.5 0 86.5 -12 q8 -10 6 -26 q-6 -14 -20 -20 l-62 -2 q-40 2 -78.5 12 q-38.5 10 -66.5 40 q-28 36 -37 80.5 q-9 44.5 -5 94.5 q6 76 22 152 q16 76 34 150 l-4 0 q-100 -48 -184 -120 q-84 -72 -166 -148 l-2 -34 q4 -54 8 -107.5 q4 -53.5 4 -109.5 l-12 -26 q-10 -8 -26 -6 Z" /><glyph glyph-name="" unicode="&#x308d;" d="M587 -70 q-14 6 -20 20 l0 20 q64 96 136.5 191.5 q72.5 95.5 92.5 211.5 q-2 22 -20 36 q-41 28 -95 20 q-120 -22 -226 -83 q-106 -61 -209 -119 q-14 6 -20 20 l-2 12 q67 104 140 205 q73 101 117 218 l-16 0 q-64 -23 -123 -59 q-59 -36 -124 -56 q-14 6 -20 20 l0 18 q12 22 36 30 q65 28 125 65.5 q60 37.5 134 39.5 q22 -4 36 -22 q14 -26 10 -61 q-28 -80 -76 -150 q-48 -70 -96 -140 l4 0 q84 52 177 86 q93 34 193 34 q26 -6 49.5 -19 q23.5 -13 43.5 -35 q24 -42 20 -94 q-30 -114 -103.5 -209.5 q-73.5 -95.5 -137.5 -193.5 q-10 -8 -26 -6 Z" /><glyph glyph-name="" unicode="&#x308f;" d="M329 -42 q-14 6 -20 20 q-4 40 -10 102 q-6 62 -8 105 l-4 0 q-21 -21 -39 -43 q-18 -22 -28 -46 q-10 -8 -26 -6 q-14 6 -20 20 l-2 14 q16 40 48 74.5 q32 34.5 65 68.5 l0 104 l-2 2 l0 84 l-6 0 q-35 -20 -69 -41 q-34 -21 -76 -23 q-14 6 -20 20 l0 18 q6 14 20 20 q40 10 75 33 q35 23 72 41 l2 22 q-2 46 -9.5 91 q-7.5 45 -7.5 94 l13 22 q10 8 26 6 q14 -6 20 -20 q0 -48 7 -93.5 q7 -45.5 7 -93.5 l4 0 q38 20 82 24 q14 -6 20 -20 l0 -16 l-18 -20 q-44 -12 -84 -32 l-2 -6 l2 -2 l0 -108 l2 -48 l4 0 q100 88 217 158 q117 70 256 66 q38 -8 66 -38 q26 -30 31 -68 q5 -38 3 -78 q-18 -86 -60 -183.5 q-42 -97.5 -90 -173.5 q-11 -8 -27 -6 q-14 6 -20 20 l0 20 q49 84 93 185.5 q44 101.5 46 199.5 q-4 30 -26 52 q-36 18 -81 12 q-118 -26 -220 -93 q-102 -67 -188 -151 l-2 -24 q2 -53 10 -124 q8 -71 10 -121 q-6 -14 -20 -20 l-16 0 Z" /><glyph glyph-name="" unicode="&#x3092;" d="M523 -66 q-42 2 -82 12 q-40 10 -70 42 q-28 32 -22 80 q20 68 66 124.5 q46 56.5 96 110.5 q-10 14 -24 20 q-32 10 -70 6 l-46 -6 q-36 2 -60 30 q-26 34 -20 82 q2 34 12 65 q10 31 18 63 l-18 0 l-61 -8 l-22 12 q-8 10 -6 26 q6 14 20 20 q31 2 60 6 q29 4 59 8 q26 51 54 100 q28 49 64 95 q10 8 26 6 q14 -6 20 -20 l0 -18 q-28 -38 -50 -77 q-22 -39 -44 -80 l18 0 q60 2 119 8 q59 6 119 10 q14 -6 20 -20 l0 -16 q-6 -14 -20 -20 q-72 -10 -145 -14 q-73 -4 -145 -10 q-16 -40 -29 -80 q-13 -40 -11 -86 l8 -16 q14 -10 34 -8 q40 8 84 6 q42 -6 74 -38 l6 -8 l6 0 q54 42 111 78 q57 36 128 42 q14 -6 20 -20 l0 -16 q-6 -14 -20 -20 q-61 -14 -114 -46 q-53 -32 -101 -72 l-2 -14 q6 -32 6 -67 q0 -35 2 -70 q-6 -14 -20 -20 l-16 0 q-14 6 -20 20 l-6 93 l-4 0 q-42 -42 -75 -87.5 q-33 -45.5 -43 -101.5 q10 -22 32 -32 q26 -12 57 -14 q31 -2 63 -2 q48 4 92 15 q44 11 90 17 q14 -6 20 -20 l0 -16 l-18 -20 q-54 -14 -108 -24 q-54 -10 -112 -10 Z" /><glyph glyph-name="" unicode="&#x3093;" d="M589 -42 q-28 4 -52 16 q-24 12 -44 36 q-36 52 -36 116.5 q0 64.5 -14 122.5 l-16 0 q-36 -10 -67 -32 q-31 -22 -59 -50 q-40 -44 -68.5 -94.5 q-28.5 -50.5 -46.5 -104.5 q-10 -8 -26 -6 q-16 8 -22 24 l-2 22 q42 185 117.5 361 q75.5 176 169.5 341 q10 8 26 6 q14 -6 20 -20 l0 -18 q-70 -113 -118 -235 q-48 -122 -98 -242 l2 0 q26 30 57 53 q31 23 65 41 q34 12 74 12 q22 -4 38 -24 q28 -58 24 -128.5 q-4 -70.5 40 -122.5 q26 -18 60 -16 q94 14 178.5 64.5 q84.5 50.5 162.5 100.5 q14 -6 20 -20 l0 -16 q-48 -53 -108 -88 q-60 -35 -121 -67 q-36 -14 -75 -23 q-39 -9 -81 -9 Z" /><glyph glyph-name="" unicode="&#x30a2;" d="M492 -36 q-6 2 -12 8 q-6 6 -8 12 l0 36 l2 2 l0 32 l2 2 l22 337 l0 86 l-2 2 l0 20 l12 22 q6 4 12 5 q6 1 14 1 q8 -4 13 -9 q5 -5 9 -13 l0 -16 l-2 -10 l2 -2 l0 -86 l-22 -337 l-2 -2 l0 -32 l-2 -2 l0 -26 l-12 -24 q-6 -4 -12 -5 q-6 -1 -14 -1 ZM620 325 q-6 2 -12 8 q-6 6 -8 12 l0 18 q22 34 49 66 q27 32 55 63 q28 31 52.5 65 q24.5 34 38.5 72 l0 33 q-4 8 -10 15 q-6 7 -13.5 11 q-7.5 4 -15.5 8 q-12 4 -24 8 q-12 4 -25 6 q-13 2 -25 4 l-114 0 q-48 -6 -95 -16 q-47 -10 -93 -23 q-46 -13 -90.5 -31.5 q-44.5 -18.5 -90.5 -34.5 l-22 12 q-6 6 -6 13.5 q0 7.5 0 15.5 q4 10 12 15 q8 5 16 9 q46 16 90.5 33 q44.5 17 90.5 29 q46 12 93 21 q47 9 95 15 l114 0 q22 -2 43 -7 q21 -5 41.5 -11 q20.5 -6 37.5 -18 q17 -12 33 -30 q6 -8 10 -17 q4 -9 6 -19 l0 -53 q-14 -42 -38 -79 q-24 -37 -54.5 -70 q-30.5 -33 -60.5 -67 q-30 -34 -54 -70 q-6 -4 -12 -5 q-6 -1 -14 -1 Z" /><glyph glyph-name="" unicode="&#x30a4;" d="M569 -58 q-6 2 -12 8 q-6 6 -8 12 l-2 8 l0 66 l-2 2 l0 223 l2 2 l0 164 l-2 2 l0 32 l-8 24 l-8 0 q-46 -34 -88 -71 q-42 -37 -86 -73 q-44 -36 -83.5 -79 q-39.5 -43 -87.5 -67 q-6 2 -12 8 q-6 6 -8 12 l0 16 q72 82 153.5 154 q81.5 72 167.5 138 q86 66 170 134.5 q84 68.5 169 136.5 l16 0 q6 -2 12 -8 q6 -6 8 -12 l0 -18 q-34 -30 -69.5 -60 q-35.5 -30 -70.5 -60.5 q-35 -30.5 -72 -58.5 q-37 -28 -69 -58 l20 -22 l0 -22 l4 -14 l0 -32 l2 -2 l0 -164 l-2 -2 l0 -223 l2 -2 l0 -74 q-2 -6 -8 -12 q-6 -6 -12 -8 l-16 0 Z" /><glyph glyph-name="" unicode="&#x30a6;" d="M654 -64 q-6 2 -12 8 q-6 6 -8 12 l0 20 q14 62 39 121.5 q25 59.5 49.5 118.5 q24.5 59 44.5 121 q20 62 30 124 l0 42 q-2 10 -5 19 q-3 9 -7 17 q-4 8 -12 16 q-8 6 -17 9 q-9 3 -18.5 6 q-9.5 3 -19.5 7 l-94 0 q-48 -6 -94 -17 q-46 -11 -91 -26 q-45 -15 -90 -32 q-45 -17 -91 -27 l-14 4 l0 -16 l2 -2 l0 -26 l6 -30 l0 -26 l16 -88 q-2 -6 -8 -12 q-6 -6 -12 -8 l-16 0 q-7 2 -13 8 q-6 6 -8 12 l-18 88 l0 26 l-6 30 l0 26 l-18 104 l12 22 q6 4 12 5 q6 1 14 1 q6 -2 12 -8 q6 -6 8 -12 l9 -54 l6 0 q44 26 92 41 q48 15 95 32.5 q47 17.5 96 27.5 q49 10 99 16 l94 0 q14 -4 27.5 -6 q13.5 -2 26.5 -7 q13 -5 25 -13.5 q12 -8.5 22 -18.5 q12 -12 19 -26 q7 -14 10 -29 q3 -15 7 -31 l0 -44 q-10 -68 -30 -133 q-20 -65 -46 -129 q-26 -64 -52.5 -128.5 q-26.5 -64.5 -46.5 -128.5 q-6 -4 -12 -5 q-6 -1 -14 -1 ZM552 678 q-16 10 -31 20 q-15 10 -33 16 q-18 6 -34 14 q-16 8 -30 20 q-6 6 -9 14 q-3 8 -1 18 q2 6 8 12 q6 6 12 8 l18 0 q14 -12 31 -20 q17 -8 35 -15 q18 -7 34 -17 q16 -10 30 -24 q4 -6 5 -12 q1 -6 1 -14 q-2 -6 -8 -12 q-6 -6 -12 -8 l-16 0 Z" /><glyph glyph-name="" unicode="&#x30a7;" d="M233 -44 l-22 12 q-4 6 -5 12 q-1 6 -1 14 q2 6 8 12 q6 6 12 8 q17 0 33 5 q16 5 32 8 q16 3 32 6 q16 3 32 5 l22 0 l2 2 l66 0 q8 19 14 39 q6 20 11 39 q5 19 10 39 q5 20 9 40 l0 20 q2 8 5 16 q3 8 9 14 q6 4 12 5 q6 1 14 1 q6 -2 12 -8 q6 -6 8 -12 l0 -20 q-2 -22 -7 -43 q-5 -21 -10 -42 q-5 -21 -10 -42 q-5 -21 -11 -42 l4 -4 l54 0 l2 -2 l88 0 l2 -2 l48 0 q12 -4 27 -5 q15 -1 28.5 -4 q13.5 -3 26.5 -8 q13 -5 23 -15 q4 -6 5 -12 q1 -6 1 -14 q-2 -6 -8 -12 q-6 -6 -12 -8 l-20 0 q-10 6 -22.5 10 q-12.5 4 -24.5 5 q-12 1 -24 5 l-48 0 l-2 2 l-88 0 l-2 2 l-190 0 l-2 -2 l-22 0 q-16 -2 -31 -5 q-15 -3 -30 -6 q-15 -3 -29 -7 q-14 -4 -31 -6 ZM332 255 q-10 2 -19 4 q-9 2 -15 10 q-6 6 -6 13 q0 7 0 15 q2 6 8 12 q6 6 12 8 l18 0 l12 -4 q34 4 68 10 q34 6 69 10 q35 4 70 7 q35 3 69 9 l84 0 l24 -12 q4 -6 5 -12 q1 -6 1 -14 q-2 -6 -8 -12 q-6 -6 -12 -8 l-94 0 q-36 -4 -72 -8 q-36 -4 -72 -8 q-36 -4 -71 -10 q-35 -6 -71 -10 Z" /><glyph glyph-name="" unicode="&#x30a9;" d="M590 -62 q-6 2 -12 8 q-6 6 -8 12 l0 22 l4 18 l0 28 l2 2 l0 147 l-2 2 l0 70 l-8 4 l-202 -197 l-16 0 q-6 2 -12 8 q-6 6 -8 12 l0 16 q20 29 45 53 q25 24 50 49 q25 25 50 50 q25 25 51 49 l4 0 l0 4 l-4 4 l-26 0 l-2 -2 l-30 0 l-2 -2 l-30 0 l-2 -2 l-28 0 l-30 -6 l-22 0 l-56 -6 q-8 2 -16.5 5 q-8.5 3 -14.5 9 q-4 6 -5 12 q-1 6 -1 14 q2 6 8 12 q6 6 13 8 l20 0 l14 -2 l38 6 l22 0 l30 6 l28 0 l2 2 l30 0 l2 2 l30 0 l2 2 l32 0 l2 2 l36 0 l6 6 l0 88 l-2 2 l0 46 l12 22 q6 4 12 5 q6 1 14 1 q6 -2 12 -8 q6 -6 8 -12 l0 -54 l2 -2 l0 -88 l6 -6 l108 0 q6 -2 12 -8 q6 -6 8 -12 l0 -16 q-2 -6 -8 -12 q-6 -6 -12 -8 l-10 -2 l-98 0 l-6 -6 l0 -118 l2 -2 l0 -147 l-2 -2 l0 -28 q-2 -10 -3 -19 q-1 -9 -3 -19 q-2 -10 -10 -16 q-6 -4 -12 -5 q-6 -1 -14 -1 Z" /><glyph glyph-name="" unicode="&#x30aa;" d="M667 -56 q-6 2 -12 8 q-6 6 -8 12 l-2 8 l0 189 l-2 2 l-8 238 l-2 2 l0 28 l-8 2 q-38 -46 -80 -89 q-42 -43 -83 -86 q-41 -43 -82 -87 q-41 -44 -83 -87 l-16 0 q-6 2 -12.5 8 q-6.5 6 -8.5 12 l0 17 q39 50 82 95 q43 45 87 90 q44 45 87 90 q43 45 79 95 l-18 2 l-2 -2 l-146 -10 l-235 -38 l-28 0 l-22 12 q-4 6 -5 12 q-1 6 -1 14 q2 6 8 12 q6 6 12 8 l36 0 q28 6 58.5 10 q30.5 4 58.5 10 q28 6 58 9 q30 3 60 9 l146 10 l22 4 l34 0 l8 14 l8 99 l0 98 l12 22 q6 6 13 6 q7 0 15 0 q6 -2 12 -8 q6 -6 8 -12 l0 -16 l-2 -2 l0 -88 l-8 -99 l-2 -6 l14 -6 l2 2 l58 0 l2 2 l95 0 q6 -2 12 -8 q6 -6 8 -12 l0 -16 q-2 -6 -8 -12 q-6 -6 -12 -8 l-10 -2 l-85 0 l-2 -2 l-58 0 l-16 -6 l-2 -2 l0 -38 l-2 -2 l0 -48 l2 -2 l8 -238 l2 -2 l0 -197 q-2 -6 -8 -12 q-6 -6 -12 -8 l-16 0 Z" /><glyph glyph-name="" unicode="&#x30ab;" d="M718 -47 q-6 2 -12 8 q-6 6 -8 12 l0 20 q14 36 24 73.5 q10 37.5 21.5 71.5 q11.5 34 19.5 71 q8 37 16 75 l0 76 q-2 18 -6 33 q-4 15 -11 30 q-7 15 -19.5 28 q-12.5 13 -24.5 25 q-20 14 -42 25 q-22 11 -44 19 q-22 8 -46 14 q-24 6 -48 10 l-40 0 l-6 -2 q-26 -66 -48 -134 q-22 -68 -47 -134 q-25 -66 -48 -133.5 q-23 -67.5 -43 -133.5 q-6 -4 -12 -5 q-6 -1 -14 -1 q-6 2 -12 8 q-6 6 -8 12 l0 20 q14 65 36 127 q22 62 45 124 q23 62 43 124 q20 62 44 124 l-4 4 l-72 -4 l-137 -22 l-22 12 q-4 6 -5 12 q-1 6 -1 14 q2 6 8 12 q6 6 12 8 q20 0 37.5 4 q17.5 4 35.5 7.5 q18 3.5 36 5.5 q18 2 36 6 l98 4 q12 20 21 43 q9 23 18 45 q9 22 16 44 q7 22 23 42 q6 4 12 5 q6 1 14 1 q6 -2 12 -8 q6 -6 8 -12 l0 -18 l-54 -138 q38 -6 75 -14.5 q37 -8.5 73 -22.5 q36 -14 69.5 -37 q33.5 -23 59.5 -53 q8 -14 16 -28 q8 -14 13 -29 q5 -15 7 -31 q2 -16 4 -32 l0 -76 q-8 -42 -16 -84 q-8 -42 -21 -82 q-13 -40 -24 -80.5 q-11 -40.5 -31 -78.5 q-7 -4 -13 -5 q-6 -1 -14 -1 Z" /><glyph glyph-name="" unicode="&#x30ae;" d="M592 -79 q-6 2 -12 8 q-6 6 -8 12 l-2 8 l0 50 q-6 38 -15 76 q-9 38 -18 75.5 q-9 37.5 -17 76.5 q-8 39 -20 75 l-10 2 l-305 -44 q-6 2 -12 8 q-6 6 -8 12 l0 16 l20 22 q38 4 76.5 10 q38.5 6 76.5 11 q38 5 76 11 q38 6 74 14 l2 12 q-4 22 -7 43 q-3 21 -6 43 q-3 22 -6 44 q-3 22 -7 44 l-2 2 l-22 0 q-24 -4 -48 -8 q-24 -4 -47 -10 q-23 -6 -47.5 -10 q-24.5 -4 -48.5 -10 l-22 0 l-22 12 q-4 6 -5 12 q-1 6 -1 14 q2 6 8 12 q6 6 12 8 l30 0 q26 4 51.5 11 q25.5 7 51.5 12 q26 5 52 9 q26 4 52 10 l2 10 l-12 77 l0 20 l-10 44 l0 20 l14 24 q6 4 12 5 q6 1 14 1 q6 -2 12 -8 q6 -6 8 -12 l0 -16 l-2 -14 l10 -42 l0 -22 l12 -81 l10 -2 l2 2 l30 0 l2 2 l148 11 l10 4 l20 0 q6 -2 12 -8.5 q6 -6.5 8 -12.5 l0 -16 l-18 -20 l-32 -6 l-148 -10 l-2 -2 l-28 0 q-10 -8 -6 -20 l24 -170 l10 -2 l194 30 l22 0 l2 2 l53 0 q6 -2 12 -8 q6 -6 8 -12 l0 -16 q-2 -6 -8 -12 q-6 -6 -12 -8 l-10 -2 l-43 0 l-2 -2 l-22 0 l-188 -30 l-2 -12 q8 -38 17 -75 q9 -37 18 -74.5 q9 -37.5 17 -75.5 q8 -38 14 -76 l0 -58 q-2 -6 -8 -12 q-6 -6 -12 -8 l-16 0 ZM919 594 q-6 2 -12 8 q-6 6 -8 12 q-4 14 -8 27.5 q-4 13.5 -7 27.5 q-3 14 -5 28 l0 64 l12 22 q6 4 12 5 q6 1 14 1 q6 -2 12 -8 q6 -6 8 -12 l0 -72 q4 -14 7 -27 q3 -13 7 -26.5 q4 -13.5 4 -29.5 q-2 -6 -8 -12 q-6 -6 -12 -8 l-16 0 ZM809 598 l-23 20 q-6 15 -9 30 q-3 15 -5 30 q-2 15 -4 31 q-2 16 -6 30 l0 22 q2 6 8 12 q6 6 12 8 l16 0 q9 -4 14 -9 q5 -5 9 -13 l0 -20 q4 -14 6 -30 q2 -16 4 -31 q2 -15 9 -29 q7 -14 5 -31 q-2 -6 -8 -12 q-6 -6 -12 -8 l-16 0 Z" /><glyph glyph-name="" unicode="&#x30af;" d="M549 -71 q-6 2 -12 8 q-6 6 -8 12 l0 20 q30 64 65 122.5 q35 58.5 67 118.5 q32 60 61 123 q29 63 47 129 l0 48 q-4 10 -9 20 q-5 10 -15 18 q-16 10 -32 20 q-16 10 -34 15 q-18 5 -37 8 q-19 3 -39 5 l-32 0 l-2 2 l-100 0 l-2 2 l-20 0 l-22 12 l-10 8 q-24 -26 -46 -53 q-22 -27 -45 -54 q-23 -27 -43.5 -56 q-20.5 -29 -48.5 -51 l-16 0 q-6 2 -12 8 q-6 6 -8 12 l0 16 q36 48 73.5 95 q37.5 47 76.5 91.5 q39 44.5 78 90.5 q39 46 81 88 l22 0 q6 -2 12 -8 q6 -6 8 -12 l0 -16 q-10 -14 -24 -26 q-14 -12 -24 -26 q-10 -14 -21 -28 q-11 -14 -21 -28 l12 -6 l100 0 l2 -2 l32 0 q26 -4 53 -8 q27 -4 52 -11.5 q25 -7.5 47 -23.5 q22 -16 43 -34 q8 -10 15 -21 q7 -11 10 -23 q3 -12 5 -24 l0 -48 q-12 -72 -43.5 -139 q-31.5 -67 -65.5 -132.5 q-34 -65.5 -73 -127.5 q-39 -62 -71 -128 q-6 -4 -12 -5 q-6 -1 -14 -1 Z" /><glyph glyph-name="" unicode="&#x30b0;" d="M510 -45 q-6 2 -12 8 q-6 6 -8 12 l0 18 q34 56 58 118.5 q24 62.5 57 120.5 q33 58 64 117 q31 59 47 123 l0 38 q-4 8 -8 17 q-4 9 -11 17 q-7 8 -15 16 q-16 12 -34 20 q-18 8 -36 15 q-18 7 -37 12 q-19 5 -39 7 l-42 0 l-2 2 l-24 0 q-12 0 -24 5 q-12 5 -22 11 q-26 -24 -48 -49 q-22 -25 -46 -49 q-24 -24 -46.5 -49 q-22.5 -25 -44.5 -47 l-16 0 q-6 2 -12 8 q-6 6 -8 12 l0 16 q26 44 64.5 81 q38.5 37 74.5 75.5 q36 38.5 74 76.5 q38 38 72 74 l22 0 q6 -2 12 -8 q6 -6 8 -12 l0 -16 q-6 -12 -18 -20 q-12 -8 -19 -20 q-7 -12 -19 -22 l0 -8 l20 0 l2 -2 l42 0 q28 -4 55 -10 q27 -6 53 -16.5 q26 -10.5 49 -24.5 q23 -14 45 -36 q8 -10 16 -21 q8 -11 12 -23 q4 -12 8 -24 l0 -46 q-10 -70 -43 -133 q-33 -63 -68 -124 q-35 -61 -61 -128.5 q-26 -67.5 -66 -125.5 q-6 -4 -12 -5 q-6 -1 -14 -1 ZM819 562 q-8 4 -13 9 q-5 5 -9 13 q-5 16 -9 31 q-4 15 -7 30.5 q-3 15.5 -5 31.5 l0 24 q2 6 8 12 q6 6 13 8 l16 0 q6 -2 12 -8 q6 -6 8 -12 l4 -22 l0 -20 q6 -12 8 -25.5 q2 -13.5 7 -25.5 q5 -12 3 -26 q-2 -6 -8 -12 q-6 -6 -12 -8 l-16 0 ZM915 564 q-6 2 -12 8 q-6 6 -8 12 l-10 56 l0 23 l-16 54 l12 22 q6 4 12 5 q6 1 14 1 q10 -4 15 -12 q5 -8 9 -16 l12 -54 l0 -23 l8 -56 q-2 -6 -8 -12 q-6 -6 -12 -8 l-16 0 Z" /><glyph glyph-name="" unicode="&#x30b1;" d="M522 -72 q-6 2 -12 8 q-6 6 -8 12 l0 20 q26 68 37 138.5 q11 70.5 25 140.5 q14 70 30 140 q16 70 24 140 l-294 -16 l-22 12 l-2 6 l-10 0 q-12 -30 -27.5 -58 q-15.5 -28 -29.5 -57 q-14 -29 -24 -59 q-10 -30 -24 -58 q-6 -4 -12 -5 q-6 -1 -14 -1 q-6 2 -12 8 q-6 6 -8 12 l0 20 q18 62 47 120 q29 58 58.5 117 q29.5 59 55.5 118.5 q26 59.5 60 115.5 q6 4 12 5 q6 1 14 1 q6 -2 12 -8 q6 -6 8 -12 l0 -20 q-12 -24 -25 -48 q-13 -24 -24 -50 q-11 -26 -22 -50.5 q-11 -24.5 -21 -50.5 l352 16 l2 2 l153 0 l2 -2 l32 0 l24 -12 q4 -6 5 -12 q1 -6 1 -14 q-2 -6 -8 -12 q-6 -6 -12 -8 l-42 0 l-2 2 l-149 0 l0 -38 q-10 -70 -27 -140 q-17 -70 -29 -140 q-12 -70 -25 -141.5 q-13 -71.5 -43 -135.5 q-6 -4 -12 -5 q-6 -1 -14 -1 Z" /><glyph glyph-name="" unicode="&#x30b3;" d="M767 44 l-2 2 l-37 0 l-2 2 l-22 0 l-2 2 l-24 0 l-2 2 l-174 8 l-2 2 l-176 0 l-2 -2 l-26 0 l-2 -2 l-20 0 l-2 -2 l-41 0 l-18 -2 q-6 2 -12 8.5 q-6 6.5 -8 12.5 l0 18 q4 8 9 13 q5 5 13 9 l57 0 l2 2 l20 0 l2 2 l26 0 l2 2 l176 0 l2 -2 l174 -8 l2 -2 l24 0 l2 -2 l22 0 l16 -2 l6 2 l3 6 l0 26 l8 94 l2 2 l12 230 q-2 16 -5 31 q-3 15 -9.5 29 q-6.5 14 -14.5 27 q-8 13 -20 23 q-16 12 -33 21 q-17 9 -36 16 q-19 7 -38 11 q-19 4 -39 6 l-20 0 l-2 3 l-22 0 l-2 2 l-130 0 l-2 -2 l-34 0 l-2 -3 l-28 0 l-2 -2 l-70 0 l-23 13 q-4 6 -5 12 q-1 6 -1 14 q2 6 8.5 12 q6.5 6 12.5 8 l78 0 l2 2 l28 0 l2 2 l34 0 l2 2 l130 0 l2 -2 l22 0 l2 -2 l20 0 q28 -4 55 -9 q27 -5 53 -14 q26 -9 49 -24.5 q23 -15.5 44 -37.5 q12 -14 22 -30 q10 -16 16 -34 q6 -18 9 -37 q3 -19 5 -37 l-12 -230 l-2 -2 l-8 -94 l0 -26 l-4 -30 l2 -19 q-2 -6 -8 -12 q-6 -6 -12 -8 l-20 0 Z" /><glyph glyph-name="" unicode="&#x30b4;" d="M698 35 l-20 4 l-134 10 l-2 2 l-32 0 l-2 2 l-188 0 l-2 -2 l-95 -6 l-22 12 q-4 6 -5 12 q-1 6 -1 14 q2 6 8 12 q6 6 12 9 l103 6 l2 2 l188 0 l2 -2 l32 0 l2 -2 l134 -11 l16 -2 q10 29 14 60 q4 31 10 61 q6 30 11 60 q5 30 9 60 l0 86 q-2 20 -10 37 q-8 17 -16 33 q-8 16 -21 31 q-13 15 -29 29 q-16 14 -34 22 q-18 8 -38 14 q-20 6 -40 11 q-20 5 -40 7 l-20 0 l-2 2 l-84 0 l-92 -4 l-2 -2 l-38 0 l-23 12 q-4 7 -5 13 q-1 6 -1 14 q2 6 8 12 q6 6 12 8 l47 0 l2 2 l92 4 l84 0 l2 -2 l20 0 q32 -4 62 -10 q30 -6 59 -18 q29 -12 54 -31.5 q25 -19.5 49 -43.5 q14 -16 23 -32 q9 -16 18.5 -33 q9.5 -17 14.5 -36 q5 -19 7 -39 l0 -86 q-4 -30 -9 -60 q-5 -30 -11.5 -59 q-6.5 -29 -10.5 -59 q-4 -30 -10 -61 l0 -20 l-12 -24 l-24 -18 l-22 0 ZM797 592 q-8 4 -14.5 10 q-6.5 6 -10.5 15 q-2 16 -6 31 q-4 15 -7 31 q-3 16 -13 28 l0 20 q2 6 8 12 q6 6 12 8 l17 0 q12 -4 18 -15 q6 -11 12 -21 q0 -12 4 -24 q4 -12 6 -25 q2 -13 7 -24 q5 -11 3 -26 q-2 -6 -8 -12 q-6 -6 -12 -8 l-16 0 ZM887 602 q-8 4 -13 9.5 q-5 5.5 -9 13.5 l-12 64 l0 22 l-2 2 l0 24 l12 22 q6 4 12 5 q6 1 14 1 q6 -2 12 -8 q6 -6 8 -12 l0 -32 l2 -2 l0 -22 q2 -10 4 -21 q2 -11 6 -22 q4 -11 2 -23 q-2 -6 -8 -12.5 q-6 -6.5 -12 -8.5 l-16 0 Z" /><glyph glyph-name="" unicode="&#x30b5;" d="M596 -49 q-6 2 -12 8 q-6 6 -8 12 l0 36 l2 2 l0 28 q10 56 18 111.5 q8 55.5 16 110.5 q8 55 15 111 q7 56 15 112 l-4 4 l-220 -4 l-2 -2 l-34 0 q-10 -8 -6 -20 l14 -194 l-12 -24 q-6 -4 -12 -5 q-6 -1 -14 -1 q-6 2 -12 8 q-6 6 -8 12 l-18 218 l-8 2 l-32 -6 l-73 -6 l-26 0 q-10 -2 -19 -6 q-9 -4 -19 -2 q-6 2 -12 8 q-6 6 -8 12 l0 16 q4 8 10 14 q6 6 14 10 l34 6 l26 0 l73 6 l36 6 l2 14 l-2 2 l-8 149 l12 22 q6 4 12 5 q6 1 14 1 q6 -2 12 -8 q6 -6 8 -12 l8 -157 l4 -10 l2 -2 l42 0 l2 2 l228 4 q8 16 9 34 q1 18 5 35.5 q4 17.5 6 35.5 q2 18 8 34 l0 20 q4 14 6 27 q2 13 5 26 q3 13 15 23 q6 4 12 5 q6 1 14 1 q6 -2 12.5 -8 q6.5 -6 8.5 -12 l0 -18 q-11 -22 -14 -47 q-3 -25 -8 -49 q-5 -24 -9 -49.5 q-4 -25.5 -6 -51.5 l6 -6 l35 0 l2 -2 l124 -4 l24 -12 q4 -6 5 -12 q1 -6 1 -14 q-2 -6 -8 -12 q-6 -6 -12 -8 l-134 4 l-2 2 l-45 0 q-14 -54 -21 -111 q-7 -57 -15 -113 q-8 -56 -16 -112.5 q-8 -56.5 -18 -112.5 l0 -28 l-2 -2 l0 -26 l-12 -24 q-6 -4 -12 -5 q-6 -1 -14 -1 Z" /><glyph glyph-name="" unicode="&#x30b6;" d="M550 -62 q-6 2 -12 8 q-6 6 -8 12 l0 22 l4 18 l0 28 q8 56 15 112.5 q7 56.5 15 112.5 q8 56 17 111 q9 55 17 111 l-4 4 l-232 -8 l-6 -10 l2 -2 l2 -104 l2 -2 l0 -78 q-2 -10 -4 -21 q-2 -11 -4 -22 q-2 -11 -12 -19 q-6 -4 -12 -5 q-6 -1 -14 -1 q-6 2 -12 8 q-6 6 -8 12 l0 20 l8 28 l0 78 l-2 2 l-2 104 l-2 6 l-115 -4 l-2 -2 l-62 0 l-22 12 q-4 6 -5 12 q-1 6 -1 14 q2 6 8 12 q6 6 12 8 l70 0 l2 2 l109 10 l2 8 l-2 2 l2 81 l-2 2 l0 80 q2 6 8 12 q6 6 12 8 l16 0 q6 -2 12 -8 q6 -6 8 -12 l2 -6 l0 -74 l2 -2 l-2 -81 l4 -8 l2 -2 l248 8 q8 12 9 27 q1 15 4 29 q3 14 5 29.5 q2 15.5 6 29.5 l6 88 l2 2 l0 24 q2 8 4 15 q2 7 10 13 q6 4 12 5 q6 1 14 1 q6 -2 12 -8 q6 -6 8 -12 l0 -18 l-4 -22 l-6 -88 l-18 -107 l6 -6 l28 0 l2 2 l155 0 q10 -2 20 -4 q10 -2 18 -10 q4 -6 5 -12 q1 -6 1 -14 q-2 -6 -8 -12 q-6 -6 -12 -8 l-22 0 l-2 2 l-195 -2 l-6 -2 q-8 -56 -18 -112 q-10 -56 -18 -112 q-8 -56 -15 -113.5 q-7 -57.5 -15 -113.5 l0 -28 q-2 -10 -3 -19 q-1 -9 -3 -19 q-2 -10 -10 -16 q-6 -4 -12 -5 q-6 -1 -14 -1 ZM791 601 l-20 19 l-6 28 l-6 100 l12 22 q6 4 12 5 q6 1 14 1 q6 -2 12 -8 q6 -6 8 -12 l6 -106 l4 -28 q-2 -6 -8 -12.5 q-6 -6.5 -12 -8.5 l-16 0 ZM897 609 q-6 2 -12 8.5 q-6 6.5 -8 12.5 l-14 102 l-2 20 l12 22 q6 4 12 5 q6 1 14 1 q6 -2 12 -8 q6 -6 8 -12 l0 -26 l2 -2 l12 -102 q-2 -6 -8 -12.5 q-6 -6.5 -12 -8.5 l-16 0 Z" /><glyph glyph-name="" unicode="&#x30b7;" d="M267 15 l-22 12 q-5 6 -6 12 q-1 6 -1 14 q2 8 9.5 13 q7.5 5 15.5 9 q70 22 137 53.5 q67 31.5 136 57.5 q69 26 138 54 q69 28 136 60 l20 0 q6 -2 12 -8 q6 -6 8 -12 l0 -16 q-4 -10 -13 -16 q-9 -6 -17 -10 q-67 -32 -137 -58 q-70 -26 -139 -54.5 q-69 -28.5 -137 -60.5 q-68 -32 -140 -50 ZM419 390 q-16 4 -33 5 q-17 1 -33 4 q-16 3 -33 5 q-17 2 -33 4 l-34 0 l-19 4 l-32 0 l-22 12 q-4 6 -5 12 q-1 6 -1 14 q2 6 8 12 q6 6 12 8 l40 0 l19 -4 l34 0 q20 -2 42 -5 q22 -3 42 -6 q20 -3 42 -5 q22 -2 38 -14 q4 -6 5 -12 q1 -6 1 -14 q-2 -6 -8 -12 q-6 -6 -12 -8 l-18 0 ZM431 620 q-24 9 -50 14 q-26 5 -52 10 q-26 5 -51 12 q-25 7 -50 17 q-6 6 -6 13 q0 7 0 15 q2 6 8 12 q6 6 13 8 l24 0 q24 -8 49 -14 q25 -6 51 -11 q26 -5 51 -10 q25 -5 47 -19 q4 -6 5 -12 q1 -6 1 -14 q-2 -6 -8 -12.5 q-6 -6.5 -12 -8.5 l-20 0 Z" /><glyph glyph-name="" unicode="&#x30b8;" d="M228 -9 q-6 2 -12 8 q-6 6 -8 12 l0 18 q2 6 8 12 q6 6 12 8 q67 20 133 43 q66 23 133 46.5 q67 23.5 132 46.5 q65 23 134 41 l20 0 q6 -2 12 -8 q6 -6 8 -12 l0 -16 l-18 -20 q-69 -18 -135 -41.5 q-66 -23.5 -132 -46.5 q-66 -23 -132 -45 q-66 -22 -132 -46 l-23 0 ZM373 362 q-24 6 -49 9 q-25 3 -50 7 q-25 4 -50.5 8 q-25.5 4 -45.5 18 q-4 6 -5 12 q-1 6 -1 14 q2 6 8 12 q6 6 12 8 l22 0 q22 -8 47.5 -12 q25.5 -4 50.5 -8 q25 -4 50 -6 q25 -2 45 -16 q4 -6 5 -12 q1 -6 1 -14 q-2 -6 -8 -12 q-6 -6 -12 -8 l-20 0 ZM695 564 q-6 2 -12 8 q-6 6 -8 12 l-8 40 l-4 53 l-4 24 l12 22 q6 4 12 5 q6 1 14 1 q8 -4 13 -9 q5 -5 9 -13 l0 -28 l6 -55 l6 -40 q-2 -6 -8 -12 q-6 -6 -12 -8 l-16 0 ZM816 564 q-6 2 -12 8 q-6 6 -8 12 l-20 133 l12 22 q6 4 12 5 q6 1 14 1 q8 -4 13 -9 q5 -5 9 -13 l0 -32 l16 -81 l0 -26 q-2 -6 -8 -12 q-6 -6 -12 -8 l-16 0 ZM423 594 q-20 14 -44 20 q-24 6 -48 13.5 q-24 7.5 -48 12.5 q-24 5 -47 17 q-4 6 -5 12 q-1 6 -1 14 q2 6 8.5 12 q6.5 6 12.5 8 l22 0 q24 -6 47 -12 q23 -6 47 -13 q24 -7 47 -14 q23 -7 43 -23 q4 -6 5 -12.5 q1 -6.5 1 -14.5 q-2 -6 -8 -12 q-6 -6 -12 -8 l-20 0 Z" /><glyph glyph-name="" unicode="&#x30b9;" d="M230 -13 q-6 2 -12 8 q-6 6 -8 12 l0 16 q59 72 122 140.5 q63 68.5 126 137.5 q63 69 122 141 q59 72 93 160 l0 31 q-4 8 -7 17 q-3 9 -11 15 q-8 6 -18 11 q-10 5 -20 9 q-10 4 -20 6 l-94 0 q-34 -6 -67 -14 q-33 -8 -65 -19 q-32 -11 -64 -23.5 q-32 -12.5 -67 -22.5 l-20 0 q-6 2 -12 8 q-6 6 -8 13 l0 16 l20 22 q36 8 70.5 21 q34.5 13 69.5 24 q35 11 71 19 q36 8 72 14 l94 0 q16 -4 31 -7 q15 -3 29 -10 q14 -7 27 -16 q13 -9 25 -23 q8 -8 12 -18 q4 -10 6 -21 q2 -11 4 -21 l0 -37 q-10 -42 -32 -80 q-22 -38 -47 -73 q-25 -35 -54 -69 q-29 -34 -55 -68 q38 -30 75 -60 q37 -30 71 -64 q34 -34 69.5 -67.5 q35.5 -33.5 65.5 -71.5 l0 -16 q-2 -6 -8 -12 q-6 -6 -12 -8 l-16 0 q-35 32 -69 65 q-34 33 -68 66.5 q-34 33.5 -70 62.5 q-36 29 -74 57 l-8 0 q-34 -32 -64 -67 q-30 -35 -62 -68.5 q-32 -33.5 -62 -69.5 q-30 -36 -65 -66 l-16 0 Z" /><glyph glyph-name="" unicode="&#x30ba;" d="M782 -38 q-37 30 -71 65 q-34 35 -65 71.5 q-31 36.5 -64 71.5 q-33 35 -67 69 l-8 0 q-30 -30 -58 -60 q-28 -30 -57 -60.5 q-29 -30.5 -52 -62.5 q-23 -32 -49 -62 l-16 0 q-6 2 -12 8 q-6 6 -9 12 l0 20 q49 74 110 138.5 q61 64.5 122 128.5 q61 64 118 131 q57 67 89 151 l0 36 l-20 27 q-12 8 -26 14 q-14 6 -28 10 q-14 4 -28 8 l-78 0 q-36 -4 -73 -12 q-37 -8 -72 -18 q-35 -10 -70 -22.5 q-35 -12.5 -74 -16.5 q-6 2 -12 8 q-6 6 -8 13 l0 16 l20 22 q37 8 72 20 q35 12 71 21 q36 9 73 15 q37 6 73 12 l82 0 q18 -4 37 -9 q19 -5 37 -12 q18 -7 34 -19 q16 -12 30 -28 l18 -34 l0 -57 q-10 -44 -33 -82 q-23 -38 -50 -73 q-27 -35 -57 -69 q-30 -34 -58 -68 l2 -6 l34 -30 q28 -34 59 -66 q31 -32 59 -66.5 q28 -34.5 63.5 -64.5 q35.5 -30 47.5 -70 q-2 -6 -8 -12 q-6 -6 -12 -8 l-16 0 ZM824 585 q-8 4 -14 10 q-6 6 -10 14 l-14 67 l0 32 l-2 2 l0 32 l-2 6 l12 22 q6 4 12 5 q6 1 14 1 q6 -2 12 -8 q6 -6 8 -12 l2 -14 l0 -32 l2 -2 l0 -32 q4 -12 7 -23 q3 -11 7 -22.5 q4 -11.5 2 -25.5 q-2 -6 -8 -12 q-6 -6 -12 -8 l-16 0 ZM914 597 q-6 2 -12 8 q-6 6 -8 12 l-8 57 l0 32 l-2 2 l0 60 l12 22 q6 6 13 6 q7 0 15 0 q6 -2 12 -8 q6 -6 8 -12 l0 -16 l-2 -2 l0 -50 l2 -2 l0 -32 l6 -30 l0 -27 q-2 -6 -8 -12 q-6 -6 -12 -8 l-16 0 Z" /><glyph glyph-name="" unicode="&#x30bd;" d="M530 6 q-6 2 -12 8 q-6 6 -8 12 l0 20 q34 86 69 172.5 q35 86.5 70 170.5 q35 84 73.5 168 q38.5 84 80.5 167 q6 6 13 6 q7 0 15 0 q6 -2 12 -8 q6 -6 8 -12 l0 -16 q-38 -85 -77.5 -169 q-39.5 -84 -74.5 -170 q-35 -86 -70 -172.5 q-35 -86.5 -73 -170.5 q-6 -4 -12 -5 q-6 -1 -14 -1 ZM338 393 q-18 10 -26 28 q-8 18 -21 34 q-13 16 -22 33 q-9 17 -19 35 q-6 16 -14 31 q-8 15 -14.5 31 q-6.5 16 -13.5 31 q-7 15 -19 29 l-16 21 l0 16 q2 6 8 12 q6 6 12 8 l18 0 q15 -6 25 -19 q10 -13 17 -26.5 q7 -13.5 15 -27.5 q10 -28 24 -55 q14 -27 27 -54 q13 -27 33 -51 q20 -24 22 -56 q-2 -6 -8 -12 q-6 -6 -12 -8 l-16 0 Z" /><glyph glyph-name="" unicode="&#x30c1;" d="M468 -45 q-6 2 -12 8 q-6 6 -8 12 l0 18 q22 34 37 72.5 q15 38.5 28 76.5 q13 38 21 77 q8 39 14 79 l0 70 l-4 4 l-64 0 l-28 -2 l-243 -16 q-82 0 -89 3 q-7 3 -13 9 q-4 6 -5 12 q-1 6 -1 14 q2 6 8 12 q6 6 12 8 l20 0 l2 -2 l64 0 l2 2 l243 16 l26 0 l58 2 l6 12 q-6 22 -13 44 q-7 22 -13 43 q-6 21 -18 41 q-12 20 -16 43 q2 6 8 12 q6 6 12 8 l16 0 q10 -4 18 -12 q8 -8 13 -17.5 q5 -9.5 9 -17.5 q6 -18 13 -37 q7 -19 12 -37 q5 -18 10 -38 q5 -20 11 -38 l2 -2 l26 0 l2 2 l163 2 l90 2 q8 -2 16 -3 q8 -1 14 -9 q4 -6 5 -12 q1 -6 1 -14 q-2 -6 -8 -12 q-6 -6 -12 -8 l-104 0 l-165 -4 l-2 -2 l-22 0 l-4 -4 l0 -74 q-6 -44 -15 -87 q-9 -43 -22 -86.5 q-13 -43.5 -31 -85.5 q-18 -42 -44 -78 q-6 -4 -12 -5 q-6 -1 -14 -1 ZM262 615 q-6 2 -12 8 q-6 6 -8 12 l0 16 q4 8 9 13 q5 5 13 9 q48 18 97 33 q49 15 99 27 q50 12 99 24 q49 12 99 24 l20 0 q6 -2 12 -8 q6 -6 8 -12 l0 -16 q-4 -8 -9 -13 q-5 -5 -13 -9 q-52 -10 -104 -23 q-52 -13 -104 -26 q-52 -13 -103 -30 q-51 -17 -103 -29 Z" /><glyph glyph-name="" unicode="&#x30c3;" d="M557 -78 q-6 2 -12 8 q-6 6 -8 12 l0 20 q16 52 37 103.5 q21 51.5 42 102.5 q21 51 39 102 q18 51 42 101 q6 4 12 5 q6 1 14 1 q6 -2 12 -8 q6 -6 8 -12 l0 -20 q-20 -52 -38 -103 q-18 -51 -39 -102.5 q-21 -51.5 -42 -102.5 q-21 -51 -41 -101 q-6 -4 -12 -5 q-6 -1 -14 -1 ZM335 125 q-6 2 -12 8 q-6 6 -8 12 l-12 66 l0 20 q-2 14 -5 27 q-3 13 -4 26 q-1 13 -4 26 q-3 13 -9 25 l0 20 q2 6 8 12 q6 6 12 8 l16 0 q8 -4 13 -9 q5 -5 9 -13 q6 -20 9 -43 q3 -23 7 -45 q4 -22 7 -44 q3 -22 9 -42 l0 -34 q-2 -6 -8 -12 q-6 -6 -12 -8 l-16 0 ZM479 151 q-6 2 -12 8 q-6 6 -8 12 l-12 52 l0 20 l-2 2 l0 20 l-2 2 l0 20 q-4 14 -6 28 q-2 14 -8 26 q-6 12 -4 28 q2 6 8 12 q6 6 12 8 l16 0 q8 -4 14 -10 q6 -6 10 -14 q4 -12 7 -25 q3 -13 5 -26 q2 -13 4 -27 l0 -20 l2 -2 l0 -20 l12 -74 q-2 -6 -8 -12 q-6 -6 -12 -8 l-16 0 Z" /><glyph glyph-name="" unicode="&#x30c4;" d="M537 -3 q-6 2 -12 8 q-6 6 -8 12 l0 20 q38 68 73 139.5 q35 71.5 72 141.5 q37 70 95.5 175 q58.5 105 98.5 173 q6 4 12 5 q6 1 14 1 q6 -2 12 -8 q6 -6 8 -12 l0 -20 q-36 -70 -95 -175 q-59 -105 -96.5 -175 q-37.5 -70 -72.5 -140.5 q-35 -70.5 -75 -138.5 q-6 -4 -12 -5 q-6 -1 -14 -1 ZM473 388 q-6 2 -12 8 q-6 6 -8 12 l-16 80 l-28 209 l0 22 q2 6 8 12 q6 6 12 8 l16 0 q8 -4 13 -9 q5 -5 9 -13 q0 -14 4 -27 q4 -13 24 -202 l14 -80 q-2 -6 -8 -12 q-6 -6 -12 -8 l-16 0 ZM215 394 q-9 4 -14 9 q-5 5 -9 13 q-10 32 -18 65 q-8 33 -16 68 q-8 35 -15 69.5 q-7 34.5 -21 66.5 l0 22 q2 6 8 12 q6 6 12 8 l16 0 q8 -4 13 -9 q5 -5 9 -13 q10 -36 18 -73.5 q8 -37.5 17.5 -72.5 q9.5 -35 18.5 -71 q9 -36 17 -74 q-2 -6 -8 -12 q-6 -6 -12 -8 l-16 0 Z" /><glyph glyph-name="" unicode="&#x30c8;" d="M301 -56 q-6 2 -12 8 q-6 6 -8 12 l4 207 l2 2 l12 300 l10 144 l2 149 l12 22 q6 6 13 6 q7 0 15 0 q6 -2 12 -8 q6 -6 8 -12 l0 -16 l-2 -2 l0 -137 l-10 -144 l-2 -10 q46 -20 95 -30 q49 -10 98 -18 q49 -8 96 -23 q47 -15 91 -43 q4 -6 5 -12 q1 -6 1 -14 q-2 -6 -8 -12 q-6 -6 -12 -8 l-20 0 q-40 22 -83 36 q-43 14 -87 21 q-44 7 -88 16 q-44 9 -88 19 l-6 -16 l-6 -208 l-2 -2 l-4 -197 l-12 -24 q-6 -4 -12 -5 q-6 -1 -14 -1 Z" /><glyph glyph-name="" unicode="&#x30c9;" d="M290 -62 q-6 2 -12 8 q-6 6 -8 12 l0 22 l14 108 l12 269 l2 2 l2 90 l2 2 l18 251 l2 2 l0 50 q2 10 4 19 q2 9 10 17 q6 6 13 6 q7 0 15 0 q8 -4 13 -9 q5 -5 9 -13 l0 -16 l-6 -10 l0 -44 l-2 -2 l-18 -251 l-2 -6 q44 -14 91 -26 q47 -12 93 -24 q46 -12 93 -21 q47 -9 91 -27 q4 -6 5 -12 q1 -6 1 -14 q-2 -6 -8 -12 q-6 -6 -12 -8 l-18 0 q-42 10 -83 19 q-41 9 -84 18 q-43 9 -84 22 q-41 13 -83 19 q-6 -10 -6 -22 l-12 -269 q-2 -18 -4 -37 q-2 -19 -5 -37 q-3 -18 -4 -37 q-1 -19 -13 -33 q-6 -4 -12 -5 q-6 -1 -14 -1 ZM662 593 q-6 2 -12 8 q-6 6 -8 12 q-4 18 -7 35.5 q-3 17.5 -5 35.5 q-2 18 -4 36 q-2 18 -4 36 l0 20 q2 6 8 12 q6 6 12 8 l16 0 q8 -4 13 -9 q5 -5 9 -13 l2 -18 l0 -20 q2 -12 4 -25 q2 -13 3 -26 q1 -13 3 -25 q2 -12 6 -25 l0 -22 q-2 -6 -8 -12 q-6 -6 -12 -8 l-16 0 ZM783 599 q-6 2 -12.5 8 q-6.5 6 -8.5 12 l-2 8 l0 27 l-2 2 l-2 122 q2 6 8.5 12 q6.5 6 12.5 8 l16 0 q8 -4 13 -9 q5 -5 9 -13 l2 -120 l2 -2 l0 -35 q-2 -6 -8 -12 q-6 -6 -12 -8 l-16 0 Z" /><glyph glyph-name="" unicode="&#x30cb;" d="M869 122 q-32 14 -67 23.5 q-35 9.5 -69.5 15.5 q-34.5 6 -70.5 9 q-36 3 -72 9 l-116 0 l-2 -2 l-38 0 l-2 -2 l-36 0 q-30 -4 -61 -8 q-31 -4 -61 -9 q-30 -5 -59.5 -12.5 q-29.5 -7.5 -59.5 -17.5 l-20 0 q-6 2 -12 8.5 q-6 6.5 -8 12.5 l0 16 q2 8 9 13 q7 5 15 9 q30 10 62 16 q32 6 64.5 12 q32.5 6 65.5 10 q33 4 65 8 l36 0 l2 2 l38 0 l2 2 l116 0 q40 -6 80 -10 q40 -4 80.5 -11 q40.5 -7 78.5 -17 q38 -10 74 -30 q4 -6 5 -12 q1 -6 1 -14 q-2 -7 -8 -13 q-6 -6 -12 -8 l-20 0 ZM258 543 l-23 12 q-4 6 -5 12 q-1 6 -1 14 q2 6 8.5 12 q6.5 6 12.5 8 l58 8 l20 0 l2 2 l30 0 l2 2 l290 0 l2 2 l84 0 q6 -2 12.5 -8 q6.5 -6 8.5 -12 l0 -16 q-2 -6 -8.5 -12 q-6.5 -6 -12.5 -8 l-10 -2 l-74 0 l-2 -2 l-290 0 l-2 -2 l-30 0 l-2 -2 l-20 0 l-50 -8 Z" /><glyph glyph-name="" unicode="&#x30cd;" d="M483 -97 q-6 2 -12 8 q-6 6 -8 12 l0 30 l2 2 l0 86 l-2 2 l0 70 l-2 2 l0 203 l-8 2 q-34 -30 -68 -59 q-34 -29 -68 -59 q-34 -30 -67.5 -61.5 q-33.5 -31.5 -73.5 -47.5 q-6 2 -12 8 q-6 6 -8 12 l0 16 q58 61 122.5 116 q64.5 55 127.5 110 q63 55 128 110 q65 55 117 121 l0 6 q-6 8 -15 12 q-9 4 -19 6 q-10 2 -20 4 l-94 0 l-22 -4 l-20 0 q-30 -4 -62 -11 q-32 -7 -62 -15 q-30 -8 -58 -19 q-28 -11 -61 -19 l-20 0 q-6 2 -12 8 q-6 6 -8 12 l0 16 q2 6 8 12 q6 6 12 8 q33 8 65 20 q32 12 64 20.5 q32 8.5 66 15.5 q34 7 68 11 l20 0 l22 4 l94 0 q12 -2 26 -4 q14 -2 26 -6 q12 -4 23 -10 q11 -6 21 -19 l16 -30 l0 -26 q-4 -18 -14 -34 q-10 -16 -25 -31 q-15 -15 -29 -29 q-14 -14 -28 -28 q-12 -10 -25 -21 q-13 -11 -25 -22 q-12 -11 -26 -22 q-14 -11 -20 -25 l2 -2 l0 -249 l2 -2 l0 -70 l2 -2 l0 -86 l-2 -2 l0 -20 l-12 -24 q-6 -4 -12 -5 q-6 -1 -14 -1 ZM830 134 q-28 16 -56 31 q-28 15 -58.5 25 q-30.5 10 -58.5 24 q-28 14 -58 28 l-20 0 q-6 2 -12 8 q-6 6 -8 12 l0 16 q4 8 9 13 q5 5 13 9 l30 0 q32 -14 63 -29 q31 -15 64.5 -27 q33.5 -12 64.5 -28 q31 -16 59 -36 q4 -6 5 -12 q1 -6 1 -14 q-2 -6 -8 -12 q-6 -6 -12 -8 l-18 0 ZM611 727 q-18 6 -36 9 q-18 3 -37 6 q-19 3 -38 6 q-19 3 -37 7 l-22 0 q-14 4 -30 7 q-16 3 -30 8 q-14 5 -26 17 q-4 6 -5 12 q-1 6 -1 14 q2 6 8 12 q6 6 12 8 l18 0 q8 -4 17 -9 q9 -5 19 -6 q10 -1 18 -5 l22 0 q22 -4 46 -8 q24 -4 47 -8 q23 -4 46 -8 q23 -4 43 -16 q4 -6 5 -12 q1 -6 1 -14 q-2 -6 -8 -12 q-6 -6 -12 -8 l-20 0 Z" /><glyph glyph-name="" unicode="&#x30ce;" d="M238 -13 q-6 2 -12 8 q-6 6 -8 12 l0 16 q77 82 156 163.5 q79 81.5 149 171.5 q70 90 126 187.5 q56 97.5 108 197.5 q6 6 13 6 q7 0 16 0 q6 -2 12 -8 q6 -6 8 -12 l0 -16 q-49 -103 -107 -200 q-58 -97 -127 -187 q-69 -90 -147 -171.5 q-78 -81.5 -161 -161.5 q-6 -4 -12 -5 q-6 -1 -14 -1 Z" /><glyph glyph-name="" unicode="&#x30d1;" d="M857 -13 q-14 6 -20 18 q-6 12 -12 23 q-6 11 -12 23 q-30 71 -64.5 138 q-34.5 67 -61.5 137 q-27 70 -60 138 q-33 68 -71 130 q2 6 8 12.5 q6 6.5 12 8.5 l16 0 q18 -10 28 -27.5 q10 -17.5 22 -33.5 q12 -16 23 -32 q11 -16 19 -34 q26 -60 50 -120 q24 -60 52.5 -120 q28.5 -60 57.5 -119.5 q29 -59.5 49 -121.5 q-2 -6 -8 -12 q-6 -6 -12 -8 l-16 0 ZM119 7 q-6 2 -12 8 q-6 6 -8 12 l0 20 q24 49 46 97 q22 48 44 96 q22 48 46.5 96 q24.5 48 52.5 92 q6 4 12 5 q6 1 14 1 q6 -2 12 -8 q6 -6 8 -12 l0 -16 q-24 -48 -48 -96 q-24 -48 -47.5 -96 q-23.5 -48 -44.5 -97.5 q-21 -49.5 -49 -95.5 q-6 -4 -12 -5 q-6 -1 -14 -1 ZM815 532 q-14 2 -27 6 q-13 4 -24.5 11 q-11.5 7 -22.5 17 q-11 10 -21 20 q-4 8 -8 15.5 q-4 7.5 -5 16.5 q-1 9 -1 17 q4 16 7 32 q3 16 12 31 q9 15 21 27 q10 8 19.5 14 q9.5 6 19.5 10 l36 0 q16 -4 32 -8 q16 -4 30 -13 q14 -9 26 -23 q6 -8 10 -18 q4 -10 6 -20 l0 -44 q-4 -12 -8 -24.5 q-4 -12.5 -13 -21.5 q-9 -9 -19 -19 q-10 -6 -21 -13 q-11 -7 -23 -10 q-12 -3 -26 -3 ZM841 600 q8 5 14 12 q6 7 10 15 l2 8 l0 24 q-4 8 -9 15 q-5 7 -13 9 l-32 10 q-8 -2 -15 -4 q-7 -2 -13 -8 q-4 -8 -9.5 -16 q-5.5 -8 -7.5 -17 q-2 -9 -4 -19 q4 -8 11.5 -15 q7.5 -7 16.5 -12.5 q9 -5.5 17 -9.5 l14 -2 l18 10 Z" /><glyph glyph-name="" unicode="&#x30d2;" d="M740 -35 l-2 2 l-45 0 l-2 2 l-50 0 l-150 10 l-2 2 l-28 0 q-26 4 -50 10 q-24 6 -46 17 q-22 11 -43 27 q-21 16 -39 36 q-10 12 -17 24 q-7 12 -12 26.5 q-5 14.5 -7 28.5 q-2 14 -6 28 l0 32 l-2 2 l6 118 q6 42 14 83 q8 41 18 81 q10 40 20 81 q10 41 18 84 l0 66 q2 10 4 21 q2 11 10 19 q6 6 13 6 q7 0 15 0 q6 -2 12 -8 q6 -6 8 -12 l0 -16 l-4 -14 l0 -62 l-38 -185 l6 0 q46 16 93 35 q47 19 94 36 q47 17 94 33 q47 16 94 38 l28 0 q6 -2 12 -8 q6 -6 8 -12 l0 -16 q-2 -6 -8 -12 q-6 -6 -12 -8 q-53 -20 -107 -39 q-54 -19 -107 -38 q-53 -19 -106 -41 q-53 -22 -107 -36 l-14 -76 l-6 -118 l2 -2 l0 -32 q4 -12 8 -25 q4 -13 9 -25.5 q5 -12.5 15 -22.5 q10 -10 20 -20 q12 -8 25 -17 q13 -9 27 -14 q14 -5 28 -9 q14 -4 30 -6 l28 0 l2 -2 l150 -10 l50 0 l2 -2 l45 0 l2 -2 l26 0 q6 -2 12 -8 q6 -6 8 -12 l0 -16 q-2 -6 -8 -12 q-6 -6 -12 -8 l-26 -2 Z" /><glyph glyph-name="" unicode="&#x30d4;" d="M445 -46 l-2 2 l-20 0 l-2 2 l-20 0 q-24 4 -49 8 q-25 4 -48 12 q-23 8 -43 22 q-20 14 -39 34 q-10 12 -18 26 q-8 14 -13 28 q-5 14 -7 30.5 q-2 16.5 -4 32.5 l0 40 l2 2 l0 38 q4 22 7 44 q3 22 6 44 q3 22 7 43 q4 21 6 43 l-18 20 l0 16 q2 6 8 12 q6 6 12 8 l8 4 q9 32 14 64 q5 32 11 64.5 q6 32.5 10 65.5 q4 33 12 65 l0 30 l12 22 q6 4 12 5 q6 1 14 1 q6 -2 12 -8 q6 -6 8 -12 l0 -38 l-40 -239 l8 -4 q42 12 85 24 q43 12 85 24 q42 12 84 24 q42 12 84 26 l24 0 q6 -2 12 -8 q6 -6 8 -12 l0 -16 q-2 -6 -8 -12 q-6 -6 -12 -8 q-48 -14 -96 -27 q-48 -13 -96 -27 q-48 -14 -96 -27 q-48 -13 -94 -31 q-6 -22 -10 -44 q-4 -22 -7 -45 q-3 -23 -6 -46 q-3 -23 -7 -45 l0 -38 l-2 -2 l0 -40 q2 -14 4 -27 q2 -13 8 -25.5 q6 -12.5 14 -23.5 q8 -11 20 -21 q12 -10 26 -15 q14 -5 29 -10 q15 -5 30 -8 q15 -3 31 -5 l20 0 l2 -2 l20 0 l2 -2 l258 0 q6 -2 12 -8 q6 -6 8 -12 l0 -16 q-2 -6 -8 -12 q-6 -6 -12 -8 l-10 -2 l-248 0 ZM782 485 q-14 4 -28 6 q-14 2 -26.5 8 q-12.5 6 -22.5 18 q-8 8 -13 19 q-5 11 -6 22 q-1 11 -1 23 q0 16 7 31.5 q7 15.5 18 28.5 q11 13 23 25 l39 28 l20 0 q12 -6 26 -8 q14 -2 26 -9 q12 -7 24 -15 q12 -8 22 -20 q6 -8 11 -18.5 q5 -10.5 7 -20.5 l0 -32 q-2 -10 -4 -20 q-2 -10 -8 -19 q-6 -9 -14 -17 q-12 -8 -24 -14 q-12 -6 -25 -9 q-13 -3 -27 -7 l-24 0 ZM842 559 l8 14 l0 22 q-4 8 -11 15.5 q-7 7.5 -16 10.5 q-9 3 -17 9 l-18 2 q-8 -2 -15 -9.5 q-7 -7.5 -13 -13.5 q-8 -10 -13 -20 q-5 -10 -3 -22 l10 -14 q6 -4 13 -6 q7 -2 15 -4 l20 0 q10 2 20 6 q10 4 20 10 Z" /><glyph glyph-name="" unicode="&#x30d5;" d="M591 -11 q-6 2 -12 8 q-6 6 -8 12 l0 20 q32 62 65 122.5 q33 60.5 63 121.5 q30 61 56.5 125 q26.5 64 42.5 130 l0 62 q-2 10 -6 20 q-4 10 -11.5 18 q-7.5 8 -15.5 16 q-14 11 -29 17 q-15 6 -30 12 q-15 6 -32 10 q-17 4 -33 6 l-94 0 q-40 -4 -81 -12 q-41 -8 -82 -17.5 q-41 -9.5 -81 -20.5 q-40 -11 -83 -17 l-32 0 q-6 2 -12 8 q-6 6 -8 12 l0 17 q4 8 9 13 q5 5 13 9 l30 0 q40 8 80.5 19 q40.5 11 82.5 19 q42 8 82 16 q40 8 82 12 l94 0 q26 -4 52 -9 q26 -5 50 -15 q24 -10 45.5 -25 q21.5 -15 41.5 -35 q8 -10 14 -21.5 q6 -11.5 7 -24.5 q1 -13 5 -25 l0 -66 q-12 -72 -40 -139 q-28 -67 -60.5 -133 q-32.5 -66 -67.5 -130.5 q-35 -64.5 -71 -128.5 q-6 -4 -12 -5 q-6 -1 -14 -1 Z" /><glyph glyph-name="" unicode="&#x30d7;" d="M523 -50 q-6 2 -12 8 q-6 6 -8 12 l0 20 q32 62 62 124.5 q30 62.5 62 123.5 q32 61 59 125 q27 64 45 130 l0 54 q-4 10 -8 19 q-4 9 -10 17 q-6 8 -14 16 q-12 8 -24 13 q-12 5 -25 9.5 q-13 4.5 -27 6.5 l-92 0 l-2 -2 l-24 0 l-2 -3 l-24 0 q-36 -6 -72 -13 q-36 -7 -71 -16 q-35 -9 -70.5 -19 q-35.5 -10 -73.5 -12 l-22 12 q-6 6 -6 13 q0 7 0 15 l22 25 l6 2 l20 0 l14 -4 q31 8 63 16 q32 8 63 16 q31 8 63 13 q32 5 64 11 l24 0 l2 2 l24 0 l2 2 l94 0 q16 -4 33 -7 q17 -3 33 -9 q16 -6 30 -16 q14 -10 28 -22 q10 -13 19.5 -25 q9.5 -12 14.5 -26 q5 -14 7 -30 l0 -58 q-14 -72 -42.5 -140 q-28.5 -68 -63.5 -133 q-35 -65 -67 -132.5 q-32 -67.5 -68 -131.5 q-6 -4 -12 -5 q-6 -1 -14 -1 ZM850 609 q-10 4 -21 5 q-11 1 -20 5 q-9 4 -17 15 q-8 8 -12 17 q-4 9 -6 20 q-2 11 -2 21 q2 14 6 27 q4 13 13 24 q9 11 17 21 l32 20 l26 0 l2 -2 l20 0 q14 -4 28 -6 q14 -2 26 -10 q12 -8 22 -20 l8 -14 l0 -40 q-4 -8 -7 -17 q-3 -9 -8 -17 q-5 -8 -13 -14 q-14 -12 -29 -19.5 q-15 -7.5 -31 -10.5 q-16 -3 -34 -5 ZM900 684 q8 6 11 13 q3 7 3 15 q-6 6 -13 8 q-7 2 -13 4 l-26 0 q-12 0 -20 -10 l-12 -32 l10 -12 l18 -2 l42 16 Z" /><glyph glyph-name="" unicode="&#x30d9;" d="M895 -21 q-56 74 -115.5 147.5 q-59.5 73.5 -111.5 152.5 q-52 79 -92 164 q-40 85 -104 153 l-12 4 l-36 0 q-16 -6 -31 -15 q-15 -9 -28 -21 q-13 -12 -26 -25 q-13 -13 -27 -27 q-22 -28 -46.5 -56 q-24.5 -28 -43.5 -57 q-19 -29 -41 -58 q-22 -29 -40 -59 q-6 -6 -13 -6 q-7 0 -15 0 q-6 2 -12 8 q-6 6 -8 12 l0 22 q34 44 65 90 q31 46 66.5 88 q35.5 42 73.5 84 q38 42 86 69 l38 10 l44 0 q12 -2 24 -7 q12 -5 22 -13 q10 -8 20 -17.5 q10 -9.5 20 -19.5 q48 -76 88 -156 q40 -80 88.5 -155 q48.5 -75 107.5 -143.5 q59 -68.5 95 -148.5 q-2 -6 -8 -12 q-6 -6 -12 -8 l-16 0 ZM835 526 l-20 18 q-6 24 -11 47 q-5 23 -9 48.5 q-4 25.5 -7 49.5 q-3 24 -7 48 q2 6 8 12 q6 6 12 8 l16 0 q8 -4 13 -9 q5 -5 9 -13 q4 -24 7 -48 q3 -24 7 -47.5 q4 -23.5 10 -46.5 q6 -23 8 -47 q-2 -6 -8 -12 q-6 -6 -12 -8 l-16 0 ZM710 532 q-8 4 -13 9 q-5 5 -9 13 q-6 18 -10 35 q-4 17 -8 35.5 q-4 18.5 -6 37.5 q-2 19 -6 37 l0 22 q2 6 8 12 q6 6 12 8 l16 0 q6 -2 12 -8 q6 -6 8 -12 q4 -22 6 -43 q2 -21 6 -42.5 q4 -21.5 11 -41.5 q7 -20 9 -42 q-2 -6 -8 -12 q-6 -6 -12 -8 l-16 0 Z" /><glyph glyph-name="" unicode="&#x30da;" d="M893 -3 q-58 74 -109.5 153.5 q-51.5 79.5 -104.5 157.5 q-53 78 -105 158 q-52 80 -130 134 l-26 0 q-44 -20 -80 -53 q-36 -33 -72.5 -65 q-36.5 -32 -70.5 -68 q-34 -36 -80 -46 q-6 2 -12 8 q-6 6 -8 12 l0 18 q38 30 73 64 q35 34 72.5 68 q37.5 34 75.5 65 q38 31 82 53 l12 2 l42 0 q16 -4 30 -11 q14 -7 26 -19 q12 -12 25 -22 q13 -10 25 -24 q50 -68 98 -138 q48 -70 94.5 -140 q46.5 -70 95.5 -141.5 q49 -71.5 83 -145.5 q-2 -6 -8 -12 q-6 -6 -12 -8 l-16 0 ZM761 536 q-15 2 -27 5 q-12 3 -24 9 q-12 6 -22 16 q-8 8 -13 18 q-5 10 -7 20 q-2 10 -2 22 q2 14 5 27 q3 13 13 24.5 q10 11.5 18 23.5 q12 8 23 17 q11 9 24.5 12 q13.5 3 25.5 9 l30 0 q12 -2 24 -5 q12 -3 22 -11 q10 -8 18 -18 l14 -30 l0 -47 q-4 -12 -9 -24 q-5 -12 -12 -23 q-7 -11 -19 -21 q-8 -6 -16 -11 q-8 -5 -17 -8 q-9 -3 -19 -5 l-30 0 ZM805 604 q8 8 12 17 q4 9 8 17 l0 24 l-20 19 l-20 0 q-8 -4 -16 -6.5 q-8 -2.5 -15.5 -7.5 q-7.5 -5 -13.5 -11 q-6 -8 -11 -17 q-5 -9 -5 -21 l16 -18 l21 -6 l24 0 l20 10 Z" /><glyph glyph-name="" unicode="&#x30e1;" d="M183 -10 q-6 2 -12 8 q-6 6 -8 12 l0 16 q34 48 71.5 93.5 q37.5 45.5 77.5 89.5 q40 44 78 87 q38 43 76 87 q-30 20 -60 40 q-30 20 -59 39 q-29 19 -61.5 36 q-32.5 17 -54.5 45 l0 16 q2 6 8 12 q6 6 12 8 l16 0 q31 -20 62 -38 q31 -18 61 -38 q30 -20 60 -39 q30 -19 60 -39 l6 2 q34 38 70 75 q36 37 70 76 q34 39 71 76.5 q37 37.5 74 73.5 q8 6 18 12 q10 6 22 4 q6 -2 12 -8 q6 -6 8 -12 l0 -16 q-38 -40 -77.5 -79.5 q-39.5 -39.5 -76.5 -80.5 q-37 -41 -75 -80 q-38 -39 -74 -81 q30 -26 61 -50 q31 -24 61 -52 q30 -28 59 -57 q29 -29 54 -59 l0 -16 q-2 -6 -8.5 -12 q-6.5 -6 -12.5 -8 l-16 0 q-30 24 -59 54 q-29 30 -59 57 q-30 27 -61 53 q-31 26 -63 46 q-42 -42 -81 -86 q-39 -44 -79 -88 q-40 -44 -77.5 -89.5 q-37.5 -45.5 -77.5 -89.5 l-16 0 Z" /><glyph glyph-name="" unicode="&#x30e2;" d="M747 -16 l-117 16 l-36 0 q-30 6 -61 11 q-31 5 -60 13 q-29 8 -55 25 q-26 17 -48 41 q-10 12 -18 26 q-8 14 -13 29.5 q-5 15.5 -8 31.5 q-3 16 -5 32 l0 36 l2 2 l0 34 l20 120 l-12 4 l-2 -2 l-119 -10 l-70 -12 l-22 12 q-4 6 -5 12 q-1 6 -1 14 q2 6 8 12 q6 6 12 8 l8 2 l20 0 l50 10 l119 10 l32 8 q8 24 13 50 q5 26 12 50 q7 24 10 51 q3 27 15 50 q6 6 13 6 q7 0 15 0 q6 -2 12 -8.5 q6 -6.5 8 -12.5 l0 -16 q-4 -20 -7 -42 q-3 -22 -9 -42 q-6 -20 -11 -40 q-5 -20 -7 -42 l4 -4 l24 0 l2 2 l399 2 l2 -2 l26 0 q6 -2 12 -8 q6 -6 8 -12 l0 -16 q-2 -6 -8 -12 q-6 -6 -12 -8 l-26 -2 l-2 2 l-399 -2 l-2 -2 l-40 0 l-6 -2 q-6 -16 -9 -32 q-3 -16 -7 -31 q-4 -15 -6 -32 q-2 -17 -4 -33 l0 -34 l-2 -2 l0 -36 q2 -14 5 -27 q3 -13 9 -26.5 q6 -13.5 14 -24.5 q8 -11 20 -21 q18 -14 37 -22 q19 -8 40 -13 q21 -5 42 -9 q21 -4 43 -8 l36 0 q20 -4 39 -6 q19 -2 38 -4 q19 -2 39.5 -4 q20.5 -2 36.5 -14 q4 -6 5 -12 q1 -6 1 -14 q-2 -6 -8 -12 q-6 -6 -12 -8 l-22 0 ZM722 680 l-2 2 l-20 0 l-2 2 l-150 6 l-2 2 l-298 0 l-25 14 q-4 6 -5 12 q-1 6 -1 14 q2 6 8.5 12 q6.5 6 12.5 8 l16 0 l2 -2 l290 0 l2 -2 l150 -6 l2 -2 l20 0 q12 -2 23.5 -3 q11.5 -1 19.5 -11 q4 -6 5 -12 q1 -6 1 -14 q-2 -6 -8 -12 q-6 -6 -12 -8 l-27 0 Z" /><glyph glyph-name="" unicode="&#x30e3;" d="M504 -72 l-20 18 q-10 42 -25 83 q-15 41 -27 83.5 q-12 42.5 -23 84.5 q-11 42 -25 84 l-10 2 q-20 -8 -40 -16 q-20 -8 -40 -18 q-20 -10 -40.5 -19 q-20.5 -9 -38.5 -23 l-20 0 q-6 2 -12 8 q-6 6 -8 12 l0 16 q6 12 18 20 q12 8 24 15 q12 7 24 13 q17 4 31 12 q14 8 29 14 q15 6 30 12 q15 6 29 12 l2 10 q-8 18 -14 36 q-6 18 -13 36 q-7 18 -12 37 q-5 19 -7 39 l12 22 q6 4 12 5 q6 1 14 1 q6 -2 12 -8 q6 -6 8 -12 q0 -20 7 -37 q7 -17 13 -34 q6 -17 12 -35 q6 -18 14 -34 l6 -2 q30 12 61 21 q31 9 62 18 q31 9 62 16 q31 7 65 9 l64 0 q14 -2 26.5 -4 q12.5 -2 25.5 -6 q13 -4 23 -12 q10 -8 20 -18 l14 -24 l0 -50 q-8 -30 -23 -57 q-15 -27 -32 -53 q-17 -26 -34.5 -52 q-17.5 -26 -33.5 -53 q-6 -4 -12 -5 q-6 -1 -14 -1 q-6 2 -12 8 q-6 6 -8 13 l0 20 q12 24 27 47 q15 23 30 45 q15 22 29.5 46 q14.5 24 24.5 48 l0 28 l-14 14 l-37 8 l-64 0 q-30 -2 -60 -10 q-30 -8 -60 -16 q-30 -8 -58 -17 q-28 -9 -56 -21 l-2 -8 q14 -42 25 -87 q11 -45 24 -89.5 q13 -44.5 30 -86.5 q17 -42 21 -88 q-2 -6 -8 -12 q-6 -6 -12 -8 l-16 0 Z" /><glyph glyph-name="" unicode="&#x30e4;" d="M570 -49 q-8 4 -13 9 q-5 5 -9 13 q-20 64 -47 125.5 q-27 61.5 -49 124.5 q-22 63 -43 126 q-21 63 -39 127 l-8 2 q-24 -12 -47 -23 q-23 -11 -46.5 -26 q-23.5 -15 -45.5 -28 q-22 -13 -46 -25 l-20 0 q-6 2 -12 8 q-6 6 -8 12 l0 16 q4 8 10 14 q6 6 14 10 q24 10 48 25 q24 15 47 29 q23 14 47.5 25 q24.5 11 48.5 25 l2 6 q-8 26 -14 51 q-6 25 -14 50.5 q-8 25.5 -17 50.5 q-9 25 -24 47 l0 20 q2 6 8.5 12 q6.5 6 12.5 8 l16 0 q12 -4 18 -15 q6 -11 11 -22 q5 -11 11 -21 q6 -20 13 -39 q7 -19 13 -39 q6 -20 10 -40.5 q4 -20.5 12 -40.5 l6 -2 q32 16 65 27 q33 11 67 23.5 q34 12.5 67 20.5 q33 8 69 16 l22 0 l2 2 l80 0 q17 -2 33 -6 q16 -4 29 -13 q13 -9 25 -22 q4 -8 7 -18 q3 -10 5 -20 l0 -32 q-8 -42 -29 -80 q-21 -38 -43.5 -74 q-22.5 -36 -40.5 -75 q-18 -39 -34 -77 q-6 -4 -12 -5 q-6 -1 -14 -1 q-6 2 -12 8 q-6 6 -8 12 l0 20 q12 36 29 71 q17 35 36 69 q19 34 39.5 67 q20.5 33 30.5 71 l0 22 l-8 12 l-33 12 l-80 0 q-36 -4 -72 -14 q-36 -10 -71 -22 q-35 -12 -70 -25 q-35 -13 -67 -29 l-2 -10 q18 -66 40 -132 q22 -66 45 -131 q23 -65 52 -129.5 q29 -64.5 43 -132.5 q-2 -6 -8 -12 q-6 -6 -12 -8 l-16 0 Z" /><glyph glyph-name="" unicode="&#x30e6;" d="M898 54 l-22 4 l-24 0 l-2 2 l-24 0 l-2 2 l-28 0 l-2 2 l-65 0 l-2 2 l-72 0 l-2 2 l-158 0 l-2 2 l-246 0 l-2 -2 l-27 0 l-2 -2 l-24 0 l-40 -6 l-42 0 l-22 12 q-4 6 -5 12 q-1 6 -1 14 q2 6 8 12 q6 6 12 8 l50 0 l40 6 l24 0 l2 3 l27 0 l2 2 l246 0 l2 -2 l124 0 q14 36 25 75 q11 39 23 77 q12 38 25 76 q13 38 21 78 l0 62 q-4 14 -10 27 q-6 13 -16 24 q-10 11 -22 21 q-16 10 -32 19 q-16 9 -34 13 q-18 4 -36 9 q-18 5 -38 7 l-20 0 l-22 4 l-20 0 l-2 2 l-202 0 q-10 2 -21 4 q-11 2 -20 10 q-4 7 -5 13 q-1 6 -1 14 q2 6 8.5 12 q6.5 6 12.5 8 l24 0 l2 -2 l202 0 l2 -2 l20 0 l22 -4 l20 0 l2 -2 l20 0 q26 -6 52 -12 q26 -6 50 -16.5 q24 -10.5 45 -26.5 q21 -16 41 -38 q11 -12 18 -26 q7 -14 12 -28 q5 -14 7 -30 l0 -62 q-4 -40 -17 -78 q-13 -38 -25.5 -75 q-12.5 -37 -23.5 -75 q-11 -38 -21 -76 l4 -5 l38 0 l2 -2 l65 0 l2 -2 l28 0 l2 -2 l24 0 l2 -2 l24 0 q10 -2 21 -3 q11 -1 21 -3 q10 -2 18 -10 q4 -6 5 -12 q1 -6 1 -14 q-2 -6 -8 -12 q-6 -6 -12 -8 l-24 0 Z" /><glyph glyph-name="" unicode="&#x30e9;" d="M664 -40 q-6 2 -12 8 q-6 6 -8 12 l0 20 q16 44 33 90 q17 46 39 89.5 q22 43.5 42.5 88.5 q20.5 45 30.5 91 l0 38 l-14 24 q-14 8 -29.5 14 q-15.5 6 -32.5 8 q-17 2 -34 5 q-17 3 -33 5 l-206 0 l-2 -2 l-130 -12 l-54 -2 l-49 -2 l-22 12 q-4 6 -5 12 q-1 6 -1 14 q2 6 8 12 q6 6 12 8 l55 0 l56 4 l130 12 l2 2 l206 0 q24 -4 49 -7 q25 -3 49.5 -9 q24.5 -6 46.5 -16 q22 -10 40 -32 q4 -8 7 -15 q3 -7 5 -16 q2 -9 4 -17 l0 -44 q-10 -50 -30 -99 q-20 -49 -44.5 -96.5 q-24.5 -47.5 -42.5 -97.5 q-18 -50 -40 -96 q-6 -4 -12 -5 q-6 -1 -14 -1 ZM773 706 l-31 8 l-24 0 l-2 2 l-32 0 l-2 2 l-168 0 l-2 -2 l-42 0 l-2 -2 l-140 -4 q-12 2 -24 4 q-12 2 -24 4 q-12 2 -20 12 q-4 6 -5 12 q-1 6 -1 14 q2 6 8 12 q6 6 12 8 l20 0 q8 -4 17 -5 q9 -1 17 -3 l140 4 l2 2 l42 0 l2 2 l168 0 l2 -2 l32 0 l2 -2 l24 0 q10 -2 22.5 -4 q12.5 -2 23.5 -4 q11 -2 19 -12 q4 -6 5 -12 q1 -6 1 -14 q-2 -6 -8 -12 q-6 -6 -12 -8 l-20 0 Z" /><glyph glyph-name="" unicode="&#x30ea;" d="M664 -69 q-6 2 -12 8 q-6 6 -8 12 l0 20 l4 14 l0 30 l2 2 l0 34 l2 2 l38 634 l0 22 l2 2 l0 66 l12 22 q6 4 12 5 q6 1 14 1 q6 -2 12.5 -8 q6.5 -6 8.5 -12 l0 -74 l-2 -2 l0 -22 l-39 -634 l-2 -2 l0 -34 l-2 -2 l0 -30 q-2 -8 -3 -17 q-1 -9 -3 -17 q-2 -8 -10 -14 q-6 -4 -12 -5 q-6 -1 -14 -1 ZM328 284 q-6 2 -12 8 q-6 6 -8 12 l-2 8 l0 40 l-22 286 l-2 2 l0 73 l-8 46 q4 8 9 13 q5 5 13 9 l16 0 q6 -2 12 -8 q6 -6 8 -12 l8 -48 l0 -73 l2 -2 l22 -286 l0 -48 q-2 -6 -8 -12 q-6 -6 -12 -8 l-16 0 Z" /><glyph glyph-name="" unicode="&#x30eb;" d="M614 -37 q-14 2 -28 7 q-14 5 -26 13 q-12 8 -24 20 q-12 14 -20 31 q-8 17 -15 33 q-7 16 -10 35.5 q-3 19.5 -7 37.5 l0 20 l-4 22 l36 459 l0 112 q2 6 8 12 q6 6 12 8 l16 0 q6 -2 12 -8 q6 -6 8 -12 l2 -6 l0 -106 l-36 -459 l4 -22 l0 -20 q2 -14 6 -27.5 q4 -13.5 9 -26.5 q5 -13 11 -25 q6 -12 16 -24 q8 -6 16 -10 q8 -4 18 -6 l38 0 q28 4 54 13 q26 9 51.5 19 q25.5 10 51.5 19 q26 9 50 23 l20 0 q6 -2 12 -8 q6 -6 8 -12 l0 -16 q-4 -12 -14 -18 q-10 -6 -20 -10 q-26 -10 -52 -19 q-26 -9 -51.5 -20 q-25.5 -11 -53.5 -18 q-28 -7 -56 -11 l-42 0 ZM141 -1 q-6 2 -12 8 q-6 6 -8 12 l0 34 q8 52 19 105.5 q11 53.5 21 105.5 q10 52 20 104 q10 52 16 106 l0 26 l12 22 q6 4 12 5 q6 1 14 1 q6 -2 12.5 -8 q6.5 -6 8.5 -12 l0 -34 q-6 -54 -16.5 -106 q-10.5 -52 -20.5 -104 q-10 -52 -21 -105.5 q-11 -53.5 -19 -105.5 l0 -24 l-12 -24 q-6 -4 -12 -5 q-6 -1 -14 -1 Z" /><glyph glyph-name="" unicode="&#x30ef;" d="M652 -42 q-6 2 -12 8 q-6 6 -8 12 l0 20 q16 64 35 128.5 q19 64.5 43 125.5 q24 61 45.5 125 q21.5 64 33.5 128 l0 74 q-4 10 -7 19 q-3 9 -7 18 q-4 9 -14 17 q-14 8 -28.5 15.5 q-14.5 7.5 -29.5 12.5 q-15 5 -31 8 q-16 3 -32 5 l-60 0 l-2 -2 l-20 0 l-2 -2 l-22 0 q-32 -4 -62 -12 q-30 -8 -60 -16.5 q-30 -8.5 -60 -16.5 q-30 -8 -58 -22 l-20 0 q-6 2 -12 8 q-6 6 -8 12 l0 18 l18 21 q32 10 64 19 q32 9 65 18 q33 9 66 17 q33 8 67 12 l22 0 l2 2 l20 0 l2 2 l60 0 q24 -2 47 -7 q23 -5 44.5 -12 q21.5 -7 41.5 -19 q20 -12 38 -28 q10 -12 18 -25.5 q8 -13.5 11 -28.5 q3 -15 7 -29 l0 -78 q-10 -70 -32 -138 q-22 -68 -48 -134 q-26 -66 -46.5 -134.5 q-20.5 -68.5 -42.5 -134.5 q-6 -4 -12 -5 q-6 -1 -14 -1 ZM213 375 q-6 2 -12 8 q-6 6 -8 12 l-4 26 l0 22 l-2 2 l0 26 l-2 2 l0 30 l-2 2 l0 36 l-2 2 l0 105 l-2 2 l0 88 l-2 12 l12 22 q6 6 13 6 q7 0 15 0 q9 -4 14 -9 q5 -5 9 -13 l0 -16 l-2 -2 l0 -88 l2 -2 l0 -105 l2 -2 l0 -36 l2 -2 l0 -30 l2 -2 l0 -26 l2 -2 l0 -22 l2 -2 l0 -24 q-2 -6 -8 -12 q-6 -6 -12 -8 l-17 0 Z" /><glyph glyph-name="" unicode="&#x30f3;" d="M231 29 q-6 2 -12.5 8 q-6.5 6 -8.5 12 l0 16 q55 44 114 81.5 q59 37.5 121 70.5 q62 33 123 68 q61 35 123 65 q18 8 37.5 17 q19.5 9 36.5 20 q17 11 35 21 q18 10 40 10 q6 -2 12 -8 q6 -6 8 -12 l0 -16 q-12 -20 -31 -28 q-19 -8 -36 -19 q-17 -11 -36 -20 q-19 -9 -38 -19 q-64 -28 -124 -63 q-60 -35 -122 -67 q-62 -32 -120 -72.5 q-58 -40.5 -122 -64.5 ZM335 570 q-20 12 -40 25 q-20 13 -41 22 q-21 9 -43.5 18.5 q-22.5 9.5 -40.5 25.5 q-4 6 -5 12 q-1 6 -1 14 q2 6 8 12 q6 6 12 8 l20 0 q21 -14 42 -22 q21 -8 42 -18 q21 -10 41 -23.5 q20 -13.5 38 -27.5 q4 -6 5 -12 q1 -6 1 -14 q-2 -6 -8 -12 q-6 -6 -12 -8 l-18 0 Z" /><glyph glyph-name="" unicode="&#x30fc;" d="M194 343 l-22 12 q-8 10 -6 26 l16 20 q89 22 179 29 q90 7 182 13 l198 0 q37 0 67 -18 q8 -10 6 -26 q-6 -14 -20 -20 l-20 0 l-33 6 l-198 0 q-88 -6 -176 -12 q-88 -6 -173 -30 Z" /><glyph glyph-name="" unicode="&#x4e00;" d="M170 284 q-16 2 -28 14 q-12 12 -10 32 q6 14 20 20 l18 0 l16 -6 q141 40 286 56 q145 16 291 24 l9 14 q26 14 60 12 q26 -4 49 -19 q23 -15 45 -27 q8 -10 6 -26 q-6 -14 -20 -20 l-24 0 l-28 8 l-125 0 q-142 -10 -284 -27 q-142 -17 -281 -55 Z" /><glyph glyph-name="" unicode="&#x4e01;" d="M474 -40 q-14 2 -26 6 q-12 4 -22 13 q-10 9 -23 13 q-13 4 -23 12 q-6 6 -6 13 q0 7 0 15 q2 6 8 12 q6 6 12 8 l18 0 q12 -2 23 -10 q11 -8 23 -15 q12 -7 24 -9 l14 16 q6 14 10 26 q4 12 6 26 q2 14 4 27 l8 30 l6 74 l8 224 l2 2 l-8 130 l-2 2 l0 20 q-4 10 -7 22 q-3 12 -10 22 q-7 10 -15 18 l-20 10 q-56 -6 -101 -12 q-45 -6 -89 -14 q-44 -8 -86.5 -21 q-42.5 -13 -86.5 -21 l-22 12 q-4 6 -5 12 q-1 6 -1 14 q2 6 8 12 q6 6 12 8 q48 12 96.5 24.5 q48.5 12.5 97.5 21.5 q49 9 104 14 q55 5 105 13 l46 0 l2 2 l42 0 l2 2 q106 6 214 0 l2 -2 l23 0 l2 -2 l20 0 q12 -2 24 -4 q12 -2 23 -5 q11 -3 21 -13 l6 -10 l0 -21 q-2 -6 -8 -12 q-6 -6 -12 -8 l-16 0 q-8 6 -18 10 q-10 4 -20 4 l-20 0 l-2 2 l-23 0 l-2 2 q-114 10 -214 0 l-2 -2 l-32 0 l-2 -10 q8 -8 10 -20 q2 -12 6 -22 q4 -10 6 -22 l0 -24 l2 -2 l8 -130 l-2 -2 l-8 -224 l-6 -74 l-8 -30 q-4 -19 -6 -37 q-2 -18 -8 -36 q-6 -18 -13 -34 q-7 -16 -21 -30 q-8 -6 -16 -9 q-8 -3 -17 -5 q-9 -2 -19 -2 Z" /><glyph glyph-name="" unicode="&#x4e07;" d="M661 -41 q-6 2 -12 8 q-6 6 -8 12 l0 20 q16 40 29 80 q13 40 28 80.5 q15 40.5 30 81.5 q15 41 26 81 l0 64 q-5 12 -11 23 q-6 11 -16 19 q-32 22 -68 35 q-36 13 -73 19 q-37 6 -75 12 q-38 6 -76 10 q-22 -54 -43 -108 q-21 -54 -39 -109 q-18 -55 -34 -110.5 q-16 -55.5 -40 -107.5 q-6 -4 -12 -5 q-6 -1 -14 -1 q-6 2 -12.5 8 q-6.5 6 -8.5 12 l0 20 q27 77 49 154 q22 77 51 151 q29 74 57 149 q28 75 50 152 l-4 4 l-22 0 l-2 -2 l-24 0 l-2 -2 l-20 0 l-2 -2 l-20 0 l-2 -2 l-20 0 l-2 -2 l-20 0 l-161 -24 q-8 2 -15 4 q-7 2 -11 10 q-4 6 -5 12 q-1 6 -1 14 q2 6 8 12 q6 6 12 8 l30 0 q18 2 36 5 q18 3 35.5 6 q17.5 3 35.5 6 q18 3 36 5 l20 0 l2 2 l20 0 l2 2 l20 0 l2 2 l20 0 l2 2 l24 0 l2 2 l22 0 l2 2 l24 0 l2 2 l22 0 l2 2 l271 0 l2 -2 l34 0 l32 -6 l24 0 q10 -4 21 -5 q11 -1 22 -3 q11 -2 19 -10 q4 -6 5 -12 q1 -6 1 -14 q-2 -6 -8 -12 q-6 -6 -12 -8 l-26 0 l-22 6 l-24 0 l-32 6 l-34 0 l-2 2 l-257 0 l-4 -4 l0 -30 l-40 -121 q42 -10 85 -17 q43 -7 86 -15 q43 -8 83.5 -27 q40.5 -19 72.5 -51 q8 -10 14 -21 q6 -11 9 -23 q3 -12 5 -24 l0 -68 q-10 -46 -25 -90 q-15 -44 -32.5 -88.5 q-17.5 -44.5 -31.5 -88.5 q-14 -44 -36 -86 q-6 -4 -12 -5 q-6 -1 -14 -1 Z" /><glyph glyph-name="" unicode="&#x4e08;" d="M333 -44 q-14 6 -20 20 l0 18 q12 50 23 102.5 q11 52.5 25 102.5 q-40 14 -79.5 31 q-39.5 17 -81.5 29 q-8 10 -6 26 q6 14 20 20 l36 0 q33 -12 64 -25 q31 -13 63 -23 q22 78 50 153 q28 75 56 151 l-18 0 q-64 -6 -124 -17 q-60 -11 -123 -21 l-22 12 q-8 12 -6 28 q6 14 20 20 q75 8 148 21 q73 13 147 19 q16 47 36 92 q20 45 44 87 q10 8 26 6 q14 -6 20 -20 l0 -22 q-18 -34 -33 -67 q-15 -33 -27 -69 l36 0 q52 4 104 7 q52 3 107 3 q14 -6 20 -21 l0 -16 q-6 -16 -22 -22 q-69 0 -135 -4 q-66 -4 -134 -8 q-28 -84 -59 -166 q-31 -82 -57 -166 q120 -48 242.5 -97.5 q122.5 -49.5 232.5 -123.5 q8 -10 6 -26 q-6 -14 -20 -20 l-18 0 q-109 68 -225 115.5 q-116 47.5 -234 91.5 q-14 -54 -25 -108.5 q-11 -54.5 -31 -106.5 q-10 -8 -26 -6 Z" /><glyph glyph-name="" unicode="&#x4e09;" d="M904 -30 q-82 28 -168.5 49 q-86.5 21 -174.5 35 l-134 0 q-74 -6 -148.5 -17 q-74.5 -11 -144.5 -29 l-22 12 q-8 10 -6 26 q6 14 20 20 q74 16 149.5 28.5 q75.5 12.5 151.5 18.5 l134 0 q94 -17 189.5 -38 q95.5 -21 183.5 -57 q8 -12 6 -28 q-6 -14 -20 -20 l-16 0 ZM591 335 q-14 6 -20 20 l0 14 l-66 0 q-50 -4 -99 -10 q-49 -6 -97 -12 l-22 12 q-8 10 -6 26 q6 14 20 20 q50 6 101 12 q51 6 103 10 l118 0 q34 0 62 -18 q8 -10 6 -26 l-18 -20 q-40 -16 -82 -28 ZM277 617 l-23 12 q-8 10 -6 27 q6 14 21 20 q108 22 218 31 q110 9 222 13 q16 -6 22 -22 l0 -16 q-6 -14 -20 -20 q-110 -4 -219 -12.5 q-109 -8.5 -215 -32.5 Z" /><glyph glyph-name="" unicode="&#x4e0a;" d="M142 -34 l-14 8 q-10 12 -8 30 l8 14 q86 16 174.5 26 q88.5 10 176.5 18 l0 225 l-2 2 l0 465 l-2 10 l12 22 q10 8 26 6 q14 -6 20 -20 l2 -18 l0 -277 l4 0 q48 12 97 23 q49 11 101 15 q17 -6 23 -22 l0 -18 q-6 -14 -21 -20 q-54 -2 -104 -14 q-50 -12 -98 -26 l-2 -2 l0 -124 l2 -2 l0 -219 l166 0 q51 -8 101 -18 q50 -10 94 -32 q8 -12 6 -28 q-6 -14 -20 -20 l-16 0 q-38 16 -80.5 24 q-42.5 8 -84.5 16 l-166 0 q-98 -10 -197 -21 q-99 -11 -198 -23 Z" /><glyph glyph-name="" unicode="&#x4e0b;" d="M491 16 q-14 6 -20 20 l-2 68 l20 399 l0 148 l-10 0 q-72 -10 -146.5 -20 q-74.5 -10 -142.5 -34 l-22 12 q-8 10 -6 26 l20 22 q105 27 211 41 q106 14 214 22 l193 0 q32 2 56 -18 q8 -12 6 -29 q-6 -14 -20 -20 l-16 0 q-12 6 -26 8 l-193 0 l-60 -4 l0 -154 q-8 -120 -13 -241.5 q-5 -121.5 -17 -239.5 q-10 -8 -26 -6 ZM709 349 q-24 22 -51 38 q-27 16 -55 32 q-20 8 -36 22 q-8 10 -6 26 q6 14 20 20 l18 0 q36 -20 72 -40 q36 -20 68 -48 q8 -12 6 -30 q-6 -14 -20 -20 l-16 0 Z" /><glyph glyph-name="" unicode="&#x4e0d;" d="M485 -78 q-6 2 -12 8 q-6 6 -8 12 l0 20 l6 26 l0 249 l2 2 l0 64 l2 2 l0 28 l2 2 l0 46 l-8 2 q-32 -32 -63 -66 q-31 -34 -74 -75 q-43 -41 -75.5 -74 q-32.5 -33 -52.5 -71 q-6 -4 -12 -5 q-6 -1 -14 -1 q-6 2 -12 8 q-6 6 -8 12 l0 20 q50 72 124.5 144 q74.5 72 135.5 137 q61 65 147.5 146 q86.5 81 102.5 152 l-10 16 q-8 6 -17 11 q-9 5 -18 8 q-9 3 -51 -3 q-113 -22 -205.5 -46 q-92.5 -24 -174.5 -38 q-6 2 -12 8 q-6 6 -8 12 l0 16 q4 10 12 17 q8 7 18 11 q38 12 148.5 34 q110.5 22 221.5 44 q46 6 59 3 q13 -3 25 -8 q12 -5 24 -13 q12 -8 22 -18 q4 -8 11 -14 q7 -6 9 -15 q2 -9 4 -17 l0 -22 q-4 -34 -24 -62.5 q-20 -28.5 -52.5 -69.5 q-32.5 -41 -60.5 -65 q-28 -24 -54 -50 l0 -42 q40 -28 86 -41 q46 -13 107 -37 q61 -24 104.5 -43 q43.5 -19 85.5 -41 q4 -6 5 -12 q1 -6 1 -14 q-2 -6 -8 -12 q-6 -6 -12 -8 l-20 0 q-40 18 -78.5 34 q-38.5 16 -93.5 39 q-55 23 -96 34 q-41 11 -79 29 l-4 -4 l0 -26 l-2 -2 l0 -64 l-2 -2 l0 -249 q-2 -10 -3 -21 q-1 -11 -4 -21 q-3 -10 -11 -18 q-6 -4 -12 -5 q-6 -1 -14 -1 Z" /><glyph glyph-name="" unicode="&#x4e0e;" d="M627 -62 q-6 2 -12 8 q-6 6 -8 12 l0 20 l12 74 l0 24 l6 30 l0 28 l6 53 l-4 4 l-122 0 l-2 -2 l-50 0 l-2 -2 l-52 0 l-2 -2 l-22 0 l-2 -2 l-24 0 l-2 -2 l-22 0 l-2 -2 l-22 0 l-2 -2 l-20 0 l-2 -2 l-20 0 l-103 -14 l-20 0 l-22 -7 l-20 0 l-22 13 q-4 6 -5 12 q-1 6 -1 14 q2 6 8 12 q6 6 12 8 l28 0 l22 6 l20 0 l103 14 l20 0 l2 2 l20 0 l2 2 l22 0 l2 2 l22 0 l2 2 l24 0 l2 2 l22 0 l2 2 l52 0 l2 2 l50 0 l2 2 l130 0 q8 14 11 31 q3 17 5 34 q2 17 6 33 q4 16 8 32 l-16 4 q-28 -8 -59 -12 q-31 -4 -60 -10 q-29 -6 -60 -8 q-31 -2 -61 -8 l-30 0 l-2 2 l-28 0 q-16 2 -32 5 q-16 3 -29 12 q-13 9 -25 21 q-6 10 -13.5 19 q-7.5 9 -11.5 19 q-4 10 -6 22 l0 28 l2 2 l0 32 q10 48 25.5 94 q15.5 46 34.5 91.5 q19 45.5 45 86.5 q26 41 58 79 q6 4 12 5 q6 1 14 1 q6 -2 12 -8 q6 -6 8 -12 l0 -20 q-16 -18 -30 -38 q-14 -20 -25 -40 q-11 -20 -23 -40 q-12 -20 -16 -45 l14 0 q34 6 68 11.5 q34 5.5 68 11.5 q34 6 68 10 q34 4 68 8 l32 0 l2 2 l101 0 l24 -12 q4 -6 5 -12 q1 -6 1 -15 q-2 -6 -8 -12 q-6 -6 -12 -8 l-111 0 l-2 -2 l-32 0 q-40 -4 -79 -9 q-39 -5 -78 -12 q-39 -7 -79 -13 q-40 -6 -78 -14 q-6 -14 -11 -30 q-5 -16 -9 -31 q-4 -15 -8 -31 l0 -28 l-2 -2 l0 -20 l18 -32 q10 -6 19 -10 q9 -4 21 -6 l28 0 l2 -2 l30 0 q38 6 75 10 q37 4 74 11 q37 7 74 13 q37 6 73 20 l20 0 q8 -4 13 -9 q5 -5 9 -13 l0 -18 q-16 -16 -21 -37 q-5 -21 -11 -41 q-6 -20 -9 -41 q-3 -21 -7 -43 l10 -8 l42 0 l2 -2 l39 0 l2 -2 l34 0 l2 -2 l30 0 l28 -6 l20 0 q12 -4 24 -6 q12 -2 22 -12 q4 -6 5 -12 q1 -6 1 -14 q-2 -6 -8 -12 q-6 -6 -12 -8 l-20 0 q-8 4 -19 5 q-11 1 -21 3 q-10 2 -20 4 l-30 0 l-2 2 l-34 0 l-2 2 l-39 0 l-2 2 l-42 0 l-12 2 l-6 -2 l-8 -55 l0 -28 l-6 -30 l0 -24 q-4 -14 -5 -28 q-1 -14 -3 -28 q-2 -14 -4 -28 q-2 -14 -12 -24 q-6 -4 -12 -5 q-6 -1 -14 -1 Z" /><glyph glyph-name="" unicode="&#x4e16;" d="M333 -44 q-18 8 -24 28 q-38 82 -54.5 170.5 q-16.5 88.5 -20.5 178.5 l0 124 l-8 0 q-28 -4 -53 -11 q-25 -7 -53 -9 q-14 6 -20 20 l0 16 l18 20 q28 8 58 13 q30 5 60 9 q4 38 4 78.5 q0 40.5 14 74.5 q11 8 27 6 q14 -6 20 -20 l0 -35 l-6 -94 l16 0 q30 6 61 10 q31 4 61 8 q6 50 9 100.5 q3 50.5 21 94.5 q12 10 30 8 q14 -6 20 -20 l0 -16 q-10 -38 -14 -79.5 q-4 -41.5 -6 -83.5 l8 0 l170 14 q14 67 31 133 q17 66 29 132 q10 8 26 6 q15 -6 21 -20 l0 -34 q-6 -56 -20.5 -108.5 q-14.5 -52.5 -26.5 -106.5 l14 0 l2 2 l123 0 q30 0 50 -22 q8 -10 6 -26 q-6 -14 -20 -20 l-16 0 l-20 10 l-123 0 l-34 -2 q-16 -58 -33 -115 q-17 -57 -39 -111 q36 -2 70 -10 q34 -8 67 -24 q8 -10 6 -26 q-6 -14 -21 -20 l-22 0 q-34 12 -71 19 q-37 7 -77 3 l-20 -6 l-22 12 q-8 12 -6 28 q6 14 20 20 l8 4 q28 52 46 108 q18 56 32 114 l-20 0 l-142 -12 l-2 -6 l0 -118 q2 -46 17 -88 q15 -42 25 -86 q-6 -14 -20 -20 l-16 0 l-20 16 q-18 42 -29 86 q-11 44 -15 92 l0 116 l-28 0 l-108 -14 l0 -134 q2 -72 14 -141 q12 -69 36 -136 l4 0 q30 4 59 9 q29 5 59 7 l134 0 q56 -8 111 -18 q55 -10 100 -50 q8 -12 6 -28 q-6 -14 -20 -20 l-16 0 q-39 32 -86 42 q-47 10 -95 16 l-134 0 q-48 -4 -96 -12 q4 -24 -10 -40 q-10 -8 -26 -6 Z" /><glyph glyph-name="" unicode="&#x4e26;" d="M138 -60 q-6 2 -12 8 q-6 6 -8 12 l0 16 q2 6 8 12 q6 6 12 8 q12 2 24 6 q12 4 24 6 q12 2 25 4 q13 2 25 4 l43 0 l2 2 l20 0 l2 2 l20 0 l2 2 l24 0 l2 2 l24 0 l2 2 l24 0 l4 4 l0 48 l-2 2 l0 20 l-2 2 l0 25 l-2 2 l0 30 l-4 20 l-10 2 l-34 -8 l-24 0 q-12 2 -26 4 q-14 2 -24 9 q-10 7 -20 17 q-5 6 -8 14 q-3 8 -5 16 l0 40 q4 16 9.5 31 q5.5 15 12.5 30 q7 15 12 30 q5 15 19 27 q6 4 12 5 q6 1 14 1 q6 -2 12 -8 q6 -6 8 -12 l0 -16 q-6 -10 -11 -22 q-5 -12 -11 -24 q-6 -12 -10 -24 q-4 -12 -8 -24 l0 -26 q4 -6 11 -7 q7 -1 13 -3 l22 0 l46 16 l2 2 l0 22 l2 2 l0 38 l2 2 l0 40 l6 40 l0 34 l6 34 l0 24 l2 2 l0 36 l2 14 q-10 6 -22 4 q-12 -4 -26 -6 q-14 -2 -28 -4 q-14 -2 -27 -4 q-13 -2 -27 -4 l-33 0 l-24 14 q-4 6 -5 12 q-1 6 -1 14 q2 6 8 12 q6 6 12 8 l17 0 l2 -2 l24 0 q32 4 66 10 q34 6 66 11 q32 5 66 9 q34 4 68 8 l60 0 q8 15 10 31 q2 16 5 32 q3 16 5 32 l-12 0 q-24 -10 -49 -18 q-25 -8 -50 -15 q-25 -7 -50 -14 q-25 -7 -53 -11 l-22 0 l-2 -2 l-24 0 q-16 2 -32 6 q-16 4 -30 12 q-14 8 -26 22 q-6 8 -11 16 q-5 8 -7 18 q-2 10 -4 20 q2 8 6 14 q4 6 10 12 q6 4 12 5 q6 1 14 1 q6 -2 12 -8 q6 -6 8 -12 l0 -22 q4 -8 12 -13 q8 -5 16 -9 l20 -4 l24 0 l2 2 l22 0 q38 8 75 19 q37 11 74 24 q37 13 73 24 q36 11 74 19 q6 -2 12 -8 q6 -6 8 -12 l0 -16 q-4 -10 -14 -16 q-10 -6 -14 -15 q-4 -9 -10 -19 q-4 -14 -9 -28 q-5 -14 -7 -30 q-2 -16 -4 -30 l4 -5 l60 0 l2 -2 l35 0 q10 -2 20 -4 q10 -2 18 -12 q6 -6 6 -13 q0 -7 0 -15 q-2 -6 -8 -12 q-6 -6 -12 -8 l-18 0 l-10 6 l-31 0 l-2 2 l-78 0 l-2 -2 l-34 0 q-6 -4 -6 -11 q0 -7 0 -13 l2 -2 l0 -48 l2 -2 l0 -144 l8 0 q24 10 48 18 q24 8 48 16 q24 8 47.5 19 q23.5 11 49.5 15 q6 -2 12 -8 q6 -6 8 -12 l0 -18 q-10 -14 -16 -30 q-6 -16 -11 -32 q-5 -16 -9 -33 q-4 -17 -8 -33 l0 -22 q-2 -12 -3 -24 q-1 -12 -11 -20 q-6 -4 -12 -5 q-6 -1 -15 -1 q-6 2 -12 8 q-6 6 -8 12 l0 28 l2 2 l0 22 l14 76 l-6 2 l-126 -48 l-2 -2 l0 -189 l-2 -2 l0 -20 l-2 -2 l0 -20 l4 -4 l60 0 l2 -2 l44 0 l2 -2 l22 0 l99 -16 l20 0 q10 -2 19 -4 q9 -2 19 -5 q10 -3 16 -11 q6 -6 6 -13 q0 -7 0 -15 q-2 -6 -8 -12 q-6 -6 -12 -8 l-16 0 q-16 8 -34 10 q-18 2 -36 5 q-18 3 -36 6 q-18 3 -37 5 l-22 0 l-2 2 l-44 0 l-2 2 l-164 0 l-2 -2 l-56 0 l-2 -2 l-26 0 l-2 -2 l-26 0 l-2 -2 l-26 0 l-2 -2 l-24 0 l-2 -2 l-24 0 l-2 -2 l-20 0 l-2 -2 l-20 0 l-2 -2 l-43 0 q-12 -2 -25 -4 q-13 -2 -26 -6 q-13 -4 -25 -8 l-22 0 ZM557 36 q6 4 4 11 q-2 7 2 13 l0 20 l2 2 l0 161 l-8 4 l-100 -46 l-2 -2 l0 -38 l2 -2 l0 -30 l2 -2 l0 -25 l2 -2 l0 -20 l2 -2 l0 -40 l6 -6 l48 0 l2 2 l36 0 l2 2 ZM561 313 l4 4 l0 26 l2 2 l0 140 l-2 2 l0 48 l-6 24 l-6 2 l-76 -12 l-2 -2 l0 -22 l-2 -2 l0 -36 l-2 -2 l0 -24 l-6 -34 l0 -34 l-6 -40 l0 -40 l-2 -2 l0 -42 l8 0 l96 44 Z" /><glyph glyph-name="" unicode="&#x4e2d;" d="M499 -90 q-8 4 -13 9 q-5 5 -9 13 l-2 8 l0 26 l2 2 l0 112 l-2 2 l0 107 l2 2 l0 90 q-8 10 -22 6 q-22 -4 -44 -6 q-22 -2 -81 -9 q-59 -7 -80 -12 q-21 -5 -43 -9 l-22 0 q-9 -4 -18 -8 q-9 -4 -19 -2 q-10 6 -20 11 q-10 5 -14 17 l0 16 l8 14 l0 56 q4 30 9 59 q5 29 10 59 q5 30 13 58 q8 28 16 56 l0 22 l13 23 q6 4 12 5 q6 1 14 1 q6 -2 12 -8 q6 -6 8 -12 l0 -39 l-2 -10 l12 0 q22 8 82 18 q60 10 82 15 q22 5 45 9 q23 4 45 12 l2 3 l0 98 l-10 48 l12 22 q6 4 12 5 q6 1 14 1 q6 -2 12 -8 q6 -6 8 -12 l10 -56 l0 -88 l10 -6 l2 2 l95 8 l84 2 q16 -4 32 -8.5 q16 -4.5 30 -11.5 q14 -7 27 -18 q13 -11 25 -23 q11 -10 17 -22 q6 -12 10 -25 q4 -13 6 -27 q2 -14 6 -28 l0 -42 l2 -2 l0 -50 l2 -2 l0 -22 l2 -2 l0 -22 l-14 -30 l-20 -8 l-328 -10 l-6 -6 l0 -92 l-2 -2 l0 -107 l2 -2 l0 -150 q-2 -6 -8 -12 q-6 -6 -12 -8 l-16 0 ZM477 347 l6 10 l0 32 l2 2 l0 34 l2 2 l0 36 l2 2 l0 30 l2 2 l0 32 l2 2 l0 24 l-16 4 q-24 -6 -49 -11 q-25 -5 -87 -16 q-62 -11 -86 -18 q-24 -7 -48 -17 q-6 -16 -9 -34 q-3 -18 -6 -36 q-3 -18 -5 -36 q-2 -18 -6 -36 l0 -42 l4 -4 l20 0 q22 6 43 10 q21 4 81 11 q60 7 82 9 q22 2 44 6 l20 0 l2 2 ZM838 359 l4 4 l0 20 l-2 2 l0 50 l-2 2 l0 42 q-4 16 -8 31 q-4 15 -12 28 q-8 13 -22 23 q-8 6 -18 10 q-10 4 -19 7 q-9 3 -19 5 l-88 -3 l-87 -7 l-10 -6 l-4 -6 l0 -30 l-2 -2 l0 -32 l-2 -2 l0 -30 l-2 -2 l0 -36 l-2 -2 l0 -34 l-2 -2 l0 -38 l4 -4 l291 10 l2 2 Z" /><glyph glyph-name="" unicode="&#x4e3b;" d="M890 -34 q-50 12 -104.5 19 q-54.5 7 -108.5 13 l-244 0 q-76 -2 -151.5 -9 q-75.5 -7 -151.5 -13 l-22 12 q-8 10 -6 26 q6 14 20 20 q86 8 174.5 14 q88.5 6 176.5 8 l0 24 q-6 48 -8 97 l0 106 l-6 0 q-46 -6 -92 -11 q-46 -5 -92 -11 l-23 12 q-8 12 -6 28 q6 14 21 20 l22 0 l6 -2 q42 8 86 12 q44 4 88 10 q4 52 8 105 q4 53 6 107 l-22 0 l-198 -20 l-23 12 q-8 12 -6 28 q6 14 20 20 l17 0 l12 -2 q54 6 106 13 q52 7 106 9 l210 0 q14 -6 20 -20 l0 -16 q-6 -14 -20 -20 l-10 -2 l-154 0 l-14 -208 l8 0 l38 4 l126 0 q24 0 40 -18 q8 -10 6 -26 q-6 -14 -20 -20 l-20 0 l-8 6 l-124 0 l-50 -4 l0 -112 l8 -121 l146 0 q60 -6 122.5 -14 q62.5 -8 118.5 -28 q8 -10 6 -26 q-6 -14 -20 -20 l-14 -2 ZM569 734 q-38 12 -78 18 q-40 6 -76 24 q-8 10 -6 26 q6 14 20 20 l22 0 q36 -12 75 -18 q39 -6 73 -22 q8 -12 6 -28 q-6 -14 -20 -20 l-16 0 Z" /><glyph glyph-name="" unicode="&#x4e4f;" d="M914 -82 q-78 18 -155.5 46 q-77.5 28 -149.5 64 q-72 36 -149 64.5 q-77 28.5 -153 54.5 q-14 -12 -29 -23 q-15 -11 -30.5 -21.5 q-15.5 -10.5 -31.5 -18.5 q-16 -8 -36 -8 l-24 14 l-8 23 l10 60 q-6 10 -11 20 q-5 10 -3 22 q2 6 8 12 q6 6 12 8 l20 0 q14 -4 28 -7 q14 -3 28 -5 q14 -2 28.5 -5 q14.5 -3 28.5 -3 q34 34 69 69 q35 35 66 73 q31 38 65 73 q34 35 66 71 q-8 6 -20 4 l-34 -6 l-30 0 q-30 -6 -61 -12 q-31 -6 -61 -14 q-30 -8 -59 -16 q-29 -8 -62 -12 l-22 12 q-4 6 -5 12 q-1 6 -1 14 q4 8 9 13 q5 5 13 9 l22 0 q29 8 57 16 q28 8 56 14 q28 6 57 11 q29 5 57 11 l22 0 l2 8 q-10 14 -20 27 q-10 13 -19 26.5 q-9 13.5 -19 27.5 l0 22 l-12 0 q-22 -8 -44 -15 q-22 -7 -45 -13 q-23 -6 -46 -14.5 q-23 -8.5 -48 -10.5 q-6 2 -12 8.5 q-6 6.5 -8 12.5 l0 16 l18 20 q55 16 108 33 q53 17 107 33 q54 16 108 31 q54 15 108 27 l20 0 q6 -2 12 -8 q6 -6 8 -12 l0 -16 q-4 -8 -9 -13 q-5 -5 -13 -9 q-26 -4 -52 -10 q-26 -6 -52 -13 q-26 -7 -51 -15 q-25 -8 -51 -14 l-2 -6 q14 -14 24 -30 q10 -16 22 -31.5 q12 -15.5 25 -29.5 q13 -14 29 -26 l92 0 q8 -4 13 -9 q5 -5 9 -13 l0 -16 q-2 -6 -8 -12 q-6 -6 -12 -8 q-14 0 -27 -4 q-13 -4 -24 -13 q-11 -9 -21 -21 q-28 -34 -62 -67 q-34 -33 -62 -69 q-28 -36 -61 -69 q-33 -33 -63 -67 q72 -30 146 -57.5 q74 -27.5 143 -64.5 q69 -37 144.5 -60 q75.5 -23 149.5 -47 q4 -6 5 -12 q1 -6 1 -14 q-4 -8 -9 -13 q-5 -5 -13 -9 l-16 0 ZM226 159 l2 8 l-6 0 l-4 -8 l6 -2 l2 2 Z" /><glyph glyph-name="" unicode="&#x4e57;" d="M519 -100 l-22 10 q-18 40 -12 92 l4 46 l0 165 l-4 0 q-48 -44 -115.5 -123 q-67.5 -79 -111.5 -125 l-16 0 q-14 6 -20 20 l0 20 q30 41 89.5 107.5 q59.5 66.5 91.5 106.5 l-12 0 q-32 -6 -90 -13 q-58 -7 -90 -15 l-23 12 q-8 10 -6 26 q6 14 20 20 q109 16 168 24 q59 8 117 18 l0 52 l-4 50 l-22 0 l-122 -12 l0 -14 q12 -38 20 -76 q-6 -14 -20 -20 l-16 0 l-20 16 q-20 40 -22 86 l-4 0 q-41 -6 -80 -16 q-39 -10 -77 -20 l-22 12 q-8 10 -6 26 q6 14 20 20 q40 12 83 21 q43 9 88 15 q-2 44 16 80 q10 8 26 6 q14 -6 20 -20 l0 -28 l-4 -30 l6 0 l136 12 l2 100 l-4 0 q-62 -4 -107 -9 q-45 -5 -145 -15 q-16 0 -27 14 q-8 10 -6 26 q6 14 21 20 l18 0 l10 -2 l244 25 l2 24 l0 110 q-46 4 -92 5 q-46 1 -88 15 q-8 12 -6 28 q6 14 20 20 l16 0 q110 -6 218 -17 q108 -11 211 -45 q8 -10 6 -26 q-6 -14 -21 -20 l-20 0 q-44 14 -91 21 q-47 7 -95 11 l-2 -118 l20 0 l58 6 l196 4 q24 -2 42 -18 q8 -13 6 -31 q-6 -14 -20 -20 l-16 0 l-20 10 l-188 -4 l-78 -8 q-4 -24 -4 -51 q0 -27 -2 -53 l14 0 l122 4 q4 20 8 42 l-2 18 q6 14 20 20 l20 0 q14 -6 20 -20 l0 -38 l-4 -22 l155 0 q22 -2 38 -14 q8 -12 6 -28 q-6 -14 -20 -20 l-16 0 l-8 4 l-181 0 q-14 -44 -36 -84 l-8 -4 l0 -4 l24 0 l2 2 l129 -4 l18 -12 q8 -10 6 -26 q-6 -14 -20 -20 l-133 4 q-38 -2 -75 -4 q-37 -2 -73 -6 l0 -193 l-4 -98 q10 -12 8 -28 q-6 -14 -20 -20 l-12 -2 ZM834 -24 q-56 28 -117.5 43 q-61.5 15 -121.5 31 q-8 12 -6 28 q6 15 20 21 l26 0 q60 -13 118.5 -28 q58.5 -15 110.5 -49 q8 -10 6 -26 q-6 -14 -20 -20 l-16 0 ZM651 309 q-14 6 -20 20 l0 20 l18 50 l-46 0 l-62 -4 l0 -16 l4 -80 l12 0 l94 10 Z" /><glyph glyph-name="" unicode="&#x4e59;" d="M822 -84 q-77 24 -154 47 q-77 23 -152 49 q-75 26 -151 53 q-76 27 -139 80 q-6 8 -12 16 q-6 8 -10 17 q-4 9 -6 19 l0 28 q2 20 11 36 q9 16 21 32 q12 16 26.5 30 q14.5 14 28.5 28 q38 32 78 63 q40 31 80 62 q40 31 80 61 q40 30 72 70 l0 6 l-16 15 l-60 14 l-104 0 q-28 -4 -55 -8 q-27 -4 -54 -10.5 q-27 -6.5 -53.5 -14.5 q-26.5 -8 -52.5 -14 l-22 12 q-4 6 -5 12.5 q-1 6.5 -1 14.5 q2 6 8 12 q6 6 12 8 q26 8 53.5 16 q27.5 8 56.5 13 q29 5 56 9 q27 4 57 8 l104 0 q16 -2 33 -5 q17 -3 33 -7 q16 -4 30 -13 q14 -9 26 -23 q6 -6 8 -13 q2 -7 4 -16 l0 -24 q-2 -14 -10 -26 q-8 -12 -17 -23 q-9 -11 -21 -21 q-46 -36 -91 -70 q-45 -34 -91 -70 q-46 -36 -90 -73 q-44 -37 -74 -87 l-2 -24 q4 -12 14 -22 q10 -10 21 -17 q11 -7 22 -13 q11 -6 23 -12 q64 -26 129 -49.5 q65 -23.5 131 -44.5 q66 -21 132.5 -41 q66.5 -20 130.5 -42 q6 -6 6 -13 q0 -7 0 -15 q-2 -6 -8 -12 q-6 -6 -12 -8 l-24 0 Z" /><glyph glyph-name="" unicode="&#x4e5d;" d="M833 -33 q-70 6 -140.5 19 q-70.5 13 -122.5 63 q-20 26 -24 58.5 q-4 32.5 -2 68.5 q12 72 43 139 q31 67 37 141 l-20 32 q-26 20 -60 22 q-34 2 -70 0 l-98 -20 q-40 -120 -80 -238 q-40 -118 -65 -241 q-10 -8 -26 -6 q-14 6 -20 20 l0 22 q16 109 50.5 213 q34.5 104 70.5 208 l-8 0 q-34 -8 -67.5 -23 q-33.5 -15 -67.5 -23 q-14 6 -20 20 l0 18 l16 20 q40 18 83.5 32 q43.5 14 87.5 26 q24 56 46 112.5 q22 56.5 50 110.5 q10 8 26 6 q14 -6 20 -20 l0 -22 q-18 -42 -36 -84.5 q-18 -42.5 -32 -84.5 l8 0 l62 12 l82 0 q30 -6 57 -18 q27 -12 49 -38 q14 -20 18 -46 q4 -26 2 -54 q-20 -74 -51 -144 q-31 -70 -29 -150 q4 -23 22 -41 q56 -36 121.5 -42 q65.5 -6 127.5 -22 q8 -10 6 -26 q-6 -14 -20 -20 l-26 0 Z" /><glyph glyph-name="" unicode="&#x4e71;" d="M960 -32 q-44 16 -89 29 q-45 13 -89.5 27 q-44.5 14 -88.5 33 q-44 19 -76 56 q-8 10 -16 22 q-8 12 -12 24 q-4 12 -7 25 q-3 13 -5 27 l0 26 l2 2 l0 28 q8 66 25 130 q17 64 36 128 q19 64 39 128.5 q20 64.5 42 126.5 q6 4 12 5 q6 1 14 1 q6 -2 12 -8 q6 -6 8 -12 l0 -28 q-18 -58 -37 -116.5 q-19 -58.5 -36 -117.5 q-17 -59 -33 -118 q-16 -59 -24 -119 l0 -28 l-2 -2 l0 -26 q4 -14 9 -28 q5 -14 14 -27 q9 -13 21 -23 q36 -23 76.5 -38 q40.5 -15 80.5 -27 q40 -12 80 -23 q40 -11 78 -31 q4 -6 5 -12 q1 -6 1 -14 q-2 -6 -8 -12 q-6 -6 -12 -8 l-20 0 ZM114 16 q-6 2 -12 8 q-6 6 -8 12 l-2 8 l0 58 q6 29 11 59 q5 30 15 58 q10 28 19 57 q9 29 27 53 l6 4 l20 0 l20 -10 l55 14 l8 22 l0 22 l2 2 l0 24 l2 2 l0 20 l-10 6 q-19 -2 -37 -4 q-18 -2 -36 -4 q-18 -2 -36 -6 q-18 -4 -36 -6 l-22 0 l-38 -6 l-22 12 q-4 6 -5 12 q-1 6 -1 14 q2 6 8 12 q6 6 12 8 l46 6 l22 0 q20 2 40 6 q20 4 41 7 q21 3 41.5 4 q20.5 1 40.5 7 l8 42 l0 22 l12 58 l0 29 q-18 6 -39.5 9 q-21.5 3 -41.5 6 q-20 3 -40 6 q-20 3 -36 17 q-4 6 -5 12 q-1 6 -1 14 q2 6 8 12 q6 6 12 8 l18 0 q22 -8 45 -11 q23 -3 45.5 -6 q22.5 -3 46.5 -6 q24 -3 46 -7 l28 0 q14 -2 29 -5 q15 -3 30 -5 q15 -2 29 -8 q14 -6 26 -16 q4 -6 5 -12 q1 -6 1 -14 q-2 -6 -8 -12.5 q-6 -6.5 -12 -8.5 l-20 0 q-12 9 -25 13 q-13 4 -27 6 q-14 2 -28 4 l-22 0 q-6 -12 -7 -27.5 q-1 -15.5 -4 -28.5 q-3 -13 -7 -27 l0 -22 l-6 -32 l6 -6 l156 0 q10 -2 20 -4 q10 -2 16 -12 q4 -6 5 -12 q1 -6 1 -14 q-2 -6 -8 -12 q-6 -6 -12 -8 l-16 0 l-6 4 l-160 0 l-10 -4 l-2 -6 l0 -24 l-2 -2 l0 -24 l-2 -2 l0 -22 l-2 -14 l4 -4 l48 0 q16 -2 30 -6 q14 -4 27 -11 q13 -7 25 -19 q8 -12 14 -24 q6 -12 10 -24 q4 -12 6 -26 l0 -76 q-2 -12 -3 -26 q-1 -14 -4 -27.5 q-3 -13.5 -3 -26.5 q0 -13 -12 -23 q-8 -6 -18 -7 q-10 -1 -18 -9 q-8 -8 -18 -8 l-118 0 l-2 -2 l-26 0 l-2 -2 l-27 0 l-2 -2 l-26 0 l-2 -2 l-22 0 l-22 -4 l-54 0 ZM423 88 q4 10 6 21.5 q2 11.5 3 22.5 q1 11 3 23 l0 72 l-22 44 l-32 12 l-72 0 q-14 -2 -28 -5 q-14 -3 -29.5 -5 q-15.5 -2 -29.5 -6 q-14 -4 -26 -10 q-8 -18 -15 -37 q-7 -19 -13 -38 q-6 -19 -10 -39 q-4 -20 -8 -41 l0 -22 q6 -8 18 -6 l22 4 l22 0 l2 2 l26 0 l2 2 l27 0 l2 2 l26 0 l2 2 l122 0 l2 2 Z" /><glyph glyph-name="" unicode="&#x4e88;" d="M513 -96 q-6 2 -12 8 q-6 6 -8 12 l0 20 l4 14 l0 24 l2 2 l0 28 l6 36 l0 34 l2 2 l0 39 l2 2 l0 38 l2 2 l0 150 l-2 2 l0 30 q-2 12 -4 25 q-2 13 -6 26 q-4 13 -10 24 q-6 11 -12 23 l-16 2 q-38 -8 -76 -18 q-38 -10 -76 -19 q-38 -9 -75.5 -21 q-37.5 -12 -75.5 -20 l-22 12 q-4 6 -5 12 q-1 6 -1 14 q2 6 8 12 q6 6 12 8 q44 12 89.5 25 q45.5 13 90.5 24 q45 11 90 21 q45 10 91 18 l0 8 q-18 8 -36 18 q-18 10 -35 21 q-17 11 -36 19 q-19 8 -37 16 q-6 6 -6 13 q0 7 0 16 q2 6 8 12 q6 6 12 8 l24 0 q14 -4 27 -11 q13 -7 26 -15.5 q13 -8.5 26 -15.5 q13 -7 27 -13 q20 22 43 41.5 q23 19.5 45 37.5 q22 18 44 38 q22 20 38 44 l0 8 l-20 8 l-70 0 l-2 -2 l-22 0 l-2 -2 l-22 0 q-34 -8 -68 -13 q-34 -5 -68 -13 q-34 -8 -67 -16 q-33 -8 -67 -14 q-6 2 -12.5 8 q-6.5 6 -8.5 12 l0 16 q5 8 10 13 q5 5 13 9 q34 8 67 17 q33 9 66 15 q33 6 67 12 q34 6 68 12 l22 0 l2 2 l22 0 l2 2 l72 0 q12 -4 25 -6 q13 -2 24 -8 q11 -6 21 -16 l10 -16 l0 -36 q-10 -28 -33 -52 q-23 -24 -47 -44 q-24 -20 -48 -40.5 q-24 -20.5 -48 -42.5 l0 -10 q8 -4 15 -8 q7 -4 13 -11 q6 -7 16 -7 l18 4 l30 0 l2 2 l106 0 q21 -4 42 -7 q21 -3 41 -7 q20 -4 38 -13 q18 -9 34 -21 l16 -24 l0 -32 q-14 -28 -39 -45 q-25 -17 -49 -34 q-24 -17 -49 -33 q-25 -16 -52 -28 l-24 -2 q-6 2 -12 8 q-6 6 -8 12 l0 16 q16 20 39 30 q23 10 45.5 25 q22.5 15 43.5 29 q21 14 41 32 l0 6 q-12 8 -24 13 q-12 5 -26 8 q-14 3 -28 5 q-14 2 -29 4 l-106 0 l-2 -2 l-30 0 l-88 -14 l-2 -6 q6 -12 11 -25 q5 -13 7 -27 q2 -14 5 -28 q3 -14 5 -28 l0 -30 l2 -2 l0 -150 l-2 -2 l0 -38 l-2 -2 l0 -39 l-2 -2 l0 -34 l-6 -36 l0 -28 l-2 -2 l0 -24 q-2 -8 -3 -17 q-1 -9 -3 -17 q-2 -8 -10 -14 q-6 -4 -12 -5 q-6 -1 -14 -1 Z" /><glyph glyph-name="" unicode="&#x4e89;" d="M497 -128 q-14 6 -20 20 l-2 14 q10 36 10 76 l0 139 l-2 32 l-6 0 q-50 -10 -97 -25 q-47 -15 -97 -24 l-22 13 q-9 10 -7 26 q7 14 21 20 q52 10 102 25 q50 15 104 23 l0 28 l-6 60 l-12 0 q-80 -12 -160.5 -26 q-80.5 -14 -156.5 -44 q-14 6 -20 20 l0 16 q12 22 34 30 q74 26 151.5 38 q77.5 12 155.5 24 l0 8 l-20 74 l-8 2 q-46 -12 -90 -27 q-44 -15 -90 -25 l-23 12 q-8 10 -6 26 q6 14 20 20 q63 16 124 36 q61 20 125 28 q4 34 14 65 q10 31 18 64 l-4 0 q-50 -21 -100 -38 q-50 -17 -108 -19 q-36 2 -62 28 q-15 17 -13 39 q8 50 36.5 91 q28.5 41 62.5 81 q18 14 44 12 q14 -6 20 -20 l0 -16 q-6 -14 -20 -20 q-10 0 -16 -10 q-22 -28 -40 -57 q-18 -29 -26 -63 q16 -8 38 -6 q68 14 132 42 q64 28 132 44 q14 -6 20 -20 l0 -16 l-12 -16 l-4 0 q-18 -38 -31 -79.5 q-13 -41.5 -25 -83.5 q46 2 85 -10 q39 -12 69 -46 q22 -28 24 -66 l4 0 q41 6 81 8 q40 2 82 2 q18 -2 32 -16 q8 -14 6 -32 q-6 -14 -20 -20 l-16 0 q-28 16 -64 10 l-105 -10 q-6 -34 -10 -69 q-4 -35 -20 -65 l-12 -8 q2 -18 -12 -28 q-18 -10 -42 -10 q-46 6 -96 6 l0 -36 l2 -2 l0 -139 q-2 -28 -5 -55 q-3 -27 -15 -49 q-10 -8 -26 -6 ZM657 215 l0 18 l16 94 l-10 0 l-132 -18 l0 -10 l8 -82 q28 2 54 -1 q26 -3 52 -5 l12 4 ZM675 385 l0 10 q-4 20 -20 34 q-28 20 -60 26 l-84 0 l-4 -8 l16 -82 l6 0 l146 20 Z" /><glyph glyph-name="" unicode="&#x4e8b;" d="M458 -104 l-14 8 q-10 12 -8 30 q12 34 17 92 q5 58 9 96 l-40 0 l-72 -2 q-38 -4 -64 20 l-8 25 l12 22 q10 8 26 6 q20 -16 48 -15 q28 1 56 1 l48 2 l6 94 l-18 0 q-84 -8 -171.5 -16 q-87.5 -8 -187.5 -20 l-22 12 q-8 10 -6 26 q6 14 20 20 q108 12 202.5 21 q94.5 9 184.5 15 l0 68 l-40 4 l-82 0 l-60 -6 l-22 12 q-8 10 -6 26 q6 14 20 20 l68 6 l82 0 l36 -4 l0 44 l-52 0 q-44 -6 -89 -9 q-45 -3 -87 -13 q-14 6 -20 20 l0 18 q12 44 38 81 q26 37 56 74 q16 14 38 10 q12 -12 28 -10 q38 6 78 10 l0 20 l-2 14 l-40 0 q-54 -4 -107 -11 q-53 -7 -106 -15 l-22 12 q-8 10 -6 26 q6 14 20 20 q63 10 124 17 q61 7 125 9 l0 6 q-10 30 -14 62 l12 22 q10 8 26 6 q14 -6 20 -20 l14 -76 l176 0 q30 -4 60.5 -5 q30.5 -1 56.5 -15 q8 -10 6 -26 q-6 -14 -20 -20 l-26 0 l-77 8 l-164 0 l0 -12 l2 -22 q68 0 112 -9 q44 -9 80 -40 q20 -32 14 -74 q-10 -40 -26 -78 q-12 -8 -30 -6 q-26 16 -58 19 q-32 3 -82 7 l0 -40 l4 -16 q52 -8 80 -27 q28 -19 54 -45 l36 -50 q63 -6 125 -11 q62 -5 120 -19 q8 -10 6 -26 q-6 -14 -20 -20 l-20 -2 l-193 18 l0 -6 l2 -66 q-2 -28 -18 -51 q-40 -8 -82 -10 q-42 -2 -104 -6 q-4 -48 -11 -115 q-7 -67 -25 -109 q-10 -8 -26 -6 ZM666 193 l0 64 l-4 14 l-22 4 l-108 0 l-6 -90 l14 0 l126 8 ZM626 335 q-32 34 -92 48 l0 -50 l90 0 l2 2 ZM660 547 l0 4 q10 20 8 44 q-26 18 -57 25 q-31 7 -85 5 l0 -58 l2 -6 q28 -2 66 -6 q38 -4 66 -8 ZM470 561 l0 4 l-2 60 l-20 0 l-108 -16 q-24 -28 -38 -60 l10 0 q38 4 78 8 q40 4 80 4 Z" /><glyph glyph-name="" unicode="&#x4e8c;" d="M114 46 q-6 2 -12 8 q-6 6 -8 12 l0 17 q4 8 10 14 q6 6 14 10 q22 4 43 7 q21 3 43 6 q22 3 43.5 7 q21.5 4 43.5 6 l200 12 l2 2 l156 0 l2 -2 l44 0 l2 -2 l44 0 l2 -2 l39 0 q22 -4 45 -6 q23 -2 46 -6 q23 -4 45 -8 q22 -4 40 -18 q4 -6 5 -12 q1 -6 1 -14 q-2 -7 -8 -13 q-6 -6 -12 -8 l-20 0 q-16 6 -34 10 q-18 4 -36 6.5 q-18 2.5 -36 5.5 q-18 3 -36 5 l-39 0 l-2 2 l-44 0 l-2 2 l-44 0 l-2 2 l-156 0 l-2 -2 l-200 -12 q-22 -2 -44.5 -6.5 q-22.5 -4.5 -44.5 -7.5 q-22 -3 -44 -8 q-22 -5 -44 -7 ZM252 573 q-6 2 -12 8 q-6 6 -8 12 l0 18 q2 6 8 12 q6 6 12 8 q39 6 75 12.5 q36 6.5 73 11.5 q37 5 74 8 q37 3 163 13 l58 0 l2 2 l60 0 l26 -14 q4 -6 5 -12.5 q1 -6.5 1 -14.5 q-2 -6 -8 -12 q-6 -6 -12 -8 l-16 0 l-2 2 l-54 0 l-2 -2 l-58 0 q-124 -10 -162 -13 q-38 -3 -75 -8 q-37 -5 -73 -11 q-36 -6 -75 -12 Z" /><glyph glyph-name="" unicode="&#x4e91;" d="M866 -42 q-22 12 -37 31 q-15 19 -26 40 q-11 21 -22 43 q-11 22 -24 43 q-8 26 -18 53 q-10 27 -17 54 q-7 27 -14 55 q-7 28 -11 56 l12 22 q6 4 12 5 q6 1 14 1 q6 -2 12 -8 q6 -6 8 -12 q6 -44 18.5 -86 q12.5 -42 27.5 -84 q15 -42 36 -81.5 q21 -39.5 49 -75.5 l16 -18 l0 -18 q-2 -6 -8 -12 q-6 -6 -12 -8 l-16 0 ZM353 -6 q-10 2 -19 4 q-9 2 -18 7 q-9 5 -15 13 q-6 8 -8 18 q-2 10 -2 20 q14 52 44 95.5 q30 43.5 62 84.5 q32 41 65 83 q33 42 65 82 l-16 2 q-50 -8 -98 -28 q-48 -20 -96 -39 q-48 -19 -95.5 -42 q-47.5 -23 -95.5 -37 q-6 2 -12 8 q-6 6 -8 12 l0 16 q6 14 18 20 q12 6 23 12 q11 6 23 12 q42 18 84.5 36 q42.5 18 83.5 36 q41 18 84 33 q43 15 89 19 l60 0 l26 -18 l6 -10 l0 -22 q-24 -48 -62 -88 q-38 -40 -71 -84 q-33 -44 -65 -87.5 q-32 -43.5 -52 -95.5 q8 -6 18 -4 q36 6 70 19 q34 13 69 26 q35 13 71 23.5 q36 10.5 72 16.5 l28 0 q6 -2 12 -8 q6 -6 8 -12 l0 -19 q-4 -8 -9 -13 q-5 -5 -13 -9 l-18 0 l-8 2 q-38 -8 -75 -20 q-37 -12 -73 -26 q-36 -14 -74 -25 q-38 -11 -78 -13 ZM643 605 q-40 12 -80 23.5 q-40 11.5 -78 25.5 q-38 14 -77 30 q-39 16 -77 32 q-4 6 -5 12 q-1 6 -1 14 q2 6 8 12 q6 6 12 8 l22 0 q38 -12 76 -28 q38 -16 76 -30 q38 -14 78 -23 q40 -9 76 -27 q6 -6 6 -13 q0 -7 0 -15 q-2 -7 -8 -13 q-6 -6 -12 -8 l-16 0 Z" /><glyph glyph-name="" unicode="&#x4e94;" d="M893 -3 q-48 10 -98 17 q-50 7 -103 9 l-194 0 l-50 -4 l-86 0 q-64 -2 -127.5 -5 q-63.5 -3 -125.5 -11 q-14 6 -20 20 l0 16 l8 14 q48 14 100.5 17 q52.5 3 104.5 5 l0 4 q-12 12 -8 32 q36 73 67 146 q31 73 51 147 l-20 0 q-36 -4 -71 -11 q-35 -7 -71 -13 q-14 6 -20 20 l0 16 l16 20 q46 12 93 19 q47 7 95 11 q16 54 37 106 q21 52 37 107 l-54 0 q-50 -4 -101 -10 q-51 -6 -101 -10 l-22 12 q-9 10 -7 26 q7 14 21 20 q72 6 143 13 q71 7 143 9 l223 0 l20 -12 q8 -10 6 -26 q-6 -14 -20 -20 l-189 0 q-14 -57 -36 -109 q-22 -52 -36 -108 q56 -2 106 -18 q50 -16 90 -54 q34 -38 40 -88 l0 -90 l-20 -135 q55 -4 110 -11 q55 -7 103 -25 q8 -10 6 -26 q-6 -14 -20 -20 l-20 0 ZM656 81 l0 12 l20 121 l0 90 q-8 32 -32 56 q-38 24 -80 37 q-42 13 -90 9 q-22 -86 -56 -169 q-34 -83 -76 -162 l18 0 l2 2 l86 0 l50 4 l158 0 Z" /><glyph glyph-name="" unicode="&#x4ea1;" d="M759 -72 q-60 20 -121 32 q-61 12 -123 21 q-62 9 -124 20 q-62 11 -110 56 q-8 10 -14 19 q-6 9 -11.5 19 q-5.5 10 -7.5 22 l0 20 l-2 2 l0 26 l2 2 l0 26 q9 36 19 72 q10 36 19 71 q9 35 24 70 q15 35 29 69 l-28 0 l-155 -20 l-22 0 l-22 -4 l-28 0 l-22 12 q-4 6 -5 12 q-1 6 -1 14 q2 6 8 12 q6 6 12 8 l36 0 l22 4 l22 0 l155 20 l24 0 l2 2 l24 0 l112 14 l28 0 l2 2 l26 0 l2 2 l54 0 l2 2 l54 0 l2 3 l191 0 l2 -3 l34 0 l32 -6 l22 0 q10 -2 19 -4 q9 -2 19 -5 q10 -3 16 -11 q4 -6 5 -12 q1 -6 1 -14 q-2 -6 -8 -12 q-6 -6 -12 -8 l-20 0 q-12 6 -24 7 q-12 1 -25 3 q-13 2 -25 4 l-34 0 l-2 2 l-191 0 l-2 -2 l-54 0 l-2 -2 l-54 0 l-2 -2 l-26 0 l-2 -2 l-28 0 l-60 -10 q-18 -34 -35 -69 q-17 -35 -29 -73 q-12 -38 -22 -75 q-10 -37 -20 -75 l0 -22 l-2 -2 l0 -26 q2 -12 6 -21 q4 -9 10 -18 q6 -9 16 -17 q54 -24 113 -33.5 q59 -9.5 117 -18.5 q58 -9 115 -21 q57 -12 112 -36 q4 -6 5 -12 q1 -6 1 -14 q-2 -6 -8 -12 q-6 -6 -12 -8 l-21 0 ZM587 604 q-20 14 -40 26 q-20 12 -40 24 q-20 12 -40 26 q-20 14 -34 34 l0 16 q2 6 8 12 q6 6 12 8 l16 0 q20 -14 39 -28 q19 -14 40 -25 q21 -11 41 -24 q20 -13 34 -33 l0 -16 q-2 -6 -8 -12 q-6 -6 -12 -8 l-16 0 Z" /><glyph glyph-name="" unicode="&#x4ea4;" d="M801 -73 q-77 72 -159 134.5 q-82 62.5 -168 116.5 q-52 -58 -105 -115.5 q-53 -57.5 -107 -111.5 l-16 0 q-15 6 -21 20 l0 16 q47 58 100 112.5 q53 54.5 99 114.5 q-24 16 -50 31 q-26 15 -52 27 q-8 10 -6 26 q6 14 20 20 l26 0 q28 -14 54 -30 q26 -16 52 -32 l114 124 q26 32 62 36 q14 -6 20 -20 l0 -16 q-38 -38 -75 -78 q-37 -40 -73 -80 q84 -56 167.5 -119.5 q83.5 -63.5 153.5 -139.5 l0 -16 q-6 -14 -20 -20 l-16 0 ZM193 290 q-14 6 -20 20 l-2 12 q46 74 113.5 137 q67.5 63 105.5 141 l-52 2 q-36 -6 -70.5 -14 q-34.5 -8 -68.5 -18 l-22 12 q-8 10 -6 27 q6 14 20 20 q48 14 98.5 24 q50.5 10 104.5 8 q26 -4 46 -24 q16 -22 12 -51 q-42 -82 -109 -150 q-67 -68 -124 -140 q-10 -8 -26 -6 ZM813 422 q-46 28 -94.5 53 q-48.5 25 -96.5 49 q-8 10 -6 26 q6 14 20 20 l20 0 q50 -22 97.5 -47 q47.5 -25 93.5 -55 q8 -10 6 -26 q-6 -14 -20 -20 l-20 0 ZM560 701 q-26 20 -55 33 q-29 13 -57 29 q-8 10 -6 26 q6 14 20 20 l24 0 q26 -14 54 -26 q28 -12 50 -36 q8 -10 6 -26 q-6 -14 -20 -20 l-16 0 Z" /><glyph glyph-name="" unicode="&#x4eab;" d="M482 -100 q-6 2 -12 8 q-6 6 -8 12 l0 16 q6 12 17 21 q11 9 21 19 q10 10 18 21 q8 11 14 23 l2 8 l0 42 l-6 6 l-102 0 l-2 -2 l-36 0 l-2 -2 l-32 0 l-2 -2 l-30 0 l-2 -2 l-24 0 l-2 -2 l-22 0 l-2 -2 l-32 0 l-19 -2 l-22 12 q-4 6 -5 12 q-1 6 -1 15 q2 6 8 12 q6 6 12 8 l25 0 l2 2 l32 0 l2 2 l22 0 l2 2 l24 0 l2 2 l30 0 l2 2 l32 0 l2 2 l36 0 l2 2 l88 0 l0 10 q-6 10 -15 19 q-9 9 -19 15 q-10 6 -20 12 q-6 0 -12 3 q-6 3 -10 7 q-4 6 -5 12 q-1 6 -1 14 q4 8 9 13 q5 5 13 9 l20 0 l46 -20 q16 6 33 12 q17 6 32 14 q15 8 32 15 q17 7 31 17 l2 8 l-54 10 l-134 0 l-174 -24 l-20 0 q-6 2 -12 8 q-6 6 -8 12 l0 16 l20 22 l20 0 q22 4 43 8 q21 4 43 6 q22 2 44 5 q22 3 44 5 l134 0 q16 -4 33 -5 q17 -1 33 -5 q16 -4 31 -10 q15 -6 27 -20 l6 -14 l0 -20 q-2 -12 -9 -20 q-7 -8 -15 -16 q-16 -12 -33 -22 q-17 -10 -34 -18 q-17 -8 -35 -16 q-18 -8 -36 -14 l0 -10 l16 -36 l6 -2 l120 0 l2 -2 l33 0 l2 -2 l28 0 l2 -2 l22 0 q10 -2 20 -3 q10 -1 20 -3 q10 -2 18 -10 q4 -6 5 -12.5 q1 -6.5 1 -14.5 q-2 -6 -8 -12 q-6 -6 -12 -8 l-22 0 l-22 4 l-22 0 l-2 2 l-28 0 l-2 2 l-33 0 l-2 2 l-108 0 l-6 -6 l0 -42 q-2 -16 -7 -32 q-5 -16 -16 -29 q-11 -13 -22 -26 q-11 -13 -25 -25 q-8 -6 -18 -12 q-10 -6 -22 -4 ZM308 389 l-22 12 q-4 6 -5 12 q-1 6 -1 14 l14 20 l0 32 q4 20 5 41 q1 21 6 40 q5 19 10 38.5 q5 19.5 9 39.5 l-8 4 l-40 -6 l-30 0 l-33 -6 l-20 0 l-52 -6 l-22 12 q-4 6 -5 12 q-1 6 -1 14 q2 6 8 12 q6 6 12 8 l26 0 l34 6 l20 0 l33 6 l30 0 l40 6 l20 0 l22 4 l20 0 l22 4 l22 0 l2 2 l22 0 l2 2 l22 0 l2 2 l22 0 l2 2 l22 0 l2 2 l22 0 l2 2 l48 0 l2 2 l201 0 l2 -2 l26 0 q14 -4 28 -5 q14 -1 29 -3 q15 -2 25 -12 q4 -6 5 -12 q1 -6 1 -14 q-2 -6 -8 -12 q-6 -6 -12 -8 l-22 0 l-46 8 l-26 0 l-2 2 l-201 0 l-2 -2 l-48 0 l-2 -2 l-22 0 l-2 -2 l-22 0 l-2 -2 l-22 0 l-2 -2 l-22 0 l-2 -2 l-22 0 l-2 -2 l-22 0 q-8 -10 -13 -20 q-5 -10 -7 -23 l14 0 l58 13 l32 0 l2 2 l102 0 q16 -4 32 -7.5 q16 -3.5 32 -9.5 q16 -6 30 -13 q14 -7 26 -23 l24 -42 l0 -20 l2 -2 l0 -34 l-2 -6 q9 -6 14 -15 q5 -9 3 -21 q-2 -6 -8.5 -12 q-6.5 -6 -12.5 -8 l-10 -2 l-174 0 l-2 -2 l-62 0 l-32 -6 l-28 0 l-2 -2 l-26 0 l-2 -2 l-22 0 l-2 -2 l-20 0 l-18 -4 l-20 0 ZM676 467 l2 10 l-2 2 l0 26 q-2 10 -7 18 q-5 8 -13 16 q-12 4 -23 9 q-11 5 -22 9 q-11 4 -23 6 l-102 0 l-2 -2 l-32 0 q-16 -2 -31 -6 q-15 -4 -32 -6 q-17 -2 -29 -12 l-8 -58 l0 -22 l14 -6 l2 2 l22 0 l2 2 l26 0 l2 2 l28 0 l32 6 l62 0 l2 2 l130 0 l2 2 ZM512 734 q-14 4 -27 7 q-13 3 -25 8 q-12 5 -24 13 q-12 8 -22 16 q-8 8 -14 18 q-6 10 -4 22 q2 6 8 12 q6 6 12 8 l18 0 q12 -10 25 -21 q13 -11 28 -16 q15 -5 31 -8 q16 -3 28 -13 q4 -6 5 -12 q1 -6 1 -14 q-2 -6 -8 -12 q-6 -6 -12 -8 l-20 0 Z" /><glyph glyph-name="" unicode="&#x4eba;" d="M914 -64 q-142 96 -281.5 200.5 q-139.5 104.5 -299.5 178.5 q-52 -122 -86 -199 q-34 -77 -55 -140 q-10 -8 -26 -6 q-14 6 -20 20 l-2 19 q115 288 201 456.5 q86 168.5 184 328.5 q10 8 26 6 q14 -6 20 -20 l0 -18 q-58 -94 -110 -193.5 q-52 -99.5 -100 -199.5 q156 -78 296.5 -184.5 q140.5 -106.5 286.5 -202.5 q8 -10 6 -26 q-6 -14 -20 -20 l-20 0 Z" /><glyph glyph-name="" unicode="&#x4eca;" d="M639 -50 l-14 8 q-20 34 -14 78 q8 52 26 100.5 q18 48.5 38 94.5 q-42 10 -88 6 q-74 -6 -145 -17 q-71 -11 -143 -27 q-14 6 -20 20 l0 16 l20 22 q86 20 175 32 q89 12 181 12 q40 -2 70 -26 q18 -18 12 -46 q-24 -52 -46 -105.5 q-22 -53.5 -22 -115.5 l6 -32 q-6 -14 -20 -20 l-16 0 ZM74 251 q-14 6 -20 20 l0 20 q94 144 211.5 270.5 q117.5 126.5 237.5 250.5 q18 16 42 12 q14 -6 20 -20 l0 -18 q-6 -14 -20 -20 l-10 -4 l-2 -8 q134 -68 251.5 -163.5 q117.5 -95.5 231.5 -191.5 l0 -16 q-6 -14 -20 -20 l-18 0 q-118 94 -235.5 188.5 q-117.5 94.5 -255.5 156.5 q-106 -107 -206.5 -217 q-100.5 -110 -180.5 -234 q-10 -8 -26 -6 ZM673 373 q-74 28 -151 46 q-77 18 -153 30 q-8 10 -6 26 q6 14 20 20 l50 0 q70 -10 139 -27 q69 -17 131 -49 q8 -10 6 -26 q-6 -14 -20 -20 l-16 0 Z" /><glyph glyph-name="" unicode="&#x4ecb;" d="M603 -102 q-6 2 -12 8 q-6 6 -8 12 l0 20 q6 10 9 20 q3 10 8 20 q5 10 7 20 l0 179 l2 2 l0 64 l2 2 l0 30 l2 2 l0 110 l-2 2 l0 32 l-8 32 l12 22 q6 4 12 5 q6 1 14 1 q6 -2 12 -8 q6 -6 8 -12 l8 -38 l0 -34 l2 -2 l0 -110 l-2 -2 l0 -30 l-2 -2 l0 -64 l-2 -2 l0 -179 q-2 -12 -5 -25 q-3 -13 -8 -24 q-5 -11 -9 -23 q-4 -12 -14 -22 q-6 -4 -12 -5 q-6 -1 -14 -1 ZM351 62 q-6 2 -12 8 q-6 6 -8 12 l-2 8 l0 167 l2 2 l0 60 l2 2 l0 26 l2 2 l0 24 l2 2 l0 40 l2 2 l0 28 l12 22 q6 4 12 5 q6 1 14 1 q6 -2 12 -8 q6 -6 8 -12 l0 -36 l-2 -2 l0 -40 l-2 -2 l0 -24 l-2 -2 l0 -26 l-2 -2 l0 -60 l-2 -2 l0 -175 q-2 -6 -8 -12 q-6 -6 -12 -8 l-16 0 ZM90 355 q-6 2 -12 8 q-6 6 -8 12 l-2 12 q6 30 25 55 q19 25 42 49 q23 24 44 47 q21 23 45 47 q37 32 74 66.5 q37 34.5 74 63.5 q37 29 74 62 q37 33 81 49 q6 -2 12 -8 q6 -6 8 -12 l0 -16 q-52 -50 -109 -96 q-57 -46 -111 -94.5 q-54 -48.5 -106.5 -101.5 q-52.5 -53 -92.5 -113 l-12 -24 q-6 -4 -12 -5 q-6 -1 -14 -1 ZM972 459 q-46 42 -101 70 q-55 28 -110.5 59 q-55.5 31 -114.5 49.5 q-59 18.5 -119 26.5 l-22 0 l-22 12 q-4 6 -5 12 q-1 6 -1 14 q2 6 8 12 q6 6 12 8 l32 0 q64 -10 127 -27 q63 -17 120.5 -49.5 q57.5 -32.5 116.5 -62.5 q59 -30 107 -74 q6 -6 7 -14 q1 -8 1 -16 q-2 -6 -8 -12 q-6 -6 -12 -8 l-16 0 Z" /><glyph glyph-name="" unicode="&#x4ed5;" d="M191 -42 q-14 6 -20 20 l0 22 q10 40 16 82 q6 42 8 85 l0 128 q-6 36 -16 70 q6 14 20 20 l16 0 q19 -8 27 -26 l12 -64 l0 -128 q-4 -53 -11 -105 q-7 -52 -26 -98 q-10 -8 -26 -6 ZM843 -48 q-46 20 -95.5 31 q-49.5 11 -99.5 19 l-110 0 q-16 -8 -36 -8 l-22 12 q-8 12 -6 28 q8 16 24 22 q30 0 50 25 q36 50 55 109 q19 59 41 158 l-30 0 q-52 -4 -104 -7 q-52 -3 -102 -15 l-22 12 q-8 12 -6 28 l18 20 q64 8 129 13 q65 5 131 11 q12 60 18 100.5 q6 40.5 12 167.5 l-4 22 q6 14 20 20 l18 0 q16 -8 24 -24 l-8 -153 q-8 -44 -10 -68.5 q-2 -24.5 -10 -66.5 l217 4 l20 -12 q8 -10 6 -26 q-6 -14 -20 -20 l-14 -2 l-2 2 l-219 -4 q-24 -103 -44 -167 q-20 -64 -54 -123 q68 -2 133.5 -15 q65.5 -13 125.5 -45 q8 -10 6 -26 q-6 -14 -20 -20 l-10 -2 ZM83 185 q-14 6 -20 20 l-2 26 q48 156 130.5 298.5 q82.5 142.5 160.5 284.5 q12 10 30 8 q14 -6 20 -20 l0 -16 q-78 -147 -162.5 -292 q-84.5 -145 -130.5 -303 q-10 -8 -26 -6 Z" /><glyph glyph-name="" unicode="&#x4ed6;" d="M206 -68 q-14 6 -20 20 l-4 26 l0 293 q2 48 -10 92 l-4 0 q-24 -66 -44 -132 q-20 -66 -36 -135 q-10 -8 -26 -6 q-14 6 -20 20 l0 29 q36 162 99 319 q63 157 160 296 q14 12 34 10 q14 -6 20 -20 l0 -18 q-54 -76 -99.5 -158.5 q-45.5 -82.5 -73.5 -170.5 l4 0 l22 4 q16 -8 22 -24 q4 -26 7 -52 q3 -26 3 -54 l0 -293 l2 -26 q-6 -14 -20 -20 l-16 0 ZM870 -62 q-103 16 -208 30 q-105 14 -183 96 q-28 32 -35 71.5 q-7 39.5 -7 83.5 q2 34 6 68 q4 34 10 66 l-4 0 q-40 -32 -92 -38 q-14 6 -20 20 l0 16 q8 18 28 24 q26 10 51 26 q25 16 51 30 q8 48 21 94 q13 46 31 90 q10 8 26 6 q14 -6 20 -20 l0 -26 q-10 -26 -17 -53 q-7 -27 -13 -53 l6 0 q28 14 56 28 q28 14 58 24 q10 72 13 147.5 q3 75.5 19 145.5 q10 8 26 6 q14 -6 20 -20 l0 -34 q-4 -56 -7 -112.5 q-3 -56.5 -9 -112.5 l10 0 q45 10 95 8 q32 -4 54 -28 q24 -26 32 -60 q8 -34 10 -70 l0 -112 q2 -38 -12 -70 q-10 -8 -26 -6 q-14 6 -20 20 l-2 54 l2 2 l0 112 q0 52 -28 92 q-30 12 -67 8 l-52 -14 q-4 -46 -7 -91 q-3 -45 -5 -91 l0 -82 q-6 -14 -20 -20 l-16 0 q-14 6 -20 20 l-2 82 l10 160 l-4 0 l-130 -64 q-12 -48 -18 -100 q-6 -52 -6 -104 q2 -30 11 -56.5 q9 -26.5 35 -46.5 q84 -58 186.5 -69 q102.5 -11 198.5 -31 q8 -10 6 -26 q-6 -14 -20 -20 l-42 0 Z" /><glyph glyph-name="" unicode="&#x4ee3;" d="M888 -56 q-12 8 -21 19 q-9 11 -16 23 q-7 12 -15 23 q-8 11 -14 23 q-24 58 -49.5 115.5 q-25.5 57.5 -43.5 117.5 q-18 60 -37 119 q-19 59 -39 119 l-6 2 q-36 -8 -71 -17 q-35 -9 -71 -17 q-36 -8 -73 -16 q-37 -8 -73 -12 l-22 12 q-4 6 -5 12 q-1 6 -1 14 q2 6 8 12 q6 6 12 8 q36 4 72 11 q36 7 71 16 q35 9 70 17 q35 8 69 18 l2 10 q-8 26 -15 53 q-7 27 -14 54.5 q-7 27.5 -14 54.5 q-7 27 -9 55 l12 22 q6 4 12 5 q6 1 14 1 q6 -2 12 -8 q6 -6 8 -12 l0 -22 l54 -201 l16 -2 l22 6 l22 0 l2 2 l67 0 l18 -12 q6 -6 6 -13 q0 -7 0 -15 q-4 -8 -10 -14 q-6 -6 -14 -10 l-18 0 l-10 6 l-39 0 l-40 -8 l-2 -8 q22 -70 43.5 -140 q21.5 -70 46.5 -139.5 q25 -69.5 56 -136.5 q31 -67 67 -127 q-2 -6 -8 -12 q-6 -6 -12 -8 l-20 0 ZM228 2 q-6 2 -12 8 q-6 6 -8 12 l-2 8 l0 38 l-2 2 l0 40 l-2 3 l0 116 l-2 2 l0 30 l-2 2 l0 162 l-4 16 l-6 2 q-14 -26 -27 -52 q-13 -26 -25 -52 q-12 -26 -20 -55 q-8 -29 -18 -55 q-6 -4 -12 -5 q-6 -1 -14 -1 q-6 2 -12 8 q-6 6 -8 12 l0 26 q18 76 54 145 q36 69 79 133 q43 64 91.5 125.5 q48.5 61.5 94.5 123.5 q6 6 14 9 q8 3 18 1 q6 -2 12 -8 q6 -6 8 -12 l0 -16 q-24 -32 -49 -65.5 q-25 -33.5 -51 -65.5 q-26 -32 -49.5 -65 q-23.5 -33 -41.5 -69 q8 -6 11 -14 q3 -8 6 -16 q3 -8 5 -16 l0 -32 l3 -2 l0 -162 l2 -2 l0 -30 l2 -2 l0 -116 l2 -3 l0 -40 l2 -2 l0 -46 q-2 -6 -8.5 -12 q-6.5 -6 -12.5 -8 l-16 0 ZM886 453 q-6 2 -12 8 q-6 6 -8 12 l-2 8 l0 36 l2 2 l0 20 l2 2 l0 20 q4 18 8 38 q4 20 9 38 q5 18 8 37.5 q3 19.5 17 35.5 q6 4 12 5 q6 1 14 1 q6 -2 12 -8 q6 -6 8 -12 l0 -19 l-30 -116 l0 -20 l-2 -2 l0 -20 l-2 -2 l0 -44 q-2 -6 -8 -12 q-6 -6 -12 -8 l-16 0 Z" /><glyph glyph-name="" unicode="&#x4ee4;" d="M601 -60 q-36 26 -74 54 q-38 28 -75 56 q-37 28 -80 49.5 q-43 21.5 -75 53.5 l0 16 q2 6 8 12 q6 6 12 8 l20 0 q22 -14 45 -27 q23 -13 46 -25 q23 -12 44 -29.5 q21 -17.5 43 -29.5 q22 26 50 48.5 q28 22.5 54 47.5 q26 25 50 51 q24 26 38 58 l2 6 l0 20 q-6 8 -15 13 q-9 5 -18 8 q-9 3 -19 5 l-96 0 q-34 -6 -69 -11 q-35 -5 -70 -12 q-35 -7 -69 -15 q-34 -8 -68 -16 l-20 0 q-6 2 -12.5 8 q-6.5 6 -8.5 12 l0 16 q4 8 9.5 13 q5.5 5 13.5 9 q38 6 74 14 q36 8 72 16 q36 8 74 13 q38 5 74 11 l96 0 q16 -4 32 -7 q16 -3 31 -11 q15 -8 27 -20 q8 -8 13 -18 q5 -10 7 -22 l0 -40 q-6 -20 -18 -38 q-12 -18 -25 -36 q-13 -18 -29 -34 q-16 -16 -32 -32 l-102 -93 q10 -8 20 -16 q10 -8 20 -15 q10 -7 20 -15 q10 -8 16 -20 l0 -16 q-2 -6 -8 -12 q-6 -6 -12 -8 l-16 0 ZM58 407 q-6 2 -12 8 q-6 6 -8 12 l0 18 q48 60 109 107 q61 47 121.5 93.5 q60.5 46.5 123.5 91.5 q63 45 129 83 l16 0 q6 -2 12 -8 q6 -6 8 -12 l0 -18 l-10 -22 q54 -26 109 -50 q55 -24 107.5 -53 q52.5 -29 102.5 -62.5 q50 -33.5 96 -71.5 q6 -10 13 -20 q7 -10 5 -24 q-2 -6 -8 -12 q-6 -6 -12 -8 l-16 0 q-26 32 -60 53 q-34 21 -68 44 q-34 23 -69.5 43 q-35.5 20 -71.5 39 q-26 10 -50 22 q-24 12 -50 23 q-26 11 -50 23 q-24 12 -52 18 q-52 -36 -103 -74.5 q-51 -38.5 -101.5 -77.5 q-50.5 -39 -100.5 -79 q-50 -40 -94 -86 l-16 0 ZM627 453 q-32 14 -64 27 q-32 13 -65 23 q-33 10 -67 16 q-34 6 -64 22 q-4 6 -5 12 q-1 6 -1 14 q2 6 8 12 q6 6 12 8 l24 0 q32 -10 66 -17 q34 -7 66 -18 q32 -11 63 -23 q31 -12 61 -30 q4 -6 5 -12 q1 -6 1 -14 q-2 -6 -8 -12 q-6 -6 -12 -8 l-20 0 Z" /><glyph glyph-name="" unicode="&#x4ee5;" d="M509 -32 q-6 2 -12 8 q-6 6 -8 12 l0 20 q36 100 77 198.5 q41 98.5 85 194.5 q44 96 87.5 193.5 q43.5 97.5 87.5 193.5 q6 4 12 5 q6 1 14 1 q6 -2 12 -8 q6 -6 8 -12 l0 -20 q-24 -66 -55 -130.5 q-31 -64.5 -58.5 -129.5 q-27.5 -65 -58.5 -129 q-31 -64 -57 -130 q40 -18 79 -42 q39 -24 77.5 -46 q38.5 -22 74.5 -50.5 q36 -28.5 70 -58.5 q4 -6 5 -12 q1 -6 1 -14 q-2 -6 -8 -12 q-6 -6 -12 -8 l-16 0 q-36 26 -70 53 q-34 27 -72.5 49.5 q-38.5 22.5 -74.5 45.5 q-36 23 -78 37 q-12 -24 -21 -50.5 q-9 -26.5 -21 -51.5 q-12 -25 -19 -51 q-7 -26 -23 -50 q-6 -4 -12 -5 q-6 -1 -14 -1 ZM166 119 q-10 2 -18 8 q-8 6 -16 14 q-6 8 -10 18 q-4 10 -5 20 q-1 10 -3 20 l0 54 l2 2 l0 32 l4 22 l0 20 q8 42 14 84 q6 42 16 84 q10 42 19 83 q9 41 23 82 q6 4 12 5 q6 1 14 1 q6 -2 12 -8 q6 -6 8 -12 l0 -20 q-8 -37 -16 -75 q-8 -38 -17 -74 q-9 -36 -15 -74 q-6 -38 -12 -76 l0 -20 l-4 -22 l0 -32 l-2 -2 l0 -54 l4 -16 l8 0 q20 18 40 38 q20 20 38.5 40 q18.5 20 35.5 41 q17 21 31 43 l0 8 q-6 8 -8 17 q-2 9 -4 19 l12 22 q6 6 13 6 q7 0 15 0 q8 -4 15 -9 q7 -5 12 -12 q5 -7 9 -15 l6 -18 q16 -12 33 -21 q17 -9 34 -18 q17 -9 36 -13 q19 -4 33 -22 q6 -6 6 -13 q0 -7 0 -15 q-2 -6 -8 -12 q-6 -6 -12 -8 l-16 0 q-18 6 -34 15 q-16 9 -32 17 q-16 8 -32 17 q-16 9 -32 17 q-18 -26 -39 -50 q-21 -24 -43 -48 q-22 -24 -46.5 -48 q-24.5 -24 -50.5 -40 l-30 -2 Z" /><glyph glyph-name="" unicode="&#x4eee;" d="M222 -110 q-6 2 -12 8 q-6 6 -8 12 l-2 8 l0 34 l-6 22 l0 24 l-2 2 l0 28 l-6 34 l0 36 l-2 2 l0 323 l-6 26 l-8 2 q-12 -28 -26 -56 q-14 -28 -25 -57 q-11 -29 -23 -57 q-12 -28 -20 -58 l0 -24 q-2 -6 -8 -12 q-6 -6 -12 -8 l-16 0 q-6 2 -12 8 q-6 6 -8 12 l-2 24 q18 78 51 152 q33 74 73 143 q40 69 84.5 137.5 q44.5 68.5 90.5 134.5 q6 6 14 9 q8 3 18 1 q6 -2 12 -8 q6 -6 8 -12 l0 -16 q-22 -32 -45 -65 q-23 -33 -44 -67.5 q-21 -34.5 -43.5 -68.5 q-22.5 -34 -38.5 -70 q8 -4 17 -6 q9 -2 15 -10 l8 -16 l0 -22 l4 -16 l0 -323 l2 -2 l0 -36 l6 -34 l0 -28 l2 -2 l0 -24 l7 -22 l0 -42 q-2 -6 -8.5 -12 q-6.5 -6 -12.5 -8 l-16 0 ZM539 -52 q-8 2 -15 6 q-7 4 -13 10 q-14 16 -20 34 q-6 18 -10 38 q-4 20 -6 40 q-2 20 -6 41 l0 24 q2 8 5 16 q3 8 8 16 q5 8 13 14 q8 6 16 12 q8 6 17 7 q9 1 19 3 l38 0 q16 -4 31 -7 q15 -3 29 -12 q14 -9 28 -13 l6 2 q12 24 24 48 q12 24 24 47 q12 23 23 48 q11 25 17 51 l-6 6 l-20 0 q-26 -8 -51 -17 q-25 -9 -49 -20 q-24 -11 -48 -22 q-24 -11 -50 -17 q-6 2 -12 8 q-6 6 -8 12 l0 18 q4 8 11 15 q7 7 15 11 q24 8 46 19 q22 11 46 20 q24 9 47 18 q23 9 49 13 l35 0 q10 -2 20 -7 q10 -5 18 -13 q6 -8 10 -16 q4 -8 6 -16 l0 -26 q-6 -28 -18 -55 q-12 -27 -26.5 -54 q-14.5 -27 -27.5 -53 q-13 -26 -27 -52 q26 -18 52.5 -38.5 q26.5 -20.5 53.5 -38.5 q27 -18 56 -32 q29 -14 57 -32 q6 -6 6 -13 q0 -7 0 -15 q-2 -6 -8 -12 q-6 -6 -12 -8 l-16 0 q-30 14 -58 29 q-28 15 -55 34 q-27 19 -53.5 40 q-26.5 21 -56.5 33 q-14 -18 -27 -37 q-13 -19 -26 -38 q-13 -19 -29 -37 q-16 -18 -36 -28 l-14 -4 l-22 0 ZM561 12 q12 14 23 27 q11 13 19 28 q8 15 20 28 q12 13 16 30 q-8 6 -17 10 q-9 4 -18 9 q-9 5 -19 7 l-38 0 l-14 -8 q-4 -6 -5 -12 q-1 -6 -1 -14 q4 -13 5 -27 q1 -14 3 -27 q2 -13 5 -26 q3 -13 9 -25 l10 -2 l2 2 ZM363 113 q-6 2 -12 8 q-6 6 -8 12 l-2 12 q20 68 59 126 q39 58 74 119 q35 61 71 122 q36 61 68 124 l-10 0 q-30 -8 -59 -17.5 q-29 -9.5 -57 -21.5 q-28 -12 -56 -24 q-28 -12 -58 -16 q-6 2 -12 8 q-6 6 -8 12 l0 16 q6 12 17 18 q11 6 21 12 q32 11 61 24 q29 13 60 23 q31 10 62 18 q31 8 65 12 l48 0 q8 -4 15 -9 q7 -5 9 -13 l0 -20 q-52 -61 -90 -130 q-38 -69 -78 -136 q-40 -67 -82 -134 q-42 -67 -72 -139 q-6 -4 -12 -5 q-6 -1 -14 -1 Z" /></font>
</defs>
</svg>
