<?xml version="1.0" standalone="no"?><!DOCTYPE svg PUBLIC "-//W3C//DTD SVG 1.1//EN" "http://www.w3.org/Graphics/SVG/1.1/DTD/svg11.dtd" ><svg xmlns="http://www.w3.org/2000/svg"><metadata></metadata><defs><font id="FontForge 2.0 : PixelMplus12 Regular : 2-6-2013" horiz-adv-x="1000"><font-face font-family="PixelMplus12" font-weight="400" font-stretch="normal" units-per-em="1000" panose-1="2 11 5 9 2 2 3 2 2 7" ascent="884" descent="-200" x-height="7" bbox="-1 -200 917 884" underline-thickness="50" underline-position="-125" unicode-range="U+000a-ff3d" /><missing-glyph horiz-adv-x="364" d="M33 0 l0 666 l265 0 l0 -666 l-265 0 ZM66 33 l199 0 l0 600 l-199 0 l0 -600 Z" /><glyph glyph-name="" unicode="" d="M0 217 l0 83 l417 0 l0 -83 l-167 0 l0 -334 l-83 0 l0 334 l-167 0 ZM250 383 l-250 0 l0 417 l83 0 l0 -333 l167 0 l0 -84 ZM250 467 l0 83 l83 0 l0 -83 l-83 0 ZM333 550 l0 250 l84 0 l0 -250 l-84 0 Z" /><glyph glyph-name="" unicode=" " d="" /><glyph glyph-name="" unicode="!" d="M167 -33 l0 83 l83 0 l0 -83 l-83 0 ZM250 717 l0 -500 l-83 0 l0 500 l83 0 Z" /><glyph glyph-name="" unicode="&quot;" d="M333 800 l0 -333 l-83 0 l0 333 l83 0 ZM167 800 l0 -333 l-84 0 l0 333 l84 0 Z" /><glyph glyph-name="" unicode="#" d="M0 133 l0 84 l83 0 l0 250 l-83 0 l0 83 l83 0 l0 167 l84 0 l0 -167 l83 0 l0 167 l83 0 l0 -167 l84 0 l0 -83 l-84 0 l0 -250 l84 0 l0 -84 l-84 0 l0 -166 l-83 0 l0 166 l-83 0 l0 -166 l-84 0 l0 166 l-83 0 ZM250 217 l0 250 l-83 0 l0 -250 l83 0 Z" /><glyph glyph-name="" unicode="$" d="M0 50 l0 83 l167 0 l0 167 l-84 0 l0 83 l84 0 l0 167 l-84 0 l0 -167 l-83 0 l0 167 l83 0 l0 83 l84 0 l0 84 l83 0 l0 -84 l167 0 l0 -83 l-167 0 l0 -167 l83 0 l0 -83 l84 0 l0 -167 l-84 0 l0 -83 l-83 0 l0 -83 l-83 0 l0 83 l-167 0 ZM333 133 l0 167 l-83 0 l0 -167 l83 0 Z" /><glyph glyph-name="" unicode="%" d="M167 50 l0 83 l83 0 l0 -83 l83 0 l0 -83 l-83 0 l0 83 l-83 0 ZM0 133 l0 84 l83 0 l0 -84 l-83 0 ZM0 550 l0 83 l83 0 l0 -83 l84 0 l0 -83 l-84 0 l0 83 l-83 0 ZM333 50 l0 83 l84 0 l0 -83 l-84 0 ZM333 133 l-83 0 l0 84 l83 0 l0 -84 ZM83 217 l0 83 l84 0 l0 -83 l-84 0 ZM167 300 l0 83 l83 0 l0 -83 l-83 0 ZM250 383 l0 84 l83 0 l0 -84 l-83 0 ZM333 467 l0 83 l84 0 l0 -83 l-84 0 ZM167 550 l0 83 l83 0 l0 -83 l-83 0 ZM167 633 l-84 0 l0 84 l84 0 l0 -84 Z" /><glyph glyph-name="" unicode="&amp;" d="M250 -33 l-167 0 l0 83 l167 0 l0 -83 ZM333 50 l84 0 l0 -83 l-84 0 l0 83 ZM333 50 l-83 0 l0 167 l83 0 l0 -167 ZM83 50 l-83 0 l0 250 l83 0 l0 -250 ZM333 217 l0 166 l84 0 l0 -166 l-84 0 ZM250 217 l-83 0 l0 83 l83 0 l0 -83 ZM167 300 l-84 0 l0 167 l167 0 l0 -84 l-83 0 l0 -83 ZM250 467 l0 166 l83 0 l0 -166 l-83 0 ZM83 467 l-83 0 l0 166 l83 0 l0 -166 ZM250 633 l-167 0 l0 84 l167 0 l0 -84 Z" /><glyph glyph-name="" unicode="&#39;" d="M250 800 l0 -333 l-83 0 l0 333 l83 0 Z" /><glyph glyph-name="" unicode="(" d="M250 -33 l83 0 l0 -84 l-83 0 l0 84 ZM250 -33 l-83 0 l0 166 l83 0 l0 -166 ZM167 133 l-84 0 l0 417 l84 0 l0 -417 ZM167 550 l0 167 l83 0 l0 -167 l-83 0 ZM250 717 l0 83 l83 0 l0 -83 l-83 0 Z" /><glyph glyph-name="" unicode=")" d="M83 -117 l0 84 l84 0 l0 -84 l-84 0 ZM83 717 l0 83 l84 0 l0 -83 l83 0 l0 -167 l83 0 l0 -417 l-83 0 l0 -166 l-83 0 l0 166 l83 0 l0 417 l-83 0 l0 167 l-84 0 Z" /><glyph glyph-name="" unicode="*" d="M0 133 l0 84 l83 0 l0 -84 l-83 0 ZM0 467 l0 83 l83 0 l0 -83 l84 0 l0 166 l83 0 l0 -166 l83 0 l0 -84 l-83 0 l0 -83 l83 0 l0 -83 l84 0 l0 -84 l-84 0 l0 84 l-83 0 l0 -167 l-83 0 l0 167 l-84 0 l0 83 l84 0 l0 83 l-84 0 l0 84 l-83 0 ZM333 467 l0 83 l84 0 l0 -83 l-84 0 Z" /><glyph glyph-name="" unicode="+" d="M0 300 l0 83 l167 0 l0 167 l83 0 l0 -167 l167 0 l0 -83 l-167 0 l0 -167 l-83 0 l0 167 l-167 0 Z" /><glyph glyph-name="" unicode="," d="M83 -117 l0 84 l84 0 l0 -84 l-84 0 ZM83 50 l0 83 l84 0 l0 84 l83 0 l0 -84 l83 0 l0 -83 l-83 0 l0 -83 l-83 0 l0 83 l-84 0 Z" /><glyph glyph-name="" unicode="-" d="M0 300 l0 83 l417 0 l0 -83 l-417 0 Z" /><glyph glyph-name="" unicode="." d="M83 50 l0 83 l84 0 l0 84 l83 0 l0 -84 l83 0 l0 -83 l-83 0 l0 -83 l-83 0 l0 83 l-84 0 Z" /><glyph glyph-name="" unicode="/" d="M83 50 l0 -167 l-83 0 l0 167 l83 0 ZM83 50 l0 167 l84 0 l0 -167 l-84 0 ZM167 217 l0 166 l83 0 l0 -166 l-83 0 ZM250 383 l0 167 l83 0 l0 -167 l-83 0 ZM333 550 l0 167 l84 0 l0 -167 l-84 0 Z" /><glyph glyph-name="" unicode="0" d="M333 -33 l-250 0 l0 83 l250 0 l0 -83 ZM333 50 l0 333 l-83 0 l0 -83 l-83 0 l0 -83 l-84 0 l0 -167 l-83 0 l0 583 l83 0 l0 -333 l84 0 l0 83 l83 0 l0 84 l83 0 l0 166 l84 0 l0 -583 l-84 0 ZM333 633 l-250 0 l0 84 l250 0 l0 -84 Z" /><glyph glyph-name="" unicode="1" d="M0 467 l0 83 l83 0 l0 -83 l-83 0 ZM250 717 l0 -750 l-83 0 l0 583 l-84 0 l0 83 l84 0 l0 84 l83 0 Z" /><glyph glyph-name="" unicode="2" d="M417 -33 l-417 0 l0 166 l83 0 l0 -83 l334 0 l0 -83 ZM83 133 l0 84 l84 0 l0 -84 l-84 0 ZM167 217 l0 83 l83 0 l0 -83 l-83 0 ZM250 300 l0 83 l83 0 l0 -83 l-83 0 ZM333 383 l0 250 l84 0 l0 -250 l-84 0 ZM83 633 l0 -166 l-83 0 l0 166 l83 0 ZM333 633 l-250 0 l0 84 l250 0 l0 -84 Z" /><glyph glyph-name="" unicode="3" d="M0 50 l0 83 l83 0 l0 -83 l250 0 l0 -83 l-250 0 l0 83 l-83 0 ZM83 300 l0 83 l84 0 l0 84 l83 0 l0 -84 l83 0 l0 -83 l84 0 l0 -250 l-84 0 l0 250 l-250 0 ZM0 633 l0 84 l417 0 l0 -167 l-84 0 l0 -83 l-83 0 l0 83 l83 0 l0 83 l-333 0 Z" /><glyph glyph-name="" unicode="4" d="M333 133 l0 -166 l-83 0 l0 166 l-250 0 l0 250 l83 0 l0 -166 l167 0 l0 333 l-83 0 l0 -167 l-84 0 l0 167 l84 0 l0 167 l166 0 l0 -500 l84 0 l0 -84 l-84 0 Z" /><glyph glyph-name="" unicode="5" d="M333 -33 l-250 0 l0 83 l250 0 l0 -83 ZM333 50 l0 333 l84 0 l0 -333 l-84 0 ZM83 50 l-83 0 l0 167 l83 0 l0 -167 ZM333 383 l-333 0 l0 334 l417 0 l0 -84 l-334 0 l0 -166 l250 0 l0 -84 Z" /><glyph glyph-name="" unicode="6" d="M333 -33 l-250 0 l0 83 l250 0 l0 -83 ZM333 50 l0 333 l84 0 l0 -333 l-84 0 ZM83 50 l-83 0 l0 500 l83 0 l0 -83 l250 0 l0 -84 l-250 0 l0 -333 ZM83 550 l0 83 l84 0 l0 -83 l-84 0 ZM333 633 l-166 0 l0 84 l166 0 l0 -84 Z" /><glyph glyph-name="" unicode="7" d="M0 633 l0 84 l417 0 l0 -167 l-84 0 l0 -167 l-83 0 l0 -166 l-83 0 l0 -250 l-84 0 l0 250 l84 0 l0 166 l83 0 l0 167 l83 0 l0 83 l-333 0 Z" /><glyph glyph-name="" unicode="8" d="M333 -33 l-250 0 l0 83 l250 0 l0 -83 ZM333 50 l0 167 l84 0 l0 -167 l-84 0 ZM83 50 l-83 0 l0 167 l83 0 l0 -167 ZM333 217 l-83 0 l0 83 l83 0 l0 -83 ZM83 217 l0 83 l84 0 l0 -83 l-84 0 ZM250 300 l-83 0 l0 83 l83 0 l0 -83 ZM250 383 l0 84 l83 0 l0 -84 l-83 0 ZM167 383 l-84 0 l0 84 l84 0 l0 -84 ZM333 467 l0 166 l84 0 l0 -166 l-84 0 ZM83 467 l-83 0 l0 166 l83 0 l0 -166 ZM333 633 l-250 0 l0 84 l250 0 l0 -84 Z" /><glyph glyph-name="" unicode="9" d="M83 -33 l0 83 l167 0 l0 -83 l-167 0 ZM250 50 l0 83 l83 0 l0 -83 l-83 0 ZM333 133 l0 84 l-250 0 l0 83 l250 0 l0 333 l84 0 l0 -500 l-84 0 ZM83 300 l-83 0 l0 333 l83 0 l0 -333 ZM333 633 l-250 0 l0 84 l250 0 l0 -84 Z" /><glyph glyph-name="" unicode=":" d="M83 50 l0 83 l84 0 l0 84 l83 0 l0 -84 l83 0 l0 -83 l-83 0 l0 -83 l-83 0 l0 83 l-84 0 ZM83 383 l0 84 l84 0 l0 83 l83 0 l0 -83 l83 0 l0 -84 l-83 0 l0 -83 l-83 0 l0 83 l-84 0 Z" /><glyph glyph-name="" unicode=";" d="M83 -117 l0 84 l84 0 l0 -84 l-84 0 ZM83 50 l0 83 l84 0 l0 84 l83 0 l0 -84 l83 0 l0 -83 l-83 0 l0 -83 l-83 0 l0 83 l-84 0 ZM83 383 l0 84 l84 0 l0 83 l83 0 l0 -83 l83 0 l0 -84 l-83 0 l0 -83 l-83 0 l0 83 l-84 0 Z" /><glyph glyph-name="" unicode="&lt;" d="M0 300 l0 83 l83 0 l0 -83 l84 0 l0 -83 l83 0 l0 -84 l83 0 l0 -83 l84 0 l0 -83 l-84 0 l0 83 l-83 0 l0 83 l-83 0 l0 84 l-84 0 l0 83 l-83 0 ZM83 383 l0 84 l84 0 l0 -84 l-84 0 ZM167 467 l0 83 l83 0 l0 -83 l-83 0 ZM250 550 l0 83 l83 0 l0 -83 l-83 0 ZM333 633 l0 84 l84 0 l0 -84 l-84 0 Z" /><glyph glyph-name="" unicode="=" d="M0 217 l0 83 l417 0 l0 -83 l-417 0 ZM0 383 l0 84 l417 0 l0 -84 l-417 0 Z" /><glyph glyph-name="" unicode="&gt;" d="M0 -33 l0 83 l83 0 l0 -83 l-83 0 ZM0 633 l0 84 l83 0 l0 -84 l84 0 l0 -83 l83 0 l0 -83 l83 0 l0 -84 l84 0 l0 -83 l-84 0 l0 -83 l-83 0 l0 -84 l-83 0 l0 -83 l-84 0 l0 83 l84 0 l0 84 l83 0 l0 83 l83 0 l0 83 l-83 0 l0 84 l-83 0 l0 83 l-84 0 l0 83 l-83 0 Z" /><glyph glyph-name="" unicode="?" d="M167 -33 l0 83 l83 0 l0 -83 l-83 0 ZM250 300 l0 -167 l-83 0 l0 167 l83 0 ZM250 300 l0 83 l83 0 l0 -83 l-83 0 ZM333 383 l0 250 l84 0 l0 -250 l-84 0 ZM83 633 l0 -166 l-83 0 l0 166 l83 0 ZM333 633 l-250 0 l0 84 l250 0 l0 -84 Z" /><glyph glyph-name="" unicode="@" d="M333 -33 l-250 0 l0 83 l250 0 l0 -83 ZM83 50 l-83 0 l0 583 l83 0 l0 -583 ZM417 133 l-250 0 l0 417 l166 0 l0 83 l84 0 l0 -500 ZM333 217 l0 250 l-83 0 l0 -250 l83 0 ZM333 633 l-250 0 l0 84 l250 0 l0 -84 Z" /><glyph glyph-name="" unicode="a" d="M417 300 l0 -333 l-84 0 l0 250 l-250 0 l0 -250 l-83 0 l0 333 l83 0 l0 250 l84 0 l0 -250 l83 0 l0 250 l83 0 l0 -250 l84 0 ZM250 550 l-83 0 l0 167 l83 0 l0 -167 Z" /><glyph glyph-name="" unicode="b" d="M333 -33 l-333 0 l0 750 l333 0 l0 -84 l84 0 l0 -250 l-84 0 l0 -83 l84 0 l0 -250 l-84 0 l0 -83 ZM83 50 l250 0 l0 250 l-250 0 l0 -250 ZM83 383 l250 0 l0 250 l-250 0 l0 -250 Z" /><glyph glyph-name="" unicode="c" d="M333 -33 l-250 0 l0 83 l250 0 l0 -83 ZM333 50 l0 83 l84 0 l0 -83 l-84 0 ZM83 50 l-83 0 l0 583 l83 0 l0 -583 ZM333 633 l84 0 l0 -83 l-84 0 l0 83 ZM333 633 l-250 0 l0 84 l250 0 l0 -84 Z" /><glyph glyph-name="" unicode="d" d="M250 -33 l-250 0 l0 750 l250 0 l0 -84 l83 0 l0 -83 l84 0 l0 -417 l-84 0 l0 -83 l-83 0 l0 -83 ZM83 50 l167 0 l0 83 l83 0 l0 417 l-83 0 l0 83 l-167 0 l0 -583 Z" /><glyph glyph-name="" unicode="e" d="M417 -33 l-417 0 l0 750 l417 0 l0 -84 l-334 0 l0 -250 l250 0 l0 -83 l-250 0 l0 -250 l334 0 l0 -83 Z" /><glyph glyph-name="" unicode="f" d="M83 300 l0 -333 l-83 0 l0 750 l417 0 l0 -84 l-334 0 l0 -250 l250 0 l0 -83 l-250 0 Z" /><glyph glyph-name="" unicode="g" d="M167 300 l0 83 l250 0 l0 -416 l-334 0 l0 83 l250 0 l0 250 l-166 0 ZM83 50 l-83 0 l0 583 l83 0 l0 -583 ZM333 633 l84 0 l0 -83 l-84 0 l0 83 ZM333 633 l-250 0 l0 84 l250 0 l0 -84 Z" /><glyph glyph-name="" unicode="h" d="M417 717 l0 -750 l-84 0 l0 333 l-250 0 l0 -333 l-83 0 l0 750 l83 0 l0 -334 l250 0 l0 334 l84 0 Z" /><glyph glyph-name="" unicode="i" d="M83 -33 l0 83 l84 0 l0 583 l-84 0 l0 84 l250 0 l0 -84 l-83 0 l0 -583 l83 0 l0 -83 l-250 0 Z" /><glyph glyph-name="" unicode="k" d="M417 133 l0 -166 l-84 0 l0 166 l84 0 ZM83 300 l0 -333 l-83 0 l0 750 l83 0 l0 -250 l84 0 l0 -167 l83 0 l0 -83 l83 0 l0 -84 l-83 0 l0 84 l-83 0 l0 83 l-84 0 ZM167 467 l0 83 l83 0 l0 -83 l-83 0 ZM250 550 l0 83 l83 0 l0 -83 l-83 0 ZM333 633 l0 84 l84 0 l0 -84 l-84 0 Z" /><glyph glyph-name="" unicode="l" d="M417 -33 l-417 0 l0 750 l83 0 l0 -667 l334 0 l0 -83 Z" /><glyph glyph-name="" unicode="m" d="M417 717 l0 -750 l-84 0 l0 583 l-83 0 l0 -83 l-83 0 l0 83 l83 0 l0 83 l83 0 l0 84 l84 0 ZM83 550 l0 -583 l-83 0 l0 750 l83 0 l0 -84 l84 0 l0 -83 l-84 0 Z" /><glyph glyph-name="" unicode="n" d="M417 717 l0 -750 l-84 0 l0 416 l-83 0 l0 84 l83 0 l0 250 l84 0 ZM83 550 l0 -583 l-83 0 l0 750 l83 0 l0 -84 l84 0 l0 -83 l83 0 l0 -83 l-83 0 l0 83 l-84 0 Z" /><glyph glyph-name="" unicode="o" d="M333 -33 l-250 0 l0 83 l250 0 l0 -83 ZM333 50 l0 583 l84 0 l0 -583 l-84 0 ZM83 50 l-83 0 l0 583 l83 0 l0 -583 ZM333 633 l-250 0 l0 84 l250 0 l0 -84 Z" /><glyph glyph-name="" unicode="p" d="M83 300 l0 -333 l-83 0 l0 750 l333 0 l0 -84 l84 0 l0 -250 l-84 0 l0 -83 l-250 0 ZM83 383 l250 0 l0 250 l-250 0 l0 -250 Z" /><glyph glyph-name="" unicode="r" d="M417 133 l0 -166 l-84 0 l0 166 l84 0 ZM83 300 l0 -333 l-83 0 l0 750 l333 0 l0 -84 l84 0 l0 -250 l-84 0 l0 -83 l-83 0 l0 -83 l83 0 l0 -84 l-83 0 l0 84 l-83 0 l0 83 l-84 0 ZM83 383 l250 0 l0 250 l-250 0 l0 -250 Z" /><glyph glyph-name="" unicode="s" d="M0 50 l0 83 l83 0 l0 -83 l250 0 l0 -83 l-250 0 l0 83 l-83 0 ZM333 50 l0 250 l84 0 l0 -250 l-84 0 ZM333 300 l-250 0 l0 83 l250 0 l0 -83 ZM83 383 l-83 0 l0 250 l83 0 l0 -250 ZM333 633 l84 0 l0 -83 l-84 0 l0 83 ZM333 633 l-250 0 l0 84 l250 0 l0 -84 Z" /><glyph glyph-name="" unicode="t" d="M0 633 l0 84 l417 0 l0 -84 l-167 0 l0 -666 l-83 0 l0 666 l-167 0 Z" /><glyph glyph-name="" unicode="u" d="M333 -33 l-250 0 l0 83 l250 0 l0 -83 ZM333 50 l0 667 l84 0 l0 -667 l-84 0 ZM83 50 l-83 0 l0 667 l83 0 l0 -667 Z" /><glyph glyph-name="" unicode="w" d="M333 217 l0 -250 l-83 0 l0 250 l83 0 ZM167 217 l0 -250 l-84 0 l0 250 l84 0 ZM333 217 l0 500 l84 0 l0 -500 l-84 0 ZM250 217 l-83 0 l0 500 l83 0 l0 -500 ZM83 217 l-83 0 l0 500 l83 0 l0 -500 Z" /><glyph glyph-name="" unicode="x" d="M417 133 l0 -166 l-84 0 l0 166 l84 0 ZM83 133 l0 -166 l-83 0 l0 166 l83 0 ZM333 133 l-83 0 l0 167 l83 0 l0 -167 ZM83 133 l0 167 l84 0 l0 -167 l-84 0 ZM250 300 l-83 0 l0 83 l83 0 l0 -83 ZM250 383 l0 167 l83 0 l0 -167 l-83 0 ZM167 383 l-84 0 l0 167 l84 0 l0 -167 ZM333 550 l0 167 l84 0 l0 -167 l-84 0 ZM83 550 l-83 0 l0 167 l83 0 l0 -167 Z" /><glyph glyph-name="" unicode="y" d="M250 383 l0 -416 l-83 0 l0 416 l83 0 ZM250 383 l0 167 l83 0 l0 -167 l-83 0 ZM167 383 l-84 0 l0 167 l84 0 l0 -167 ZM333 550 l0 167 l84 0 l0 -167 l-84 0 ZM83 550 l-83 0 l0 167 l83 0 l0 -167 Z" /><glyph glyph-name="" unicode="[" d="M333 -117 l-250 0 l0 917 l250 0 l0 -83 l-166 0 l0 -750 l166 0 l0 -84 Z" /><glyph glyph-name="" unicode="\" d="M417 50 l0 -167 l-84 0 l0 167 l84 0 ZM333 50 l-83 0 l0 167 l83 0 l0 -167 ZM250 217 l-83 0 l0 166 l83 0 l0 -166 ZM167 383 l-84 0 l0 167 l84 0 l0 -167 ZM83 550 l-83 0 l0 167 l83 0 l0 -167 Z" /><glyph glyph-name="" unicode="]" d="M83 -117 l0 84 l167 0 l0 750 l-167 0 l0 83 l250 0 l0 -917 l-250 0 Z" /><glyph glyph-name="" unicode="_" d="M0 -117 l0 84 l417 0 l0 -84 l-417 0 Z" /><glyph glyph-name="" unicode="`" d="M250 633 l0 -166 l-83 0 l0 166 l83 0 ZM167 633 l-84 0 l0 167 l84 0 l0 -167 Z" /><glyph glyph-name="" unicode="a" d="M83 383 l0 84 l250 0 l0 -84 l84 0 l0 -416 l-334 0 l0 83 l250 0 l0 167 l-250 0 l0 -167 l-83 0 l0 167 l83 0 l0 83 l250 0 l0 83 l-250 0 Z" /><glyph glyph-name="" unicode="b" d="M333 -33 l-333 0 l0 750 l83 0 l0 -250 l250 0 l0 -84 l84 0 l0 -333 l-84 0 l0 -83 ZM83 50 l250 0 l0 333 l-250 0 l0 -333 Z" /><glyph glyph-name="" unicode="c" d="M333 -33 l-250 0 l0 83 l250 0 l0 -83 ZM333 50 l0 83 l84 0 l0 -83 l-84 0 ZM83 50 l-83 0 l0 333 l83 0 l0 -333 ZM333 383 l84 0 l0 -83 l-84 0 l0 83 ZM333 383 l-250 0 l0 84 l250 0 l0 -84 Z" /><glyph glyph-name="" unicode="d" d="M417 -33 l-334 0 l0 83 l250 0 l0 333 l-250 0 l0 -333 l-83 0 l0 333 l83 0 l0 84 l250 0 l0 250 l84 0 l0 -750 Z" /><glyph glyph-name="" unicode="e" d="M333 -33 l-250 0 l0 83 l250 0 l0 -83 ZM333 50 l0 83 l84 0 l0 -83 l-84 0 ZM83 50 l-83 0 l0 333 l83 0 l0 -83 l250 0 l0 83 l84 0 l0 -166 l-334 0 l0 -167 ZM333 383 l-250 0 l0 84 l250 0 l0 -84 Z" /><glyph glyph-name="" unicode="f" d="M0 300 l0 83 l167 0 l0 250 l83 0 l0 -250 l167 0 l0 -83 l-167 0 l0 -333 l-83 0 l0 333 l-167 0 ZM417 633 l-167 0 l0 84 l167 0 l0 -84 Z" /><glyph glyph-name="" unicode="g" d="M0 -117 l0 84 l83 0 l0 -84 l250 0 l0 -83 l-250 0 l0 83 l-83 0 ZM333 -117 l0 167 l-250 0 l0 83 l250 0 l0 250 l-250 0 l0 -250 l-83 0 l0 250 l83 0 l0 84 l334 0 l0 -584 l-84 0 Z" /><glyph glyph-name="" unicode="h" d="M417 383 l0 -416 l-84 0 l0 416 l84 0 ZM83 300 l0 -333 l-83 0 l0 750 l83 0 l0 -334 l84 0 l0 -83 l-84 0 ZM333 383 l-166 0 l0 84 l166 0 l0 -84 Z" /><glyph glyph-name="" unicode="i" d="M83 -33 l0 83 l84 0 l0 333 l-84 0 l0 84 l167 0 l0 -417 l83 0 l0 -83 l-250 0 ZM167 717 l0 83 l83 0 l0 -83 l-83 0 Z" /><glyph glyph-name="" unicode="j" d="M0 -200 l0 83 l250 0 l0 -83 l-250 0 ZM167 383 l0 84 l166 0 l0 -584 l-83 0 l0 500 l-83 0 ZM250 717 l0 83 l83 0 l0 -83 l-83 0 Z" /><glyph glyph-name="" unicode="k" d="M333 50 l84 0 l0 -83 l-84 0 l0 83 ZM333 50 l-83 0 l0 83 l83 0 l0 -83 ZM83 217 l0 -250 l-83 0 l0 750 l83 0 l0 -417 l84 0 l0 -83 l83 0 l0 -84 l-83 0 l0 84 l-84 0 ZM167 300 l0 83 l83 0 l0 -83 l-83 0 ZM250 383 l0 84 l83 0 l0 -84 l-83 0 Z" /><glyph glyph-name="" unicode="l" d="M83 633 l0 84 l167 0 l0 -667 l83 0 l0 -83 l-166 0 l0 666 l-84 0 Z" /><glyph glyph-name="" unicode="m" d="M417 383 l0 -416 l-84 0 l0 416 l84 0 ZM250 383 l0 -416 l-83 0 l0 416 l-84 0 l0 -416 l-83 0 l0 500 l333 0 l0 -84 l-83 0 Z" /><glyph glyph-name="" unicode="n" d="M417 383 l0 -416 l-84 0 l0 416 l84 0 ZM83 300 l0 -333 l-83 0 l0 500 l83 0 l0 -84 l84 0 l0 -83 l-84 0 ZM333 383 l-166 0 l0 84 l166 0 l0 -84 Z" /><glyph glyph-name="" unicode="o" d="M333 -33 l-250 0 l0 83 l250 0 l0 -83 ZM333 50 l0 333 l84 0 l0 -333 l-84 0 ZM83 50 l-83 0 l0 333 l83 0 l0 -333 ZM333 383 l-250 0 l0 84 l250 0 l0 -84 Z" /><glyph glyph-name="" unicode="p" d="M83 50 l0 -250 l-83 0 l0 667 l333 0 l0 -84 l84 0 l0 -250 l-84 0 l0 -83 l-250 0 ZM83 133 l250 0 l0 250 l-250 0 l0 -250 Z" /><glyph glyph-name="" unicode="q" d="M417 467 l0 -667 l-84 0 l0 250 l-250 0 l0 83 l250 0 l0 250 l-250 0 l0 -250 l-83 0 l0 250 l83 0 l0 84 l334 0 Z" /><glyph glyph-name="" unicode="r" d="M83 300 l0 -333 l-83 0 l0 500 l83 0 l0 -84 l84 0 l0 -83 l-84 0 ZM333 383 l84 0 l0 -83 l-84 0 l0 83 ZM333 383 l-166 0 l0 84 l166 0 l0 -84 Z" /><glyph glyph-name="" unicode="s" d="M0 50 l0 83 l83 0 l0 -83 l250 0 l0 -83 l-250 0 l0 83 l-83 0 ZM0 300 l0 83 l83 0 l0 -83 l250 0 l0 -83 l84 0 l0 -167 l-84 0 l0 167 l-250 0 l0 83 l-83 0 ZM333 300 l0 83 l84 0 l0 -83 l-84 0 ZM333 383 l-250 0 l0 84 l250 0 l0 -84 Z" /><glyph glyph-name="" unicode="t" d="M0 383 l0 84 l83 0 l0 250 l84 0 l0 -250 l166 0 l0 -84 l-166 0 l0 -333 l166 0 l0 -83 l-166 0 l0 83 l-84 0 l0 333 l-83 0 ZM333 50 l0 83 l84 0 l0 -83 l-84 0 Z" /><glyph glyph-name="" unicode="u" d="M250 -33 l-167 0 l0 83 l167 0 l0 -83 ZM417 467 l0 -500 l-84 0 l0 83 l-83 0 l0 83 l83 0 l0 334 l84 0 ZM83 50 l-83 0 l0 417 l83 0 l0 -417 Z" /><glyph glyph-name="" unicode="v" d="M250 133 l0 -166 l-83 0 l0 166 l83 0 ZM250 133 l0 167 l83 0 l0 -167 l-83 0 ZM167 133 l-84 0 l0 167 l84 0 l0 -167 ZM333 300 l0 167 l84 0 l0 -167 l-84 0 ZM83 300 l-83 0 l0 167 l83 0 l0 -167 Z" /><glyph glyph-name="" unicode="w" d="M333 133 l0 -166 l-83 0 l0 166 l83 0 ZM167 133 l0 -166 l-84 0 l0 166 l84 0 ZM333 133 l0 334 l84 0 l0 -334 l-84 0 ZM250 133 l-83 0 l0 334 l83 0 l0 -334 ZM83 133 l-83 0 l0 334 l83 0 l0 -334 Z" /><glyph glyph-name="" unicode="x" d="M0 -33 l0 83 l83 0 l0 -83 l-83 0 ZM0 383 l0 84 l83 0 l0 -84 l84 0 l0 -83 l83 0 l0 -167 l83 0 l0 -83 l84 0 l0 -83 l-84 0 l0 83 l-83 0 l0 83 l-83 0 l0 -83 l-84 0 l0 83 l84 0 l0 167 l-84 0 l0 83 l-83 0 ZM250 300 l0 83 l83 0 l0 -83 l-83 0 ZM333 383 l0 84 l84 0 l0 -84 l-84 0 Z" /><glyph glyph-name="" unicode="y" d="M0 -117 l0 84 l83 0 l0 -84 l250 0 l0 -83 l-250 0 l0 83 l-83 0 ZM333 -117 l0 167 l-250 0 l0 83 l250 0 l0 334 l84 0 l0 -584 l-84 0 ZM83 133 l-83 0 l0 334 l83 0 l0 -334 Z" /><glyph glyph-name="" unicode="z" d="M0 383 l0 84 l417 0 l0 -84 l-84 0 l0 -83 l-83 0 l0 -83 l-83 0 l0 -84 l-84 0 l0 -83 l334 0 l0 -83 l-417 0 l0 166 l83 0 l0 84 l84 0 l0 83 l83 0 l0 83 l-250 0 Z" /><glyph glyph-name="" unicode="{" d="M0 300 l0 83 l167 0 l0 -83 l83 0 l0 -333 l167 0 l0 -84 l-167 0 l0 84 l-83 0 l0 333 l-167 0 ZM167 383 l0 334 l83 0 l0 -334 l-83 0 ZM417 717 l-167 0 l0 83 l167 0 l0 -83 Z" /><glyph glyph-name="" unicode="|" d="M250 800 l0 -917 l-83 0 l0 917 l83 0 Z" /><glyph glyph-name="" unicode="}" d="M0 -117 l0 84 l167 0 l0 -84 l-167 0 ZM0 717 l0 83 l167 0 l0 -83 l83 0 l0 -334 l167 0 l0 -83 l-167 0 l0 -333 l-83 0 l0 333 l83 0 l0 83 l-83 0 l0 334 l-167 0 Z" /><glyph glyph-name="" unicode="~" d="M0 550 l0 83 l83 0 l0 -83 l-83 0 ZM333 550 l-166 0 l0 83 l-84 0 l0 84 l167 0 l0 -84 l83 0 l0 -83 ZM333 633 l0 84 l84 0 l0 -84 l-84 0 Z" /><glyph glyph-name="" unicode="&#x2261;" d="M83 50 l0 83 l750 0 l0 -83 l-750 0 ZM83 300 l0 83 l750 0 l0 -83 l-750 0 ZM83 550 l0 83 l750 0 l0 -83 l-750 0 Z" /><glyph glyph-name="" unicode="&#x3001;" d="M83 -33 l0 83 l84 0 l0 -83 l83 0 l0 -84 l-83 0 l0 84 l-84 0 Z" /><glyph glyph-name="" unicode="&#x3002;" d="M333 -117 l-166 0 l0 84 l166 0 l0 -84 ZM333 -33 l0 166 l84 0 l0 -166 l-84 0 ZM167 -33 l-84 0 l0 166 l84 0 l0 -166 ZM333 133 l-166 0 l0 84 l166 0 l0 -84 Z" /><glyph glyph-name="" unicode="&#x3005;" d="M333 133 l0 84 l84 0 l0 -84 l83 0 l0 -83 l83 0 l0 -83 l-83 0 l0 83 l-83 0 l0 83 l-84 0 ZM500 133 l0 84 l83 0 l0 -84 l-83 0 ZM583 217 l0 83 l84 0 l0 -83 l-84 0 ZM667 300 l0 167 l-417 0 l0 -167 l-83 0 l0 167 l83 0 l0 250 l83 0 l0 -167 l417 0 l0 -250 l-83 0 Z" /><glyph glyph-name="" unicode="&#x300c;" d="M583 800 l0 -583 l-83 0 l0 666 l333 0 l0 -83 l-250 0 Z" /><glyph glyph-name="" unicode="&#x300d;" d="M83 -200 l0 83 l250 0 l0 584 l84 0 l0 -667 l-334 0 Z" /><glyph glyph-name="" unicode="&#x3042;" d="M583 -117 l0 84 l167 0 l0 -84 l-167 0 ZM83 550 l0 83 l334 0 l0 167 l83 0 l0 -167 l167 0 l0 -83 l-250 0 l0 -83 l333 0 l0 -84 l83 0 l0 -83 l84 0 l0 -250 l-84 0 l0 -83 l-83 0 l0 83 l83 0 l0 250 l-83 0 l0 83 l-83 0 l0 -166 l-84 0 l0 -84 l-83 0 l0 -166 l-83 0 l0 83 l-84 0 l0 -83 l-166 0 l0 83 l166 0 l0 250 l-83 0 l0 -83 l-83 0 l0 -167 l-84 0 l0 167 l84 0 l0 83 l83 0 l0 83 l83 0 l0 167 l-250 0 ZM500 133 l0 84 l83 0 l0 166 l-166 0 l0 -250 l83 0 ZM833 633 l-166 0 l0 84 l166 0 l0 -84 Z" /><glyph glyph-name="" unicode="&#x3044;" d="M667 467 l0 83 l83 0 l0 -83 l83 0 l0 -167 l84 0 l0 -167 l-84 0 l0 167 l-83 0 l0 167 l-83 0 ZM417 -33 l-167 0 l0 83 l167 0 l0 -83 ZM417 50 l0 83 l83 0 l0 -83 l-83 0 ZM250 50 l-83 0 l0 83 l83 0 l0 -83 ZM500 133 l0 84 l83 0 l0 -84 l-83 0 ZM167 133 l-84 0 l0 334 l84 0 l0 -334 ZM167 467 l0 166 l83 0 l0 -166 l-83 0 Z" /><glyph glyph-name="" unicode="&#x3046;" d="M250 -117 l0 84 l167 0 l0 -84 l-167 0 ZM167 383 l0 84 l166 0 l0 -84 l-166 0 ZM250 717 l0 83 l250 0 l0 -83 l167 0 l0 -84 l-167 0 l0 84 l-250 0 ZM583 -33 l-166 0 l0 83 l166 0 l0 -83 ZM583 50 l0 83 l84 0 l0 -83 l-84 0 ZM667 133 l0 250 l83 0 l0 -250 l-83 0 ZM667 383 l-84 0 l0 84 l84 0 l0 -84 ZM583 467 l-250 0 l0 83 l250 0 l0 -83 Z" /><glyph glyph-name="" unicode="&#x3048;" d="M83 -117 l0 84 l84 0 l0 -84 l-84 0 ZM167 467 l0 83 l500 0 l0 -167 l-84 0 l0 -83 l-83 0 l0 -167 l83 0 l0 -166 l250 0 l0 -84 l-250 0 l0 84 l-83 0 l0 166 l-167 0 l0 -83 l-83 0 l0 -83 l-83 0 l0 83 l83 0 l0 83 l83 0 l0 84 l84 0 l0 83 l83 0 l0 83 l83 0 l0 84 l-416 0 ZM333 717 l0 83 l167 0 l0 -83 l167 0 l0 -84 l-167 0 l0 84 l-167 0 Z" /><glyph glyph-name="" unicode="&#x304a;" d="M583 -117 l0 84 l167 0 l0 -84 l-167 0 ZM83 550 l0 83 l250 0 l0 167 l84 0 l0 -167 l166 0 l0 -83 l-166 0 l0 -167 l333 0 l0 -83 l83 0 l0 -83 l84 0 l0 -167 l-84 0 l0 -83 l-83 0 l0 83 l83 0 l0 167 l-83 0 l0 83 l-333 0 l0 -333 l-84 0 l0 -84 l-166 0 l0 84 l166 0 l0 250 l-83 0 l0 -84 l-83 0 l0 -166 l-84 0 l0 166 l84 0 l0 84 l83 0 l0 83 l83 0 l0 250 l-250 0 ZM667 633 l0 84 l166 0 l0 -84 l84 0 l0 -83 l-84 0 l0 83 l-166 0 Z" /><glyph glyph-name="" unicode="&#x304b;" d="M250 -117 l0 84 l250 0 l0 -84 l-250 0 ZM83 467 l0 83 l167 0 l0 250 l83 0 l0 -250 l167 0 l0 -83 l83 0 l0 -500 l-83 0 l0 500 l-167 0 l0 -167 l-83 0 l0 -167 l-83 0 l0 -166 l-84 0 l0 166 l84 0 l0 167 l83 0 l0 167 l-167 0 ZM917 383 l0 -166 l-84 0 l0 166 l84 0 ZM833 383 l-83 0 l0 167 l83 0 l0 -167 ZM750 550 l-83 0 l0 167 l83 0 l0 -167 Z" /><glyph glyph-name="" unicode="&#x304c;" d="M250 -117 l0 84 l250 0 l0 -84 l-250 0 ZM83 467 l0 83 l167 0 l0 250 l83 0 l0 -250 l167 0 l0 -83 l83 0 l0 -500 l-83 0 l0 500 l-167 0 l0 -167 l-83 0 l0 -167 l-83 0 l0 -166 l-84 0 l0 166 l84 0 l0 167 l83 0 l0 167 l-167 0 ZM583 633 l0 84 l84 0 l0 -84 l83 0 l0 -83 l-83 0 l0 83 l-84 0 ZM750 717 l0 83 l83 0 l0 -83 l84 0 l0 -84 l-84 0 l0 84 l-83 0 ZM917 300 l0 -167 l-84 0 l0 167 l84 0 ZM833 300 l-83 0 l0 167 l83 0 l0 -167 Z" /><glyph glyph-name="" unicode="&#x304d;" d="M83 383 l0 84 l417 0 l0 83 l-417 0 l0 83 l334 0 l0 167 l83 0 l0 -167 l83 0 l0 -83 l250 0 l0 -83 l-250 0 l0 -84 l84 0 l0 -83 l83 0 l0 -167 l-167 0 l0 84 l84 0 l0 83 l-84 0 l0 -83 l-333 0 l0 -167 l83 0 l0 -83 l334 0 l0 -84 l-334 0 l0 84 l-83 0 l0 83 l-83 0 l0 167 l83 0 l0 83 l333 0 l0 83 l-500 0 ZM750 633 l-167 0 l0 84 l167 0 l0 -84 Z" /><glyph glyph-name="" unicode="&#x304e;" d="M83 383 l0 84 l417 0 l0 83 l-417 0 l0 83 l334 0 l0 167 l83 0 l0 -167 l83 0 l0 -83 l250 0 l0 -83 l-250 0 l0 -84 l84 0 l0 -83 l83 0 l0 -167 l-167 0 l0 84 l84 0 l0 83 l-84 0 l0 -83 l-333 0 l0 -167 l83 0 l0 -83 l334 0 l0 -84 l-334 0 l0 84 l-83 0 l0 83 l-83 0 l0 167 l83 0 l0 83 l333 0 l0 83 l-500 0 ZM583 717 l0 83 l84 0 l0 -83 l83 0 l0 -84 l-83 0 l0 84 l-84 0 ZM750 800 l0 83 l83 0 l0 -83 l84 0 l0 -83 l-84 0 l0 83 l-83 0 Z" /><glyph glyph-name="" unicode="&#x304f;" d="M667 -33 l83 0 l0 -84 l-83 0 l0 84 ZM667 -33 l-84 0 l0 83 l84 0 l0 -83 ZM583 50 l-83 0 l0 83 l83 0 l0 -83 ZM500 133 l-167 0 l0 84 l167 0 l0 -84 ZM333 217 l-83 0 l0 166 l83 0 l0 -166 ZM333 383 l0 84 l84 0 l0 -84 l-84 0 ZM417 467 l0 83 l83 0 l0 -83 l-83 0 ZM500 550 l0 83 l83 0 l0 -83 l-83 0 ZM583 633 l0 84 l84 0 l0 -84 l-84 0 Z" /><glyph glyph-name="" unicode="&#x3050;" d="M583 467 l0 83 l84 0 l0 -83 l83 0 l0 -84 l-83 0 l0 84 l-84 0 ZM750 550 l0 83 l83 0 l0 -83 l84 0 l0 -83 l-84 0 l0 83 l-83 0 ZM583 -33 l84 0 l0 -84 l-84 0 l0 84 ZM583 -33 l-83 0 l0 83 l83 0 l0 -83 ZM500 50 l-83 0 l0 83 l83 0 l0 -83 ZM417 133 l-167 0 l0 84 l167 0 l0 -84 ZM250 217 l-83 0 l0 166 l83 0 l0 -166 ZM250 383 l0 84 l83 0 l0 -84 l-83 0 ZM333 467 l0 83 l84 0 l0 -83 l-84 0 ZM417 550 l0 83 l83 0 l0 -83 l-83 0 ZM500 633 l0 84 l83 0 l0 -84 l-83 0 Z" /><glyph glyph-name="" unicode="&#x3051;" d="M417 -117 l0 84 l166 0 l0 -84 l-166 0 ZM333 467 l0 83 l334 0 l0 250 l83 0 l0 -250 l167 0 l0 -83 l-167 0 l0 -417 l-83 0 l0 -83 l-84 0 l0 83 l84 0 l0 417 l-334 0 ZM250 50 l0 -167 l-83 0 l0 167 l83 0 ZM167 50 l-84 0 l0 500 l84 0 l0 -500 ZM167 550 l0 167 l83 0 l0 -167 l-83 0 Z" /><glyph glyph-name="" unicode="&#x3052;" d="M333 -117 l0 84 l167 0 l0 -84 l-167 0 ZM250 467 l0 83 l333 0 l0 250 l84 0 l0 -167 l83 0 l0 -83 l83 0 l0 -83 l-83 0 l0 83 l-83 0 l0 -500 l-84 0 l0 -83 l-83 0 l0 83 l83 0 l0 417 l-333 0 ZM750 717 l0 83 l83 0 l0 -83 l84 0 l0 -84 l-84 0 l0 84 l-83 0 ZM167 50 l0 -167 l-84 0 l0 167 l84 0 ZM83 50 l-83 0 l0 500 l83 0 l0 -500 ZM83 550 l0 167 l84 0 l0 -167 l-84 0 Z" /><glyph glyph-name="" unicode="&#x3053;" d="M250 633 l0 84 l500 0 l0 -84 l-500 0 ZM750 -33 l-500 0 l0 83 l500 0 l0 -83 ZM750 50 l0 83 l83 0 l0 -83 l-83 0 ZM250 50 l-83 0 l0 167 l83 0 l0 -167 ZM250 217 l0 83 l83 0 l0 -83 l-83 0 Z" /><glyph glyph-name="" unicode="&#x3054;" d="M667 467 l0 83 l83 0 l0 -83 l83 0 l0 -84 l-83 0 l0 84 l-83 0 ZM750 633 l0 84 l83 0 l0 -84 l84 0 l0 -83 l-84 0 l0 83 l-83 0 ZM167 633 l0 84 l500 0 l0 -84 l-500 0 ZM667 -33 l-500 0 l0 83 l500 0 l0 -83 ZM667 50 l0 83 l83 0 l0 -83 l-83 0 ZM167 50 l-84 0 l0 167 l84 0 l0 -167 ZM167 217 l0 83 l83 0 l0 -83 l-83 0 Z" /><glyph glyph-name="" unicode="&#x3055;" d="M83 467 l0 83 l417 0 l0 250 l83 0 l0 -250 l84 0 l0 -250 l83 0 l0 -167 l-167 0 l0 84 l84 0 l0 83 l-84 0 l0 -83 l-333 0 l0 -167 l83 0 l0 -83 l334 0 l0 -84 l-334 0 l0 84 l-83 0 l0 83 l-83 0 l0 167 l83 0 l0 83 l333 0 l0 167 l-500 0 ZM833 550 l-166 0 l0 83 l166 0 l0 -83 Z" /><glyph glyph-name="" unicode="&#x3056;" d="M0 467 l0 83 l333 0 l0 250 l84 0 l0 -167 l166 0 l0 -83 l-166 0 l0 -83 l83 0 l0 -84 l83 0 l0 -83 l84 0 l0 -167 l-167 0 l0 84 l83 0 l0 83 l-83 0 l0 -83 l-333 0 l0 -167 l83 0 l0 -83 l333 0 l0 -84 l-333 0 l0 84 l-83 0 l0 83 l-84 0 l0 167 l84 0 l0 83 l333 0 l0 83 l-83 0 l0 84 l-417 0 ZM750 717 l0 83 l83 0 l0 -83 l84 0 l0 -84 l-84 0 l0 84 l-83 0 ZM667 633 l83 0 l0 -83 l-83 0 l0 83 ZM667 633 l-84 0 l0 84 l84 0 l0 -84 Z" /><glyph glyph-name="" unicode="&#x3057;" d="M667 -117 l-250 0 l0 84 l250 0 l0 -84 ZM667 -33 l0 83 l83 0 l0 -83 l-83 0 ZM417 -33 l-84 0 l0 83 l84 0 l0 -83 ZM750 50 l0 167 l83 0 l0 -167 l-83 0 ZM333 50 l-83 0 l0 417 l83 0 l0 -417 ZM333 467 l0 250 l84 0 l0 -250 l-84 0 Z" /><glyph glyph-name="" unicode="&#x3058;" d="M500 550 l0 83 l83 0 l0 -83 l84 0 l0 -83 l-84 0 l0 83 l-83 0 ZM667 633 l0 84 l83 0 l0 -84 l83 0 l0 -83 l-83 0 l0 83 l-83 0 ZM583 -117 l-250 0 l0 84 l250 0 l0 -84 ZM583 -33 l0 83 l84 0 l0 -83 l-84 0 ZM333 -33 l-83 0 l0 83 l83 0 l0 -83 ZM667 50 l0 167 l83 0 l0 -167 l-83 0 ZM250 50 l-83 0 l0 417 l83 0 l0 -417 ZM250 467 l0 250 l83 0 l0 -250 l-83 0 Z" /><glyph glyph-name="" unicode="&#x3059;" d="M250 -117 l0 84 l167 0 l0 -84 l-167 0 ZM0 550 l0 83 l500 0 l0 167 l83 0 l0 -167 l334 0 l0 -83 l-334 0 l0 -500 l-83 0 l0 -83 l-83 0 l0 83 l83 0 l0 83 l-167 0 l0 84 l167 0 l0 166 l-167 0 l0 -166 l-83 0 l0 166 l83 0 l0 84 l167 0 l0 83 l-500 0 Z" /><glyph glyph-name="" unicode="&#x305a;" d="M250 -117 l0 84 l167 0 l0 -84 l-167 0 ZM667 217 l0 83 l83 0 l0 -83 l83 0 l0 -84 l-83 0 l0 84 l-83 0 ZM750 383 l0 84 l83 0 l0 -84 l84 0 l0 -83 l-84 0 l0 83 l-83 0 ZM0 550 l0 83 l500 0 l0 167 l83 0 l0 -167 l334 0 l0 -83 l-334 0 l0 -500 l-83 0 l0 -83 l-83 0 l0 83 l83 0 l0 83 l-167 0 l0 84 l167 0 l0 166 l-167 0 l0 -166 l-83 0 l0 166 l83 0 l0 84 l167 0 l0 83 l-500 0 Z" /><glyph glyph-name="" unicode="&#x305b;" d="M500 133 l0 84 l167 0 l0 250 l-167 0 l0 -84 l-167 0 l0 -416 l500 0 l0 -84 l-500 0 l0 84 l-83 0 l0 416 l-167 0 l0 84 l167 0 l0 250 l83 0 l0 -250 l167 0 l0 83 l167 0 l0 250 l83 0 l0 -250 l167 0 l0 -83 l-167 0 l0 -334 l-250 0 Z" /><glyph glyph-name="" unicode="&#x305c;" d="M417 133 l0 84 l166 0 l0 250 l-166 0 l0 -84 l-167 0 l0 -416 l500 0 l0 -84 l-500 0 l0 84 l-83 0 l0 416 l-167 0 l0 84 l167 0 l0 250 l83 0 l0 -250 l167 0 l0 83 l166 0 l0 250 l84 0 l0 -250 l83 0 l0 -83 l83 0 l0 -84 l-83 0 l0 84 l-83 0 l0 -334 l-250 0 ZM750 633 l0 84 l83 0 l0 -84 l84 0 l0 -83 l-84 0 l0 83 l-83 0 Z" /><glyph glyph-name="" unicode="&#x305d;" d="M83 300 l0 83 l334 0 l0 84 l83 0 l0 -84 l417 0 l0 -83 l-417 0 l0 -83 l-83 0 l0 -250 l333 0 l0 -84 l-333 0 l0 84 l-84 0 l0 250 l84 0 l0 83 l-334 0 ZM250 633 l0 84 l500 0 l0 -84 l-83 0 l0 -83 l-84 0 l0 -83 l-83 0 l0 83 l83 0 l0 83 l-333 0 Z" /><glyph glyph-name="" unicode="&#x305e;" d="M0 300 l0 83 l333 0 l0 84 l84 0 l0 -84 l416 0 l0 -83 l-416 0 l0 -83 l-84 0 l0 -250 l334 0 l0 -84 l-334 0 l0 84 l-83 0 l0 250 l83 0 l0 83 l-333 0 ZM750 633 l0 84 l83 0 l0 -84 l84 0 l0 -83 l-84 0 l0 83 l-83 0 ZM167 633 l0 84 l416 0 l0 -84 l84 0 l0 -83 l83 0 l0 -83 l-83 0 l0 83 l-167 0 l0 -83 l-83 0 l0 83 l83 0 l0 83 l-333 0 Z" /><glyph glyph-name="" unicode="&#x305f;" d="M500 383 l0 84 l333 0 l0 -84 l-333 0 ZM83 550 l0 83 l167 0 l0 167 l83 0 l0 -167 l417 0 l0 -83 l-417 0 l0 -250 l-83 0 l0 -250 l-83 0 l0 -167 l-84 0 l0 167 l84 0 l0 250 l83 0 l0 250 l-167 0 ZM917 -33 l-417 0 l0 83 l417 0 l0 -83 ZM500 50 l-83 0 l0 167 l83 0 l0 -167 ZM500 217 l0 83 l83 0 l0 -83 l-83 0 Z" /><glyph glyph-name="" unicode="&#x3060;" d="M500 383 l0 84 l333 0 l0 -84 l-333 0 ZM83 550 l0 83 l167 0 l0 167 l83 0 l0 -167 l334 0 l0 -83 l-334 0 l0 -250 l-83 0 l0 -250 l-83 0 l0 -167 l-84 0 l0 167 l84 0 l0 250 l83 0 l0 250 l-167 0 ZM583 717 l0 83 l84 0 l0 -83 l83 0 l0 -84 l-83 0 l0 84 l-84 0 ZM750 800 l0 83 l83 0 l0 -83 l84 0 l0 -83 l-84 0 l0 83 l-83 0 ZM917 -33 l-417 0 l0 83 l417 0 l0 -83 ZM500 50 l-83 0 l0 167 l83 0 l0 -167 ZM500 217 l0 83 l83 0 l0 -83 l-83 0 Z" /><glyph glyph-name="" unicode="&#x3061;" d="M333 -117 l0 84 l334 0 l0 -84 l-334 0 ZM83 550 l0 83 l334 0 l0 167 l83 0 l0 -167 l417 0 l0 -83 l-500 0 l0 -167 l250 0 l0 -83 l83 0 l0 -83 l83 0 l0 -167 l-83 0 l0 -83 l-83 0 l0 83 l83 0 l0 167 l-83 0 l0 83 l-250 0 l0 -83 l-167 0 l0 166 l83 0 l0 -83 l84 0 l0 83 l-84 0 l0 167 l-250 0 Z" /><glyph glyph-name="" unicode="&#x3063;" d="M333 -117 l0 84 l250 0 l0 -84 l-250 0 ZM167 217 l0 83 l166 0 l0 -83 l-166 0 ZM583 -33 l0 83 l84 0 l0 -83 l-84 0 ZM667 50 l0 167 l83 0 l0 -167 l-83 0 ZM667 217 l-84 0 l0 83 l84 0 l0 -83 ZM583 300 l-250 0 l0 83 l250 0 l0 -83 Z" /><glyph glyph-name="" unicode="&#x3064;" d="M250 -33 l0 83 l250 0 l0 -83 l-250 0 ZM83 467 l0 83 l250 0 l0 -83 l-250 0 ZM667 50 l-167 0 l0 83 l167 0 l0 -83 ZM667 133 l0 84 l83 0 l0 -84 l-83 0 ZM750 217 l0 250 l83 0 l0 -250 l-83 0 ZM750 467 l-83 0 l0 83 l83 0 l0 -83 ZM667 550 l-334 0 l0 83 l334 0 l0 -83 Z" /><glyph glyph-name="" unicode="&#x3065;" d="M250 -33 l0 83 l250 0 l0 -83 l-250 0 ZM83 467 l0 83 l250 0 l0 -83 l-250 0 ZM583 717 l0 83 l84 0 l0 -83 l83 0 l0 -84 l-83 0 l0 -83 l83 0 l0 -83 l83 0 l0 -250 l-83 0 l0 -84 l-83 0 l0 -83 l-167 0 l0 83 l167 0 l0 84 l83 0 l0 250 l-83 0 l0 83 l-334 0 l0 83 l334 0 l0 84 l-84 0 ZM750 800 l0 83 l83 0 l0 -83 l84 0 l0 -83 l-84 0 l0 83 l-83 0 Z" /><glyph glyph-name="" unicode="&#x3066;" d="M0 467 l0 83 l333 0 l0 -83 l-333 0 ZM750 -117 l-250 0 l0 84 l250 0 l0 -84 ZM500 -33 l-83 0 l0 83 l83 0 l0 -83 ZM417 50 l-84 0 l0 333 l84 0 l0 -333 ZM417 383 l0 84 l83 0 l0 -84 l-83 0 ZM500 467 l0 83 l-167 0 l0 83 l500 0 l0 -83 l-250 0 l0 -83 l-83 0 Z" /><glyph glyph-name="" unicode="&#x3067;" d="M583 300 l0 83 l84 0 l0 -83 l83 0 l0 -83 l-83 0 l0 83 l-84 0 ZM750 383 l0 84 l83 0 l0 -84 l84 0 l0 -83 l-84 0 l0 83 l-83 0 ZM0 467 l0 83 l333 0 l0 -83 l-333 0 ZM750 -117 l-250 0 l0 84 l250 0 l0 -84 ZM500 -33 l-83 0 l0 83 l83 0 l0 -83 ZM417 50 l-84 0 l0 333 l84 0 l0 -333 ZM417 383 l0 84 l83 0 l0 -84 l-83 0 ZM500 467 l0 83 l-167 0 l0 83 l500 0 l0 -83 l-250 0 l0 -83 l-83 0 Z" /><glyph glyph-name="" unicode="&#x3068;" d="M750 -117 l-417 0 l0 84 l417 0 l0 -84 ZM333 -33 l-83 0 l0 83 l83 0 l0 -83 ZM250 50 l-83 0 l0 167 l83 0 l0 -167 ZM250 217 l0 83 l83 0 l0 -83 l-83 0 ZM500 300 l-167 0 l0 83 l84 0 l0 167 l83 0 l0 -83 l250 0 l0 -84 l-250 0 l0 -83 ZM417 550 l-84 0 l0 250 l84 0 l0 -250 Z" /><glyph glyph-name="" unicode="&#x3069;" d="M500 717 l0 83 l83 0 l0 -83 l84 0 l0 -84 l-84 0 l0 84 l-83 0 ZM667 800 l0 83 l83 0 l0 -83 l83 0 l0 -83 l-83 0 l0 83 l-83 0 ZM667 -117 l-417 0 l0 84 l417 0 l0 -84 ZM250 -33 l-83 0 l0 83 l83 0 l0 -83 ZM167 50 l-84 0 l0 167 l84 0 l0 -167 ZM167 217 l0 83 l83 0 l0 -83 l-83 0 ZM417 300 l-167 0 l0 83 l83 0 l0 167 l84 0 l0 -83 l250 0 l0 -84 l-250 0 l0 -83 ZM333 550 l-83 0 l0 250 l83 0 l0 -250 Z" /><glyph glyph-name="" unicode="&#x306a;" d="M0 550 l0 83 l333 0 l0 167 l84 0 l0 -167 l166 0 l0 -83 l-250 0 l0 -167 l-83 0 l0 -166 l-83 0 l0 -167 l-84 0 l0 167 l84 0 l0 166 l83 0 l0 167 l-250 0 ZM667 633 l0 84 l166 0 l0 -84 l84 0 l0 -83 l-84 0 l0 83 l-166 0 ZM667 -117 l-250 0 l0 84 l250 0 l0 -84 ZM667 -33 l0 166 l-250 0 l0 -166 l-84 0 l0 166 l84 0 l0 84 l250 0 l0 250 l83 0 l0 -334 l83 0 l0 -83 l84 0 l0 -83 l-84 0 l0 83 l-83 0 l0 -83 l-83 0 Z" /><glyph glyph-name="" unicode="&#x306b;" d="M500 550 l0 83 l333 0 l0 -83 l-333 0 ZM917 -33 l-417 0 l0 83 l417 0 l0 -83 ZM250 50 l0 -167 l-83 0 l0 167 l83 0 ZM500 50 l-83 0 l0 167 l83 0 l0 -167 ZM167 50 l-84 0 l0 500 l84 0 l0 -500 ZM500 217 l0 83 l83 0 l0 -83 l-83 0 ZM167 550 l0 167 l83 0 l0 -167 l-83 0 Z" /><glyph glyph-name="" unicode="&#x306c;" d="M750 -117 l-167 0 l0 84 l167 0 l0 -84 ZM833 -33 l84 0 l0 -84 l-84 0 l0 84 ZM833 -33 l-83 0 l0 166 l83 0 l0 250 l84 0 l0 -333 l-84 0 l0 -83 ZM583 -33 l-83 0 l0 166 l83 0 l0 -166 ZM333 -33 l-166 0 l0 83 l166 0 l0 -83 ZM333 50 l0 83 l84 0 l0 -83 l-84 0 ZM167 50 l-84 0 l0 250 l84 0 l0 -250 ZM750 133 l-167 0 l0 84 l167 0 l0 -84 ZM500 133 l-83 0 l0 167 l83 0 l0 -167 ZM333 133 l-83 0 l0 167 l83 0 l0 -167 ZM500 300 l0 167 l-167 0 l0 -84 l-83 0 l0 -83 l-83 0 l0 333 l83 0 l0 -166 l83 0 l0 83 l167 0 l0 250 l83 0 l0 -250 l167 0 l0 -83 l83 0 l0 -84 l-83 0 l0 84 l-167 0 l0 -167 l-83 0 Z" /><glyph glyph-name="" unicode="&#x306d;" d="M83 50 l0 83 l84 0 l0 -83 l-84 0 ZM83 467 l0 83 l167 0 l0 250 l83 0 l0 -417 l84 0 l0 -83 l-84 0 l0 -417 l-83 0 l0 250 l-83 0 l0 84 l83 0 l0 250 l-167 0 ZM750 -117 l-167 0 l0 84 l167 0 l0 -84 ZM833 -33 l84 0 l0 -84 l-84 0 l0 84 ZM833 -33 l-83 0 l0 166 l83 0 l0 250 l84 0 l0 -333 l-84 0 l0 -83 ZM583 -33 l-83 0 l0 166 l83 0 l0 -166 ZM750 133 l-167 0 l0 84 l167 0 l0 -84 ZM833 383 l-83 0 l0 84 l83 0 l0 -84 ZM417 383 l0 84 l83 0 l0 -84 l-83 0 ZM750 467 l-250 0 l0 83 l250 0 l0 -83 Z" /><glyph glyph-name="" unicode="&#x306e;" d="M583 -33 l0 83 l167 0 l0 -83 l-167 0 ZM750 50 l0 83 l83 0 l0 -83 l-83 0 ZM333 50 l-166 0 l0 83 l166 0 l0 -83 ZM833 133 l0 334 l84 0 l0 -334 l-84 0 ZM333 133 l0 167 l84 0 l0 -167 l-84 0 ZM167 133 l-84 0 l0 250 l84 0 l0 -250 ZM417 300 l0 250 l-84 0 l0 -83 l-83 0 l0 -84 l-83 0 l0 84 l83 0 l0 83 l83 0 l0 83 l417 0 l0 -83 l83 0 l0 -83 l-83 0 l0 83 l-250 0 l0 -250 l-83 0 Z" /><glyph glyph-name="" unicode="&#x306f;" d="M333 467 l0 83 l334 0 l0 250 l83 0 l0 -250 l167 0 l0 -83 l-167 0 l0 -334 l83 0 l0 -83 l84 0 l0 -83 l-84 0 l0 83 l-83 0 l0 -83 l-83 0 l0 -84 l-250 0 l0 84 l250 0 l0 166 l-250 0 l0 -166 l-84 0 l0 166 l84 0 l0 84 l250 0 l0 250 l-334 0 ZM250 50 l0 -167 l-83 0 l0 167 l83 0 ZM167 50 l-84 0 l0 500 l84 0 l0 -500 ZM167 550 l0 167 l83 0 l0 -167 l-83 0 Z" /><glyph glyph-name="" unicode="&#x3070;" d="M250 467 l0 83 l333 0 l0 250 l84 0 l0 -167 l83 0 l0 -83 l83 0 l0 -83 l-83 0 l0 83 l-83 0 l0 -417 l83 0 l0 -83 l83 0 l0 -83 l-83 0 l0 83 l-83 0 l0 -83 l-84 0 l0 -84 l-250 0 l0 84 l250 0 l0 166 l-250 0 l0 -166 l-83 0 l0 166 l83 0 l0 84 l250 0 l0 250 l-333 0 ZM750 717 l0 83 l83 0 l0 -83 l84 0 l0 -84 l-84 0 l0 84 l-83 0 ZM167 50 l0 -167 l-84 0 l0 167 l84 0 ZM83 50 l-83 0 l0 500 l83 0 l0 -500 ZM83 550 l0 167 l84 0 l0 -167 l-84 0 Z" /><glyph glyph-name="" unicode="&#x3071;" d="M250 467 l0 83 l333 0 l0 167 l84 0 l0 -167 l166 0 l0 -83 l-166 0 l0 -334 l83 0 l0 -83 l83 0 l0 -83 l-83 0 l0 83 l-83 0 l0 -83 l-84 0 l0 -84 l-250 0 l0 84 l250 0 l0 166 l-250 0 l0 -166 l-83 0 l0 166 l83 0 l0 84 l250 0 l0 250 l-333 0 ZM167 50 l0 -167 l-84 0 l0 167 l84 0 ZM83 50 l-83 0 l0 500 l83 0 l0 -500 ZM833 550 l0 167 l84 0 l0 -167 l-84 0 ZM83 550 l0 167 l84 0 l0 -167 l-84 0 ZM833 717 l-166 0 l0 83 l166 0 l0 -83 Z" /><glyph glyph-name="" unicode="&#x3072;" d="M83 633 l0 84 l334 0 l0 -167 l-84 0 l0 -83 l-83 0 l0 -167 l-83 0 l0 -250 l83 0 l0 -83 l250 0 l0 -84 l-250 0 l0 84 l-83 0 l0 83 l-84 0 l0 250 l84 0 l0 167 l83 0 l0 83 l83 0 l0 83 l-250 0 ZM500 -33 l0 83 l83 0 l0 -83 l-83 0 ZM583 50 l0 167 l84 0 l0 -167 l-84 0 ZM667 217 l0 333 l83 0 l0 -83 l83 0 l0 -84 l84 0 l0 -83 l-84 0 l0 83 l-83 0 l0 -166 l-83 0 ZM667 550 l-84 0 l0 167 l84 0 l0 -167 Z" /><glyph glyph-name="" unicode="&#x3073;" d="M583 633 l0 84 l84 0 l0 -84 l83 0 l0 -83 l-83 0 l0 83 l-84 0 ZM83 633 l0 84 l334 0 l0 -167 l-84 0 l0 -83 l-83 0 l0 -167 l-83 0 l0 -250 l83 0 l0 -83 l250 0 l0 -84 l-250 0 l0 84 l-83 0 l0 83 l-84 0 l0 250 l84 0 l0 167 l83 0 l0 83 l83 0 l0 83 l-250 0 ZM750 717 l0 83 l83 0 l0 -83 l84 0 l0 -84 l-84 0 l0 84 l-83 0 ZM500 -33 l0 83 l83 0 l0 -83 l-83 0 ZM583 50 l0 167 l84 0 l0 -167 l-84 0 ZM667 217 l0 250 l83 0 l0 -84 l83 0 l0 -83 l84 0 l0 -83 l-84 0 l0 83 l-83 0 l0 -83 l-83 0 Z" /><glyph glyph-name="" unicode="&#x3074;" d="M83 633 l0 84 l334 0 l0 -167 l-84 0 l0 -83 l-83 0 l0 -167 l-83 0 l0 -250 l83 0 l0 -83 l250 0 l0 -84 l-250 0 l0 84 l-83 0 l0 83 l-84 0 l0 250 l84 0 l0 167 l83 0 l0 83 l83 0 l0 83 l-250 0 ZM500 -33 l0 83 l83 0 l0 -83 l-83 0 ZM583 50 l0 167 l84 0 l0 -167 l-84 0 ZM667 217 l0 333 l166 0 l0 -83 l84 0 l0 -84 l-84 0 l0 84 l-83 0 l0 -250 l-83 0 ZM833 550 l0 167 l84 0 l0 -167 l-84 0 ZM667 550 l-84 0 l0 167 l84 0 l0 -167 ZM833 717 l-166 0 l0 83 l166 0 l0 -83 Z" /><glyph glyph-name="" unicode="&#x3075;" d="M333 -117 l0 84 l167 0 l0 -84 l-167 0 ZM250 633 l0 84 l417 0 l0 -167 l-84 0 l0 -83 l-83 0 l0 -250 l83 0 l0 -250 l-83 0 l0 250 l-83 0 l0 250 l83 0 l0 83 l83 0 l0 83 l-333 0 ZM917 217 l0 -250 l-84 0 l0 250 l84 0 ZM167 133 l0 -166 l-84 0 l0 166 l84 0 ZM167 133 l0 250 l83 0 l0 -250 l-83 0 ZM833 217 l-83 0 l0 166 l83 0 l0 -166 Z" /><glyph glyph-name="" unicode="&#x3076;" d="M333 -117 l0 84 l167 0 l0 -84 l-167 0 ZM250 633 l0 84 l417 0 l0 -84 l83 0 l0 -83 l83 0 l0 -83 l-83 0 l0 83 l-167 0 l0 -83 l-83 0 l0 -250 l83 0 l0 -250 l-83 0 l0 250 l-83 0 l0 250 l83 0 l0 83 l83 0 l0 83 l-333 0 ZM750 717 l0 83 l83 0 l0 -83 l84 0 l0 -84 l-84 0 l0 84 l-83 0 ZM917 133 l0 -166 l-84 0 l0 166 l84 0 ZM167 133 l0 -166 l-84 0 l0 166 l84 0 ZM833 133 l-83 0 l0 167 l83 0 l0 -167 ZM167 133 l0 250 l83 0 l0 -250 l-83 0 Z" /><glyph glyph-name="" unicode="&#x3077;" d="M333 -117 l0 84 l167 0 l0 -84 l-167 0 ZM250 633 l0 84 l417 0 l0 -167 l166 0 l0 -83 l-166 0 l0 83 l-84 0 l0 -83 l-83 0 l0 -250 l83 0 l0 -250 l-83 0 l0 250 l-83 0 l0 250 l83 0 l0 83 l83 0 l0 83 l-333 0 ZM917 133 l0 -166 l-84 0 l0 166 l84 0 ZM167 133 l0 -166 l-84 0 l0 166 l84 0 ZM833 133 l-83 0 l0 167 l83 0 l0 -167 ZM167 133 l0 250 l83 0 l0 -250 l-83 0 ZM833 550 l0 167 l84 0 l0 -167 l-84 0 ZM833 717 l-166 0 l0 83 l166 0 l0 -83 Z" /><glyph glyph-name="" unicode="&#x3078;" d="M0 217 l0 83 l83 0 l0 -83 l-83 0 ZM917 50 l-167 0 l0 83 l167 0 l0 -83 ZM750 133 l-167 0 l0 84 l167 0 l0 -84 ZM583 217 l-83 0 l0 83 l83 0 l0 -83 ZM500 300 l-83 0 l0 83 l83 0 l0 -83 ZM83 300 l0 83 l84 0 l0 -83 l-84 0 ZM417 383 l-250 0 l0 84 l250 0 l0 -84 Z" /><glyph glyph-name="" unicode="&#x3079;" d="M0 217 l0 83 l83 0 l0 -83 l-83 0 ZM500 550 l0 83 l83 0 l0 -83 l84 0 l0 -83 l-84 0 l0 83 l-83 0 ZM667 633 l0 84 l83 0 l0 -84 l83 0 l0 -83 l-83 0 l0 83 l-83 0 ZM917 50 l-167 0 l0 83 l167 0 l0 -83 ZM750 133 l-167 0 l0 84 l167 0 l0 -84 ZM583 217 l-83 0 l0 83 l83 0 l0 -83 ZM500 300 l-83 0 l0 83 l83 0 l0 -83 ZM83 300 l0 83 l84 0 l0 -83 l-84 0 ZM417 383 l-250 0 l0 84 l250 0 l0 -84 Z" /><glyph glyph-name="" unicode="&#x307b;" d="M333 383 l0 84 l334 0 l0 166 l-334 0 l0 84 l584 0 l0 -84 l-167 0 l0 -166 l167 0 l0 -84 l-167 0 l0 -250 l83 0 l0 -83 l84 0 l0 -83 l-84 0 l0 83 l-83 0 l0 -83 l-83 0 l0 -84 l-250 0 l0 84 l250 0 l0 166 l-250 0 l0 -166 l-84 0 l0 166 l84 0 l0 84 l250 0 l0 166 l-334 0 ZM250 50 l0 -167 l-83 0 l0 167 l83 0 ZM167 50 l-84 0 l0 500 l84 0 l0 -500 ZM167 550 l0 167 l83 0 l0 -167 l-83 0 Z" /><glyph glyph-name="" unicode="&#x307c;" d="M250 383 l0 84 l333 0 l0 166 l-333 0 l0 84 l417 0 l0 -84 l83 0 l0 -83 l-83 0 l0 -83 l166 0 l0 -84 l-166 0 l0 -250 l83 0 l0 -83 l83 0 l0 -83 l-83 0 l0 83 l-83 0 l0 -83 l-84 0 l0 -84 l-250 0 l0 84 l250 0 l0 166 l-250 0 l0 -166 l-83 0 l0 166 l83 0 l0 84 l250 0 l0 166 l-333 0 ZM750 717 l0 83 l83 0 l0 -83 l84 0 l0 -84 l-84 0 l0 84 l-83 0 ZM167 50 l0 -167 l-84 0 l0 167 l84 0 ZM83 50 l-83 0 l0 500 l83 0 l0 -500 ZM83 550 l0 167 l84 0 l0 -167 l-84 0 Z" /><glyph glyph-name="" unicode="&#x307e;" d="M167 383 l0 84 l333 0 l0 83 l-417 0 l0 83 l417 0 l0 167 l83 0 l0 -167 l250 0 l0 -83 l-250 0 l0 -83 l250 0 l0 -84 l-250 0 l0 -250 l167 0 l0 -83 l83 0 l0 -83 l-83 0 l0 83 l-167 0 l0 -83 l-83 0 l0 -84 l-250 0 l0 84 l250 0 l0 166 l-250 0 l0 -166 l-83 0 l0 166 l83 0 l0 84 l250 0 l0 166 l-333 0 Z" /><glyph glyph-name="" unicode="&#x307f;" d="M417 -117 l0 84 l166 0 l0 -84 l-166 0 ZM83 633 l0 84 l417 0 l0 -334 l167 0 l0 250 l83 0 l0 -333 l83 0 l0 -83 l84 0 l0 -84 l-84 0 l0 84 l-83 0 l0 -167 l-83 0 l0 -83 l-84 0 l0 83 l84 0 l0 250 l-250 0 l0 -167 l-84 0 l0 -83 l-83 0 l0 -83 l-167 0 l0 83 l167 0 l0 83 l83 0 l0 167 l-166 0 l0 -83 l-84 0 l0 -167 l-83 0 l0 167 l83 0 l0 83 l84 0 l0 83 l250 0 l0 250 l-334 0 Z" /><glyph glyph-name="" unicode="&#x3080;" d="M667 550 l0 83 l166 0 l0 -83 l84 0 l0 -83 l-84 0 l0 83 l-166 0 ZM83 550 l0 83 l250 0 l0 167 l84 0 l0 -167 l166 0 l0 -83 l-166 0 l0 -583 l333 0 l0 -84 l-333 0 l0 84 l-84 0 l0 83 l-166 0 l0 83 l166 0 l0 167 l-166 0 l0 -167 l-84 0 l0 167 l84 0 l0 83 l166 0 l0 167 l-250 0 ZM750 -33 l0 250 l83 0 l0 -250 l-83 0 Z" /><glyph glyph-name="" unicode="&#x3081;" d="M583 -117 l0 84 l167 0 l0 -84 l-167 0 ZM750 -33 l0 83 l83 0 l0 -83 l-83 0 ZM333 -33 l-166 0 l0 83 l166 0 l0 -83 ZM833 50 l0 333 l84 0 l0 -333 l-84 0 ZM333 50 l0 167 l84 0 l0 83 l83 0 l0 -167 l-83 0 l0 -83 l-84 0 ZM167 50 l-84 0 l0 250 l84 0 l0 -250 ZM333 217 l-83 0 l0 83 l-83 0 l0 83 l83 0 l0 84 l83 0 l0 -250 ZM500 300 l0 167 l-167 0 l0 83 l167 0 l0 250 l83 0 l0 -250 l167 0 l0 -83 l83 0 l0 -84 l-83 0 l0 84 l-167 0 l0 -167 l-83 0 ZM250 467 l-83 0 l0 166 l83 0 l0 -166 Z" /><glyph glyph-name="" unicode="&#x3082;" d="M83 300 l0 83 l250 0 l0 167 l-250 0 l0 83 l250 0 l0 167 l84 0 l0 -167 l333 0 l0 -83 l-333 0 l0 -167 l333 0 l0 -83 l-417 0 l0 -250 l84 0 l0 -83 l250 0 l0 -84 l-250 0 l0 84 l-84 0 l0 83 l-83 0 l0 250 l-167 0 ZM667 -33 l0 83 l83 0 l0 -83 l-83 0 ZM750 50 l0 167 l83 0 l0 -167 l-83 0 Z" /><glyph glyph-name="" unicode="&#x3083;" d="M583 50 l0 83 l84 0 l0 -83 l-84 0 ZM167 217 l0 83 l83 0 l0 167 l83 0 l0 -167 l84 0 l0 -250 l83 0 l0 -167 l-83 0 l0 167 l-84 0 l0 167 l-166 0 ZM667 133 l0 167 l83 0 l0 -167 l-83 0 ZM667 300 l-84 0 l0 -83 l-83 0 l0 83 l-83 0 l0 83 l83 0 l0 167 l83 0 l0 -167 l84 0 l0 -83 Z" /><glyph glyph-name="" unicode="&#x3084;" d="M667 217 l0 83 l166 0 l0 -83 l-166 0 ZM83 300 l0 83 l167 0 l0 -83 l-167 0 ZM583 50 l0 -167 l-83 0 l0 167 l83 0 ZM500 50 l-83 0 l0 250 l83 0 l0 -250 ZM833 300 l0 250 l84 0 l0 -250 l-84 0 ZM417 300 l-84 0 l0 83 l-83 0 l0 334 l83 0 l0 -250 l84 0 l0 -167 ZM667 550 l0 -167 l-84 0 l0 84 l-166 0 l0 83 l166 0 l0 250 l84 0 l0 -167 l166 0 l0 -83 l-166 0 Z" /><glyph glyph-name="" unicode="&#x3085;" d="M500 -117 l0 84 l83 0 l0 -84 l-83 0 ZM417 50 l0 83 l166 0 l0 167 l-166 0 l0 -83 l-84 0 l0 -250 l-83 0 l0 166 l-83 0 l0 334 l83 0 l0 -250 l83 0 l0 83 l84 0 l0 83 l83 0 l0 167 l83 0 l0 -167 l167 0 l0 -83 l83 0 l0 -167 l-83 0 l0 -83 l-83 0 l0 -83 l-84 0 l0 83 l-166 0 ZM750 133 l0 167 l-83 0 l0 -167 l83 0 Z" /><glyph glyph-name="" unicode="&#x3086;" d="M417 -117 l0 84 l166 0 l0 -84 l-166 0 ZM417 133 l0 84 l166 0 l0 333 l-166 0 l0 -83 l-84 0 l0 -167 l-83 0 l0 -250 l-83 0 l0 250 l83 0 l0 167 l83 0 l0 83 l84 0 l0 83 l166 0 l0 167 l84 0 l0 -167 l166 0 l0 -83 l84 0 l0 -333 l-84 0 l0 -84 l-166 0 l0 -166 l-84 0 l0 166 l-166 0 ZM667 217 l166 0 l0 333 l-166 0 l0 -333 ZM167 300 l-84 0 l0 333 l84 0 l0 -333 Z" /><glyph glyph-name="" unicode="&#x3087;" d="M500 -117 l-167 0 l0 84 l167 0 l0 -84 ZM500 -33 l0 166 l-167 0 l0 -166 l-83 0 l0 166 l83 0 l0 84 l167 0 l0 333 l83 0 l0 -167 l167 0 l0 -83 l-167 0 l0 -167 l84 0 l0 -83 l83 0 l0 -83 l-83 0 l0 83 l-84 0 l0 -83 l-83 0 Z" /><glyph glyph-name="" unicode="&#x3088;" d="M417 -117 l-250 0 l0 84 l250 0 l0 -84 ZM417 -33 l0 166 l-250 0 l0 -166 l-84 0 l0 166 l84 0 l0 84 l250 0 l0 583 l83 0 l0 -250 l250 0 l0 -83 l-250 0 l0 -334 l167 0 l0 -83 l83 0 l0 -83 l-83 0 l0 83 l-167 0 l0 -83 l-83 0 Z" /><glyph glyph-name="" unicode="&#x3089;" d="M333 -117 l0 84 l250 0 l0 -84 l-250 0 ZM333 717 l0 83 l167 0 l0 -83 l167 0 l0 -84 l-167 0 l0 84 l-167 0 ZM750 -33 l-167 0 l0 83 l167 0 l0 -83 ZM750 50 l0 167 l83 0 l0 -167 l-83 0 ZM750 217 l-83 0 l0 83 l83 0 l0 -83 ZM417 217 l-250 0 l0 333 l83 0 l0 -250 l167 0 l0 -83 ZM667 300 l-250 0 l0 83 l250 0 l0 -83 Z" /><glyph glyph-name="" unicode="&#x308a;" d="M417 -117 l0 84 l166 0 l0 -84 l-166 0 ZM583 -33 l0 83 l84 0 l0 -83 l-84 0 ZM667 50 l0 667 l83 0 l0 -667 l-83 0 ZM417 217 l0 -84 l-84 0 l0 84 l84 0 ZM417 217 l0 83 l83 0 l0 -83 l-83 0 ZM333 217 l-83 0 l0 500 l83 0 l0 -500 Z" /><glyph glyph-name="" unicode="&#x308b;" d="M167 217 l0 83 l83 0 l0 -83 l-83 0 ZM250 633 l0 84 l500 0 l0 -84 l-83 0 l0 -83 l-84 0 l0 -83 l84 0 l0 -84 l83 0 l0 -83 l83 0 l0 -250 l-83 0 l0 -83 l-83 0 l0 -84 l-334 0 l0 84 l167 0 l0 166 l83 0 l0 -166 l84 0 l0 83 l83 0 l0 250 l-83 0 l0 83 l-250 0 l0 -83 l-167 0 l0 83 l167 0 l0 84 l83 0 l0 83 l83 0 l0 83 l-333 0 ZM333 -33 l-83 0 l0 166 l83 0 l0 -166 ZM500 133 l-167 0 l0 84 l167 0 l0 -84 Z" /><glyph glyph-name="" unicode="&#x308c;" d="M83 50 l0 83 l84 0 l0 -83 l-84 0 ZM83 467 l0 83 l167 0 l0 250 l83 0 l0 -417 l84 0 l0 -83 l-84 0 l0 -417 l-83 0 l0 250 l-83 0 l0 84 l83 0 l0 250 l-167 0 ZM917 -117 l-167 0 l0 84 l167 0 l0 -84 ZM750 -33 l-83 0 l0 250 l83 0 l0 -250 ZM750 217 l0 250 l83 0 l0 -250 l-83 0 ZM417 383 l0 84 l83 0 l0 -84 l-83 0 ZM750 467 l-250 0 l0 83 l250 0 l0 -83 Z" /><glyph glyph-name="" unicode="&#x308d;" d="M333 -117 l0 84 l250 0 l0 -84 l-250 0 ZM167 217 l0 83 l83 0 l0 -83 l-83 0 ZM250 633 l0 84 l500 0 l0 -84 l-83 0 l0 -83 l-84 0 l0 -83 l84 0 l0 -84 l83 0 l0 -83 l83 0 l0 -250 l-83 0 l0 -83 l-167 0 l0 83 l167 0 l0 250 l-83 0 l0 83 l-250 0 l0 -83 l-167 0 l0 83 l167 0 l0 84 l83 0 l0 83 l83 0 l0 83 l-333 0 Z" /><glyph glyph-name="" unicode="&#x308f;" d="M583 -117 l0 84 l167 0 l0 -84 l-167 0 ZM83 50 l0 83 l84 0 l0 -83 l-84 0 ZM83 467 l0 83 l167 0 l0 250 l83 0 l0 -417 l84 0 l0 -83 l-84 0 l0 -417 l-83 0 l0 250 l-83 0 l0 84 l83 0 l0 250 l-167 0 ZM750 -33 l0 83 l83 0 l0 -83 l-83 0 ZM833 50 l0 333 l84 0 l0 -333 l-84 0 ZM833 383 l-83 0 l0 84 l83 0 l0 -84 ZM417 383 l0 84 l83 0 l0 -84 l-83 0 ZM750 467 l-250 0 l0 83 l250 0 l0 -83 Z" /><glyph glyph-name="" unicode="&#x3092;" d="M83 550 l0 83 l250 0 l0 167 l84 0 l0 -167 l333 0 l0 -83 l-417 0 l0 -83 l167 0 l0 -84 l83 0 l0 -83 l84 0 l0 -83 l-84 0 l0 -167 l-83 0 l0 167 l-83 0 l0 -84 l-84 0 l0 -166 l417 0 l0 -84 l-417 0 l0 84 l-83 0 l0 166 l83 0 l0 84 l84 0 l0 83 l83 0 l0 83 l-250 0 l0 -83 l-83 0 l0 -167 l-84 0 l0 167 l84 0 l0 83 l83 0 l0 167 l-167 0 ZM833 300 l-166 0 l0 83 l166 0 l0 -83 Z" /><glyph glyph-name="" unicode="&#x3093;" d="M833 -117 l-166 0 l0 84 l166 0 l0 -84 ZM833 -33 l0 166 l84 0 l0 -166 l-84 0 ZM667 -33 l-84 0 l0 333 l84 0 l0 -333 ZM167 50 l0 -167 l-84 0 l0 167 l84 0 ZM167 50 l0 167 l83 0 l0 -167 l-83 0 ZM417 217 l-167 0 l0 166 l83 0 l0 -83 l84 0 l0 -83 ZM583 300 l-166 0 l0 83 l166 0 l0 -83 ZM417 383 l-84 0 l0 167 l84 0 l0 -167 ZM417 550 l0 167 l83 0 l0 -167 l-83 0 Z" /><glyph glyph-name="" unicode="&#x30a2;" d="M167 -117 l0 84 l166 0 l0 -84 l-166 0 ZM667 383 l0 84 l83 0 l0 -84 l-83 0 ZM83 633 l0 84 l834 0 l0 -167 l-84 0 l0 -83 l-83 0 l0 83 l83 0 l0 83 l-750 0 ZM333 -33 l0 83 l84 0 l0 -83 l-84 0 ZM417 50 l0 417 l83 0 l0 -417 l-83 0 Z" /><glyph glyph-name="" unicode="&#x30a4;" d="M83 217 l0 83 l167 0 l0 -83 l-167 0 ZM583 467 l0 -584 l-83 0 l0 500 l-83 0 l0 -83 l-167 0 l0 83 l167 0 l0 84 l166 0 ZM583 467 l0 83 l84 0 l0 -83 l-84 0 ZM667 550 l0 83 l83 0 l0 -83 l-83 0 ZM750 633 l0 84 l83 0 l0 -84 l-83 0 Z" /><glyph glyph-name="" unicode="&#x30a6;" d="M250 -117 l0 84 l167 0 l0 -84 l-167 0 ZM583 -33 l-166 0 l0 83 l166 0 l0 -83 ZM583 50 l0 83 l84 0 l0 -83 l-84 0 ZM667 133 l0 167 l83 0 l0 -167 l-83 0 ZM750 300 l0 250 l-583 0 l0 -250 l-84 0 l0 333 l334 0 l0 167 l83 0 l0 -167 l333 0 l0 -333 l-83 0 Z" /><glyph glyph-name="" unicode="&#x30a7;" d="M167 -33 l0 83 l250 0 l0 333 l-250 0 l0 84 l583 0 l0 -84 l-250 0 l0 -333 l250 0 l0 -83 l-583 0 Z" /><glyph glyph-name="" unicode="&#x30a9;" d="M417 -117 l0 84 l83 0 l0 166 l-83 0 l0 -83 l-84 0 l0 -83 l-166 0 l0 83 l166 0 l0 83 l84 0 l0 84 l83 0 l0 83 l-333 0 l0 83 l333 0 l0 167 l83 0 l0 -167 l167 0 l0 -83 l-167 0 l0 -417 l-166 0 Z" /><glyph glyph-name="" unicode="&#x30aa;" d="M417 -117 l0 84 l166 0 l0 333 l-83 0 l0 -83 l-83 0 l0 -84 l-167 0 l0 -83 l-167 0 l0 83 l167 0 l0 84 l167 0 l0 83 l83 0 l0 83 l83 0 l0 84 l-500 0 l0 83 l500 0 l0 250 l84 0 l0 -250 l250 0 l0 -83 l-250 0 l0 -584 l-250 0 Z" /><glyph glyph-name="" unicode="&#x30ab;" d="M583 -117 l0 84 l250 0 l0 -84 l-250 0 ZM83 -117 l0 84 l167 0 l0 -84 l-167 0 ZM83 467 l0 83 l334 0 l0 250 l83 0 l0 -250 l417 0 l0 -583 l-84 0 l0 500 l-333 0 l0 -250 l-83 0 l0 -167 l-84 0 l0 -83 l-83 0 l0 83 l83 0 l0 167 l84 0 l0 250 l-334 0 Z" /><glyph glyph-name="" unicode="&#x30ae;" d="M0 133 l0 84 l333 0 l0 250 l-333 0 l0 83 l333 0 l0 250 l84 0 l0 -250 l250 0 l0 -83 l-250 0 l0 -250 l416 0 l0 -84 l-333 0 l0 -250 l-83 0 l0 250 l-417 0 ZM583 633 l0 84 l84 0 l0 -84 l83 0 l0 -83 l-83 0 l0 83 l-84 0 ZM750 717 l0 83 l83 0 l0 -83 l84 0 l0 -84 l-84 0 l0 84 l-83 0 Z" /><glyph glyph-name="" unicode="&#x30af;" d="M167 -117 l0 84 l250 0 l0 -84 l-250 0 ZM167 300 l0 83 l83 0 l0 -83 l-83 0 ZM583 -33 l-166 0 l0 83 l166 0 l0 -83 ZM583 50 l0 83 l84 0 l0 -83 l-84 0 ZM667 133 l0 167 l83 0 l0 -167 l-83 0 ZM750 300 l0 250 l-333 0 l0 -83 l-84 0 l0 -84 l-83 0 l0 84 l83 0 l0 83 l84 0 l0 250 l83 0 l0 -167 l333 0 l0 -333 l-83 0 Z" /><glyph glyph-name="" unicode="&#x30b0;" d="M83 -117 l0 84 l250 0 l0 -84 l-250 0 ZM83 300 l0 83 l84 0 l0 -83 l-84 0 ZM583 717 l0 83 l84 0 l0 -83 l83 0 l0 -417 l-83 0 l0 -167 l-84 0 l0 -83 l-83 0 l0 -83 l-167 0 l0 83 l167 0 l0 83 l83 0 l0 167 l84 0 l0 250 l-334 0 l0 -83 l-83 0 l0 -84 l-83 0 l0 84 l83 0 l0 83 l83 0 l0 250 l84 0 l0 -167 l250 0 l0 84 l-84 0 ZM750 800 l0 83 l83 0 l0 -83 l84 0 l0 -83 l-84 0 l0 83 l-83 0 Z" /><glyph glyph-name="" unicode="&#x30b1;" d="M167 -117 l0 84 l166 0 l0 -84 l-166 0 ZM83 300 l0 83 l84 0 l0 -83 l-84 0 ZM500 -33 l-167 0 l0 83 l167 0 l0 -83 ZM500 50 l0 167 l83 0 l0 -167 l-83 0 ZM583 217 l0 250 l-333 0 l0 -84 l-83 0 l0 84 l83 0 l0 333 l83 0 l0 -250 l584 0 l0 -83 l-250 0 l0 -250 l-84 0 Z" /><glyph glyph-name="" unicode="&#x30b3;" d="M83 -33 l0 83 l667 0 l0 500 l-667 0 l0 83 l750 0 l0 -750 l-83 0 l0 84 l-667 0 Z" /><glyph glyph-name="" unicode="&#x30b4;" d="M83 -33 l0 83 l667 0 l0 500 l-667 0 l0 83 l500 0 l0 84 l84 0 l0 -84 l166 0 l0 -750 l-83 0 l0 84 l-667 0 ZM500 717 l0 83 l83 0 l0 -83 l-83 0 ZM750 800 l0 83 l83 0 l0 -83 l84 0 l0 -83 l-84 0 l0 83 l-83 0 Z" /><glyph glyph-name="" unicode="&#x30b5;" d="M250 -117 l0 84 l167 0 l0 -84 l-167 0 ZM83 467 l0 83 l167 0 l0 250 l83 0 l0 -250 l334 0 l0 250 l83 0 l0 -250 l167 0 l0 -83 l-167 0 l0 -250 l-83 0 l0 -167 l-84 0 l0 -83 l-166 0 l0 83 l166 0 l0 167 l84 0 l0 250 l-334 0 l0 -250 l-83 0 l0 250 l-167 0 Z" /><glyph glyph-name="" unicode="&#x30b6;" d="M167 -117 l0 84 l166 0 l0 -84 l-166 0 ZM0 467 l0 83 l167 0 l0 250 l83 0 l0 -250 l333 0 l0 250 l84 0 l0 -167 l83 0 l0 -83 l83 0 l0 -83 l-83 0 l0 83 l-83 0 l0 -333 l-84 0 l0 -167 l-83 0 l0 -83 l-167 0 l0 83 l167 0 l0 167 l83 0 l0 250 l-333 0 l0 -250 l-83 0 l0 250 l-167 0 ZM750 717 l0 83 l83 0 l0 -83 l84 0 l0 -84 l-84 0 l0 84 l-83 0 Z" /><glyph glyph-name="" unicode="&#x30b7;" d="M167 -117 l0 84 l250 0 l0 -84 l-250 0 ZM83 383 l0 84 l167 0 l0 -84 l167 0 l0 -83 l-167 0 l0 83 l-167 0 ZM167 633 l0 84 l166 0 l0 -84 l167 0 l0 -83 l-167 0 l0 83 l-166 0 ZM583 -33 l-166 0 l0 83 l166 0 l0 -83 ZM583 50 l0 83 l84 0 l0 -83 l-84 0 ZM667 133 l0 84 l83 0 l0 -84 l-83 0 ZM750 217 l0 166 l83 0 l0 -166 l-83 0 ZM833 383 l0 167 l84 0 l0 -167 l-84 0 Z" /><glyph glyph-name="" unicode="&#x30b8;" d="M167 -117 l0 84 l250 0 l0 -84 l-250 0 ZM83 383 l0 84 l167 0 l0 -84 l167 0 l0 -83 l-167 0 l0 83 l-167 0 ZM167 633 l0 84 l166 0 l0 -84 l167 0 l0 -83 l-167 0 l0 83 l-166 0 ZM583 717 l0 83 l84 0 l0 -83 l83 0 l0 -84 l-83 0 l0 84 l-84 0 ZM750 800 l0 83 l83 0 l0 -83 l84 0 l0 -83 l-84 0 l0 83 l-83 0 ZM583 -33 l-166 0 l0 83 l166 0 l0 -83 ZM583 50 l0 83 l84 0 l0 -83 l-84 0 ZM667 133 l0 84 l83 0 l0 -84 l-83 0 ZM750 217 l0 166 l83 0 l0 -166 l-83 0 ZM833 383 l0 167 l84 0 l0 -167 l-84 0 Z" /><glyph glyph-name="" unicode="&#x30b9;" d="M83 -117 l0 84 l167 0 l0 -84 l-167 0 ZM167 633 l0 84 l583 0 l0 -334 l-83 0 l0 -250 l83 0 l0 -83 l83 0 l0 -83 l84 0 l0 -84 l-84 0 l0 84 l-83 0 l0 83 l-83 0 l0 83 l-167 0 l0 -83 l-83 0 l0 -83 l-167 0 l0 83 l167 0 l0 83 l83 0 l0 84 l83 0 l0 166 l84 0 l0 250 l-500 0 Z" /><glyph glyph-name="" unicode="&#x30ba;" d="M0 -117 l0 84 l167 0 l0 -84 l-167 0 ZM83 633 l0 84 l500 0 l0 83 l84 0 l0 -417 l-84 0 l0 -250 l84 0 l0 -83 l83 0 l0 -83 l83 0 l0 -84 l-83 0 l0 84 l-83 0 l0 83 l-84 0 l0 83 l-166 0 l0 -83 l-84 0 l0 -83 l-166 0 l0 83 l166 0 l0 83 l84 0 l0 84 l83 0 l0 166 l83 0 l0 250 l-500 0 ZM750 800 l0 83 l83 0 l0 -83 l84 0 l0 -83 l-84 0 l0 83 l-83 0 ZM500 800 l0 83 l83 0 l0 -83 l-83 0 Z" /><glyph glyph-name="" unicode="&#x30bd;" d="M250 -117 l0 84 l167 0 l0 -84 l-167 0 ZM583 -33 l-166 0 l0 83 l166 0 l0 -83 ZM583 50 l0 83 l84 0 l0 -83 l-84 0 ZM667 133 l0 167 l83 0 l0 -167 l-83 0 ZM750 300 l0 417 l83 0 l0 -417 l-83 0 ZM250 550 l0 -167 l-83 0 l0 167 l83 0 ZM167 550 l-84 0 l0 167 l84 0 l0 -167 Z" /><glyph glyph-name="" unicode="&#x30c1;" d="M167 -117 l0 84 l166 0 l0 -84 l-166 0 ZM0 300 l0 83 l417 0 l0 167 l-334 0 l0 83 l417 0 l0 -250 l417 0 l0 -83 l-417 0 l0 -250 l-83 0 l0 -83 l-84 0 l0 83 l84 0 l0 250 l-417 0 ZM833 633 l-333 0 l0 84 l333 0 l0 -84 Z" /><glyph glyph-name="" unicode="&#x30c3;" d="M250 -117 l0 84 l167 0 l0 -84 l-167 0 ZM583 -33 l-166 0 l0 83 l166 0 l0 -83 ZM583 50 l0 167 l84 0 l0 -167 l-84 0 ZM667 217 l0 250 l83 0 l0 -250 l-83 0 ZM500 467 l0 -250 l-83 0 l0 250 l83 0 ZM250 467 l0 -250 l-83 0 l0 250 l83 0 Z" /><glyph glyph-name="" unicode="&#x30c4;" d="M250 -117 l0 84 l167 0 l0 -84 l-167 0 ZM583 -33 l-166 0 l0 83 l166 0 l0 -83 ZM583 50 l0 83 l84 0 l0 -83 l-84 0 ZM667 133 l0 167 l83 0 l0 -167 l-83 0 ZM750 300 l0 417 l83 0 l0 -417 l-83 0 ZM500 550 l0 -167 l-83 0 l0 167 l83 0 ZM250 550 l0 -167 l-83 0 l0 167 l83 0 ZM417 550 l-84 0 l0 167 l84 0 l0 -167 ZM167 550 l-84 0 l0 167 l84 0 l0 -167 Z" /><glyph glyph-name="" unicode="&#x30c8;" d="M333 383 l0 -500 l-83 0 l0 917 l83 0 l0 -333 l167 0 l0 -84 l167 0 l0 -83 l166 0 l0 -83 l-166 0 l0 83 l-167 0 l0 83 l-167 0 Z" /><glyph glyph-name="" unicode="&#x30c9;" d="M500 633 l0 84 l83 0 l0 -84 l84 0 l0 -83 l-84 0 l0 83 l-83 0 ZM667 717 l0 83 l83 0 l0 -83 l83 0 l0 -84 l-83 0 l0 84 l-83 0 ZM250 383 l0 -500 l-83 0 l0 917 l83 0 l0 -333 l167 0 l0 -84 l166 0 l0 -83 l167 0 l0 -83 l-167 0 l0 83 l-166 0 l0 83 l-167 0 Z" /><glyph glyph-name="" unicode="&#x30cb;" d="M83 -33 l0 83 l834 0 l0 -83 l-834 0 ZM167 550 l0 83 l666 0 l0 -83 l-666 0 Z" /><glyph glyph-name="" unicode="&#x30cd;" d="M0 50 l0 83 l250 0 l0 -83 l-250 0 ZM83 550 l0 83 l334 0 l0 167 l83 0 l0 -167 l250 0 l0 -166 l-83 0 l0 -84 l-84 0 l0 -166 l167 0 l0 -84 l167 0 l0 -83 l-167 0 l0 83 l-167 0 l0 84 l-83 0 l0 -334 l-83 0 l0 250 l-167 0 l0 84 l167 0 l0 83 l83 0 l0 83 l83 0 l0 84 l84 0 l0 83 l-584 0 Z" /><glyph glyph-name="" unicode="&#x30ce;" d="M167 -117 l0 84 l166 0 l0 -84 l-166 0 ZM500 -33 l-167 0 l0 83 l167 0 l0 -83 ZM500 50 l0 83 l83 0 l0 -83 l-83 0 ZM583 133 l0 167 l84 0 l0 -167 l-84 0 ZM667 300 l0 417 l83 0 l0 -417 l-83 0 Z" /><glyph glyph-name="" unicode="&#x30d1;" d="M917 50 l0 -167 l-84 0 l0 167 l84 0 ZM167 50 l0 -167 l-84 0 l0 167 l84 0 ZM833 50 l-83 0 l0 167 l83 0 l0 -167 ZM167 50 l0 250 l83 0 l0 -250 l-83 0 ZM750 217 l-83 0 l0 166 l83 0 l0 -166 ZM250 300 l0 333 l83 0 l0 -333 l-83 0 ZM833 467 l-166 0 l0 83 l166 0 l0 -83 ZM833 550 l0 167 l84 0 l0 -167 l-84 0 ZM667 550 l-84 0 l0 167 l84 0 l0 -167 ZM833 717 l-166 0 l0 83 l166 0 l0 -83 Z" /><glyph glyph-name="" unicode="&#x30d2;" d="M833 -117 l-583 0 l0 84 l583 0 l0 -84 ZM250 -33 l-83 0 l0 833 l83 0 l0 -333 l333 0 l0 -84 l-333 0 l0 -416 ZM833 467 l-250 0 l0 83 l250 0 l0 -83 Z" /><glyph glyph-name="" unicode="&#x30d4;" d="M750 -117 l-583 0 l0 84 l583 0 l0 -84 ZM167 -33 l-84 0 l0 750 l84 0 l0 -334 l250 0 l0 -83 l-250 0 l0 -333 ZM583 383 l-166 0 l0 84 l166 0 l0 -84 ZM833 467 l-166 0 l0 83 l166 0 l0 -83 ZM833 550 l0 167 l84 0 l0 -167 l-84 0 ZM667 550 l-84 0 l0 167 l84 0 l0 -167 ZM833 717 l-166 0 l0 83 l166 0 l0 -83 Z" /><glyph glyph-name="" unicode="&#x30d5;" d="M167 -117 l0 84 l250 0 l0 -84 l-250 0 ZM83 633 l0 84 l750 0 l0 -417 l-83 0 l0 -167 l-83 0 l0 -83 l-84 0 l0 -83 l-166 0 l0 83 l166 0 l0 83 l84 0 l0 167 l83 0 l0 333 l-667 0 Z" /><glyph glyph-name="" unicode="&#x30d7;" d="M167 -117 l0 84 l166 0 l0 -84 l-166 0 ZM0 633 l0 84 l583 0 l0 83 l84 0 l0 -167 l166 0 l0 -83 l-83 0 l0 -250 l-83 0 l0 -167 l-84 0 l0 -83 l-83 0 l0 -83 l-167 0 l0 83 l167 0 l0 83 l83 0 l0 167 l84 0 l0 333 l-667 0 ZM833 633 l0 167 l84 0 l0 -167 l-84 0 ZM833 800 l-166 0 l0 83 l166 0 l0 -83 Z" /><glyph glyph-name="" unicode="&#x30d9;" d="M0 133 l0 84 l83 0 l0 -84 l-83 0 ZM583 633 l0 84 l84 0 l0 -84 l83 0 l0 -83 l-83 0 l0 83 l-84 0 ZM750 717 l0 83 l83 0 l0 -83 l84 0 l0 -84 l-84 0 l0 84 l-83 0 ZM833 50 l84 0 l0 -83 l-84 0 l0 83 ZM833 50 l-83 0 l0 83 l83 0 l0 -83 ZM750 133 l-83 0 l0 84 l83 0 l0 -84 ZM667 217 l-84 0 l0 83 l84 0 l0 -83 ZM83 217 l0 83 l84 0 l0 -83 l-84 0 ZM583 300 l-83 0 l0 83 l83 0 l0 -83 ZM167 300 l0 83 l83 0 l0 -83 l-83 0 ZM500 383 l-250 0 l0 84 l250 0 l0 -84 Z" /><glyph glyph-name="" unicode="&#x30da;" d="M0 133 l0 84 l83 0 l0 -84 l-83 0 ZM833 50 l84 0 l0 -83 l-84 0 l0 83 ZM833 50 l-83 0 l0 83 l83 0 l0 -83 ZM750 133 l-83 0 l0 84 l83 0 l0 -84 ZM667 217 l-84 0 l0 83 l84 0 l0 -83 ZM83 217 l0 83 l84 0 l0 -83 l-84 0 ZM583 300 l-83 0 l0 83 l83 0 l0 -83 ZM167 300 l0 83 l83 0 l0 -83 l-83 0 ZM500 383 l-250 0 l0 84 l250 0 l0 -84 ZM833 467 l-166 0 l0 83 l166 0 l0 -83 ZM833 550 l0 167 l84 0 l0 -167 l-84 0 ZM667 550 l-84 0 l0 167 l84 0 l0 -167 ZM833 717 l-166 0 l0 83 l166 0 l0 -83 Z" /><glyph glyph-name="" unicode="&#x30e1;" d="M83 -117 l0 84 l167 0 l0 -84 l-167 0 ZM167 383 l0 84 l166 0 l0 -84 l250 0 l0 -83 l167 0 l0 -83 l167 0 l0 -84 l-167 0 l0 84 l-167 0 l0 -84 l-83 0 l0 -83 l-83 0 l0 -83 l-167 0 l0 83 l167 0 l0 83 l83 0 l0 167 l-167 0 l0 83 l-166 0 ZM583 383 l0 417 l84 0 l0 -417 l-84 0 Z" /><glyph glyph-name="" unicode="&#x30e2;" d="M0 300 l0 83 l333 0 l0 250 l-250 0 l0 84 l667 0 l0 -84 l-333 0 l0 -250 l500 0 l0 -83 l-500 0 l0 -333 l333 0 l0 -84 l-333 0 l0 84 l-84 0 l0 333 l-333 0 Z" /><glyph glyph-name="" unicode="&#x30e3;" d="M167 217 l0 83 l166 0 l0 250 l84 0 l0 -250 l83 0 l0 -83 l-83 0 l0 -84 l83 0 l0 -250 l-83 0 l0 250 l-84 0 l0 84 l-166 0 ZM667 217 l0 -167 l-84 0 l0 167 l84 0 ZM667 217 l0 83 l-167 0 l0 83 l250 0 l0 -166 l-83 0 Z" /><glyph glyph-name="" unicode="&#x30e4;" d="M0 383 l0 84 l250 0 l0 -84 l-250 0 ZM500 133 l0 -250 l-83 0 l0 250 l83 0 ZM417 133 l-84 0 l0 334 l-83 0 l0 333 l83 0 l0 -250 l250 0 l0 -83 l-166 0 l0 -334 ZM750 383 l0 -166 l-83 0 l0 166 l83 0 ZM750 383 l0 167 l-167 0 l0 83 l250 0 l0 -250 l-83 0 Z" /><glyph glyph-name="" unicode="&#x30e6;" d="M0 -33 l0 83 l583 0 l0 500 l-416 0 l0 83 l500 0 l0 -583 l250 0 l0 -83 l-917 0 Z" /><glyph glyph-name="" unicode="&#x30e9;" d="M250 -117 l0 84 l167 0 l0 -84 l-167 0 ZM83 383 l0 84 l750 0 l0 -250 l-83 0 l0 -84 l-83 0 l0 -83 l-84 0 l0 -83 l-166 0 l0 83 l166 0 l0 83 l84 0 l0 84 l83 0 l0 166 l-667 0 ZM167 633 l0 84 l583 0 l0 -84 l-583 0 Z" /><glyph glyph-name="" unicode="&#x30ea;" d="M333 -117 l0 84 l167 0 l0 -84 l-167 0 ZM500 -33 l0 83 l83 0 l0 -83 l-83 0 ZM583 50 l0 167 l84 0 l0 -167 l-84 0 ZM667 217 l0 583 l83 0 l0 -583 l-83 0 ZM250 800 l0 -500 l-83 0 l0 500 l83 0 Z" /><glyph glyph-name="" unicode="&#x30eb;" d="M667 -117 l-167 0 l0 917 l83 0 l0 -833 l84 0 l0 -84 ZM667 -33 l0 83 l83 0 l0 -83 l-83 0 ZM167 50 l0 -167 l-84 0 l0 167 l84 0 ZM750 50 l0 167 l83 0 l0 -167 l-83 0 ZM167 50 l0 167 l83 0 l0 -167 l-83 0 ZM833 217 l0 166 l84 0 l0 -166 l-84 0 ZM250 217 l0 500 l83 0 l0 -500 l-83 0 Z" /><glyph glyph-name="" unicode="&#x30ef;" d="M250 -117 l0 84 l167 0 l0 -84 l-167 0 ZM583 -33 l-166 0 l0 83 l166 0 l0 -83 ZM583 50 l0 83 l84 0 l0 -83 l-84 0 ZM667 133 l0 167 l83 0 l0 -167 l-83 0 ZM750 300 l0 333 l-583 0 l0 -250 l-84 0 l0 334 l750 0 l0 -417 l-83 0 Z" /><glyph glyph-name="" unicode="&#x30f3;" d="M167 -117 l0 84 l250 0 l0 -84 l-250 0 ZM167 633 l0 84 l166 0 l0 -84 l167 0 l0 -83 l-167 0 l0 83 l-166 0 ZM583 -33 l-166 0 l0 83 l166 0 l0 -83 ZM583 50 l0 83 l84 0 l0 -83 l-84 0 ZM667 133 l0 84 l83 0 l0 -84 l-83 0 ZM750 217 l0 166 l83 0 l0 -166 l-83 0 ZM833 383 l0 167 l84 0 l0 -167 l-84 0 Z" /><glyph glyph-name="" unicode="&#x30fc;" d="M83 383 l0 84 l84 0 l0 -84 l666 0 l0 -83 l-666 0 l0 83 l-84 0 Z" /><glyph glyph-name="" unicode="&#x4e00;" d="M0 300 l0 83 l833 0 l0 84 l84 0 l0 -167 l-917 0 Z" /><glyph glyph-name="" unicode="&#x4e01;" d="M250 -117 l0 84 l250 0 l0 750 l-500 0 l0 83 l917 0 l0 -83 l-334 0 l0 -834 l-333 0 Z" /><glyph glyph-name="" unicode="&#x4e07;" d="M417 -117 l0 84 l250 0 l0 -84 l-250 0 ZM0 717 l0 83 l917 0 l0 -83 l-500 0 l0 -250 l416 0 l0 -417 l-83 0 l0 -83 l-83 0 l0 83 l83 0 l0 333 l-333 0 l0 -83 l-84 0 l0 -167 l-83 0 l0 -166 l-83 0 l0 166 l83 0 l0 167 l83 0 l0 417 l-333 0 Z" /><glyph glyph-name="" unicode="&#x4e08;" d="M0 -117 l0 84 l167 0 l0 -84 l-167 0 ZM250 300 l0 83 l83 0 l0 -83 l84 0 l0 -83 l83 0 l0 -84 l83 0 l0 -83 l167 0 l0 -83 l167 0 l0 -84 l-167 0 l0 84 l-167 0 l0 83 l-83 0 l0 83 l-83 0 l0 -83 l-84 0 l0 -83 l-166 0 l0 83 l166 0 l0 83 l84 0 l0 84 l-84 0 l0 83 l-83 0 ZM0 550 l0 83 l500 0 l0 250 l83 0 l0 -250 l334 0 l0 -83 l-334 0 l0 -333 l-83 0 l0 333 l-500 0 Z" /><glyph glyph-name="" unicode="&#x4e09;" d="M0 -117 l0 84 l833 0 l0 83 l84 0 l0 -167 l-917 0 ZM167 300 l0 83 l583 0 l0 -83 l-583 0 ZM83 633 l0 84 l750 0 l0 -84 l-750 0 Z" /><glyph glyph-name="" unicode="&#x4e0a;" d="M0 -117 l0 84 l417 0 l0 916 l83 0 l0 -333 l333 0 l0 -83 l-333 0 l0 -500 l417 0 l0 -84 l-917 0 Z" /><glyph glyph-name="" unicode="&#x4e0b;" d="M0 717 l0 83 l917 0 l0 -83 l-417 0 l0 -250 l167 0 l0 -84 l166 0 l0 -83 l-166 0 l0 83 l-167 0 l0 -500 l-83 0 l0 834 l-417 0 Z" /><glyph glyph-name="" unicode="&#x4e0d;" d="M0 217 l0 83 l167 0 l0 -83 l-167 0 ZM583 383 l0 84 l84 0 l0 -84 l83 0 l0 -83 l83 0 l0 -83 l84 0 l0 -84 l-84 0 l0 84 l-83 0 l0 83 l-83 0 l0 83 l-84 0 ZM0 717 l0 83 l917 0 l0 -83 l-250 0 l0 -84 l-84 0 l0 -83 l-83 0 l0 -667 l-83 0 l0 500 l-84 0 l0 -83 l-166 0 l0 83 l166 0 l0 84 l84 0 l0 83 l83 0 l0 83 l83 0 l0 84 l-583 0 Z" /><glyph glyph-name="" unicode="&#x4e0e;" d="M333 -117 l0 84 l250 0 l0 -84 l-250 0 ZM0 217 l0 83 l667 0 l0 83 l-417 0 l0 500 l83 0 l0 -166 l500 0 l0 -84 l-500 0 l0 -166 l417 0 l0 -167 l167 0 l0 -83 l-167 0 l0 -167 l-83 0 l0 -83 l-84 0 l0 83 l84 0 l0 167 l-667 0 Z" /><glyph glyph-name="" unicode="&#x4e16;" d="M0 467 l0 83 l167 0 l0 250 l83 0 l0 -250 l167 0 l0 333 l83 0 l0 -333 l167 0 l0 250 l83 0 l0 -250 l167 0 l0 -83 l-167 0 l0 -334 l-333 0 l0 334 l-167 0 l0 -500 l583 0 l0 -84 l-666 0 l0 584 l-167 0 ZM500 217 l167 0 l0 250 l-167 0 l0 -250 Z" /><glyph glyph-name="" unicode="&#x4e26;" d="M83 -117 l0 84 l250 0 l0 583 l-250 0 l0 83 l500 0 l0 84 l84 0 l0 -84 l250 0 l0 -83 l-250 0 l0 -583 l250 0 l0 -84 l-834 0 ZM750 217 l0 83 l83 0 l0 -83 l-83 0 ZM83 300 l0 83 l84 0 l0 -83 l83 0 l0 -83 l-83 0 l0 83 l-84 0 ZM250 800 l0 83 l83 0 l0 -83 l84 0 l0 -83 l-84 0 l0 83 l-83 0 ZM417 -33 l166 0 l0 583 l-166 0 l0 -583 ZM833 300 l0 83 l84 0 l0 -83 l-84 0 ZM667 717 l0 166 l83 0 l0 -166 l-83 0 Z" /><glyph glyph-name="" unicode="&#x4e2d;" d="M500 217 l0 -334 l-83 0 l0 334 l-417 0 l0 416 l417 0 l0 250 l83 0 l0 -250 l417 0 l0 -416 l-417 0 ZM500 300 l333 0 l0 250 l-333 0 l0 -250 ZM83 300 l334 0 l0 250 l-334 0 l0 -250 Z" /><glyph glyph-name="" unicode="&#x4e3b;" d="M0 -117 l0 84 l417 0 l0 250 l-334 0 l0 83 l334 0 l0 250 l-417 0 l0 83 l917 0 l0 -83 l-417 0 l0 -250 l333 0 l0 -83 l-333 0 l0 -250 l417 0 l0 -84 l-917 0 ZM333 800 l0 83 l84 0 l0 -83 l83 0 l0 -83 l-83 0 l0 83 l-84 0 Z" /><glyph glyph-name="" unicode="&#x4e4f;" d="M0 -117 l0 84 l83 0 l0 -84 l-83 0 ZM0 383 l0 84 l417 0 l0 166 l-334 0 l0 84 l417 0 l0 -250 l333 0 l0 -84 l-83 0 l0 -83 l-83 0 l0 -83 l-84 0 l0 -84 l-83 0 l0 -83 l-83 0 l0 -83 l500 0 l0 -84 l-500 0 l0 84 l-167 0 l0 83 l167 0 l0 83 l83 0 l0 84 l83 0 l0 83 l84 0 l0 83 l-667 0 ZM83 -33 l0 83 l84 0 l0 -83 l-84 0 ZM250 50 l-83 0 l0 167 l83 0 l0 -167 ZM833 717 l-333 0 l0 83 l333 0 l0 -83 Z" /><glyph glyph-name="" unicode="&#x4e57;" d="M0 -117 l0 84 l167 0 l0 -84 l-167 0 ZM83 133 l0 84 l84 0 l0 166 l-167 0 l0 84 l167 0 l0 83 l-84 0 l0 83 l334 0 l0 84 l-334 0 l0 83 l750 0 l0 -83 l-333 0 l0 -84 l333 0 l0 -83 l-83 0 l0 -83 l167 0 l0 -84 l-167 0 l0 -166 l83 0 l0 -84 l-166 0 l0 -83 l83 0 l0 -83 l167 0 l0 -84 l-167 0 l0 84 l-83 0 l0 83 l-84 0 l0 83 l-83 0 l0 -250 l-83 0 l0 167 l-84 0 l0 -83 l-166 0 l0 83 l166 0 l0 83 l-250 0 ZM500 217 l167 0 l0 166 l-167 0 l0 -166 ZM250 217 l167 0 l0 166 l-167 0 l0 -166 ZM500 467 l167 0 l0 83 l-167 0 l0 -83 ZM250 467 l167 0 l0 83 l-167 0 l0 -83 Z" /><glyph glyph-name="" unicode="&#x4e59;" d="M83 717 l0 83 l667 0 l0 -167 l-83 0 l0 -83 l-84 0 l0 -83 l-83 0 l0 -84 l-83 0 l0 -83 l-84 0 l0 -83 l-83 0 l0 -84 l-83 0 l0 -166 l583 0 l0 -84 l-583 0 l0 84 l-84 0 l0 166 l84 0 l0 84 l83 0 l0 83 l83 0 l0 83 l84 0 l0 84 l83 0 l0 83 l83 0 l0 83 l84 0 l0 84 l-584 0 ZM750 -33 l0 250 l83 0 l0 -250 l-83 0 Z" /><glyph glyph-name="" unicode="&#x4e5d;" d="M0 -117 l0 84 l167 0 l0 -84 l-167 0 ZM0 550 l0 83 l333 0 l0 250 l84 0 l0 -250 l250 0 l0 -666 l166 0 l0 166 l84 0 l0 -250 l-250 0 l0 84 l-84 0 l0 583 l-166 0 l0 -333 l-84 0 l0 -167 l-83 0 l0 -83 l-83 0 l0 83 l83 0 l0 167 l83 0 l0 333 l-333 0 Z" /><glyph glyph-name="" unicode="&#x4e71;" d="M0 383 l0 84 l167 0 l0 166 l-167 0 l0 84 l333 0 l0 -84 l-83 0 l0 -166 l250 0 l0 -84 l-250 0 l0 -166 l250 0 l0 -334 l-500 0 l0 334 l167 0 l0 166 l-167 0 ZM917 -117 l-250 0 l0 84 l166 0 l0 166 l84 0 l0 -250 ZM83 -33 l334 0 l0 166 l-334 0 l0 -166 ZM667 -33 l-84 0 l0 833 l84 0 l0 -833 ZM500 717 l-167 0 l0 83 l167 0 l0 -83 Z" /><glyph glyph-name="" unicode="&#x4e88;" d="M250 -117 l0 84 l167 0 l0 416 l-417 0 l0 84 l417 0 l0 83 l83 0 l0 -83 l417 0 l0 -84 l-84 0 l0 -83 l-83 0 l0 -83 l-83 0 l0 83 l83 0 l0 83 l-250 0 l0 -500 l-250 0 ZM83 717 l0 83 l667 0 l0 -83 l-83 0 l0 -84 l-84 0 l0 -83 l-83 0 l0 83 l83 0 l0 84 l-500 0 Z" /><glyph glyph-name="" unicode="&#x4e89;" d="M250 -117 l0 84 l167 0 l0 166 l-334 0 l0 84 l334 0 l0 83 l-417 0 l0 83 l417 0 l0 84 l-334 0 l0 166 l84 0 l0 -83 l333 0 l0 83 l83 0 l0 -83 l250 0 l0 -167 l84 0 l0 -83 l-84 0 l0 -167 l-333 0 l0 -250 l-250 0 ZM500 217 l250 0 l0 83 l-250 0 l0 -83 ZM500 383 l250 0 l0 84 l-250 0 l0 -84 ZM583 633 l0 84 l-333 0 l0 -84 l-83 0 l0 84 l83 0 l0 83 l500 0 l0 -83 l-83 0 l0 -84 l-84 0 Z" /><glyph glyph-name="" unicode="&#x4e8b;" d="M250 -117 l0 84 l167 0 l0 83 l-334 0 l0 83 l334 0 l0 84 l-417 0 l0 83 l417 0 l0 83 l-334 0 l0 84 l84 0 l0 166 l-167 0 l0 84 l417 0 l0 166 l83 0 l0 -166 l417 0 l0 -84 l-167 0 l0 -166 l83 0 l0 -167 l84 0 l0 -83 l-84 0 l0 -167 l-333 0 l0 -167 l-250 0 ZM500 133 l250 0 l0 84 l-250 0 l0 -84 ZM500 300 l250 0 l0 83 l-250 0 l0 -83 ZM500 467 l167 0 l0 166 l-167 0 l0 -166 ZM250 467 l167 0 l0 166 l-167 0 l0 -166 Z" /><glyph glyph-name="" unicode="&#x4e8c;" d="M0 -33 l0 83 l833 0 l0 83 l84 0 l0 -166 l-917 0 ZM83 550 l0 83 l750 0 l0 -83 l-750 0 Z" /><glyph glyph-name="" unicode="&#x4e91;" d="M0 383 l0 84 l917 0 l0 -84 l-584 0 l0 -166 l-83 0 l0 -167 l-83 0 l0 -83 l333 0 l0 -84 l-417 0 l0 167 l84 0 l0 167 l83 0 l0 166 l-250 0 ZM83 717 l0 83 l750 0 l0 -83 l-750 0 ZM833 50 l0 -167 l-83 0 l0 167 l83 0 ZM667 -33 l-167 0 l0 83 l167 0 l0 -83 ZM750 50 l-83 0 l0 250 l83 0 l0 -250 Z" /><glyph glyph-name="" unicode="&#x4e94;" d="M0 -117 l0 84 l250 0 l0 250 l83 0 l0 -250 l334 0 l0 416 l-250 0 l0 -166 l-84 0 l0 166 l-166 0 l0 84 l250 0 l0 250 l-334 0 l0 83 l750 0 l0 -83 l-333 0 l0 -250 l250 0 l0 -500 l167 0 l0 -84 l-917 0 Z" /><glyph glyph-name="" unicode="&#x4ea1;" d="M0 550 l0 83 l417 0 l0 250 l83 0 l0 -250 l417 0 l0 -83 l-667 0 l0 -583 l667 0 l0 -84 l-667 0 l0 84 l-83 0 l0 583 l-167 0 Z" /><glyph glyph-name="" unicode="&#x4ea4;" d="M0 -117 l0 84 l167 0 l0 -84 l-167 0 ZM250 300 l0 83 l83 0 l0 -83 l84 0 l0 -83 l83 0 l0 -84 l83 0 l0 -83 l167 0 l0 -83 l167 0 l0 -84 l-167 0 l0 84 l-167 0 l0 83 l-83 0 l0 83 l-83 0 l0 -83 l-84 0 l0 -83 l-166 0 l0 83 l166 0 l0 83 l84 0 l0 84 l-84 0 l0 83 l-83 0 ZM83 383 l0 84 l84 0 l0 -84 l-84 0 ZM0 633 l0 84 l417 0 l0 166 l83 0 l0 -166 l417 0 l0 -84 l-250 0 l0 -83 l83 0 l0 -83 l83 0 l0 -84 l-83 0 l0 84 l-83 0 l0 83 l-84 0 l0 83 l-250 0 l0 -83 l-83 0 l0 -83 l-83 0 l0 83 l83 0 l0 83 l-250 0 ZM500 217 l0 83 l83 0 l0 -83 l-83 0 ZM583 300 l0 83 l84 0 l0 -83 l-84 0 Z" /><glyph glyph-name="" unicode="&#x4eab;" d="M250 -117 l0 84 l167 0 l0 166 l-417 0 l0 84 l500 0 l0 83 l83 0 l0 -83 l334 0 l0 -84 l-417 0 l0 -250 l-250 0 ZM167 383 l0 84 l83 0 l0 166 l-250 0 l0 84 l417 0 l0 166 l83 0 l0 -166 l417 0 l0 -84 l-250 0 l0 -166 l83 0 l0 -84 l-83 0 l0 -83 l-84 0 l0 83 l-416 0 ZM333 467 l250 0 l0 166 l-250 0 l0 -166 Z" /><glyph glyph-name="" unicode="&#x4eba;" d="M0 -117 l0 84 l83 0 l0 -84 l-83 0 ZM833 -33 l84 0 l0 -84 l-84 0 l0 84 ZM833 -33 l-83 0 l0 83 l83 0 l0 -83 ZM83 -33 l0 83 l84 0 l0 -83 l-84 0 ZM750 50 l-83 0 l0 83 l83 0 l0 -83 ZM167 50 l0 83 l83 0 l0 -83 l-83 0 ZM667 133 l-84 0 l0 167 l84 0 l0 -167 ZM250 133 l0 167 l83 0 l0 -167 l-83 0 ZM583 300 l-83 0 l0 167 l83 0 l0 -167 ZM333 300 l0 167 l84 0 l0 -167 l-84 0 ZM500 467 l-83 0 l0 333 l83 0 l0 -333 Z" /><glyph glyph-name="" unicode="&#x4eca;" d="M333 -117 l0 84 l250 0 l0 -84 l-250 0 ZM167 217 l0 83 l666 0 l0 -250 l-83 0 l0 -83 l-167 0 l0 83 l167 0 l0 167 l-583 0 ZM0 383 l0 84 l83 0 l0 -84 l-83 0 ZM750 467 l-500 0 l0 83 l500 0 l0 -83 ZM83 467 l0 83 l84 0 l0 -83 l-84 0 ZM833 550 l84 0 l0 -83 l-84 0 l0 83 ZM833 550 l-83 0 l0 83 l83 0 l0 -83 ZM250 550 l-83 0 l0 83 l83 0 l0 -83 ZM750 633 l-83 0 l0 84 l83 0 l0 -84 ZM250 633 l0 84 l83 0 l0 -84 l-83 0 ZM667 717 l-334 0 l0 83 l334 0 l0 -83 Z" /><glyph glyph-name="" unicode="&#x4ecb;" d="M0 383 l0 84 l83 0 l0 -84 l-83 0 ZM667 550 l0 -667 l-84 0 l0 667 l84 0 ZM167 50 l0 -167 l-84 0 l0 167 l84 0 ZM167 50 l0 167 l83 0 l0 -167 l-83 0 ZM250 217 l0 333 l83 0 l0 -333 l-83 0 ZM833 467 l84 0 l0 -84 l-84 0 l0 84 ZM833 467 l-83 0 l0 83 l83 0 l0 -83 ZM83 467 l0 83 l84 0 l0 -83 l-84 0 ZM750 550 l-83 0 l0 83 l83 0 l0 -83 ZM250 550 l-83 0 l0 83 l83 0 l0 -83 ZM667 633 l-84 0 l0 84 l84 0 l0 -84 ZM250 633 l0 84 l83 0 l0 -84 l-83 0 ZM583 717 l-250 0 l0 83 l250 0 l0 -83 Z" /><glyph glyph-name="" unicode="&#x4ed5;" d="M333 -117 l0 84 l250 0 l0 500 l-250 0 l0 83 l250 0 l0 333 l84 0 l0 -333 l250 0 l0 -83 l-250 0 l0 -500 l250 0 l0 -84 l-584 0 ZM0 383 l0 84 l83 0 l0 166 l84 0 l0 -750 l-84 0 l0 500 l-83 0 ZM167 633 l0 167 l83 0 l0 -167 l-83 0 Z" /><glyph glyph-name="" unicode="&#x4ed6;" d="M667 217 l0 83 l83 0 l0 333 l-83 0 l0 -83 l-84 0 l0 -500 l-83 0 l0 417 l-83 0 l0 -500 l416 0 l0 166 l84 0 l0 -250 l-584 0 l0 500 l-83 0 l0 84 l83 0 l0 250 l84 0 l0 -167 l83 0 l0 333 l83 0 l0 -250 l84 0 l0 84 l166 0 l0 -500 l-166 0 ZM0 383 l0 84 l83 0 l0 166 l84 0 l0 -750 l-84 0 l0 500 l-83 0 ZM167 633 l0 167 l83 0 l0 -167 l-83 0 Z" /><glyph glyph-name="" unicode="&#x4ee3;" d="M0 383 l0 84 l83 0 l0 166 l84 0 l0 -750 l-84 0 l0 500 l-83 0 ZM250 467 l0 83 l250 0 l0 333 l83 0 l0 -333 l334 0 l0 -83 l-250 0 l0 -250 l83 0 l0 -167 l83 0 l0 -167 l-83 0 l0 167 l-83 0 l0 167 l-84 0 l0 250 l-333 0 ZM750 717 l0 83 l83 0 l0 -83 l84 0 l0 -84 l-84 0 l0 84 l-83 0 ZM167 633 l0 167 l83 0 l0 -167 l-83 0 Z" /><glyph glyph-name="" unicode="&#x4ee4;" d="M583 -33 l0 83 l167 0 l0 -83 l-167 0 ZM83 217 l0 83 l750 0 l0 -250 l-83 0 l0 167 l-250 0 l0 -334 l-83 0 l0 334 l-334 0 ZM0 383 l0 84 l83 0 l0 -84 l-83 0 ZM750 467 l-667 0 l0 83 l84 0 l0 83 l83 0 l0 -83 l500 0 l0 -83 ZM833 550 l84 0 l0 -83 l-84 0 l0 83 ZM833 550 l-83 0 l0 83 l83 0 l0 -83 ZM750 633 l-83 0 l0 84 l83 0 l0 -84 ZM250 633 l0 84 l83 0 l0 -84 l-83 0 ZM667 717 l-334 0 l0 83 l334 0 l0 -83 Z" /><glyph glyph-name="" unicode="&#x4ee5;" d="M250 -117 l0 84 l167 0 l0 -84 l-167 0 ZM0 50 l0 83 l167 0 l0 -83 l-167 0 ZM917 50 l0 -167 l-84 0 l0 167 l84 0 ZM583 -33 l-166 0 l0 83 l166 0 l0 -83 ZM833 50 l-83 0 l0 83 l83 0 l0 -83 ZM583 50 l0 83 l84 0 l0 -83 l-84 0 ZM750 133 l-83 0 l0 167 l83 0 l0 -167 ZM417 133 l-250 0 l0 667 l83 0 l0 -583 l167 0 l0 -84 ZM750 300 l0 500 l83 0 l0 -500 l-83 0 ZM583 550 l0 -167 l-83 0 l0 167 l83 0 ZM500 550 l-83 0 l0 167 l83 0 l0 -167 Z" /><glyph glyph-name="" unicode="&#x4eee;" d="M333 -117 l0 84 l167 0 l0 -84 l-167 0 ZM500 300 l0 83 l83 0 l0 -83 l84 0 l0 -83 l83 0 l0 -167 l83 0 l0 -83 l84 0 l0 -84 l-84 0 l0 84 l-83 0 l0 83 l-83 0 l0 -83 l-167 0 l0 83 l167 0 l0 167 l-84 0 l0 83 l-83 0 ZM0 383 l0 84 l83 0 l0 166 l84 0 l0 -750 l-84 0 l0 500 l-83 0 ZM333 217 l0 -167 l-83 0 l0 167 l83 0 ZM750 217 l0 250 l-333 0 l0 -250 l-84 0 l0 583 l584 0 l0 -83 l-500 0 l0 -167 l416 0 l0 -333 l-83 0 ZM167 633 l0 167 l83 0 l0 -167 l-83 0 Z" /><glyph glyph-name="" unicode="&#x4ef2;" d="M0 383 l0 84 l83 0 l0 166 l84 0 l0 -750 l-84 0 l0 500 l-83 0 ZM667 217 l0 -334 l-84 0 l0 334 l-333 0 l0 416 l333 0 l0 250 l84 0 l0 -250 l250 0 l0 -416 l-250 0 ZM667 300 l166 0 l0 250 l-166 0 l0 -250 ZM333 300 l250 0 l0 250 l-250 0 l0 -250 ZM250 633 l-83 0 l0 167 l83 0 l0 -167 Z" /><glyph glyph-name="" unicode="&#x4efb;" d="M333 -117 l0 84 l250 0 l0 333 l-333 0 l0 83 l333 0 l0 250 l-250 0 l0 84 l334 0 l0 -334 l250 0 l0 -83 l-250 0 l0 -333 l250 0 l0 -84 l-584 0 ZM0 383 l0 84 l83 0 l0 166 l84 0 l0 -750 l-84 0 l0 500 l-83 0 ZM167 633 l0 167 l83 0 l0 -167 l-83 0 ZM833 717 l-166 0 l0 83 l166 0 l0 -83 Z" /><glyph glyph-name="" unicode="&#x4f01;" d="M0 -117 l0 84 l167 0 l0 333 l83 0 l0 -333 l167 0 l0 583 l83 0 l0 -250 l250 0 l0 -83 l-250 0 l0 -250 l417 0 l0 -84 l-917 0 ZM0 383 l0 84 l83 0 l0 -84 l-83 0 ZM833 467 l84 0 l0 -84 l-84 0 l0 84 ZM833 467 l-83 0 l0 83 l83 0 l0 -83 ZM83 467 l0 83 l84 0 l0 -83 l-84 0 ZM750 550 l-83 0 l0 83 l83 0 l0 -83 ZM167 550 l0 83 l83 0 l0 -83 l-83 0 ZM667 633 l-84 0 l0 84 l84 0 l0 -84 ZM250 633 l0 84 l83 0 l0 -84 l-83 0 ZM583 717 l-250 0 l0 83 l250 0 l0 -83 Z" /><glyph glyph-name="" unicode="&#x4f0a;" d="M333 -117 l0 84 l167 0 l0 -84 l-167 0 ZM333 217 l0 83 l250 0 l0 167 l-333 0 l0 83 l333 0 l0 167 l-250 0 l0 83 l584 0 l0 -583 l-250 0 l0 -167 l-84 0 l0 -83 l-83 0 l0 83 l83 0 l0 167 l-250 0 ZM0 383 l0 84 l83 0 l0 166 l84 0 l0 -750 l-84 0 l0 500 l-83 0 ZM667 300 l166 0 l0 167 l-166 0 l0 -167 ZM667 550 l166 0 l0 167 l-166 0 l0 -167 ZM167 633 l0 167 l83 0 l0 -167 l-83 0 Z" /><glyph glyph-name="" unicode="&#x4f1a;" d="M0 217 l0 83 l917 0 l0 -83 l-167 0 l0 -167 l83 0 l0 -167 l-83 0 l0 167 l-83 0 l0 -83 l-167 0 l0 -84 l-333 0 l0 167 l83 0 l0 -83 l250 0 l0 83 l167 0 l0 167 l-334 0 l0 -167 l-83 0 l0 167 l-250 0 ZM0 383 l0 84 l83 0 l0 -84 l-83 0 ZM833 467 l84 0 l0 -84 l-84 0 l0 84 ZM833 467 l-83 0 l0 83 l83 0 l0 -83 ZM667 467 l-417 0 l0 83 l417 0 l0 -83 ZM83 467 l0 83 l84 0 l0 -83 l-84 0 ZM750 550 l-83 0 l0 83 l83 0 l0 -83 ZM250 550 l-83 0 l0 83 l83 0 l0 -83 ZM667 633 l-84 0 l0 84 l84 0 l0 -84 ZM250 633 l0 84 l83 0 l0 -84 l-83 0 ZM583 717 l-250 0 l0 83 l250 0 l0 -83 Z" /><glyph glyph-name="" unicode="&#x4f34;" d="M333 133 l0 84 l250 0 l0 166 l-250 0 l0 84 l250 0 l0 416 l84 0 l0 -416 l250 0 l0 -84 l-250 0 l0 -166 l250 0 l0 -84 l-250 0 l0 -250 l-84 0 l0 250 l-250 0 ZM0 383 l0 84 l83 0 l0 166 l84 0 l0 -750 l-84 0 l0 500 l-83 0 ZM750 550 l0 83 l83 0 l0 -83 l-83 0 ZM333 633 l0 84 l84 0 l0 -84 l83 0 l0 -83 l-83 0 l0 83 l-84 0 ZM833 633 l0 84 l84 0 l0 -84 l-84 0 ZM167 633 l0 167 l83 0 l0 -167 l-83 0 Z" /><glyph glyph-name="" unicode="&#x4f3c;" d="M333 -117 l0 84 l167 0 l0 -84 l-167 0 ZM0 383 l0 84 l83 0 l0 166 l84 0 l0 -500 l166 0 l0 -83 l-166 0 l0 -167 l-84 0 l0 500 l-83 0 ZM500 550 l0 83 l83 0 l0 -83 l84 0 l0 -83 l-84 0 l0 83 l-83 0 ZM917 50 l0 -167 l-84 0 l0 167 l84 0 ZM500 -33 l0 83 l83 0 l0 -83 l-83 0 ZM833 50 l-83 0 l0 83 l83 0 l0 -83 ZM583 50 l0 83 l84 0 l0 -83 l-84 0 ZM750 133 l-83 0 l0 167 l83 0 l0 -167 ZM500 133 l-167 0 l0 667 l84 0 l0 -583 l83 0 l0 -84 ZM750 300 l0 500 l83 0 l0 -500 l-83 0 ZM167 633 l0 167 l83 0 l0 -167 l-83 0 Z" /><glyph glyph-name="" unicode="&#x4f4d;" d="M250 -117 l0 84 l417 0 l0 166 l83 0 l0 -166 l167 0 l0 -84 l-667 0 ZM0 383 l0 84 l83 0 l0 166 l84 0 l0 -750 l-84 0 l0 500 l-83 0 ZM750 133 l0 334 l83 0 l0 -334 l-83 0 ZM500 467 l0 -417 l-83 0 l0 417 l83 0 ZM917 550 l-667 0 l0 83 l333 0 l0 250 l84 0 l0 -250 l250 0 l0 -83 ZM250 633 l-83 0 l0 167 l83 0 l0 -167 Z" /><glyph glyph-name="" unicode="&#x4f4f;" d="M250 -117 l0 84 l333 0 l0 250 l-250 0 l0 83 l250 0 l0 250 l-333 0 l0 83 l667 0 l0 -83 l-250 0 l0 -250 l250 0 l0 -83 l-250 0 l0 -250 l250 0 l0 -84 l-667 0 ZM0 383 l0 84 l83 0 l0 166 l84 0 l0 -750 l-84 0 l0 500 l-83 0 ZM500 800 l0 83 l83 0 l0 -83 l84 0 l0 -83 l-84 0 l0 83 l-83 0 ZM250 633 l-83 0 l0 167 l83 0 l0 -167 Z" /><glyph glyph-name="" unicode="&#x4f53;" d="M250 133 l0 84 l83 0 l0 -84 l250 0 l0 250 l-83 0 l0 -83 l-83 0 l0 -83 l-84 0 l0 83 l84 0 l0 83 l83 0 l0 84 l83 0 l0 83 l-333 0 l0 83 l333 0 l0 250 l84 0 l0 -250 l250 0 l0 -83 l-250 0 l0 -167 l83 0 l0 -83 l83 0 l0 -83 l84 0 l0 -84 l-84 0 l0 -83 l-166 0 l0 -167 l-84 0 l0 167 l-250 0 l0 83 l-83 0 ZM0 383 l0 84 l83 0 l0 166 l84 0 l0 -750 l-84 0 l0 500 l-83 0 ZM667 133 l166 0 l0 84 l-83 0 l0 83 l-83 0 l0 -167 ZM250 633 l-83 0 l0 167 l83 0 l0 -167 Z" /><glyph glyph-name="" unicode="&#x4f55;" d="M583 -117 l0 84 l167 0 l0 750 l-417 0 l0 83 l584 0 l0 -83 l-84 0 l0 -834 l-250 0 ZM0 383 l0 84 l83 0 l0 166 l84 0 l0 -750 l-84 0 l0 500 l-83 0 ZM583 133 l-250 0 l0 417 l250 0 l0 -417 ZM500 217 l0 250 l-83 0 l0 -250 l83 0 ZM167 633 l0 167 l83 0 l0 -167 l-83 0 Z" /><glyph glyph-name="" unicode="&#x4f59;" d="M250 -117 l0 84 l167 0 l0 250 l-334 0 l0 83 l334 0 l0 167 l-167 0 l0 83 l417 0 l0 -83 l-167 0 l0 -167 l333 0 l0 -83 l-333 0 l0 -334 l-250 0 ZM0 -33 l0 83 l83 0 l0 -83 l-83 0 ZM750 50 l0 83 l83 0 l0 -83 l84 0 l0 -83 l-84 0 l0 83 l-83 0 ZM0 383 l0 84 l83 0 l0 -84 l-83 0 ZM83 50 l0 83 l84 0 l0 -83 l-84 0 ZM833 467 l84 0 l0 -84 l-84 0 l0 84 ZM833 467 l-83 0 l0 83 l83 0 l0 -83 ZM83 467 l0 83 l84 0 l0 -83 l-84 0 ZM750 550 l-83 0 l0 83 l83 0 l0 -83 ZM250 550 l-83 0 l0 83 l83 0 l0 -83 ZM667 633 l-84 0 l0 84 l84 0 l0 -84 ZM250 633 l0 84 l83 0 l0 -84 l-83 0 ZM583 717 l-250 0 l0 83 l250 0 l0 -83 Z" /><glyph glyph-name="" unicode="&#x4f5c;" d="M0 383 l0 84 l83 0 l0 166 l84 0 l0 -750 l-84 0 l0 500 l-83 0 ZM667 133 l0 -250 l-84 0 l0 750 l-83 0 l0 -83 l-83 0 l0 -167 l-84 0 l0 167 l84 0 l0 333 l83 0 l0 -166 l417 0 l0 -84 l-250 0 l0 -166 l250 0 l0 -84 l-250 0 l0 -166 l250 0 l0 -84 l-250 0 ZM167 633 l0 167 l83 0 l0 -167 l-83 0 Z" /><glyph glyph-name="" unicode="&#x4f7f;" d="M250 -117 l0 84 l167 0 l0 -84 l-167 0 ZM0 383 l0 84 l83 0 l0 166 l84 0 l0 -750 l-84 0 l0 500 l-83 0 ZM333 633 l0 84 l250 0 l0 166 l84 0 l0 -166 l250 0 l0 -84 l-250 0 l0 -83 l250 0 l0 -333 l-250 0 l0 -167 l83 0 l0 -83 l167 0 l0 -84 l-167 0 l0 84 l-83 0 l0 83 l-167 0 l0 -83 l-83 0 l0 83 l83 0 l0 83 l83 0 l0 84 l-250 0 l0 333 l250 0 l0 83 l-250 0 ZM667 300 l166 0 l0 167 l-166 0 l0 -167 ZM417 300 l166 0 l0 167 l-166 0 l0 -167 ZM167 633 l0 167 l83 0 l0 -167 l-83 0 Z" /><glyph glyph-name="" unicode="&#x4f8b;" d="M750 -117 l0 84 l83 0 l0 833 l84 0 l0 -917 l-167 0 ZM0 383 l0 84 l83 0 l0 166 l84 0 l0 -666 l166 0 l0 -84 l-250 0 l0 500 l-83 0 ZM333 -33 l0 83 l84 0 l0 -83 l-84 0 ZM417 50 l0 167 l83 0 l0 -167 l-83 0 ZM750 717 l0 -584 l-83 0 l0 584 l83 0 ZM500 217 l0 250 l-167 0 l0 -167 l84 0 l0 -83 l-84 0 l0 83 l-83 0 l0 167 l83 0 l0 250 l-83 0 l0 -84 l-83 0 l0 167 l500 0 l0 -83 l-250 0 l0 -167 l166 0 l0 -333 l-83 0 Z" /><glyph glyph-name="" unicode="&#x4f9b;" d="M250 -117 l0 84 l83 0 l0 -84 l-83 0 ZM667 50 l0 83 l83 0 l0 -83 l83 0 l0 -83 l84 0 l0 -84 l-84 0 l0 84 l-83 0 l0 83 l-83 0 ZM250 217 l0 83 l167 0 l0 250 l-167 0 l0 83 l167 0 l0 250 l83 0 l0 -250 l167 0 l0 250 l83 0 l0 -250 l167 0 l0 -83 l-167 0 l0 -250 l167 0 l0 -83 l-667 0 ZM0 383 l0 84 l83 0 l0 166 l84 0 l0 -750 l-84 0 l0 500 l-83 0 ZM333 -33 l0 83 l84 0 l0 -83 l-84 0 ZM417 50 l0 83 l83 0 l0 -83 l-83 0 ZM500 300 l167 0 l0 250 l-167 0 l0 -250 ZM250 633 l-83 0 l0 167 l83 0 l0 -167 Z" /><glyph glyph-name="" unicode="&#x4f9d;" d="M250 -117 l0 84 l83 0 l0 250 l-83 0 l0 -84 l-83 0 l0 -250 l-84 0 l0 500 l-83 0 l0 84 l83 0 l0 166 l84 0 l0 -416 l83 0 l0 83 l83 0 l0 83 l84 0 l0 -416 l83 0 l0 -84 l-250 0 ZM833 -33 l84 0 l0 -84 l-84 0 l0 84 ZM833 -33 l-83 0 l0 83 l83 0 l0 -83 ZM667 -33 l-167 0 l0 83 l167 0 l0 -83 ZM750 50 l-83 0 l0 167 l83 0 l0 -167 ZM750 217 l0 83 l83 0 l0 -83 l-83 0 ZM667 217 l-84 0 l0 250 l84 0 l0 -250 ZM833 300 l0 167 l84 0 l0 -167 l-84 0 ZM417 383 l0 84 l83 0 l0 -84 l-83 0 ZM583 467 l-83 0 l0 166 l-333 0 l0 167 l83 0 l0 -83 l333 0 l0 166 l84 0 l0 -166 l250 0 l0 -84 l-334 0 l0 -166 Z" /><glyph glyph-name="" unicode="&#x4fa1;" d="M0 383 l0 84 l83 0 l0 166 l84 0 l0 -750 l-84 0 l0 500 l-83 0 ZM333 717 l0 83 l584 0 l0 -83 l-167 0 l0 -167 l167 0 l0 -667 l-584 0 l0 667 l167 0 l0 167 l-167 0 ZM833 -33 l0 500 l-83 0 l0 -500 l83 0 ZM667 -33 l0 500 l-84 0 l0 -500 l84 0 ZM500 -33 l0 500 l-83 0 l0 -500 l83 0 ZM667 550 l0 167 l-84 0 l0 -167 l84 0 ZM167 633 l0 167 l83 0 l0 -167 l-83 0 Z" /><glyph glyph-name="" unicode="&#x4fbf;" d="M250 -117 l0 84 l167 0 l0 -84 l-167 0 ZM0 383 l0 84 l83 0 l0 166 l84 0 l0 -750 l-84 0 l0 500 l-83 0 ZM333 717 l0 83 l584 0 l0 -83 l-250 0 l0 -84 l250 0 l0 -416 l-250 0 l0 -167 l83 0 l0 -83 l167 0 l0 -84 l-167 0 l0 84 l-83 0 l0 83 l-167 0 l0 -83 l-83 0 l0 83 l83 0 l0 83 l83 0 l0 84 l-83 0 l0 -84 l-83 0 l0 84 l-84 0 l0 416 l250 0 l0 84 l-250 0 ZM667 300 l166 0 l0 83 l-166 0 l0 -83 ZM417 300 l166 0 l0 83 l-166 0 l0 -83 ZM667 467 l166 0 l0 83 l-166 0 l0 -83 ZM417 467 l166 0 l0 83 l-166 0 l0 -83 ZM167 633 l0 167 l83 0 l0 -167 l-83 0 Z" /><glyph glyph-name="" unicode="&#x4fc2;" d="M250 -33 l0 83 l83 0 l0 -83 l-83 0 ZM750 50 l0 83 l83 0 l0 -83 l84 0 l0 -83 l-84 0 l0 83 l-83 0 ZM250 217 l0 83 l250 0 l0 83 l83 0 l0 -83 l250 0 l0 83 l84 0 l0 -166 l-250 0 l0 -334 l-84 0 l0 334 l-333 0 ZM0 383 l0 84 l83 0 l0 166 l84 0 l0 -750 l-84 0 l0 500 l-83 0 ZM333 467 l0 83 l84 0 l0 -83 l83 0 l0 -84 l-83 0 l0 84 l-84 0 ZM333 717 l0 83 l584 0 l0 -83 l-334 0 l0 -84 l-83 0 l0 -83 l-83 0 l0 83 l83 0 l0 84 l-167 0 ZM333 50 l0 83 l84 0 l0 -83 l-84 0 ZM583 383 l0 84 l84 0 l0 -84 l-84 0 ZM667 467 l0 83 l83 0 l0 -83 l-83 0 ZM750 550 l0 83 l83 0 l0 -83 l-83 0 ZM167 633 l0 167 l83 0 l0 -167 l-83 0 Z" /><glyph glyph-name="" unicode="&#x4fd7;" d="M333 217 l0 83 l84 0 l0 -83 l500 0 l0 -334 l-500 0 l0 334 l-84 0 ZM0 383 l0 84 l83 0 l0 166 l84 0 l0 -750 l-84 0 l0 500 l-83 0 ZM333 633 l0 84 l84 0 l0 -84 l-84 0 ZM750 717 l0 83 l83 0 l0 -83 l84 0 l0 -84 l-84 0 l0 84 l-83 0 ZM500 -33 l333 0 l0 166 l-333 0 l0 -166 ZM417 300 l0 83 l83 0 l0 -83 l-83 0 ZM833 383 l84 0 l0 -83 l-84 0 l0 83 ZM833 383 l-83 0 l0 84 l83 0 l0 -84 ZM500 383 l0 84 l83 0 l0 -84 l-83 0 ZM750 467 l-167 0 l0 83 l167 0 l0 -83 ZM167 633 l0 167 l83 0 l0 -167 l-83 0 ZM417 717 l0 83 l83 0 l0 -83 l-83 0 Z" /><glyph glyph-name="" unicode="&#x4fdd;" d="M250 -33 l0 83 l167 0 l0 -83 l-167 0 ZM333 300 l0 83 l250 0 l0 84 l-250 0 l0 333 l584 0 l0 -333 l-250 0 l0 -84 l250 0 l0 -83 l-250 0 l0 -83 l83 0 l0 -84 l83 0 l0 -83 l84 0 l0 -83 l-84 0 l0 83 l-83 0 l0 83 l-83 0 l0 -250 l-84 0 l0 250 l-83 0 l0 -83 l-83 0 l0 83 l83 0 l0 84 l83 0 l0 83 l-250 0 ZM0 383 l0 84 l83 0 l0 166 l84 0 l0 -750 l-84 0 l0 500 l-83 0 ZM417 550 l416 0 l0 167 l-416 0 l0 -167 ZM167 633 l0 167 l83 0 l0 -167 l-83 0 Z" /><glyph glyph-name="" unicode="&#x4fe1;" d="M417 383 l0 84 l500 0 l0 -84 l-500 0 ZM0 383 l0 84 l83 0 l0 166 l84 0 l0 -750 l-84 0 l0 500 l-83 0 ZM333 550 l0 83 l584 0 l0 -83 l-584 0 ZM417 717 l0 83 l500 0 l0 -83 l-500 0 ZM917 -117 l-500 0 l0 334 l500 0 l0 -334 ZM500 -33 l333 0 l0 166 l-333 0 l0 -166 ZM167 633 l0 167 l83 0 l0 -167 l-83 0 Z" /><glyph glyph-name="" unicode="&#x4fee;" d="M333 -117 l0 84 l417 0 l0 -84 l-417 0 ZM417 50 l0 83 l250 0 l0 -83 l-250 0 ZM417 217 l0 83 l166 0 l0 -83 l-166 0 ZM0 383 l0 84 l83 0 l0 166 l84 0 l0 -750 l-84 0 l0 500 l-83 0 ZM500 467 l0 83 l83 0 l0 -83 l167 0 l0 -84 l167 0 l0 -83 l-167 0 l0 83 l-83 0 l0 -83 l-84 0 l0 167 l-83 0 ZM917 -33 l-167 0 l0 83 l167 0 l0 -83 ZM833 133 l-166 0 l0 84 l166 0 l0 -84 ZM333 383 l0 -333 l-83 0 l0 333 l83 0 ZM750 467 l0 166 l-333 0 l0 -166 l-84 0 l0 166 l84 0 l0 250 l83 0 l0 -166 l417 0 l0 -84 l-84 0 l0 -166 l-83 0 ZM167 633 l0 167 l83 0 l0 -167 l-83 0 Z" /><glyph glyph-name="" unicode="&#x4ffa;" d="M0 383 l0 84 l83 0 l0 166 l84 0 l0 -250 l83 0 l0 -83 l-83 0 l0 -417 l-84 0 l0 500 l-83 0 ZM917 -117 l-334 0 l0 167 l-250 0 l0 333 l-83 0 l0 84 l83 0 l0 83 l84 0 l0 -83 l166 0 l0 83 l84 0 l0 -83 l166 0 l0 83 l84 0 l0 -500 l-250 0 l0 -83 l250 0 l0 -84 ZM667 133 l166 0 l0 84 l-166 0 l0 -84 ZM417 133 l166 0 l0 84 l-166 0 l0 -84 ZM667 300 l166 0 l0 83 l-166 0 l0 -83 ZM417 300 l166 0 l0 83 l-166 0 l0 -83 ZM833 550 l-83 0 l0 83 l-250 0 l0 -83 l-83 0 l0 83 l-250 0 l0 167 l83 0 l0 -83 l333 0 l0 166 l84 0 l0 -166 l250 0 l0 -84 l-84 0 l0 -83 Z" /><glyph glyph-name="" unicode="&#x500b;" d="M0 383 l0 84 l83 0 l0 166 l84 0 l0 -750 l-84 0 l0 500 l-83 0 ZM917 -117 l-584 0 l0 917 l584 0 l0 -917 ZM417 -33 l416 0 l0 500 l-166 0 l0 -84 l83 0 l0 -333 l-250 0 l0 333 l83 0 l0 84 l-166 0 l0 -500 ZM667 133 l0 167 l-84 0 l0 -167 l84 0 ZM667 550 l166 0 l0 167 l-166 0 l0 -167 ZM417 550 l166 0 l0 167 l-166 0 l0 -167 ZM167 633 l0 167 l83 0 l0 -167 l-83 0 Z" /><glyph glyph-name="" unicode="&#x5012;" d="M750 -117 l0 84 l83 0 l0 833 l84 0 l0 -917 l-167 0 ZM250 -117 l0 84 l167 0 l0 166 l-167 0 l0 84 l167 0 l0 166 l-167 0 l0 167 l83 0 l0 -83 l334 0 l0 250 l83 0 l0 -584 l-83 0 l0 250 l-167 0 l0 -166 l83 0 l0 -84 l-83 0 l0 -166 l167 0 l0 -84 l-417 0 ZM0 383 l0 84 l83 0 l0 166 l84 0 l0 -750 l-84 0 l0 500 l-83 0 ZM333 550 l0 83 l84 0 l0 -83 l-84 0 ZM417 633 l0 84 l-167 0 l0 -84 l-83 0 l0 167 l500 0 l0 -83 l-167 0 l0 -84 l-83 0 Z" /><glyph glyph-name="" unicode="&#x501f;" d="M333 383 l0 84 l167 0 l0 166 l-167 0 l0 84 l167 0 l0 166 l83 0 l0 -166 l167 0 l0 166 l83 0 l0 -166 l84 0 l0 -84 l-84 0 l0 -166 l84 0 l0 -84 l-584 0 ZM0 383 l0 84 l83 0 l0 166 l84 0 l0 -750 l-84 0 l0 500 l-83 0 ZM917 -117 l-500 0 l0 417 l500 0 l0 -417 ZM500 -33 l333 0 l0 83 l-333 0 l0 -83 ZM500 133 l333 0 l0 84 l-333 0 l0 -84 ZM583 467 l167 0 l0 166 l-167 0 l0 -166 ZM167 633 l0 167 l83 0 l0 -167 l-83 0 Z" /><glyph glyph-name="" unicode="&#x5024;" d="M0 383 l0 84 l83 0 l0 166 l84 0 l0 -750 l-84 0 l0 500 l-83 0 ZM333 633 l0 84 l334 0 l0 166 l83 0 l0 -166 l167 0 l0 -84 l-167 0 l0 -83 l167 0 l0 -500 l-417 0 l0 500 l167 0 l0 83 l-334 0 ZM917 -117 l-584 0 l0 584 l84 0 l0 -500 l500 0 l0 -84 ZM583 133 l250 0 l0 167 l-250 0 l0 -167 ZM583 383 l250 0 l0 84 l-250 0 l0 -84 ZM167 633 l0 167 l83 0 l0 -167 l-83 0 Z" /><glyph glyph-name="" unicode="&#x502b;" d="M0 383 l0 84 l83 0 l0 166 l84 0 l0 -750 l-84 0 l0 500 l-83 0 ZM250 467 l0 83 l83 0 l0 -83 l-83 0 ZM917 383 l0 -500 l-84 0 l0 167 l-83 0 l0 -167 l-83 0 l0 167 l-84 0 l0 -167 l-83 0 l0 167 l-83 0 l0 -167 l-84 0 l0 500 l584 0 ZM833 133 l0 167 l-83 0 l0 -167 l83 0 ZM667 133 l0 167 l-84 0 l0 -167 l84 0 ZM500 133 l0 167 l-83 0 l0 -167 l83 0 ZM917 467 l-500 0 l0 83 l416 0 l0 83 l84 0 l0 -166 ZM417 550 l-84 0 l0 83 l84 0 l0 -83 ZM833 633 l-83 0 l0 84 l83 0 l0 -84 ZM417 633 l0 84 l83 0 l0 -84 l-83 0 ZM167 633 l0 167 l83 0 l0 -167 l-83 0 ZM750 717 l-250 0 l0 83 l250 0 l0 -83 Z" /><glyph glyph-name="" unicode="&#x5049;" d="M250 -33 l0 83 l83 0 l0 167 l250 0 l0 83 l-250 0 l0 167 l-83 0 l0 83 l250 0 l0 83 l-167 0 l0 84 l250 0 l0 166 l84 0 l0 -166 l250 0 l0 -250 l-84 0 l0 -167 l-166 0 l0 -83 l250 0 l0 -84 l-250 0 l0 -83 l250 0 l0 -83 l-250 0 l0 -84 l-84 0 l0 84 l-333 0 ZM0 383 l0 84 l83 0 l0 166 l84 0 l0 -750 l-84 0 l0 500 l-83 0 ZM417 50 l166 0 l0 83 l-166 0 l0 -83 ZM417 383 l333 0 l0 84 l-333 0 l0 -84 ZM583 550 l250 0 l0 83 l-250 0 l0 -83 ZM167 633 l0 167 l83 0 l0 -167 l-83 0 Z" /><glyph glyph-name="" unicode="&#x5076;" d="M0 383 l0 84 l83 0 l0 166 l84 0 l0 -750 l-84 0 l0 500 l-83 0 ZM917 -117 l-167 0 l0 84 l83 0 l0 250 l-250 0 l0 -167 l84 0 l0 83 l83 0 l0 -166 l-333 0 l0 -84 l-84 0 l0 417 l250 0 l0 83 l-250 0 l0 417 l584 0 l0 -417 l-250 0 l0 -83 l250 0 l0 -417 ZM500 50 l0 167 l-83 0 l0 -167 l83 0 ZM667 467 l166 0 l0 83 l-166 0 l0 -83 ZM417 467 l166 0 l0 83 l-166 0 l0 -83 ZM667 633 l166 0 l0 84 l-166 0 l0 -84 ZM417 633 l166 0 l0 84 l-166 0 l0 -84 ZM167 633 l0 167 l83 0 l0 -167 l-83 0 Z" /><glyph glyph-name="" unicode="&#x507d;" d="M0 383 l0 84 l83 0 l0 166 l84 0 l0 -333 l83 0 l0 83 l83 0 l0 -83 l417 0 l0 83 l-417 0 l0 84 l84 0 l0 83 l-167 0 l0 83 l333 0 l0 84 l84 0 l0 -84 l83 0 l0 -166 l83 0 l0 -167 l84 0 l0 -333 l-84 0 l0 -84 l-166 0 l0 84 l166 0 l0 250 l-666 0 l0 -334 l-84 0 l0 500 l-83 0 ZM333 800 l0 83 l84 0 l0 -83 l83 0 l0 -83 l-83 0 l0 83 l-84 0 ZM667 -33 l-84 0 l0 166 l84 0 l0 -166 ZM500 133 l0 -166 l-83 0 l0 166 l83 0 ZM333 133 l0 -166 l-83 0 l0 166 l83 0 ZM500 467 l167 0 l0 83 l-167 0 l0 -83 ZM250 633 l-83 0 l0 167 l83 0 l0 -167 ZM667 717 l0 166 l83 0 l0 -166 l-83 0 Z" /><glyph glyph-name="" unicode="&#x508d;" d="M667 -117 l0 84 l166 0 l0 -84 l-166 0 ZM0 383 l0 84 l83 0 l0 166 l84 0 l0 -750 l-84 0 l0 500 l-83 0 ZM833 -33 l0 83 l-416 0 l0 -167 l-84 0 l0 167 l84 0 l0 167 l-84 0 l0 83 l167 0 l0 83 l-167 0 l0 -83 l-83 0 l0 167 l167 0 l0 166 l-250 0 l0 167 l83 0 l0 -83 l333 0 l0 166 l84 0 l0 -166 l250 0 l0 -84 l-167 0 l0 -166 l167 0 l0 -250 l-417 0 l0 -84 l417 0 l0 -166 l-84 0 ZM583 300 l250 0 l0 83 l-250 0 l0 -83 ZM500 467 l167 0 l0 166 l-167 0 l0 -166 Z" /><glyph glyph-name="" unicode="&#x50be;" d="M333 -117 l0 84 l167 0 l0 -84 l-167 0 ZM0 383 l0 84 l83 0 l0 166 l84 0 l0 -750 l-84 0 l0 500 l-83 0 ZM417 717 l0 83 l500 0 l0 -83 l-167 0 l0 -84 l167 0 l0 -583 l-84 0 l0 -83 l84 0 l0 -84 l-84 0 l0 84 l-83 0 l0 83 l-167 0 l0 -83 l-83 0 l0 416 l-83 0 l0 -83 l-84 0 l0 -167 l84 0 l0 -83 l-167 0 l0 583 l83 0 l0 -250 l84 0 l0 84 l83 0 l0 166 l167 0 l0 84 l-250 0 ZM583 133 l250 0 l0 84 l-250 0 l0 -84 ZM583 300 l250 0 l0 83 l-250 0 l0 -83 ZM583 467 l250 0 l0 83 l-250 0 l0 -83 ZM250 633 l-83 0 l0 167 l83 0 l0 -167 Z" /><glyph glyph-name="" unicode="&#x50cd;" d="M667 -117 l0 84 l166 0 l0 -84 l-166 0 ZM250 -117 l0 84 l167 0 l0 83 l-167 0 l0 83 l167 0 l0 84 l-167 0 l0 416 l167 0 l0 84 l-167 0 l0 -84 l-83 0 l0 -750 l-84 0 l0 500 l-83 0 l0 84 l83 0 l0 166 l84 0 l0 167 l500 0 l0 83 l83 0 l0 -250 l167 0 l0 -666 l-84 0 l0 583 l-83 0 l0 -417 l-83 0 l0 -83 l-167 0 l0 -83 l83 0 l0 -84 l-333 0 ZM500 133 l167 0 l0 84 l-167 0 l0 -84 ZM500 300 l167 0 l0 83 l-167 0 l0 -83 ZM417 300 l0 83 l-84 0 l0 -83 l84 0 ZM500 467 l167 0 l0 83 l-167 0 l0 -83 ZM417 467 l0 83 l-84 0 l0 -83 l84 0 ZM500 633 l167 0 l0 84 l-167 0 l0 -84 Z" /><glyph glyph-name="" unicode="&#x50d5;" d="M250 -117 l0 84 l167 0 l0 -84 l-167 0 ZM250 50 l0 83 l333 0 l0 84 l-250 0 l0 83 l250 0 l0 83 l-333 0 l0 84 l167 0 l0 166 l-250 0 l0 -750 l-84 0 l0 500 l-83 0 l0 84 l83 0 l0 166 l84 0 l0 167 l83 0 l0 -83 l167 0 l0 166 l83 0 l0 -166 l83 0 l0 166 l84 0 l0 -166 l83 0 l0 83 l83 0 l0 -83 l84 0 l0 -84 l-167 0 l0 -166 l167 0 l0 -84 l-250 0 l0 -83 l250 0 l0 -83 l-250 0 l0 -84 l250 0 l0 -83 l-167 0 l0 -83 l167 0 l0 -84 l-167 0 l0 84 l-83 0 l0 83 l-167 0 l0 -83 l-83 0 l0 83 l-167 0 ZM500 467 l167 0 l0 166 l-167 0 l0 -166 Z" /><glyph glyph-name="" unicode="&#x5100;" d="M250 -33 l0 83 l83 0 l0 83 l-166 0 l0 -250 l-84 0 l0 500 l-83 0 l0 84 l83 0 l0 166 l84 0 l0 -416 l166 0 l0 83 l-83 0 l0 83 l333 0 l0 84 l-250 0 l0 83 l250 0 l0 83 l-416 0 l0 167 l83 0 l0 -83 l167 0 l0 166 l83 0 l0 -166 l167 0 l0 83 l83 0 l0 -83 l167 0 l0 -84 l-250 0 l0 -83 l250 0 l0 -83 l-250 0 l0 -84 l250 0 l0 -83 l-250 0 l0 -83 l250 0 l0 -167 l-84 0 l0 -83 l84 0 l0 -84 l-84 0 l0 84 l-166 0 l0 -84 l-167 0 l0 84 l167 0 l0 83 l166 0 l0 83 l-166 0 l0 -83 l-84 0 l0 83 l-166 0 l0 -83 l83 0 l0 -83 l-83 0 l0 -84 l-84 0 l0 84 l-83 0 ZM417 217 l166 0 l0 83 l-166 0 l0 -83 ZM750 800 l0 83 l83 0 l0 -83 l-83 0 Z" /><glyph glyph-name="" unicode="&#x5132;" d="M583 383 l0 84 l84 0 l0 166 l-84 0 l0 84 l84 0 l0 166 l83 0 l0 -166 l167 0 l0 -84 l-167 0 l0 -166 l83 0 l0 83 l84 0 l0 -167 l-167 0 l0 -83 l167 0 l0 -417 l-334 0 l0 250 l-83 0 l0 -250 l-250 0 l0 334 l333 0 l0 83 l84 0 l0 83 l-84 0 ZM250 383 l0 84 l250 0 l0 -84 l-250 0 ZM0 383 l0 84 l83 0 l0 166 l84 0 l0 -750 l-84 0 l0 500 l-83 0 ZM667 -33 l166 0 l0 83 l-166 0 l0 -83 ZM417 -33 l0 166 l-84 0 l0 -166 l84 0 ZM667 133 l166 0 l0 84 l-166 0 l0 -84 ZM500 550 l-250 0 l0 83 l250 0 l0 -83 ZM250 633 l-83 0 l0 167 l333 0 l0 -83 l-250 0 l0 -84 Z" /><glyph glyph-name="" unicode="&#x5144;" d="M0 -117 l0 84 l167 0 l0 -84 l-167 0 ZM917 -117 l-417 0 l0 417 l-167 0 l0 -250 l-83 0 l0 -83 l-83 0 l0 83 l83 0 l0 250 l-83 0 l0 500 l583 0 l0 -500 l-167 0 l0 -333 l250 0 l0 166 l84 0 l0 -250 ZM250 383 l417 0 l0 334 l-417 0 l0 -334 Z" /><glyph glyph-name="" unicode="&#x5145;" d="M0 -117 l0 84 l167 0 l0 -84 l-167 0 ZM83 300 l0 83 l167 0 l0 84 l83 0 l0 -84 l334 0 l0 84 l83 0 l0 -84 l83 0 l0 -83 l84 0 l0 -83 l-84 0 l0 83 l-250 0 l0 -333 l250 0 l0 83 l84 0 l0 -167 l-334 0 l0 84 l-83 0 l0 333 l-167 0 l0 -250 l-83 0 l0 -83 l-83 0 l0 83 l83 0 l0 250 l-167 0 ZM583 467 l0 83 l84 0 l0 -83 l-84 0 ZM0 633 l0 84 l417 0 l0 166 l83 0 l0 -166 l417 0 l0 -84 l-500 0 l0 -166 l-84 0 l0 166 l-333 0 Z" /><glyph glyph-name="" unicode="&#x5148;" d="M0 -117 l0 84 l250 0 l0 -84 l-250 0 ZM917 -117 l-334 0 l0 417 l-166 0 l0 -250 l-84 0 l0 -83 l-83 0 l0 83 l83 0 l0 250 l-333 0 l0 167 l83 0 l0 -84 l334 0 l0 167 l-250 0 l0 -83 l-84 0 l0 83 l84 0 l0 250 l83 0 l0 -167 l167 0 l0 250 l83 0 l0 -250 l333 0 l0 -83 l-333 0 l0 -167 l417 0 l0 -83 l-250 0 l0 -333 l166 0 l0 83 l84 0 l0 -167 Z" /><glyph glyph-name="" unicode="&#x5149;" d="M0 -117 l0 84 l167 0 l0 -84 l-167 0 ZM0 300 l0 83 l417 0 l0 500 l83 0 l0 -500 l417 0 l0 -83 l-334 0 l0 -333 l250 0 l0 166 l84 0 l0 -250 l-417 0 l0 417 l-167 0 l0 -250 l-83 0 l0 -83 l-83 0 l0 83 l83 0 l0 250 l-250 0 ZM667 550 l0 83 l83 0 l0 -83 l-83 0 ZM83 633 l0 84 l84 0 l0 -84 l83 0 l0 -83 l-83 0 l0 83 l-84 0 ZM750 633 l0 84 l83 0 l0 -84 l-83 0 Z" /><glyph glyph-name="" unicode="&#x514d;" d="M0 -117 l0 84 l167 0 l0 -84 l-167 0 ZM0 467 l0 83 l83 0 l0 83 l84 0 l0 -83 l333 0 l0 83 l83 0 l0 -83 l250 0 l0 -333 l-250 0 l0 -250 l250 0 l0 166 l84 0 l0 -250 l-417 0 l0 334 l-167 0 l0 -167 l-83 0 l0 -83 l-83 0 l0 83 l83 0 l0 167 l-167 0 l0 250 l-83 0 ZM500 300 l250 0 l0 167 l-250 0 l0 -167 ZM167 300 l250 0 l0 167 l-250 0 l0 -167 ZM583 633 l0 84 l-333 0 l0 -84 l-83 0 l0 84 l83 0 l0 83 l417 0 l0 -167 l-84 0 Z" /><glyph glyph-name="" unicode="&#x515a;" d="M0 -117 l0 84 l167 0 l0 -84 l-167 0 ZM917 -117 l-417 0 l0 250 l-167 0 l0 -83 l-83 0 l0 -83 l-83 0 l0 83 l83 0 l0 83 l-83 0 l0 334 l583 0 l0 -334 l-167 0 l0 -166 l250 0 l0 166 l84 0 l0 -250 ZM250 217 l417 0 l0 166 l-417 0 l0 -166 ZM917 633 l0 -250 l-84 0 l0 167 l-750 0 l0 -167 l-83 0 l0 250 l167 0 l0 167 l83 0 l0 -167 l167 0 l0 250 l83 0 l0 -250 l167 0 l0 84 l83 0 l0 -84 l167 0 ZM750 717 l0 83 l83 0 l0 -83 l-83 0 Z" /><glyph glyph-name="" unicode="&#x5165;" d="M0 -117 l0 84 l83 0 l0 -84 l-83 0 ZM167 717 l0 83 l333 0 l0 -417 l83 0 l0 -166 l84 0 l0 -167 l83 0 l0 -83 l167 0 l0 -84 l-167 0 l0 84 l-83 0 l0 83 l-84 0 l0 167 l-83 0 l0 166 l-83 0 l0 -166 l-84 0 l0 -84 l-83 0 l0 -83 l-83 0 l0 -83 l-84 0 l0 83 l84 0 l0 83 l83 0 l0 84 l83 0 l0 166 l84 0 l0 334 l-250 0 Z" /><glyph glyph-name="" unicode="&#x5168;" d="M0 -117 l0 84 l417 0 l0 166 l-250 0 l0 84 l250 0 l0 166 l-250 0 l0 84 l583 0 l0 -84 l-250 0 l0 -166 l250 0 l0 -84 l-250 0 l0 -166 l417 0 l0 -84 l-917 0 ZM0 383 l0 84 l83 0 l0 -84 l-83 0 ZM833 467 l84 0 l0 -84 l-84 0 l0 84 ZM833 467 l-83 0 l0 83 l83 0 l0 -83 ZM167 467 l-84 0 l0 83 l84 0 l0 -83 ZM750 550 l-83 0 l0 83 l83 0 l0 -83 ZM167 550 l0 83 l83 0 l0 -83 l-83 0 ZM667 633 l-84 0 l0 84 l84 0 l0 -84 ZM250 633 l0 84 l83 0 l0 -84 l-83 0 ZM583 717 l-250 0 l0 83 l250 0 l0 -83 Z" /><glyph glyph-name="" unicode="&#x5171;" d="M83 -117 l0 84 l84 0 l0 -84 l-84 0 ZM583 50 l0 83 l84 0 l0 -83 l83 0 l0 -83 l83 0 l0 -84 l-83 0 l0 84 l-83 0 l0 83 l-84 0 ZM0 217 l0 83 l250 0 l0 250 l-167 0 l0 83 l167 0 l0 250 l83 0 l0 -250 l250 0 l0 250 l84 0 l0 -250 l166 0 l0 -83 l-166 0 l0 -250 l250 0 l0 -83 l-917 0 ZM167 -33 l0 83 l83 0 l0 -83 l-83 0 ZM250 50 l0 83 l83 0 l0 -83 l-83 0 ZM333 300 l250 0 l0 250 l-250 0 l0 -250 Z" /><glyph glyph-name="" unicode="&#x5177;" d="M0 -117 l0 84 l167 0 l0 -84 l-167 0 ZM583 -33 l0 83 l167 0 l0 -83 l167 0 l0 -84 l-167 0 l0 84 l-167 0 ZM0 133 l0 84 l167 0 l0 583 l583 0 l0 -583 l167 0 l0 -84 l-917 0 ZM333 -33 l-166 0 l0 83 l166 0 l0 -83 ZM250 217 l417 0 l0 166 l-417 0 l0 -166 ZM250 467 l417 0 l0 83 l-417 0 l0 -83 ZM250 633 l417 0 l0 84 l-417 0 l0 -84 Z" /><glyph glyph-name="" unicode="&#x5185;" d="M667 -117 l0 84 l166 0 l0 583 l-333 0 l0 -167 l83 0 l0 -83 l84 0 l0 -83 l83 0 l0 -84 l-83 0 l0 84 l-84 0 l0 83 l-83 0 l0 83 l-83 0 l0 -83 l-84 0 l0 -83 l-83 0 l0 -84 l-83 0 l0 84 l83 0 l0 83 l83 0 l0 83 l84 0 l0 167 l-334 0 l0 -667 l-83 0 l0 750 l417 0 l0 250 l83 0 l0 -250 l417 0 l0 -750 l-250 0 Z" /><glyph glyph-name="" unicode="&#x5186;" d="M667 -117 l0 84 l166 0 l0 333 l-750 0 l0 -417 l-83 0 l0 917 l917 0 l0 -917 l-250 0 ZM500 383 l333 0 l0 334 l-333 0 l0 -334 ZM83 383 l334 0 l0 334 l-334 0 l0 -334 Z" /><glyph glyph-name="" unicode="&#x518d;" d="M667 -117 l0 84 l83 0 l0 166 l-583 0 l0 -250 l-84 0 l0 250 l-83 0 l0 84 l83 0 l0 416 l334 0 l0 84 l-417 0 l0 83 l917 0 l0 -83 l-417 0 l0 -84 l333 0 l0 -416 l84 0 l0 -84 l-84 0 l0 -250 l-166 0 ZM500 217 l250 0 l0 166 l-250 0 l0 -166 ZM167 217 l250 0 l0 166 l-250 0 l0 -166 ZM500 467 l250 0 l0 83 l-250 0 l0 -83 ZM167 467 l250 0 l0 83 l-250 0 l0 -83 Z" /><glyph glyph-name="" unicode="&#x51e1;" d="M333 383 l0 84 l84 0 l0 -84 l83 0 l0 -83 l-83 0 l0 83 l-84 0 ZM917 -117 l-334 0 l0 834 l-333 0 l0 -500 l-83 0 l0 -167 l-84 0 l0 -167 l-83 0 l0 167 l83 0 l0 167 l84 0 l0 583 l500 0 l0 -833 l166 0 l0 166 l84 0 l0 -250 Z" /><glyph glyph-name="" unicode="&#x51fa;" d="M917 -117 l-917 0 l0 334 l83 0 l0 -250 l334 0 l0 416 l-334 0 l0 334 l84 0 l0 -250 l250 0 l0 416 l83 0 l0 -416 l250 0 l0 250 l83 0 l0 -334 l-333 0 l0 -416 l333 0 l0 250 l84 0 l0 -334 Z" /><glyph glyph-name="" unicode="&#x5200;" d="M500 -117 l0 84 l250 0 l0 -84 l-250 0 ZM0 -117 l0 84 l167 0 l0 -84 l-167 0 ZM0 717 l0 83 l917 0 l0 -750 l-84 0 l0 -83 l-83 0 l0 83 l83 0 l0 667 l-416 0 l0 -500 l-84 0 l0 -167 l-83 0 l0 -83 l-83 0 l0 83 l83 0 l0 167 l83 0 l0 500 l-333 0 Z" /><glyph glyph-name="" unicode="&#x5206;" d="M500 -117 l0 84 l167 0 l0 -84 l-167 0 ZM83 -117 l0 84 l167 0 l0 -84 l-167 0 ZM417 717 l0 83 l333 0 l0 -167 l83 0 l0 -166 l84 0 l0 -167 l-84 0 l0 167 l-83 0 l0 166 l-83 0 l0 84 l-250 0 ZM667 -33 l0 333 l-250 0 l0 -167 l-84 0 l0 -166 l-83 0 l0 166 l83 0 l0 167 l-166 0 l0 83 l583 0 l0 -416 l-83 0 ZM83 383 l0 -166 l-83 0 l0 166 l83 0 ZM167 383 l-84 0 l0 167 l84 0 l0 -167 ZM167 550 l0 250 l83 0 l0 -250 l-83 0 Z" /><glyph glyph-name="" unicode="&#x5207;" d="M583 -117 l0 84 l167 0 l0 -84 l-167 0 ZM0 467 l0 83 l83 0 l0 250 l84 0 l0 -250 l166 0 l0 -83 l-166 0 l0 -334 l250 0 l0 -166 l-84 0 l0 83 l-166 0 l0 83 l-84 0 l0 334 l-83 0 ZM333 717 l0 83 l584 0 l0 -750 l-84 0 l0 -83 l-83 0 l0 83 l83 0 l0 667 l-250 0 l0 -417 l-83 0 l0 -167 l-83 0 l0 167 l83 0 l0 417 l-167 0 Z" /><glyph glyph-name="" unicode="&#x521d;" d="M583 -117 l0 84 l167 0 l0 -84 l-167 0 ZM0 133 l0 84 l83 0 l0 83 l84 0 l0 -83 l83 0 l0 -84 l-83 0 l0 -250 l-84 0 l0 250 l-83 0 ZM0 550 l0 83 l83 0 l0 167 l84 0 l0 -167 l166 0 l0 -250 l-83 0 l0 -83 l-83 0 l0 83 l83 0 l0 167 l-250 0 ZM333 717 l0 83 l584 0 l0 -750 l-84 0 l0 -83 l-83 0 l0 83 l83 0 l0 667 l-250 0 l0 -417 l-83 0 l0 -167 l-83 0 l0 -166 l-84 0 l0 166 l84 0 l0 167 l83 0 l0 417 l-167 0 Z" /><glyph glyph-name="" unicode="&#x5224;" d="M750 -117 l0 84 l83 0 l0 833 l84 0 l0 -917 l-167 0 ZM0 133 l0 84 l167 0 l0 166 l-167 0 l0 84 l167 0 l0 416 l83 0 l0 -416 l250 0 l0 -84 l-250 0 l0 -166 l250 0 l0 -84 l-250 0 l0 -250 l-83 0 l0 250 l-167 0 ZM333 550 l0 83 l84 0 l0 -83 l-84 0 ZM667 717 l0 -667 l-84 0 l0 667 l84 0 ZM417 633 l0 84 l83 0 l0 -84 l-83 0 ZM83 717 l0 -167 l-83 0 l0 167 l83 0 Z" /><glyph glyph-name="" unicode="&#x5225;" d="M750 -117 l0 84 l83 0 l0 833 l84 0 l0 -917 l-167 0 ZM83 -117 l0 84 l250 0 l0 -84 l-250 0 ZM333 -33 l0 333 l-166 0 l0 -83 l-84 0 l0 -167 l-83 0 l0 167 l83 0 l0 250 l-83 0 l0 333 l417 0 l0 -333 l-250 0 l0 -84 l250 0 l0 -416 l-84 0 ZM667 717 l0 -584 l-84 0 l0 584 l84 0 ZM83 550 l250 0 l0 167 l-250 0 l0 -167 Z" /><glyph glyph-name="" unicode="&#x5229;" d="M750 -117 l0 84 l83 0 l0 833 l84 0 l0 -917 l-167 0 ZM0 50 l0 83 l83 0 l0 -83 l-83 0 ZM0 383 l0 84 l250 0 l0 166 l-250 0 l0 84 l333 0 l0 -250 l167 0 l0 -84 l-167 0 l0 -166 l84 0 l0 -84 l83 0 l0 -83 l-83 0 l0 83 l-84 0 l0 -250 l-83 0 l0 334 l-83 0 l0 -84 l-84 0 l0 84 l84 0 l0 83 l83 0 l0 83 l-250 0 ZM667 717 l0 -584 l-84 0 l0 584 l84 0 ZM500 717 l-167 0 l0 83 l167 0 l0 -83 Z" /><glyph glyph-name="" unicode="&#x523a;" d="M750 -117 l0 84 l83 0 l0 833 l84 0 l0 -917 l-167 0 ZM0 -33 l0 83 l83 0 l0 -83 l-83 0 ZM0 633 l0 84 l167 0 l0 166 l83 0 l0 -166 l250 0 l0 -84 l-250 0 l0 -166 l250 0 l0 -250 l-83 0 l0 166 l-167 0 l0 -166 l83 0 l0 -84 l84 0 l0 -83 l83 0 l0 -83 l-83 0 l0 83 l-84 0 l0 83 l-83 0 l0 -250 l-83 0 l0 167 l-84 0 l0 83 l84 0 l0 250 l-84 0 l0 -166 l-83 0 l0 250 l167 0 l0 166 l-167 0 ZM667 717 l0 -584 l-84 0 l0 584 l84 0 Z" /><glyph glyph-name="" unicode="&#x523b;" d="M750 -117 l0 84 l83 0 l0 833 l84 0 l0 -917 l-167 0 ZM0 -117 l0 84 l167 0 l0 -84 l-167 0 ZM83 133 l0 84 l167 0 l0 -84 l-167 0 ZM83 383 l0 84 l84 0 l0 -84 l83 0 l0 -83 l83 0 l0 -83 l-83 0 l0 83 l-83 0 l0 83 l-84 0 ZM0 633 l0 84 l250 0 l0 166 l83 0 l0 -166 l167 0 l0 -84 l-167 0 l0 -83 l-83 0 l0 -83 l-83 0 l0 83 l83 0 l0 83 l-250 0 ZM500 -33 l83 0 l0 -84 l-83 0 l0 84 ZM500 -33 l-83 0 l0 83 l83 0 l0 -83 ZM333 -33 l-166 0 l0 83 l166 0 l0 -83 ZM417 50 l-84 0 l0 83 l84 0 l0 -83 ZM417 133 l0 84 l83 0 l0 -84 l-83 0 ZM667 717 l0 -584 l-84 0 l0 584 l84 0 ZM333 300 l0 83 l84 0 l0 -83 l-84 0 ZM417 383 l0 84 l83 0 l0 -84 l-83 0 Z" /><glyph glyph-name="" unicode="&#x5247;" d="M750 -117 l0 84 l83 0 l0 833 l84 0 l0 -917 l-167 0 ZM0 -117 l0 84 l83 0 l0 -84 l-83 0 ZM333 -33 l0 83 l84 0 l0 -83 l83 0 l0 -84 l-83 0 l0 84 l-84 0 ZM83 -33 l0 83 l84 0 l0 -83 l-84 0 ZM417 133 l-417 0 l0 667 l417 0 l0 -667 ZM83 217 l250 0 l0 166 l-250 0 l0 -166 ZM667 717 l0 -584 l-84 0 l0 584 l84 0 ZM83 467 l250 0 l0 83 l-250 0 l0 -83 ZM83 633 l250 0 l0 84 l-250 0 l0 -84 Z" /><glyph glyph-name="" unicode="&#x524d;" d="M750 -117 l0 84 l83 0 l0 583 l84 0 l0 -667 l-167 0 ZM333 -117 l0 84 l84 0 l0 166 l-250 0 l0 -250 l-84 0 l0 667 l417 0 l0 -667 l-167 0 ZM0 633 l0 84 l250 0 l0 166 l83 0 l0 -166 l250 0 l0 83 l84 0 l0 -83 l250 0 l0 -84 l-917 0 ZM667 550 l0 -500 l-84 0 l0 500 l84 0 ZM167 217 l250 0 l0 83 l-250 0 l0 -83 ZM167 383 l250 0 l0 84 l-250 0 l0 -84 ZM667 800 l0 83 l83 0 l0 -83 l-83 0 Z" /><glyph glyph-name="" unicode="&#x5256;" d="M750 -117 l0 84 l83 0 l0 833 l84 0 l0 -917 l-167 0 ZM0 383 l0 84 l83 0 l0 166 l-83 0 l0 84 l167 0 l0 166 l83 0 l0 -166 l250 0 l0 -84 l-83 0 l0 -166 l83 0 l0 -84 l-500 0 ZM500 -117 l-500 0 l0 334 l500 0 l0 -334 ZM83 -33 l334 0 l0 166 l-334 0 l0 -166 ZM667 717 l0 -584 l-84 0 l0 584 l84 0 ZM167 467 l166 0 l0 166 l-166 0 l0 -166 Z" /><glyph glyph-name="" unicode="&#x5275;" d="M750 -117 l0 84 l83 0 l0 833 l84 0 l0 -917 l-167 0 ZM0 550 l0 83 l83 0 l0 84 l84 0 l0 -84 l250 0 l0 84 l83 0 l0 -500 l-333 0 l0 -84 l333 0 l0 -250 l-333 0 l0 250 l-84 0 l0 -166 l-83 0 l0 166 l83 0 l0 417 l-83 0 ZM250 -33 l167 0 l0 83 l-167 0 l0 -83 ZM667 717 l0 -584 l-84 0 l0 584 l84 0 ZM167 300 l250 0 l0 83 l-250 0 l0 -83 ZM167 467 l250 0 l0 83 l-250 0 l0 -83 ZM417 717 l-250 0 l0 83 l250 0 l0 -83 Z" /><glyph glyph-name="" unicode="&#x529b;" d="M500 -117 l0 84 l250 0 l0 -84 l-250 0 ZM0 -117 l0 84 l167 0 l0 -84 l-167 0 ZM0 550 l0 83 l333 0 l0 250 l84 0 l0 -250 l500 0 l0 -583 l-84 0 l0 -83 l-83 0 l0 83 l83 0 l0 500 l-416 0 l0 -333 l-84 0 l0 -167 l-83 0 l0 -83 l-83 0 l0 83 l83 0 l0 167 l83 0 l0 333 l-333 0 Z" /><glyph glyph-name="" unicode="&#x52a0;" d="M167 -117 l0 84 l166 0 l0 -84 l-166 0 ZM0 550 l0 83 l167 0 l0 250 l83 0 l0 -250 l250 0 l0 -583 l-83 0 l0 -83 l-84 0 l0 83 l84 0 l0 500 l-167 0 l0 -250 l-83 0 l0 -167 l-84 0 l0 -166 l-83 0 l0 166 l83 0 l0 167 l84 0 l0 250 l-167 0 ZM917 -117 l-334 0 l0 834 l334 0 l0 -834 ZM667 -33 l166 0 l0 666 l-166 0 l0 -666 Z" /><glyph glyph-name="" unicode="&#x52a9;" d="M583 -117 l0 84 l167 0 l0 -84 l-167 0 ZM417 -117 l-417 0 l0 917 l333 0 l0 -167 l250 0 l0 250 l84 0 l0 -250 l250 0 l0 -583 l-84 0 l0 -83 l-83 0 l0 83 l83 0 l0 500 l-166 0 l0 -167 l-84 0 l0 -166 l-83 0 l0 -167 l-83 0 l0 167 l83 0 l0 166 l83 0 l0 167 l-250 0 l0 -583 l84 0 l0 -84 ZM83 -33 l167 0 l0 250 l-167 0 l0 -250 ZM83 300 l167 0 l0 167 l-167 0 l0 -167 ZM83 550 l167 0 l0 167 l-167 0 l0 -167 Z" /><glyph glyph-name="" unicode="&#x52aa;" d="M583 -117 l0 84 l167 0 l0 -84 l-167 0 ZM83 -117 l0 84 l167 0 l0 -84 l-167 0 ZM83 133 l0 84 l334 0 l0 166 l250 0 l0 -83 l-167 0 l0 -83 l333 0 l0 -250 l-83 0 l0 166 l-250 0 l0 -83 l-83 0 l0 -83 l-167 0 l0 83 l167 0 l0 83 l-334 0 ZM0 300 l0 83 l167 0 l0 -83 l-167 0 ZM0 633 l0 84 l167 0 l0 166 l83 0 l0 -166 l250 0 l0 -84 l-83 0 l0 -250 l-250 0 l0 84 l166 0 l0 166 l-166 0 l0 -166 l-84 0 l0 166 l-83 0 ZM833 383 l84 0 l0 -83 l-84 0 l0 83 ZM833 383 l-166 0 l0 84 l83 0 l0 83 l83 0 l0 -167 ZM667 467 l-84 0 l0 166 l84 0 l0 -166 ZM833 550 l0 167 l-333 0 l0 83 l417 0 l0 -250 l-84 0 Z" /><glyph glyph-name="" unicode="&#x52b1;" d="M667 -117 l0 84 l166 0 l0 -84 l-166 0 ZM250 -117 l0 84 l167 0 l0 -84 l-167 0 ZM833 -33 l0 583 l-166 0 l0 -417 l-84 0 l0 -83 l-83 0 l0 -83 l-83 0 l0 333 l-167 0 l0 -250 l-83 0 l0 -167 l-84 0 l0 167 l84 0 l0 500 l-84 0 l0 -417 l-83 0 l0 667 l500 0 l0 -83 l-417 0 l0 -84 l500 0 l0 250 l84 0 l0 -250 l250 0 l0 -666 l-84 0 ZM583 133 l0 417 l-333 0 l0 -167 l250 0 l0 -250 l83 0 Z" /><glyph glyph-name="" unicode="&#x52c7;" d="M583 -117 l0 84 l250 0 l0 -84 l-250 0 ZM0 -117 l0 84 l167 0 l0 -84 l-167 0 ZM0 133 l0 84 l83 0 l0 416 l500 0 l0 84 l-500 0 l0 83 l667 0 l0 -83 l-83 0 l0 -84 l166 0 l0 -416 l84 0 l0 -250 l-84 0 l0 166 l-416 0 l0 -83 l-84 0 l0 -83 l-166 0 l0 83 l166 0 l0 83 l-333 0 ZM500 217 l250 0 l0 166 l-250 0 l0 -166 ZM167 217 l250 0 l0 166 l-250 0 l0 -166 ZM500 467 l250 0 l0 83 l-250 0 l0 -83 ZM167 467 l250 0 l0 83 l-250 0 l0 -83 Z" /><glyph glyph-name="" unicode="&#x52d5;" d="M583 -117 l0 84 l167 0 l0 -84 l-167 0 ZM0 -117 l0 84 l167 0 l0 83 l-167 0 l0 83 l167 0 l0 84 l-167 0 l0 416 l167 0 l0 84 l-167 0 l0 83 l417 0 l0 -83 l-167 0 l0 -84 l333 0 l0 250 l84 0 l0 -250 l250 0 l0 -583 l-84 0 l0 -83 l-83 0 l0 83 l83 0 l0 500 l-166 0 l0 -333 l-84 0 l0 -167 l-83 0 l0 167 l83 0 l0 333 l-166 0 l0 -333 l-167 0 l0 -84 l167 0 l0 -83 l-167 0 l0 -83 l167 0 l0 -84 l-417 0 ZM333 300 l0 83 l-83 0 l0 -83 l83 0 ZM167 300 l0 83 l-84 0 l0 -83 l84 0 ZM333 467 l0 83 l-83 0 l0 -83 l83 0 ZM167 467 l0 83 l-84 0 l0 -83 l84 0 Z" /><glyph glyph-name="" unicode="&#x52d9;" d="M667 -117 l0 84 l166 0 l0 -84 l-166 0 ZM417 -117 l0 84 l83 0 l0 -84 l-83 0 ZM83 -117 l0 84 l84 0 l0 166 l-84 0 l0 -83 l-83 0 l0 83 l83 0 l0 84 l84 0 l0 166 l-167 0 l0 84 l167 0 l0 83 l83 0 l0 -83 l167 0 l0 -84 l166 0 l0 -83 l84 0 l0 -83 l250 0 l0 -250 l-84 0 l0 166 l-166 0 l0 -83 l-84 0 l0 -83 l-83 0 l0 83 l83 0 l0 83 l-166 0 l0 84 l166 0 l0 83 l-166 0 l0 -83 l-84 0 l0 -84 l-83 0 l0 -250 l-167 0 ZM83 550 l0 83 l84 0 l0 -83 l-84 0 ZM0 717 l0 83 l417 0 l0 -167 l166 0 l0 -83 l84 0 l0 -83 l83 0 l0 -84 l167 0 l0 -83 l-167 0 l0 83 l-167 0 l0 167 l-166 0 l0 83 l-84 0 l0 -83 l-83 0 l0 83 l83 0 l0 84 l-333 0 ZM333 217 l0 166 l-83 0 l0 -166 l83 0 ZM750 467 l0 83 l83 0 l0 -83 l-83 0 ZM833 550 l0 83 l-250 0 l0 250 l84 0 l0 -166 l250 0 l0 -167 l-84 0 Z" /><glyph glyph-name="" unicode="&#x52dd;" d="M667 -117 l0 84 l166 0 l0 -84 l-166 0 ZM333 -117 l0 84 l167 0 l0 -84 l-167 0 ZM333 383 l0 84 l167 0 l0 83 l-167 0 l0 83 l84 0 l0 167 l83 0 l0 -167 l83 0 l0 250 l84 0 l0 -250 l83 0 l0 84 l83 0 l0 -84 l84 0 l0 -83 l-167 0 l0 -83 l167 0 l0 -84 l-84 0 l0 -83 l84 0 l0 -333 l-84 0 l0 166 l-166 0 l0 -83 l-84 0 l0 -83 l-83 0 l0 83 l83 0 l0 83 l-166 0 l0 84 l166 0 l0 83 l84 0 l0 -83 l166 0 l0 83 l-83 0 l0 83 l-250 0 l0 -83 l-83 0 l0 -83 l-84 0 l0 -84 l-83 0 l0 -250 l-83 0 l0 334 l-84 0 l0 -334 l-83 0 l0 917 l250 0 l0 -583 l83 0 l0 83 l84 0 l0 83 l-84 0 ZM167 300 l0 167 l-84 0 l0 -167 l84 0 ZM667 467 l0 83 l-84 0 l0 -83 l84 0 ZM167 550 l0 167 l-84 0 l0 -167 l84 0 ZM833 717 l0 83 l84 0 l0 -83 l-84 0 Z" /><glyph glyph-name="" unicode="&#x52e2;" d="M583 -117 l0 84 l167 0 l0 -84 l-167 0 ZM83 -117 l0 84 l167 0 l0 -84 l-167 0 ZM0 133 l0 84 l167 0 l0 83 l-167 0 l0 83 l83 0 l0 84 l-83 0 l0 83 l167 0 l0 83 l-167 0 l0 84 l167 0 l0 166 l83 0 l0 -166 l333 0 l0 166 l84 0 l0 -166 l166 0 l0 -334 l84 0 l0 -166 l-84 0 l0 -250 l-83 0 l0 166 l-333 0 l0 -83 l-84 0 l0 -83 l-83 0 l0 83 l83 0 l0 83 l-333 0 ZM500 217 l333 0 l0 166 l-83 0 l0 250 l-83 0 l0 -166 l-84 0 l0 -84 l84 0 l0 -83 l-84 0 l0 83 l-83 0 l0 -166 ZM250 217 l167 0 l0 166 l83 0 l0 84 l83 0 l0 166 l-333 0 l0 -83 l250 0 l0 -83 l-83 0 l0 -84 l-84 0 l0 -83 l-83 0 l0 -83 ZM167 383 l166 0 l0 84 l-166 0 l0 -84 Z" /><glyph glyph-name="" unicode="&#x52e4;" d="M583 -117 l0 84 l167 0 l0 -84 l-167 0 ZM0 -117 l0 84 l167 0 l0 83 l-167 0 l0 83 l167 0 l0 84 l-167 0 l0 333 l83 0 l0 83 l-83 0 l0 84 l83 0 l0 83 l84 0 l0 -83 l83 0 l0 83 l83 0 l0 -83 l84 0 l0 -84 l166 0 l0 250 l84 0 l0 -250 l250 0 l0 -583 l-84 0 l0 -83 l-83 0 l0 83 l83 0 l0 500 l-166 0 l0 -333 l-84 0 l0 -167 l-83 0 l0 167 l83 0 l0 333 l-166 0 l0 -333 l-167 0 l0 -84 l167 0 l0 -83 l-167 0 l0 -83 l167 0 l0 -84 l-417 0 ZM333 300 l0 167 l-83 0 l0 -167 l83 0 ZM167 300 l0 167 l-84 0 l0 -167 l84 0 ZM417 550 l0 83 l-84 0 l0 -83 l84 0 ZM250 550 l0 83 l-83 0 l0 -83 l83 0 Z" /><glyph glyph-name="" unicode="&#x52e7;" d="M583 -117 l0 84 l167 0 l0 -84 l-167 0 ZM0 217 l0 83 l83 0 l0 167 l-83 0 l0 166 l83 0 l0 -83 l84 0 l0 83 l-84 0 l0 250 l84 0 l0 -166 l333 0 l0 -84 l83 0 l0 250 l84 0 l0 -250 l250 0 l0 -583 l-84 0 l0 -83 l-83 0 l0 83 l83 0 l0 500 l-166 0 l0 -333 l-84 0 l0 -167 l-83 0 l0 83 l-167 0 l0 -166 l167 0 l0 -84 l-417 0 l0 334 l-83 0 ZM250 -33 l0 166 l-83 0 l0 -166 l83 0 ZM333 217 l250 0 l0 333 l-83 0 l0 -83 l-167 0 l0 -84 l167 0 l0 -83 l-167 0 l0 -83 ZM250 217 l0 83 l-83 0 l0 -83 l83 0 ZM250 383 l0 84 l-83 0 l0 -84 l83 0 ZM250 550 l250 0 l0 83 l-250 0 l0 -83 Z" /><glyph glyph-name="" unicode="&#x5316;" d="M0 300 l0 83 l83 0 l0 -83 l-83 0 ZM917 -117 l-417 0 l0 1000 l83 0 l0 -500 l84 0 l0 -83 l-84 0 l0 -333 l250 0 l0 166 l84 0 l0 -250 ZM250 633 l0 -750 l-83 0 l0 500 l-84 0 l0 84 l84 0 l0 166 l83 0 ZM667 383 l0 84 l83 0 l0 -84 l-83 0 ZM750 467 l0 83 l83 0 l0 -83 l-83 0 ZM833 550 l0 83 l84 0 l0 -83 l-84 0 ZM250 633 l0 167 l83 0 l0 -167 l-83 0 Z" /><glyph glyph-name="" unicode="&#x533a;" d="M250 50 l0 83 l83 0 l0 -83 l-83 0 ZM250 550 l0 83 l83 0 l0 -83 l84 0 l0 -83 l83 0 l0 -84 l83 0 l0 -83 l84 0 l0 -83 l83 0 l0 -84 l83 0 l0 -83 l-83 0 l0 83 l-83 0 l0 84 l-84 0 l0 83 l-83 0 l0 -83 l-83 0 l0 -84 l-84 0 l0 84 l84 0 l0 83 l83 0 l0 83 l-83 0 l0 84 l-84 0 l0 83 l-83 0 ZM917 -117 l-917 0 l0 917 l917 0 l0 -83 l-834 0 l0 -750 l834 0 l0 -84 ZM583 383 l0 84 l84 0 l0 -84 l-84 0 ZM667 467 l0 83 l83 0 l0 -83 l-83 0 ZM750 550 l0 83 l83 0 l0 -83 l-83 0 Z" /><glyph glyph-name="" unicode="&#x5341;" d="M0 383 l0 84 l417 0 l0 416 l83 0 l0 -416 l417 0 l0 -84 l-417 0 l0 -500 l-83 0 l0 500 l-417 0 Z" /><glyph glyph-name="" unicode="&#x5348;" d="M0 217 l0 83 l417 0 l0 333 l-334 0 l0 -166 l-83 0 l0 166 l83 0 l0 250 l84 0 l0 -166 l666 0 l0 -84 l-333 0 l0 -333 l417 0 l0 -83 l-417 0 l0 -334 l-83 0 l0 334 l-417 0 Z" /><glyph glyph-name="" unicode="&#x534a;" d="M0 133 l0 84 l417 0 l0 166 l-334 0 l0 84 l334 0 l0 416 l83 0 l0 -416 l333 0 l0 -84 l-333 0 l0 -166 l417 0 l0 -84 l-417 0 l0 -250 l-83 0 l0 250 l-417 0 ZM667 550 l0 83 l83 0 l0 -83 l-83 0 ZM83 633 l0 84 l84 0 l0 -84 l83 0 l0 -83 l-83 0 l0 83 l-84 0 ZM750 633 l0 84 l83 0 l0 -84 l-83 0 Z" /><glyph glyph-name="" unicode="&#x5358;" d="M0 -33 l0 83 l417 0 l0 83 l-334 0 l0 500 l84 0 l0 84 l83 0 l0 -84 l333 0 l0 84 l84 0 l0 -84 l166 0 l0 -500 l-333 0 l0 -83 l417 0 l0 -83 l-417 0 l0 -84 l-83 0 l0 84 l-417 0 ZM83 717 l0 83 l84 0 l0 -83 l-84 0 ZM333 800 l0 83 l84 0 l0 -83 l83 0 l0 -83 l-83 0 l0 83 l-84 0 ZM500 217 l250 0 l0 166 l-250 0 l0 -166 ZM167 217 l250 0 l0 166 l-250 0 l0 -166 ZM500 467 l250 0 l0 83 l-250 0 l0 -83 ZM167 467 l250 0 l0 83 l-250 0 l0 -83 ZM667 717 l0 83 l83 0 l0 -83 l-83 0 ZM750 800 l0 83 l83 0 l0 -83 l-83 0 Z" /><glyph glyph-name="" unicode="&#x5360;" d="M833 -117 l-750 0 l0 417 l334 0 l0 583 l83 0 l0 -250 l333 0 l0 -83 l-333 0 l0 -250 l333 0 l0 -417 ZM167 -33 l583 0 l0 250 l-583 0 l0 -250 Z" /><glyph glyph-name="" unicode="&#x5371;" d="M583 50 l0 83 l84 0 l0 167 l-250 0 l0 -333 l416 0 l0 83 l84 0 l0 -167 l-584 0 l0 500 l417 0 l0 -333 l-167 0 ZM0 467 l0 83 l83 0 l0 83 l84 0 l0 -83 l333 0 l0 83 l83 0 l0 -83 l334 0 l0 -83 l-750 0 l0 -417 l-84 0 l0 -167 l-83 0 l0 167 l83 0 l0 417 l-83 0 ZM583 633 l0 84 l-333 0 l0 -84 l-83 0 l0 84 l83 0 l0 83 l417 0 l0 -167 l-84 0 Z" /><glyph glyph-name="" unicode="&#x5374;" d="M667 -33 l0 83 l166 0 l0 667 l-250 0 l0 -834 l-83 0 l0 417 l-333 0 l0 -167 l-84 0 l0 -83 l250 0 l0 83 l84 0 l0 -250 l-84 0 l0 84 l-333 0 l0 166 l83 0 l0 167 l-83 0 l0 83 l167 0 l0 250 l-167 0 l0 84 l167 0 l0 166 l83 0 l0 -166 l167 0 l0 -84 l-167 0 l0 -250 l250 0 l0 417 l417 0 l0 -833 l-250 0 Z" /><glyph glyph-name="" unicode="&#x539f;" d="M417 -117 l0 84 l83 0 l0 166 l-250 0 l0 500 l250 0 l0 84 l-333 0 l0 -584 l-84 0 l0 -166 l-83 0 l0 166 l83 0 l0 667 l834 0 l0 -83 l-334 0 l0 -84 l250 0 l0 -500 l-250 0 l0 -250 l-166 0 ZM167 -117 l0 84 l83 0 l0 -84 l-83 0 ZM750 -33 l0 83 l83 0 l0 -83 l84 0 l0 -84 l-84 0 l0 84 l-83 0 ZM250 -33 l0 83 l83 0 l0 -83 l-83 0 ZM333 217 l417 0 l0 166 l-417 0 l0 -166 ZM333 467 l417 0 l0 83 l-417 0 l0 -83 Z" /><glyph glyph-name="" unicode="&#x53bb;" d="M0 300 l0 83 l417 0 l0 250 l-334 0 l0 84 l334 0 l0 166 l83 0 l0 -166 l333 0 l0 -84 l-333 0 l0 -250 l417 0 l0 -83 l-500 0 l0 -167 l-84 0 l0 -83 l-83 0 l0 -83 l250 0 l0 -84 l-333 0 l0 167 l83 0 l0 83 l83 0 l0 167 l-333 0 ZM833 50 l0 -167 l-83 0 l0 167 l83 0 ZM667 -33 l-167 0 l0 83 l167 0 l0 -83 ZM750 50 l-83 0 l0 167 l83 0 l0 -167 Z" /><glyph glyph-name="" unicode="&#x53c2;" d="M167 -117 l0 84 l333 0 l0 -84 l-333 0 ZM250 50 l0 83 l167 0 l0 -83 l-167 0 ZM0 133 l0 84 l167 0 l0 -84 l-167 0 ZM0 383 l0 84 l417 0 l0 83 l-334 0 l0 83 l167 0 l0 84 l83 0 l0 -84 l334 0 l0 84 l83 0 l0 -84 l83 0 l0 -83 l-333 0 l0 -83 l417 0 l0 -84 l-167 0 l0 -83 l83 0 l0 -83 l84 0 l0 -84 l-84 0 l0 84 l-83 0 l0 83 l-83 0 l0 -83 l-84 0 l0 -84 l-166 0 l0 84 l166 0 l0 83 l84 0 l0 83 l-250 0 l0 -83 l-84 0 l0 -83 l-166 0 l0 83 l166 0 l0 83 l-333 0 ZM583 717 l0 83 l84 0 l0 -83 l-84 0 ZM667 -33 l-167 0 l0 83 l167 0 l0 -83 ZM667 50 l0 83 l83 0 l0 -83 l-83 0 ZM333 717 l0 166 l84 0 l0 -166 l-84 0 Z" /><glyph glyph-name="" unicode="&#x53ca;" d="M167 -117 l0 84 l250 0 l0 -84 l-250 0 ZM417 217 l0 83 l83 0 l0 -83 l83 0 l0 -84 l84 0 l0 84 l83 0 l0 -167 l83 0 l0 -83 l84 0 l0 -84 l-84 0 l0 84 l-83 0 l0 83 l-167 0 l0 -83 l-166 0 l0 83 l166 0 l0 83 l-83 0 l0 84 l-83 0 ZM83 717 l0 83 l667 0 l0 -167 l-83 0 l0 -83 l-84 0 l0 -83 l250 0 l0 -250 l-83 0 l0 166 l-250 0 l0 167 l83 0 l0 83 l84 0 l0 84 l-334 0 l0 -334 l-83 0 l0 -166 l-83 0 l0 -167 l-84 0 l0 167 l84 0 l0 166 l83 0 l0 334 l-167 0 Z" /><glyph glyph-name="" unicode="&#x53cc;" d="M250 -117 l0 84 l167 0 l0 -84 l-167 0 ZM0 -33 l0 83 l83 0 l0 -83 l-83 0 ZM83 467 l0 83 l84 0 l0 -83 l83 0 l0 -84 l83 0 l0 -83 l84 0 l0 -83 l83 0 l0 -84 l-83 0 l0 84 l-167 0 l0 -84 l-83 0 l0 -83 l-84 0 l0 83 l84 0 l0 84 l83 0 l0 166 l-83 0 l0 84 l-84 0 ZM500 717 l0 83 l417 0 l0 -417 l-84 0 l0 -166 l-83 0 l0 -167 l83 0 l0 -83 l84 0 l0 -84 l-84 0 l0 84 l-83 0 l0 83 l-167 0 l0 -83 l-166 0 l0 83 l166 0 l0 83 l84 0 l0 84 l83 0 l0 166 l83 0 l0 334 l-333 0 ZM0 717 l0 83 l417 0 l0 -417 l-84 0 l0 334 l-333 0 ZM667 217 l-84 0 l0 166 l84 0 l0 -166 ZM583 383 l-83 0 l0 167 l83 0 l0 -167 Z" /><glyph glyph-name="" unicode="&#x53cd;" d="M167 -117 l0 84 l250 0 l0 -84 l-250 0 ZM833 -33 l84 0 l0 -84 l-84 0 l0 84 ZM833 -33 l-83 0 l0 83 l83 0 l0 -83 ZM583 -33 l-166 0 l0 83 l166 0 l0 -83 ZM750 50 l-167 0 l0 83 l84 0 l0 84 l83 0 l0 -167 ZM583 133 l-83 0 l0 84 l83 0 l0 -84 ZM167 217 l0 -167 l-84 0 l0 167 l84 0 ZM750 217 l0 250 l-500 0 l0 -250 l-83 0 l0 583 l750 0 l0 -83 l-667 0 l0 -167 l583 0 l0 -333 l-83 0 ZM500 217 l-83 0 l0 166 l83 0 l0 -166 Z" /><glyph glyph-name="" unicode="&#x53ce;" d="M0 50 l0 83 l83 0 l0 584 l84 0 l0 -500 l83 0 l0 583 l83 0 l0 -833 l167 0 l0 -84 l-250 0 l0 250 l-83 0 l0 -83 l-167 0 ZM417 717 l0 83 l500 0 l0 -417 l-84 0 l0 -166 l-83 0 l0 -167 l83 0 l0 -83 l84 0 l0 -84 l-84 0 l0 84 l-83 0 l0 83 l-167 0 l0 -83 l-83 0 l0 83 l83 0 l0 83 l84 0 l0 84 l83 0 l0 166 l83 0 l0 334 l-416 0 ZM667 217 l-84 0 l0 166 l84 0 l0 -166 ZM583 383 l-83 0 l0 167 l83 0 l0 -167 Z" /><glyph glyph-name="" unicode="&#x53d6;" d="M0 -33 l0 83 l83 0 l0 667 l-83 0 l0 83 l500 0 l0 -83 l417 0 l0 -334 l-84 0 l0 -166 l-83 0 l0 -167 l83 0 l0 -83 l84 0 l0 -84 l-84 0 l0 84 l-83 0 l0 83 l-167 0 l0 -83 l-83 0 l0 -84 l-167 0 l0 167 l-166 0 l0 -83 l-167 0 ZM500 -33 l0 83 l83 0 l0 83 l84 0 l0 84 l83 0 l0 166 l83 0 l0 250 l-333 0 l0 84 l-83 0 l0 -750 l83 0 ZM167 133 l166 0 l0 167 l-166 0 l0 -167 ZM667 217 l-84 0 l0 166 l84 0 l0 -166 ZM167 383 l166 0 l0 167 l-166 0 l0 -167 ZM583 383 l-83 0 l0 167 l83 0 l0 -167 ZM167 633 l166 0 l0 84 l-166 0 l0 -84 Z" /><glyph glyph-name="" unicode="&#x53d7;" d="M83 -117 l0 84 l250 0 l0 -84 l-250 0 ZM250 50 l0 83 l83 0 l0 -83 l250 0 l0 -83 l250 0 l0 -84 l-250 0 l0 84 l-250 0 l0 83 l-83 0 ZM167 217 l0 83 l583 0 l0 -167 l-83 0 l0 -83 l-84 0 l0 83 l84 0 l0 84 l-500 0 ZM83 550 l0 83 l84 0 l0 -83 l83 0 l0 -83 l333 0 l0 83 l84 0 l0 -83 l250 0 l0 -250 l-84 0 l0 166 l-750 0 l0 -166 l-83 0 l0 250 l167 0 l0 83 l-84 0 ZM83 717 l0 83 l584 0 l0 -83 l-250 0 l0 -84 l83 0 l0 -83 l-83 0 l0 83 l-84 0 l0 84 l-250 0 ZM667 550 l0 83 l83 0 l0 -83 l-83 0 ZM750 633 l0 167 l83 0 l0 -167 l-83 0 Z" /><glyph glyph-name="" unicode="&#x53e3;" d="M917 717 l0 -834 l-84 0 l0 84 l-666 0 l0 -84 l-84 0 l0 834 l834 0 ZM167 50 l666 0 l0 583 l-666 0 l0 -583 Z" /><glyph glyph-name="" unicode="&#x53e4;" d="M0 550 l0 83 l417 0 l0 250 l83 0 l0 -250 l417 0 l0 -83 l-417 0 l0 -250 l250 0 l0 -417 l-583 0 l0 417 l250 0 l0 250 l-417 0 ZM250 -33 l417 0 l0 250 l-417 0 l0 -250 Z" /><glyph glyph-name="" unicode="&#x53eb;" d="M833 217 l0 -334 l-83 0 l0 250 l-250 0 l0 -83 l-167 0 l0 -83 l-333 0 l0 750 l333 0 l0 -584 l167 0 l0 584 l83 0 l0 -500 l167 0 l0 583 l83 0 l0 -500 l84 0 l0 -83 l-84 0 ZM83 50 l167 0 l0 583 l-167 0 l0 -583 Z" /><glyph glyph-name="" unicode="&#x53ef;" d="M500 -117 l0 84 l167 0 l0 750 l-667 0 l0 83 l917 0 l0 -83 l-167 0 l0 -834 l-250 0 ZM417 133 l-334 0 l0 417 l334 0 l0 -417 ZM167 217 l166 0 l0 250 l-166 0 l0 -250 Z" /><glyph glyph-name="" unicode="&#x53f1;" d="M917 -117 l-417 0 l0 500 l-167 0 l0 -416 l-333 0 l0 750 l333 0 l0 -250 l167 0 l0 416 l83 0 l0 -333 l167 0 l0 -83 l-167 0 l0 -500 l250 0 l0 166 l84 0 l0 -250 ZM83 50 l167 0 l0 583 l-167 0 l0 -583 ZM917 550 l-167 0 l0 83 l167 0 l0 -83 Z" /><glyph glyph-name="" unicode="&#x53f3;" d="M0 133 l0 84 l167 0 l0 -84 l-167 0 ZM0 633 l0 84 l417 0 l0 166 l83 0 l0 -166 l417 0 l0 -84 l-417 0 l0 -166 l-83 0 l0 -84 l416 0 l0 -500 l-583 0 l0 334 l-83 0 l0 83 l83 0 l0 83 l83 0 l0 84 l84 0 l0 166 l-417 0 ZM333 -33 l417 0 l0 333 l-417 0 l0 -333 Z" /><glyph glyph-name="" unicode="&#x5404;" d="M0 217 l0 83 l250 0 l0 -83 l500 0 l0 -334 l-583 0 l0 334 l-167 0 ZM333 467 l0 83 l84 0 l0 -83 l166 0 l0 -84 l167 0 l0 -83 l167 0 l0 -83 l-167 0 l0 83 l-167 0 l0 83 l-166 0 l0 -83 l-167 0 l0 83 l167 0 l0 84 l-84 0 ZM83 467 l0 83 l84 0 l0 -83 l-84 0 ZM250 -33 l417 0 l0 166 l-417 0 l0 -166 ZM583 467 l0 83 l84 0 l0 -83 l-84 0 ZM667 550 l0 83 l-417 0 l0 -83 l-83 0 l0 83 l83 0 l0 250 l83 0 l0 -166 l417 0 l0 -167 l-83 0 Z" /><glyph glyph-name="" unicode="&#x5408;" d="M0 383 l0 84 l83 0 l0 -84 l-83 0 ZM750 -117 l-583 0 l0 334 l583 0 l0 -334 ZM250 -33 l417 0 l0 166 l-417 0 l0 -166 ZM750 383 l-583 0 l0 84 l583 0 l0 -84 ZM833 467 l84 0 l0 -84 l-84 0 l0 84 ZM833 467 l-83 0 l0 83 l83 0 l0 -83 ZM167 467 l-84 0 l0 83 l84 0 l0 -83 ZM750 550 l-83 0 l0 83 l83 0 l0 -83 ZM167 550 l0 83 l83 0 l0 -83 l-83 0 ZM667 633 l-84 0 l0 84 l84 0 l0 -84 ZM250 633 l0 84 l83 0 l0 -84 l-83 0 ZM583 717 l-250 0 l0 83 l250 0 l0 -83 Z" /><glyph glyph-name="" unicode="&#x5409;" d="M83 383 l0 84 l334 0 l0 166 l-417 0 l0 84 l417 0 l0 166 l83 0 l0 -166 l417 0 l0 -84 l-417 0 l0 -166 l333 0 l0 -84 l-750 0 ZM750 -117 l-583 0 l0 334 l583 0 l0 -334 ZM250 -33 l417 0 l0 166 l-417 0 l0 -166 Z" /><glyph glyph-name="" unicode="&#x540c;" d="M750 -117 l0 84 l83 0 l0 750 l-750 0 l0 -834 l-83 0 l0 917 l917 0 l0 -917 l-167 0 ZM167 467 l0 83 l583 0 l0 -83 l-583 0 ZM667 -33 l-417 0 l0 333 l417 0 l0 -333 ZM333 50 l250 0 l0 167 l-250 0 l0 -167 Z" /><glyph glyph-name="" unicode="&#x540d;" d="M0 50 l0 83 l167 0 l0 -83 l-167 0 ZM83 467 l0 83 l167 0 l0 -83 l-167 0 ZM917 -117 l-584 0 l0 250 l-166 0 l0 84 l166 0 l0 83 l167 0 l0 83 l83 0 l0 -83 l334 0 l0 -417 ZM417 -33 l416 0 l0 250 l-416 0 l0 -250 ZM583 383 l0 84 l84 0 l0 -84 l-84 0 ZM500 383 l-83 0 l0 84 l83 0 l0 -84 ZM667 467 l0 83 l83 0 l0 -83 l-83 0 ZM417 467 l-84 0 l0 83 l84 0 l0 -83 ZM750 550 l0 83 l-417 0 l0 -83 l-83 0 l0 83 l83 0 l0 84 l84 0 l0 166 l83 0 l0 -166 l333 0 l0 -167 l-83 0 Z" /><glyph glyph-name="" unicode="&#x5411;" d="M667 -117 l0 84 l166 0 l0 583 l-750 0 l0 -667 l-83 0 l0 750 l333 0 l0 84 l84 0 l0 -84 l500 0 l0 -750 l-250 0 ZM667 50 l-417 0 l0 333 l417 0 l0 -333 ZM333 133 l250 0 l0 167 l-250 0 l0 -167 ZM417 717 l0 83 l83 0 l0 -83 l-83 0 ZM500 800 l0 83 l83 0 l0 -83 l-83 0 Z" /><glyph glyph-name="" unicode="&#x541b;" d="M0 50 l0 83 l167 0 l0 -83 l-167 0 ZM83 300 l0 83 l334 0 l0 167 l-417 0 l0 83 l417 0 l0 84 l-250 0 l0 83 l666 0 l0 -167 l84 0 l0 -83 l-84 0 l0 -250 l-416 0 l0 -83 l416 0 l0 -334 l-583 0 l0 250 l-83 0 l0 84 l166 0 l0 83 l-250 0 ZM333 -33 l417 0 l0 166 l-417 0 l0 -166 ZM500 383 l250 0 l0 167 l-250 0 l0 -167 ZM500 633 l250 0 l0 84 l-250 0 l0 -84 Z" /><glyph glyph-name="" unicode="&#x541f;" d="M583 -117 l0 84 l167 0 l0 -84 l-167 0 ZM417 217 l0 83 l500 0 l0 -250 l-84 0 l0 -83 l-83 0 l0 83 l83 0 l0 167 l-416 0 ZM333 -33 l-333 0 l0 750 l333 0 l0 -84 l84 0 l0 -83 l500 0 l0 -83 l-500 0 l0 83 l-84 0 l0 -583 ZM83 50 l167 0 l0 583 l-167 0 l0 -583 ZM417 633 l0 84 l83 0 l0 -84 l-83 0 ZM833 717 l84 0 l0 -84 l-84 0 l0 84 ZM833 717 l-333 0 l0 83 l333 0 l0 -83 Z" /><glyph glyph-name="" unicode="&#x5426;" d="M0 383 l0 84 l250 0 l0 -84 l-250 0 ZM667 467 l0 83 l83 0 l0 -83 l83 0 l0 -84 l84 0 l0 -83 l-84 0 l0 83 l-83 0 l0 84 l-83 0 ZM0 717 l0 83 l917 0 l0 -83 l-334 0 l0 -84 l-83 0 l0 -416 l250 0 l0 -334 l-583 0 l0 334 l250 0 l0 250 l-167 0 l0 83 l167 0 l0 83 l83 0 l0 84 l-500 0 ZM250 -33 l417 0 l0 166 l-417 0 l0 -166 Z" /><glyph glyph-name="" unicode="&#x542b;" d="M167 383 l0 84 l583 0 l0 -84 l-83 0 l0 -83 l-84 0 l0 -83 l167 0 l0 -334 l-583 0 l0 334 l333 0 l0 83 l83 0 l0 83 l-416 0 ZM0 467 l0 83 l83 0 l0 -83 l-83 0 ZM250 -33 l417 0 l0 166 l-417 0 l0 -166 ZM833 550 l84 0 l0 -83 l-84 0 l0 83 ZM833 550 l-83 0 l0 83 l83 0 l0 -83 ZM667 550 l-417 0 l0 83 l417 0 l0 -83 ZM83 550 l0 83 l84 0 l0 -83 l-84 0 ZM750 633 l-83 0 l0 84 l83 0 l0 -84 ZM250 633 l-83 0 l0 84 l83 0 l0 -84 ZM667 717 l-417 0 l0 83 l417 0 l0 -83 Z" /><glyph glyph-name="" unicode="&#x5439;" d="M250 -117 l0 84 l167 0 l0 -84 l-167 0 ZM750 383 l0 84 l83 0 l0 -84 l-83 0 ZM833 -33 l84 0 l0 -84 l-84 0 l0 84 ZM833 -33 l-83 0 l0 83 l83 0 l0 -83 ZM417 -33 l0 83 l83 0 l0 -83 l-83 0 ZM750 50 l-83 0 l0 167 l83 0 l0 -167 ZM500 50 l0 167 l83 0 l0 -167 l-83 0 ZM333 50 l-333 0 l0 667 l333 0 l0 -167 l84 0 l0 -83 l-84 0 l0 -417 ZM83 133 l167 0 l0 500 l-167 0 l0 -500 ZM667 217 l-84 0 l0 416 l-83 0 l0 -83 l-83 0 l0 333 l83 0 l0 -166 l417 0 l0 -250 l-84 0 l0 166 l-166 0 l0 -416 Z" /><glyph glyph-name="" unicode="&#x543e;" d="M0 300 l0 83 l333 0 l0 167 l-166 0 l0 83 l250 0 l0 84 l-417 0 l0 83 l917 0 l0 -83 l-417 0 l0 -84 l250 0 l0 -250 l167 0 l0 -83 l-917 0 ZM750 -117 l-583 0 l0 334 l583 0 l0 -334 ZM250 -33 l417 0 l0 166 l-417 0 l0 -166 ZM417 383 l250 0 l0 167 l-250 0 l0 -167 Z" /><glyph glyph-name="" unicode="&#x5448;" d="M0 -117 l0 84 l417 0 l0 166 l-250 0 l0 84 l250 0 l0 83 l-334 0 l0 83 l750 0 l0 -83 l-333 0 l0 -83 l250 0 l0 -84 l-250 0 l0 -166 l417 0 l0 -84 l-917 0 ZM750 467 l-583 0 l0 333 l583 0 l0 -333 ZM250 550 l417 0 l0 167 l-417 0 l0 -167 Z" /><glyph glyph-name="" unicode="&#x544a;" d="M833 -117 l-666 0 l0 334 l666 0 l0 -334 ZM250 -33 l500 0 l0 166 l-500 0 l0 -166 ZM917 300 l-917 0 l0 167 l83 0 l0 -84 l417 0 l0 167 l-333 0 l0 -83 l-84 0 l0 83 l84 0 l0 250 l83 0 l0 -167 l250 0 l0 250 l83 0 l0 -250 l250 0 l0 -83 l-250 0 l0 -167 l334 0 l0 -83 Z" /><glyph glyph-name="" unicode="&#x5451;" d="M0 133 l0 84 l167 0 l0 83 l83 0 l0 83 l83 0 l0 -83 l334 0 l0 83 l83 0 l0 -83 l83 0 l0 -83 l84 0 l0 -84 l-84 0 l0 84 l-83 0 l0 -334 l-583 0 l0 250 l-167 0 ZM0 467 l0 83 l417 0 l0 83 l-334 0 l0 84 l417 0 l0 -167 l417 0 l0 -83 l-250 0 l0 -84 l-84 0 l0 84 l-166 0 l0 -84 l-84 0 l0 84 l-333 0 ZM250 -33 l417 0 l0 250 l-417 0 l0 -250 ZM833 717 l-333 0 l0 83 l333 0 l0 -83 Z" /><glyph glyph-name="" unicode="&#x5468;" d="M750 -117 l0 84 l83 0 l0 750 l-333 0 l0 -167 l167 0 l0 -83 l-167 0 l0 -84 l250 0 l0 -83 l-500 0 l0 83 l167 0 l0 84 l-167 0 l0 83 l167 0 l0 167 l-250 0 l0 -667 l-84 0 l0 -167 l-83 0 l0 167 l83 0 l0 750 l834 0 l0 -917 l-167 0 ZM667 -33 l-417 0 l0 250 l417 0 l0 -250 ZM333 50 l250 0 l0 83 l-250 0 l0 -83 Z" /><glyph glyph-name="" unicode="&#x5473;" d="M333 633 l0 84 l250 0 l0 166 l84 0 l0 -166 l250 0 l0 -84 l-250 0 l0 -166 l250 0 l0 -84 l-250 0 l0 -166 l83 0 l0 -84 l83 0 l0 -83 l84 0 l0 -83 l-84 0 l0 83 l-83 0 l0 83 l-83 0 l0 -250 l-84 0 l0 250 l-83 0 l0 -83 l-83 0 l0 -83 l-167 0 l0 83 l167 0 l0 83 l83 0 l0 84 l83 0 l0 166 l-333 0 l0 -333 l-250 0 l0 667 l250 0 l0 -250 l333 0 l0 166 l-250 0 ZM167 133 l0 500 l-84 0 l0 -500 l84 0 Z" /><glyph glyph-name="" unicode="&#x547c;" d="M417 -117 l0 84 l166 0 l0 250 l-333 0 l0 -250 l-250 0 l0 750 l250 0 l0 -417 l333 0 l0 333 l-250 0 l0 84 l334 0 l0 -417 l250 0 l0 -83 l-250 0 l0 -334 l-250 0 ZM750 383 l0 84 l83 0 l0 -84 l-83 0 ZM333 467 l0 83 l84 0 l0 -83 l83 0 l0 -84 l-83 0 l0 84 l-84 0 ZM167 50 l0 583 l-84 0 l0 -583 l84 0 ZM833 467 l0 83 l84 0 l0 -83 l-84 0 ZM917 717 l-250 0 l0 83 l250 0 l0 -83 Z" /><glyph glyph-name="" unicode="&#x547d;" d="M667 -33 l0 83 l166 0 l0 250 l-250 0 l0 -417 l-83 0 l0 500 l417 0 l0 -416 l-250 0 ZM0 383 l0 84 l83 0 l0 -84 l334 0 l0 -416 l-334 0 l0 416 l-83 0 ZM167 50 l166 0 l0 250 l-166 0 l0 -250 ZM750 467 l-667 0 l0 83 l84 0 l0 83 l83 0 l0 -83 l500 0 l0 -83 ZM833 550 l84 0 l0 -83 l-84 0 l0 83 ZM833 550 l-83 0 l0 83 l83 0 l0 -83 ZM750 633 l-83 0 l0 84 l83 0 l0 -84 ZM250 633 l0 84 l83 0 l0 -84 l-83 0 ZM667 717 l-334 0 l0 83 l334 0 l0 -83 Z" /><glyph glyph-name="" unicode="&#x54c1;" d="M917 -117 l-417 0 l0 417 l417 0 l0 -417 ZM583 -33 l250 0 l0 250 l-250 0 l0 -250 ZM417 -117 l-417 0 l0 417 l417 0 l0 -417 ZM83 -33 l250 0 l0 250 l-250 0 l0 -250 ZM667 383 l-417 0 l0 417 l417 0 l0 -417 ZM333 467 l250 0 l0 250 l-250 0 l0 -250 Z" /><glyph glyph-name="" unicode="&#x54e1;" d="M0 -117 l0 84 l167 0 l0 -84 l-167 0 ZM917 -117 l-167 0 l0 84 l167 0 l0 -84 ZM750 -33 l-83 0 l0 83 l-417 0 l0 -83 l-83 0 l0 83 l-84 0 l0 417 l750 0 l0 -417 l-83 0 l0 -83 ZM167 133 l583 0 l0 84 l-583 0 l0 -84 ZM167 300 l583 0 l0 83 l-583 0 l0 -83 ZM833 550 l-750 0 l0 250 l750 0 l0 -250 ZM167 633 l583 0 l0 84 l-583 0 l0 -84 Z" /><glyph glyph-name="" unicode="&#x5531;" d="M917 -117 l-667 0 l0 84 l-250 0 l0 750 l333 0 l0 -417 l584 0 l0 -417 ZM333 -33 l500 0 l0 83 l-500 0 l0 -83 ZM83 50 l167 0 l0 583 l-167 0 l0 -583 ZM333 133 l500 0 l0 84 l-500 0 l0 -84 ZM833 383 l-416 0 l0 417 l416 0 l0 -417 ZM500 467 l250 0 l0 83 l-250 0 l0 -83 ZM500 633 l250 0 l0 84 l-250 0 l0 -84 Z" /><glyph glyph-name="" unicode="&#x5546;" d="M750 -117 l0 84 l83 0 l0 166 l-166 0 l0 -250 l-417 0 l0 334 l333 0 l0 166 l-250 0 l0 -83 l-83 0 l0 -83 l-83 0 l0 -84 l-84 0 l0 -250 l-83 0 l0 584 l250 0 l0 166 l-250 0 l0 84 l417 0 l0 166 l83 0 l0 -166 l417 0 l0 -84 l-250 0 l0 -166 l250 0 l0 -584 l-167 0 ZM333 -33 l250 0 l0 166 l-250 0 l0 -166 ZM667 217 l166 0 l0 166 l-166 0 l0 -166 ZM167 217 l0 83 l83 0 l0 83 l-167 0 l0 -166 l84 0 ZM333 467 l250 0 l0 166 l-250 0 l0 -166 Z" /><glyph glyph-name="" unicode="&#x554f;" d="M750 -117 l0 84 l83 0 l0 416 l-333 0 l0 417 l417 0 l0 -917 l-167 0 ZM667 -117 l-417 0 l0 334 l417 0 l0 -334 ZM333 -33 l250 0 l0 166 l-250 0 l0 -166 ZM83 383 l0 -500 l-83 0 l0 917 l417 0 l0 -417 l-334 0 ZM583 467 l250 0 l0 83 l-250 0 l0 -83 ZM83 467 l250 0 l0 83 l-250 0 l0 -83 ZM583 633 l250 0 l0 84 l-250 0 l0 -84 ZM83 633 l250 0 l0 84 l-250 0 l0 -84 Z" /><glyph glyph-name="" unicode="&#x55a9;" d="M917 50 l0 -167 l-84 0 l0 167 l84 0 ZM750 50 l0 -167 l-83 0 l0 167 l83 0 ZM583 50 l0 -167 l-83 0 l0 84 l-83 0 l0 -84 l-84 0 l0 500 l250 0 l0 -166 l84 0 l0 -167 l-84 0 ZM250 -33 l-250 0 l0 750 l250 0 l0 -167 l83 0 l0 -83 l-83 0 l0 -500 ZM833 50 l-83 0 l0 167 l83 0 l0 -167 ZM500 50 l0 83 l-83 0 l0 -83 l83 0 ZM167 50 l0 583 l-84 0 l0 -583 l84 0 ZM833 217 l0 166 l84 0 l0 -166 l-84 0 ZM750 217 l-83 0 l0 166 l83 0 l0 -166 ZM500 217 l0 83 l-83 0 l0 -83 l83 0 ZM917 467 l-500 0 l0 83 l416 0 l0 83 l84 0 l0 -166 ZM417 550 l-84 0 l0 83 l84 0 l0 -83 ZM833 633 l-83 0 l0 84 l83 0 l0 -84 ZM417 633 l0 84 l-167 0 l0 83 l500 0 l0 -83 l-250 0 l0 -84 l-83 0 Z" /><glyph glyph-name="" unicode="&#x55b0;" d="M917 -117 l-167 0 l0 84 l167 0 l0 -84 ZM583 -117 l-250 0 l0 667 l250 0 l0 83 l84 0 l0 -83 l166 0 l0 -417 l84 0 l0 -83 l-167 0 l0 -83 l-83 0 l0 83 l83 0 l0 83 l-83 0 l0 -83 l-84 0 l0 83 l-166 0 l0 -166 l166 0 l0 -84 ZM250 -33 l-250 0 l0 750 l250 0 l0 -84 l83 0 l0 -83 l-83 0 l0 -583 ZM167 50 l0 583 l-84 0 l0 -583 l84 0 ZM417 217 l333 0 l0 83 l-333 0 l0 -83 ZM417 383 l333 0 l0 84 l-333 0 l0 -84 ZM833 550 l0 83 l84 0 l0 -83 l-84 0 ZM833 633 l-83 0 l0 84 l83 0 l0 -84 ZM333 633 l0 84 l84 0 l0 -84 l-84 0 ZM750 717 l-333 0 l0 83 l333 0 l0 -83 Z" /><glyph glyph-name="" unicode="&#x5609;" d="M250 -117 l0 84 l83 0 l0 166 l-83 0 l0 -83 l-83 0 l0 -83 l-84 0 l0 -84 l-83 0 l0 84 l83 0 l0 83 l84 0 l0 83 l-167 0 l0 84 l250 0 l0 83 l-83 0 l0 167 l-84 0 l0 83 l334 0 l0 83 l-417 0 l0 84 l417 0 l0 166 l83 0 l0 -166 l417 0 l0 -84 l-417 0 l0 -83 l333 0 l0 -83 l-83 0 l0 -167 l-83 0 l0 -83 l250 0 l0 -84 l-84 0 l0 -250 l-333 0 l0 250 l-83 0 l0 -250 l-167 0 ZM583 -33 l167 0 l0 166 l-167 0 l0 -166 ZM333 217 l250 0 l0 83 l-250 0 l0 -83 ZM250 383 l417 0 l0 84 l-417 0 l0 -84 Z" /><glyph glyph-name="" unicode="&#x5634;" d="M750 -117 l0 84 l83 0 l0 83 l-416 0 l0 -83 l-84 0 l0 -84 l-166 0 l0 84 l-167 0 l0 750 l250 0 l0 -250 l83 0 l0 333 l84 0 l0 -333 l83 0 l0 416 l83 0 l0 -166 l84 0 l0 166 l83 0 l0 -166 l167 0 l0 -84 l-167 0 l0 -166 l83 0 l0 83 l84 0 l0 -167 l-167 0 l0 -83 l167 0 l0 -417 l-167 0 ZM333 -33 l0 250 l-83 0 l0 -250 l83 0 ZM667 133 l166 0 l0 84 l-166 0 l0 -84 ZM417 133 l166 0 l0 84 l-166 0 l0 -84 ZM167 50 l0 583 l-84 0 l0 -583 l84 0 ZM417 300 l250 0 l0 83 l-250 0 l0 -83 ZM333 300 l0 83 l-83 0 l0 -83 l83 0 ZM667 467 l0 166 l-84 0 l0 -166 l84 0 Z" /><glyph glyph-name="" unicode="&#x56a2;" d="M0 -33 l0 83 l250 0 l0 -83 l250 0 l0 -84 l-333 0 l0 84 l-167 0 ZM0 133 l0 84 l250 0 l0 83 l-83 0 l0 83 l83 0 l0 84 l-167 0 l0 -84 l-83 0 l0 167 l167 0 l0 83 l-167 0 l0 84 l417 0 l0 166 l83 0 l0 -166 l417 0 l0 -84 l-167 0 l0 -83 l167 0 l0 -167 l-84 0 l0 84 l-166 0 l0 -84 l83 0 l0 -83 l-83 0 l0 -83 l250 0 l0 -84 l-84 0 l0 -83 l-83 0 l0 -83 l167 0 l0 -84 l-167 0 l0 84 l-167 0 l0 83 l167 0 l0 83 l-167 0 l0 -83 l-83 0 l0 83 l-167 0 l0 -83 l-83 0 l0 83 l-250 0 ZM333 217 l250 0 l0 83 l-250 0 l0 -83 ZM333 383 l250 0 l0 84 l-250 0 l0 -84 ZM500 550 l167 0 l0 83 l-167 0 l0 -83 ZM250 550 l167 0 l0 83 l-167 0 l0 -83 Z" /><glyph glyph-name="" unicode="&#x56db;" d="M917 717 l0 -834 l-84 0 l0 84 l-750 0 l0 -84 l-83 0 l0 834 l917 0 ZM83 50 l750 0 l0 167 l-250 0 l0 83 l250 0 l0 333 l-250 0 l0 -333 l-83 0 l0 333 l-167 0 l0 -250 l-83 0 l0 -83 l-83 0 l0 -83 l-84 0 l0 -167 ZM167 300 l0 83 l83 0 l0 250 l-167 0 l0 -333 l84 0 Z" /><glyph glyph-name="" unicode="&#x56e0;" d="M167 50 l0 83 l83 0 l0 -83 l-83 0 ZM167 467 l0 83 l250 0 l0 167 l-334 0 l0 -750 l750 0 l0 750 l-333 0 l0 -167 l250 0 l0 -83 l-250 0 l0 -167 l83 0 l0 -83 l84 0 l0 -84 l83 0 l0 -83 l-83 0 l0 83 l-84 0 l0 84 l-83 0 l0 83 l-83 0 l0 -83 l-84 0 l0 -84 l-83 0 l0 84 l83 0 l0 83 l84 0 l0 167 l-250 0 ZM917 -117 l-917 0 l0 917 l917 0 l0 -917 Z" /><glyph glyph-name="" unicode="&#x56e3;" d="M500 50 l0 83 l83 0 l0 334 l-416 0 l0 83 l416 0 l0 167 l-500 0 l0 -750 l750 0 l0 750 l-166 0 l0 -167 l83 0 l0 -83 l-83 0 l0 -417 l-167 0 ZM250 300 l0 83 l83 0 l0 -83 l84 0 l0 -83 l-84 0 l0 83 l-83 0 ZM917 -117 l-917 0 l0 917 l917 0 l0 -917 Z" /><glyph glyph-name="" unicode="&#x56f0;" d="M167 133 l0 84 l83 0 l0 -84 l-83 0 ZM167 467 l0 83 l250 0 l0 167 l-334 0 l0 -750 l750 0 l0 750 l-333 0 l0 -167 l250 0 l0 -83 l-250 0 l0 -84 l83 0 l0 -83 l84 0 l0 -83 l83 0 l0 -84 l-83 0 l0 84 l-84 0 l0 83 l-83 0 l0 -250 l-83 0 l0 250 l-84 0 l0 -83 l-83 0 l0 83 l83 0 l0 83 l84 0 l0 84 l-250 0 ZM917 -117 l-917 0 l0 917 l917 0 l0 -917 Z" /><glyph glyph-name="" unicode="&#x56f2;" d="M167 217 l0 83 l166 0 l0 167 l-166 0 l0 83 l166 0 l0 83 l84 0 l0 -83 l166 0 l0 83 l84 0 l0 -83 l83 0 l0 -83 l-83 0 l0 -167 l83 0 l0 -83 l-83 0 l0 -167 l-84 0 l0 167 l-250 0 l0 -167 l-83 0 l0 167 l-83 0 ZM917 -117 l-917 0 l0 917 l917 0 l0 -917 ZM83 -33 l750 0 l0 750 l-750 0 l0 -750 ZM417 300 l166 0 l0 167 l-166 0 l0 -167 Z" /><glyph glyph-name="" unicode="&#x56f3;" d="M167 50 l0 83 l166 0 l0 -83 l-166 0 ZM417 300 l0 83 l83 0 l0 -83 l83 0 l0 -83 l84 0 l0 -84 l83 0 l0 -83 l-83 0 l0 83 l-84 0 l0 84 l-83 0 l0 -84 l-167 0 l0 84 l167 0 l0 83 l-83 0 ZM167 467 l0 83 l83 0 l0 -83 l83 0 l0 -84 l-83 0 l0 84 l-83 0 ZM917 -117 l-917 0 l0 917 l917 0 l0 -917 ZM83 -33 l750 0 l0 750 l-416 0 l0 -84 l83 0 l0 -83 l-83 0 l0 83 l-84 0 l0 84 l-250 0 l0 -750 ZM583 300 l0 167 l84 0 l0 -167 l-84 0 ZM667 467 l0 166 l83 0 l0 -166 l-83 0 Z" /><glyph glyph-name="" unicode="&#x56fd;" d="M167 50 l0 83 l250 0 l0 167 l-167 0 l0 83 l167 0 l0 167 l-250 0 l0 83 l583 0 l0 -83 l-250 0 l0 -167 l167 0 l0 -83 l83 0 l0 -83 l-83 0 l0 83 l-167 0 l0 -167 l250 0 l0 -83 l-583 0 ZM917 -117 l-917 0 l0 917 l917 0 l0 -917 ZM83 -33 l750 0 l0 750 l-750 0 l0 -750 Z" /><glyph glyph-name="" unicode="&#x570f;" d="M167 133 l0 84 l83 0 l0 -84 l-83 0 ZM167 467 l0 83 l83 0 l0 167 l-167 0 l0 -334 l250 0 l0 84 l-166 0 ZM917 -117 l-917 0 l0 917 l917 0 l0 -917 ZM667 -33 l166 0 l0 333 l-166 0 l0 -83 l83 0 l0 -84 l-83 0 l0 84 l-84 0 l0 -84 l-166 0 l0 -166 l166 0 l0 83 l84 0 l0 -83 ZM83 -33 l250 0 l0 250 l167 0 l0 83 l-167 0 l0 -83 l-83 0 l0 83 l-167 0 l0 -333 ZM583 383 l250 0 l0 334 l-83 0 l0 -84 l-83 0 l0 -83 l83 0 l0 -83 l-167 0 l0 -84 ZM500 383 l0 84 l-83 0 l0 -84 l83 0 ZM583 550 l0 83 l84 0 l0 84 l-167 0 l0 -167 l83 0 ZM417 550 l0 167 l-84 0 l0 -167 l84 0 Z" /><glyph glyph-name="" unicode="&#x5727;" d="M250 -117 l0 84 l333 0 l0 333 l-333 0 l0 83 l333 0 l0 250 l84 0 l0 -250 l250 0 l0 -83 l-250 0 l0 -333 l250 0 l0 -84 l-667 0 ZM83 133 l0 -166 l-83 0 l0 166 l83 0 ZM83 133 l0 667 l834 0 l0 -83 l-750 0 l0 -584 l-84 0 Z" /><glyph glyph-name="" unicode="&#x5728;" d="M333 -117 l0 84 l250 0 l0 333 l-250 0 l0 83 l250 0 l0 250 l-250 0 l0 -166 l-83 0 l0 -584 l-83 0 l0 334 l-84 0 l0 -84 l-83 0 l0 84 l83 0 l0 83 l84 0 l0 167 l83 0 l0 166 l-250 0 l0 84 l333 0 l0 166 l84 0 l0 -166 l500 0 l0 -84 l-250 0 l0 -250 l250 0 l0 -83 l-250 0 l0 -333 l250 0 l0 -84 l-584 0 Z" /><glyph glyph-name="" unicode="&#x5730;" d="M0 -33 l0 83 l167 0 l0 -83 l-167 0 ZM750 217 l0 83 l83 0 l0 333 l-83 0 l0 -83 l-83 0 l0 -417 l-84 0 l0 334 l-83 0 l0 -500 l333 0 l0 83 l84 0 l0 -167 l-500 0 l0 500 l-84 0 l0 84 l84 0 l0 250 l83 0 l0 -167 l83 0 l0 333 l84 0 l0 -250 l83 0 l0 84 l167 0 l0 -500 l-167 0 ZM0 467 l0 83 l167 0 l0 250 l83 0 l0 -250 l83 0 l0 -83 l-83 0 l0 -334 l83 0 l0 -83 l-166 0 l0 417 l-167 0 Z" /><glyph glyph-name="" unicode="&#x574a;" d="M583 -117 l0 84 l167 0 l0 -84 l-167 0 ZM0 -33 l0 83 l83 0 l0 417 l-83 0 l0 83 l83 0 l0 250 l84 0 l0 -250 l83 0 l0 -83 l-83 0 l0 -417 l83 0 l0 -83 l-250 0 ZM250 633 l0 84 l333 0 l0 166 l84 0 l0 -166 l250 0 l0 -84 l-334 0 l0 -166 l334 0 l0 -417 l-84 0 l0 -83 l-83 0 l0 83 l83 0 l0 333 l-333 0 l0 -166 l-83 0 l0 -167 l-84 0 l0 167 l84 0 l0 166 l83 0 l0 250 l-250 0 Z" /><glyph glyph-name="" unicode="&#x57a3;" d="M0 -33 l0 83 l83 0 l0 417 l-83 0 l0 83 l83 0 l0 250 l84 0 l0 -250 l83 0 l0 -83 l-83 0 l0 -417 l83 0 l0 -83 l667 0 l0 -84 l-667 0 l0 84 l-250 0 ZM250 717 l0 83 l667 0 l0 -83 l-667 0 ZM833 50 l-500 0 l0 583 l500 0 l0 -583 ZM417 133 l333 0 l0 167 l-333 0 l0 -167 ZM417 383 l333 0 l0 167 l-333 0 l0 -167 Z" /><glyph glyph-name="" unicode="&#x57f7;" d="M0 50 l0 83 l167 0 l0 84 l-167 0 l0 83 l83 0 l0 167 l-83 0 l0 83 l167 0 l0 83 l-167 0 l0 84 l167 0 l0 166 l83 0 l0 -166 l167 0 l0 -84 l166 0 l0 250 l84 0 l0 -250 l166 0 l0 -583 l84 0 l0 -167 l-84 0 l0 167 l-83 0 l0 83 l-83 0 l0 84 l83 0 l0 333 l-83 0 l0 -333 l-84 0 l0 -167 l-83 0 l0 -167 l-83 0 l0 167 l83 0 l0 167 l83 0 l0 83 l-83 0 l0 83 l83 0 l0 167 l-166 0 l0 -83 l83 0 l0 -84 l-83 0 l0 84 l-84 0 l0 -167 l84 0 l0 -83 l-167 0 l0 -84 l167 0 l0 -83 l-167 0 l0 -167 l-83 0 l0 167 l-167 0 ZM250 300 l0 167 l-83 0 l0 -167 l83 0 ZM250 550 l167 0 l0 83 l-167 0 l0 -83 Z" /><glyph glyph-name="" unicode="&#x57fa;" d="M83 -117 l0 84 l334 0 l0 83 l-167 0 l0 83 l167 0 l0 84 l83 0 l0 -84 l167 0 l0 -83 l-167 0 l0 -83 l333 0 l0 -84 l-750 0 ZM0 50 l0 83 l167 0 l0 -83 l-167 0 ZM0 300 l0 83 l250 0 l0 250 l-167 0 l0 84 l167 0 l0 166 l83 0 l0 -166 l250 0 l0 166 l84 0 l0 -166 l166 0 l0 -84 l-166 0 l0 -250 l250 0 l0 -83 l-250 0 l0 -83 l83 0 l0 -84 l167 0 l0 -83 l-167 0 l0 83 l-83 0 l0 84 l-84 0 l0 83 l-250 0 l0 -83 l-83 0 l0 -84 l-83 0 l0 84 l83 0 l0 83 l-250 0 ZM333 383 l250 0 l0 84 l-250 0 l0 -84 ZM333 550 l250 0 l0 83 l-250 0 l0 -83 Z" /><glyph glyph-name="" unicode="&#x5800;" d="M0 -33 l0 83 l83 0 l0 417 l-83 0 l0 83 l83 0 l0 250 l84 0 l0 -250 l83 0 l0 -83 l-83 0 l0 -417 l83 0 l0 83 l83 0 l0 -166 l-333 0 ZM917 -117 l-500 0 l0 250 l83 0 l0 -166 l167 0 l0 250 l-167 0 l0 250 l83 0 l0 -167 l84 0 l0 250 l-250 0 l0 -417 l-84 0 l0 667 l584 0 l0 -250 l-167 0 l0 -250 l83 0 l0 167 l84 0 l0 -250 l-167 0 l0 -250 l83 0 l0 166 l84 0 l0 -250 ZM417 633 l416 0 l0 84 l-416 0 l0 -84 Z" /><glyph glyph-name="" unicode="&#x5802;" d="M0 -117 l0 84 l417 0 l0 83 l-250 0 l0 83 l250 0 l0 84 l-250 0 l0 250 l583 0 l0 -250 l-250 0 l0 -84 l250 0 l0 -83 l-250 0 l0 -83 l417 0 l0 -84 l-917 0 ZM83 717 l0 83 l84 0 l0 -83 l83 0 l0 -84 l333 0 l0 84 l84 0 l0 -84 l250 0 l0 -250 l-84 0 l0 167 l-750 0 l0 -167 l-83 0 l0 250 l167 0 l0 84 l-84 0 ZM333 800 l0 83 l84 0 l0 -83 l83 0 l0 -83 l-83 0 l0 83 l-84 0 ZM250 300 l417 0 l0 83 l-417 0 l0 -83 ZM667 717 l0 83 l83 0 l0 -83 l-83 0 ZM750 800 l0 83 l83 0 l0 -83 l-83 0 Z" /><glyph glyph-name="" unicode="&#x5805;" d="M0 -117 l0 84 l417 0 l0 83 l-250 0 l0 83 l250 0 l0 84 l-417 0 l0 583 l417 0 l0 -83 l-167 0 l0 -84 l167 0 l0 -250 l-167 0 l0 -83 l333 0 l0 -83 l-83 0 l0 -84 l250 0 l0 -83 l-250 0 l0 -83 l417 0 l0 -84 l-917 0 ZM500 717 l0 83 l417 0 l0 -250 l-84 0 l0 -83 l-83 0 l0 -167 l167 0 l0 -83 l-167 0 l0 83 l-167 0 l0 83 l84 0 l0 84 l83 0 l0 83 l83 0 l0 167 l-333 0 ZM167 300 l0 83 l-84 0 l0 -83 l84 0 ZM83 467 l250 0 l0 83 l-250 0 l0 -83 ZM667 467 l-84 0 l0 166 l84 0 l0 -166 ZM167 633 l0 84 l-84 0 l0 -84 l84 0 Z" /><glyph glyph-name="" unicode="&#x5815;" d="M0 -117 l0 84 l417 0 l0 83 l-250 0 l0 83 l250 0 l0 84 l83 0 l0 -84 l250 0 l0 -83 l-250 0 l0 -83 l417 0 l0 -84 l-917 0 ZM750 217 l0 83 l83 0 l0 83 l-250 0 l0 -166 l-83 0 l0 250 l-83 0 l0 83 l83 0 l0 83 l83 0 l0 84 l-166 0 l0 83 l166 0 l0 83 l84 0 l0 -83 l250 0 l0 -83 l-250 0 l0 -84 l250 0 l0 -416 l-167 0 ZM167 550 l0 83 l83 0 l0 -83 l83 0 l0 -167 l-83 0 l0 -83 l-167 0 l0 -83 l-83 0 l0 583 l333 0 l0 -167 l-83 0 l0 84 l-167 0 l0 -334 l167 0 l0 167 l-83 0 ZM583 467 l250 0 l0 83 l-250 0 l0 -83 Z" /><glyph glyph-name="" unicode="&#x5834;" d="M667 -117 l0 84 l166 0 l0 -84 l-166 0 ZM417 -117 l0 84 l83 0 l0 -84 l-83 0 ZM0 -33 l0 83 l83 0 l0 417 l-83 0 l0 83 l83 0 l0 250 l84 0 l0 -250 l83 0 l0 -83 l-83 0 l0 -417 l166 0 l0 -83 l-333 0 ZM250 217 l0 83 l167 0 l0 83 l-84 0 l0 417 l500 0 l0 -333 l84 0 l0 -84 l-417 0 l0 -83 l417 0 l0 -333 l-84 0 l0 250 l-83 0 l0 -84 l-83 0 l0 -83 l-84 0 l0 -83 l-83 0 l0 83 l83 0 l0 83 l84 0 l0 84 l-167 0 l0 -84 l-83 0 l0 -83 l-84 0 l0 83 l84 0 l0 84 l-167 0 ZM417 467 l333 0 l0 83 l-333 0 l0 -83 ZM417 633 l333 0 l0 84 l-333 0 l0 -84 Z" /><glyph glyph-name="" unicode="&#x5897;" d="M0 -33 l0 83 l83 0 l0 417 l-83 0 l0 83 l83 0 l0 250 l84 0 l0 -250 l83 0 l0 167 l167 0 l0 166 l83 0 l0 -166 l167 0 l0 83 l83 0 l0 -83 l167 0 l0 -417 l-84 0 l0 -417 l-500 0 l0 417 l-83 0 l0 167 l-83 0 l0 -417 l83 0 l0 -83 l-250 0 ZM417 -33 l333 0 l0 166 l-333 0 l0 -166 ZM417 217 l333 0 l0 83 l-333 0 l0 -83 ZM667 383 l166 0 l0 84 l-166 0 l0 -84 ZM333 383 l250 0 l0 84 l-250 0 l0 -84 ZM667 550 l166 0 l0 83 l-166 0 l0 -83 ZM333 550 l250 0 l0 83 l-250 0 l0 -83 ZM750 800 l0 83 l83 0 l0 -83 l-83 0 Z" /><glyph glyph-name="" unicode="&#x58c1;" d="M0 -117 l0 84 l417 0 l0 83 l-250 0 l0 83 l250 0 l0 84 l83 0 l0 -84 l333 0 l0 -83 l-333 0 l0 -83 l417 0 l0 -84 l-917 0 ZM417 217 l-334 0 l0 -84 l-83 0 l0 667 l417 0 l0 -83 l250 0 l0 166 l83 0 l0 -166 l167 0 l0 -84 l-84 0 l0 -83 l84 0 l0 -83 l-167 0 l0 -84 l167 0 l0 -83 l-167 0 l0 -83 l-83 0 l0 83 l-250 0 l0 -83 ZM83 300 l250 0 l0 83 l-250 0 l0 -83 ZM417 383 l250 0 l0 84 l-250 0 l0 -84 ZM83 467 l334 0 l0 83 l83 0 l0 83 l-83 0 l0 -83 l-334 0 l0 -83 ZM583 550 l167 0 l0 83 l-167 0 l0 -83 ZM83 633 l250 0 l0 84 l-250 0 l0 -84 Z" /><glyph glyph-name="" unicode="&#x58c7;" d="M0 -33 l0 83 l83 0 l0 417 l-83 0 l0 83 l83 0 l0 250 l84 0 l0 -250 l83 0 l0 -83 l-83 0 l0 -417 l83 0 l0 -83 l167 0 l0 333 l-84 0 l0 333 l-83 0 l0 84 l333 0 l0 166 l84 0 l0 -166 l250 0 l0 -417 l-84 0 l0 -333 l84 0 l0 -84 l-667 0 l0 84 l-250 0 ZM500 -33 l250 0 l0 166 l-250 0 l0 -166 ZM500 217 l250 0 l0 83 l-250 0 l0 -83 ZM417 383 l416 0 l0 250 l-83 0 l0 -166 l-250 0 l0 166 l-83 0 l0 -250 ZM667 550 l0 83 l-84 0 l0 -83 l84 0 Z" /><glyph glyph-name="" unicode="&#x58ca;" d="M0 -33 l0 83 l83 0 l0 417 l-83 0 l0 83 l83 0 l0 250 l84 0 l0 -250 l83 0 l0 -83 l-83 0 l0 -417 l83 0 l0 -83 l-250 0 ZM250 217 l0 83 l250 0 l0 83 l-167 0 l0 250 l-83 0 l0 84 l333 0 l0 166 l84 0 l0 -166 l250 0 l0 -334 l-334 0 l0 -83 l334 0 l0 -167 l-84 0 l0 -83 l-83 0 l0 -83 l167 0 l0 -84 l-167 0 l0 84 l-83 0 l0 83 l83 0 l0 83 l83 0 l0 84 l-166 0 l0 -167 l-84 0 l0 167 l-83 0 l0 -84 l-83 0 l0 -166 l166 0 l0 -84 l-250 0 l0 167 l-83 0 l0 83 l167 0 l0 84 l-167 0 ZM833 467 l0 166 l-83 0 l0 -166 l83 0 ZM667 467 l0 166 l-84 0 l0 -166 l84 0 ZM500 467 l0 166 l-83 0 l0 -166 l83 0 Z" /><glyph glyph-name="" unicode="&#x58f0;" d="M83 467 l0 83 l334 0 l0 83 l-417 0 l0 84 l417 0 l0 166 l83 0 l0 -166 l417 0 l0 -84 l-417 0 l0 -83 l333 0 l0 -83 l-750 0 ZM83 50 l0 -167 l-83 0 l0 167 l83 0 ZM833 50 l-750 0 l0 333 l750 0 l0 -333 ZM500 133 l250 0 l0 167 l-250 0 l0 -167 ZM167 133 l250 0 l0 167 l-250 0 l0 -167 Z" /><glyph glyph-name="" unicode="&#x58f2;" d="M0 -117 l0 84 l167 0 l0 -84 l-167 0 ZM83 467 l0 83 l334 0 l0 83 l-417 0 l0 84 l417 0 l0 166 l83 0 l0 -166 l417 0 l0 -84 l-417 0 l0 -83 l333 0 l0 -83 l-750 0 ZM917 -117 l-417 0 l0 334 l83 0 l0 -250 l250 0 l0 83 l84 0 l0 -167 ZM167 -33 l0 83 l83 0 l0 -83 l-83 0 ZM250 50 l0 167 l83 0 l0 -167 l-83 0 ZM917 383 l0 -166 l-84 0 l0 83 l-750 0 l0 -83 l-83 0 l0 166 l917 0 Z" /><glyph glyph-name="" unicode="&#x5909;" d="M0 -117 l0 84 l333 0 l0 -84 l-333 0 ZM83 133 l0 84 l167 0 l0 -84 l-167 0 ZM0 383 l0 84 l83 0 l0 -84 l-83 0 ZM750 467 l0 83 l83 0 l0 -83 l84 0 l0 -84 l-84 0 l0 84 l-83 0 ZM0 633 l0 84 l417 0 l0 166 l83 0 l0 -166 l417 0 l0 -84 l-250 0 l0 -250 l-84 0 l0 250 l-166 0 l0 -250 l-84 0 l0 -83 l417 0 l0 -167 l-83 0 l0 -83 l-84 0 l0 -83 l334 0 l0 -84 l-334 0 l0 84 l-250 0 l0 166 l84 0 l0 -83 l166 0 l0 83 l84 0 l0 84 l-417 0 l0 166 l83 0 l0 250 l-333 0 ZM83 467 l0 83 l84 0 l0 -83 l-84 0 Z" /><glyph glyph-name="" unicode="&#x5916;" d="M0 -117 l0 84 l167 0 l0 -84 l-167 0 ZM667 300 l0 -417 l-84 0 l0 500 l-83 0 l0 84 l83 0 l0 416 l84 0 l0 -500 l83 0 l0 -83 l83 0 l0 -83 l84 0 l0 -84 l-84 0 l0 84 l-83 0 l0 83 l-83 0 ZM167 -33 l0 83 l83 0 l0 -83 l-83 0 ZM250 50 l0 167 l83 0 l0 -167 l-83 0 ZM333 217 l0 83 l-83 0 l0 83 l83 0 l0 250 l-166 0 l0 -166 l83 0 l0 -84 l-83 0 l0 84 l-84 0 l0 -167 l-83 0 l0 167 l83 0 l0 333 l84 0 l0 -83 l250 0 l0 -167 l83 0 l0 -83 l-83 0 l0 -250 l-84 0 Z" /><glyph glyph-name="" unicode="&#x591a;" d="M167 -117 l0 84 l416 0 l0 -84 l-416 0 ZM333 133 l0 84 l167 0 l0 -84 l83 0 l0 -83 l167 0 l0 -83 l-167 0 l0 83 l-83 0 l0 83 l-167 0 ZM0 217 l0 83 l250 0 l0 -83 l-250 0 ZM83 550 l0 83 l250 0 l0 -83 l84 0 l0 -83 l166 0 l0 -84 l334 0 l0 -250 l-84 0 l0 -83 l-83 0 l0 83 l83 0 l0 167 l-250 0 l0 -83 l-83 0 l0 83 l83 0 l0 83 l-166 0 l0 -83 l-167 0 l0 83 l167 0 l0 84 l-84 0 l0 83 l-250 0 ZM583 467 l0 83 l84 0 l0 -83 l-84 0 ZM667 550 l0 83 l-334 0 l0 84 l84 0 l0 166 l83 0 l0 -166 l250 0 l0 -167 l-83 0 Z" /><glyph glyph-name="" unicode="&#x5922;" d="M83 -117 l0 84 l334 0 l0 -84 l-334 0 ZM167 133 l0 84 l166 0 l0 83 l-250 0 l0 -167 l-83 0 l0 250 l83 0 l0 167 l167 0 l0 83 l-250 0 l0 84 l250 0 l0 166 l83 0 l0 -166 l250 0 l0 166 l84 0 l0 -166 l250 0 l0 -84 l-250 0 l0 -83 l166 0 l0 -167 l84 0 l0 -250 l-84 0 l0 167 l-416 0 l0 -83 l333 0 l0 -167 l-83 0 l0 -83 l-250 0 l0 83 l250 0 l0 83 l-250 0 l0 -83 l-84 0 l0 83 l-166 0 ZM583 383 l167 0 l0 84 l-167 0 l0 -84 ZM167 383 l166 0 l0 84 l-166 0 l0 -84 ZM500 383 l0 84 l-83 0 l0 -84 l83 0 ZM333 550 l250 0 l0 83 l-250 0 l0 -83 Z" /><glyph glyph-name="" unicode="&#x5927;" d="M0 -117 l0 84 l167 0 l0 -84 l-167 0 ZM0 550 l0 83 l417 0 l0 250 l83 0 l0 -250 l417 0 l0 -83 l-417 0 l0 -250 l83 0 l0 -167 l84 0 l0 -83 l83 0 l0 -83 l167 0 l0 -84 l-167 0 l0 84 l-83 0 l0 83 l-84 0 l0 83 l-83 0 l0 167 l-83 0 l0 -167 l-84 0 l0 -83 l-83 0 l0 -83 l-83 0 l0 83 l83 0 l0 83 l83 0 l0 167 l84 0 l0 250 l-417 0 Z" /><glyph glyph-name="" unicode="&#x5929;" d="M0 -117 l0 84 l167 0 l0 -84 l-167 0 ZM83 383 l0 84 l334 0 l0 250 l-417 0 l0 83 l917 0 l0 -83 l-417 0 l0 -250 l333 0 l0 -84 l-333 0 l0 -166 l83 0 l0 -84 l84 0 l0 -83 l83 0 l0 -83 l167 0 l0 -84 l-167 0 l0 84 l-83 0 l0 83 l-84 0 l0 83 l-83 0 l0 84 l-83 0 l0 -84 l-84 0 l0 -83 l-83 0 l0 -83 l-83 0 l0 83 l83 0 l0 83 l83 0 l0 84 l84 0 l0 166 l-334 0 Z" /><glyph glyph-name="" unicode="&#x592b;" d="M0 -117 l0 84 l167 0 l0 -84 l-167 0 ZM0 300 l0 83 l417 0 l0 167 l-334 0 l0 83 l334 0 l0 250 l83 0 l0 -250 l333 0 l0 -83 l-333 0 l0 -167 l417 0 l0 -83 l-417 0 l0 -83 l83 0 l0 -84 l84 0 l0 -83 l83 0 l0 -83 l167 0 l0 -84 l-167 0 l0 84 l-83 0 l0 83 l-84 0 l0 83 l-83 0 l0 84 l-83 0 l0 -84 l-84 0 l0 -83 l-83 0 l0 -83 l-83 0 l0 83 l83 0 l0 83 l83 0 l0 84 l84 0 l0 83 l-417 0 Z" /><glyph glyph-name="" unicode="&#x5931;" d="M0 -117 l0 84 l167 0 l0 -84 l-167 0 ZM917 -117 l-167 0 l0 84 l167 0 l0 -84 ZM750 -33 l-83 0 l0 83 l83 0 l0 -83 ZM333 -33 l-166 0 l0 83 l166 0 l0 -83 ZM667 50 l-84 0 l0 83 l84 0 l0 -83 ZM333 50 l0 83 l84 0 l0 -83 l-84 0 ZM583 133 l-166 0 l0 167 l-417 0 l0 167 l83 0 l0 -84 l334 0 l0 167 l-250 0 l0 -83 l-84 0 l0 83 l84 0 l0 250 l83 0 l0 -167 l167 0 l0 250 l83 0 l0 -250 l333 0 l0 -83 l-333 0 l0 -167 l417 0 l0 -83 l-417 0 l0 -83 l83 0 l0 -84 Z" /><glyph glyph-name="" unicode="&#x5947;" d="M583 -117 l0 84 l84 0 l0 333 l-667 0 l0 83 l167 0 l0 84 l83 0 l0 -84 l417 0 l0 84 l83 0 l0 -84 l167 0 l0 -83 l-167 0 l0 -417 l-167 0 ZM83 633 l0 84 l334 0 l0 166 l83 0 l0 -166 l333 0 l0 -84 l-250 0 l0 -83 l84 0 l0 -83 l-84 0 l0 83 l-83 0 l0 83 l-83 0 l0 -83 l-84 0 l0 -83 l-83 0 l0 83 l83 0 l0 83 l-250 0 ZM500 -33 l-333 0 l0 250 l333 0 l0 -250 ZM250 50 l167 0 l0 83 l-167 0 l0 -83 Z" /><glyph glyph-name="" unicode="&#x5954;" d="M0 50 l0 83 l250 0 l0 167 l-83 0 l0 83 l250 0 l0 167 l83 0 l0 -167 l250 0 l0 -83 l-83 0 l0 -167 l250 0 l0 -83 l-250 0 l0 -167 l-84 0 l0 167 l-333 0 l0 -167 l-83 0 l0 167 l-167 0 ZM0 383 l0 84 l167 0 l0 -84 l-167 0 ZM0 633 l0 84 l417 0 l0 166 l83 0 l0 -166 l417 0 l0 -84 l-250 0 l0 -83 l83 0 l0 -83 l167 0 l0 -84 l-167 0 l0 84 l-83 0 l0 83 l-84 0 l0 83 l-166 0 l0 -83 l-84 0 l0 -83 l-166 0 l0 83 l166 0 l0 83 l-333 0 ZM333 133 l250 0 l0 167 l-83 0 l0 -83 l-83 0 l0 83 l-84 0 l0 -167 Z" /><glyph glyph-name="" unicode="&#x5965;" d="M0 -117 l0 84 l167 0 l0 -84 l-167 0 ZM0 133 l0 84 l83 0 l0 500 l250 0 l0 83 l84 0 l0 -83 l416 0 l0 -500 l84 0 l0 -84 l-334 0 l0 -83 l167 0 l0 -83 l167 0 l0 -84 l-167 0 l0 84 l-167 0 l0 83 l-83 0 l0 83 l-83 0 l0 -83 l-84 0 l0 -83 l-166 0 l0 83 l166 0 l0 83 l-333 0 ZM750 217 l0 166 l-250 0 l0 -166 l83 0 l0 83 l84 0 l0 -83 l83 0 ZM417 217 l0 166 l-250 0 l0 -166 l83 0 l0 83 l83 0 l0 -83 l84 0 ZM500 467 l250 0 l0 166 l-83 0 l0 -83 l-84 0 l0 83 l-83 0 l0 -166 ZM167 467 l250 0 l0 166 l-84 0 l0 -83 l-83 0 l0 83 l-83 0 l0 -166 ZM417 800 l0 83 l83 0 l0 -83 l-83 0 Z" /><glyph glyph-name="" unicode="&#x5968;" d="M0 -117 l0 84 l167 0 l0 -84 l-167 0 ZM0 133 l0 84 l417 0 l0 83 l83 0 l0 -83 l417 0 l0 -84 l-334 0 l0 -83 l167 0 l0 -83 l167 0 l0 -84 l-167 0 l0 84 l-167 0 l0 83 l-83 0 l0 83 l-83 0 l0 -83 l-84 0 l0 -83 l-166 0 l0 83 l166 0 l0 83 l-333 0 ZM667 300 l0 83 l83 0 l0 84 l-250 0 l0 -84 l83 0 l0 -83 l-83 0 l0 83 l-83 0 l0 167 l333 0 l0 83 l83 0 l0 -83 l84 0 l0 -83 l-84 0 l0 -167 l-166 0 ZM0 300 l0 83 l83 0 l0 -83 l-83 0 ZM0 633 l0 84 l83 0 l0 -84 l84 0 l0 -83 l-84 0 l0 83 l-83 0 ZM333 800 l0 -500 l-83 0 l0 500 l83 0 ZM83 383 l0 84 l84 0 l0 -84 l-84 0 ZM833 633 l0 84 l-166 0 l0 -84 l-84 0 l0 84 l-83 0 l0 -84 l-83 0 l0 167 l500 0 l0 -167 l-84 0 Z" /><glyph glyph-name="" unicode="&#x5973;" d="M0 -117 l0 84 l250 0 l0 -84 l-250 0 ZM0 550 l0 83 l333 0 l0 250 l84 0 l0 -250 l500 0 l0 -83 l-167 0 l0 -250 l-83 0 l0 -167 l-84 0 l0 -83 l167 0 l0 -83 l167 0 l0 -84 l-167 0 l0 84 l-167 0 l0 83 l-250 0 l0 -83 l-83 0 l0 83 l83 0 l0 83 l250 0 l0 167 l84 0 l0 250 l-334 0 l0 -250 l-83 0 l0 -83 l83 0 l0 -84 l-166 0 l0 167 l83 0 l0 250 l-250 0 Z" /><glyph glyph-name="" unicode="&#x597d;" d="M500 -117 l0 84 l167 0 l0 333 l-250 0 l0 83 l250 0 l0 167 l83 0 l0 -167 l167 0 l0 -83 l-167 0 l0 -417 l-250 0 ZM0 550 l0 83 l83 0 l0 167 l84 0 l0 -167 l166 0 l0 -416 l-83 0 l0 -84 l167 0 l0 -83 l-250 0 l0 -167 l-84 0 l0 167 l84 0 l0 83 l-167 0 l0 167 l83 0 l0 -83 l167 0 l0 333 l-83 0 l0 -250 l-84 0 l0 250 l-83 0 ZM417 717 l0 83 l500 0 l0 -167 l-84 0 l0 -83 l-83 0 l0 83 l83 0 l0 84 l-416 0 Z" /><glyph glyph-name="" unicode="&#x5999;" d="M333 -117 l0 84 l250 0 l0 -84 l-250 0 ZM500 217 l0 83 l83 0 l0 583 l84 0 l0 -666 l-167 0 ZM750 550 l0 83 l83 0 l0 -83 l84 0 l0 -83 l-84 0 l0 83 l-83 0 ZM0 550 l0 83 l83 0 l0 167 l84 0 l0 -167 l166 0 l0 -83 l84 0 l0 -83 l-84 0 l0 -250 l-83 0 l0 -84 l83 0 l0 -83 l-166 0 l0 -167 l-84 0 l0 167 l84 0 l0 83 l-167 0 l0 167 l83 0 l0 -83 l167 0 l0 333 l-83 0 l0 -250 l-84 0 l0 250 l-83 0 ZM750 -33 l-167 0 l0 83 l167 0 l0 -83 ZM750 50 l0 83 l83 0 l0 -83 l-83 0 ZM833 133 l0 84 l84 0 l0 -84 l-84 0 ZM417 550 l0 83 l83 0 l0 -83 l-83 0 Z" /><glyph glyph-name="" unicode="&#x59a8;" d="M583 -117 l0 84 l167 0 l0 -84 l-167 0 ZM0 550 l0 83 l83 0 l0 167 l84 0 l0 -167 l166 0 l0 -416 l-83 0 l0 -84 l83 0 l0 -83 l-166 0 l0 -167 l-84 0 l0 167 l84 0 l0 83 l-167 0 l0 167 l83 0 l0 -83 l167 0 l0 333 l-83 0 l0 -250 l-84 0 l0 250 l-83 0 ZM750 -33 l0 83 l83 0 l0 -83 l-83 0 ZM833 50 l0 333 l-250 0 l0 -166 l-83 0 l0 -167 l-83 0 l0 167 l83 0 l0 166 l83 0 l0 250 l-250 0 l0 84 l250 0 l0 166 l84 0 l0 -166 l250 0 l0 -84 l-250 0 l0 -166 l250 0 l0 -417 l-84 0 Z" /><glyph glyph-name="" unicode="&#x59cb;" d="M0 550 l0 83 l83 0 l0 167 l84 0 l0 -167 l166 0 l0 -416 l-83 0 l0 -84 l83 0 l0 -83 l-166 0 l0 -167 l-84 0 l0 167 l84 0 l0 83 l-167 0 l0 167 l83 0 l0 -83 l167 0 l0 333 l-83 0 l0 -250 l-84 0 l0 250 l-83 0 ZM917 -117 l-500 0 l0 417 l500 0 l0 -417 ZM500 -33 l333 0 l0 250 l-333 0 l0 -250 ZM917 467 l-500 0 l0 166 l83 0 l0 -83 l333 0 l0 167 l84 0 l0 -250 ZM500 633 l0 84 l83 0 l0 -84 l-83 0 ZM583 717 l0 166 l84 0 l0 -166 l-84 0 Z" /><glyph glyph-name="" unicode="&#x5a01;" d="M167 -117 l0 84 l166 0 l0 -84 l-166 0 ZM667 -117 l-167 0 l0 84 l167 0 l0 -84 ZM917 50 l0 -167 l-84 0 l0 167 l84 0 ZM667 -33 l0 83 l83 0 l0 -83 l-83 0 ZM500 -33 l-167 0 l0 83 l84 0 l0 83 l83 0 l0 -166 ZM83 50 l0 -167 l-83 0 l0 167 l83 0 ZM833 50 l-83 0 l0 167 l83 0 l0 -167 ZM333 50 l-83 0 l0 250 l-83 0 l0 -250 l-84 0 l0 667 l584 0 l0 166 l83 0 l0 -166 l83 0 l0 83 l84 0 l0 -167 l-167 0 l0 -416 l-83 0 l0 83 l-84 0 l0 -167 l-83 0 l0 167 l-167 0 l0 -250 ZM833 217 l0 250 l84 0 l0 -250 l-84 0 ZM417 383 l250 0 l0 250 l-500 0 l0 -83 l416 0 l0 -83 l-166 0 l0 -84 ZM167 383 l166 0 l0 84 l-166 0 l0 -84 Z" /><glyph glyph-name="" unicode="&#x5a46;" d="M0 -117 l0 84 l250 0 l0 -84 l-250 0 ZM0 550 l0 83 l83 0 l0 -83 l84 0 l0 -83 l83 0 l0 -84 l-83 0 l0 -83 l-84 0 l0 -83 l167 0 l0 83 l83 0 l0 -83 l167 0 l0 83 l83 0 l0 -83 l167 0 l0 83 l83 0 l0 -83 l84 0 l0 -84 l-167 0 l0 -83 l-83 0 l0 -83 l250 0 l0 -84 l-250 0 l0 84 l-417 0 l0 166 l-250 0 l0 167 l83 0 l0 83 l84 0 l0 84 l-84 0 l0 83 l-83 0 ZM83 717 l0 83 l84 0 l0 -83 l83 0 l0 -84 l-83 0 l0 84 l-84 0 ZM333 50 l334 0 l0 83 l-334 0 l0 -83 ZM750 300 l-167 0 l0 83 l167 0 l0 -83 ZM333 300 l0 417 l250 0 l0 166 l84 0 l0 -166 l250 0 l0 -167 l-84 0 l0 -167 l-83 0 l0 84 l-167 0 l0 -84 l-83 0 l0 84 l-83 0 l0 -167 l-84 0 ZM667 550 l166 0 l0 83 l-166 0 l0 -83 ZM417 550 l166 0 l0 83 l-166 0 l0 -83 Z" /><glyph glyph-name="" unicode="&#x5ac1;" d="M500 -117 l0 84 l167 0 l0 -84 l-167 0 ZM417 467 l0 83 l416 0 l0 -83 l84 0 l0 -84 l-84 0 l0 -83 l-83 0 l0 -83 l83 0 l0 -84 l84 0 l0 -166 l-84 0 l0 166 l-83 0 l0 -166 l-83 0 l0 166 l-84 0 l0 -83 l-166 0 l0 -83 l-167 0 l0 83 l167 0 l0 83 l166 0 l0 84 l84 0 l0 83 l83 0 l0 83 l83 0 l0 84 l-166 0 l0 -167 l-167 0 l0 -83 l-250 0 l0 -167 l-83 0 l0 -167 l-84 0 l0 167 l84 0 l0 83 l-167 0 l0 167 l83 0 l0 -83 l167 0 l0 333 l-83 0 l0 -250 l-84 0 l0 250 l-83 0 l0 83 l83 0 l0 167 l84 0 l0 -167 l83 0 l0 84 l333 0 l0 166 l84 0 l0 -166 l250 0 l0 -167 l-84 0 l0 83 l-500 0 l0 -333 l167 0 l0 83 l83 0 l0 84 l-166 0 Z" /><glyph glyph-name="" unicode="&#x5acc;" d="M333 -117 l0 84 l84 0 l0 -84 l-84 0 ZM417 133 l0 84 l83 0 l0 83 l-167 0 l0 -83 l-83 0 l0 -84 l83 0 l0 -83 l-166 0 l0 -167 l-84 0 l0 167 l84 0 l0 83 l-167 0 l0 167 l83 0 l0 -83 l167 0 l0 333 l-83 0 l0 -250 l-84 0 l0 250 l-83 0 l0 83 l83 0 l0 167 l84 0 l0 -167 l166 0 l0 -250 l167 0 l0 84 l-83 0 l0 83 l83 0 l0 83 l-167 0 l0 84 l167 0 l0 166 l83 0 l0 -166 l84 0 l0 83 l83 0 l0 -83 l167 0 l0 -84 l-167 0 l0 -83 l167 0 l0 -417 l-167 0 l0 -83 l83 0 l0 -83 l84 0 l0 -84 l-84 0 l0 84 l-83 0 l0 -84 l-83 0 l0 250 l-84 0 l0 -250 l-83 0 l0 84 l-83 0 l0 83 l83 0 l0 83 l-83 0 ZM833 217 l0 83 l-83 0 l0 -83 l83 0 ZM667 217 l0 83 l-84 0 l0 -83 l84 0 ZM833 383 l0 84 l-83 0 l0 -84 l83 0 ZM667 383 l0 84 l-84 0 l0 -84 l84 0 ZM667 550 l0 83 l-84 0 l0 -83 l84 0 ZM750 800 l0 83 l83 0 l0 -83 l-83 0 Z" /><glyph glyph-name="" unicode="&#x5b50;" d="M250 -117 l0 84 l167 0 l0 333 l-417 0 l0 83 l417 0 l0 84 l83 0 l0 -84 l417 0 l0 -83 l-417 0 l0 -417 l-250 0 ZM167 717 l0 83 l583 0 l0 -167 l-83 0 l0 -83 l-84 0 l0 -83 l-83 0 l0 83 l83 0 l0 83 l84 0 l0 84 l-500 0 Z" /><glyph glyph-name="" unicode="&#x5b54;" d="M83 -117 l0 84 l84 0 l0 250 l-167 0 l0 83 l167 0 l0 167 l83 0 l0 -167 l250 0 l0 -83 l-250 0 l0 -334 l-167 0 ZM0 717 l0 83 l417 0 l0 -250 l-84 0 l0 -83 l-83 0 l0 83 l83 0 l0 167 l-333 0 ZM917 -117 l-250 0 l0 84 l166 0 l0 250 l84 0 l0 -334 ZM667 -33 l-84 0 l0 833 l84 0 l0 -833 Z" /><glyph glyph-name="" unicode="&#x5b57;" d="M250 -117 l0 84 l167 0 l0 166 l-417 0 l0 84 l417 0 l0 83 l83 0 l0 -83 l417 0 l0 -84 l-417 0 l0 -250 l-250 0 ZM167 467 l0 83 l500 0 l0 -167 l-84 0 l0 -83 l-83 0 l0 83 l83 0 l0 84 l-416 0 ZM917 717 l0 -250 l-84 0 l0 166 l-750 0 l0 -166 l-83 0 l0 250 l417 0 l0 166 l83 0 l0 -166 l417 0 Z" /><glyph glyph-name="" unicode="&#x5b58;" d="M500 -117 l0 84 l83 0 l0 166 l-333 0 l0 84 l333 0 l0 83 l84 0 l0 -83 l250 0 l0 -84 l-250 0 l0 -250 l-167 0 ZM0 217 l0 83 l83 0 l0 83 l84 0 l0 -500 l-84 0 l0 334 l-83 0 ZM417 467 l0 83 l416 0 l0 -167 l-83 0 l0 -83 l-83 0 l0 83 l83 0 l0 84 l-333 0 ZM0 633 l0 84 l333 0 l0 166 l84 0 l0 -166 l500 0 l0 -84 l-584 0 l0 -166 l-83 0 l0 -84 l-83 0 l0 84 l83 0 l0 166 l-250 0 Z" /><glyph glyph-name="" unicode="&#x5b64;" d="M0 -117 l0 84 l83 0 l0 250 l-83 0 l0 83 l83 0 l0 250 l84 0 l0 -167 l83 0 l0 -83 l-83 0 l0 -417 l-167 0 ZM0 717 l0 83 l250 0 l0 -250 l-83 0 l0 167 l-167 0 ZM917 133 l0 -250 l-84 0 l0 250 l84 0 ZM750 -33 l-333 0 l0 83 l83 0 l0 667 l-83 0 l0 -667 l-84 0 l0 -167 l-83 0 l0 167 l83 0 l0 750 l584 0 l0 -83 l-167 0 l0 -334 l83 0 l0 -250 l-83 0 l0 -166 ZM667 50 l0 83 l83 0 l0 250 l-83 0 l0 334 l-84 0 l0 -667 l84 0 Z" /><glyph glyph-name="" unicode="&#x5b66;" d="M250 -117 l0 84 l167 0 l0 166 l-417 0 l0 84 l417 0 l0 83 l83 0 l0 -83 l417 0 l0 -84 l-417 0 l0 -250 l-250 0 ZM167 383 l0 84 l500 0 l0 -84 l-84 0 l0 -83 l-83 0 l0 83 l-333 0 ZM83 717 l0 83 l84 0 l0 -83 l83 0 l0 -84 l333 0 l0 84 l84 0 l0 -84 l250 0 l0 -250 l-84 0 l0 167 l-750 0 l0 -167 l-83 0 l0 250 l167 0 l0 84 l-84 0 ZM333 800 l0 83 l84 0 l0 -83 l83 0 l0 -83 l-83 0 l0 83 l-84 0 ZM667 717 l0 83 l83 0 l0 -83 l-83 0 ZM750 800 l0 83 l83 0 l0 -83 l-83 0 Z" /><glyph glyph-name="" unicode="&#x5b89;" d="M83 -117 l0 84 l250 0 l0 -84 l-250 0 ZM167 50 l0 83 l83 0 l0 167 l-250 0 l0 83 l333 0 l0 167 l84 0 l0 -167 l500 0 l0 -83 l-167 0 l0 -167 l-83 0 l0 -166 l166 0 l0 -84 l-166 0 l0 84 l-334 0 l0 83 l250 0 l0 83 l84 0 l0 167 l-334 0 l0 -250 l-166 0 ZM917 717 l0 -250 l-84 0 l0 166 l-750 0 l0 -166 l-83 0 l0 250 l417 0 l0 166 l83 0 l0 -166 l417 0 Z" /><glyph glyph-name="" unicode="&#x5b9a;" d="M0 -117 l0 84 l167 0 l0 -84 l-167 0 ZM167 383 l0 84 l666 0 l0 -84 l-333 0 l0 -166 l333 0 l0 -84 l-333 0 l0 -166 l417 0 l0 -84 l-417 0 l0 84 l-333 0 l0 250 l83 0 l0 -167 l167 0 l0 333 l-250 0 ZM83 633 l0 -166 l-83 0 l0 250 l417 0 l0 166 l83 0 l0 -166 l417 0 l0 -167 l-84 0 l0 83 l-750 0 Z" /><glyph glyph-name="" unicode="&#x5b9c;" d="M0 -117 l0 84 l167 0 l0 583 l583 0 l0 -583 l167 0 l0 -84 l-917 0 ZM250 -33 l417 0 l0 166 l-417 0 l0 -166 ZM250 217 l417 0 l0 83 l-417 0 l0 -83 ZM250 383 l417 0 l0 84 l-417 0 l0 -84 ZM917 717 l0 -250 l-84 0 l0 166 l-750 0 l0 -166 l-83 0 l0 250 l417 0 l0 166 l83 0 l0 -166 l417 0 Z" /><glyph glyph-name="" unicode="&#x5b9d;" d="M0 -117 l0 84 l417 0 l0 166 l-250 0 l0 84 l250 0 l0 166 l-250 0 l0 84 l583 0 l0 -84 l-250 0 l0 -166 l167 0 l0 -84 l-167 0 l0 -166 l417 0 l0 -84 l-917 0 ZM750 133 l0 84 l83 0 l0 -84 l84 0 l0 -83 l-84 0 l0 83 l-83 0 ZM917 717 l0 -250 l-84 0 l0 166 l-750 0 l0 -166 l-83 0 l0 250 l417 0 l0 166 l83 0 l0 -166 l417 0 Z" /><glyph glyph-name="" unicode="&#x5b9f;" d="M0 -117 l0 84 l167 0 l0 -84 l-167 0 ZM0 133 l0 84 l417 0 l0 83 l-250 0 l0 83 l250 0 l0 84 l-250 0 l0 83 l250 0 l0 83 l-334 0 l0 -83 l-83 0 l0 167 l417 0 l0 166 l83 0 l0 -166 l417 0 l0 -167 l-84 0 l0 83 l-333 0 l0 -83 l250 0 l0 -83 l-250 0 l0 -84 l250 0 l0 -83 l-250 0 l0 -83 l417 0 l0 -84 l-334 0 l0 -83 l167 0 l0 -83 l167 0 l0 -84 l-167 0 l0 84 l-167 0 l0 83 l-83 0 l0 83 l-83 0 l0 -83 l-84 0 l0 -83 l-166 0 l0 83 l166 0 l0 83 l-333 0 Z" /><glyph glyph-name="" unicode="&#x5ba2;" d="M0 217 l0 83 l250 0 l0 -83 l500 0 l0 -334 l-583 0 l0 334 l-167 0 ZM250 -33 l417 0 l0 166 l-417 0 l0 -166 ZM917 217 l-167 0 l0 83 l167 0 l0 -83 ZM750 300 l-167 0 l0 83 l167 0 l0 -83 ZM417 300 l-167 0 l0 83 l167 0 l0 -83 ZM583 383 l-166 0 l0 84 l166 0 l0 -84 ZM583 467 l0 83 l84 0 l0 -83 l-84 0 ZM417 467 l-84 0 l0 83 l84 0 l0 -83 ZM167 467 l0 -84 l-84 0 l0 84 l84 0 ZM167 467 l0 83 l83 0 l0 -83 l-83 0 ZM83 467 l-83 0 l0 250 l417 0 l0 166 l83 0 l0 -166 l417 0 l0 -250 l-84 0 l0 166 l-83 0 l0 -83 l-83 0 l0 83 l-334 0 l0 -83 l-83 0 l0 83 l-167 0 l0 -166 Z" /><glyph glyph-name="" unicode="&#x5bb3;" d="M0 133 l0 84 l417 0 l0 83 l-250 0 l0 83 l250 0 l0 84 l-250 0 l0 83 l250 0 l0 83 l-334 0 l0 -166 l-83 0 l0 250 l417 0 l0 166 l83 0 l0 -166 l417 0 l0 -250 l-84 0 l0 166 l-333 0 l0 -83 l250 0 l0 -83 l-250 0 l0 -84 l250 0 l0 -83 l-250 0 l0 -83 l417 0 l0 -84 l-167 0 l0 -250 l-583 0 l0 250 l-167 0 ZM250 -33 l417 0 l0 166 l-417 0 l0 -166 Z" /><glyph glyph-name="" unicode="&#x5bb6;" d="M333 -117 l0 84 l167 0 l0 -84 l-167 0 ZM0 -33 l0 83 l250 0 l0 -83 l-250 0 ZM83 217 l0 83 l250 0 l0 -83 l-250 0 ZM917 -33 l-167 0 l0 83 l167 0 l0 -83 ZM500 -33 l0 166 l-83 0 l0 -83 l-167 0 l0 83 l167 0 l0 84 l83 0 l0 83 l83 0 l0 -83 l84 0 l0 -84 l83 0 l0 -83 l-83 0 l0 83 l-84 0 l0 -166 l-83 0 ZM667 217 l0 83 l83 0 l0 -83 l-83 0 ZM750 300 l0 83 l83 0 l0 -83 l-83 0 ZM500 300 l-167 0 l0 83 l84 0 l0 84 l-167 0 l0 -84 l-83 0 l0 167 l583 0 l0 -83 l-250 0 l0 -167 ZM917 717 l0 -250 l-84 0 l0 166 l-750 0 l0 -166 l-83 0 l0 250 l417 0 l0 166 l83 0 l0 -166 l417 0 Z" /><glyph glyph-name="" unicode="&#x5bb9;" d="M0 50 l0 83 l83 0 l0 -83 l-83 0 ZM750 -117 l-583 0 l0 250 l-84 0 l0 84 l84 0 l0 83 l83 0 l0 -83 l417 0 l0 83 l83 0 l0 -83 l83 0 l0 -84 l84 0 l0 -83 l-84 0 l0 83 l-83 0 l0 -250 ZM250 -33 l417 0 l0 166 l-417 0 l0 -166 ZM667 300 l-84 0 l0 83 l84 0 l0 -83 ZM250 300 l0 83 l83 0 l0 -83 l-83 0 ZM583 383 l-250 0 l0 84 l250 0 l0 -84 ZM833 467 l0 -84 l-83 0 l0 84 l83 0 ZM833 467 l0 166 l-166 0 l0 -83 l83 0 l0 -83 l-83 0 l0 83 l-84 0 l0 83 l-250 0 l0 -83 l-83 0 l0 -83 l-83 0 l0 -84 l-84 0 l0 84 l84 0 l0 83 l83 0 l0 83 l-167 0 l0 -166 l-83 0 l0 250 l417 0 l0 166 l83 0 l0 -166 l417 0 l0 -250 l-84 0 Z" /><glyph glyph-name="" unicode="&#x5bbf;" d="M0 217 l0 83 l83 0 l0 83 l84 0 l0 -500 l-84 0 l0 334 l-83 0 ZM833 -117 l-500 0 l0 500 l167 0 l0 84 l-250 0 l0 -84 l-83 0 l0 167 l666 0 l0 83 l-750 0 l0 -166 l-83 0 l0 250 l417 0 l0 166 l83 0 l0 -166 l417 0 l0 -250 l-334 0 l0 -84 l250 0 l0 -500 ZM417 -33 l333 0 l0 166 l-333 0 l0 -166 ZM417 217 l333 0 l0 83 l-333 0 l0 -83 Z" /><glyph glyph-name="" unicode="&#x5bc4;" d="M583 -117 l0 84 l84 0 l0 250 l-667 0 l0 83 l250 0 l0 83 l83 0 l0 -83 l250 0 l0 83 l84 0 l0 -83 l250 0 l0 -83 l-167 0 l0 -334 l-167 0 ZM167 467 l0 83 l250 0 l0 83 l-334 0 l0 -166 l-83 0 l0 250 l417 0 l0 166 l83 0 l0 -166 l417 0 l0 -250 l-84 0 l0 166 l-333 0 l0 -83 l250 0 l0 -83 l-167 0 l0 -84 l-83 0 l0 84 l-83 0 l0 -84 l-84 0 l0 84 l-166 0 ZM500 -117 l-333 0 l0 250 l333 0 l0 -250 ZM250 -33 l167 0 l0 83 l-167 0 l0 -83 Z" /><glyph glyph-name="" unicode="&#x5bcc;" d="M167 467 l0 83 l583 0 l0 -83 l-83 0 l0 -167 l166 0 l0 -417 l-750 0 l0 417 l167 0 l0 167 l-83 0 ZM500 -33 l250 0 l0 83 l-250 0 l0 -83 ZM167 -33 l250 0 l0 83 l-250 0 l0 -83 ZM500 133 l250 0 l0 84 l-250 0 l0 -84 ZM167 133 l250 0 l0 84 l-250 0 l0 -84 ZM333 300 l250 0 l0 167 l-250 0 l0 -167 ZM917 717 l0 -250 l-84 0 l0 166 l-750 0 l0 -166 l-83 0 l0 250 l417 0 l0 166 l83 0 l0 -166 l417 0 Z" /><glyph glyph-name="" unicode="&#x5bd2;" d="M250 -33 l0 83 l167 0 l0 -83 l250 0 l0 -84 l-250 0 l0 84 l-167 0 ZM0 50 l0 83 l167 0 l0 -83 l-167 0 ZM0 300 l0 83 l250 0 l0 84 l-83 0 l0 83 l83 0 l0 83 l-167 0 l0 -166 l-83 0 l0 250 l417 0 l0 166 l83 0 l0 -166 l417 0 l0 -250 l-84 0 l0 166 l-166 0 l0 -83 l83 0 l0 -83 l-83 0 l0 -84 l250 0 l0 -83 l-250 0 l0 -83 l83 0 l0 -84 l167 0 l0 -83 l-167 0 l0 83 l-83 0 l0 -83 l-167 0 l0 83 l167 0 l0 84 l-84 0 l0 83 l-250 0 l0 -83 l167 0 l0 -84 l-167 0 l0 84 l-83 0 l0 -84 l-83 0 l0 84 l83 0 l0 83 l-250 0 ZM333 383 l250 0 l0 84 l-250 0 l0 -84 ZM333 550 l250 0 l0 83 l-250 0 l0 -83 Z" /><glyph glyph-name="" unicode="&#x5bdf;" d="M333 -117 l0 84 l84 0 l0 166 l-417 0 l0 84 l917 0 l0 -84 l-417 0 l0 -250 l-167 0 ZM0 -117 l0 84 l83 0 l0 -84 l-83 0 ZM750 -33 l0 83 l83 0 l0 -83 l84 0 l0 -84 l-84 0 l0 84 l-83 0 ZM0 300 l0 83 l167 0 l0 -83 l-167 0 ZM500 467 l0 83 l83 0 l0 -83 l84 0 l0 166 l-250 0 l0 -166 l-84 0 l0 -84 l250 0 l0 84 l-83 0 ZM83 -33 l0 83 l84 0 l0 -83 l-84 0 ZM917 300 l-167 0 l0 83 l167 0 l0 -83 ZM667 300 l-417 0 l0 83 l-83 0 l0 167 l83 0 l0 -83 l83 0 l0 166 l-250 0 l0 -166 l-83 0 l0 250 l417 0 l0 166 l83 0 l0 -166 l417 0 l0 -250 l-84 0 l0 166 l-83 0 l0 -250 l-83 0 l0 -83 Z" /><glyph glyph-name="" unicode="&#x5be7;" d="M250 -117 l0 84 l167 0 l0 83 l-417 0 l0 83 l83 0 l0 167 l750 0 l0 -167 l84 0 l0 -83 l-417 0 l0 -167 l-250 0 ZM0 383 l0 84 l83 0 l0 -84 l-83 0 ZM750 467 l0 83 l83 0 l0 -83 l84 0 l0 -84 l-84 0 l0 84 l-83 0 ZM583 133 l167 0 l0 84 l-167 0 l0 -84 ZM167 133 l166 0 l0 84 l-166 0 l0 -84 ZM500 133 l0 84 l-83 0 l0 -84 l83 0 ZM667 383 l-334 0 l0 84 l334 0 l0 -84 ZM333 467 l-83 0 l0 166 l-167 0 l0 -83 l84 0 l0 -83 l-84 0 l0 83 l-83 0 l0 167 l417 0 l0 166 l83 0 l0 -166 l417 0 l0 -167 l-84 0 l0 83 l-250 0 l0 -83 l-83 0 l0 83 l-167 0 l0 -166 Z" /><glyph glyph-name="" unicode="&#x5be9;" d="M0 133 l0 84 l167 0 l0 83 l83 0 l0 83 l-250 0 l0 84 l250 0 l0 83 l83 0 l0 -83 l84 0 l0 166 l-167 0 l0 -83 l-83 0 l0 83 l-84 0 l0 -83 l-83 0 l0 167 l417 0 l0 166 l83 0 l0 -166 l417 0 l0 -167 l-84 0 l0 83 l-83 0 l0 -83 l-83 0 l0 -83 l250 0 l0 -84 l-250 0 l0 -83 l83 0 l0 -83 l167 0 l0 -84 l-167 0 l0 -250 l-583 0 l0 250 l-167 0 ZM500 -33 l167 0 l0 83 l-167 0 l0 -83 ZM250 -33 l167 0 l0 83 l-167 0 l0 -83 ZM500 133 l167 0 l0 84 l-167 0 l0 -84 ZM250 133 l167 0 l0 84 l-167 0 l0 -84 ZM583 300 l0 83 l-83 0 l0 -83 l83 0 ZM417 300 l0 83 l-84 0 l0 -83 l84 0 ZM583 467 l0 83 l84 0 l0 83 l-167 0 l0 -166 l83 0 Z" /><glyph glyph-name="" unicode="&#x5bfe;" d="M667 -117 l0 84 l83 0 l0 583 l-333 0 l0 83 l333 0 l0 250 l83 0 l0 -250 l84 0 l0 -83 l-84 0 l0 -667 l-166 0 ZM0 -117 l0 84 l83 0 l0 -84 l-83 0 ZM417 300 l0 83 l83 0 l0 -83 l83 0 l0 -83 l-83 0 l0 83 l-83 0 ZM0 300 l0 83 l83 0 l0 -83 l84 0 l0 -83 l83 0 l0 -84 l83 0 l0 -83 l84 0 l0 -83 l-84 0 l0 83 l-166 0 l0 -83 l-84 0 l0 83 l84 0 l0 167 l-84 0 l0 83 l-83 0 ZM0 550 l0 83 l167 0 l0 250 l83 0 l0 -250 l83 0 l0 -416 l-83 0 l0 333 l-250 0 Z" /><glyph glyph-name="" unicode="&#x5c01;" d="M750 -117 l0 84 l83 0 l0 583 l-333 0 l0 83 l333 0 l0 250 l84 0 l0 -1000 l-167 0 ZM0 -117 l0 84 l167 0 l0 166 l-167 0 l0 84 l167 0 l0 166 l-167 0 l0 84 l167 0 l0 166 l-167 0 l0 84 l167 0 l0 166 l83 0 l0 -166 l167 0 l0 -84 l-167 0 l0 -166 l250 0 l0 -84 l83 0 l0 -83 l84 0 l0 -83 l-84 0 l0 83 l-83 0 l0 83 l-250 0 l0 -166 l167 0 l0 -84 l-167 0 l0 -166 l250 0 l0 -84 l-500 0 Z" /><glyph glyph-name="" unicode="&#x5c02;" d="M500 -117 l0 84 l167 0 l0 166 l-667 0 l0 84 l167 0 l0 333 l250 0 l0 83 l-417 0 l0 84 l417 0 l0 166 l83 0 l0 -166 l417 0 l0 -84 l-417 0 l0 -83 l250 0 l0 -333 l167 0 l0 -84 l-167 0 l0 -250 l-250 0 ZM167 -33 l0 83 l83 0 l0 -83 l83 0 l0 -84 l-83 0 l0 84 l-83 0 ZM500 217 l167 0 l0 83 l-167 0 l0 -83 ZM250 217 l167 0 l0 83 l-167 0 l0 -83 ZM500 383 l167 0 l0 84 l-167 0 l0 -84 ZM250 383 l167 0 l0 84 l-167 0 l0 -84 Z" /><glyph glyph-name="" unicode="&#x5c04;" d="M667 -117 l0 84 l83 0 l0 583 l-333 0 l0 -667 l-167 0 l0 84 l83 0 l0 166 l-83 0 l0 -83 l-83 0 l0 -83 l-84 0 l0 -84 l-83 0 l0 84 l83 0 l0 83 l84 0 l0 83 l-167 0 l0 584 l83 0 l0 83 l84 0 l0 -83 l250 0 l0 -84 l333 0 l0 250 l83 0 l0 -250 l84 0 l0 -83 l-84 0 l0 -667 l-166 0 ZM500 300 l0 83 l83 0 l0 -83 l84 0 l0 -83 l-84 0 l0 83 l-83 0 ZM83 217 l250 0 l0 83 l-250 0 l0 -83 ZM83 383 l250 0 l0 84 l-250 0 l0 -84 ZM83 550 l250 0 l0 83 l-250 0 l0 -83 ZM167 800 l0 83 l83 0 l0 -83 l-83 0 Z" /><glyph glyph-name="" unicode="&#x5c06;" d="M667 -117 l0 84 l83 0 l0 250 l-417 0 l0 83 l417 0 l0 83 l83 0 l0 -83 l84 0 l0 -83 l-84 0 l0 -334 l-166 0 ZM417 50 l0 83 l83 0 l0 -83 l83 0 l0 -83 l-83 0 l0 83 l-83 0 ZM0 50 l0 83 l83 0 l0 -83 l-83 0 ZM333 467 l0 83 l84 0 l0 -83 l83 0 l0 -84 l-83 0 l0 84 l-84 0 ZM500 550 l0 83 l83 0 l0 -83 l84 0 l0 -83 l-84 0 l0 83 l-83 0 ZM0 550 l0 83 l83 0 l0 -83 l84 0 l0 250 l83 0 l0 -917 l-83 0 l0 250 l-84 0 l0 84 l84 0 l0 250 l-84 0 l0 83 l-83 0 ZM417 717 l0 83 l500 0 l0 -167 l-84 0 l0 -166 l-83 0 l0 166 l83 0 l0 84 l-416 0 Z" /><glyph glyph-name="" unicode="&#x5c0a;" d="M583 -117 l0 84 l84 0 l0 166 l-667 0 l0 84 l83 0 l0 333 l250 0 l0 83 l-333 0 l0 84 l250 0 l0 166 l83 0 l0 -166 l250 0 l0 83 l84 0 l0 -83 l250 0 l0 -84 l-334 0 l0 -83 l250 0 l0 -333 l84 0 l0 -84 l-167 0 l0 -250 l-167 0 ZM167 -33 l0 83 l83 0 l0 -83 l83 0 l0 -84 l-83 0 l0 84 l-83 0 ZM167 217 l583 0 l0 83 l-250 0 l0 167 l-83 0 l0 -84 l-84 0 l0 -83 l-166 0 l0 -83 ZM583 383 l167 0 l0 84 l-167 0 l0 -84 ZM167 383 l166 0 l0 84 l-166 0 l0 -84 ZM500 550 l0 83 l-83 0 l0 -83 l83 0 ZM667 800 l0 83 l83 0 l0 -83 l-83 0 Z" /><glyph glyph-name="" unicode="&#x5c0b;" d="M583 -117 l0 84 l84 0 l0 83 l-417 0 l0 -83 l83 0 l0 -84 l-83 0 l0 84 l-83 0 l0 83 l-167 0 l0 83 l667 0 l0 84 l-167 0 l0 250 l167 0 l0 83 l-500 0 l0 83 l500 0 l0 84 l-500 0 l0 83 l583 0 l0 -333 l167 0 l0 -250 l-167 0 l0 -84 l167 0 l0 -83 l-167 0 l0 -167 l-167 0 ZM0 217 l0 83 l167 0 l0 83 l-167 0 l0 84 l417 0 l0 -84 l-167 0 l0 -83 l167 0 l0 -83 l-417 0 ZM583 300 l250 0 l0 83 l-250 0 l0 -83 Z" /><glyph glyph-name="" unicode="&#x5c0e;" d="M583 -117 l0 84 l84 0 l0 166 l-667 0 l0 84 l83 0 l0 83 l84 0 l0 -83 l166 0 l0 333 l250 0 l0 83 l-333 0 l0 84 l167 0 l0 166 l83 0 l0 -166 l167 0 l0 83 l83 0 l0 -83 l167 0 l0 -84 l-250 0 l0 -83 l166 0 l0 -333 l84 0 l0 -84 l-167 0 l0 -250 l-167 0 ZM250 -33 l0 83 l83 0 l0 -83 l84 0 l0 -84 l-84 0 l0 84 l-83 0 ZM0 383 l0 84 l250 0 l0 -167 l-83 0 l0 83 l-167 0 ZM0 633 l0 84 l83 0 l0 -84 l84 0 l0 -83 l-84 0 l0 83 l-83 0 ZM417 217 l333 0 l0 83 l-333 0 l0 -83 ZM417 383 l333 0 l0 84 l-333 0 l0 -84 ZM750 800 l0 83 l83 0 l0 -83 l-83 0 Z" /><glyph glyph-name="" unicode="&#x5c0f;" d="M250 -117 l0 84 l167 0 l0 833 l83 0 l0 -917 l-250 0 ZM917 383 l0 -250 l-84 0 l0 250 l84 0 ZM83 300 l0 -167 l-83 0 l0 167 l83 0 ZM83 300 l0 250 l84 0 l0 -250 l-84 0 ZM833 383 l-83 0 l0 167 l83 0 l0 -167 Z" /><glyph glyph-name="" unicode="&#x5c11;" d="M83 -117 l0 84 l250 0 l0 -84 l-250 0 ZM333 217 l0 83 l84 0 l0 583 l83 0 l0 -666 l-167 0 ZM0 300 l0 83 l83 0 l0 -83 l-83 0 ZM667 550 l0 83 l83 0 l0 -83 l83 0 l0 -83 l84 0 l0 -84 l-84 0 l0 84 l-83 0 l0 83 l-83 0 ZM500 -33 l-167 0 l0 83 l167 0 l0 -83 ZM667 50 l-167 0 l0 83 l167 0 l0 -83 ZM667 133 l0 84 l83 0 l0 -84 l-83 0 ZM750 217 l0 83 l83 0 l0 -83 l-83 0 ZM83 383 l0 84 l84 0 l0 -84 l-84 0 ZM167 467 l0 166 l83 0 l0 -166 l-83 0 Z" /><glyph glyph-name="" unicode="&#x5c31;" d="M0 633 l0 84 l167 0 l0 166 l83 0 l0 -166 l167 0 l0 -84 l166 0 l0 250 l84 0 l0 -250 l166 0 l0 167 l84 0 l0 -250 l-250 0 l0 -167 l83 0 l0 -416 l83 0 l0 166 l84 0 l0 -250 l-250 0 l0 417 l-84 0 l0 -250 l-83 0 l0 -167 l-83 0 l0 167 l83 0 l0 250 l83 0 l0 250 l-166 0 l0 -333 l-167 0 l0 -84 l83 0 l0 -83 l-83 0 l0 -167 l-167 0 l0 84 l84 0 l0 250 l-167 0 l0 333 l417 0 l0 83 l-417 0 ZM83 -33 l-83 0 l0 166 l83 0 l0 -166 ZM83 300 l250 0 l0 167 l-250 0 l0 -167 Z" /><glyph glyph-name="" unicode="&#x5c3b;" d="M167 -117 l0 84 l166 0 l0 -84 l-166 0 ZM250 217 l0 83 l167 0 l0 167 l-250 0 l0 -334 l-84 0 l0 -166 l-83 0 l0 166 l83 0 l0 667 l834 0 l0 -333 l-417 0 l0 -167 l333 0 l0 -333 l84 0 l0 -84 l-167 0 l0 334 l-250 0 l0 -167 l-83 0 l0 -83 l-84 0 l0 83 l84 0 l0 167 l-167 0 ZM167 550 l666 0 l0 167 l-666 0 l0 -167 Z" /><glyph glyph-name="" unicode="&#x5c3d;" d="M250 -33 l0 83 l250 0 l0 -83 l250 0 l0 -84 l-250 0 l0 84 l-250 0 ZM333 217 l0 83 l167 0 l0 -83 l167 0 l0 -84 l-167 0 l0 84 l-167 0 ZM917 133 l0 -166 l-84 0 l0 166 l84 0 ZM83 133 l0 -166 l-83 0 l0 166 l83 0 ZM833 133 l-83 0 l0 167 l83 0 l0 -167 ZM83 133 l0 167 l84 0 l0 -167 l-84 0 ZM750 300 l-83 0 l0 167 l-417 0 l0 -167 l-83 0 l0 500 l666 0 l0 -333 l-83 0 l0 -167 ZM250 550 l500 0 l0 167 l-500 0 l0 -167 Z" /><glyph glyph-name="" unicode="&#x5c48;" d="M917 -117 l-667 0 l0 250 l83 0 l0 -166 l250 0 l0 250 l-250 0 l0 250 l84 0 l0 -167 l166 0 l0 250 l-416 0 l0 -417 l-84 0 l0 -166 l-83 0 l0 166 l83 0 l0 667 l834 0 l0 -250 l-250 0 l0 -250 l166 0 l0 167 l84 0 l0 -250 l-250 0 l0 -250 l166 0 l0 166 l84 0 l0 -250 ZM167 633 l666 0 l0 84 l-666 0 l0 -84 Z" /><glyph glyph-name="" unicode="&#x5c4a;" d="M917 -117 l-667 0 l0 500 l250 0 l0 84 l-333 0 l0 -334 l-84 0 l0 -166 l-83 0 l0 166 l83 0 l0 667 l834 0 l0 -333 l-334 0 l0 -84 l334 0 l0 -500 ZM583 -33 l250 0 l0 166 l-250 0 l0 -166 ZM333 -33 l167 0 l0 166 l-167 0 l0 -166 ZM583 217 l250 0 l0 83 l-250 0 l0 -83 ZM333 217 l167 0 l0 83 l-167 0 l0 -83 ZM167 550 l666 0 l0 167 l-666 0 l0 -167 Z" /><glyph glyph-name="" unicode="&#x5c4b;" d="M167 -117 l0 84 l333 0 l0 83 l-250 0 l0 83 l250 0 l0 84 l-250 0 l0 83 l83 0 l0 83 l-166 0 l0 -250 l-84 0 l0 -166 l-83 0 l0 166 l83 0 l0 667 l834 0 l0 -250 l-750 0 l0 -83 l750 0 l0 -84 l-167 0 l0 -83 l83 0 l0 -83 l84 0 l0 -84 l-84 0 l0 -83 l-250 0 l0 -83 l334 0 l0 -84 l-750 0 ZM583 133 l250 0 l0 84 l-250 0 l0 -84 ZM417 300 l250 0 l0 83 l-250 0 l0 -83 ZM167 633 l666 0 l0 84 l-666 0 l0 -84 Z" /><glyph glyph-name="" unicode="&#x5c55;" d="M167 -117 l0 84 l83 0 l0 166 l-167 0 l0 -166 l-83 0 l0 166 l83 0 l0 667 l834 0 l0 -250 l-167 0 l0 -83 l167 0 l0 -84 l-167 0 l0 -166 l167 0 l0 -84 l-84 0 l0 -83 l-83 0 l0 -83 l167 0 l0 -84 l-167 0 l0 84 l-167 0 l0 83 l167 0 l0 83 l-167 0 l0 -83 l-83 0 l0 83 l-167 0 l0 -166 l167 0 l0 -84 l-333 0 ZM417 217 l250 0 l0 166 l-250 0 l0 -166 ZM167 217 l166 0 l0 166 l-166 0 l0 -166 ZM417 467 l250 0 l0 83 l-250 0 l0 -83 ZM167 467 l166 0 l0 83 l-166 0 l0 -83 ZM167 633 l666 0 l0 84 l-666 0 l0 -84 Z" /><glyph glyph-name="" unicode="&#x5c71;" d="M917 -117 l-917 0 l0 584 l83 0 l0 -500 l334 0 l0 833 l83 0 l0 -833 l333 0 l0 500 l84 0 l0 -584 Z" /><glyph glyph-name="" unicode="&#x5ca1;" d="M167 300 l0 83 l83 0 l0 250 l83 0 l0 -250 l167 0 l0 84 l83 0 l0 -84 l167 0 l0 -83 l-250 0 l0 -250 l167 0 l0 167 l83 0 l0 -250 l83 0 l0 750 l-750 0 l0 -834 l-83 0 l0 917 l917 0 l0 -917 l-167 0 l0 84 l-583 0 l0 250 l83 0 l0 -167 l167 0 l0 250 l-250 0 ZM583 467 l0 166 l84 0 l0 -166 l-84 0 Z" /><glyph glyph-name="" unicode="&#x5ca9;" d="M0 50 l0 83 l167 0 l0 84 l83 0 l0 83 l83 0 l0 -83 l500 0 l0 -334 l-666 0 l0 167 l-167 0 ZM0 383 l0 84 l917 0 l0 -84 l-500 0 l0 -83 l-84 0 l0 83 l-333 0 ZM250 -33 l500 0 l0 166 l-500 0 l0 -166 ZM833 550 l-750 0 l0 250 l84 0 l0 -167 l250 0 l0 250 l83 0 l0 -250 l250 0 l0 167 l83 0 l0 -250 Z" /><glyph glyph-name="" unicode="&#x5d0e;" d="M750 -117 l0 84 l83 0 l0 333 l-500 0 l0 167 l84 0 l0 -84 l416 0 l0 84 l84 0 l0 -584 l-167 0 ZM333 633 l0 84 l250 0 l0 166 l84 0 l0 -166 l250 0 l0 -84 l-167 0 l0 -83 l83 0 l0 -83 l-83 0 l0 83 l-83 0 l0 83 l-84 0 l0 -83 l-83 0 l0 -83 l-83 0 l0 83 l83 0 l0 83 l-167 0 ZM667 -33 l-250 0 l0 250 l250 0 l0 -250 ZM333 -33 l-333 0 l0 583 l83 0 l0 -500 l84 0 l0 750 l83 0 l0 -750 l83 0 l0 -83 ZM583 50 l0 83 l-83 0 l0 -83 l83 0 Z" /><glyph glyph-name="" unicode="&#x5dba;" d="M750 -33 l0 83 l83 0 l0 -83 l84 0 l0 -84 l-84 0 l0 84 l-83 0 ZM250 -33 l0 83 l83 0 l0 167 l-166 0 l0 -334 l-84 0 l0 334 l-83 0 l0 83 l417 0 l0 -333 l83 0 l0 -84 l-83 0 l0 84 l-167 0 ZM500 -33 l0 83 l83 0 l0 -83 l-83 0 ZM917 133 l-417 0 l0 334 l-83 0 l0 -84 l-417 0 l0 167 l83 0 l0 -83 l334 0 l0 83 l250 0 l0 83 l-250 0 l0 -83 l-84 0 l0 83 l-166 0 l0 -83 l-84 0 l0 83 l-83 0 l0 167 l83 0 l0 -83 l334 0 l0 166 l83 0 l0 -166 l333 0 l0 83 l84 0 l0 -167 l-167 0 l0 -83 l167 0 l0 -417 ZM583 217 l250 0 l0 83 l-250 0 l0 -83 ZM583 383 l250 0 l0 84 l-250 0 l0 -84 Z" /><glyph glyph-name="" unicode="&#x5de1;" d="M0 -117 l0 84 l83 0 l0 -84 l-83 0 ZM0 300 l0 83 l250 0 l0 -333 l83 0 l0 -83 l584 0 l0 -84 l-584 0 l0 84 l-83 0 l0 83 l-83 0 l0 -83 l-84 0 l0 83 l84 0 l0 250 l-167 0 ZM83 633 l0 84 l84 0 l0 -84 l83 0 l0 -83 l-83 0 l0 83 l-84 0 ZM917 300 l0 -167 l-84 0 l0 167 l84 0 ZM750 300 l0 -167 l-83 0 l0 167 l83 0 ZM583 300 l0 -167 l-83 0 l0 167 l83 0 ZM833 300 l-83 0 l0 83 l83 0 l0 -83 ZM667 300 l-84 0 l0 83 l84 0 l0 -83 ZM500 300 l-83 0 l0 83 l83 0 l0 -83 ZM750 383 l-83 0 l0 167 l83 0 l0 -167 ZM583 383 l-83 0 l0 167 l83 0 l0 -167 ZM417 383 l-84 0 l0 167 l84 0 l0 -167 ZM750 550 l0 250 l83 0 l0 -250 l-83 0 ZM667 550 l-84 0 l0 250 l84 0 l0 -250 ZM500 550 l-83 0 l0 250 l83 0 l0 -250 Z" /><glyph glyph-name="" unicode="&#x5de6;" d="M250 -117 l0 84 l333 0 l0 333 l-333 0 l0 -167 l-83 0 l0 -166 l-84 0 l0 166 l84 0 l0 167 l83 0 l0 333 l-250 0 l0 84 l333 0 l0 166 l84 0 l0 -166 l500 0 l0 -84 l-584 0 l0 -250 l584 0 l0 -83 l-250 0 l0 -333 l250 0 l0 -84 l-667 0 Z" /><glyph glyph-name="" unicode="&#x5dee;" d="M83 -117 l0 84 l417 0 l0 166 l-333 0 l0 -83 l-167 0 l0 83 l167 0 l0 84 l83 0 l0 83 l-250 0 l0 83 l417 0 l0 84 l-334 0 l0 83 l334 0 l0 83 l-417 0 l0 84 l250 0 l0 166 l83 0 l0 -166 l250 0 l0 83 l84 0 l0 -83 l250 0 l0 -84 l-417 0 l0 -83 l333 0 l0 -83 l-333 0 l0 -84 l417 0 l0 -83 l-584 0 l0 -83 l500 0 l0 -84 l-250 0 l0 -166 l334 0 l0 -84 l-834 0 ZM667 800 l0 83 l83 0 l0 -83 l-83 0 Z" /><glyph glyph-name="" unicode="&#x5df1;" d="M83 717 l0 83 l667 0 l0 -417 l-583 0 l0 -416 l583 0 l0 250 l83 0 l0 -334 l-750 0 l0 584 l584 0 l0 250 l-584 0 Z" /><glyph glyph-name="" unicode="&#x5dfb;" d="M0 133 l0 84 l167 0 l0 -84 l500 0 l0 84 l-500 0 l0 83 l83 0 l0 83 l-250 0 l0 84 l333 0 l0 83 l-250 0 l0 83 l84 0 l0 167 l83 0 l0 -167 l167 0 l0 250 l83 0 l0 -250 l167 0 l0 84 l83 0 l0 -84 l83 0 l0 -83 l-166 0 l0 -83 l250 0 l0 -84 l-167 0 l0 -83 l83 0 l0 -83 l84 0 l0 -84 l-84 0 l0 84 l-83 0 l0 -167 l83 0 l0 -167 l-666 0 l0 250 l-167 0 ZM250 -33 l500 0 l0 83 l-500 0 l0 -83 ZM333 300 l334 0 l0 83 l-334 0 l0 -83 ZM417 467 l166 0 l0 83 l-166 0 l0 -83 ZM750 717 l0 83 l83 0 l0 -83 l-83 0 Z" /><glyph glyph-name="" unicode="&#x5dfe;" d="M667 50 l0 83 l166 0 l0 417 l-333 0 l0 -667 l-83 0 l0 667 l-334 0 l0 -500 l-83 0 l0 583 l417 0 l0 250 l83 0 l0 -250 l417 0 l0 -583 l-250 0 Z" /><glyph glyph-name="" unicode="&#x5e0c;" d="M667 -33 l0 83 l83 0 l0 167 l-167 0 l0 -334 l-83 0 l0 334 l-167 0 l0 -250 l-83 0 l0 250 l-83 0 l0 -84 l-167 0 l0 84 l167 0 l0 83 l83 0 l0 83 l-250 0 l0 84 l417 0 l0 83 l83 0 l0 -83 l250 0 l0 83 l83 0 l0 -83 l84 0 l0 -84 l-334 0 l0 -83 l250 0 l0 -333 l-166 0 ZM83 550 l0 83 l250 0 l0 -83 l-250 0 ZM167 717 l0 83 l166 0 l0 -83 l250 0 l0 -84 l167 0 l0 -83 l-167 0 l0 83 l-250 0 l0 84 l-166 0 ZM333 300 l167 0 l0 83 l-167 0 l0 -83 ZM833 717 l-250 0 l0 83 l250 0 l0 -83 Z" /><glyph glyph-name="" unicode="&#x5e2b;" d="M750 -33 l0 83 l83 0 l0 417 l-166 0 l0 -584 l-84 0 l0 584 l-83 0 l0 -500 l-83 0 l0 583 l166 0 l0 167 l-250 0 l0 -334 l-250 0 l0 -83 l250 0 l0 -417 l-333 0 l0 834 l83 0 l0 83 l84 0 l0 -83 l166 0 l0 83 l584 0 l0 -83 l-250 0 l0 -167 l250 0 l0 -583 l-167 0 ZM83 -33 l167 0 l0 250 l-167 0 l0 -250 ZM83 467 l167 0 l0 166 l-167 0 l0 -166 ZM167 800 l0 83 l83 0 l0 -83 l-83 0 Z" /><glyph glyph-name="" unicode="&#x5e2d;" d="M667 -117 l0 84 l83 0 l0 166 l-167 0 l0 -250 l-83 0 l0 250 l-167 0 l0 -250 l-83 0 l0 334 l250 0 l0 83 l-167 0 l0 167 l-166 0 l0 -334 l-84 0 l0 -166 l-83 0 l0 166 l83 0 l0 584 l417 0 l0 166 l83 0 l0 -166 l334 0 l0 -84 l-167 0 l0 -83 l167 0 l0 -83 l-167 0 l0 -167 l-167 0 l0 -83 l250 0 l0 -334 l-166 0 ZM417 383 l250 0 l0 84 l-250 0 l0 -84 ZM417 550 l250 0 l0 83 l-250 0 l0 -83 ZM167 550 l166 0 l0 83 l-166 0 l0 -83 Z" /><glyph glyph-name="" unicode="&#x5e30;" d="M333 550 l0 83 l417 0 l0 84 l-417 0 l0 83 l500 0 l0 -333 l84 0 l0 -250 l-84 0 l0 -250 l-166 0 l0 -84 l-84 0 l0 334 l-166 0 l0 -250 l-84 0 l0 333 l250 0 l0 83 l-333 0 l0 -333 l-83 0 l0 -167 l-84 0 l0 167 l84 0 l0 750 l83 0 l0 -333 l500 0 l0 83 l-417 0 ZM750 50 l0 167 l-83 0 l0 -167 l83 0 ZM667 300 l166 0 l0 83 l-166 0 l0 -83 ZM83 717 l0 -500 l-83 0 l0 500 l83 0 Z" /><glyph glyph-name="" unicode="&#x5e38;" d="M667 -117 l0 84 l83 0 l0 166 l-250 0 l0 -250 l-83 0 l0 250 l-250 0 l0 -250 l-84 0 l0 334 l334 0 l0 83 l-167 0 l0 250 l417 0 l0 -250 l-167 0 l0 -83 l333 0 l0 -334 l-166 0 ZM333 383 l250 0 l0 84 l-250 0 l0 -84 ZM917 717 l0 -250 l-84 0 l0 166 l-750 0 l0 -166 l-83 0 l0 250 l167 0 l0 83 l83 0 l0 -83 l167 0 l0 166 l83 0 l0 -166 l167 0 l0 83 l83 0 l0 -83 l167 0 Z" /><glyph glyph-name="" unicode="&#x5e72;" d="M0 300 l0 83 l417 0 l0 334 l-334 0 l0 83 l750 0 l0 -83 l-333 0 l0 -334 l417 0 l0 -83 l-417 0 l0 -417 l-83 0 l0 417 l-417 0 Z" /><glyph glyph-name="" unicode="&#x5e73;" d="M0 217 l0 83 l417 0 l0 417 l-417 0 l0 83 l917 0 l0 -83 l-417 0 l0 -417 l417 0 l0 -83 l-417 0 l0 -334 l-83 0 l0 334 l-417 0 ZM667 467 l0 83 l83 0 l0 -83 l-83 0 ZM83 550 l0 83 l84 0 l0 -83 l83 0 l0 -83 l-83 0 l0 83 l-84 0 ZM750 550 l0 83 l83 0 l0 -83 l-83 0 Z" /><glyph glyph-name="" unicode="&#x5e74;" d="M0 133 l0 84 l167 0 l0 250 l333 0 l0 166 l-333 0 l0 -83 l-84 0 l0 -83 l-83 0 l0 83 l83 0 l0 83 l84 0 l0 250 l83 0 l0 -166 l667 0 l0 -84 l-334 0 l0 -166 l250 0 l0 -84 l-250 0 l0 -166 l334 0 l0 -84 l-334 0 l0 -250 l-83 0 l0 250 l-500 0 ZM250 217 l250 0 l0 166 l-250 0 l0 -166 Z" /><glyph glyph-name="" unicode="&#x5e78;" d="M83 50 l0 83 l334 0 l0 84 l-417 0 l0 83 l250 0 l0 167 l-250 0 l0 83 l417 0 l0 83 l-334 0 l0 84 l334 0 l0 166 l83 0 l0 -166 l333 0 l0 -84 l-333 0 l0 -83 l417 0 l0 -83 l-250 0 l0 -167 l250 0 l0 -83 l-417 0 l0 -84 l333 0 l0 -83 l-333 0 l0 -167 l-83 0 l0 167 l-334 0 ZM333 300 l250 0 l0 167 l-250 0 l0 -167 Z" /><glyph glyph-name="" unicode="&#x5e7c;" d="M583 -117 l0 84 l167 0 l0 -84 l-167 0 ZM333 -117 l-333 0 l0 167 l83 0 l0 -83 l167 0 l0 166 l83 0 l0 -250 ZM750 -33 l0 83 l83 0 l0 -83 l-83 0 ZM833 50 l0 500 l-166 0 l0 -167 l-84 0 l0 -166 l-83 0 l0 -167 l-83 0 l0 167 l83 0 l0 166 l83 0 l0 167 l-250 0 l0 -167 l-83 0 l0 -166 l-83 0 l0 -167 l-84 0 l0 167 l84 0 l0 166 l83 0 l0 167 l83 0 l0 83 l250 0 l0 250 l84 0 l0 -250 l250 0 l0 -583 l-84 0 ZM167 383 l-84 0 l0 84 l84 0 l0 -84 ZM83 467 l-83 0 l0 166 l83 0 l0 -166 ZM83 633 l0 167 l84 0 l0 -167 l-84 0 Z" /><glyph glyph-name="" unicode="&#x5e7e;" d="M0 217 l0 83 l417 0 l0 83 l-334 0 l0 167 l84 0 l0 -83 l250 0 l0 416 l83 0 l0 -583 l417 0 l0 -167 l-84 0 l0 -83 l-83 0 l0 -83 l167 0 l0 -84 l-167 0 l0 84 l-167 0 l0 -84 l-250 0 l0 84 l250 0 l0 83 l167 0 l0 83 l83 0 l0 84 l-250 0 l0 -167 l-83 0 l0 167 l-250 0 l0 -167 l83 0 l0 -83 l-83 0 l0 83 l-83 0 l0 -167 l-84 0 l0 167 l84 0 l0 167 l-167 0 ZM583 633 l0 84 l84 0 l0 -84 l83 0 l0 -83 l-83 0 l0 -83 l166 0 l0 83 l84 0 l0 -167 l-334 0 l0 167 l84 0 l0 83 l-84 0 ZM83 633 l0 84 l84 0 l0 -84 l83 0 l0 -83 l-83 0 l0 83 l-84 0 ZM750 633 l0 84 l83 0 l0 -84 l-83 0 ZM250 633 l0 84 l83 0 l0 -84 l-83 0 ZM750 717 l-83 0 l0 83 l83 0 l0 -83 ZM250 717 l-83 0 l0 83 l83 0 l0 -83 Z" /><glyph glyph-name="" unicode="&#x5e83;" d="M583 -117 l-333 0 l0 167 l83 0 l0 -83 l250 0 l0 -84 ZM917 50 l0 -167 l-84 0 l0 167 l84 0 ZM750 -33 l-167 0 l0 83 l167 0 l0 -83 ZM83 133 l0 -250 l-83 0 l0 250 l83 0 ZM833 50 l-83 0 l0 250 l83 0 l0 -250 ZM333 50 l0 250 l84 0 l0 -250 l-84 0 ZM83 133 l0 584 l334 0 l0 166 l83 0 l0 -166 l417 0 l0 -84 l-750 0 l0 -500 l-84 0 ZM417 300 l0 250 l83 0 l0 -250 l-83 0 Z" /><glyph glyph-name="" unicode="&#x5e8a;" d="M167 -33 l0 83 l166 0 l0 -83 l-166 0 ZM583 217 l0 -334 l-83 0 l0 250 l-83 0 l0 -83 l-84 0 l0 83 l84 0 l0 84 l83 0 l0 166 l-333 0 l0 -250 l-84 0 l0 -166 l-83 0 l0 166 l83 0 l0 584 l417 0 l0 166 l83 0 l0 -166 l334 0 l0 -84 l-334 0 l0 -166 l334 0 l0 -84 l-334 0 l0 -83 l84 0 l0 -83 l83 0 l0 -84 l83 0 l0 -83 l84 0 l0 -83 l-84 0 l0 83 l-83 0 l0 83 l-83 0 l0 84 l-84 0 ZM167 467 l333 0 l0 166 l-333 0 l0 -166 Z" /><glyph glyph-name="" unicode="&#x5e8f;" d="M417 -117 l0 84 l166 0 l0 250 l-333 0 l0 83 l333 0 l0 83 l84 0 l0 -83 l250 0 l0 -167 l-84 0 l0 -83 l-83 0 l0 83 l83 0 l0 84 l-166 0 l0 -334 l-250 0 ZM333 467 l0 83 l500 0 l0 -83 l-83 0 l0 -84 l-83 0 l0 84 l-334 0 ZM83 133 l0 -166 l-83 0 l0 166 l83 0 ZM83 133 l0 584 l417 0 l0 166 l83 0 l0 -166 l334 0 l0 -84 l-750 0 l0 -500 l-84 0 Z" /><glyph glyph-name="" unicode="&#x5e95;" d="M167 -117 l0 84 l750 0 l0 -84 l-750 0 ZM917 50 l-167 0 l0 83 l167 0 l0 -83 ZM583 50 l-333 0 l0 500 l583 0 l0 -83 l-166 0 l0 -84 l250 0 l0 -83 l-250 0 l0 -83 l83 0 l0 -84 l-83 0 l0 84 l-84 0 l0 83 l-250 0 l0 -167 l250 0 l0 -83 ZM83 133 l0 -166 l-83 0 l0 166 l83 0 ZM83 133 l0 584 l417 0 l0 166 l83 0 l0 -166 l334 0 l0 -84 l-750 0 l0 -500 l-84 0 ZM333 383 l250 0 l0 84 l-250 0 l0 -84 Z" /><glyph glyph-name="" unicode="&#x5e9c;" d="M667 -117 l0 84 l83 0 l0 416 l-333 0 l0 84 l333 0 l0 166 l-333 0 l0 -166 l-84 0 l0 -584 l-83 0 l0 417 l-83 0 l0 -167 l-84 0 l0 -166 l-83 0 l0 166 l83 0 l0 584 l417 0 l0 166 l83 0 l0 -166 l334 0 l0 -84 l-84 0 l0 -166 l84 0 l0 -84 l-84 0 l0 -500 l-166 0 ZM500 217 l0 83 l83 0 l0 -83 l84 0 l0 -84 l-84 0 l0 84 l-83 0 ZM250 383 l0 84 l83 0 l0 166 l-166 0 l0 -250 l83 0 Z" /><glyph glyph-name="" unicode="&#x5ea6;" d="M83 -117 l0 84 l250 0 l0 -84 l-250 0 ZM250 133 l0 84 l583 0 l0 -84 l-83 0 l0 -83 l-83 0 l0 -83 l250 0 l0 -84 l-250 0 l0 84 l-334 0 l0 166 l-83 0 ZM417 50 l250 0 l0 83 l-250 0 l0 -83 ZM83 217 l0 -167 l-83 0 l0 167 l83 0 ZM83 217 l0 500 l417 0 l0 166 l83 0 l0 -166 l334 0 l0 -84 l-167 0 l0 -83 l167 0 l0 -83 l-167 0 l0 -167 l-417 0 l0 167 l-166 0 l0 -250 l-84 0 ZM417 383 l250 0 l0 84 l-250 0 l0 -84 ZM417 550 l250 0 l0 83 l-250 0 l0 -83 ZM167 550 l166 0 l0 83 l-166 0 l0 -83 Z" /><glyph glyph-name="" unicode="&#x5ea7;" d="M167 -117 l0 84 l333 0 l0 166 l-250 0 l0 84 l250 0 l0 166 l83 0 l0 -166 l334 0 l0 -84 l-334 0 l0 -166 l334 0 l0 -84 l-750 0 ZM83 133 l0 -166 l-83 0 l0 166 l83 0 ZM83 133 l0 584 l417 0 l0 166 l83 0 l0 -166 l334 0 l0 -84 l-167 0 l0 -166 l83 0 l0 -84 l84 0 l0 -83 l-84 0 l0 83 l-83 0 l0 84 l-83 0 l0 -84 l-84 0 l0 84 l84 0 l0 166 l-250 0 l0 -166 l83 0 l0 -84 l-83 0 l0 84 l-84 0 l0 -84 l-83 0 l0 -83 l-83 0 l0 -167 l-84 0 ZM250 383 l0 84 l83 0 l0 166 l-166 0 l0 -250 l83 0 Z" /><glyph glyph-name="" unicode="&#x5efa;" d="M0 -117 l0 84 l83 0 l0 -84 l-83 0 ZM333 133 l0 84 l250 0 l0 83 l-166 0 l0 83 l166 0 l0 84 l-333 0 l0 83 l333 0 l0 83 l-250 0 l0 84 l250 0 l0 166 l84 0 l0 -166 l250 0 l0 -417 l-250 0 l0 -83 l250 0 l0 -84 l-250 0 l0 -83 l-84 0 l0 83 l-250 0 ZM0 133 l0 84 l83 0 l0 -84 l84 0 l0 -83 l83 0 l0 -83 l667 0 l0 -84 l-667 0 l0 84 l-167 0 l0 166 l-83 0 ZM0 633 l0 84 l250 0 l0 -167 l-83 0 l0 -83 l-84 0 l0 -84 l167 0 l0 -250 l-83 0 l0 167 l-167 0 l0 167 l83 0 l0 83 l84 0 l0 83 l-167 0 ZM667 383 l166 0 l0 84 l-166 0 l0 -84 ZM667 550 l166 0 l0 83 l-166 0 l0 -83 Z" /><glyph glyph-name="" unicode="&#x5efb;" d="M0 133 l0 84 l83 0 l0 -84 l84 0 l0 -83 l166 0 l0 -83 l584 0 l0 -84 l-584 0 l0 84 l-166 0 l0 83 l-84 0 l0 -167 l-83 0 l0 167 l83 0 l0 83 l-83 0 ZM0 633 l0 84 l250 0 l0 -167 l-83 0 l0 -83 l-84 0 l0 -84 l167 0 l0 -250 l-83 0 l0 167 l-167 0 l0 167 l83 0 l0 83 l84 0 l0 83 l-167 0 ZM917 133 l-584 0 l0 667 l584 0 l0 -667 ZM417 217 l416 0 l0 500 l-416 0 l0 -500 ZM750 300 l-250 0 l0 333 l250 0 l0 -333 ZM667 383 l0 167 l-84 0 l0 -167 l84 0 Z" /><glyph glyph-name="" unicode="&#x5f01;" d="M0 -117 l0 84 l167 0 l0 -84 l-167 0 ZM0 217 l0 83 l250 0 l0 167 l-250 0 l0 83 l167 0 l0 83 l83 0 l0 -83 l500 0 l0 83 l83 0 l0 -83 l84 0 l0 -83 l-250 0 l0 -167 l250 0 l0 -83 l-250 0 l0 -334 l-84 0 l0 334 l-250 0 l0 -167 l-83 0 l0 -83 l-83 0 l0 83 l83 0 l0 167 l-250 0 ZM667 633 l0 84 l83 0 l0 -84 l-83 0 ZM333 300 l250 0 l0 167 l-250 0 l0 -167 ZM250 633 l0 84 l83 0 l0 -84 l-83 0 ZM333 717 l0 166 l84 0 l0 -166 l-84 0 Z" /><glyph glyph-name="" unicode="&#x5f0a;" d="M83 -117 l0 84 l167 0 l0 -84 l-167 0 ZM0 50 l0 83 l250 0 l0 167 l83 0 l0 -167 l250 0 l0 167 l84 0 l0 -167 l250 0 l0 -83 l-250 0 l0 -167 l-84 0 l0 167 l-250 0 l0 -83 l-83 0 l0 83 l-250 0 ZM333 717 l0 83 l84 0 l0 -83 l-84 0 ZM0 717 l0 83 l83 0 l0 -83 l-83 0 ZM917 300 l-167 0 l0 83 l167 0 l0 -83 ZM583 300 l-250 0 l0 83 l-83 0 l0 -83 l-83 0 l0 83 l-84 0 l0 -83 l-83 0 l0 333 l167 0 l0 250 l83 0 l0 -250 l250 0 l0 -83 l-83 0 l0 -167 l166 0 l0 -83 ZM750 383 l-167 0 l0 167 l84 0 l0 -83 l83 0 l0 -84 ZM750 467 l0 166 l-250 0 l0 250 l83 0 l0 -166 l334 0 l0 -84 l-84 0 l0 -166 l-83 0 ZM333 467 l0 83 l-83 0 l0 -83 l83 0 ZM167 467 l0 83 l-84 0 l0 -83 l84 0 Z" /><glyph glyph-name="" unicode="&#x5f0f;" d="M0 -117 l0 84 l250 0 l0 -84 l-250 0 ZM83 300 l0 83 l417 0 l0 -83 l-167 0 l0 -250 l250 0 l0 -83 l-333 0 l0 333 l-167 0 ZM0 550 l0 83 l583 0 l0 250 l84 0 l0 -250 l166 0 l0 167 l84 0 l0 -250 l-250 0 l0 -83 l83 0 l0 -250 l83 0 l0 -167 l84 0 l0 -167 l-84 0 l0 167 l-83 0 l0 167 l-83 0 l0 250 l-84 0 l0 83 l-583 0 Z" /><glyph glyph-name="" unicode="&#x5f15;" d="M83 -117 l0 84 l167 0 l0 -84 l-167 0 ZM0 717 l0 83 l417 0 l0 -333 l-334 0 l0 -167 l334 0 l0 -250 l-84 0 l0 -83 l-83 0 l0 83 l83 0 l0 167 l-333 0 l0 333 l333 0 l0 167 l-333 0 ZM833 800 l0 -917 l-83 0 l0 917 l83 0 Z" /><glyph glyph-name="" unicode="&#x5f1f;" d="M667 -117 l0 84 l166 0 l0 -84 l-166 0 ZM0 -117 l0 84 l167 0 l0 -84 l-167 0 ZM83 550 l0 83 l417 0 l0 84 l83 0 l0 -84 l250 0 l0 -250 l-333 0 l0 -83 l417 0 l0 -333 l-84 0 l0 250 l-333 0 l0 -334 l-83 0 l0 250 l-84 0 l0 -83 l-83 0 l0 -83 l-83 0 l0 83 l83 0 l0 83 l83 0 l0 84 l-250 0 l0 250 l334 0 l0 83 l-334 0 ZM167 800 l0 83 l83 0 l0 -83 l83 0 l0 -83 l-83 0 l0 83 l-83 0 ZM167 300 l250 0 l0 83 l-250 0 l0 -83 ZM500 467 l250 0 l0 83 l-250 0 l0 -83 ZM583 717 l0 166 l84 0 l0 -166 l-84 0 Z" /><glyph glyph-name="" unicode="&#x5f31;" d="M500 -117 l0 84 l83 0 l0 -84 l-83 0 ZM0 -117 l0 84 l83 0 l0 -84 l-83 0 ZM500 717 l0 83 l417 0 l0 -333 l-334 0 l0 -84 l334 0 l0 -416 l-84 0 l0 -84 l-166 0 l0 84 l166 0 l0 333 l-250 0 l0 -83 l84 0 l0 -84 l83 0 l0 -83 l-83 0 l0 -83 l-84 0 l0 83 l84 0 l0 83 l-84 0 l0 84 l-83 0 l0 333 l333 0 l0 167 l-333 0 ZM0 717 l0 83 l417 0 l0 -333 l-334 0 l0 -84 l334 0 l0 -416 l-84 0 l0 -84 l-166 0 l0 84 l166 0 l0 333 l-250 0 l0 -83 l84 0 l0 -84 l83 0 l0 -83 l-83 0 l0 -83 l-84 0 l0 83 l84 0 l0 83 l-84 0 l0 84 l-83 0 l0 333 l333 0 l0 167 l-333 0 Z" /><glyph glyph-name="" unicode="&#x5f35;" d="M0 -117 l0 84 l167 0 l0 -84 l-167 0 ZM333 217 l0 83 l84 0 l0 500 l500 0 l0 -83 l-417 0 l0 -84 l333 0 l0 -83 l-333 0 l0 -83 l333 0 l0 -84 l-333 0 l0 -83 l417 0 l0 -83 l-250 0 l0 -84 l83 0 l0 -83 l83 0 l0 -83 l84 0 l0 -84 l-84 0 l0 84 l-83 0 l0 83 l-83 0 l0 83 l-84 0 l0 84 l-83 0 l0 -250 l167 0 l0 -84 l-250 0 l0 334 l-84 0 ZM0 717 l0 83 l250 0 l0 -333 l-167 0 l0 -167 l167 0 l0 -333 l-83 0 l0 250 l-167 0 l0 333 l167 0 l0 167 l-167 0 ZM833 50 l0 83 l84 0 l0 -83 l-84 0 Z" /><glyph glyph-name="" unicode="&#x5f37;" d="M333 -117 l0 84 l250 0 l0 166 l-250 0 l0 334 l250 0 l0 83 l-250 0 l0 167 l84 0 l0 -84 l416 0 l0 84 l84 0 l0 -167 l-250 0 l0 -83 l250 0 l0 -334 l-250 0 l0 -166 l166 0 l0 83 l84 0 l0 -167 l-584 0 ZM0 -117 l0 84 l167 0 l0 -84 l-167 0 ZM0 717 l0 83 l250 0 l0 -333 l-167 0 l0 -167 l167 0 l0 -333 l-83 0 l0 250 l-167 0 l0 333 l167 0 l0 167 l-167 0 ZM667 217 l166 0 l0 166 l-166 0 l0 -166 ZM417 217 l166 0 l0 166 l-166 0 l0 -166 ZM417 717 l0 83 l83 0 l0 -83 l-83 0 ZM500 800 l0 83 l83 0 l0 -83 l-83 0 Z" /><glyph glyph-name="" unicode="&#x5f53;" d="M83 -117 l0 84 l750 0 l0 166 l-750 0 l0 84 l750 0 l0 166 l-750 0 l0 84 l334 0 l0 416 l83 0 l0 -416 l417 0 l0 -584 l-834 0 ZM750 550 l0 83 l83 0 l0 -83 l-83 0 ZM83 633 l0 84 l84 0 l0 -84 l83 0 l0 -83 l-83 0 l0 83 l-84 0 ZM833 633 l0 84 l84 0 l0 -84 l-84 0 Z" /><glyph glyph-name="" unicode="&#x5f71;" d="M667 -117 l0 84 l83 0 l0 -84 l-83 0 ZM167 -117 l0 84 l83 0 l0 83 l-167 0 l0 -167 l-83 0 l0 167 l83 0 l0 167 l-83 0 l0 83 l250 0 l0 83 l-250 0 l0 417 l500 0 l0 -417 l-167 0 l0 -83 l250 0 l0 -83 l-166 0 l0 -167 l83 0 l0 -83 l83 0 l0 -84 l-83 0 l0 84 l-83 0 l0 83 l-84 0 l0 -167 l-166 0 ZM667 217 l0 83 l83 0 l0 -83 l-83 0 ZM667 550 l0 83 l83 0 l0 -83 l-83 0 ZM750 -33 l0 83 l83 0 l0 -83 l-83 0 ZM833 50 l0 83 l84 0 l0 -83 l-84 0 ZM167 133 l166 0 l0 84 l-166 0 l0 -84 ZM750 300 l0 83 l83 0 l0 -83 l-83 0 ZM833 383 l0 84 l84 0 l0 -84 l-84 0 ZM83 467 l334 0 l0 83 l-334 0 l0 -83 ZM83 633 l334 0 l0 84 l-334 0 l0 -84 ZM750 633 l0 84 l83 0 l0 -84 l-83 0 ZM833 717 l0 83 l84 0 l0 -83 l-84 0 Z" /><glyph glyph-name="" unicode="&#x5f7c;" d="M333 -117 l0 84 l167 0 l0 -84 l-167 0 ZM500 217 l0 83 l83 0 l0 -83 l84 0 l0 -84 l83 0 l0 -83 l83 0 l0 -83 l84 0 l0 -84 l-84 0 l0 84 l-83 0 l0 83 l-83 0 l0 -83 l-167 0 l0 83 l167 0 l0 83 l-84 0 l0 84 l-83 0 ZM0 217 l0 83 l83 0 l0 83 l84 0 l0 -500 l-84 0 l0 334 l-83 0 ZM0 550 l0 83 l83 0 l0 -83 l-83 0 ZM750 133 l0 250 l-333 0 l0 -166 l-84 0 l0 -167 l-83 0 l0 167 l83 0 l0 500 l250 0 l0 166 l84 0 l0 -166 l250 0 l0 -167 l-84 0 l0 83 l-166 0 l0 -166 l166 0 l0 -334 l-83 0 ZM417 467 l166 0 l0 166 l-166 0 l0 -166 ZM167 383 l0 84 l83 0 l0 -84 l-83 0 ZM83 633 l0 84 l84 0 l0 -84 l-84 0 ZM167 717 l0 83 l83 0 l0 -83 l-83 0 Z" /><glyph glyph-name="" unicode="&#x5f84;" d="M333 -117 l0 84 l250 0 l0 166 l-166 0 l0 84 l166 0 l0 166 l84 0 l0 -166 l250 0 l0 -84 l-250 0 l0 -166 l250 0 l0 -84 l-584 0 ZM0 217 l0 83 l83 0 l0 83 l84 0 l0 -500 l-84 0 l0 334 l-83 0 ZM333 383 l0 84 l250 0 l0 -84 l-250 0 ZM500 550 l0 83 l83 0 l0 -83 l167 0 l0 -83 l167 0 l0 -84 l-167 0 l0 84 l-167 0 l0 83 l-83 0 ZM0 550 l0 83 l83 0 l0 -83 l-83 0 ZM333 717 l0 83 l584 0 l0 -167 l-84 0 l0 -83 l-83 0 l0 83 l83 0 l0 84 l-500 0 ZM167 383 l0 84 l83 0 l0 -84 l-83 0 ZM83 633 l0 84 l84 0 l0 -84 l-84 0 ZM167 717 l0 83 l83 0 l0 -83 l-83 0 Z" /><glyph glyph-name="" unicode="&#x5f85;" d="M667 -117 l0 84 l83 0 l0 250 l-417 0 l0 83 l417 0 l0 83 l-417 0 l0 84 l250 0 l0 166 l-166 0 l0 84 l166 0 l0 166 l84 0 l0 -166 l250 0 l0 -84 l-250 0 l0 -166 l250 0 l0 -84 l-84 0 l0 -83 l84 0 l0 -83 l-84 0 l0 -334 l-166 0 ZM417 50 l0 83 l83 0 l0 -83 l83 0 l0 -83 l-83 0 l0 83 l-83 0 ZM0 217 l0 83 l83 0 l0 83 l84 0 l0 -500 l-84 0 l0 334 l-83 0 ZM0 550 l0 83 l83 0 l0 -83 l-83 0 ZM167 383 l0 84 l83 0 l0 -84 l-83 0 ZM83 633 l0 84 l84 0 l0 -84 l-84 0 ZM167 717 l0 83 l83 0 l0 -83 l-83 0 Z" /><glyph glyph-name="" unicode="&#x5f8b;" d="M250 -33 l0 83 l333 0 l0 83 l-250 0 l0 84 l250 0 l0 83 l-250 0 l0 83 l250 0 l0 84 l-333 0 l0 -84 l-83 0 l0 -500 l-84 0 l0 334 l-83 0 l0 83 l83 0 l0 83 l84 0 l0 84 l83 0 l0 83 l333 0 l0 83 l-250 0 l0 84 l250 0 l0 166 l84 0 l0 -166 l250 0 l0 -417 l-250 0 l0 -83 l250 0 l0 -84 l-250 0 l0 -83 l250 0 l0 -83 l-250 0 l0 -84 l-84 0 l0 84 l-333 0 ZM0 550 l0 83 l83 0 l0 -83 l-83 0 ZM667 383 l166 0 l0 84 l-166 0 l0 -84 ZM667 550 l166 0 l0 83 l-166 0 l0 -83 ZM83 633 l0 84 l84 0 l0 -84 l-84 0 ZM167 717 l0 83 l83 0 l0 -83 l-83 0 Z" /><glyph glyph-name="" unicode="&#x5f8c;" d="M250 -117 l0 84 l250 0 l0 -84 l-250 0 ZM250 50 l0 83 l83 0 l0 -83 l-83 0 ZM0 217 l0 83 l83 0 l0 83 l84 0 l0 -500 l-84 0 l0 334 l-83 0 ZM333 300 l0 83 l167 0 l0 84 l83 0 l0 -84 l167 0 l0 167 l83 0 l0 -167 l84 0 l0 -83 l-417 0 l0 -83 l333 0 l0 -167 l-83 0 l0 -83 l167 0 l0 -84 l-167 0 l0 84 l-250 0 l0 83 l250 0 l0 83 l-250 0 l0 -83 l-83 0 l0 83 l-84 0 l0 84 l84 0 l0 83 l-84 0 ZM333 550 l0 83 l84 0 l0 -83 l83 0 l0 -83 l-83 0 l0 83 l-84 0 ZM0 550 l0 83 l83 0 l0 -83 l-83 0 ZM167 383 l0 84 l83 0 l0 -84 l-83 0 ZM583 467 l0 166 l84 0 l0 -166 l-84 0 ZM667 633 l0 167 l83 0 l0 -167 l-83 0 ZM417 633 l0 84 l83 0 l0 -84 l-83 0 ZM83 633 l0 84 l84 0 l0 -84 l-84 0 ZM500 717 l0 83 l83 0 l0 -83 l-83 0 ZM167 717 l0 83 l83 0 l0 -83 l-83 0 Z" /><glyph glyph-name="" unicode="&#x5f92;" d="M0 217 l0 83 l83 0 l0 83 l84 0 l0 -416 l166 0 l0 -84 l-250 0 l0 334 l-83 0 ZM333 383 l0 84 l250 0 l0 166 l-250 0 l0 84 l250 0 l0 166 l84 0 l0 -166 l250 0 l0 -84 l-250 0 l0 -166 l250 0 l0 -84 l-250 0 l0 -166 l250 0 l0 -84 l-250 0 l0 -166 l250 0 l0 -84 l-250 0 l0 84 l-334 0 l0 250 l84 0 l0 -167 l166 0 l0 333 l-250 0 ZM0 550 l0 83 l83 0 l0 -83 l-83 0 ZM167 383 l0 84 l83 0 l0 -84 l-83 0 ZM83 633 l0 84 l84 0 l0 -84 l-84 0 ZM167 717 l0 83 l83 0 l0 -83 l-83 0 Z" /><glyph glyph-name="" unicode="&#x5f93;" d="M0 217 l0 83 l83 0 l0 83 l84 0 l0 -416 l166 0 l0 -84 l-250 0 l0 334 l-83 0 ZM333 550 l0 83 l334 0 l0 84 l83 0 l0 -84 l167 0 l0 -83 l-250 0 l0 -250 l250 0 l0 -83 l-250 0 l0 -250 l250 0 l0 -84 l-250 0 l0 84 l-334 0 l0 416 l84 0 l0 -333 l166 0 l0 500 l-250 0 ZM0 550 l0 83 l83 0 l0 -83 l-83 0 ZM333 800 l0 83 l84 0 l0 -83 l83 0 l0 -83 l-83 0 l0 83 l-84 0 ZM167 383 l0 84 l83 0 l0 -84 l-83 0 ZM83 633 l0 84 l84 0 l0 -84 l-84 0 ZM750 717 l0 166 l83 0 l0 -166 l-83 0 ZM167 717 l0 83 l83 0 l0 -83 l-83 0 Z" /><glyph glyph-name="" unicode="&#x5f97;" d="M667 -117 l0 84 l83 0 l0 250 l-417 0 l0 83 l417 0 l0 83 l-333 0 l0 417 l500 0 l0 -417 l-84 0 l0 -83 l84 0 l0 -83 l-84 0 l0 -334 l-166 0 ZM417 50 l0 83 l83 0 l0 -83 l83 0 l0 -83 l-83 0 l0 83 l-83 0 ZM0 217 l0 83 l83 0 l0 83 l84 0 l0 -500 l-84 0 l0 334 l-83 0 ZM0 550 l0 83 l83 0 l0 -83 l-83 0 ZM500 467 l333 0 l0 83 l-333 0 l0 -83 ZM167 383 l0 84 l83 0 l0 -84 l-83 0 ZM500 633 l333 0 l0 84 l-333 0 l0 -84 ZM83 633 l0 84 l84 0 l0 -84 l-84 0 ZM167 717 l0 83 l83 0 l0 -83 l-83 0 Z" /><glyph glyph-name="" unicode="&#x5fb3;" d="M750 50 l0 83 l83 0 l0 -83 l84 0 l0 -83 l-84 0 l0 83 l-83 0 ZM0 217 l0 83 l83 0 l0 83 l84 0 l0 -333 l83 0 l0 -83 l-83 0 l0 -84 l-84 0 l0 334 l-83 0 ZM0 550 l0 83 l83 0 l0 -83 l-83 0 ZM333 633 l0 84 l250 0 l0 166 l84 0 l0 -166 l250 0 l0 -84 l-250 0 l0 -83 l250 0 l0 -333 l-334 0 l0 -84 l84 0 l0 -83 l-84 0 l0 83 l-83 0 l0 84 l-167 0 l0 333 l250 0 l0 83 l-250 0 ZM750 -117 l-333 0 l0 84 l333 0 l0 -84 ZM417 -33 l-84 0 l0 166 l84 0 l0 -166 ZM833 300 l0 167 l-83 0 l0 -167 l83 0 ZM667 300 l0 167 l-84 0 l0 -167 l84 0 ZM500 300 l0 167 l-83 0 l0 -167 l83 0 ZM167 383 l0 84 l83 0 l0 -84 l-83 0 ZM83 633 l0 84 l84 0 l0 -84 l-84 0 ZM167 717 l0 83 l83 0 l0 -83 l-83 0 Z" /><glyph glyph-name="" unicode="&#x5fb4;" d="M250 -117 l0 84 l167 0 l0 166 l-167 0 l0 84 l167 0 l0 166 l-250 0 l0 -500 l-84 0 l0 334 l-83 0 l0 83 l83 0 l0 83 l84 0 l0 84 l500 0 l0 -84 l83 0 l0 -166 l83 0 l0 -167 l84 0 l0 -167 l-84 0 l0 167 l-83 0 l0 -83 l-83 0 l0 -84 l-417 0 ZM0 550 l0 83 l83 0 l0 -83 l-83 0 ZM500 -33 l167 0 l0 83 l83 0 l0 167 l-83 0 l0 -84 l-167 0 l0 -166 ZM500 217 l167 0 l0 166 l-167 0 l0 -166 ZM833 217 l0 416 l-83 0 l0 -83 l-500 0 l0 250 l83 0 l0 -167 l84 0 l0 250 l83 0 l0 -250 l167 0 l0 250 l83 0 l0 -166 l167 0 l0 -500 l-84 0 ZM83 633 l0 84 l84 0 l0 -84 l-84 0 Z" /><glyph glyph-name="" unicode="&#x5fc3;" d="M250 717 l0 83 l167 0 l0 -83 l166 0 l0 -84 l-166 0 l0 84 l-167 0 ZM667 -117 l-334 0 l0 84 l334 0 l0 -84 ZM667 -33 l0 166 l83 0 l0 -166 l-83 0 ZM333 -33 l-83 0 l0 500 l83 0 l0 -500 ZM83 217 l0 -167 l-83 0 l0 167 l83 0 ZM917 300 l0 -167 l-84 0 l0 167 l84 0 ZM83 217 l0 166 l84 0 l0 -166 l-84 0 ZM833 300 l-83 0 l0 167 l83 0 l0 -167 Z" /><glyph glyph-name="" unicode="&#x5fc5;" d="M83 -117 l0 84 l84 0 l0 -84 l-84 0 ZM250 717 l0 83 l167 0 l0 -83 l166 0 l0 -84 l-166 0 l0 84 l-167 0 ZM667 -117 l-334 0 l0 84 l334 0 l0 -84 ZM667 -33 l0 166 l83 0 l0 -166 l-83 0 ZM333 -33 l-166 0 l0 83 l83 0 l0 500 l83 0 l0 -333 l84 0 l0 -84 l-84 0 l0 -166 ZM917 383 l0 -250 l-84 0 l0 250 l84 0 ZM417 217 l0 83 l83 0 l0 -83 l-83 0 ZM83 300 l0 -167 l-83 0 l0 167 l83 0 ZM500 300 l0 83 l83 0 l0 -83 l-83 0 ZM83 300 l0 167 l84 0 l0 -167 l-84 0 ZM833 383 l-83 0 l0 167 l83 0 l0 -167 ZM583 383 l0 84 l84 0 l0 -84 l-84 0 Z" /><glyph glyph-name="" unicode="&#x5fd8;" d="M0 -33 l0 83 l83 0 l0 -83 l-83 0 ZM750 50 l0 83 l83 0 l0 -83 l84 0 l0 -83 l-84 0 l0 83 l-83 0 ZM0 633 l0 84 l417 0 l0 166 l83 0 l0 -166 l417 0 l0 -84 l-667 0 l0 -250 l583 0 l0 -83 l-333 0 l0 -83 l83 0 l0 -84 l-83 0 l0 84 l-83 0 l0 83 l-167 0 l0 83 l-83 0 l0 250 l-167 0 ZM750 -117 l-417 0 l0 84 l417 0 l0 -84 ZM333 -33 l-83 0 l0 250 l83 0 l0 -250 ZM83 50 l0 83 l84 0 l0 -83 l-84 0 Z" /><glyph glyph-name="" unicode="&#x5fdc;" d="M750 217 l0 83 l83 0 l0 -83 l84 0 l0 -84 l-84 0 l0 84 l-83 0 ZM500 467 l0 83 l83 0 l0 -83 l84 0 l0 -84 l-84 0 l0 84 l-83 0 ZM917 -117 l-417 0 l0 84 l333 0 l0 83 l84 0 l0 -167 ZM500 -33 l-83 0 l0 333 l83 0 l0 -333 ZM83 50 l0 -167 l-83 0 l0 167 l83 0 ZM250 50 l0 -83 l-83 0 l0 83 l83 0 ZM250 50 l0 83 l83 0 l0 -83 l-83 0 ZM167 50 l-84 0 l0 667 l417 0 l0 166 l83 0 l0 -166 l334 0 l0 -84 l-750 0 l0 -583 Z" /><glyph glyph-name="" unicode="&#x5fe0;" d="M0 -33 l0 83 l83 0 l0 -83 l-83 0 ZM750 50 l0 83 l83 0 l0 -83 l84 0 l0 -83 l-84 0 l0 83 l-83 0 ZM417 217 l0 83 l83 0 l0 -83 l83 0 l0 -84 l-83 0 l0 84 l-83 0 ZM750 -117 l-417 0 l0 84 l417 0 l0 -84 ZM333 -33 l-83 0 l0 250 l83 0 l0 -250 ZM83 50 l0 83 l84 0 l0 -83 l-84 0 ZM833 383 l-750 0 l0 334 l334 0 l0 166 l83 0 l0 -166 l333 0 l0 -334 ZM500 467 l250 0 l0 166 l-250 0 l0 -166 ZM167 467 l250 0 l0 166 l-250 0 l0 -166 Z" /><glyph glyph-name="" unicode="&#x5feb;" d="M333 633 l0 84 l250 0 l0 166 l84 0 l0 -166 l250 0 l0 -417 l-250 0 l0 -167 l83 0 l0 -83 l83 0 l0 -83 l84 0 l0 -84 l-84 0 l0 84 l-83 0 l0 83 l-83 0 l0 83 l-84 0 l0 -83 l-83 0 l0 -83 l-83 0 l0 -84 l-250 0 l0 917 l83 0 l0 -417 l333 0 l0 250 l-250 0 ZM250 -33 l167 0 l0 83 l83 0 l0 83 l83 0 l0 167 l-333 0 l0 -333 ZM83 550 l0 -417 l-83 0 l0 417 l83 0 ZM667 383 l166 0 l0 250 l-166 0 l0 -250 Z" /></font>
</defs>
</svg>
