<?xml version="1.0" standalone="no"?><!DOCTYPE svg PUBLIC "-//W3C//DTD SVG 1.1//EN" "http://www.w3.org/Graphics/SVG/1.1/DTD/svg11.dtd" ><svg xmlns="http://www.w3.org/2000/svg"><metadata></metadata><defs><font id="FontForge 2.0 : PixelMplus10 Bold : 2-6-2013" horiz-adv-x="1000"><font-face font-family="PixelMplus10" font-weight="700" font-stretch="normal" units-per-em="1000" panose-1="2 11 7 9 2 2 3 2 2 7" ascent="900" descent="-200" x-height="7" bbox="0 -200 1000 900" underline-thickness="50" underline-position="-125" unicode-range="U+000a-ff3d" /><missing-glyph horiz-adv-x="364" d="M33 0 l0 666 l265 0 l0 -666 l-265 0 ZM66 33 l199 0 l0 600 l-199 0 l0 -600 Z" /><glyph glyph-name="" unicode="" d="M0 200 l0 100 l400 0 l0 -100 l-100 0 l0 -300 l-200 0 l0 300 l-100 0 ZM200 400 l-200 0 l0 400 l200 0 l0 -200 l100 0 l0 -100 l-100 0 l0 -100 ZM300 600 l0 200 l100 0 l0 -200 l-100 0 Z" /><glyph glyph-name="" unicode=" " d="" /><glyph glyph-name="" unicode="!" d="M100 0 l0 100 l200 0 l0 -100 l-200 0 ZM300 200 l-200 0 l0 500 l200 0 l0 -500 Z" /><glyph glyph-name="" unicode="&quot;" d="M500 400 l-200 0 l0 400 l200 0 l0 -400 ZM200 400 l-200 0 l0 400 l200 0 l0 -400 Z" /><glyph glyph-name="" unicode="#" d="M400 0 l-200 0 l0 200 l-100 0 l0 -200 l-100 0 l0 700 l100 0 l0 -200 l100 0 l0 200 l200 0 l0 -200 l100 0 l0 -100 l-100 0 l0 -100 l100 0 l0 -100 l-100 0 l0 -200 ZM200 300 l0 100 l-100 0 l0 -100 l100 0 Z" /><glyph glyph-name="" unicode="$" d="M0 0 l0 100 l100 0 l0 200 l-100 0 l0 200 l100 0 l0 100 l200 0 l0 100 l100 0 l0 -100 l100 0 l0 -100 l-100 0 l0 -200 l100 0 l0 -200 l-100 0 l0 -100 l-200 0 l0 -100 l-100 0 l0 100 l-100 0 ZM300 100 l0 100 l-100 0 l0 -100 l100 0 ZM300 400 l0 100 l-100 0 l0 -100 l100 0 Z" /><glyph glyph-name="" unicode="%" d="M0 200 l0 100 l100 0 l0 100 l200 0 l0 100 l200 0 l0 -100 l-100 0 l0 -100 l-200 0 l0 -100 l-200 0 ZM500 0 l-200 0 l0 200 l200 0 l0 -200 ZM200 500 l-200 0 l0 200 l200 0 l0 -200 Z" /><glyph glyph-name="" unicode="&amp;" d="M300 0 l-200 0 l0 100 l-100 0 l0 200 l100 0 l0 100 l-100 0 l0 200 l100 0 l0 100 l300 0 l0 -100 l100 0 l0 -200 l-200 0 l0 -100 l200 0 l0 -300 l-100 0 l0 100 l-100 0 l0 -100 ZM300 100 l0 200 l-100 0 l0 -200 l100 0 ZM300 400 l0 200 l-100 0 l0 -200 l100 0 Z" /><glyph glyph-name="" unicode="&#39;" d="M300 400 l-200 0 l0 400 l200 0 l0 -400 Z" /><glyph glyph-name="" unicode="(" d="M400 -100 l-200 0 l0 100 l-100 0 l0 200 l-100 0 l0 300 l100 0 l0 200 l100 0 l0 100 l200 0 l0 -100 l-100 0 l0 -200 l-100 0 l0 -300 l100 0 l0 -200 l100 0 l0 -100 Z" /><glyph glyph-name="" unicode=")" d="M0 -100 l0 100 l100 0 l0 200 l100 0 l0 300 l-100 0 l0 200 l-100 0 l0 100 l200 0 l0 -100 l100 0 l0 -200 l100 0 l0 -300 l-100 0 l0 -200 l-100 0 l0 -100 l-200 0 Z" /><glyph glyph-name="" unicode="*" d="M0 100 l0 100 l100 0 l0 100 l-100 0 l0 100 l100 0 l0 100 l-100 0 l0 100 l200 0 l0 -100 l100 0 l0 100 l200 0 l0 -100 l-100 0 l0 -100 l100 0 l0 -100 l-100 0 l0 -100 l100 0 l0 -100 l-200 0 l0 100 l-100 0 l0 -100 l-200 0 Z" /><glyph glyph-name="" unicode="+" d="M0 300 l0 100 l100 0 l0 200 l200 0 l0 -200 l200 0 l0 -100 l-200 0 l0 -200 l-200 0 l0 200 l-100 0 Z" /><glyph glyph-name="" unicode="," d="M0 -100 l0 100 l100 0 l0 200 l200 0 l0 -200 l-100 0 l0 -100 l-200 0 Z" /><glyph glyph-name="" unicode="-" d="M0 300 l0 100 l400 0 l0 -100 l-400 0 Z" /><glyph glyph-name="" unicode="." d="M300 0 l-200 0 l0 200 l200 0 l0 -200 Z" /><glyph glyph-name="" unicode="/" d="M200 -100 l-200 0 l0 300 l100 0 l0 200 l100 0 l0 300 l200 0 l0 -300 l-100 0 l0 -200 l-100 0 l0 -300 Z" /><glyph glyph-name="" unicode="0" d="M400 0 l-300 0 l0 100 l-100 0 l0 500 l100 0 l0 100 l300 0 l0 -100 l100 0 l0 -500 l-100 0 l0 -100 ZM300 100 l0 200 l-100 0 l0 -200 l100 0 ZM300 400 l0 200 l-100 0 l0 -200 l100 0 Z" /><glyph glyph-name="" unicode="1" d="M0 400 l0 100 l100 0 l0 -100 l-100 0 ZM400 0 l-200 0 l0 500 l-100 0 l0 100 l100 0 l0 100 l200 0 l0 -700 Z" /><glyph glyph-name="" unicode="2" d="M0 500 l0 100 l100 0 l0 100 l300 0 l0 -100 l100 0 l0 -300 l-100 0 l0 -100 l-100 0 l0 -100 l200 0 l0 -100 l-500 0 l0 200 l100 0 l0 100 l100 0 l0 100 l100 0 l0 200 l-100 0 l0 -100 l-200 0 Z" /><glyph glyph-name="" unicode="3" d="M0 100 l0 100 l200 0 l0 -100 l100 0 l0 200 l-200 0 l0 100 l100 0 l0 100 l100 0 l0 100 l-300 0 l0 100 l500 0 l0 -200 l-100 0 l0 -200 l100 0 l0 -200 l-100 0 l0 -100 l-300 0 l0 100 l-100 0 Z" /><glyph glyph-name="" unicode="4" d="M400 0 l-200 0 l0 200 l-200 0 l0 300 l100 0 l0 -200 l100 0 l0 200 l-100 0 l0 100 l100 0 l0 100 l200 0 l0 -400 l100 0 l0 -100 l-100 0 l0 -200 Z" /><glyph glyph-name="" unicode="5" d="M0 100 l0 100 l200 0 l0 -100 l100 0 l0 300 l-300 0 l0 300 l500 0 l0 -100 l-300 0 l0 -100 l200 0 l0 -100 l100 0 l0 -300 l-100 0 l0 -100 l-300 0 l0 100 l-100 0 Z" /><glyph glyph-name="" unicode="6" d="M400 0 l-300 0 l0 100 l-100 0 l0 500 l100 0 l0 100 l300 0 l0 -100 l-200 0 l0 -100 l200 0 l0 -100 l100 0 l0 -300 l-100 0 l0 -100 ZM300 100 l0 300 l-100 0 l0 -300 l100 0 Z" /><glyph glyph-name="" unicode="7" d="M0 600 l0 100 l500 0 l0 -200 l-100 0 l0 -200 l-100 0 l0 -300 l-200 0 l0 300 l100 0 l0 200 l100 0 l0 100 l-300 0 Z" /><glyph glyph-name="" unicode="8" d="M400 0 l-300 0 l0 100 l-100 0 l0 200 l100 0 l0 100 l-100 0 l0 200 l100 0 l0 100 l300 0 l0 -100 l100 0 l0 -200 l-100 0 l0 -100 l100 0 l0 -200 l-100 0 l0 -100 ZM300 100 l0 200 l-100 0 l0 -200 l100 0 ZM300 400 l0 200 l-100 0 l0 -200 l100 0 Z" /><glyph glyph-name="" unicode="9" d="M100 0 l0 100 l200 0 l0 100 l-200 0 l0 100 l-100 0 l0 300 l100 0 l0 100 l300 0 l0 -100 l100 0 l0 -500 l-100 0 l0 -100 l-300 0 ZM300 300 l0 300 l-100 0 l0 -300 l100 0 Z" /><glyph glyph-name="" unicode=":" d="M300 0 l-200 0 l0 200 l200 0 l0 -200 ZM300 400 l-200 0 l0 200 l200 0 l0 -200 Z" /><glyph glyph-name="" unicode=";" d="M0 -100 l0 100 l100 0 l0 200 l200 0 l0 -200 l-100 0 l0 -100 l-200 0 ZM300 400 l-200 0 l0 200 l200 0 l0 -200 Z" /><glyph glyph-name="" unicode="&lt;" d="M0 300 l0 100 l100 0 l0 100 l100 0 l0 100 l100 0 l0 100 l100 0 l0 -200 l-100 0 l0 -100 l-100 0 l0 -100 l100 0 l0 -100 l100 0 l0 -200 l-100 0 l0 100 l-100 0 l0 100 l-100 0 l0 100 l-100 0 Z" /><glyph glyph-name="" unicode="=" d="M0 200 l0 100 l400 0 l0 -100 l-400 0 ZM0 400 l0 100 l400 0 l0 -100 l-400 0 Z" /><glyph glyph-name="" unicode="&gt;" d="M100 100 l0 -100 l-100 0 l0 200 l100 0 l0 100 l100 0 l0 100 l-100 0 l0 100 l-100 0 l0 200 l100 0 l0 -100 l100 0 l0 -100 l100 0 l0 -100 l100 0 l0 -100 l-100 0 l0 -100 l-100 0 l0 -100 l-100 0 Z" /><glyph glyph-name="" unicode="?" d="M100 0 l0 100 l200 0 l0 -100 l-200 0 ZM100 200 l0 100 l100 0 l0 100 l100 0 l0 200 l-100 0 l0 -100 l-200 0 l0 100 l100 0 l0 100 l300 0 l0 -100 l100 0 l0 -200 l-100 0 l0 -100 l-100 0 l0 -100 l-200 0 Z" /><glyph glyph-name="" unicode="@" d="M400 0 l-300 0 l0 100 l-100 0 l0 500 l100 0 l0 100 l300 0 l0 -100 l100 0 l0 -400 l-300 0 l0 -100 l200 0 l0 -100 ZM200 200 l0 300 l100 0 l0 100 l-100 0 l0 -100 l-100 0 l0 -300 l100 0 Z" /><glyph glyph-name="" unicode="a" d="M500 0 l-200 0 l0 300 l-100 0 l0 -300 l-200 0 l0 600 l100 0 l0 100 l300 0 l0 -100 l100 0 l0 -600 ZM300 400 l0 200 l-100 0 l0 -200 l100 0 Z" /><glyph glyph-name="" unicode="b" d="M400 0 l-400 0 l0 700 l400 0 l0 -100 l100 0 l0 -200 l-100 0 l0 -100 l100 0 l0 -200 l-100 0 l0 -100 ZM300 100 l0 200 l-100 0 l0 -200 l100 0 ZM300 400 l0 200 l-100 0 l0 -200 l100 0 Z" /><glyph glyph-name="" unicode="c" d="M400 0 l-300 0 l0 100 l-100 0 l0 500 l100 0 l0 100 l300 0 l0 -100 l100 0 l0 -100 l-200 0 l0 100 l-100 0 l0 -500 l100 0 l0 100 l200 0 l0 -100 l-100 0 l0 -100 Z" /><glyph glyph-name="" unicode="d" d="M400 0 l-400 0 l0 700 l400 0 l0 -100 l100 0 l0 -500 l-100 0 l0 -100 ZM300 100 l0 500 l-100 0 l0 -500 l100 0 Z" /><glyph glyph-name="" unicode="e" d="M500 0 l-500 0 l0 700 l500 0 l0 -100 l-300 0 l0 -200 l200 0 l0 -100 l-200 0 l0 -200 l300 0 l0 -100 Z" /><glyph glyph-name="" unicode="f" d="M200 0 l-200 0 l0 700 l500 0 l0 -100 l-300 0 l0 -200 l200 0 l0 -100 l-200 0 l0 -300 Z" /><glyph glyph-name="" unicode="g" d="M500 0 l-400 0 l0 100 l-100 0 l0 500 l100 0 l0 100 l300 0 l0 -100 l100 0 l0 -100 l-200 0 l0 100 l-100 0 l0 -200 l300 0 l0 -400 ZM300 100 l0 200 l-100 0 l0 -200 l100 0 Z" /><glyph glyph-name="" unicode="h" d="M500 0 l-200 0 l0 300 l-100 0 l0 -300 l-200 0 l0 700 l200 0 l0 -300 l100 0 l0 300 l200 0 l0 -700 Z" /><glyph glyph-name="" unicode="i" d="M0 0 l0 100 l100 0 l0 500 l-100 0 l0 100 l400 0 l0 -100 l-100 0 l0 -500 l100 0 l0 -100 l-400 0 Z" /><glyph glyph-name="" unicode="k" d="M500 0 l-200 0 l0 300 l-100 0 l0 -300 l-200 0 l0 700 l200 0 l0 -200 l100 0 l0 200 l200 0 l0 -200 l-100 0 l0 -200 l100 0 l0 -300 Z" /><glyph glyph-name="" unicode="l" d="M400 0 l-400 0 l0 700 l200 0 l0 -600 l200 0 l0 -100 Z" /><glyph glyph-name="" unicode="m" d="M500 0 l-200 0 l0 200 l-100 0 l0 -200 l-200 0 l0 700 l200 0 l0 -200 l100 0 l0 100 l100 0 l0 100 l100 0 l0 -700 Z" /><glyph glyph-name="" unicode="n" d="M200 0 l-200 0 l0 700 l200 0 l0 -100 l100 0 l0 -100 l100 0 l0 200 l100 0 l0 -700 l-100 0 l0 100 l-100 0 l0 100 l-100 0 l0 -200 Z" /><glyph glyph-name="" unicode="o" d="M400 0 l-300 0 l0 100 l-100 0 l0 500 l100 0 l0 100 l300 0 l0 -100 l100 0 l0 -500 l-100 0 l0 -100 ZM300 100 l0 500 l-100 0 l0 -500 l100 0 Z" /><glyph glyph-name="" unicode="p" d="M200 0 l-200 0 l0 700 l400 0 l0 -100 l100 0 l0 -300 l-100 0 l0 -100 l-200 0 l0 -200 ZM300 300 l0 300 l-100 0 l0 -300 l100 0 Z" /><glyph glyph-name="" unicode="r" d="M500 0 l-200 0 l0 300 l-100 0 l0 -300 l-200 0 l0 700 l400 0 l0 -100 l100 0 l0 -200 l-100 0 l0 -100 l100 0 l0 -300 ZM300 400 l0 200 l-100 0 l0 -200 l100 0 Z" /><glyph glyph-name="" unicode="s" d="M0 100 l0 100 l200 0 l0 -100 l100 0 l0 100 l-100 0 l0 100 l-100 0 l0 100 l-100 0 l0 200 l100 0 l0 100 l300 0 l0 -100 l100 0 l0 -100 l-200 0 l0 -100 l100 0 l0 -100 l100 0 l0 -200 l-100 0 l0 -100 l-300 0 l0 100 l-100 0 ZM300 500 l0 100 l-100 0 l0 -100 l100 0 Z" /><glyph glyph-name="" unicode="t" d="M0 600 l0 100 l500 0 l0 -100 l-200 0 l0 -600 l-200 0 l0 600 l-100 0 Z" /><glyph glyph-name="" unicode="u" d="M400 0 l-300 0 l0 100 l-100 0 l0 600 l200 0 l0 -600 l100 0 l0 600 l200 0 l0 -600 l-100 0 l0 -100 Z" /><glyph glyph-name="" unicode="w" d="M200 0 l-200 0 l0 700 l200 0 l0 -200 l100 0 l0 200 l200 0 l0 -700 l-100 0 l0 100 l-100 0 l0 100 l-100 0 l0 -200 Z" /><glyph glyph-name="" unicode="x" d="M500 0 l-200 0 l0 300 l-100 0 l0 -300 l-200 0 l0 300 l100 0 l0 100 l-100 0 l0 300 l200 0 l0 -300 l100 0 l0 300 l200 0 l0 -300 l-100 0 l0 -100 l100 0 l0 -300 Z" /><glyph glyph-name="" unicode="y" d="M300 0 l-200 0 l0 300 l-100 0 l0 400 l200 0 l0 -300 l100 0 l0 300 l200 0 l0 -300 l-100 0 l0 -100 l-100 0 l0 -300 Z" /><glyph glyph-name="" unicode="[" d="M400 -100 l-300 0 l0 900 l300 0 l0 -100 l-100 0 l0 -700 l100 0 l0 -100 Z" /><glyph glyph-name="" unicode="\" d="M400 -100 l-200 0 l0 300 l-100 0 l0 200 l-100 0 l0 300 l200 0 l0 -300 l100 0 l0 -200 l100 0 l0 -300 Z" /><glyph glyph-name="" unicode="]" d="M0 -100 l0 100 l100 0 l0 700 l-100 0 l0 100 l300 0 l0 -900 l-300 0 Z" /><glyph glyph-name="" unicode="_" d="M0 -100 l0 100 l400 0 l0 -100 l-400 0 Z" /><glyph glyph-name="" unicode="`" d="M300 400 l-200 0 l0 200 l-100 0 l0 200 l200 0 l0 -200 l100 0 l0 -200 Z" /><glyph glyph-name="" unicode="a" d="M0 100 l0 100 l100 0 l0 100 l200 0 l0 100 l-200 0 l0 100 l300 0 l0 -100 l100 0 l0 -400 l-400 0 l0 100 l-100 0 ZM300 100 l0 100 l-100 0 l0 -100 l100 0 Z" /><glyph glyph-name="" unicode="b" d="M400 0 l-400 0 l0 700 l200 0 l0 -200 l200 0 l0 -100 l100 0 l0 -300 l-100 0 l0 -100 ZM300 100 l0 300 l-100 0 l0 -300 l100 0 Z" /><glyph glyph-name="" unicode="c" d="M500 0 l-400 0 l0 100 l-100 0 l0 300 l100 0 l0 100 l300 0 l0 -100 l100 0 l0 -100 l-200 0 l0 100 l-100 0 l0 -300 l300 0 l0 -100 Z" /><glyph glyph-name="" unicode="d" d="M500 0 l-400 0 l0 100 l-100 0 l0 300 l100 0 l0 100 l200 0 l0 200 l200 0 l0 -700 ZM300 100 l0 300 l-100 0 l0 -300 l100 0 Z" /><glyph glyph-name="" unicode="e" d="M500 0 l-400 0 l0 100 l-100 0 l0 300 l100 0 l0 100 l300 0 l0 -100 l100 0 l0 -200 l-300 0 l0 -100 l300 0 l0 -100 ZM300 300 l0 100 l-100 0 l0 -100 l100 0 Z" /><glyph glyph-name="" unicode="f" d="M0 300 l0 100 l100 0 l0 200 l100 0 l0 100 l200 0 l0 -100 l-100 0 l0 -200 l100 0 l0 -100 l-100 0 l0 -300 l-200 0 l0 300 l-100 0 Z" /><glyph glyph-name="" unicode="g" d="M100 -200 l0 100 l200 0 l0 100 l-200 0 l0 100 l-100 0 l0 300 l100 0 l0 100 l400 0 l0 -600 l-100 0 l0 -100 l-300 0 ZM300 100 l0 300 l-100 0 l0 -300 l100 0 Z" /><glyph glyph-name="" unicode="h" d="M500 0 l-200 0 l0 400 l-100 0 l0 -400 l-200 0 l0 700 l200 0 l0 -200 l200 0 l0 -100 l100 0 l0 -400 Z" /><glyph glyph-name="" unicode="i" d="M0 0 l0 100 l100 0 l0 300 l-100 0 l0 100 l300 0 l0 -400 l100 0 l0 -100 l-400 0 ZM100 700 l0 100 l200 0 l0 -100 l-200 0 Z" /><glyph glyph-name="" unicode="j" d="M0 -200 l0 100 l100 0 l0 600 l200 0 l0 -600 l-100 0 l0 -100 l-200 0 ZM100 700 l0 100 l200 0 l0 -100 l-200 0 Z" /><glyph glyph-name="" unicode="k" d="M500 0 l-200 0 l0 200 l-100 0 l0 -200 l-200 0 l0 700 l200 0 l0 -300 l100 0 l0 100 l200 0 l0 -100 l-100 0 l0 -100 l100 0 l0 -300 Z" /><glyph glyph-name="" unicode="l" d="M0 600 l0 100 l300 0 l0 -600 l100 0 l0 -100 l-300 0 l0 600 l-100 0 Z" /><glyph glyph-name="" unicode="m" d="M500 0 l-500 0 l0 500 l400 0 l0 -100 l100 0 l0 -400 Z" /><glyph glyph-name="" unicode="n" d="M500 0 l-200 0 l0 400 l-100 0 l0 -400 l-200 0 l0 500 l400 0 l0 -100 l100 0 l0 -400 Z" /><glyph glyph-name="" unicode="o" d="M400 0 l-300 0 l0 100 l-100 0 l0 300 l100 0 l0 100 l300 0 l0 -100 l100 0 l0 -300 l-100 0 l0 -100 ZM300 100 l0 300 l-100 0 l0 -300 l100 0 Z" /><glyph glyph-name="" unicode="p" d="M200 -200 l-200 0 l0 700 l400 0 l0 -100 l100 0 l0 -300 l-100 0 l0 -100 l-200 0 l0 -200 ZM300 100 l0 300 l-100 0 l0 -300 l100 0 Z" /><glyph glyph-name="" unicode="q" d="M500 -200 l-200 0 l0 200 l-200 0 l0 100 l-100 0 l0 300 l100 0 l0 100 l400 0 l0 -700 ZM300 100 l0 300 l-100 0 l0 -300 l100 0 Z" /><glyph glyph-name="" unicode="r" d="M200 0 l-200 0 l0 500 l200 0 l0 -100 l100 0 l0 -100 l-100 0 l0 -300 ZM500 400 l-200 0 l0 100 l200 0 l0 -100 Z" /><glyph glyph-name="" unicode="s" d="M0 0 l0 100 l200 0 l0 100 l-100 0 l0 100 l-100 0 l0 100 l100 0 l0 100 l400 0 l0 -100 l-200 0 l0 -100 l100 0 l0 -100 l100 0 l0 -100 l-100 0 l0 -100 l-400 0 Z" /><glyph glyph-name="" unicode="t" d="M0 400 l0 100 l100 0 l0 200 l200 0 l0 -200 l200 0 l0 -100 l-200 0 l0 -300 l200 0 l0 -100 l-300 0 l0 100 l-100 0 l0 300 l-100 0 Z" /><glyph glyph-name="" unicode="u" d="M500 0 l-400 0 l0 100 l-100 0 l0 400 l200 0 l0 -400 l100 0 l0 400 l200 0 l0 -500 Z" /><glyph glyph-name="" unicode="v" d="M300 0 l-300 0 l0 500 l200 0 l0 -300 l100 0 l0 300 l200 0 l0 -300 l-100 0 l0 -100 l-100 0 l0 -100 Z" /><glyph glyph-name="" unicode="w" d="M500 0 l-200 0 l0 100 l-100 0 l0 -100 l-200 0 l0 500 l500 0 l0 -500 Z" /><glyph glyph-name="" unicode="x" d="M500 0 l-200 0 l0 200 l-100 0 l0 -200 l-200 0 l0 200 l100 0 l0 100 l-100 0 l0 200 l200 0 l0 -200 l100 0 l0 200 l200 0 l0 -200 l-100 0 l0 -100 l100 0 l0 -200 Z" /><glyph glyph-name="" unicode="y" d="M100 -200 l0 100 l200 0 l0 100 l-200 0 l0 100 l-100 0 l0 400 l200 0 l0 -400 l100 0 l0 400 l200 0 l0 -600 l-100 0 l0 -100 l-300 0 Z" /><glyph glyph-name="" unicode="z" d="M0 400 l0 100 l500 0 l0 -100 l-100 0 l0 -100 l-100 0 l0 -100 l-100 0 l0 -100 l300 0 l0 -100 l-500 0 l0 200 l100 0 l0 100 l100 0 l0 100 l-200 0 Z" /><glyph glyph-name="" unicode="{" d="M0 300 l0 100 l100 0 l0 300 l100 0 l0 100 l200 0 l0 -100 l-100 0 l0 -300 l-100 0 l0 -100 l100 0 l0 -300 l100 0 l0 -100 l-200 0 l0 100 l-100 0 l0 300 l-100 0 Z" /><glyph glyph-name="" unicode="|" d="M300 -100 l-200 0 l0 900 l200 0 l0 -900 Z" /><glyph glyph-name="" unicode="}" d="M0 -100 l0 100 l100 0 l0 300 l100 0 l0 100 l-100 0 l0 300 l-100 0 l0 100 l200 0 l0 -100 l100 0 l0 -300 l100 0 l0 -100 l-100 0 l0 -300 l-100 0 l0 -100 l-200 0 Z" /><glyph glyph-name="" unicode="~" d="M400 500 l-200 0 l0 100 l-100 0 l0 -100 l-100 0 l0 200 l100 0 l0 100 l200 0 l0 -100 l100 0 l0 100 l100 0 l0 -200 l-100 0 l0 -100 Z" /><glyph glyph-name="" unicode="&#x2261;" d="M100 100 l0 100 l800 0 l0 -100 l-800 0 ZM100 300 l0 100 l800 0 l0 -100 l-800 0 ZM100 500 l0 100 l800 0 l0 -100 l-800 0 Z" /><glyph glyph-name="" unicode="&#x3001;" d="M100 0 l0 100 l200 0 l0 -100 l100 0 l0 -100 l-200 0 l0 100 l-100 0 Z" /><glyph glyph-name="" unicode="&#x3002;" d="M500 -100 l-300 0 l0 100 l-100 0 l0 200 l100 0 l0 100 l300 0 l0 -100 l100 0 l0 -200 l-100 0 l0 -100 ZM400 0 l0 200 l-100 0 l0 -200 l100 0 Z" /><glyph glyph-name="" unicode="&#x3005;" d="M700 0 l-200 0 l0 100 l-100 0 l0 100 l-100 0 l0 100 l200 0 l0 -100 l100 0 l0 -100 l100 0 l0 -100 ZM600 200 l0 300 l-300 0 l0 -200 l-200 0 l0 200 l100 0 l0 200 l200 0 l0 -100 l400 0 l0 -300 l-100 0 l0 -100 l-100 0 Z" /><glyph glyph-name="" unicode="&#x300c;" d="M600 200 l-200 0 l0 700 l500 0 l0 -100 l-300 0 l0 -600 Z" /><glyph glyph-name="" unicode="&#x300d;" d="M100 -200 l0 100 l300 0 l0 600 l200 0 l0 -700 l-500 0 Z" /><glyph glyph-name="" unicode="&#x3042;" d="M0 600 l0 100 l300 0 l0 200 l200 0 l0 -200 l500 0 l0 -100 l-500 0 l0 -100 l300 0 l0 -100 l100 0 l0 -100 l100 0 l0 -200 l-100 0 l0 -100 l-100 0 l0 -100 l-300 0 l0 100 l200 0 l0 100 l100 0 l0 300 l-100 0 l0 -100 l-100 0 l0 -200 l-100 0 l0 -100 l-400 0 l0 100 l-100 0 l0 200 l100 0 l0 100 l100 0 l0 100 l100 0 l0 100 l-300 0 ZM500 100 l0 300 l-100 0 l0 -300 l100 0 ZM300 100 l0 200 l-100 0 l0 -200 l100 0 Z" /><glyph glyph-name="" unicode="&#x3044;" d="M500 0 l-300 0 l0 100 l-100 0 l0 100 l-100 0 l0 300 l100 0 l0 200 l200 0 l0 -200 l-100 0 l0 -300 l100 0 l0 -100 l100 0 l0 100 l200 0 l0 -100 l-100 0 l0 -100 ZM1000 100 l-200 0 l0 300 l-100 0 l0 200 l200 0 l0 -200 l100 0 l0 -300 Z" /><glyph glyph-name="" unicode="&#x3046;" d="M300 -100 l0 100 l200 0 l0 100 l200 0 l0 300 l-300 0 l0 -100 l-300 0 l0 100 l200 0 l0 100 l500 0 l0 -100 l100 0 l0 -300 l-100 0 l0 -100 l-200 0 l0 -100 l-300 0 ZM300 700 l0 100 l300 0 l0 -100 l200 0 l0 -100 l-300 0 l0 100 l-200 0 Z" /><glyph glyph-name="" unicode="&#x3048;" d="M0 -100 l0 100 l200 0 l0 100 l100 0 l0 100 l100 0 l0 100 l100 0 l0 100 l-400 0 l0 100 l700 0 l0 -100 l-100 0 l0 -100 l-100 0 l0 -100 l100 0 l0 -200 l300 0 l0 -100 l-400 0 l0 100 l-100 0 l0 100 l100 0 l0 100 l-100 0 l0 -100 l-100 0 l0 -100 l-100 0 l0 -100 l-300 0 ZM300 700 l0 100 l300 0 l0 -100 l200 0 l0 -100 l-300 0 l0 100 l-200 0 Z" /><glyph glyph-name="" unicode="&#x304a;" d="M600 -100 l0 100 l200 0 l0 200 l-100 0 l0 100 l-200 0 l0 -300 l-100 0 l0 -100 l-300 0 l0 100 l-100 0 l0 200 l100 0 l0 100 l100 0 l0 100 l100 0 l0 200 l-200 0 l0 100 l200 0 l0 200 l200 0 l0 -200 l200 0 l0 -100 l-200 0 l0 -200 l300 0 l0 -100 l100 0 l0 -100 l100 0 l0 -200 l-100 0 l0 -100 l-300 0 ZM300 0 l0 200 l100 0 l0 100 l-100 0 l0 -100 l-100 0 l0 -200 l100 0 ZM1000 500 l-200 0 l0 200 l100 0 l0 -100 l100 0 l0 -100 Z" /><glyph glyph-name="" unicode="&#x304b;" d="M0 500 l0 100 l300 0 l0 300 l200 0 l0 -300 l100 0 l0 -100 l100 0 l0 -500 l-100 0 l0 -100 l-300 0 l0 100 l200 0 l0 500 l-100 0 l0 -300 l-100 0 l0 -200 l-200 0 l0 200 l100 0 l0 300 l-200 0 ZM1000 200 l-200 0 l0 300 l-100 0 l0 200 l200 0 l0 -200 l100 0 l0 -300 Z" /><glyph glyph-name="" unicode="&#x304c;" d="M0 500 l0 100 l300 0 l0 300 l200 0 l0 -300 l100 0 l0 -100 l100 0 l0 -500 l-100 0 l0 -100 l-300 0 l0 100 l200 0 l0 500 l-100 0 l0 -300 l-100 0 l0 -200 l-200 0 l0 200 l100 0 l0 300 l-200 0 ZM1000 100 l-200 0 l0 400 l100 0 l0 -200 l100 0 l0 -200 ZM800 600 l-200 0 l0 200 l100 0 l0 -100 l100 0 l0 -100 ZM1000 700 l-200 0 l0 100 l-100 0 l0 100 l200 0 l0 -100 l100 0 l0 -100 Z" /><glyph glyph-name="" unicode="&#x304d;" d="M0 400 l0 100 l500 0 l0 100 l-400 0 l0 100 l300 0 l0 200 l200 0 l0 -200 l100 0 l0 -200 l100 0 l0 -100 l-100 0 l0 -100 l100 0 l0 -200 l-300 0 l0 100 l-200 0 l0 -200 l400 0 l0 -100 l-500 0 l0 100 l-100 0 l0 200 l100 0 l0 100 l300 0 l0 100 l-500 0 ZM700 200 l0 100 l-100 0 l0 -100 l100 0 ZM1000 500 l-200 0 l0 100 l200 0 l0 -100 ZM900 700 l-200 0 l0 100 l200 0 l0 -100 Z" /><glyph glyph-name="" unicode="&#x304e;" d="M0 400 l0 100 l400 0 l0 100 l-300 0 l0 100 l200 0 l0 200 l200 0 l0 -200 l100 0 l0 -200 l400 0 l0 -100 l-300 0 l0 -100 l100 0 l0 -200 l-300 0 l0 100 l-200 0 l0 -200 l400 0 l0 -100 l-500 0 l0 100 l-100 0 l0 200 l100 0 l0 100 l300 0 l0 100 l-500 0 ZM700 200 l0 100 l-100 0 l0 -100 l100 0 ZM1000 700 l-200 0 l0 -100 l-100 0 l0 100 l100 0 l0 100 l-100 0 l0 -100 l-100 0 l0 100 l100 0 l0 100 l200 0 l0 -100 l100 0 l0 -100 Z" /><glyph glyph-name="" unicode="&#x304f;" d="M700 -100 l-200 0 l0 200 l-100 0 l0 100 l-100 0 l0 100 l-100 0 l0 200 l100 0 l0 100 l100 0 l0 100 l100 0 l0 100 l200 0 l0 -100 l-100 0 l0 -100 l-100 0 l0 -100 l-100 0 l0 -200 l100 0 l0 -100 l100 0 l0 -100 l100 0 l0 -200 Z" /><glyph glyph-name="" unicode="&#x3050;" d="M600 -100 l-200 0 l0 200 l-100 0 l0 100 l-100 0 l0 100 l-100 0 l0 200 l100 0 l0 100 l100 0 l0 100 l100 0 l0 100 l200 0 l0 -100 l-100 0 l0 -100 l200 0 l0 -100 l100 0 l0 -100 l-200 0 l0 100 l-100 0 l0 100 l-100 0 l0 -100 l-100 0 l0 -200 l100 0 l0 -100 l100 0 l0 -100 l100 0 l0 -200 ZM1000 500 l-200 0 l0 100 l-100 0 l0 100 l200 0 l0 -100 l100 0 l0 -100 Z" /><glyph glyph-name="" unicode="&#x3051;" d="M400 -100 l0 100 l100 0 l0 100 l100 0 l0 400 l-300 0 l0 100 l300 0 l0 300 l200 0 l0 -300 l200 0 l0 -100 l-200 0 l0 -400 l-100 0 l0 -100 l-100 0 l0 -100 l-200 0 ZM300 -100 l-200 0 l0 200 l-100 0 l0 500 l100 0 l0 200 l200 0 l0 -200 l-100 0 l0 -500 l100 0 l0 -200 Z" /><glyph glyph-name="" unicode="&#x3052;" d="M400 -100 l0 100 l100 0 l0 100 l100 0 l0 400 l-300 0 l0 100 l300 0 l0 100 l-100 0 l0 100 l200 0 l0 -100 l100 0 l0 -100 l200 0 l0 -100 l-200 0 l0 -400 l-100 0 l0 -100 l-100 0 l0 -100 l-200 0 ZM300 -100 l-200 0 l0 200 l-100 0 l0 500 l100 0 l0 200 l200 0 l0 -200 l-100 0 l0 -500 l100 0 l0 -200 ZM1000 700 l-200 0 l0 100 l-100 0 l0 100 l200 0 l0 -100 l100 0 l0 -100 Z" /><glyph glyph-name="" unicode="&#x3053;" d="M200 600 l0 100 l600 0 l0 -100 l-600 0 ZM800 -100 l-600 0 l0 100 l-100 0 l0 200 l100 0 l0 100 l200 0 l0 -100 l-100 0 l0 -200 l400 0 l0 100 l200 0 l0 -100 l-100 0 l0 -100 Z" /><glyph glyph-name="" unicode="&#x3054;" d="M600 400 l0 100 l200 0 l0 -100 l100 0 l0 -100 l-200 0 l0 100 l-100 0 ZM100 600 l0 100 l600 0 l0 -100 l-600 0 ZM700 -100 l-600 0 l0 100 l-100 0 l0 200 l100 0 l0 100 l200 0 l0 -100 l-100 0 l0 -200 l400 0 l0 100 l200 0 l0 -100 l-100 0 l0 -100 ZM1000 500 l-200 0 l0 200 l100 0 l0 -100 l100 0 l0 -100 Z" /><glyph glyph-name="" unicode="&#x3055;" d="M0 500 l0 100 l500 0 l0 300 l200 0 l0 -300 l100 0 l0 -200 l100 0 l0 -200 l-300 0 l0 100 l-200 0 l0 -200 l100 0 l0 -100 l300 0 l0 -100 l-400 0 l0 100 l-100 0 l0 100 l-100 0 l0 200 l100 0 l0 100 l300 0 l0 100 l-600 0 ZM800 300 l0 100 l-100 0 l0 -100 l100 0 ZM1000 600 l-200 0 l0 100 l200 0 l0 -100 Z" /><glyph glyph-name="" unicode="&#x3056;" d="M0 500 l0 100 l400 0 l0 300 l200 0 l0 -300 l100 0 l0 -200 l100 0 l0 -200 l-300 0 l0 100 l-200 0 l0 -200 l100 0 l0 -100 l300 0 l0 -100 l-400 0 l0 100 l-100 0 l0 100 l-100 0 l0 200 l100 0 l0 100 l300 0 l0 100 l-500 0 ZM700 800 l0 100 l200 0 l0 -100 l100 0 l0 -100 l-200 0 l0 -100 l100 0 l0 -100 l-100 0 l0 100 l-100 0 l0 100 l100 0 l0 100 l-100 0 ZM700 300 l0 100 l-100 0 l0 -100 l100 0 Z" /><glyph glyph-name="" unicode="&#x3057;" d="M700 -100 l-400 0 l0 100 l-100 0 l0 100 l-100 0 l0 400 l100 0 l0 300 l200 0 l0 -300 l-100 0 l0 -400 l100 0 l0 -100 l200 0 l0 100 l100 0 l0 200 l200 0 l0 -200 l-100 0 l0 -100 l-100 0 l0 -100 Z" /><glyph glyph-name="" unicode="&#x3058;" d="M500 600 l0 100 l200 0 l0 -100 l100 0 l0 -100 l-200 0 l0 100 l-100 0 ZM700 -100 l-400 0 l0 100 l-100 0 l0 100 l-100 0 l0 400 l100 0 l0 300 l200 0 l0 -300 l-100 0 l0 -400 l100 0 l0 -100 l200 0 l0 100 l100 0 l0 200 l200 0 l0 -200 l-100 0 l0 -100 l-100 0 l0 -100 ZM1000 600 l-200 0 l0 100 l-100 0 l0 100 l200 0 l0 -100 l100 0 l0 -100 Z" /><glyph glyph-name="" unicode="&#x3059;" d="M200 -100 l0 100 l200 0 l0 100 l-100 0 l0 100 l-100 0 l0 200 l100 0 l0 100 l200 0 l0 100 l-500 0 l0 100 l500 0 l0 200 l200 0 l0 -200 l300 0 l0 -100 l-300 0 l0 -500 l-100 0 l0 -100 l-100 0 l0 -100 l-300 0 ZM500 200 l0 200 l-100 0 l0 -200 l100 0 Z" /><glyph glyph-name="" unicode="&#x305a;" d="M200 -100 l0 100 l200 0 l0 100 l-100 0 l0 100 l-100 0 l0 200 l100 0 l0 100 l200 0 l0 100 l-500 0 l0 100 l500 0 l0 200 l200 0 l0 -200 l300 0 l0 -100 l-300 0 l0 -300 l100 0 l0 -100 l100 0 l0 -100 l-100 0 l0 100 l-100 0 l0 -100 l-100 0 l0 -100 l-100 0 l0 -100 l-300 0 ZM500 200 l0 200 l-100 0 l0 -200 l100 0 ZM1000 300 l-200 0 l0 200 l100 0 l0 -100 l100 0 l0 -100 Z" /><glyph glyph-name="" unicode="&#x305b;" d="M500 200 l0 100 l100 0 l0 100 l100 0 l0 100 l-100 0 l0 -100 l-200 0 l0 -400 l500 0 l0 -100 l-600 0 l0 100 l-100 0 l0 400 l-200 0 l0 100 l200 0 l0 300 l200 0 l0 -300 l100 0 l0 100 l100 0 l0 300 l200 0 l0 -300 l200 0 l0 -100 l-200 0 l0 -300 l-300 0 Z" /><glyph glyph-name="" unicode="&#x305c;" d="M500 200 l0 100 l100 0 l0 100 l100 0 l0 100 l-100 0 l0 -100 l-200 0 l0 -400 l500 0 l0 -100 l-600 0 l0 100 l-100 0 l0 400 l-200 0 l0 100 l200 0 l0 300 l200 0 l0 -300 l100 0 l0 100 l100 0 l0 100 l-100 0 l0 100 l200 0 l0 -100 l100 0 l0 -100 l200 0 l0 -100 l-200 0 l0 -300 l-300 0 ZM1000 700 l-200 0 l0 100 l-100 0 l0 100 l200 0 l0 -100 l100 0 l0 -100 Z" /><glyph glyph-name="" unicode="&#x305d;" d="M100 300 l0 100 l300 0 l0 100 l100 0 l0 100 l100 0 l0 100 l-400 0 l0 100 l700 0 l0 -100 l-100 0 l0 -100 l-100 0 l0 -100 l-100 0 l0 -100 l400 0 l0 -100 l-400 0 l0 -100 l-100 0 l0 -200 l400 0 l0 -100 l-500 0 l0 100 l-100 0 l0 200 l100 0 l0 100 l-300 0 Z" /><glyph glyph-name="" unicode="&#x305e;" d="M0 300 l0 100 l300 0 l0 100 l100 0 l0 100 l100 0 l0 100 l-400 0 l0 100 l600 0 l0 -200 l100 0 l0 -100 l-100 0 l0 100 l-100 0 l0 -100 l-100 0 l0 -100 l400 0 l0 -100 l-400 0 l0 -100 l-100 0 l0 -200 l300 0 l0 -100 l-400 0 l0 100 l-100 0 l0 200 l100 0 l0 100 l-300 0 ZM1000 600 l-200 0 l0 200 l100 0 l0 -100 l100 0 l0 -100 Z" /><glyph glyph-name="" unicode="&#x305f;" d="M600 400 l0 100 l400 0 l0 -100 l-400 0 ZM0 600 l0 100 l300 0 l0 200 l200 0 l0 -200 l300 0 l0 -100 l-300 0 l0 -200 l-100 0 l0 -300 l-100 0 l0 -200 l-200 0 l0 200 l100 0 l0 300 l100 0 l0 200 l-300 0 ZM1000 -100 l-400 0 l0 100 l-100 0 l0 200 l100 0 l0 100 l200 0 l0 -100 l-100 0 l0 -200 l300 0 l0 -100 Z" /><glyph glyph-name="" unicode="&#x3060;" d="M500 400 l0 100 l400 0 l0 -100 l-400 0 ZM0 600 l0 100 l200 0 l0 200 l200 0 l0 -200 l100 0 l0 100 l200 0 l0 -100 l100 0 l0 -100 l-100 0 l0 100 l-100 0 l0 -100 l-200 0 l0 -200 l-100 0 l0 -300 l-100 0 l0 -200 l-200 0 l0 200 l100 0 l0 300 l100 0 l0 200 l-200 0 ZM900 -100 l-400 0 l0 100 l-100 0 l0 200 l100 0 l0 100 l200 0 l0 -100 l-100 0 l0 -200 l300 0 l0 -100 ZM1000 700 l-200 0 l0 100 l-100 0 l0 100 l200 0 l0 -100 l100 0 l0 -100 Z" /><glyph glyph-name="" unicode="&#x3061;" d="M300 -100 l0 100 l300 0 l0 100 l100 0 l0 200 l-200 0 l0 -100 l-300 0 l0 200 l100 0 l0 100 l-300 0 l0 100 l300 0 l0 300 l200 0 l0 -300 l100 0 l0 -100 l-100 0 l0 -100 l300 0 l0 -100 l100 0 l0 -200 l-100 0 l0 -100 l-100 0 l0 -100 l-400 0 ZM500 300 l0 100 l-100 0 l0 -100 l100 0 ZM1000 600 l-400 0 l0 100 l400 0 l0 -100 Z" /><glyph glyph-name="" unicode="&#x3063;" d="M300 -100 l0 100 l300 0 l0 100 l100 0 l0 200 l-100 0 l0 100 l-100 0 l0 -100 l-400 0 l0 100 l300 0 l0 100 l300 0 l0 -100 l100 0 l0 -100 l100 0 l0 -200 l-100 0 l0 -100 l-100 0 l0 -100 l-400 0 Z" /><glyph glyph-name="" unicode="&#x3064;" d="M200 0 l0 100 l300 0 l0 100 l200 0 l0 300 l-100 0 l0 100 l-200 0 l0 -100 l-400 0 l0 100 l300 0 l0 100 l400 0 l0 -100 l100 0 l0 -100 l100 0 l0 -300 l-100 0 l0 -100 l-200 0 l0 -100 l-400 0 Z" /><glyph glyph-name="" unicode="&#x3065;" d="M200 0 l0 100 l300 0 l0 100 l200 0 l0 300 l-100 0 l0 100 l-200 0 l0 -100 l-400 0 l0 100 l300 0 l0 100 l200 0 l0 100 l-100 0 l0 100 l200 0 l0 -100 l100 0 l0 -200 l100 0 l0 -100 l100 0 l0 -300 l-100 0 l0 -100 l-200 0 l0 -100 l-400 0 ZM1000 700 l-200 0 l0 100 l-100 0 l0 100 l200 0 l0 -100 l100 0 l0 -100 Z" /><glyph glyph-name="" unicode="&#x3066;" d="M0 500 l0 100 l300 0 l0 100 l700 0 l0 -100 l-300 0 l0 -100 l-100 0 l0 -100 l-100 0 l0 -300 l100 0 l0 -100 l200 0 l0 -100 l-300 0 l0 100 l-100 0 l0 100 l-100 0 l0 300 l100 0 l0 100 l100 0 l0 100 l-100 0 l0 -100 l-400 0 Z" /><glyph glyph-name="" unicode="&#x3067;" d="M0 500 l0 100 l300 0 l0 100 l700 0 l0 -100 l-400 0 l0 -100 l-100 0 l0 -100 l200 0 l0 -100 l100 0 l0 -100 l-200 0 l0 100 l-100 0 l0 100 l-100 0 l0 -300 l100 0 l0 -100 l200 0 l0 -100 l-300 0 l0 100 l-100 0 l0 100 l-100 0 l0 300 l100 0 l0 100 l-300 0 ZM1000 300 l-200 0 l0 100 l-100 0 l0 100 l200 0 l0 -100 l100 0 l0 -100 ZM500 500 l0 100 l-100 0 l0 -100 l100 0 Z" /><glyph glyph-name="" unicode="&#x3068;" d="M900 -100 l-600 0 l0 100 l-100 0 l0 200 l100 0 l0 100 l100 0 l0 200 l-100 0 l0 300 l200 0 l0 -300 l100 0 l0 -100 l100 0 l0 -100 l-200 0 l0 -100 l-100 0 l0 -200 l500 0 l0 -100 ZM900 400 l-200 0 l0 100 l200 0 l0 -100 Z" /><glyph glyph-name="" unicode="&#x3069;" d="M500 700 l0 100 l200 0 l0 -100 l100 0 l0 -100 l-200 0 l0 100 l-100 0 ZM800 -100 l-600 0 l0 100 l-100 0 l0 200 l100 0 l0 100 l100 0 l0 200 l-100 0 l0 300 l200 0 l0 -300 l100 0 l0 -100 l100 0 l0 -100 l-200 0 l0 -100 l-100 0 l0 -200 l500 0 l0 -100 ZM800 400 l-200 0 l0 100 l200 0 l0 -100 ZM1000 700 l-200 0 l0 100 l-100 0 l0 100 l200 0 l0 -100 l100 0 l0 -100 Z" /><glyph glyph-name="" unicode="&#x306a;" d="M0 600 l0 100 l300 0 l0 200 l200 0 l0 -200 l200 0 l0 -100 l-300 0 l0 -100 l-100 0 l0 -200 l-100 0 l0 -200 l-200 0 l0 200 l100 0 l0 200 l100 0 l0 100 l-200 0 ZM700 -100 l-300 0 l0 100 l-100 0 l0 200 l100 0 l0 100 l200 0 l0 200 l200 0 l0 -300 l100 0 l0 -100 l100 0 l0 -100 l-100 0 l0 100 l-100 0 l0 -100 l-100 0 l0 -100 ZM600 0 l0 200 l-100 0 l0 -200 l100 0 ZM1000 600 l-200 0 l0 100 l-100 0 l0 100 l200 0 l0 -100 l100 0 l0 -100 Z" /><glyph glyph-name="" unicode="&#x306b;" d="M500 600 l0 100 l500 0 l0 -100 l-500 0 ZM400 -100 l-200 0 l0 200 l-100 0 l0 500 l100 0 l0 200 l200 0 l0 -200 l-100 0 l0 -500 l100 0 l0 -200 ZM1000 0 l-500 0 l0 100 l-100 0 l0 200 l100 0 l0 100 l200 0 l0 -100 l-100 0 l0 -200 l400 0 l0 -100 Z" /><glyph glyph-name="" unicode="&#x306c;" d="M800 -100 l-300 0 l0 100 l-100 0 l0 -100 l-300 0 l0 100 l-100 0 l0 300 l100 0 l0 500 l200 0 l0 -300 l100 0 l0 -100 l-100 0 l0 -100 l100 0 l0 -200 l100 0 l0 400 l-100 0 l0 100 l100 0 l0 300 l200 0 l0 -300 l100 0 l0 -100 l100 0 l0 -100 l100 0 l0 -300 l-100 0 l0 -100 l100 0 l0 -100 l-100 0 l0 100 l-100 0 l0 -100 ZM700 0 l0 100 l-100 0 l0 -100 l100 0 ZM300 0 l0 300 l-100 0 l0 -300 l100 0 ZM900 100 l0 100 l-100 0 l0 -100 l100 0 ZM600 200 l200 0 l0 300 l-100 0 l0 -200 l-100 0 l0 -100 Z" /><glyph glyph-name="" unicode="&#x306d;" d="M0 100 l0 100 l100 0 l0 100 l100 0 l0 200 l-200 0 l0 100 l200 0 l0 300 l200 0 l0 -400 l100 0 l0 -100 l-100 0 l0 -500 l-200 0 l0 200 l100 0 l0 100 l-100 0 l0 -100 l-200 0 ZM900 -100 l-300 0 l0 100 l-100 0 l0 200 l100 0 l0 100 l200 0 l0 200 l-100 0 l0 100 l-100 0 l0 -100 l-100 0 l0 200 l300 0 l0 -100 l100 0 l0 -100 l100 0 l0 -500 l-100 0 l0 -100 ZM800 0 l0 200 l-100 0 l0 -200 l100 0 Z" /><glyph glyph-name="" unicode="&#x306e;" d="M500 -100 l0 100 l200 0 l0 100 l100 0 l0 400 l-100 0 l0 100 l-100 0 l0 -300 l-100 0 l0 -200 l-100 0 l0 -100 l-300 0 l0 100 l-100 0 l0 300 l100 0 l0 100 l100 0 l0 100 l100 0 l0 100 l500 0 l0 -100 l100 0 l0 -100 l100 0 l0 -400 l-100 0 l0 -100 l-100 0 l0 -100 l-300 0 ZM300 100 l0 200 l100 0 l0 200 l100 0 l0 100 l-100 0 l0 -100 l-100 0 l0 -100 l-100 0 l0 -300 l100 0 Z" /><glyph glyph-name="" unicode="&#x306f;" d="M700 -100 l-300 0 l0 200 l-100 0 l0 -200 l-200 0 l0 200 l-100 0 l0 500 l100 0 l0 200 l200 0 l0 -200 l300 0 l0 300 l200 0 l0 -300 l200 0 l0 -100 l-200 0 l0 -300 l100 0 l0 -100 l100 0 l0 -100 l-100 0 l0 100 l-100 0 l0 -100 l-100 0 l0 -100 ZM600 0 l0 200 l-100 0 l0 -200 l100 0 ZM300 100 l0 100 l100 0 l0 100 l200 0 l0 200 l-300 0 l0 100 l-100 0 l0 -500 l100 0 Z" /><glyph glyph-name="" unicode="&#x3070;" d="M500 700 l0 100 l200 0 l0 -100 l100 0 l0 -100 l200 0 l0 -100 l-200 0 l0 -300 l100 0 l0 -100 l100 0 l0 -100 l-100 0 l0 100 l-100 0 l0 -100 l-100 0 l0 -100 l-300 0 l0 200 l-100 0 l0 -200 l-200 0 l0 200 l-100 0 l0 500 l100 0 l0 200 l200 0 l0 -200 l300 0 l0 100 l-100 0 ZM600 0 l0 200 l-100 0 l0 -200 l100 0 ZM300 100 l0 100 l100 0 l0 100 l200 0 l0 200 l-300 0 l0 100 l-100 0 l0 -500 l100 0 ZM1000 700 l-200 0 l0 100 l-100 0 l0 100 l200 0 l0 -100 l100 0 l0 -100 Z" /><glyph glyph-name="" unicode="&#x3071;" d="M700 -100 l-300 0 l0 200 l-100 0 l0 -200 l-200 0 l0 200 l-100 0 l0 500 l100 0 l0 200 l200 0 l0 -200 l200 0 l0 200 l100 0 l0 100 l300 0 l0 -100 l100 0 l0 -200 l-100 0 l0 -100 l-100 0 l0 -300 l100 0 l0 -100 l100 0 l0 -100 l-100 0 l0 100 l-100 0 l0 -100 l-100 0 l0 -100 ZM600 0 l0 200 l-100 0 l0 -200 l100 0 ZM300 100 l0 100 l100 0 l0 100 l200 0 l0 200 l-300 0 l0 100 l-100 0 l0 -500 l100 0 ZM800 600 l0 200 l-100 0 l0 -200 l100 0 Z" /><glyph glyph-name="" unicode="&#x3072;" d="M0 600 l0 100 l500 0 l0 -200 l-100 0 l0 -200 l-100 0 l0 -300 l200 0 l0 100 l100 0 l0 600 l-100 0 l0 100 l200 0 l0 -200 l100 0 l0 -100 l100 0 l0 -100 l100 0 l0 -100 l-100 0 l0 100 l-100 0 l0 -300 l-100 0 l0 -100 l-100 0 l0 -100 l-400 0 l0 100 l-100 0 l0 300 l100 0 l0 200 l100 0 l0 100 l-300 0 Z" /><glyph glyph-name="" unicode="&#x3073;" d="M0 600 l0 100 l500 0 l0 -200 l-100 0 l0 -200 l-100 0 l0 -300 l200 0 l0 100 l100 0 l0 400 l200 0 l0 -100 l100 0 l0 -100 l100 0 l0 -100 l-100 0 l0 100 l-100 0 l0 -200 l-100 0 l0 -100 l-100 0 l0 -100 l-400 0 l0 100 l-100 0 l0 300 l100 0 l0 200 l100 0 l0 100 l-300 0 ZM800 600 l-200 0 l0 100 l-100 0 l0 100 l200 0 l0 -100 l100 0 l0 -100 ZM1000 700 l-200 0 l0 100 l-100 0 l0 100 l200 0 l0 -100 l100 0 l0 -100 Z" /><glyph glyph-name="" unicode="&#x3074;" d="M0 600 l0 100 l500 0 l0 -200 l-100 0 l0 -200 l-100 0 l0 -300 l200 0 l0 100 l100 0 l0 600 l-100 0 l0 100 l100 0 l0 100 l300 0 l0 -100 l100 0 l0 -200 l-100 0 l0 -100 l100 0 l0 -100 l-100 0 l0 100 l-100 0 l0 -400 l-100 0 l0 -100 l-100 0 l0 -100 l-400 0 l0 100 l-100 0 l0 300 l100 0 l0 200 l100 0 l0 100 l-300 0 ZM800 600 l0 200 l-100 0 l0 -200 l100 0 Z" /><glyph glyph-name="" unicode="&#x3075;" d="M300 -100 l0 100 l200 0 l0 300 l-100 0 l0 200 l100 0 l0 100 l100 0 l0 100 l-400 0 l0 100 l600 0 l0 -200 l-100 0 l0 -100 l-100 0 l0 -200 l100 0 l0 -300 l-100 0 l0 -100 l-300 0 ZM1000 0 l-200 0 l0 300 l-100 0 l0 100 l200 0 l0 -200 l100 0 l0 -200 ZM200 0 l-200 0 l0 200 l100 0 l0 200 l200 0 l0 -200 l-100 0 l0 -200 Z" /><glyph glyph-name="" unicode="&#x3076;" d="M300 -100 l0 100 l200 0 l0 300 l-100 0 l0 200 l100 0 l0 100 l100 0 l0 100 l-400 0 l0 100 l500 0 l0 -100 l100 0 l0 -100 l100 0 l0 -100 l-100 0 l0 100 l-100 0 l0 -100 l-100 0 l0 -200 l100 0 l0 -300 l-100 0 l0 -100 l-300 0 ZM1000 0 l-200 0 l0 300 l-100 0 l0 100 l200 0 l0 -200 l100 0 l0 -200 ZM200 0 l-200 0 l0 200 l100 0 l0 200 l200 0 l0 -200 l-100 0 l0 -200 ZM1000 700 l-200 0 l0 100 l-100 0 l0 100 l200 0 l0 -100 l100 0 l0 -100 Z" /><glyph glyph-name="" unicode="&#x3077;" d="M300 -100 l0 100 l200 0 l0 300 l-100 0 l0 200 l100 0 l0 200 l-300 0 l0 100 l400 0 l0 100 l300 0 l0 -100 l100 0 l0 -200 l-100 0 l0 -100 l-300 0 l0 -200 l100 0 l0 -300 l-100 0 l0 -100 l-300 0 ZM1000 0 l-200 0 l0 300 l-100 0 l0 100 l200 0 l0 -200 l100 0 l0 -200 ZM200 0 l-200 0 l0 200 l100 0 l0 200 l200 0 l0 -200 l-100 0 l0 -200 ZM800 600 l0 200 l-100 0 l0 -200 l100 0 Z" /><glyph glyph-name="" unicode="&#x3078;" d="M0 200 l0 100 l100 0 l0 100 l100 0 l0 100 l400 0 l0 -100 l100 0 l0 -100 l100 0 l0 -100 l200 0 l0 -100 l-300 0 l0 100 l-100 0 l0 100 l-100 0 l0 100 l-200 0 l0 -100 l-100 0 l0 -100 l-200 0 Z" /><glyph glyph-name="" unicode="&#x3079;" d="M0 200 l0 100 l100 0 l0 100 l100 0 l0 100 l400 0 l0 -100 l100 0 l0 -100 l100 0 l0 -100 l200 0 l0 -100 l-300 0 l0 100 l-100 0 l0 100 l-100 0 l0 100 l-200 0 l0 -100 l-100 0 l0 -100 l-200 0 ZM500 600 l0 100 l200 0 l0 -100 l100 0 l0 -100 l-200 0 l0 100 l-100 0 ZM1000 600 l-200 0 l0 100 l-100 0 l0 100 l200 0 l0 -100 l100 0 l0 -100 Z" /><glyph glyph-name="" unicode="&#x307b;" d="M300 400 l0 100 l300 0 l0 200 l-200 0 l0 100 l600 0 l0 -100 l-200 0 l0 -200 l200 0 l0 -100 l-200 0 l0 -200 l100 0 l0 -100 l100 0 l0 -100 l-100 0 l0 100 l-100 0 l0 -100 l-100 0 l0 -100 l-300 0 l0 200 l-100 0 l0 -200 l-200 0 l0 200 l-100 0 l0 500 l100 0 l0 200 l200 0 l0 -200 l-100 0 l0 -500 l100 0 l0 100 l100 0 l0 100 l200 0 l0 100 l-300 0 ZM600 0 l0 200 l-100 0 l0 -200 l100 0 Z" /><glyph glyph-name="" unicode="&#x307c;" d="M300 400 l0 100 l300 0 l0 200 l-200 0 l0 100 l400 0 l0 -100 l100 0 l0 -100 l-100 0 l0 -100 l200 0 l0 -100 l-200 0 l0 -200 l100 0 l0 -100 l100 0 l0 -100 l-100 0 l0 100 l-100 0 l0 -100 l-100 0 l0 -100 l-300 0 l0 200 l-100 0 l0 -200 l-200 0 l0 200 l-100 0 l0 500 l100 0 l0 200 l200 0 l0 -200 l-100 0 l0 -500 l100 0 l0 100 l100 0 l0 100 l200 0 l0 100 l-300 0 ZM600 0 l0 200 l-100 0 l0 -200 l100 0 ZM900 700 l0 100 l-100 0 l0 100 l200 0 l0 -200 l-100 0 Z" /><glyph glyph-name="" unicode="&#x307e;" d="M100 400 l0 100 l400 0 l0 100 l-500 0 l0 100 l500 0 l0 200 l200 0 l0 -200 l300 0 l0 -100 l-300 0 l0 -100 l200 0 l0 -100 l-200 0 l0 -200 l100 0 l0 -100 l100 0 l0 -100 l-100 0 l0 100 l-100 0 l0 -100 l-100 0 l0 -100 l-400 0 l0 100 l-100 0 l0 200 l100 0 l0 100 l300 0 l0 100 l-400 0 ZM300 0 l200 0 l0 200 l-200 0 l0 -200 Z" /><glyph glyph-name="" unicode="&#x307f;" d="M100 700 l0 100 l500 0 l0 -400 l100 0 l0 300 l200 0 l0 -400 l100 0 l0 -100 l-100 0 l0 -100 l-100 0 l0 -100 l-100 0 l0 -100 l-300 0 l0 100 l200 0 l0 100 l100 0 l0 200 l-200 0 l0 -200 l-100 0 l0 -100 l-300 0 l0 100 l-100 0 l0 200 l100 0 l0 100 l300 0 l0 300 l-300 0 ZM300 100 l0 200 l-100 0 l0 -200 l100 0 Z" /><glyph glyph-name="" unicode="&#x3080;" d="M700 600 l0 100 l200 0 l0 -100 l100 0 l0 -100 l-200 0 l0 100 l-100 0 ZM0 600 l0 100 l300 0 l0 200 l200 0 l0 -200 l100 0 l0 -100 l-100 0 l0 -400 l-100 0 l0 -200 l300 0 l0 200 l200 0 l0 -200 l-100 0 l0 -100 l-500 0 l0 100 l-100 0 l0 100 l-100 0 l0 100 l-100 0 l0 200 l100 0 l0 100 l200 0 l0 100 l-300 0 ZM300 200 l0 200 l-100 0 l0 -200 l100 0 Z" /><glyph glyph-name="" unicode="&#x3081;" d="M500 -100 l0 100 l200 0 l0 100 l100 0 l0 400 l100 0 l0 -100 l100 0 l0 -300 l-100 0 l0 -100 l-100 0 l0 -100 l-300 0 ZM400 0 l-300 0 l0 100 l-100 0 l0 300 l100 0 l0 100 l100 0 l0 300 l200 0 l0 -200 l100 0 l0 300 l200 0 l0 -300 l100 0 l0 -100 l-100 0 l0 -100 l-100 0 l0 -200 l-100 0 l0 -100 l-100 0 l0 -100 ZM300 100 l0 300 l-100 0 l0 -300 l100 0 ZM500 200 l0 300 l-100 0 l0 -300 l100 0 Z" /><glyph glyph-name="" unicode="&#x3082;" d="M100 300 l0 100 l300 0 l0 200 l-300 0 l0 100 l300 0 l0 200 l200 0 l0 -200 l300 0 l0 -100 l-300 0 l0 -200 l300 0 l0 -100 l-400 0 l0 -300 l200 0 l0 200 l200 0 l0 -200 l-100 0 l0 -100 l-400 0 l0 100 l-100 0 l0 300 l-200 0 Z" /><glyph glyph-name="" unicode="&#x3083;" d="M100 200 l0 100 l100 0 l0 200 l200 0 l0 -200 l100 0 l0 -200 l100 0 l0 -200 l-200 0 l0 200 l-100 0 l0 100 l-200 0 ZM800 100 l0 -100 l-100 0 l0 200 l100 0 l0 100 l100 0 l0 -200 l-100 0 ZM700 200 l-100 0 l0 100 l-100 0 l0 300 l200 0 l0 -200 l100 0 l0 -100 l-100 0 l0 -100 Z" /><glyph glyph-name="" unicode="&#x3084;" d="M0 400 l0 100 l200 0 l0 300 l200 0 l0 -300 l100 0 l0 -300 l100 0 l0 -300 l-200 0 l0 300 l-100 0 l0 200 l-300 0 ZM900 200 l-300 0 l0 100 l200 0 l0 100 l100 0 l0 100 l100 0 l0 -200 l-100 0 l0 -100 ZM800 400 l-200 0 l0 100 l-100 0 l0 400 l200 0 l0 -300 l200 0 l0 -100 l-100 0 l0 -100 Z" /><glyph glyph-name="" unicode="&#x3085;" d="M600 -100 l-200 0 l0 100 l100 0 l0 200 l100 0 l0 200 l-100 0 l0 -200 l-100 0 l0 -200 l-200 0 l0 200 l-100 0 l0 300 l200 0 l0 -300 l100 0 l0 300 l100 0 l0 100 l200 0 l0 -100 l100 0 l0 -100 l100 0 l0 -200 l-100 0 l0 -100 l-100 0 l0 -100 l-100 0 l0 -100 ZM800 200 l0 200 l-100 0 l0 -200 l100 0 Z" /><glyph glyph-name="" unicode="&#x3086;" d="M300 -100 l0 100 l200 0 l0 100 l-100 0 l0 200 l100 0 l0 -100 l100 0 l0 100 l-100 0 l0 300 l-100 0 l0 -200 l-100 0 l0 -300 l-200 0 l0 300 l-100 0 l0 200 l200 0 l0 -200 l100 0 l0 300 l200 0 l0 200 l200 0 l0 -200 l200 0 l0 -100 l100 0 l0 -400 l-100 0 l0 -100 l-200 0 l0 -100 l-100 0 l0 -100 l-300 0 ZM800 200 l0 400 l-100 0 l0 -400 l100 0 Z" /><glyph glyph-name="" unicode="&#x3087;" d="M100 0 l0 100 l100 0 l0 100 l200 0 l0 400 l200 0 l0 -200 l200 0 l0 -100 l-200 0 l0 -200 l100 0 l0 -100 l100 0 l0 -100 l-200 0 l0 100 l-100 0 l0 -100 l-300 0 l0 100 l-100 0 ZM400 0 l0 100 l-100 0 l0 -100 l100 0 Z" /><glyph glyph-name="" unicode="&#x3088;" d="M600 -100 l-400 0 l0 100 l-100 0 l0 200 l100 0 l0 100 l200 0 l0 600 l200 0 l0 -300 l300 0 l0 -100 l-300 0 l0 -200 l100 0 l0 -100 l100 0 l0 -100 l100 0 l0 -100 l-100 0 l0 100 l-100 0 l0 -100 l-100 0 l0 -100 ZM300 0 l200 0 l0 200 l-200 0 l0 -200 Z" /><glyph glyph-name="" unicode="&#x3089;" d="M200 -100 l0 100 l400 0 l0 100 l100 0 l0 200 l-300 0 l0 -100 l-300 0 l0 300 l200 0 l0 -200 l100 0 l0 100 l400 0 l0 -100 l100 0 l0 -200 l-100 0 l0 -100 l-100 0 l0 -100 l-500 0 ZM200 700 l0 100 l300 0 l0 -100 l200 0 l0 -100 l-300 0 l0 100 l-200 0 Z" /><glyph glyph-name="" unicode="&#x308a;" d="M300 -100 l0 100 l200 0 l0 100 l100 0 l0 200 l100 0 l0 100 l-100 0 l0 -100 l-100 0 l0 -100 l-200 0 l0 100 l-100 0 l0 500 l200 0 l0 -500 l100 0 l0 100 l100 0 l0 400 l200 0 l0 -700 l-100 0 l0 -100 l-100 0 l0 -100 l-300 0 Z" /><glyph glyph-name="" unicode="&#x308b;" d="M100 300 l0 100 l200 0 l0 100 l100 0 l0 100 l100 0 l0 100 l-300 0 l0 100 l600 0 l0 -100 l-100 0 l0 -100 l-100 0 l0 -100 l100 0 l0 -100 l100 0 l0 -100 l100 0 l0 -200 l-100 0 l0 -100 l-100 0 l0 -100 l-400 0 l0 100 l-100 0 l0 200 l100 0 l0 100 l-200 0 ZM500 0 l0 200 l-100 0 l0 -200 l100 0 ZM800 100 l0 100 l-100 0 l0 -100 l100 0 ZM700 200 l0 100 l-100 0 l0 -100 l100 0 ZM400 300 l200 0 l0 100 l-200 0 l0 -100 Z" /><glyph glyph-name="" unicode="&#x308c;" d="M0 100 l0 100 l100 0 l0 100 l100 0 l0 200 l-200 0 l0 100 l200 0 l0 300 l200 0 l0 -400 l100 0 l0 -100 l-100 0 l0 -500 l-200 0 l0 200 l100 0 l0 100 l-100 0 l0 -100 l-200 0 ZM1000 -100 l-300 0 l0 100 l-100 0 l0 300 l100 0 l0 300 l-100 0 l0 -100 l-100 0 l0 200 l300 0 l0 -100 l100 0 l0 -300 l-100 0 l0 -300 l200 0 l0 -100 Z" /><glyph glyph-name="" unicode="&#x308d;" d="M200 -100 l0 100 l400 0 l0 100 l100 0 l0 200 l-100 0 l0 100 l-200 0 l0 -100 l-300 0 l0 100 l200 0 l0 100 l100 0 l0 100 l100 0 l0 100 l-300 0 l0 100 l600 0 l0 -100 l-100 0 l0 -100 l-100 0 l0 -100 l100 0 l0 -100 l100 0 l0 -100 l100 0 l0 -200 l-100 0 l0 -100 l-100 0 l0 -100 l-500 0 Z" /><glyph glyph-name="" unicode="&#x308f;" d="M500 -100 l0 100 l200 0 l0 100 l100 0 l0 400 l-100 0 l0 100 l-100 0 l0 -100 l-100 0 l0 -100 l-100 0 l0 -500 l-200 0 l0 200 l100 0 l0 100 l-100 0 l0 -100 l-200 0 l0 100 l100 0 l0 100 l100 0 l0 200 l-200 0 l0 100 l200 0 l0 300 l200 0 l0 -400 l100 0 l0 200 l300 0 l0 -100 l100 0 l0 -100 l100 0 l0 -400 l-100 0 l0 -100 l-100 0 l0 -100 l-300 0 Z" /><glyph glyph-name="" unicode="&#x3092;" d="M100 200 l0 100 l100 0 l0 100 l100 0 l0 200 l-200 0 l0 100 l300 0 l0 200 l200 0 l0 -200 l300 0 l0 -100 l-400 0 l0 -100 l100 0 l0 -100 l100 0 l0 100 l300 0 l0 -100 l-200 0 l0 -300 l-200 0 l0 100 l100 0 l0 100 l-100 0 l0 -100 l-100 0 l0 -200 l400 0 l0 -100 l-500 0 l0 100 l-100 0 l0 200 l100 0 l0 100 l100 0 l0 100 l-100 0 l0 -100 l-100 0 l0 -100 l-200 0 Z" /><glyph glyph-name="" unicode="&#x3093;" d="M900 -100 l-300 0 l0 100 l-100 0 l0 300 l-100 0 l0 -200 l-100 0 l0 -200 l-200 0 l0 200 l100 0 l0 200 l100 0 l0 300 l100 0 l0 200 l200 0 l0 -200 l-100 0 l0 -200 l100 0 l0 -100 l100 0 l0 -300 l100 0 l0 200 l200 0 l0 -200 l-100 0 l0 -100 Z" /><glyph glyph-name="" unicode="&#x30a2;" d="M100 -100 l0 100 l200 0 l0 100 l100 0 l0 400 l200 0 l0 -400 l-100 0 l0 -100 l-100 0 l0 -100 l-300 0 ZM100 600 l0 100 l900 0 l0 -200 l-100 0 l0 -100 l-100 0 l0 -100 l-100 0 l0 200 l100 0 l0 100 l-700 0 Z" /><glyph glyph-name="" unicode="&#x30a4;" d="M100 200 l0 100 l200 0 l0 100 l200 0 l0 100 l100 0 l0 100 l100 0 l0 200 l200 0 l0 -200 l-100 0 l0 -100 l-100 0 l0 -600 l-200 0 l0 400 l-100 0 l0 -100 l-300 0 Z" /><glyph glyph-name="" unicode="&#x30a6;" d="M300 -100 l0 100 l200 0 l0 100 l200 0 l0 200 l100 0 l0 200 l-500 0 l0 -200 l-200 0 l0 300 l300 0 l0 300 l200 0 l0 -300 l400 0 l0 -300 l-100 0 l0 -200 l-100 0 l0 -100 l-200 0 l0 -100 l-300 0 Z" /><glyph glyph-name="" unicode="&#x30a7;" d="M100 -100 l0 100 l300 0 l0 400 l-200 0 l0 100 l600 0 l0 -100 l-200 0 l0 -400 l300 0 l0 -100 l-800 0 Z" /><glyph glyph-name="" unicode="&#x30a9;" d="M200 0 l0 100 l200 0 l0 100 l100 0 l0 100 l-300 0 l0 100 l400 0 l0 200 l200 0 l0 -200 l100 0 l0 -100 l-100 0 l0 -400 l-300 0 l0 100 l100 0 l0 100 l100 0 l0 100 l-100 0 l0 -100 l-100 0 l0 -100 l-300 0 Z" /><glyph glyph-name="" unicode="&#x30aa;" d="M300 -100 l0 100 l200 0 l0 200 l100 0 l0 100 l-100 0 l0 -100 l-200 0 l0 -100 l-300 0 l0 100 l200 0 l0 100 l200 0 l0 100 l100 0 l0 100 l-500 0 l0 100 l500 0 l0 300 l200 0 l0 -300 l300 0 l0 -100 l-300 0 l0 -600 l-400 0 Z" /><glyph glyph-name="" unicode="&#x30ab;" d="M600 -100 l0 100 l200 0 l0 500 l-200 0 l0 -300 l-100 0 l0 -200 l-100 0 l0 -100 l-300 0 l0 100 l200 0 l0 200 l100 0 l0 300 l-300 0 l0 100 l300 0 l0 300 l200 0 l0 -300 l400 0 l0 -600 l-100 0 l0 -100 l-300 0 Z" /><glyph glyph-name="" unicode="&#x30ae;" d="M0 200 l0 100 l400 0 l0 200 l-400 0 l0 100 l300 0 l0 300 l200 0 l0 -300 l100 0 l0 100 l200 0 l0 -100 l100 0 l0 -100 l-100 0 l0 100 l-100 0 l0 -100 l-100 0 l0 -200 l400 0 l0 -100 l-300 0 l0 -300 l-200 0 l0 300 l-500 0 ZM700 800 l0 100 l200 0 l0 -100 l100 0 l0 -100 l-200 0 l0 100 l-100 0 Z" /><glyph glyph-name="" unicode="&#x30af;" d="M200 -100 l0 100 l200 0 l0 100 l200 0 l0 200 l100 0 l0 300 l-200 0 l0 -100 l-100 0 l0 -100 l-100 0 l0 -100 l-200 0 l0 100 l100 0 l0 100 l100 0 l0 400 l200 0 l0 -200 l400 0 l0 -400 l-100 0 l0 -200 l-100 0 l0 -100 l-200 0 l0 -100 l-300 0 Z" /><glyph glyph-name="" unicode="&#x30b0;" d="M100 -100 l0 100 l200 0 l0 100 l200 0 l0 200 l100 0 l0 200 l-300 0 l0 -100 l-100 0 l0 -100 l-200 0 l0 100 l100 0 l0 100 l100 0 l0 300 l200 0 l0 -200 l200 0 l0 100 l-100 0 l0 100 l200 0 l0 -100 l100 0 l0 -400 l-100 0 l0 -200 l-100 0 l0 -100 l-200 0 l0 -100 l-300 0 ZM1000 700 l-200 0 l0 100 l-100 0 l0 100 l200 0 l0 -100 l100 0 l0 -100 Z" /><glyph glyph-name="" unicode="&#x30b1;" d="M200 -100 l0 100 l200 0 l0 100 l100 0 l0 400 l-200 0 l0 -200 l-200 0 l0 200 l100 0 l0 400 l200 0 l0 -300 l600 0 l0 -100 l-300 0 l0 -400 l-100 0 l0 -100 l-100 0 l0 -100 l-300 0 Z" /><glyph glyph-name="" unicode="&#x30b3;" d="M100 0 l0 100 l600 0 l0 500 l-600 0 l0 100 l800 0 l0 -800 l-200 0 l0 100 l-600 0 Z" /><glyph glyph-name="" unicode="&#x30b4;" d="M0 0 l0 100 l600 0 l0 500 l-600 0 l0 100 l500 0 l0 100 l-100 0 l0 100 l200 0 l0 -100 l100 0 l0 -100 l100 0 l0 -800 l-200 0 l0 100 l-600 0 ZM1000 700 l-200 0 l0 100 l-100 0 l0 100 l200 0 l0 -100 l100 0 l0 -100 Z" /><glyph glyph-name="" unicode="&#x30b5;" d="M300 -100 l0 100 l200 0 l0 100 l100 0 l0 400 l-200 0 l0 -200 l-200 0 l0 200 l-200 0 l0 100 l200 0 l0 200 l200 0 l0 -200 l200 0 l0 300 l200 0 l0 -300 l200 0 l0 -100 l-200 0 l0 -400 l-100 0 l0 -100 l-100 0 l0 -100 l-300 0 Z" /><glyph glyph-name="" unicode="&#x30b6;" d="M300 -100 l0 100 l200 0 l0 100 l100 0 l0 400 l-200 0 l0 -200 l-200 0 l0 200 l-200 0 l0 100 l200 0 l0 200 l200 0 l0 -200 l200 0 l0 100 l-100 0 l0 100 l200 0 l0 -100 l100 0 l0 -100 l200 0 l0 -100 l-200 0 l0 -400 l-100 0 l0 -100 l-100 0 l0 -100 l-300 0 ZM1000 700 l-200 0 l0 100 l-100 0 l0 100 l200 0 l0 -100 l100 0 l0 -100 Z" /><glyph glyph-name="" unicode="&#x30b7;" d="M200 -100 l0 100 l200 0 l0 100 l200 0 l0 100 l100 0 l0 200 l100 0 l0 200 l200 0 l0 -200 l-100 0 l0 -200 l-100 0 l0 -100 l-100 0 l0 -100 l-200 0 l0 -100 l-300 0 ZM100 400 l0 100 l300 0 l0 -100 l200 0 l0 -100 l-300 0 l0 100 l-200 0 ZM200 700 l0 100 l300 0 l0 -100 l200 0 l0 -100 l-300 0 l0 100 l-200 0 Z" /><glyph glyph-name="" unicode="&#x30b8;" d="M100 -100 l0 100 l300 0 l0 100 l200 0 l0 100 l100 0 l0 100 l100 0 l0 200 l200 0 l0 -200 l-100 0 l0 -100 l-100 0 l0 -100 l-100 0 l0 -100 l-200 0 l0 -100 l-400 0 ZM100 400 l0 100 l300 0 l0 -100 l200 0 l0 -100 l-300 0 l0 100 l-200 0 ZM100 700 l0 100 l300 0 l0 -100 l100 0 l0 100 l200 0 l0 -100 l100 0 l0 -100 l-100 0 l0 100 l-100 0 l0 -100 l-300 0 l0 100 l-200 0 ZM1000 700 l-200 0 l0 100 l-100 0 l0 100 l200 0 l0 -100 l100 0 l0 -100 Z" /><glyph glyph-name="" unicode="&#x30b9;" d="M0 -100 l0 100 l200 0 l0 100 l200 0 l0 100 l100 0 l0 200 l100 0 l0 200 l-500 0 l0 100 l700 0 l0 -300 l-100 0 l0 -200 l100 0 l0 -100 l100 0 l0 -200 l-200 0 l0 300 l-100 0 l0 -100 l-100 0 l0 -100 l-200 0 l0 -100 l-300 0 Z" /><glyph glyph-name="" unicode="&#x30ba;" d="M0 -100 l0 100 l200 0 l0 100 l200 0 l0 100 l100 0 l0 200 l100 0 l0 200 l-500 0 l0 100 l400 0 l0 100 l-100 0 l0 100 l200 0 l0 -100 l100 0 l0 -100 l100 0 l0 -300 l-100 0 l0 -200 l100 0 l0 -100 l100 0 l0 -200 l-200 0 l0 300 l-100 0 l0 -100 l-100 0 l0 -100 l-200 0 l0 -100 l-300 0 ZM1000 700 l-200 0 l0 100 l-100 0 l0 100 l200 0 l0 -100 l100 0 l0 -100 Z" /><glyph glyph-name="" unicode="&#x30bd;" d="M200 -100 l0 100 l200 0 l0 100 l200 0 l0 100 l100 0 l0 200 l100 0 l0 400 l200 0 l0 -400 l-100 0 l0 -200 l-100 0 l0 -100 l-100 0 l0 -100 l-200 0 l0 -100 l-300 0 ZM400 300 l-200 0 l0 200 l-100 0 l0 200 l200 0 l0 -200 l100 0 l0 -200 Z" /><glyph glyph-name="" unicode="&#x30c1;" d="M100 -100 l0 100 l200 0 l0 100 l100 0 l0 200 l-400 0 l0 100 l400 0 l0 200 l-300 0 l0 100 l400 0 l0 100 l400 0 l0 -100 l-300 0 l0 -300 l400 0 l0 -100 l-400 0 l0 -200 l-100 0 l0 -100 l-100 0 l0 -100 l-300 0 Z" /><glyph glyph-name="" unicode="&#x30c3;" d="M300 -100 l0 100 l300 0 l0 100 l100 0 l0 400 l200 0 l0 -400 l-100 0 l0 -100 l-100 0 l0 -100 l-400 0 ZM400 200 l-200 0 l0 300 l200 0 l0 -300 ZM600 500 l0 -300 l-100 0 l0 300 l100 0 Z" /><glyph glyph-name="" unicode="&#x30c4;" d="M200 -100 l0 100 l300 0 l0 100 l200 0 l0 200 l100 0 l0 400 l200 0 l0 -400 l-100 0 l0 -200 l-100 0 l0 -100 l-200 0 l0 -100 l-400 0 ZM700 300 l-200 0 l0 200 l-100 0 l0 -200 l-200 0 l0 200 l-100 0 l0 200 l200 0 l0 -200 l100 0 l0 200 l200 0 l0 -200 l100 0 l0 -200 Z" /><glyph glyph-name="" unicode="&#x30c8;" d="M400 -100 l-200 0 l0 900 l200 0 l0 -300 l100 0 l0 -100 l200 0 l0 -100 l200 0 l0 -100 l-300 0 l0 100 l-100 0 l0 100 l-100 0 l0 -500 Z" /><glyph glyph-name="" unicode="&#x30c9;" d="M500 700 l0 100 l200 0 l0 -100 l100 0 l0 -100 l-200 0 l0 100 l-100 0 ZM400 -100 l-200 0 l0 900 l200 0 l0 -300 l100 0 l0 -100 l200 0 l0 -100 l200 0 l0 -100 l-300 0 l0 100 l-100 0 l0 100 l-100 0 l0 -500 ZM1000 700 l-200 0 l0 100 l-100 0 l0 100 l200 0 l0 -100 l100 0 l0 -100 Z" /><glyph glyph-name="" unicode="&#x30cb;" d="M100 0 l0 100 l900 0 l0 -100 l-900 0 ZM200 600 l0 100 l700 0 l0 -100 l-700 0 Z" /><glyph glyph-name="" unicode="&#x30cd;" d="M0 100 l0 100 l300 0 l0 100 l200 0 l0 100 l100 0 l0 100 l-500 0 l0 100 l300 0 l0 300 l200 0 l0 -300 l300 0 l0 -100 l-100 0 l0 -100 l-100 0 l0 -100 l100 0 l0 -100 l100 0 l0 -100 l100 0 l0 -100 l-200 0 l0 100 l-100 0 l0 200 l-100 0 l0 -400 l-200 0 l0 200 l100 0 l0 100 l-100 0 l0 -100 l-400 0 Z" /><glyph glyph-name="" unicode="&#x30ce;" d="M100 -100 l0 100 l200 0 l0 100 l200 0 l0 100 l100 0 l0 200 l100 0 l0 300 l200 0 l0 -300 l-100 0 l0 -200 l-100 0 l0 -100 l-100 0 l0 -100 l-200 0 l0 -100 l-300 0 Z" /><glyph glyph-name="" unicode="&#x30d1;" d="M900 -100 l-200 0 l0 300 l-100 0 l0 200 l200 0 l0 -200 l100 0 l0 -300 ZM200 -100 l-200 0 l0 200 l100 0 l0 300 l100 0 l0 300 l200 0 l0 -300 l-100 0 l0 -300 l-100 0 l0 -200 ZM900 500 l-300 0 l0 100 l-100 0 l0 200 l100 0 l0 100 l300 0 l0 -100 l100 0 l0 -200 l-100 0 l0 -100 ZM800 600 l0 200 l-100 0 l0 -200 l100 0 Z" /><glyph glyph-name="" unicode="&#x30d2;" d="M900 -100 l-700 0 l0 100 l-100 0 l0 800 l200 0 l0 -400 l100 0 l0 100 l200 0 l0 100 l300 0 l0 -100 l-200 0 l0 -100 l-200 0 l0 -100 l-200 0 l0 -300 l600 0 l0 -100 Z" /><glyph glyph-name="" unicode="&#x30d4;" d="M900 -100 l-700 0 l0 100 l-100 0 l0 800 l200 0 l0 -400 l100 0 l0 100 l200 0 l0 100 l-100 0 l0 200 l100 0 l0 100 l300 0 l0 -100 l100 0 l0 -200 l-100 0 l0 -100 l-200 0 l0 -100 l-200 0 l0 -100 l-200 0 l0 -300 l600 0 l0 -100 ZM800 600 l0 200 l-100 0 l0 -200 l100 0 Z" /><glyph glyph-name="" unicode="&#x30d5;" d="M200 -100 l0 100 l300 0 l0 100 l200 0 l0 200 l100 0 l0 300 l-700 0 l0 100 l900 0 l0 -400 l-100 0 l0 -200 l-100 0 l0 -100 l-200 0 l0 -100 l-400 0 Z" /><glyph glyph-name="" unicode="&#x30d7;" d="M100 -100 l0 100 l200 0 l0 100 l200 0 l0 200 l100 0 l0 300 l-600 0 l0 100 l500 0 l0 100 l100 0 l0 100 l300 0 l0 -100 l100 0 l0 -200 l-100 0 l0 -100 l-100 0 l0 -200 l-100 0 l0 -200 l-100 0 l0 -100 l-200 0 l0 -100 l-300 0 ZM800 600 l0 200 l-100 0 l0 -200 l100 0 Z" /><glyph glyph-name="" unicode="&#x30d9;" d="M0 200 l0 100 l100 0 l0 100 l100 0 l0 100 l300 0 l0 -100 l100 0 l0 -100 l100 0 l0 -100 l100 0 l0 -100 l200 0 l0 -100 l-300 0 l0 100 l-100 0 l0 100 l-100 0 l0 100 l-100 0 l0 100 l-100 0 l0 -100 l-100 0 l0 -100 l-200 0 ZM500 600 l0 100 l200 0 l0 -100 l100 0 l0 -100 l-200 0 l0 100 l-100 0 ZM1000 600 l-200 0 l0 100 l-100 0 l0 100 l200 0 l0 -100 l100 0 l0 -100 Z" /><glyph glyph-name="" unicode="&#x30da;" d="M0 200 l0 100 l100 0 l0 100 l100 0 l0 100 l300 0 l0 -100 l100 0 l0 -100 l100 0 l0 -100 l100 0 l0 -100 l200 0 l0 -100 l-300 0 l0 100 l-100 0 l0 100 l-100 0 l0 100 l-100 0 l0 100 l-100 0 l0 -100 l-100 0 l0 -100 l-200 0 ZM900 400 l-300 0 l0 100 l-100 0 l0 200 l100 0 l0 100 l300 0 l0 -100 l100 0 l0 -200 l-100 0 l0 -100 ZM800 500 l0 200 l-100 0 l0 -200 l100 0 Z" /><glyph glyph-name="" unicode="&#x30e1;" d="M100 -100 l0 100 l200 0 l0 100 l200 0 l0 100 l100 0 l0 100 l-100 0 l0 100 l-100 0 l0 100 l-100 0 l0 100 l200 0 l0 -100 l100 0 l0 -100 l100 0 l0 400 l200 0 l0 -400 l-100 0 l0 -200 l100 0 l0 -100 l100 0 l0 -100 l-200 0 l0 200 l-100 0 l0 -100 l-100 0 l0 -100 l-200 0 l0 -100 l-300 0 Z" /><glyph glyph-name="" unicode="&#x30e2;" d="M0 300 l0 100 l300 0 l0 200 l-200 0 l0 100 l800 0 l0 -100 l-400 0 l0 -200 l500 0 l0 -100 l-500 0 l0 -300 l400 0 l0 -100 l-500 0 l0 100 l-100 0 l0 300 l-300 0 Z" /><glyph glyph-name="" unicode="&#x30e3;" d="M200 200 l0 100 l100 0 l0 300 l200 0 l0 -300 l100 0 l0 -400 l-200 0 l0 300 l-200 0 ZM800 200 l0 -100 l-100 0 l0 200 l-100 0 l0 100 l300 0 l0 -200 l-100 0 Z" /><glyph glyph-name="" unicode="&#x30e4;" d="M0 400 l0 100 l300 0 l0 400 l200 0 l0 -300 l100 0 l0 100 l400 0 l0 -300 l-100 0 l0 -200 l-200 0 l0 200 l100 0 l0 200 l-100 0 l0 -100 l-200 0 l0 -200 l100 0 l0 -400 l-200 0 l0 400 l-100 0 l0 100 l-300 0 Z" /><glyph glyph-name="" unicode="&#x30e6;" d="M0 0 l0 100 l600 0 l0 500 l-500 0 l0 100 l700 0 l0 -600 l200 0 l0 -100 l-1000 0 Z" /><glyph glyph-name="" unicode="&#x30e9;" d="M300 -100 l0 100 l200 0 l0 100 l200 0 l0 100 l100 0 l0 200 l-700 0 l0 100 l900 0 l0 -300 l-100 0 l0 -100 l-100 0 l0 -100 l-200 0 l0 -100 l-300 0 ZM200 700 l0 100 l700 0 l0 -100 l-700 0 Z" /><glyph glyph-name="" unicode="&#x30ea;" d="M300 -100 l0 100 l200 0 l0 100 l100 0 l0 700 l200 0 l0 -700 l-100 0 l0 -100 l-100 0 l0 -100 l-300 0 ZM400 300 l-200 0 l0 500 l200 0 l0 -500 Z" /><glyph glyph-name="" unicode="&#x30eb;" d="M700 -100 l-300 0 l0 900 l200 0 l0 -800 l100 0 l0 -100 ZM200 -100 l-200 0 l0 200 l100 0 l0 600 l200 0 l0 -600 l-100 0 l0 -200 ZM700 0 l0 300 l100 0 l0 200 l200 0 l0 -200 l-100 0 l0 -200 l-100 0 l0 -100 l-100 0 Z" /><glyph glyph-name="" unicode="&#x30ef;" d="M300 -100 l0 100 l200 0 l0 100 l200 0 l0 200 l100 0 l0 300 l-500 0 l0 -300 l-200 0 l0 400 l900 0 l0 -400 l-100 0 l0 -200 l-100 0 l0 -100 l-200 0 l0 -100 l-300 0 Z" /><glyph glyph-name="" unicode="&#x30f3;" d="M200 -100 l0 100 l200 0 l0 100 l200 0 l0 100 l100 0 l0 200 l100 0 l0 200 l200 0 l0 -200 l-100 0 l0 -200 l-100 0 l0 -100 l-100 0 l0 -100 l-200 0 l0 -100 l-300 0 ZM100 600 l0 100 l300 0 l0 -100 l200 0 l0 -100 l-300 0 l0 100 l-200 0 Z" /><glyph glyph-name="" unicode="&#x30fc;" d="M100 400 l0 100 l200 0 l0 -100 l700 0 l0 -100 l-800 0 l0 100 l-100 0 Z" /><glyph glyph-name="" unicode="&#x4e00;" d="M0 300 l0 100 l800 0 l0 100 l200 0 l0 -200 l-1000 0 Z" /><glyph glyph-name="" unicode="&#x4e01;" d="M200 -100 l0 100 l200 0 l0 700 l-400 0 l0 100 l1000 0 l0 -100 l-400 0 l0 -800 l-400 0 Z" /><glyph glyph-name="" unicode="&#x4e07;" d="M400 -100 l0 100 l200 0 l0 100 l100 0 l0 300 l-300 0 l0 -200 l-100 0 l0 -200 l-200 0 l0 200 l100 0 l0 200 l100 0 l0 300 l-300 0 l0 100 l1000 0 l0 -100 l-500 0 l0 -200 l400 0 l0 -400 l-100 0 l0 -100 l-100 0 l0 -100 l-300 0 Z" /><glyph glyph-name="" unicode="&#x4e08;" d="M0 -100 l0 100 l200 0 l0 100 l200 0 l0 100 l-100 0 l0 100 l-100 0 l0 100 l200 0 l0 -100 l100 0 l0 -100 l100 0 l0 -100 l200 0 l0 -100 l200 0 l0 -100 l-300 0 l0 100 l-100 0 l0 100 l-100 0 l0 -100 l-200 0 l0 -100 l-300 0 ZM0 500 l0 100 l500 0 l0 300 l200 0 l0 -300 l300 0 l0 -100 l-300 0 l0 -300 l-100 0 l0 100 l-100 0 l0 200 l-500 0 Z" /><glyph glyph-name="" unicode="&#x4e09;" d="M0 -100 l0 100 l800 0 l0 100 l200 0 l0 -200 l-1000 0 ZM200 300 l0 100 l600 0 l0 -100 l-600 0 ZM100 700 l0 100 l800 0 l0 -100 l-800 0 Z" /><glyph glyph-name="" unicode="&#x4e0a;" d="M0 -100 l0 100 l400 0 l0 900 l200 0 l0 -400 l300 0 l0 -100 l-300 0 l0 -400 l400 0 l0 -100 l-1000 0 Z" /><glyph glyph-name="" unicode="&#x4e0b;" d="M0 700 l0 100 l1000 0 l0 -100 l-400 0 l0 -200 l100 0 l0 -100 l100 0 l0 -100 l100 0 l0 -100 l-200 0 l0 200 l-100 0 l0 -500 l-200 0 l0 800 l-400 0 Z" /><glyph glyph-name="" unicode="&#x4e0d;" d="M0 200 l0 100 l200 0 l0 100 l200 0 l0 100 l100 0 l0 100 l100 0 l0 100 l-600 0 l0 100 l1000 0 l0 -100 l-200 0 l0 -100 l-100 0 l0 -100 l-100 0 l0 -600 l-200 0 l0 400 l-100 0 l0 -100 l-300 0 ZM1000 100 l-200 0 l0 100 l-100 0 l0 200 l100 0 l0 -100 l100 0 l0 -100 l100 0 l0 -100 Z" /><glyph glyph-name="" unicode="&#x4e0e;" d="M200 -100 l0 100 l400 0 l0 100 l100 0 l0 100 l-700 0 l0 100 l700 0 l0 100 l-500 0 l0 500 l200 0 l0 -200 l500 0 l0 -100 l-500 0 l0 -100 l500 0 l0 -200 l100 0 l0 -100 l-100 0 l0 -100 l-100 0 l0 -100 l-100 0 l0 -100 l-500 0 Z" /><glyph glyph-name="" unicode="&#x4e16;" d="M0 500 l0 100 l100 0 l0 200 l200 0 l0 -200 l100 0 l0 300 l200 0 l0 -300 l100 0 l0 200 l200 0 l0 -200 l100 0 l0 -100 l-100 0 l0 -300 l-500 0 l0 300 l-100 0 l0 -500 l700 0 l0 -100 l-900 0 l0 600 l-100 0 ZM700 300 l0 200 l-100 0 l0 -200 l100 0 Z" /><glyph glyph-name="" unicode="&#x4e26;" d="M0 -100 l0 100 l300 0 l0 200 l100 0 l0 100 l-100 0 l0 -100 l-200 0 l0 100 l-100 0 l0 100 l200 0 l0 -100 l100 0 l0 200 l-300 0 l0 100 l1000 0 l0 -100 l-300 0 l0 -500 l300 0 l0 -100 l-1000 0 ZM200 800 l0 100 l200 0 l0 -100 l100 0 l0 -100 l-200 0 l0 100 l-100 0 ZM600 0 l0 500 l-100 0 l0 -500 l100 0 ZM900 300 l0 -100 l-100 0 l0 200 l200 0 l0 -100 l-100 0 ZM700 800 l0 -100 l-100 0 l0 200 l200 0 l0 -100 l-100 0 Z" /><glyph glyph-name="" unicode="&#x4e2d;" d="M600 -100 l-200 0 l0 300 l-400 0 l0 500 l400 0 l0 200 l200 0 l0 -200 l400 0 l0 -500 l-400 0 l0 -300 ZM600 300 l200 0 l0 300 l-200 0 l0 -300 ZM200 300 l200 0 l0 300 l-200 0 l0 -300 Z" /><glyph glyph-name="" unicode="&#x4e3b;" d="M0 -100 l0 100 l400 0 l0 200 l-300 0 l0 100 l300 0 l0 200 l-400 0 l0 100 l1000 0 l0 -100 l-400 0 l0 -200 l300 0 l0 -100 l-300 0 l0 -200 l400 0 l0 -100 l-1000 0 ZM300 800 l0 100 l200 0 l0 -100 l100 0 l0 -100 l-200 0 l0 100 l-100 0 Z" /><glyph glyph-name="" unicode="&#x4e4f;" d="M0 400 l0 100 l400 0 l0 100 l-300 0 l0 100 l400 0 l0 100 l400 0 l0 -100 l-300 0 l0 -200 l300 0 l0 -100 l-100 0 l0 -100 l-100 0 l0 -100 l-100 0 l0 -100 l-100 0 l0 -100 l500 0 l0 -100 l-600 0 l0 100 l-100 0 l0 100 l100 0 l0 100 l100 0 l0 100 l100 0 l0 100 l-600 0 ZM200 -100 l-200 0 l0 200 l100 0 l0 200 l200 0 l0 -200 l-100 0 l0 -200 Z" /><glyph glyph-name="" unicode="&#x4e57;" d="M0 -100 l0 100 l200 0 l0 100 l-200 0 l0 100 l100 0 l0 100 l-100 0 l0 100 l100 0 l0 100 l-100 0 l0 100 l400 0 l0 100 l-300 0 l0 100 l800 0 l0 -100 l-300 0 l0 -100 l400 0 l0 -100 l-100 0 l0 -100 l100 0 l0 -100 l-100 0 l0 -100 l100 0 l0 -100 l-200 0 l0 -100 l200 0 l0 -100 l-300 0 l0 200 l-100 0 l0 -200 l-200 0 l0 100 l100 0 l0 100 l-100 0 l0 -100 l-100 0 l0 -100 l-300 0 ZM700 200 l0 100 l-100 0 l0 -100 l100 0 ZM400 200 l0 100 l-100 0 l0 -100 l100 0 ZM700 400 l0 100 l-100 0 l0 -100 l100 0 ZM400 400 l0 100 l-100 0 l0 -100 l100 0 Z" /><glyph glyph-name="" unicode="&#x4e59;" d="M100 700 l0 100 l800 0 l0 -200 l-100 0 l0 -100 l-100 0 l0 -100 l-100 0 l0 -100 l-100 0 l0 -100 l-100 0 l0 -100 l-100 0 l0 -100 l500 0 l0 300 l200 0 l0 -300 l-100 0 l0 -100 l-800 0 l0 200 l100 0 l0 100 l100 0 l0 100 l100 0 l0 100 l100 0 l0 100 l100 0 l0 100 l100 0 l0 100 l-600 0 Z" /><glyph glyph-name="" unicode="&#x4e5d;" d="M0 -100 l0 100 l200 0 l0 200 l100 0 l0 300 l-300 0 l0 100 l300 0 l0 300 l200 0 l0 -300 l300 0 l0 -600 l100 0 l0 300 l100 0 l0 -400 l-400 0 l0 600 l-100 0 l0 -300 l-100 0 l0 -200 l-100 0 l0 -100 l-300 0 Z" /><glyph glyph-name="" unicode="&#x4e71;" d="M0 400 l0 100 l200 0 l0 100 l-200 0 l0 100 l300 0 l0 100 l300 0 l0 -100 l100 0 l0 100 l100 0 l0 -800 l100 0 l0 200 l100 0 l0 -300 l-300 0 l0 400 l-100 0 l0 -400 l-600 0 l0 400 l200 0 l0 100 l-200 0 ZM200 0 l200 0 l0 200 l-200 0 l0 -200 ZM400 300 l200 0 l0 100 l100 0 l0 100 l-100 0 l0 -100 l-200 0 l0 -100 ZM400 500 l200 0 l0 200 l-200 0 l0 -200 Z" /><glyph glyph-name="" unicode="&#x4e88;" d="M300 -100 l0 100 l100 0 l0 300 l-400 0 l0 100 l400 0 l0 100 l100 0 l0 100 l100 0 l0 100 l-400 0 l0 100 l600 0 l0 -200 l-100 0 l0 -100 l-100 0 l0 -100 l400 0 l0 -200 l-100 0 l0 -100 l-200 0 l0 100 l100 0 l0 100 l-200 0 l0 -400 l-300 0 Z" /><glyph glyph-name="" unicode="&#x4e89;" d="M300 -100 l0 100 l100 0 l0 100 l-300 0 l0 100 l300 0 l0 100 l-400 0 l0 100 l400 0 l0 100 l-400 0 l0 100 l100 0 l0 100 l100 0 l0 100 l600 0 l0 -100 l-100 0 l0 -100 l200 0 l0 -200 l100 0 l0 -100 l-100 0 l0 -200 l-300 0 l0 -200 l-300 0 ZM700 200 l0 100 l-100 0 l0 -100 l100 0 ZM700 400 l0 100 l-100 0 l0 -100 l100 0 ZM300 600 l200 0 l0 100 l-200 0 l0 -100 Z" /><glyph glyph-name="" unicode="&#x4e8b;" d="M300 -100 l0 100 l100 0 l0 100 l-400 0 l0 100 l400 0 l0 100 l-400 0 l0 100 l200 0 l0 200 l-200 0 l0 100 l400 0 l0 200 l200 0 l0 -200 l400 0 l0 -100 l-200 0 l0 -200 l100 0 l0 -100 l100 0 l0 -100 l-100 0 l0 -100 l-300 0 l0 -200 l-300 0 ZM700 200 l0 100 l-100 0 l0 -100 l100 0 ZM700 400 l0 200 l-100 0 l0 -200 l100 0 ZM500 400 l0 200 l-100 0 l0 -200 l100 0 Z" /><glyph glyph-name="" unicode="&#x4e8c;" d="M0 0 l0 100 l800 0 l0 100 l200 0 l0 -200 l-1000 0 ZM100 600 l0 100 l800 0 l0 -100 l-800 0 Z" /><glyph glyph-name="" unicode="&#x4e91;" d="M0 400 l0 100 l1000 0 l0 -100 l-500 0 l0 -200 l-100 0 l0 -100 l-100 0 l0 -100 l200 0 l0 100 l100 0 l0 200 l200 0 l0 -200 l100 0 l0 -200 l-200 0 l0 100 l100 0 l0 100 l-100 0 l0 -100 l-100 0 l0 -100 l-500 0 l0 200 l100 0 l0 100 l100 0 l0 200 l-300 0 ZM100 700 l0 100 l800 0 l0 -100 l-800 0 Z" /><glyph glyph-name="" unicode="&#x4e94;" d="M0 -100 l0 100 l300 0 l0 300 l-200 0 l0 100 l300 0 l0 300 l-300 0 l0 100 l800 0 l0 -100 l-300 0 l0 -300 l300 0 l0 -400 l100 0 l0 -100 l-1000 0 ZM500 0 l200 0 l0 300 l-200 0 l0 -300 Z" /><glyph glyph-name="" unicode="&#x4ea1;" d="M0 500 l0 100 l400 0 l0 300 l200 0 l0 -300 l400 0 l0 -100 l-700 0 l0 -500 l700 0 l0 -100 l-800 0 l0 100 l-100 0 l0 500 l-100 0 Z" /><glyph glyph-name="" unicode="&#x4ea4;" d="M0 -100 l0 100 l200 0 l0 100 l200 0 l0 100 l-100 0 l0 200 l100 0 l0 -100 l100 0 l0 -100 l100 0 l0 -100 l200 0 l0 -100 l200 0 l0 -100 l-300 0 l0 100 l-100 0 l0 100 l-100 0 l0 -100 l-200 0 l0 -100 l-300 0 ZM0 300 l0 100 l100 0 l0 100 l100 0 l0 100 l-200 0 l0 100 l400 0 l0 200 l200 0 l0 -200 l400 0 l0 -100 l-200 0 l0 -100 l100 0 l0 -100 l100 0 l0 -100 l-100 0 l0 100 l-100 0 l0 -100 l-100 0 l0 -100 l-100 0 l0 200 l100 0 l0 100 l-100 0 l0 100 l-200 0 l0 -100 l-100 0 l0 -100 l-100 0 l0 -100 l-200 0 Z" /><glyph glyph-name="" unicode="&#x4eab;" d="M300 -100 l0 100 l100 0 l0 100 l-400 0 l0 100 l500 0 l0 100 l-400 0 l0 100 l100 0 l0 200 l-200 0 l0 100 l400 0 l0 200 l200 0 l0 -200 l400 0 l0 -100 l-200 0 l0 -200 l100 0 l0 -100 l-200 0 l0 -100 l300 0 l0 -100 l-400 0 l0 -200 l-300 0 ZM400 400 l200 0 l0 200 l-200 0 l0 -200 Z" /><glyph glyph-name="" unicode="&#x4eba;" d="M0 -100 l0 100 l100 0 l0 100 l100 0 l0 100 l100 0 l0 200 l100 0 l0 400 l200 0 l0 -400 l100 0 l0 -200 l100 0 l0 -100 l100 0 l0 -100 l100 0 l0 -100 l-200 0 l0 100 l-100 0 l0 100 l-100 0 l0 300 l-100 0 l0 -200 l-100 0 l0 -100 l-100 0 l0 -100 l-100 0 l0 -100 l-200 0 Z" /><glyph glyph-name="" unicode="&#x4eca;" d="M300 -100 l0 100 l300 0 l0 100 l100 0 l0 100 l-600 0 l0 100 l800 0 l0 -200 l-100 0 l0 -100 l-100 0 l0 -100 l-400 0 ZM0 400 l0 100 l100 0 l0 100 l100 0 l0 100 l100 0 l0 100 l400 0 l0 -100 l100 0 l0 -100 l100 0 l0 -100 l100 0 l0 -100 l-100 0 l0 100 l-100 0 l0 -100 l-500 0 l0 100 l400 0 l0 100 l-100 0 l0 100 l-200 0 l0 -100 l-100 0 l0 -100 l-100 0 l0 -100 l-200 0 Z" /><glyph glyph-name="" unicode="&#x4ecb;" d="M0 400 l0 100 l100 0 l0 100 l100 0 l0 100 l100 0 l0 100 l400 0 l0 -100 l100 0 l0 -100 l100 0 l0 -100 l100 0 l0 -100 l-100 0 l0 100 l-100 0 l0 -600 l-200 0 l0 600 l100 0 l0 100 l-100 0 l0 100 l-200 0 l0 -100 l-100 0 l0 -100 l100 0 l0 -400 l-100 0 l0 -200 l-200 0 l0 200 l100 0 l0 300 l100 0 l0 100 l-100 0 l0 -100 l-200 0 Z" /><glyph glyph-name="" unicode="&#x4ed5;" d="M400 -100 l0 100 l200 0 l0 500 l-200 0 l0 100 l200 0 l0 300 l200 0 l0 -300 l200 0 l0 -100 l-200 0 l0 -500 l200 0 l0 -100 l-600 0 ZM0 400 l0 100 l100 0 l0 100 l100 0 l0 200 l200 0 l0 -200 l-100 0 l0 -700 l-200 0 l0 500 l-100 0 Z" /><glyph glyph-name="" unicode="&#x4ed6;" d="M0 400 l0 100 l100 0 l0 100 l100 0 l0 200 l200 0 l0 -200 l100 0 l0 100 l100 0 l0 -200 l100 0 l0 200 l-100 0 l0 200 l200 0 l0 -300 l100 0 l0 100 l100 0 l0 -400 l-100 0 l0 200 l-100 0 l0 -300 l-100 0 l0 200 l-100 0 l0 -400 l200 0 l0 100 l200 0 l0 -200 l-600 0 l0 700 l-100 0 l0 -700 l-200 0 l0 500 l-100 0 Z" /><glyph glyph-name="" unicode="&#x4ee3;" d="M0 400 l0 100 l100 0 l0 100 l100 0 l0 200 l200 0 l0 -200 l100 0 l0 300 l200 0 l0 -300 l300 0 l0 -100 l-200 0 l0 -200 l100 0 l0 -200 l100 0 l0 -200 l-200 0 l0 200 l-100 0 l0 200 l-100 0 l0 200 l-200 0 l0 100 l-100 0 l0 -700 l-200 0 l0 500 l-100 0 ZM1000 700 l-200 0 l0 200 l100 0 l0 -100 l100 0 l0 -100 Z" /><glyph glyph-name="" unicode="&#x4ee4;" d="M700 -100 l0 100 l100 0 l0 200 l-200 0 l0 -300 l-200 0 l0 300 l-300 0 l0 100 l900 0 l0 -300 l-100 0 l0 -100 l-200 0 ZM0 400 l0 100 l100 0 l0 100 l100 0 l0 100 l100 0 l0 100 l500 0 l0 -100 l100 0 l0 -100 l100 0 l0 -100 l-100 0 l0 -100 l-600 0 l0 100 l500 0 l0 100 l-100 0 l0 100 l-300 0 l0 -100 l-100 0 l0 -100 l-100 0 l0 -100 l-200 0 Z" /><glyph glyph-name="" unicode="&#x4ee5;" d="M200 -100 l0 100 l200 0 l0 100 l200 0 l0 200 l100 0 l0 500 l200 0 l0 -500 l-100 0 l0 -200 l100 0 l0 -100 l100 0 l0 -100 l-200 0 l0 200 l-100 0 l0 -100 l-200 0 l0 -100 l-300 0 ZM0 100 l0 100 l100 0 l0 600 l200 0 l0 -600 l100 0 l0 -100 l-400 0 ZM400 200 l0 100 l100 0 l0 -100 l-100 0 ZM600 500 l-200 0 l0 200 l100 0 l0 -100 l100 0 l0 -100 Z" /><glyph glyph-name="" unicode="&#x4eee;" d="M400 -100 l0 100 l200 0 l0 300 l100 0 l0 -200 l100 0 l0 300 l-200 0 l0 -100 l-100 0 l0 -200 l-100 0 l0 500 l100 0 l0 200 l500 0 l0 -100 l-400 0 l0 -200 l400 0 l0 -300 l-100 0 l0 -200 l100 0 l0 -100 l-200 0 l0 100 l-100 0 l0 -100 l-300 0 ZM0 400 l0 100 l100 0 l0 100 l100 0 l0 200 l200 0 l0 -200 l-100 0 l0 -700 l-200 0 l0 500 l-100 0 Z" /><glyph glyph-name="" unicode="&#x4ef2;" d="M0 400 l0 100 l100 0 l0 100 l100 0 l0 200 l200 0 l0 -100 l200 0 l0 200 l200 0 l0 -200 l200 0 l0 -500 l-200 0 l0 -300 l-200 0 l0 300 l-200 0 l0 400 l-100 0 l0 -700 l-200 0 l0 500 l-100 0 ZM900 300 l0 300 l-100 0 l0 -300 l100 0 ZM600 300 l0 300 l-100 0 l0 -300 l100 0 Z" /><glyph glyph-name="" unicode="&#x4efb;" d="M400 -100 l0 100 l200 0 l0 300 l-200 0 l0 100 l200 0 l0 200 l-300 0 l0 -700 l-200 0 l0 500 l-100 0 l0 100 l100 0 l0 100 l100 0 l0 200 l200 0 l0 -100 l300 0 l0 100 l300 0 l0 -100 l-200 0 l0 -300 l200 0 l0 -100 l-200 0 l0 -300 l200 0 l0 -100 l-600 0 Z" /><glyph glyph-name="" unicode="&#x4f01;" d="M0 -100 l0 100 l200 0 l0 300 l200 0 l0 -300 l100 0 l0 300 l-100 0 l0 300 l200 0 l0 -200 l200 0 l0 -100 l-200 0 l0 -300 l400 0 l0 -100 l-1000 0 ZM0 400 l0 100 l100 0 l0 100 l100 0 l0 100 l100 0 l0 100 l400 0 l0 -100 l100 0 l0 -100 l100 0 l0 -100 l100 0 l0 -100 l-200 0 l0 100 l-100 0 l0 100 l-100 0 l0 100 l-200 0 l0 -100 l-100 0 l0 -100 l-100 0 l0 -100 l-200 0 Z" /><glyph glyph-name="" unicode="&#x4f0a;" d="M400 -100 l0 100 l200 0 l0 200 l-200 0 l0 100 l200 0 l0 200 l-200 0 l0 100 l200 0 l0 100 l-100 0 l0 100 l500 0 l0 -600 l-200 0 l0 -200 l-100 0 l0 -100 l-300 0 ZM0 400 l0 100 l100 0 l0 100 l100 0 l0 200 l200 0 l0 -200 l-100 0 l0 -700 l-200 0 l0 500 l-100 0 ZM900 300 l0 200 l-100 0 l0 -200 l100 0 ZM900 600 l0 100 l-100 0 l0 -100 l100 0 Z" /><glyph glyph-name="" unicode="&#x4f1a;" d="M0 200 l0 100 l1000 0 l0 -100 l-200 0 l0 -100 l100 0 l0 -200 l-200 0 l0 100 l100 0 l0 100 l-100 0 l0 -100 l-100 0 l0 -100 l-500 0 l0 200 l100 0 l0 100 l-200 0 ZM0 400 l0 100 l100 0 l0 100 l100 0 l0 100 l100 0 l0 100 l400 0 l0 -100 l100 0 l0 -100 l100 0 l0 -100 l100 0 l0 -100 l-100 0 l0 100 l-100 0 l0 -100 l-500 0 l0 100 l400 0 l0 100 l-100 0 l0 100 l-200 0 l0 -100 l-100 0 l0 -100 l-100 0 l0 -100 l-200 0 ZM300 0 l200 0 l0 100 l100 0 l0 100 l-200 0 l0 -100 l-100 0 l0 -100 Z" /><glyph glyph-name="" unicode="&#x4f34;" d="M400 100 l0 100 l200 0 l0 100 l-200 0 l0 100 l200 0 l0 100 l100 0 l0 200 l-100 0 l0 -200 l-200 0 l0 100 l100 0 l0 100 l100 0 l0 200 l200 0 l0 -300 l100 0 l0 -100 l-100 0 l0 -100 l200 0 l0 -100 l-200 0 l0 -100 l200 0 l0 -100 l-200 0 l0 -200 l-200 0 l0 200 l-200 0 ZM0 400 l0 100 l100 0 l0 100 l100 0 l0 200 l200 0 l0 -200 l-100 0 l0 -700 l-200 0 l0 500 l-100 0 ZM900 600 l0 100 l100 0 l0 -100 l-100 0 Z" /><glyph glyph-name="" unicode="&#x4f3c;" d="M400 -100 l0 100 l200 0 l0 100 l100 0 l0 100 l100 0 l0 300 l100 0 l0 100 l-100 0 l0 -100 l-100 0 l0 100 l100 0 l0 200 l200 0 l0 -500 l-100 0 l0 -200 l100 0 l0 -200 l-200 0 l0 100 l100 0 l0 100 l-100 0 l0 -100 l-100 0 l0 -100 l-300 0 ZM0 400 l0 100 l100 0 l0 100 l100 0 l0 200 l200 0 l0 -200 l100 0 l0 200 l100 0 l0 -100 l100 0 l0 -100 l-100 0 l0 -300 l100 0 l0 -100 l-200 0 l0 -100 l-200 0 l0 -200 l-200 0 l0 500 l-100 0 ZM400 200 l0 400 l-100 0 l0 -400 l100 0 Z" /><glyph glyph-name="" unicode="&#x4f4d;" d="M400 -100 l0 100 l200 0 l0 100 l100 0 l0 400 l200 0 l0 -300 l-100 0 l0 -200 l200 0 l0 -100 l-600 0 ZM0 400 l0 100 l100 0 l0 100 l100 0 l0 200 l200 0 l0 -100 l100 0 l0 200 l200 0 l0 -200 l300 0 l0 -100 l-700 0 l0 -700 l-200 0 l0 500 l-100 0 ZM600 100 l-200 0 l0 400 l200 0 l0 -400 Z" /><glyph glyph-name="" unicode="&#x4f4f;" d="M400 -100 l0 100 l200 0 l0 200 l-200 0 l0 100 l200 0 l0 200 l-200 0 l0 100 l600 0 l0 -100 l-200 0 l0 -200 l200 0 l0 -100 l-200 0 l0 -200 l200 0 l0 -100 l-600 0 ZM0 400 l0 100 l100 0 l0 100 l100 0 l0 200 l200 0 l0 -200 l-100 0 l0 -700 l-200 0 l0 500 l-100 0 ZM500 800 l0 100 l200 0 l0 -100 l100 0 l0 -100 l-200 0 l0 100 l-100 0 Z" /><glyph glyph-name="" unicode="&#x4f53;" d="M0 400 l0 100 l100 0 l0 100 l100 0 l0 200 l200 0 l0 -200 l200 0 l0 300 l200 0 l0 -300 l200 0 l0 -100 l-200 0 l0 -100 l100 0 l0 -100 l100 0 l0 -100 l-100 0 l0 100 l-100 0 l0 -200 l200 0 l0 -100 l-200 0 l0 -100 l-200 0 l0 100 l-200 0 l0 300 l100 0 l0 100 l100 0 l0 100 l-200 0 l0 100 l-100 0 l0 -700 l-200 0 l0 500 l-100 0 ZM600 100 l0 100 l100 0 l0 100 l-100 0 l0 -100 l-100 0 l0 -100 l100 0 Z" /><glyph glyph-name="" unicode="&#x4f55;" d="M700 -100 l0 100 l100 0 l0 100 l100 0 l0 500 l-100 0 l0 -500 l-400 0 l0 500 l400 0 l0 100 l-400 0 l0 -100 l-100 0 l0 -700 l-200 0 l0 500 l-100 0 l0 100 l100 0 l0 100 l100 0 l0 200 l800 0 l0 -900 l-300 0 ZM600 200 l0 300 l-100 0 l0 -300 l100 0 Z" /><glyph glyph-name="" unicode="&#x4f59;" d="M0 -100 l0 100 l100 0 l0 100 l200 0 l0 -100 l100 0 l0 200 l-400 0 l0 100 l400 0 l0 100 l-100 0 l0 100 l400 0 l0 100 l-100 0 l0 100 l-200 0 l0 -100 l-100 0 l0 -100 l-100 0 l0 -100 l-200 0 l0 100 l100 0 l0 100 l100 0 l0 100 l100 0 l0 100 l400 0 l0 -100 l100 0 l0 -100 l100 0 l0 -100 l100 0 l0 -100 l-100 0 l0 100 l-100 0 l0 -100 l-200 0 l0 -100 l400 0 l0 -100 l-400 0 l0 -300 l-300 0 l0 100 l-100 0 l0 -100 l-200 0 ZM700 0 l0 100 l200 0 l0 -100 l100 0 l0 -100 l-200 0 l0 100 l-100 0 Z" /><glyph glyph-name="" unicode="&#x4f5c;" d="M0 400 l0 100 l100 0 l0 100 l100 0 l0 200 l200 0 l0 -200 l100 0 l0 -200 l100 0 l0 200 l-100 0 l0 200 l-100 0 l0 100 l200 0 l0 -200 l400 0 l0 -100 l-300 0 l0 -100 l300 0 l0 -100 l-300 0 l0 -200 l300 0 l0 -100 l-300 0 l0 -200 l-200 0 l0 500 l-100 0 l0 200 l-100 0 l0 -700 l-200 0 l0 500 l-100 0 Z" /><glyph glyph-name="" unicode="&#x4f7f;" d="M400 -100 l0 100 l100 0 l0 100 l100 0 l0 100 l-200 0 l0 300 l200 0 l0 100 l-300 0 l0 -700 l-200 0 l0 500 l-100 0 l0 100 l100 0 l0 100 l100 0 l0 200 l200 0 l0 -100 l200 0 l0 200 l200 0 l0 -200 l200 0 l0 -100 l-200 0 l0 -100 l200 0 l0 -300 l-200 0 l0 -100 l100 0 l0 -100 l100 0 l0 -100 l-200 0 l0 200 l-100 0 l0 -100 l-100 0 l0 -100 l-200 0 ZM900 300 l0 100 l-100 0 l0 -100 l100 0 ZM600 300 l0 100 l-100 0 l0 -100 l100 0 Z" /><glyph glyph-name="" unicode="&#x4f8b;" d="M700 -100 l0 100 l100 0 l0 100 l100 0 l0 600 l-100 0 l0 -600 l-100 0 l0 500 l-100 0 l0 -500 l-100 0 l0 -100 l-100 0 l0 -100 l-400 0 l0 700 l100 0 l0 200 l600 0 l0 -100 l100 0 l0 100 l200 0 l0 -900 l-300 0 ZM300 0 l0 100 l100 0 l0 200 l100 0 l0 200 l-100 0 l0 -200 l-100 0 l0 -100 l-100 0 l0 -200 l100 0 ZM300 300 l0 300 l100 0 l0 100 l-100 0 l0 -100 l-100 0 l0 -300 l100 0 ZM600 600 l0 100 l-100 0 l0 -100 l100 0 Z" /><glyph glyph-name="" unicode="&#x4f9b;" d="M700 0 l0 100 l200 0 l0 -100 l100 0 l0 -100 l-200 0 l0 100 l-100 0 ZM0 400 l0 100 l100 0 l0 100 l100 0 l0 200 l200 0 l0 -200 l100 0 l0 200 l-100 0 l0 100 l200 0 l0 -300 l100 0 l0 300 l200 0 l0 -300 l100 0 l0 -100 l-100 0 l0 -200 l100 0 l0 -100 l-700 0 l0 -300 l-200 0 l0 500 l-100 0 ZM500 0 l0 -100 l-100 0 l0 200 l200 0 l0 -100 l-100 0 ZM700 300 l0 200 l-100 0 l0 -200 l100 0 ZM400 300 l0 300 l-100 0 l0 -300 l100 0 Z" /><glyph glyph-name="" unicode="&#x4f9d;" d="M0 400 l0 100 l100 0 l0 100 l100 0 l0 200 l200 0 l0 -100 l100 0 l0 200 l200 0 l0 -200 l300 0 l0 -100 l-300 0 l0 -100 l100 0 l0 -200 l100 0 l0 -200 l100 0 l0 -200 l-200 0 l0 100 l100 0 l0 100 l-100 0 l0 -100 l-100 0 l0 -100 l-300 0 l0 200 l100 0 l0 100 l-100 0 l0 -100 l-100 0 l0 -200 l-200 0 l0 500 l-100 0 ZM700 0 l0 500 l-100 0 l0 -500 l100 0 ZM400 200 l0 300 l100 0 l0 100 l-200 0 l0 -400 l100 0 ZM900 300 l0 200 l100 0 l0 -200 l-100 0 Z" /><glyph glyph-name="" unicode="&#x4fa1;" d="M1000 -100 l-700 0 l0 600 l100 0 l0 200 l-100 0 l0 -200 l-100 0 l0 -600 l-200 0 l0 600 l100 0 l0 300 l900 0 l0 -100 l-200 0 l0 -200 l200 0 l0 -600 ZM900 0 l0 400 l-100 0 l0 -400 l100 0 ZM700 0 l0 400 l-100 0 l0 -400 l100 0 ZM500 0 l0 400 l-100 0 l0 -400 l100 0 ZM700 500 l0 200 l-100 0 l0 -200 l100 0 Z" /><glyph glyph-name="" unicode="&#x4fbf;" d="M400 -100 l0 100 l100 0 l0 100 l-100 0 l0 500 l200 0 l0 100 l-200 0 l0 -100 l-100 0 l0 -700 l-200 0 l0 500 l-100 0 l0 100 l100 0 l0 100 l100 0 l0 200 l800 0 l0 -100 l-200 0 l0 -100 l200 0 l0 -500 l-200 0 l0 -100 l200 0 l0 -100 l-300 0 l0 100 l-100 0 l0 -100 l-200 0 ZM700 100 l0 100 l-100 0 l0 -100 l100 0 ZM900 200 l0 100 l-100 0 l0 -100 l100 0 ZM600 200 l0 100 l-100 0 l0 -100 l100 0 ZM900 400 l0 100 l-100 0 l0 -100 l100 0 ZM600 400 l0 100 l-100 0 l0 -100 l100 0 Z" /><glyph glyph-name="" unicode="&#x4fc2;" d="M400 200 l0 100 l100 0 l0 100 l-100 0 l0 200 l100 0 l0 100 l-100 0 l0 -100 l-100 0 l0 -700 l-200 0 l0 500 l-100 0 l0 100 l100 0 l0 100 l100 0 l0 200 l800 0 l0 -200 l-100 0 l0 -100 l-100 0 l0 -100 l200 0 l0 -200 l-200 0 l0 -300 l-200 0 l0 100 l100 0 l0 100 l-100 0 l0 -100 l-100 0 l0 -100 l-100 0 l0 200 l200 0 l0 100 l-200 0 ZM1000 100 l0 -200 l-100 0 l0 200 l100 0 ZM800 300 l0 100 l-100 0 l0 -100 l100 0 ZM700 400 l0 200 l100 0 l0 100 l-100 0 l0 -100 l-100 0 l0 -200 l100 0 Z" /><glyph glyph-name="" unicode="&#x4fd7;" d="M0 400 l0 100 l100 0 l0 100 l100 0 l0 200 l200 0 l0 -100 l100 0 l0 -100 l300 0 l0 -100 l100 0 l0 -100 l100 0 l0 -500 l-600 0 l0 300 l100 0 l0 100 l300 0 l0 100 l-100 0 l0 100 l-100 0 l0 -100 l-100 0 l0 -100 l-100 0 l0 -100 l-100 0 l0 -300 l-200 0 l0 500 l-100 0 ZM700 700 l0 100 l200 0 l0 -100 l100 0 l0 -100 l-200 0 l0 100 l-100 0 ZM600 0 l200 0 l0 200 l-200 0 l0 -200 ZM400 300 l0 200 l100 0 l0 100 l-200 0 l0 -300 l100 0 ZM500 700 l0 100 l100 0 l0 -100 l-100 0 Z" /><glyph glyph-name="" unicode="&#x4fdd;" d="M400 200 l0 100 l200 0 l0 100 l-200 0 l0 200 l100 0 l0 200 l500 0 l0 -400 l-200 0 l0 -100 l200 0 l0 -100 l-200 0 l0 -300 l-200 0 l0 100 l100 0 l0 100 l-100 0 l0 -100 l-100 0 l0 -100 l-100 0 l0 200 l100 0 l0 100 l-100 0 ZM0 400 l0 100 l100 0 l0 100 l100 0 l0 200 l200 0 l0 -200 l-100 0 l0 -700 l-200 0 l0 500 l-100 0 ZM1000 100 l0 -200 l-100 0 l0 200 l100 0 ZM600 500 l200 0 l0 200 l-200 0 l0 -200 Z" /><glyph glyph-name="" unicode="&#x4fe1;" d="M400 300 l0 100 l600 0 l0 -100 l-600 0 ZM0 400 l0 100 l100 0 l0 100 l100 0 l0 200 l200 0 l0 -200 l600 0 l0 -100 l-600 0 l0 100 l-100 0 l0 -700 l-200 0 l0 500 l-100 0 ZM500 700 l0 100 l500 0 l0 -100 l-500 0 ZM1000 -100 l-600 0 l0 300 l600 0 l0 -300 ZM600 0 l200 0 l0 100 l-200 0 l0 -100 Z" /><glyph glyph-name="" unicode="&#x4fee;" d="M0 400 l0 100 l100 0 l0 100 l100 0 l0 200 l200 0 l0 -200 l100 0 l0 300 l200 0 l0 -200 l300 0 l0 -200 l-100 0 l0 -100 l-100 0 l0 -100 l200 0 l0 -100 l-200 0 l0 -100 l200 0 l0 -100 l-200 0 l0 -100 l-400 0 l0 700 l-100 0 l0 -700 l-200 0 l0 500 l-100 0 ZM500 0 l200 0 l0 100 l-100 0 l0 100 l100 0 l0 100 l-100 0 l0 -100 l-100 0 l0 -200 ZM600 300 l0 200 l100 0 l0 -100 l100 0 l0 200 l-200 0 l0 -100 l-100 0 l0 -200 l100 0 Z" /><glyph glyph-name="" unicode="&#x4ffa;" d="M0 400 l0 100 l100 0 l0 100 l100 0 l0 200 l200 0 l0 -100 l100 0 l0 200 l200 0 l0 -200 l300 0 l0 -100 l-100 0 l0 -100 l100 0 l0 -400 l-300 0 l0 -100 l300 0 l0 -100 l-500 0 l0 100 l100 0 l0 100 l-100 0 l0 -100 l-100 0 l0 300 l-100 0 l0 -400 l-200 0 l0 500 l-100 0 ZM800 200 l0 100 l-100 0 l0 -100 l100 0 ZM600 200 l0 100 l-100 0 l0 -100 l100 0 ZM800 400 l0 200 l-100 0 l0 -200 l100 0 ZM600 400 l0 100 l-100 0 l0 -100 l100 0 ZM400 400 l0 200 l-100 0 l0 -200 l100 0 Z" /><glyph glyph-name="" unicode="&#x500b;" d="M0 400 l0 100 l100 0 l0 100 l100 0 l0 100 l100 0 l0 100 l700 0 l0 -900 l-600 0 l0 700 l-100 0 l0 -700 l-200 0 l0 500 l-100 0 ZM500 0 l300 0 l0 100 l-200 0 l0 400 l-100 0 l0 -500 ZM800 200 l0 100 l-100 0 l0 -100 l100 0 ZM900 400 l0 100 l-100 0 l0 -100 l100 0 ZM900 600 l0 100 l-100 0 l0 -100 l100 0 ZM600 600 l0 100 l-100 0 l0 -100 l100 0 Z" /><glyph glyph-name="" unicode="&#x5012;" d="M1000 -100 l-200 0 l0 200 l100 0 l0 700 l100 0 l0 -900 ZM700 -100 l-700 0 l0 600 l100 0 l0 300 l700 0 l0 -700 l-200 0 l0 100 l-100 0 l0 -200 l200 0 l0 -100 ZM300 0 l0 400 l-100 0 l0 -400 l100 0 ZM600 300 l0 100 l-100 0 l0 -100 l100 0 ZM600 500 l0 100 l100 0 l0 100 l-100 0 l0 -100 l-100 0 l0 -100 l100 0 ZM400 500 l0 200 l-100 0 l0 -200 l100 0 Z" /><glyph glyph-name="" unicode="&#x501f;" d="M0 400 l0 100 l100 0 l0 100 l100 0 l0 200 l200 0 l0 -100 l100 0 l0 100 l-100 0 l0 100 l200 0 l0 -200 l100 0 l0 200 l200 0 l0 -200 l100 0 l0 -100 l-100 0 l0 -200 l100 0 l0 -500 l-600 0 l0 400 l-100 0 l0 -400 l-200 0 l0 500 l-100 0 ZM600 0 l200 0 l0 100 l-200 0 l0 -100 ZM600 200 l200 0 l0 100 l-200 0 l0 -100 ZM700 400 l0 200 l-100 0 l0 -200 l100 0 ZM400 400 l0 200 l-100 0 l0 -200 l100 0 Z" /><glyph glyph-name="" unicode="&#x5024;" d="M0 400 l0 100 l100 0 l0 100 l100 0 l0 200 l200 0 l0 -200 l-100 0 l0 -700 l-200 0 l0 500 l-100 0 ZM500 700 l0 100 l100 0 l0 100 l200 0 l0 -100 l200 0 l0 -100 l-200 0 l0 -100 l200 0 l0 -500 l-400 0 l0 300 l-100 0 l0 -400 l500 0 l0 -100 l-600 0 l0 500 l100 0 l0 200 l100 0 l0 100 l-100 0 ZM800 200 l0 100 l-100 0 l0 -100 l100 0 ZM800 400 l0 100 l-100 0 l0 -100 l100 0 Z" /><glyph glyph-name="" unicode="&#x502b;" d="M0 400 l0 100 l100 0 l0 100 l100 0 l0 200 l200 0 l0 -200 l400 0 l0 100 l-300 0 l0 100 l400 0 l0 -100 l100 0 l0 -200 l-600 0 l0 100 l-100 0 l0 -700 l-200 0 l0 500 l-100 0 ZM600 -100 l-200 0 l0 500 l600 0 l0 -500 l-100 0 l0 200 l-100 0 l0 -200 l-100 0 l0 200 l-100 0 l0 -200 ZM900 200 l0 100 l-100 0 l0 -100 l100 0 ZM700 200 l0 100 l-100 0 l0 -100 l100 0 Z" /><glyph glyph-name="" unicode="&#x5049;" d="M0 400 l0 100 l100 0 l0 100 l100 0 l0 200 l200 0 l0 -100 l200 0 l0 200 l200 0 l0 -200 l200 0 l0 -300 l-100 0 l0 -100 l100 0 l0 -100 l-200 0 l0 -100 l200 0 l0 -100 l-200 0 l0 -100 l-200 0 l0 100 l-300 0 l0 -100 l-200 0 l0 500 l-100 0 ZM600 100 l0 100 l-100 0 l0 -100 l100 0 ZM400 100 l0 400 l100 0 l0 100 l-200 0 l0 -500 l100 0 ZM700 300 l0 100 l-100 0 l0 -100 l100 0 ZM800 500 l0 100 l-100 0 l0 -100 l100 0 Z" /><glyph glyph-name="" unicode="&#x5076;" d="M0 400 l0 100 l100 0 l0 100 l100 0 l0 100 l100 0 l0 100 l700 0 l0 -500 l-200 0 l0 -100 l200 0 l0 -300 l-100 0 l0 100 l-100 0 l0 -100 l-200 0 l0 200 l-100 0 l0 -200 l-100 0 l0 300 l200 0 l0 100 l-200 0 l0 300 l-100 0 l0 -700 l-200 0 l0 500 l-100 0 ZM800 0 l0 100 l-100 0 l0 -100 l100 0 ZM900 400 l0 100 l-100 0 l0 -100 l100 0 ZM600 400 l0 100 l-100 0 l0 -100 l100 0 ZM900 600 l0 100 l-100 0 l0 -100 l100 0 ZM600 600 l0 100 l-100 0 l0 -100 l100 0 Z" /><glyph glyph-name="" unicode="&#x507d;" d="M600 -100 l0 100 l100 0 l0 -100 l-100 0 ZM400 -100 l0 100 l100 0 l0 -100 l-100 0 ZM0 400 l0 100 l100 0 l0 100 l100 0 l0 200 l200 0 l0 -200 l200 0 l0 100 l100 0 l0 200 l200 0 l0 -200 l-100 0 l0 -100 l100 0 l0 -200 l100 0 l0 -500 l-200 0 l0 200 l-500 0 l0 -200 l-200 0 l0 500 l-100 0 ZM500 200 l300 0 l0 100 l-300 0 l0 -100 ZM400 200 l0 400 l-100 0 l0 -400 l100 0 ZM700 400 l0 100 l-100 0 l0 -100 l100 0 ZM600 700 l-100 0 l0 100 l-100 0 l0 100 l200 0 l0 -200 Z" /><glyph glyph-name="" unicode="&#x508d;" d="M0 400 l0 100 l100 0 l0 100 l100 0 l0 200 l200 0 l0 -100 l100 0 l0 200 l200 0 l0 -200 l300 0 l0 -100 l-100 0 l0 -200 l100 0 l0 -400 l-100 0 l0 -100 l-300 0 l0 100 l200 0 l0 100 l-200 0 l0 -100 l-100 0 l0 -100 l-100 0 l0 300 l100 0 l0 100 l-200 0 l0 -400 l-200 0 l0 500 l-100 0 ZM800 200 l0 100 l-100 0 l0 -100 l100 0 ZM700 400 l0 200 l-100 0 l0 -200 l100 0 ZM400 400 l0 200 l-100 0 l0 -200 l100 0 Z" /><glyph glyph-name="" unicode="&#x50be;" d="M400 -100 l0 100 l100 0 l0 100 l-100 0 l0 500 l100 0 l0 -100 l100 0 l0 200 l-100 0 l0 100 l500 0 l0 -100 l-200 0 l0 -100 l200 0 l0 -500 l-100 0 l0 -100 l100 0 l0 -100 l-200 0 l0 200 l-100 0 l0 -100 l-100 0 l0 -100 l-200 0 ZM0 400 l0 100 l100 0 l0 100 l100 0 l0 200 l200 0 l0 -200 l-100 0 l0 -700 l-200 0 l0 500 l-100 0 ZM800 200 l0 100 l-100 0 l0 -100 l100 0 ZM600 200 l0 200 l-100 0 l0 -200 l100 0 ZM800 400 l0 100 l-100 0 l0 -100 l100 0 Z" /><glyph glyph-name="" unicode="&#x50cd;" d="M300 -100 l0 100 l100 0 l0 100 l-100 0 l0 400 l-100 0 l0 -600 l-200 0 l0 600 l100 0 l0 300 l600 0 l0 -100 l100 0 l0 100 l-100 0 l0 100 l200 0 l0 -300 l100 0 l0 -700 l-200 0 l0 200 l100 0 l0 400 l-100 0 l0 -400 l-200 0 l0 -100 l100 0 l0 -100 l-400 0 ZM700 200 l0 100 l-100 0 l0 -100 l100 0 ZM500 200 l0 100 l-100 0 l0 -100 l100 0 ZM700 400 l0 100 l-100 0 l0 -100 l100 0 ZM500 400 l0 100 l-100 0 l0 -100 l100 0 ZM700 600 l0 100 l-100 0 l0 -100 l100 0 ZM400 600 l0 100 l-100 0 l0 -100 l100 0 Z" /><glyph glyph-name="" unicode="&#x50d5;" d="M400 -100 l0 100 l100 0 l0 100 l-100 0 l0 100 l200 0 l0 100 l-300 0 l0 -400 l-200 0 l0 500 l-100 0 l0 100 l100 0 l0 100 l100 0 l0 200 l200 0 l0 -100 l100 0 l0 100 l-100 0 l0 100 l200 0 l0 -200 l100 0 l0 200 l100 0 l0 -200 l100 0 l0 100 l100 0 l0 -200 l-100 0 l0 -200 l100 0 l0 -100 l-200 0 l0 -100 l200 0 l0 -100 l-100 0 l0 -100 l100 0 l0 -100 l-200 0 l0 200 l-100 0 l0 -100 l-100 0 l0 -100 l-200 0 ZM700 400 l0 200 l-100 0 l0 -200 l100 0 ZM400 400 l0 200 l-100 0 l0 -200 l100 0 Z" /><glyph glyph-name="" unicode="&#x5100;" d="M400 400 l0 100 l200 0 l0 100 l-300 0 l0 -300 l300 0 l0 100 l-200 0 ZM0 400 l0 100 l100 0 l0 100 l100 0 l0 200 l200 0 l0 -100 l200 0 l0 100 l100 0 l0 100 l200 0 l0 -100 l-100 0 l0 -100 l200 0 l0 -100 l-200 0 l0 -100 l200 0 l0 -100 l-200 0 l0 -100 l200 0 l0 -200 l-100 0 l0 -100 l100 0 l0 -100 l-200 0 l0 100 l-100 0 l0 -100 l-100 0 l0 100 l100 0 l0 100 l-100 0 l0 -100 l-100 0 l0 -100 l-100 0 l0 100 l-100 0 l0 -100 l-200 0 l0 500 l-100 0 ZM900 100 l0 100 l-100 0 l0 -100 l100 0 ZM600 100 l0 100 l-100 0 l0 -100 l100 0 ZM400 100 l0 100 l-100 0 l0 -100 l100 0 ZM600 800 l-200 0 l0 100 l200 0 l0 -100 Z" /><glyph glyph-name="" unicode="&#x5132;" d="M300 300 l0 100 l200 0 l0 100 l-300 0 l0 -600 l-200 0 l0 600 l100 0 l0 300 l500 0 l0 -100 l100 0 l0 200 l200 0 l0 -200 l100 0 l0 -100 l-100 0 l0 -100 l100 0 l0 -600 l-300 0 l0 300 l-100 0 l0 -300 l-300 0 l0 300 l200 0 l0 100 l-200 0 ZM900 0 l0 200 l-100 0 l0 -200 l100 0 ZM500 0 l0 100 l-100 0 l0 -100 l100 0 ZM900 300 l0 100 l-100 0 l0 -100 l100 0 ZM700 300 l0 100 l-100 0 l0 -100 l100 0 ZM700 500 l0 100 l-100 0 l0 -100 l100 0 ZM300 600 l200 0 l0 100 l-200 0 l0 -100 Z" /><glyph glyph-name="" unicode="&#x5144;" d="M0 -100 l0 100 l200 0 l0 100 l100 0 l0 200 l-100 0 l0 500 l700 0 l0 -500 l-200 0 l0 -300 l100 0 l0 200 l200 0 l0 -300 l-500 0 l0 200 l100 0 l0 200 l-100 0 l0 -200 l-100 0 l0 -100 l-100 0 l0 -100 l-300 0 ZM400 400 l300 0 l0 300 l-300 0 l0 -300 Z" /><glyph glyph-name="" unicode="&#x5145;" d="M0 -100 l0 100 l200 0 l0 100 l100 0 l0 200 l-200 0 l0 100 l100 0 l0 100 l100 0 l0 100 l-300 0 l0 100 l400 0 l0 200 l200 0 l0 -200 l400 0 l0 -100 l-200 0 l0 -100 l100 0 l0 -100 l100 0 l0 -100 l-100 0 l0 100 l-100 0 l0 -100 l-100 0 l0 -300 l100 0 l0 200 l200 0 l0 -300 l-500 0 l0 200 l100 0 l0 200 l-100 0 l0 -200 l-100 0 l0 -100 l-100 0 l0 -100 l-300 0 ZM400 400 l300 0 l0 100 l-100 0 l0 100 l-100 0 l0 -100 l-100 0 l0 -100 Z" /><glyph glyph-name="" unicode="&#x5148;" d="M0 -100 l0 100 l200 0 l0 100 l100 0 l0 200 l-300 0 l0 200 l100 0 l0 300 l200 0 l0 -100 l100 0 l0 200 l200 0 l0 -200 l300 0 l0 -100 l-300 0 l0 -200 l400 0 l0 -100 l-300 0 l0 -300 l100 0 l0 100 l200 0 l0 -200 l-500 0 l0 200 l100 0 l0 200 l-100 0 l0 -200 l-100 0 l0 -100 l-100 0 l0 -100 l-300 0 ZM200 400 l200 0 l0 200 l-100 0 l0 -100 l-100 0 l0 -100 Z" /><glyph glyph-name="" unicode="&#x5149;" d="M0 -100 l0 100 l200 0 l0 100 l100 0 l0 200 l-300 0 l0 100 l400 0 l0 100 l100 0 l0 100 l-100 0 l0 -100 l-200 0 l0 100 l-100 0 l0 100 l200 0 l0 -100 l100 0 l0 300 l200 0 l0 -500 l400 0 l0 -100 l-300 0 l0 -300 l100 0 l0 100 l200 0 l0 -200 l-500 0 l0 200 l100 0 l0 200 l-100 0 l0 -200 l-100 0 l0 -100 l-100 0 l0 -100 l-300 0 ZM800 600 l0 -100 l-100 0 l0 200 l200 0 l0 -100 l-100 0 Z" /><glyph glyph-name="" unicode="&#x514d;" d="M0 -100 l0 100 l200 0 l0 100 l100 0 l0 100 l-200 0 l0 300 l-100 0 l0 100 l100 0 l0 100 l100 0 l0 100 l600 0 l0 -200 l100 0 l0 -400 l100 0 l0 -300 l-500 0 l0 200 l100 0 l0 100 l-100 0 l0 -100 l-100 0 l0 -100 l-100 0 l0 -100 l-300 0 ZM800 0 l0 200 l-100 0 l0 -200 l100 0 ZM700 300 l0 200 l-100 0 l0 -200 l100 0 ZM400 300 l0 200 l-100 0 l0 -200 l100 0 ZM300 600 l300 0 l0 100 l-300 0 l0 -100 Z" /><glyph glyph-name="" unicode="&#x515a;" d="M0 -100 l0 100 l200 0 l0 300 l100 0 l0 100 l500 0 l0 -300 l200 0 l0 -200 l-500 0 l0 200 l-100 0 l0 -100 l-100 0 l0 -100 l-300 0 ZM800 0 l0 100 l-100 0 l0 -100 l100 0 ZM400 200 l200 0 l0 100 l-200 0 l0 -100 ZM200 300 l-200 0 l0 300 l200 0 l0 200 l200 0 l0 -200 l100 0 l0 200 l-100 0 l0 100 l200 0 l0 -300 l100 0 l0 200 l200 0 l0 -100 l-100 0 l0 -100 l200 0 l0 -300 l-100 0 l0 100 l-100 0 l0 100 l-600 0 l0 -200 Z" /><glyph glyph-name="" unicode="&#x5165;" d="M0 -100 l0 100 l100 0 l0 100 l100 0 l0 100 l100 0 l0 100 l100 0 l0 400 l-300 0 l0 100 l500 0 l0 -500 l100 0 l0 -200 l100 0 l0 -100 l200 0 l0 -100 l-300 0 l0 100 l-100 0 l0 100 l-100 0 l0 100 l100 0 l0 100 l-100 0 l0 -100 l-100 0 l0 -100 l-100 0 l0 -100 l-100 0 l0 -100 l-200 0 Z" /><glyph glyph-name="" unicode="&#x5168;" d="M0 -100 l0 100 l400 0 l0 200 l-300 0 l0 100 l300 0 l0 100 l-400 0 l0 100 l100 0 l0 100 l100 0 l0 100 l100 0 l0 100 l400 0 l0 -100 l100 0 l0 -100 l100 0 l0 -100 l100 0 l0 -100 l-400 0 l0 -100 l300 0 l0 -100 l-300 0 l0 -200 l400 0 l0 -100 l-1000 0 ZM300 500 l400 0 l0 100 l-100 0 l0 100 l-200 0 l0 -100 l-100 0 l0 -100 Z" /><glyph glyph-name="" unicode="&#x5171;" d="M0 -100 l0 100 l200 0 l0 100 l200 0 l0 -100 l-100 0 l0 -100 l-300 0 ZM700 0 l0 100 l200 0 l0 -100 l100 0 l0 -100 l-200 0 l0 100 l-100 0 ZM0 200 l0 100 l300 0 l0 200 l-300 0 l0 100 l300 0 l0 300 l200 0 l0 -300 l100 0 l0 300 l200 0 l0 -300 l200 0 l0 -100 l-200 0 l0 -200 l200 0 l0 -100 l-1000 0 ZM600 300 l0 200 l-100 0 l0 -200 l100 0 Z" /><glyph glyph-name="" unicode="&#x5177;" d="M0 -100 l0 100 l200 0 l0 100 l-200 0 l0 100 l1000 0 l0 -100 l-200 0 l0 -100 l200 0 l0 -100 l-300 0 l0 100 l-100 0 l0 100 l-200 0 l0 -100 l-100 0 l0 -100 l-300 0 ZM800 300 l-600 0 l0 500 l600 0 l0 -500 ZM400 400 l200 0 l0 100 l-200 0 l0 -100 ZM400 600 l200 0 l0 100 l-200 0 l0 -100 Z" /><glyph glyph-name="" unicode="&#x5185;" d="M700 -100 l0 100 l100 0 l0 200 l-100 0 l0 100 l-100 0 l0 200 l100 0 l0 -100 l100 0 l0 -100 l100 0 l0 100 l-100 0 l0 200 l-200 0 l0 -100 l-100 0 l0 -100 l-100 0 l0 -100 l-100 0 l0 -100 l-100 0 l0 -300 l-200 0 l0 800 l400 0 l0 200 l200 0 l0 -200 l400 0 l0 -800 l-300 0 ZM300 300 l0 200 l100 0 l0 100 l-200 0 l0 -300 l100 0 Z" /><glyph glyph-name="" unicode="&#x5186;" d="M600 -100 l0 100 l200 0 l0 300 l-600 0 l0 -400 l-200 0 l0 900 l1000 0 l0 -900 l-400 0 ZM600 400 l200 0 l0 300 l-200 0 l0 -300 ZM200 400 l200 0 l0 300 l-200 0 l0 -300 Z" /><glyph glyph-name="" unicode="&#x518d;" d="M600 -100 l0 100 l100 0 l0 100 l-400 0 l0 -200 l-200 0 l0 200 l-100 0 l0 100 l100 0 l0 400 l300 0 l0 100 l-400 0 l0 100 l1000 0 l0 -100 l-400 0 l0 -100 l300 0 l0 -400 l100 0 l0 -100 l-100 0 l0 -200 l-300 0 ZM700 200 l0 100 l-100 0 l0 -100 l100 0 ZM400 200 l0 100 l-100 0 l0 -100 l100 0 ZM700 400 l0 100 l-100 0 l0 -100 l100 0 ZM400 400 l0 100 l-100 0 l0 -100 l100 0 Z" /><glyph glyph-name="" unicode="&#x51e1;" d="M0 -100 l0 100 l100 0 l0 100 l100 0 l0 700 l600 0 l0 -800 l100 0 l0 200 l100 0 l0 -300 l-400 0 l0 400 l100 0 l0 100 l-100 0 l0 -100 l-100 0 l0 100 l100 0 l0 300 l-200 0 l0 -200 l100 0 l0 -100 l-100 0 l0 -300 l-100 0 l0 -100 l-100 0 l0 -100 l-200 0 Z" /><glyph glyph-name="" unicode="&#x51fa;" d="M1000 -100 l-1000 0 l0 300 l200 0 l0 -200 l200 0 l0 400 l-300 0 l0 300 l200 0 l0 -200 l100 0 l0 400 l200 0 l0 -400 l100 0 l0 200 l200 0 l0 -300 l-300 0 l0 -400 l200 0 l0 200 l200 0 l0 -300 Z" /><glyph glyph-name="" unicode="&#x5200;" d="M500 -100 l0 100 l200 0 l0 100 l100 0 l0 600 l-300 0 l0 -400 l-100 0 l0 -200 l-100 0 l0 -200 l-200 0 l0 200 l100 0 l0 200 l100 0 l0 400 l-300 0 l0 100 l1000 0 l0 -700 l-100 0 l0 -100 l-100 0 l0 -100 l-300 0 Z" /><glyph glyph-name="" unicode="&#x5206;" d="M500 -100 l0 100 l200 0 l0 300 l-200 0 l0 -200 l-100 0 l0 -200 l-200 0 l0 200 l100 0 l0 300 l500 0 l0 100 l-100 0 l0 200 l-200 0 l0 100 l400 0 l0 -300 l100 0 l0 -200 l-100 0 l0 -300 l-100 0 l0 -100 l-300 0 ZM200 200 l-200 0 l0 200 l100 0 l0 200 l100 0 l0 200 l200 0 l0 -200 l-100 0 l0 -200 l-100 0 l0 -200 Z" /><glyph glyph-name="" unicode="&#x5207;" d="M0 300 l0 100 l100 0 l0 400 l200 0 l0 -300 l100 0 l0 -100 l-100 0 l0 -300 l100 0 l0 200 l100 0 l0 200 l100 0 l0 100 l-100 0 l0 -100 l-100 0 l0 100 l100 0 l0 100 l-100 0 l0 100 l600 0 l0 -700 l-100 0 l0 -100 l-100 0 l0 -100 l-300 0 l0 100 l200 0 l0 100 l100 0 l0 600 l-100 0 l0 -400 l-100 0 l0 -200 l-100 0 l0 -100 l-400 0 l0 300 l-100 0 Z" /><glyph glyph-name="" unicode="&#x521d;" d="M600 -100 l0 100 l200 0 l0 700 l-100 0 l0 -400 l-100 0 l0 -200 l-100 0 l0 -200 l-100 0 l0 200 l100 0 l0 100 l-100 0 l0 -100 l-100 0 l0 -200 l-200 0 l0 200 l-100 0 l0 100 l100 0 l0 100 l100 0 l0 100 l100 0 l0 100 l-300 0 l0 100 l100 0 l0 200 l200 0 l0 -200 l200 0 l0 -200 l100 0 l0 200 l-100 0 l0 100 l-100 0 l0 100 l600 0 l0 -800 l-100 0 l0 -100 l-300 0 ZM400 200 l0 100 l100 0 l0 100 l-100 0 l0 -100 l-100 0 l0 -100 l100 0 Z" /><glyph glyph-name="" unicode="&#x5224;" d="M700 -100 l0 100 l100 0 l0 100 l100 0 l0 600 l-100 0 l0 -600 l-100 0 l0 100 l-100 0 l0 -100 l-200 0 l0 -200 l-200 0 l0 200 l-200 0 l0 100 l200 0 l0 100 l-200 0 l0 100 l200 0 l0 100 l100 0 l0 200 l-100 0 l0 -200 l-200 0 l0 200 l200 0 l0 200 l200 0 l0 -300 l100 0 l0 -100 l-100 0 l0 -100 l200 0 l0 -100 l100 0 l0 100 l-100 0 l0 200 l100 0 l0 100 l100 0 l0 100 l200 0 l0 -900 l-300 0 ZM400 200 l200 0 l0 100 l-200 0 l0 -100 ZM600 600 l-100 0 l0 100 l100 0 l0 -100 Z" /><glyph glyph-name="" unicode="&#x5225;" d="M700 -100 l0 100 l100 0 l0 100 l100 0 l0 600 l-100 0 l0 -600 l-100 0 l0 200 l-100 0 l0 -300 l-100 0 l0 -100 l-300 0 l0 100 l200 0 l0 200 l-200 0 l0 -200 l-200 0 l0 200 l100 0 l0 200 l-100 0 l0 400 l600 0 l0 -400 l100 0 l0 300 l100 0 l0 100 l200 0 l0 -900 l-300 0 ZM300 300 l300 0 l0 100 l-300 0 l0 -100 ZM200 500 l200 0 l0 200 l-200 0 l0 -200 Z" /><glyph glyph-name="" unicode="&#x5229;" d="M700 -100 l0 100 l100 0 l0 100 l100 0 l0 600 l-100 0 l0 -600 l-100 0 l0 100 l-100 0 l0 -100 l-100 0 l0 100 l100 0 l0 200 l100 0 l0 100 l-100 0 l0 -100 l-200 0 l0 -100 l100 0 l0 -100 l-100 0 l0 -300 l-200 0 l0 100 l100 0 l0 100 l-100 0 l0 -100 l-200 0 l0 100 l100 0 l0 100 l100 0 l0 200 l-200 0 l0 100 l200 0 l0 100 l-200 0 l0 100 l300 0 l0 100 l300 0 l0 -100 l200 0 l0 100 l200 0 l0 -900 l-300 0 ZM400 500 l200 0 l0 200 l-200 0 l0 -200 Z" /><glyph glyph-name="" unicode="&#x523a;" d="M0 -100 l0 100 l100 0 l0 100 l100 0 l0 100 l100 0 l0 200 l-100 0 l0 -200 l-200 0 l0 300 l200 0 l0 100 l-200 0 l0 100 l200 0 l0 200 l200 0 l0 -200 l200 0 l0 -100 l100 0 l0 100 l100 0 l0 -600 l100 0 l0 600 l-100 0 l0 100 l200 0 l0 -900 l-200 0 l0 200 l-200 0 l0 -100 l100 0 l0 -100 l-200 0 l0 200 l100 0 l0 100 l100 0 l0 300 l-100 0 l0 -300 l-100 0 l0 -100 l-100 0 l0 -200 l-100 0 l0 100 l-100 0 l0 -100 l-200 0 ZM500 200 l0 200 l-100 0 l0 -200 l100 0 ZM400 500 l200 0 l0 100 l-200 0 l0 -100 Z" /><glyph glyph-name="" unicode="&#x523b;" d="M0 -100 l0 100 l200 0 l0 100 l-200 0 l0 100 l200 0 l0 100 l-100 0 l0 200 l100 0 l0 100 l-200 0 l0 100 l300 0 l0 200 l200 0 l0 -200 l300 0 l0 -600 l100 0 l0 600 l-100 0 l0 100 l200 0 l0 -900 l-200 0 l0 200 l-100 0 l0 100 l-100 0 l0 -100 l-100 0 l0 -100 l200 0 l0 -100 l-300 0 l0 100 l-100 0 l0 -100 l-300 0 ZM400 200 l200 0 l0 200 l100 0 l0 100 l-100 0 l0 -100 l-100 0 l0 -100 l-100 0 l0 -100 ZM400 100 l0 100 l-100 0 l0 -100 l100 0 ZM400 300 l0 200 l200 0 l0 100 l-200 0 l0 -100 l-100 0 l0 -200 l100 0 Z" /><glyph glyph-name="" unicode="&#x5247;" d="M700 -100 l0 100 l100 0 l0 100 l100 0 l0 600 l-100 0 l0 -600 l-200 0 l0 100 l100 0 l0 500 l100 0 l0 100 l200 0 l0 -900 l-300 0 ZM0 -100 l0 100 l100 0 l0 100 l200 0 l0 -100 l-100 0 l0 -100 l-200 0 ZM600 -100 l-200 0 l0 200 l100 0 l0 -100 l100 0 l0 -100 ZM600 200 l-600 0 l0 600 l600 0 l0 -600 ZM200 300 l200 0 l0 200 l-200 0 l0 -200 ZM200 600 l200 0 l0 100 l-200 0 l0 -100 Z" /><glyph glyph-name="" unicode="&#x524d;" d="M700 -100 l0 100 l100 0 l0 500 l200 0 l0 -600 l-300 0 ZM0 600 l0 100 l200 0 l0 200 l200 0 l0 -200 l100 0 l0 100 l100 0 l0 100 l200 0 l0 -100 l-100 0 l0 -100 l300 0 l0 -100 l-1000 0 ZM500 -100 l-200 0 l0 100 l-100 0 l0 -100 l-200 0 l0 600 l500 0 l0 -600 ZM300 100 l0 100 l-100 0 l0 -100 l100 0 ZM700 500 l0 -400 l-100 0 l0 400 l100 0 ZM300 300 l0 100 l-100 0 l0 -100 l100 0 Z" /><glyph glyph-name="" unicode="&#x5256;" d="M700 -100 l0 100 l100 0 l0 100 l100 0 l0 600 l-100 0 l0 -600 l-100 0 l0 100 l-100 0 l0 -300 l-600 0 l0 300 l600 0 l0 100 l-600 0 l0 100 l100 0 l0 200 l-100 0 l0 100 l200 0 l0 200 l200 0 l0 -200 l400 0 l0 100 l200 0 l0 -900 l-300 0 ZM200 0 l200 0 l0 100 l-200 0 l0 -100 ZM700 400 l0 200 l-100 0 l0 -200 l100 0 ZM400 400 l0 200 l-100 0 l0 -200 l100 0 Z" /><glyph glyph-name="" unicode="&#x5275;" d="M0 0 l0 100 l100 0 l0 400 l-100 0 l0 100 l100 0 l0 100 l100 0 l0 100 l400 0 l0 -100 l200 0 l0 -600 l100 0 l0 600 l-100 0 l0 100 l200 0 l0 -900 l-200 0 l0 200 l-100 0 l0 -200 l-600 0 l0 100 l-100 0 ZM300 0 l200 0 l0 100 l-200 0 l0 -100 ZM700 200 l0 400 l-100 0 l0 -400 l100 0 ZM400 200 l0 100 l-100 0 l0 -100 l100 0 ZM400 400 l0 100 l-100 0 l0 -100 l100 0 ZM300 600 l200 0 l0 100 l-200 0 l0 -100 Z" /><glyph glyph-name="" unicode="&#x529b;" d="M500 -100 l0 100 l300 0 l0 500 l-200 0 l0 -200 l-100 0 l0 -200 l-100 0 l0 -100 l-100 0 l0 -100 l-300 0 l0 100 l200 0 l0 100 l100 0 l0 200 l100 0 l0 200 l-400 0 l0 100 l400 0 l0 300 l200 0 l0 -300 l400 0 l0 -600 l-100 0 l0 -100 l-400 0 Z" /><glyph glyph-name="" unicode="&#x52a0;" d="M0 500 l0 100 l200 0 l0 300 l200 0 l0 -300 l200 0 l0 -600 l100 0 l0 600 l-100 0 l0 100 l400 0 l0 -800 l-400 0 l0 100 l-100 0 l0 -100 l-300 0 l0 100 l200 0 l0 500 l-100 0 l0 -300 l-100 0 l0 -200 l-200 0 l0 200 l100 0 l0 300 l-100 0 ZM900 0 l0 600 l-100 0 l0 -600 l100 0 Z" /><glyph glyph-name="" unicode="&#x52a9;" d="M700 -100 l0 100 l100 0 l0 300 l100 0 l0 200 l-100 0 l0 -200 l-100 0 l0 -200 l-100 0 l0 400 l-100 0 l0 -500 l100 0 l0 -100 l-600 0 l0 900 l500 0 l0 -200 l100 0 l0 300 l200 0 l0 -300 l200 0 l0 -600 l-100 0 l0 -100 l-200 0 ZM300 0 l0 200 l-100 0 l0 -200 l100 0 ZM300 300 l0 200 l-100 0 l0 -200 l100 0 ZM300 600 l0 100 l-100 0 l0 -100 l100 0 Z" /><glyph glyph-name="" unicode="&#x52aa;" d="M100 -100 l0 100 l200 0 l0 100 l-300 0 l0 100 l300 0 l0 100 l100 0 l0 100 l-100 0 l0 -100 l-300 0 l0 100 l200 0 l0 100 l-100 0 l0 100 l-100 0 l0 100 l200 0 l0 200 l200 0 l0 -200 l100 0 l0 100 l500 0 l0 -300 l-100 0 l0 -100 l100 0 l0 -100 l-200 0 l0 100 l-100 0 l0 -100 l-200 0 l0 -100 l500 0 l0 -200 l-100 0 l0 -100 l-400 0 l0 100 l300 0 l0 100 l-300 0 l0 -100 l-100 0 l0 -100 l-300 0 ZM600 400 l0 100 l100 0 l0 100 l100 0 l0 -100 l100 0 l0 100 l-100 0 l0 100 l-200 0 l0 -200 l-100 0 l0 -100 l100 0 ZM400 500 l0 100 l-100 0 l0 -100 l100 0 Z" /><glyph glyph-name="" unicode="&#x52b1;" d="M700 -100 l0 100 l100 0 l0 200 l100 0 l0 300 l-100 0 l0 -300 l-100 0 l0 -100 l-100 0 l0 -200 l-200 0 l0 200 l100 0 l0 200 l-100 0 l0 -200 l-100 0 l0 -200 l-200 0 l0 200 l-100 0 l0 700 l600 0 l0 -100 l100 0 l0 100 l-100 0 l0 100 l200 0 l0 -300 l200 0 l0 -600 l-100 0 l0 -100 l-200 0 ZM300 100 l0 400 l-100 0 l0 -400 l100 0 ZM700 200 l0 200 l-100 0 l0 -200 l100 0 ZM400 400 l200 0 l0 100 l-200 0 l0 -100 ZM200 600 l400 0 l0 100 l-400 0 l0 -100 Z" /><glyph glyph-name="" unicode="&#x52c7;" d="M600 -100 l0 100 l200 0 l0 100 l-300 0 l0 -100 l-100 0 l0 -100 l-400 0 l0 100 l300 0 l0 100 l-300 0 l0 100 l100 0 l0 400 l400 0 l0 100 l-400 0 l0 100 l700 0 l0 -100 l-100 0 l0 -100 l200 0 l0 -400 l100 0 l0 -200 l-100 0 l0 -100 l-300 0 ZM700 200 l0 100 l-100 0 l0 -100 l100 0 ZM400 200 l0 100 l-100 0 l0 -100 l100 0 ZM700 400 l0 100 l-100 0 l0 -100 l100 0 ZM400 400 l0 100 l-100 0 l0 -100 l100 0 Z" /><glyph glyph-name="" unicode="&#x52d5;" d="M700 -100 l0 100 l100 0 l0 200 l100 0 l0 300 l-100 0 l0 -300 l-100 0 l0 -100 l-300 0 l0 -100 l200 0 l0 -100 l-600 0 l0 100 l200 0 l0 100 l-200 0 l0 500 l200 0 l0 100 l-200 0 l0 100 l600 0 l0 -100 l100 0 l0 100 l-100 0 l0 100 l200 0 l0 -300 l200 0 l0 -600 l-100 0 l0 -100 l-200 0 ZM700 200 l0 300 l-100 0 l0 -300 l100 0 ZM500 200 l0 100 l-100 0 l0 -100 l100 0 ZM300 200 l0 100 l-100 0 l0 -100 l100 0 ZM500 400 l0 100 l-100 0 l0 -100 l100 0 ZM300 400 l0 100 l-100 0 l0 -100 l100 0 ZM400 600 l200 0 l0 100 l-200 0 l0 -100 Z" /><glyph glyph-name="" unicode="&#x52d9;" d="M100 -100 l0 100 l100 0 l0 100 l100 0 l0 100 l-100 0 l0 -100 l-200 0 l0 100 l100 0 l0 100 l100 0 l0 100 l-200 0 l0 100 l200 0 l0 100 l100 0 l0 100 l-300 0 l0 100 l500 0 l0 -100 l100 0 l0 100 l-100 0 l0 100 l200 0 l0 -200 l300 0 l0 -100 l-100 0 l0 -100 l-100 0 l0 -100 l200 0 l0 -100 l-300 0 l0 -100 l300 0 l0 -200 l-100 0 l0 -100 l-200 0 l0 100 l100 0 l0 100 l-100 0 l0 -100 l-100 0 l0 -100 l-100 0 l0 200 l-100 0 l0 -200 l-300 0 ZM500 200 l0 100 l-100 0 l0 -100 l100 0 ZM700 300 l0 100 l-100 0 l0 -100 l100 0 ZM500 400 l0 200 l-100 0 l0 -200 l100 0 ZM700 500 l0 100 l-100 0 l0 -100 l100 0 Z" /><glyph glyph-name="" unicode="&#x52dd;" d="M900 -100 l-300 0 l0 100 l200 0 l0 100 l-200 0 l0 -100 l-100 0 l0 -100 l-200 0 l0 300 l-100 0 l0 -300 l-200 0 l0 900 l400 0 l0 -100 l100 0 l0 100 l100 0 l0 -100 l100 0 l0 100 l-100 0 l0 100 l200 0 l0 -200 l100 0 l0 100 l100 0 l0 -200 l-100 0 l0 -100 l100 0 l0 -100 l-100 0 l0 -100 l100 0 l0 -300 l-100 0 l0 -100 ZM500 0 l0 100 l-100 0 l0 -100 l100 0 ZM800 200 l0 100 l-100 0 l0 -100 l100 0 ZM500 200 l0 200 l-100 0 l0 -200 l100 0 ZM700 300 l0 100 l-100 0 l0 -100 l100 0 ZM300 300 l0 200 l-100 0 l0 -200 l100 0 ZM800 500 l0 100 l-100 0 l0 -100 l100 0 ZM500 500 l0 100 l-100 0 l0 -100 l100 0 ZM300 600 l0 100 l-100 0 l0 -100 l100 0 Z" /><glyph glyph-name="" unicode="&#x52e2;" d="M600 -100 l0 100 l200 0 l0 100 l-300 0 l0 -100 l-100 0 l0 -100 l-400 0 l0 100 l300 0 l0 100 l-300 0 l0 100 l200 0 l0 100 l-200 0 l0 200 l100 0 l0 100 l-100 0 l0 100 l200 0 l0 200 l200 0 l0 -200 l200 0 l0 200 l200 0 l0 -200 l200 0 l0 -400 l-300 0 l0 -100 l300 0 l0 -200 l-100 0 l0 -100 l-300 0 ZM500 200 l0 100 l100 0 l0 100 l-100 0 l0 -100 l-100 0 l0 -100 l100 0 ZM900 400 l0 200 l-100 0 l0 -200 l100 0 ZM500 400 l0 100 l100 0 l0 100 l-100 0 l0 -100 l-100 0 l0 -100 l100 0 ZM300 400 l0 100 l100 0 l0 100 l-100 0 l0 -100 l-100 0 l0 -100 l100 0 Z" /><glyph glyph-name="" unicode="&#x52e4;" d="M700 -100 l0 100 l100 0 l0 200 l100 0 l0 300 l-100 0 l0 -300 l-100 0 l0 -100 l-300 0 l0 -100 l200 0 l0 -100 l-600 0 l0 100 l200 0 l0 100 l-200 0 l0 100 l200 0 l0 100 l-200 0 l0 300 l100 0 l0 100 l-100 0 l0 100 l100 0 l0 100 l200 0 l0 -100 l100 0 l0 100 l100 0 l0 -100 l100 0 l0 -100 l100 0 l0 100 l-100 0 l0 100 l200 0 l0 -300 l200 0 l0 -600 l-100 0 l0 -100 l-200 0 ZM400 200 l200 0 l0 100 l100 0 l0 200 l-100 0 l0 -200 l-200 0 l0 -100 ZM500 400 l0 100 l-100 0 l0 -100 l100 0 ZM300 400 l0 100 l-100 0 l0 -100 l100 0 ZM600 600 l0 100 l-100 0 l0 -100 l100 0 ZM400 600 l0 100 l-100 0 l0 -100 l100 0 Z" /><glyph glyph-name="" unicode="&#x52e7;" d="M700 -100 l0 100 l100 0 l0 300 l100 0 l0 200 l-100 0 l0 -200 l-100 0 l0 -200 l-200 0 l0 100 l-100 0 l0 -200 l200 0 l0 -100 l-600 0 l0 700 l100 0 l0 300 l200 0 l0 -200 l300 0 l0 -100 l100 0 l0 100 l-100 0 l0 200 l200 0 l0 -300 l200 0 l0 -600 l-100 0 l0 -100 l-200 0 ZM300 0 l0 200 l-100 0 l0 -200 l100 0 ZM400 300 l200 0 l0 100 l100 0 l0 100 l-100 0 l0 -100 l-200 0 l0 -100 ZM300 300 l0 100 l-100 0 l0 -100 l100 0 ZM500 500 l0 100 l-100 0 l0 -100 l100 0 ZM300 500 l0 100 l-100 0 l0 -100 l100 0 Z" /><glyph glyph-name="" unicode="&#x5316;" d="M0 400 l0 100 l100 0 l0 100 l100 0 l0 200 l200 0 l0 -200 l100 0 l0 200 l-100 0 l0 100 l200 0 l0 -500 l100 0 l0 -100 l-100 0 l0 -300 l200 0 l0 200 l200 0 l0 -300 l-600 0 l0 700 l-100 0 l0 -700 l-200 0 l0 500 l-100 0 ZM700 400 l0 200 l100 0 l0 100 l200 0 l0 -100 l-100 0 l0 -100 l-100 0 l0 -100 l-100 0 Z" /><glyph glyph-name="" unicode="&#x533a;" d="M300 100 l0 100 l100 0 l0 100 l100 0 l0 100 l-100 0 l0 100 l-100 0 l0 100 l200 0 l0 -100 l100 0 l0 -100 l100 0 l0 -100 l100 0 l0 -100 l100 0 l0 -100 l-200 0 l0 200 l-100 0 l0 -100 l-100 0 l0 -100 l-200 0 ZM1000 -100 l-1000 0 l0 900 l1000 0 l0 -100 l-800 0 l0 -700 l800 0 l0 -100 ZM700 400 l0 200 l200 0 l0 -100 l-100 0 l0 -100 l-100 0 Z" /><glyph glyph-name="" unicode="&#x5341;" d="M0 400 l0 100 l400 0 l0 400 l200 0 l0 -400 l400 0 l0 -100 l-400 0 l0 -500 l-200 0 l0 500 l-400 0 Z" /><glyph glyph-name="" unicode="&#x5348;" d="M0 200 l0 100 l400 0 l0 300 l-200 0 l0 -200 l-200 0 l0 200 l100 0 l0 300 l200 0 l0 -200 l700 0 l0 -100 l-400 0 l0 -300 l400 0 l0 -100 l-400 0 l0 -300 l-200 0 l0 300 l-400 0 Z" /><glyph glyph-name="" unicode="&#x534a;" d="M0 100 l0 100 l400 0 l0 100 l-400 0 l0 100 l400 0 l0 100 l100 0 l0 100 l-100 0 l0 -100 l-200 0 l0 100 l-100 0 l0 100 l200 0 l0 -100 l100 0 l0 300 l200 0 l0 -500 l400 0 l0 -100 l-400 0 l0 -100 l400 0 l0 -100 l-400 0 l0 -200 l-200 0 l0 200 l-400 0 ZM800 600 l0 -100 l-100 0 l0 200 l200 0 l0 -100 l-100 0 Z" /><glyph glyph-name="" unicode="&#x5358;" d="M0 0 l0 100 l400 0 l0 100 l-300 0 l0 500 l500 0 l0 100 l100 0 l0 100 l200 0 l0 -100 l-100 0 l0 -100 l100 0 l0 -500 l-300 0 l0 -100 l400 0 l0 -100 l-400 0 l0 -100 l-200 0 l0 100 l-400 0 ZM400 800 l0 100 l200 0 l0 -100 l-200 0 ZM100 800 l0 100 l200 0 l0 -100 l-200 0 ZM700 300 l0 100 l-100 0 l0 -100 l100 0 ZM400 300 l0 100 l-100 0 l0 -100 l100 0 ZM700 500 l0 100 l-100 0 l0 -100 l100 0 ZM400 500 l0 100 l-100 0 l0 -100 l100 0 Z" /><glyph glyph-name="" unicode="&#x5360;" d="M900 -100 l-800 0 l0 400 l300 0 l0 600 l200 0 l0 -300 l300 0 l0 -100 l-300 0 l0 -200 l300 0 l0 -400 ZM300 0 l400 0 l0 200 l-400 0 l0 -200 Z" /><glyph glyph-name="" unicode="&#x5371;" d="M600 100 l0 100 l100 0 l0 100 l-200 0 l0 -300 l300 0 l0 100 l-200 0 ZM0 500 l0 100 l100 0 l0 100 l100 0 l0 100 l600 0 l0 -100 l-100 0 l0 -100 l300 0 l0 -100 l-700 0 l0 -400 l100 0 l0 300 l500 0 l0 -300 l100 0 l0 -200 l-700 0 l0 200 l-100 0 l0 -200 l-200 0 l0 200 l100 0 l0 400 l-100 0 ZM300 600 l200 0 l0 100 l-200 0 l0 -100 Z" /><glyph glyph-name="" unicode="&#x5374;" d="M0 300 l0 100 l200 0 l0 200 l-200 0 l0 100 l200 0 l0 200 l200 0 l0 -200 l100 0 l0 100 l500 0 l0 -800 l-200 0 l0 700 l-100 0 l0 -800 l-200 0 l0 100 l100 0 l0 100 l-100 0 l0 -100 l-500 0 l0 200 l100 0 l0 100 l-100 0 ZM200 100 l200 0 l0 100 l100 0 l0 100 l-200 0 l0 -100 l-100 0 l0 -100 ZM500 400 l0 200 l-100 0 l0 -200 l100 0 Z" /><glyph glyph-name="" unicode="&#x539f;" d="M100 -100 l0 100 l100 0 l0 100 l100 0 l0 200 l100 0 l0 300 l100 0 l0 100 l-200 0 l0 -400 l-100 0 l0 -200 l-200 0 l0 200 l100 0 l0 500 l900 0 l0 -100 l-300 0 l0 -100 l200 0 l0 -600 l100 0 l0 -100 l-200 0 l0 200 l-100 0 l0 -200 l-300 0 l0 100 l100 0 l0 100 l-100 0 l0 -100 l-100 0 l0 -100 l-200 0 ZM500 200 l200 0 l0 100 l-200 0 l0 -100 ZM500 400 l200 0 l0 100 l-200 0 l0 -100 Z" /><glyph glyph-name="" unicode="&#x53bb;" d="M0 300 l0 100 l400 0 l0 200 l-300 0 l0 100 l300 0 l0 200 l200 0 l0 -200 l300 0 l0 -100 l-300 0 l0 -200 l400 0 l0 -100 l-200 0 l0 -200 l100 0 l0 -200 l-200 0 l0 100 l100 0 l0 100 l-100 0 l0 -100 l-100 0 l0 -100 l-500 0 l0 200 l100 0 l0 100 l100 0 l0 100 l-300 0 ZM300 0 l200 0 l0 100 l100 0 l0 200 l-100 0 l0 -100 l-100 0 l0 -100 l-100 0 l0 -100 Z" /><glyph glyph-name="" unicode="&#x53c2;" d="M100 -100 l0 100 l400 0 l0 100 l300 0 l0 -100 l-200 0 l0 -100 l-500 0 ZM0 200 l0 100 l200 0 l0 100 l-200 0 l0 100 l400 0 l0 100 l-300 0 l0 100 l100 0 l0 100 l100 0 l0 100 l200 0 l0 -100 l-100 0 l0 -100 l200 0 l0 100 l200 0 l0 -100 l100 0 l0 -100 l-300 0 l0 -100 l400 0 l0 -100 l-200 0 l0 -100 l100 0 l0 -100 l100 0 l0 -100 l-200 0 l0 200 l-100 0 l0 -100 l-200 0 l0 -100 l-300 0 l0 100 l-200 0 ZM400 300 l200 0 l0 100 l-200 0 l0 -100 ZM400 200 l0 100 l-100 0 l0 -100 l100 0 Z" /><glyph glyph-name="" unicode="&#x53ca;" d="M100 -100 l0 100 l300 0 l0 100 l200 0 l0 100 l-100 0 l0 200 l100 0 l0 -100 l100 0 l0 -100 l100 0 l0 -100 l100 0 l0 -100 l100 0 l0 -100 l-200 0 l0 200 l-100 0 l0 -100 l-200 0 l0 -100 l-400 0 ZM100 700 l0 100 l800 0 l0 -200 l-100 0 l0 -100 l200 0 l0 -200 l-100 0 l0 -100 l-100 0 l0 200 l-200 0 l0 200 l100 0 l0 100 l-200 0 l0 -200 l-100 0 l0 -200 l-100 0 l0 -200 l-200 0 l0 200 l100 0 l0 200 l100 0 l0 200 l-200 0 Z" /><glyph glyph-name="" unicode="&#x53cc;" d="M0 0 l0 100 l100 0 l0 100 l100 0 l0 200 l-100 0 l0 200 l200 0 l0 -200 l100 0 l0 -200 l100 0 l0 -100 l100 0 l0 100 l-100 0 l0 200 l100 0 l0 200 l100 0 l0 -400 l100 0 l0 -100 l100 0 l0 -100 l100 0 l0 -100 l-200 0 l0 200 l-100 0 l0 -100 l-200 0 l0 -100 l-300 0 l0 100 l200 0 l0 200 l-100 0 l0 -100 l-100 0 l0 -100 l-200 0 ZM0 700 l0 100 l1000 0 l0 -400 l-100 0 l0 -200 l-100 0 l0 500 l-300 0 l0 -300 l-100 0 l0 200 l-100 0 l0 100 l-300 0 Z" /><glyph glyph-name="" unicode="&#x53cd;" d="M1000 -100 l-300 0 l0 100 l-200 0 l0 -100 l-300 0 l0 100 l200 0 l0 400 l-100 0 l0 -200 l-100 0 l0 -200 l-200 0 l0 200 l100 0 l0 600 l900 0 l0 -100 l-700 0 l0 -200 l600 0 l0 -300 l-100 0 l0 -200 l200 0 l0 -100 ZM700 100 l0 300 l-200 0 l0 -200 l100 0 l0 -100 l100 0 Z" /><glyph glyph-name="" unicode="&#x53ce;" d="M500 700 l0 100 l500 0 l0 -400 l-100 0 l0 -200 l-100 0 l0 -200 l200 0 l0 -100 l-300 0 l0 100 l-100 0 l0 -100 l-400 0 l0 100 l100 0 l0 100 l-100 0 l0 -100 l-200 0 l0 600 l200 0 l0 -400 l100 0 l0 400 l-100 0 l0 200 l200 0 l0 -500 l100 0 l0 -100 l-100 0 l0 -200 l100 0 l0 100 l100 0 l0 200 l-100 0 l0 300 l200 0 l0 -400 l100 0 l0 500 l-300 0 Z" /><glyph glyph-name="" unicode="&#x53d6;" d="M0 0 l0 100 l100 0 l0 600 l-100 0 l0 100 l1000 0 l0 -500 l-100 0 l0 -200 l100 0 l0 -200 l-200 0 l0 100 l100 0 l0 100 l-100 0 l0 -100 l-100 0 l0 -100 l-300 0 l0 100 l-400 0 ZM700 0 l0 500 l100 0 l0 -200 l100 0 l0 200 l-100 0 l0 200 l-200 0 l0 -700 l100 0 ZM400 100 l0 200 l-100 0 l0 -200 l100 0 ZM400 400 l0 100 l-100 0 l0 -100 l100 0 ZM400 600 l0 100 l-100 0 l0 -100 l100 0 Z" /><glyph glyph-name="" unicode="&#x53d7;" d="M0 -100 l0 100 l300 0 l0 100 l-100 0 l0 100 l-100 0 l0 100 l-100 0 l0 200 l300 0 l0 100 l-100 0 l0 100 l-100 0 l0 100 l800 0 l0 -200 l-100 0 l0 -100 l200 0 l0 -200 l-200 0 l0 -200 l-100 0 l0 -100 l300 0 l0 -100 l-400 0 l0 100 l-200 0 l0 -100 l-400 0 ZM400 100 l200 0 l0 100 l-200 0 l0 -100 ZM200 300 l600 0 l0 100 l-600 0 l0 -100 ZM600 500 l0 100 l-100 0 l0 -100 l100 0 ZM800 600 l0 100 l-100 0 l0 -100 l100 0 ZM500 600 l0 100 l-100 0 l0 -100 l100 0 Z" /><glyph glyph-name="" unicode="&#x53e3;" d="M1000 -100 l-200 0 l0 100 l-600 0 l0 -100 l-200 0 l0 800 l1000 0 l0 -800 ZM200 100 l600 0 l0 500 l-600 0 l0 -500 Z" /><glyph glyph-name="" unicode="&#x53e4;" d="M0 500 l0 100 l400 0 l0 300 l200 0 l0 -300 l400 0 l0 -100 l-400 0 l0 -200 l300 0 l0 -400 l-800 0 l0 400 l300 0 l0 200 l-400 0 ZM300 0 l400 0 l0 200 l-400 0 l0 -200 Z" /><glyph glyph-name="" unicode="&#x53eb;" d="M900 -100 l-200 0 l0 200 l-100 0 l0 -100 l-600 0 l0 700 l400 0 l0 -600 l100 0 l0 600 l100 0 l0 -500 l100 0 l0 600 l200 0 l0 -500 l100 0 l0 -100 l-100 0 l0 -300 ZM300 100 l0 500 l-100 0 l0 -500 l100 0 Z" /><glyph glyph-name="" unicode="&#x53ef;" d="M600 -100 l0 100 l100 0 l0 700 l-700 0 l0 100 l1000 0 l0 -100 l-100 0 l0 -800 l-300 0 ZM600 100 l-500 0 l0 500 l500 0 l0 -500 ZM400 200 l0 300 l-100 0 l0 -300 l100 0 Z" /><glyph glyph-name="" unicode="&#x53f1;" d="M1000 -100 l-600 0 l0 100 l100 0 l0 300 l-100 0 l0 -300 l-400 0 l0 700 l400 0 l0 -300 l100 0 l0 300 l-100 0 l0 200 l200 0 l0 -400 l100 0 l0 100 l300 0 l0 -100 l-200 0 l0 -100 l-200 0 l0 -400 l200 0 l0 200 l200 0 l0 -300 ZM300 100 l0 500 l-100 0 l0 -500 l100 0 Z" /><glyph glyph-name="" unicode="&#x53f3;" d="M0 100 l0 100 l100 0 l0 100 l100 0 l0 100 l100 0 l0 200 l-300 0 l0 100 l400 0 l0 200 l200 0 l0 -200 l400 0 l0 -100 l-500 0 l0 -200 l400 0 l0 -500 l-700 0 l0 200 l100 0 l0 100 l-100 0 l0 -100 l-200 0 ZM400 0 l300 0 l0 300 l-300 0 l0 -300 Z" /><glyph glyph-name="" unicode="&#x5404;" d="M0 100 l0 100 l200 0 l0 100 l100 0 l0 100 l100 0 l0 200 l100 0 l0 -100 l100 0 l0 100 l100 0 l0 100 l-300 0 l0 -100 l-100 0 l0 -100 l-200 0 l0 100 l100 0 l0 200 l700 0 l0 -200 l-100 0 l0 -100 l-100 0 l0 -100 l100 0 l0 -100 l100 0 l0 -100 l100 0 l0 -100 l-100 0 l0 -200 l-700 0 l0 200 l-200 0 ZM400 0 l300 0 l0 200 l-300 0 l0 -200 ZM600 300 l0 100 l-100 0 l0 -100 l100 0 Z" /><glyph glyph-name="" unicode="&#x5408;" d="M0 400 l0 100 l100 0 l0 100 l100 0 l0 100 l100 0 l0 100 l400 0 l0 -100 l100 0 l0 -100 l100 0 l0 -100 l100 0 l0 -100 l-100 0 l0 100 l-100 0 l0 -100 l-500 0 l0 100 l400 0 l0 100 l-100 0 l0 100 l-200 0 l0 -100 l-100 0 l0 -100 l-100 0 l0 -100 l-200 0 ZM900 -100 l-800 0 l0 400 l800 0 l0 -400 ZM300 0 l400 0 l0 200 l-400 0 l0 -200 Z" /><glyph glyph-name="" unicode="&#x5409;" d="M100 400 l0 100 l300 0 l0 100 l-400 0 l0 100 l400 0 l0 200 l200 0 l0 -200 l400 0 l0 -100 l-400 0 l0 -100 l300 0 l0 -100 l-800 0 ZM900 -100 l-800 0 l0 400 l800 0 l0 -400 ZM300 0 l400 0 l0 200 l-400 0 l0 -200 Z" /><glyph glyph-name="" unicode="&#x540c;" d="M300 500 l0 100 l500 0 l0 -100 l100 0 l0 100 l-100 0 l0 100 l-600 0 l0 -800 l-200 0 l0 900 l1000 0 l0 -900 l-300 0 l0 100 l-400 0 l0 400 l500 0 l0 -400 l100 0 l0 400 l-100 0 l0 100 l-500 0 ZM400 100 l200 0 l0 200 l-200 0 l0 -200 Z" /><glyph glyph-name="" unicode="&#x540d;" d="M0 0 l0 100 l200 0 l0 100 l200 0 l0 100 l-100 0 l0 100 l-200 0 l0 100 l200 0 l0 100 l100 0 l0 300 l200 0 l0 -200 l300 0 l0 -200 l-100 0 l0 -100 l-100 0 l0 -100 l300 0 l0 -400 l-700 0 l0 100 l100 0 l0 100 l-100 0 l0 -100 l-300 0 ZM500 0 l300 0 l0 200 l-300 0 l0 -200 ZM600 300 l0 200 l100 0 l0 100 l-200 0 l0 -100 l-100 0 l0 -100 l100 0 l0 -100 l100 0 Z" /><glyph glyph-name="" unicode="&#x5411;" d="M1000 -100 l-300 0 l0 100 l-400 0 l0 400 l500 0 l0 -400 l100 0 l0 400 l-100 0 l0 100 l-600 0 l0 -600 l-200 0 l0 700 l200 0 l0 100 l100 0 l0 100 l100 0 l0 100 l200 0 l0 -100 l-100 0 l0 -100 l-100 0 l0 -100 l600 0 l0 -700 ZM400 100 l200 0 l0 200 l-200 0 l0 -200 Z" /><glyph glyph-name="" unicode="&#x541b;" d="M0 0 l0 100 l100 0 l0 100 l100 0 l0 100 l-100 0 l0 100 l200 0 l0 100 l-300 0 l0 100 l300 0 l0 100 l-200 0 l0 100 l800 0 l0 -200 l100 0 l0 -100 l-100 0 l0 -200 l-500 0 l0 -100 l500 0 l0 -300 l-700 0 l0 100 l100 0 l0 100 l-100 0 l0 -100 l-200 0 ZM400 0 l300 0 l0 100 l-300 0 l0 -100 ZM500 400 l200 0 l0 100 l-200 0 l0 -100 ZM500 600 l200 0 l0 100 l-200 0 l0 -100 Z" /><glyph glyph-name="" unicode="&#x541f;" d="M500 -100 l0 100 l200 0 l0 100 l100 0 l0 100 l-300 0 l0 100 l500 0 l0 -200 l-100 0 l0 -100 l-100 0 l0 -100 l-300 0 ZM400 0 l-400 0 l0 700 l400 0 l0 -100 l100 0 l0 -100 l500 0 l0 -100 l-500 0 l0 100 l-100 0 l0 -500 ZM300 100 l0 500 l-100 0 l0 -500 l100 0 ZM1000 600 l-200 0 l0 100 l-200 0 l0 -100 l-100 0 l0 200 l400 0 l0 -100 l100 0 l0 -100 Z" /><glyph glyph-name="" unicode="&#x5426;" d="M0 400 l0 100 l300 0 l0 100 l200 0 l0 100 l-500 0 l0 100 l1000 0 l0 -100 l-300 0 l0 -100 l100 0 l0 -100 l100 0 l0 -100 l100 0 l0 -100 l-100 0 l0 -400 l-800 0 l0 400 l300 0 l0 100 l100 0 l0 100 l-100 0 l0 -100 l-400 0 ZM300 0 l400 0 l0 200 l-400 0 l0 -200 ZM600 300 l200 0 l0 100 l-100 0 l0 200 l-100 0 l0 -300 Z" /><glyph glyph-name="" unicode="&#x542b;" d="M0 400 l0 100 l100 0 l0 100 l100 0 l0 100 l100 0 l0 100 l400 0 l0 -100 l100 0 l0 -100 l100 0 l0 -100 l100 0 l0 -100 l-200 0 l0 -100 l-100 0 l0 -100 l200 0 l0 -300 l-800 0 l0 300 l400 0 l0 100 l-300 0 l0 100 l600 0 l0 100 l-600 0 l0 -100 l-200 0 ZM300 0 l400 0 l0 100 l-400 0 l0 -100 ZM400 600 l200 0 l0 100 l-200 0 l0 -100 Z" /><glyph glyph-name="" unicode="&#x5439;" d="M1000 -100 l-200 0 l0 200 l100 0 l0 -100 l100 0 l0 -100 ZM600 -100 l-300 0 l0 100 l-300 0 l0 700 l400 0 l0 -200 l100 0 l0 -100 l-100 0 l0 -400 l100 0 l0 100 l100 0 l0 400 l100 0 l0 100 l-100 0 l0 -100 l-100 0 l0 200 l-100 0 l0 200 l200 0 l0 -200 l400 0 l0 -300 l-100 0 l0 200 l-100 0 l0 -500 l-100 0 l0 -100 l-100 0 l0 -100 ZM300 100 l0 500 l-100 0 l0 -500 l100 0 Z" /><glyph glyph-name="" unicode="&#x543e;" d="M0 300 l0 100 l300 0 l0 100 l-200 0 l0 100 l300 0 l0 100 l-300 0 l0 100 l800 0 l0 -100 l-300 0 l0 -100 l300 0 l0 -200 l100 0 l0 -100 l-1000 0 ZM900 -100 l-800 0 l0 300 l800 0 l0 -300 ZM300 0 l400 0 l0 100 l-400 0 l0 -100 ZM500 400 l200 0 l0 100 l-200 0 l0 -100 Z" /><glyph glyph-name="" unicode="&#x5448;" d="M0 -100 l0 100 l400 0 l0 200 l-300 0 l0 100 l300 0 l0 100 l-300 0 l0 400 l800 0 l0 -400 l-300 0 l0 -100 l300 0 l0 -100 l-300 0 l0 -200 l400 0 l0 -100 l-1000 0 ZM300 500 l400 0 l0 200 l-400 0 l0 -200 Z" /><glyph glyph-name="" unicode="&#x544a;" d="M900 -100 l-800 0 l0 400 l800 0 l0 -400 ZM300 0 l400 0 l0 200 l-400 0 l0 -200 ZM1000 400 l-1000 0 l0 200 l100 0 l0 200 l200 0 l0 -100 l100 0 l0 200 l200 0 l0 -200 l300 0 l0 -100 l-300 0 l0 -100 l400 0 l0 -100 ZM200 500 l200 0 l0 100 l-200 0 l0 -100 Z" /><glyph glyph-name="" unicode="&#x5451;" d="M0 200 l0 100 l200 0 l0 100 l100 0 l0 100 l-300 0 l0 100 l400 0 l0 100 l-300 0 l0 100 l800 0 l0 -100 l-300 0 l0 -100 l400 0 l0 -100 l-200 0 l0 -100 l100 0 l0 -100 l100 0 l0 -100 l-100 0 l0 -300 l-800 0 l0 300 l-100 0 ZM300 0 l400 0 l0 200 l-400 0 l0 -200 ZM400 300 l300 0 l0 100 l-100 0 l0 100 l-100 0 l0 -100 l-100 0 l0 -100 Z" /><glyph glyph-name="" unicode="&#x5468;" d="M1000 -100 l-700 0 l0 200 l-100 0 l0 -200 l-200 0 l0 200 l100 0 l0 700 l900 0 l0 -900 ZM400 0 l200 0 l0 100 l-200 0 l0 -100 ZM900 0 l0 200 l-100 0 l0 -200 l100 0 ZM300 200 l500 0 l0 100 l-500 0 l0 -100 ZM600 400 l200 0 l0 100 l100 0 l0 100 l-100 0 l0 -100 l-200 0 l0 -100 ZM400 400 l0 100 l-100 0 l0 -100 l100 0 ZM600 600 l200 0 l0 100 l-200 0 l0 -100 ZM400 600 l0 100 l-100 0 l0 -100 l100 0 Z" /><glyph glyph-name="" unicode="&#x5473;" d="M500 600 l0 100 l100 0 l0 200 l200 0 l0 -200 l200 0 l0 -100 l-200 0 l0 -200 l200 0 l0 -100 l-200 0 l0 -200 l100 0 l0 -100 l100 0 l0 -100 l-100 0 l0 100 l-100 0 l0 -100 l-200 0 l0 100 l100 0 l0 100 l-100 0 l0 -100 l-100 0 l0 -100 l-200 0 l0 100 l-300 0 l0 700 l400 0 l0 -300 l200 0 l0 200 l-100 0 ZM500 0 l0 200 l100 0 l0 100 l-200 0 l0 -300 l100 0 ZM300 100 l0 500 l-100 0 l0 -500 l100 0 Z" /><glyph glyph-name="" unicode="&#x547c;" d="M500 -100 l0 100 l100 0 l0 200 l-200 0 l0 -200 l-400 0 l0 700 l300 0 l0 100 l700 0 l0 -100 l-200 0 l0 -200 l100 0 l0 -100 l-100 0 l0 -100 l200 0 l0 -100 l-200 0 l0 -300 l-300 0 ZM300 100 l0 500 l-100 0 l0 -500 l100 0 ZM400 300 l200 0 l0 100 l100 0 l0 200 l-100 0 l0 -200 l-100 0 l0 200 l100 0 l0 100 l-200 0 l0 -400 ZM900 500 l0 100 l100 0 l0 -100 l-100 0 Z" /><glyph glyph-name="" unicode="&#x547d;" d="M700 -100 l-200 0 l0 100 l100 0 l0 400 l400 0 l0 -400 l-300 0 l0 -100 ZM500 0 l-500 0 l0 500 l100 0 l0 100 l100 0 l0 100 l100 0 l0 100 l500 0 l0 -100 l100 0 l0 -100 l100 0 l0 -100 l-100 0 l0 100 l-100 0 l0 -100 l-600 0 l0 -100 l300 0 l0 -400 ZM800 100 l0 200 l-100 0 l0 -200 l100 0 ZM300 100 l0 200 l-100 0 l0 -200 l100 0 ZM400 600 l300 0 l0 100 l-300 0 l0 -100 Z" /><glyph glyph-name="" unicode="&#x54c1;" d="M1000 -100 l-400 0 l0 400 l400 0 l0 -400 ZM500 -100 l-500 0 l0 400 l500 0 l0 -400 ZM800 0 l0 200 l-100 0 l0 -200 l100 0 ZM300 0 l0 200 l-100 0 l0 -200 l100 0 ZM800 400 l-600 0 l0 400 l600 0 l0 -400 ZM400 500 l200 0 l0 200 l-200 0 l0 -200 Z" /><glyph glyph-name="" unicode="&#x54e1;" d="M100 -100 l0 100 l200 0 l0 100 l-200 0 l0 500 l100 0 l0 200 l700 0 l0 -200 l100 0 l0 -500 l-200 0 l0 -100 l200 0 l0 -100 l-300 0 l0 100 l-100 0 l0 100 l-100 0 l0 -100 l-100 0 l0 -100 l-300 0 ZM300 200 l500 0 l0 100 l-500 0 l0 -100 ZM300 400 l500 0 l0 100 l-500 0 l0 -100 ZM400 600 l300 0 l0 100 l-300 0 l0 -100 Z" /><glyph glyph-name="" unicode="&#x5531;" d="M1000 -100 l-800 0 l0 100 l-200 0 l0 700 l400 0 l0 -300 l100 0 l0 300 l-100 0 l0 100 l500 0 l0 -400 l100 0 l0 -500 ZM400 0 l400 0 l0 100 l-400 0 l0 -100 ZM400 200 l400 0 l0 100 l-400 0 l0 -100 ZM300 100 l0 500 l-100 0 l0 -500 l100 0 ZM700 400 l0 100 l-100 0 l0 -100 l100 0 ZM700 600 l0 100 l-100 0 l0 -100 l100 0 Z" /><glyph glyph-name="" unicode="&#x5546;" d="M0 600 l0 100 l400 0 l0 200 l200 0 l0 -200 l400 0 l0 -100 l-200 0 l0 -100 l200 0 l0 -600 l-200 0 l0 300 l-100 0 l0 -300 l-400 0 l0 200 l100 0 l0 100 l100 0 l0 100 l100 0 l0 100 l-100 0 l0 -100 l-100 0 l0 -100 l-100 0 l0 -100 l-100 0 l0 -200 l-200 0 l0 600 l200 0 l0 100 l-200 0 ZM600 0 l0 100 l-100 0 l0 -100 l100 0 ZM300 200 l0 200 l-100 0 l0 -200 l100 0 ZM800 300 l0 100 l-100 0 l0 -100 l100 0 ZM400 500 l200 0 l0 100 l-200 0 l0 -100 Z" /><glyph glyph-name="" unicode="&#x554f;" d="M1000 -100 l-200 0 l0 400 l-200 0 l0 500 l400 0 l0 -900 ZM700 -100 l-400 0 l0 300 l400 0 l0 -300 ZM200 -100 l-200 0 l0 900 l500 0 l0 -500 l-300 0 l0 -400 ZM600 0 l0 100 l-100 0 l0 -100 l100 0 ZM800 400 l0 100 l-100 0 l0 -100 l100 0 ZM300 400 l0 100 l-100 0 l0 -100 l100 0 ZM800 600 l0 100 l-100 0 l0 -100 l100 0 ZM300 600 l0 100 l-100 0 l0 -100 l100 0 Z" /><glyph glyph-name="" unicode="&#x55a9;" d="M400 -100 l-200 0 l0 100 l-200 0 l0 700 l300 0 l0 -100 l100 0 l0 100 l-100 0 l0 100 l600 0 l0 -100 l100 0 l0 -200 l-400 0 l0 100 l200 0 l0 100 l-200 0 l0 -100 l-100 0 l0 -100 l-100 0 l0 -100 l200 0 l0 -200 l100 0 l0 -100 l100 0 l0 -200 l-100 0 l0 200 l-100 0 l0 -200 l-100 0 l0 200 l-100 0 l0 -200 ZM1000 100 l0 -200 l-100 0 l0 200 l100 0 ZM900 100 l-100 0 l0 100 l100 0 l0 -100 ZM300 100 l0 500 l-100 0 l0 -500 l100 0 ZM900 200 l0 200 l100 0 l0 -200 l-100 0 ZM800 200 l-100 0 l0 200 l100 0 l0 -200 ZM500 200 l0 100 l-100 0 l0 -100 l100 0 Z" /><glyph glyph-name="" unicode="&#x55b0;" d="M1000 -100 l-200 0 l0 100 l-100 0 l0 -100 l-300 0 l0 100 l100 0 l0 500 l-100 0 l0 -500 l-400 0 l0 700 l400 0 l0 -100 l100 0 l0 200 l400 0 l0 -100 l100 0 l0 -600 l-100 0 l0 -100 l100 0 l0 -100 ZM700 0 l0 100 l-100 0 l0 -100 l100 0 ZM600 200 l200 0 l0 100 l-200 0 l0 -100 ZM300 100 l0 500 l-100 0 l0 -500 l100 0 ZM600 400 l200 0 l0 100 l-200 0 l0 -100 ZM600 600 l200 0 l0 100 l-200 0 l0 -100 Z" /><glyph glyph-name="" unicode="&#x5609;" d="M0 200 l0 100 l200 0 l0 100 l-100 0 l0 100 l300 0 l0 100 l-400 0 l0 100 l400 0 l0 200 l200 0 l0 -200 l400 0 l0 -100 l-400 0 l0 -100 l300 0 l0 -100 l-100 0 l0 -100 l200 0 l0 -400 l-400 0 l0 300 l-100 0 l0 -300 l-200 0 l0 200 l100 0 l0 100 l-100 0 l0 -100 l-100 0 l0 -200 l-200 0 l0 200 l100 0 l0 100 l-100 0 ZM800 0 l0 200 l-100 0 l0 -200 l100 0 ZM400 300 l200 0 l0 100 l-200 0 l0 -100 Z" /><glyph glyph-name="" unicode="&#x5634;" d="M1000 -100 l-200 0 l0 100 l-300 0 l0 -100 l-200 0 l0 100 l-300 0 l0 700 l400 0 l0 -200 l100 0 l0 200 l-100 0 l0 100 l200 0 l0 -100 l100 0 l0 100 l-100 0 l0 100 l200 0 l0 -200 l200 0 l0 -100 l-200 0 l0 -100 l200 0 l0 -600 ZM900 100 l0 100 l-100 0 l0 -100 l100 0 ZM700 100 l0 100 l-100 0 l0 -100 l100 0 ZM500 100 l0 300 l-100 0 l0 -300 l100 0 ZM300 100 l0 500 l-100 0 l0 -500 l100 0 ZM900 300 l0 100 l-100 0 l0 -100 l100 0 ZM700 300 l0 100 l-100 0 l0 -100 l100 0 ZM700 500 l0 100 l-100 0 l0 -100 l100 0 Z" /><glyph glyph-name="" unicode="&#x56a2;" d="M0 0 l0 100 l200 0 l0 100 l-100 0 l0 100 l-100 0 l0 200 l100 0 l0 100 l-100 0 l0 100 l400 0 l0 200 l200 0 l0 -200 l400 0 l0 -100 l-100 0 l0 -100 l100 0 l0 -200 l-100 0 l0 -100 l100 0 l0 -100 l-200 0 l0 -100 l200 0 l0 -100 l-300 0 l0 100 l-200 0 l0 -100 l-400 0 l0 100 l-100 0 ZM300 0 l200 0 l0 200 l-100 0 l0 -100 l-100 0 l0 -100 ZM700 100 l0 100 l-100 0 l0 -100 l100 0 ZM400 300 l200 0 l0 100 l-200 0 l0 -100 ZM900 300 l0 100 l-100 0 l0 -100 l100 0 ZM300 300 l0 100 l-100 0 l0 -100 l100 0 ZM700 500 l0 100 l-100 0 l0 -100 l100 0 ZM400 500 l0 100 l-100 0 l0 -100 l100 0 Z" /><glyph glyph-name="" unicode="&#x56db;" d="M1000 -100 l-200 0 l0 100 l-600 0 l0 -100 l-200 0 l0 900 l1000 0 l0 -900 ZM200 100 l600 0 l0 200 l-300 0 l0 200 l100 0 l0 200 l-100 0 l0 -200 l-100 0 l0 -100 l-100 0 l0 -100 l-100 0 l0 -200 ZM800 400 l0 300 l-100 0 l0 -300 l100 0 ZM300 400 l0 300 l-100 0 l0 -300 l100 0 Z" /><glyph glyph-name="" unicode="&#x56e0;" d="M1000 -100 l-1000 0 l0 900 l1000 0 l0 -900 ZM200 0 l600 0 l0 100 l100 0 l0 100 l-100 0 l0 -100 l-200 0 l0 200 l100 0 l0 -100 l100 0 l0 200 l-200 0 l0 -100 l-100 0 l0 -100 l-100 0 l0 -100 l-100 0 l0 200 l100 0 l0 100 l-200 0 l0 -400 ZM600 500 l200 0 l0 200 l-200 0 l0 -200 ZM200 500 l200 0 l0 200 l-200 0 l0 -200 Z" /><glyph glyph-name="" unicode="&#x56e3;" d="M1000 -100 l-1000 0 l0 900 l1000 0 l0 -900 ZM200 0 l300 0 l0 100 l100 0 l0 100 l-100 0 l0 -100 l-200 0 l0 200 l100 0 l0 -100 l100 0 l0 200 l-300 0 l0 -400 ZM800 0 l0 400 l100 0 l0 100 l-100 0 l0 -100 l-100 0 l0 -400 l100 0 ZM200 500 l300 0 l0 200 l-300 0 l0 -200 ZM800 500 l0 200 l-100 0 l0 -200 l100 0 Z" /><glyph glyph-name="" unicode="&#x56f0;" d="M1000 -100 l-1000 0 l0 900 l1000 0 l0 -900 ZM600 0 l200 0 l0 100 l100 0 l0 100 l-100 0 l0 -100 l-100 0 l0 100 l100 0 l0 200 l-200 0 l0 -100 l100 0 l0 -100 l-100 0 l0 -200 ZM200 0 l200 0 l0 200 l100 0 l0 100 l-100 0 l0 -100 l-100 0 l0 -100 l-100 0 l0 -100 ZM300 200 l0 200 l-100 0 l0 -200 l100 0 ZM600 500 l200 0 l0 200 l-200 0 l0 -200 ZM200 500 l200 0 l0 200 l-200 0 l0 -200 Z" /><glyph glyph-name="" unicode="&#x56f2;" d="M1000 -100 l-1000 0 l0 900 l1000 0 l0 -900 ZM800 0 l0 200 l-100 0 l0 -200 l100 0 ZM500 0 l0 100 l100 0 l0 100 l-100 0 l0 -100 l-100 0 l0 -100 l100 0 ZM300 0 l0 200 l-100 0 l0 -200 l100 0 ZM800 300 l0 200 l100 0 l0 100 l-100 0 l0 -100 l-100 0 l0 -200 l100 0 ZM600 300 l0 200 l-100 0 l0 -200 l100 0 ZM300 300 l0 400 l-100 0 l0 -400 l100 0 ZM800 600 l0 100 l-100 0 l0 -100 l100 0 ZM600 600 l0 100 l-100 0 l0 -100 l100 0 Z" /><glyph glyph-name="" unicode="&#x56f3;" d="M1000 -100 l-1000 0 l0 900 l1000 0 l0 -900 ZM500 0 l300 0 l0 100 l100 0 l0 100 l-100 0 l0 -100 l-100 0 l0 100 l100 0 l0 200 l100 0 l0 200 l-100 0 l0 -200 l-100 0 l0 -200 l-100 0 l0 -100 l-100 0 l0 -100 ZM300 0 l0 100 l100 0 l0 100 l100 0 l0 200 l100 0 l0 100 l100 0 l0 100 l100 0 l0 100 l-300 0 l0 -100 l100 0 l0 -100 l-200 0 l0 100 l-100 0 l0 100 l-100 0 l0 -200 l100 0 l0 -100 l100 0 l0 -100 l-100 0 l0 100 l-100 0 l0 -400 l100 0 Z" /><glyph glyph-name="" unicode="&#x56fd;" d="M300 100 l0 100 l100 0 l0 100 l-100 0 l0 100 l100 0 l0 100 l-100 0 l0 100 l500 0 l0 -100 l100 0 l0 100 l-100 0 l0 100 l-600 0 l0 -700 l600 0 l0 100 l100 0 l0 100 l-100 0 l0 -100 l-500 0 ZM1000 -100 l-1000 0 l0 900 l1000 0 l0 -900 ZM700 200 l0 100 l-100 0 l0 -100 l100 0 ZM900 300 l0 100 l-100 0 l0 -100 l100 0 ZM600 400 l200 0 l0 100 l-200 0 l0 -100 Z" /><glyph glyph-name="" unicode="&#x570f;" d="M1000 -100 l-1000 0 l0 900 l1000 0 l0 -900 ZM900 0 l0 100 l-100 0 l0 -100 l100 0 ZM600 0 l0 100 l-100 0 l0 -100 l100 0 ZM300 0 l0 100 l100 0 l0 100 l100 0 l0 100 l100 0 l0 100 l-100 0 l0 -100 l-100 0 l0 -100 l-100 0 l0 -100 l-100 0 l0 -100 l100 0 ZM800 100 l0 100 l100 0 l0 100 l-100 0 l0 -100 l-100 0 l0 -100 l100 0 ZM300 200 l0 200 l-100 0 l0 -200 l100 0 ZM800 300 l0 100 l-100 0 l0 -100 l100 0 ZM800 500 l0 100 l100 0 l0 100 l-100 0 l0 -100 l-100 0 l0 -100 l100 0 ZM600 500 l0 100 l100 0 l0 100 l-100 0 l0 -100 l-100 0 l0 -100 l100 0 ZM300 500 l0 200 l-100 0 l0 -200 l100 0 ZM500 600 l0 100 l-100 0 l0 -100 l100 0 Z" /><glyph glyph-name="" unicode="&#x5727;" d="M400 300 l0 100 l200 0 l0 200 l200 0 l0 -200 l200 0 l0 -100 l-200 0 l0 -300 l200 0 l0 -100 l-800 0 l0 100 l400 0 l0 300 l-200 0 ZM200 0 l-200 0 l0 200 l100 0 l0 600 l900 0 l0 -100 l-700 0 l0 -500 l-100 0 l0 -200 Z" /><glyph glyph-name="" unicode="&#x5728;" d="M400 -100 l0 100 l200 0 l0 300 l-200 0 l0 100 l200 0 l0 200 l-200 0 l0 -200 l-100 0 l0 -500 l-200 0 l0 300 l-100 0 l0 100 l100 0 l0 100 l100 0 l0 200 l-200 0 l0 100 l300 0 l0 200 l200 0 l0 -200 l500 0 l0 -100 l-200 0 l0 -200 l200 0 l0 -100 l-200 0 l0 -300 l200 0 l0 -100 l-600 0 Z" /><glyph glyph-name="" unicode="&#x5730;" d="M0 0 l0 100 l100 0 l0 400 l-100 0 l0 100 l100 0 l0 200 l200 0 l0 -200 l100 0 l0 -100 l100 0 l0 100 l-100 0 l0 100 l200 0 l0 -200 l100 0 l0 200 l-100 0 l0 200 l200 0 l0 -300 l200 0 l0 -300 l-100 0 l0 200 l-100 0 l0 -300 l-100 0 l0 200 l-100 0 l0 -400 l200 0 l0 100 l200 0 l0 -200 l-600 0 l0 100 l100 0 l0 100 l-100 0 l0 -100 l-400 0 ZM400 100 l0 400 l-100 0 l0 -400 l100 0 Z" /><glyph glyph-name="" unicode="&#x574a;" d="M0 0 l0 100 l100 0 l0 400 l-100 0 l0 100 l100 0 l0 200 l200 0 l0 -200 l100 0 l0 -100 l-100 0 l0 -400 l100 0 l0 -100 l-400 0 ZM900 -100 l-300 0 l0 100 l200 0 l0 300 l-100 0 l0 -100 l-100 0 l0 -200 l-100 0 l0 100 l-100 0 l0 100 l100 0 l0 400 l-100 0 l0 100 l200 0 l0 200 l200 0 l0 -200 l200 0 l0 -100 l-300 0 l0 -200 l300 0 l0 -400 l-100 0 l0 -100 Z" /><glyph glyph-name="" unicode="&#x57a3;" d="M0 0 l0 100 l100 0 l0 400 l-100 0 l0 100 l100 0 l0 200 l200 0 l0 -200 l100 0 l0 -100 l100 0 l0 100 l500 0 l0 -500 l-600 0 l0 -100 l600 0 l0 -100 l-700 0 l0 100 l-300 0 ZM400 700 l0 100 l600 0 l0 -100 l-600 0 ZM600 200 l200 0 l0 100 l-200 0 l0 -100 ZM400 100 l0 400 l-100 0 l0 -400 l100 0 ZM600 400 l200 0 l0 100 l-200 0 l0 -100 Z" /><glyph glyph-name="" unicode="&#x57f7;" d="M0 0 l0 100 l200 0 l0 100 l-200 0 l0 100 l100 0 l0 100 l-100 0 l0 100 l200 0 l0 100 l-200 0 l0 100 l200 0 l0 200 l200 0 l0 -200 l200 0 l0 200 l200 0 l0 -200 l200 0 l0 -800 l-200 0 l0 200 l100 0 l0 200 l-100 0 l0 -200 l-100 0 l0 -200 l-200 0 l0 100 l-100 0 l0 -100 l-200 0 l0 100 l-200 0 ZM400 100 l200 0 l0 100 l100 0 l0 100 l-100 0 l0 -100 l-200 0 l0 -100 ZM400 300 l0 100 l-100 0 l0 -100 l100 0 ZM900 400 l0 200 l-100 0 l0 -200 l100 0 ZM700 400 l0 100 l-100 0 l0 -100 l100 0 ZM400 500 l200 0 l0 100 l-200 0 l0 -100 Z" /><glyph glyph-name="" unicode="&#x57fa;" d="M0 -100 l0 100 l400 0 l0 100 l-100 0 l0 100 l100 0 l0 100 l-100 0 l0 -100 l-100 0 l0 -100 l-200 0 l0 100 l100 0 l0 100 l-100 0 l0 100 l200 0 l0 300 l-200 0 l0 100 l200 0 l0 100 l200 0 l0 -100 l200 0 l0 100 l200 0 l0 -100 l200 0 l0 -100 l-200 0 l0 -300 l200 0 l0 -100 l-100 0 l0 -100 l100 0 l0 -100 l-100 0 l0 100 l-100 0 l0 -100 l-200 0 l0 -100 l400 0 l0 -100 l-1000 0 ZM700 200 l0 100 l-100 0 l0 -100 l100 0 ZM400 400 l200 0 l0 100 l-200 0 l0 -100 ZM400 600 l200 0 l0 100 l-200 0 l0 -100 Z" /><glyph glyph-name="" unicode="&#x5800;" d="M0 0 l0 100 l100 0 l0 400 l-100 0 l0 100 l100 0 l0 200 l200 0 l0 -200 l100 0 l0 200 l600 0 l0 -300 l-200 0 l0 -200 l100 0 l0 100 l100 0 l0 -200 l-200 0 l0 -200 l100 0 l0 100 l100 0 l0 -200 l-700 0 l0 100 l-300 0 ZM600 0 l0 200 l-200 0 l0 300 l-100 0 l0 -400 l200 0 l0 -100 l100 0 ZM600 300 l0 200 l-100 0 l0 -200 l100 0 ZM500 600 l300 0 l0 100 l-300 0 l0 -100 Z" /><glyph glyph-name="" unicode="&#x5802;" d="M0 -100 l0 100 l400 0 l0 100 l-300 0 l0 100 l300 0 l0 100 l-200 0 l0 100 l100 0 l0 200 l-100 0 l0 -200 l-200 0 l0 300 l200 0 l0 100 l200 0 l0 -100 l100 0 l0 100 l-100 0 l0 100 l200 0 l0 -200 l100 0 l0 100 l100 0 l0 -100 l200 0 l0 -300 l-100 0 l0 200 l-100 0 l0 -300 l-200 0 l0 -100 l300 0 l0 -100 l-300 0 l0 -100 l400 0 l0 -100 l-1000 0 ZM400 400 l200 0 l0 200 l-200 0 l0 -200 Z" /><glyph glyph-name="" unicode="&#x5805;" d="M0 -100 l0 100 l400 0 l0 100 l-400 0 l0 700 l500 0 l0 -100 l-100 0 l0 -100 l100 0 l0 -300 l100 0 l0 -100 l200 0 l0 200 l100 0 l0 -100 l100 0 l0 -100 l-100 0 l0 -100 l-300 0 l0 -100 l400 0 l0 -100 l-1000 0 ZM600 700 l0 100 l400 0 l0 -200 l-100 0 l0 -100 l-100 0 l0 -100 l-100 0 l0 -100 l-100 0 l0 300 l100 0 l0 -100 l100 0 l0 200 l-200 0 ZM500 200 l0 100 l-100 0 l0 -100 l100 0 ZM300 200 l0 100 l-100 0 l0 -100 l100 0 ZM300 400 l0 100 l-100 0 l0 -100 l100 0 ZM300 600 l0 100 l-100 0 l0 -100 l100 0 Z" /><glyph glyph-name="" unicode="&#x5815;" d="M0 -100 l0 100 l400 0 l0 100 l-300 0 l0 100 l-100 0 l0 600 l400 0 l0 -100 l200 0 l0 200 l200 0 l0 -200 l200 0 l0 -100 l-300 0 l0 -100 l300 0 l0 -400 l-200 0 l0 100 l-100 0 l0 -100 l-100 0 l0 -100 l400 0 l0 -100 l-1000 0 ZM200 200 l300 0 l0 100 l100 0 l0 100 l-100 0 l0 -100 l-300 0 l0 -100 ZM800 300 l0 100 l-100 0 l0 -100 l100 0 ZM500 400 l0 200 l-200 0 l0 -100 l100 0 l0 -100 l100 0 ZM300 400 l0 100 l-100 0 l0 -100 l100 0 ZM300 600 l0 100 l-100 0 l0 -100 l100 0 Z" /><glyph glyph-name="" unicode="&#x5834;" d="M0 0 l0 100 l100 0 l0 400 l-100 0 l0 100 l100 0 l0 200 l200 0 l0 -200 l100 0 l0 -100 l100 0 l0 100 l-100 0 l0 200 l500 0 l0 -400 l100 0 l0 -100 l-400 0 l0 -100 l400 0 l0 -300 l-200 0 l0 100 l100 0 l0 100 l-100 0 l0 -100 l-100 0 l0 -100 l-100 0 l0 100 l100 0 l0 100 l-100 0 l0 -100 l-100 0 l0 -100 l-200 0 l0 100 l-300 0 ZM500 0 l0 100 l-100 0 l0 -100 l100 0 ZM400 100 l0 400 l-100 0 l0 -400 l100 0 ZM700 400 l0 100 l-100 0 l0 -100 l100 0 ZM700 600 l0 100 l-100 0 l0 -100 l100 0 Z" /><glyph glyph-name="" unicode="&#x5897;" d="M0 0 l0 100 l100 0 l0 400 l-100 0 l0 100 l100 0 l0 200 l200 0 l0 -200 l100 0 l0 100 l200 0 l0 100 l100 0 l0 100 l200 0 l0 -100 l-100 0 l0 -100 l200 0 l0 -800 l-600 0 l0 100 l100 0 l0 100 l-100 0 l0 -100 l-400 0 ZM400 800 l0 100 l200 0 l0 -100 l-200 0 ZM600 0 l200 0 l0 200 l-200 0 l0 -200 ZM400 100 l0 400 l-100 0 l0 -400 l100 0 ZM900 300 l0 100 l-100 0 l0 -100 l100 0 ZM600 300 l0 100 l-100 0 l0 -100 l100 0 ZM900 500 l0 100 l-100 0 l0 -100 l100 0 ZM600 500 l0 100 l-100 0 l0 -100 l100 0 Z" /><glyph glyph-name="" unicode="&#x58c1;" d="M0 -100 l0 100 l400 0 l0 100 l-300 0 l0 100 l-100 0 l0 600 l500 0 l0 -100 l100 0 l0 200 l200 0 l0 -200 l200 0 l0 -100 l-100 0 l0 -100 l100 0 l0 -100 l-200 0 l0 -200 l100 0 l0 -100 l-300 0 l0 -100 l400 0 l0 -100 l-1000 0 ZM200 200 l200 0 l0 100 l-200 0 l0 -100 ZM700 200 l0 100 l-100 0 l0 -100 l100 0 ZM600 300 l0 100 l-100 0 l0 -100 l100 0 ZM300 400 l0 100 l-100 0 l0 -100 l100 0 ZM800 500 l0 100 l-100 0 l0 -100 l100 0 ZM600 500 l0 100 l-100 0 l0 -100 l100 0 ZM300 600 l0 100 l-100 0 l0 -100 l100 0 Z" /><glyph glyph-name="" unicode="&#x58c7;" d="M0 0 l0 100 l100 0 l0 400 l-100 0 l0 100 l100 0 l0 200 l200 0 l0 -200 l100 0 l0 100 l200 0 l0 200 l200 0 l0 -200 l200 0 l0 -500 l-100 0 l0 -200 l100 0 l0 -100 l-700 0 l0 100 l-300 0 ZM700 0 l0 200 l-100 0 l0 -200 l100 0 ZM500 0 l0 100 l-100 0 l0 -100 l100 0 ZM400 100 l0 400 l-100 0 l0 -400 l100 0 ZM500 300 l300 0 l0 100 l-200 0 l0 200 l-100 0 l0 -300 ZM800 500 l0 100 l-100 0 l0 -100 l100 0 Z" /><glyph glyph-name="" unicode="&#x58ca;" d="M0 0 l0 100 l100 0 l0 400 l-100 0 l0 100 l100 0 l0 200 l200 0 l0 -200 l100 0 l0 -100 l100 0 l0 100 l-100 0 l0 100 l100 0 l0 200 l200 0 l0 -200 l300 0 l0 -300 l-300 0 l0 -100 l300 0 l0 -200 l-100 0 l0 -100 l100 0 l0 -100 l-200 0 l0 100 l-100 0 l0 -100 l-400 0 l0 100 l-300 0 ZM500 0 l200 0 l0 200 l-100 0 l0 -100 l-100 0 l0 -100 ZM900 100 l0 100 l-100 0 l0 -100 l100 0 ZM400 100 l0 100 l-100 0 l0 -100 l100 0 ZM300 300 l200 0 l0 100 l-100 0 l0 100 l-100 0 l0 -200 ZM900 500 l0 100 l-100 0 l0 -100 l100 0 ZM700 500 l0 100 l-100 0 l0 -100 l100 0 Z" /><glyph glyph-name="" unicode="&#x58f0;" d="M100 400 l0 100 l300 0 l0 100 l-400 0 l0 100 l400 0 l0 200 l200 0 l0 -200 l400 0 l0 -100 l-400 0 l0 -100 l400 0 l0 -400 l-700 0 l0 -200 l-200 0 l0 200 l100 0 l0 300 l-100 0 ZM800 200 l0 200 l-100 0 l0 -200 l100 0 ZM500 200 l0 200 l-100 0 l0 -200 l100 0 Z" /><glyph glyph-name="" unicode="&#x58f2;" d="M0 -100 l0 100 l200 0 l0 100 l100 0 l0 100 l-100 0 l0 -100 l-200 0 l0 200 l1000 0 l0 -200 l-200 0 l0 100 l-100 0 l0 -200 l300 0 l0 -100 l-500 0 l0 200 l100 0 l0 100 l-100 0 l0 -100 l-100 0 l0 -100 l-100 0 l0 -100 l-300 0 ZM100 400 l0 100 l300 0 l0 100 l-400 0 l0 100 l400 0 l0 200 l200 0 l0 -200 l400 0 l0 -100 l-400 0 l0 -100 l300 0 l0 -100 l-800 0 Z" /><glyph glyph-name="" unicode="&#x5909;" d="M0 -100 l0 100 l300 0 l0 100 l-200 0 l0 100 l200 0 l0 200 l100 0 l0 100 l-100 0 l0 -100 l-100 0 l0 -100 l-200 0 l0 100 l100 0 l0 100 l200 0 l0 100 l-300 0 l0 100 l400 0 l0 200 l200 0 l0 -200 l400 0 l0 -100 l-300 0 l0 -300 l100 0 l0 -200 l-100 0 l0 -100 l300 0 l0 -100 l-400 0 l0 100 l-200 0 l0 -100 l-400 0 ZM400 100 l200 0 l0 100 l-200 0 l0 -100 ZM1000 300 l-200 0 l0 200 l100 0 l0 -100 l100 0 l0 -100 ZM600 300 l0 300 l-100 0 l0 -300 l100 0 Z" /><glyph glyph-name="" unicode="&#x5916;" d="M0 -100 l0 100 l200 0 l0 100 l100 0 l0 400 l100 0 l0 -200 l100 0 l0 -200 l-100 0 l0 -100 l-100 0 l0 -100 l-300 0 ZM800 -100 l-200 0 l0 400 l100 0 l0 100 l-100 0 l0 -100 l-100 0 l0 200 l-100 0 l0 100 l-100 0 l0 -100 l-100 0 l0 -200 l-200 0 l0 200 l100 0 l0 300 l200 0 l0 -100 l300 0 l0 -200 l100 0 l0 200 l-100 0 l0 200 l200 0 l0 -500 l100 0 l0 -100 l100 0 l0 -100 l-100 0 l0 100 l-100 0 l0 -400 Z" /><glyph glyph-name="" unicode="&#x591a;" d="M200 -100 l0 100 l300 0 l0 300 l-100 0 l0 -100 l-400 0 l0 100 l300 0 l0 200 l-200 0 l0 100 l200 0 l0 100 l100 0 l0 200 l200 0 l0 -200 l200 0 l0 -200 l200 0 l0 -300 l-100 0 l0 -100 l-100 0 l0 -100 l-200 0 l0 -100 l-400 0 ZM800 100 l0 300 l-100 0 l0 -100 l-100 0 l0 -100 l100 0 l0 -100 l100 0 ZM600 400 l0 200 l-200 0 l0 -100 l100 0 l0 -100 l100 0 Z" /><glyph glyph-name="" unicode="&#x5922;" d="M100 -100 l0 100 l300 0 l0 100 l-100 0 l0 100 l-100 0 l0 -100 l-200 0 l0 200 l100 0 l0 300 l200 0 l0 100 l-300 0 l0 100 l300 0 l0 100 l200 0 l0 -100 l100 0 l0 100 l200 0 l0 -100 l200 0 l0 -100 l-200 0 l0 -100 l100 0 l0 -300 l100 0 l0 -200 l-100 0 l0 100 l-100 0 l0 -100 l-100 0 l0 -100 l-200 0 l0 -100 l-400 0 ZM600 100 l0 100 l-100 0 l0 -100 l100 0 ZM800 300 l0 200 l-100 0 l0 -200 l100 0 ZM600 300 l0 200 l-100 0 l0 -200 l100 0 ZM400 300 l0 200 l-100 0 l0 -200 l100 0 ZM600 600 l0 100 l-100 0 l0 -100 l100 0 Z" /><glyph glyph-name="" unicode="&#x5927;" d="M0 -100 l0 100 l200 0 l0 100 l100 0 l0 100 l100 0 l0 300 l-400 0 l0 100 l400 0 l0 300 l200 0 l0 -300 l400 0 l0 -100 l-400 0 l0 -300 l100 0 l0 -100 l100 0 l0 -100 l200 0 l0 -100 l-300 0 l0 100 l-100 0 l0 200 l-100 0 l0 -100 l-100 0 l0 -100 l-100 0 l0 -100 l-300 0 Z" /><glyph glyph-name="" unicode="&#x5929;" d="M0 -100 l0 100 l200 0 l0 100 l100 0 l0 100 l100 0 l0 200 l-300 0 l0 100 l300 0 l0 200 l-400 0 l0 100 l1000 0 l0 -100 l-400 0 l0 -200 l300 0 l0 -100 l-300 0 l0 -200 l100 0 l0 -100 l100 0 l0 -100 l200 0 l0 -100 l-300 0 l0 100 l-100 0 l0 200 l-100 0 l0 -100 l-100 0 l0 -100 l-100 0 l0 -100 l-300 0 Z" /><glyph glyph-name="" unicode="&#x592b;" d="M0 -100 l0 100 l200 0 l0 100 l100 0 l0 100 l100 0 l0 100 l-400 0 l0 100 l400 0 l0 200 l-300 0 l0 100 l300 0 l0 200 l200 0 l0 -200 l300 0 l0 -100 l-300 0 l0 -200 l400 0 l0 -100 l-400 0 l0 -100 l100 0 l0 -100 l100 0 l0 -100 l200 0 l0 -100 l-300 0 l0 100 l-100 0 l0 200 l-100 0 l0 -100 l-100 0 l0 -100 l-100 0 l0 -100 l-300 0 Z" /><glyph glyph-name="" unicode="&#x5931;" d="M0 -100 l0 100 l200 0 l0 100 l100 0 l0 100 l100 0 l0 100 l-400 0 l0 200 l100 0 l0 300 l200 0 l0 -100 l100 0 l0 200 l200 0 l0 -200 l300 0 l0 -100 l-300 0 l0 -200 l400 0 l0 -100 l-400 0 l0 -100 l100 0 l0 -100 l100 0 l0 -100 l200 0 l0 -100 l-300 0 l0 100 l-100 0 l0 200 l-100 0 l0 -100 l-100 0 l0 -100 l-100 0 l0 -100 l-300 0 ZM200 400 l200 0 l0 200 l-100 0 l0 -100 l-100 0 l0 -100 Z" /><glyph glyph-name="" unicode="&#x5947;" d="M0 300 l0 100 l200 0 l0 100 l100 0 l0 100 l-300 0 l0 100 l400 0 l0 200 l200 0 l0 -200 l400 0 l0 -100 l-300 0 l0 -100 l100 0 l0 -100 l200 0 l0 -100 l-100 0 l0 -400 l-200 0 l0 400 l-700 0 ZM600 -100 l-500 0 l0 300 l500 0 l0 -300 ZM400 0 l0 100 l-100 0 l0 -100 l100 0 ZM400 400 l200 0 l0 200 l-100 0 l0 -100 l-100 0 l0 -100 Z" /><glyph glyph-name="" unicode="&#x5954;" d="M0 -100 l0 100 l200 0 l0 100 l-200 0 l0 100 l200 0 l0 100 l100 0 l0 100 l100 0 l0 -200 l200 0 l0 100 l100 0 l0 100 l100 0 l0 -200 l200 0 l0 -100 l-200 0 l0 -200 l-200 0 l0 200 l-200 0 l0 -100 l-100 0 l0 -100 l-300 0 ZM0 300 l0 100 l100 0 l0 100 l100 0 l0 100 l-200 0 l0 100 l400 0 l0 200 l200 0 l0 -200 l400 0 l0 -100 l-200 0 l0 -100 l100 0 l0 -100 l100 0 l0 -100 l-100 0 l0 100 l-100 0 l0 100 l-100 0 l0 -100 l-100 0 l0 -100 l-100 0 l0 100 l-100 0 l0 100 l100 0 l0 100 l-100 0 l0 -100 l-100 0 l0 -100 l-100 0 l0 -100 l-200 0 ZM700 500 l0 100 l-100 0 l0 -100 l100 0 Z" /><glyph glyph-name="" unicode="&#x5965;" d="M0 -100 l0 100 l200 0 l0 100 l-200 0 l0 100 l100 0 l0 500 l200 0 l0 100 l100 0 l0 100 l200 0 l0 -100 l-100 0 l0 -100 l400 0 l0 -500 l100 0 l0 -100 l-200 0 l0 -100 l200 0 l0 -100 l-300 0 l0 100 l-100 0 l0 100 l-200 0 l0 -100 l-100 0 l0 -100 l-300 0 ZM800 200 l0 100 l-100 0 l0 -100 l100 0 ZM600 200 l0 100 l100 0 l0 100 l-100 0 l0 -100 l-100 0 l0 -100 l100 0 ZM400 200 l0 200 l-100 0 l0 -200 l100 0 ZM800 500 l0 100 l-100 0 l0 -100 l100 0 ZM600 500 l0 100 l-100 0 l0 -100 l100 0 ZM400 500 l0 100 l-100 0 l0 -100 l100 0 Z" /><glyph glyph-name="" unicode="&#x5968;" d="M0 -100 l0 100 l200 0 l0 100 l-200 0 l0 100 l400 0 l0 100 l100 0 l0 200 l200 0 l0 200 l-100 0 l0 -100 l-100 0 l0 200 l500 0 l0 -200 l-100 0 l0 -100 l100 0 l0 -100 l-100 0 l0 -100 l-100 0 l0 100 l-100 0 l0 -100 l-100 0 l0 -100 l400 0 l0 -100 l-200 0 l0 -100 l200 0 l0 -100 l-300 0 l0 100 l-100 0 l0 100 l-200 0 l0 -100 l-100 0 l0 -100 l-300 0 ZM0 300 l0 100 l100 0 l0 100 l100 0 l0 100 l-100 0 l0 100 l-100 0 l0 100 l200 0 l0 -100 l100 0 l0 100 l100 0 l0 -500 l-100 0 l0 100 l-100 0 l0 -100 l-200 0 ZM900 600 l0 100 l-100 0 l0 -100 l100 0 Z" /><glyph glyph-name="" unicode="&#x5973;" d="M0 -100 l0 100 l200 0 l0 100 l200 0 l0 100 l-300 0 l0 200 l100 0 l0 100 l-200 0 l0 100 l300 0 l0 300 l200 0 l0 -300 l500 0 l0 -100 l-200 0 l0 -200 l-100 0 l0 -200 l200 0 l0 -100 l100 0 l0 -100 l-200 0 l0 100 l-200 0 l0 100 l-100 0 l0 -100 l-200 0 l0 -100 l-300 0 ZM600 200 l0 300 l-200 0 l0 -100 l-100 0 l0 -100 l200 0 l0 -100 l100 0 Z" /><glyph glyph-name="" unicode="&#x597d;" d="M0 500 l0 100 l100 0 l0 200 l200 0 l0 -200 l200 0 l0 -300 l100 0 l0 200 l100 0 l0 100 l100 0 l0 100 l-400 0 l0 100 l600 0 l0 -200 l-100 0 l0 -100 l-100 0 l0 -200 l200 0 l0 -100 l-200 0 l0 -300 l-300 0 l0 100 l100 0 l0 200 l-100 0 l0 100 l-100 0 l0 -200 l100 0 l0 -100 l-100 0 l0 100 l-100 0 l0 -200 l-200 0 l0 200 l-100 0 l0 200 l100 0 l0 200 l-100 0 ZM300 200 l0 100 l100 0 l0 200 l-100 0 l0 -200 l-100 0 l0 -100 l100 0 Z" /><glyph glyph-name="" unicode="&#x5999;" d="M400 -100 l0 100 l200 0 l0 100 l200 0 l0 100 l200 0 l0 -100 l-100 0 l0 -100 l-200 0 l0 -100 l-300 0 ZM0 500 l0 100 l100 0 l0 200 l200 0 l0 -200 l300 0 l0 -100 l100 0 l0 100 l-100 0 l0 300 l200 0 l0 -700 l-300 0 l0 -100 l-200 0 l0 -200 l-200 0 l0 200 l-100 0 l0 200 l100 0 l0 200 l-100 0 ZM500 200 l0 100 l100 0 l0 200 l-100 0 l0 -200 l-100 0 l0 -100 l100 0 ZM300 200 l0 100 l100 0 l0 200 l-100 0 l0 -200 l-100 0 l0 -100 l100 0 ZM1000 600 l0 -200 l-100 0 l0 200 l100 0 Z" /><glyph glyph-name="" unicode="&#x59a8;" d="M0 500 l0 100 l100 0 l0 200 l200 0 l0 -200 l100 0 l0 100 l200 0 l0 200 l200 0 l0 -200 l200 0 l0 -100 l-300 0 l0 -200 l300 0 l0 -400 l-100 0 l0 -100 l-300 0 l0 100 l200 0 l0 300 l-100 0 l0 -100 l-100 0 l0 -200 l-200 0 l0 100 l-100 0 l0 -200 l-200 0 l0 200 l-100 0 l0 200 l100 0 l0 200 l-100 0 ZM500 200 l0 100 l100 0 l0 300 l-100 0 l0 -300 l-100 0 l0 -100 l100 0 ZM300 200 l0 100 l100 0 l0 200 l-100 0 l0 -200 l-100 0 l0 -100 l100 0 Z" /><glyph glyph-name="" unicode="&#x59cb;" d="M0 500 l0 100 l100 0 l0 200 l200 0 l0 -200 l100 0 l0 100 l100 0 l0 200 l200 0 l0 -200 l-100 0 l0 -100 l-100 0 l0 -100 l300 0 l0 200 l200 0 l0 -300 l-500 0 l0 -100 l500 0 l0 -400 l-600 0 l0 200 l100 0 l0 200 l-100 0 l0 -200 l-100 0 l0 -200 l-200 0 l0 200 l-100 0 l0 200 l100 0 l0 200 l-100 0 ZM600 0 l200 0 l0 200 l-200 0 l0 -200 ZM300 200 l0 100 l100 0 l0 200 l-100 0 l0 -200 l-100 0 l0 -100 l100 0 Z" /><glyph glyph-name="" unicode="&#x5a01;" d="M1000 -100 l-200 0 l0 100 l100 0 l0 100 l100 0 l0 -200 ZM700 -100 l-300 0 l0 100 l-100 0 l0 -100 l-300 0 l0 300 l100 0 l0 500 l400 0 l0 200 l200 0 l0 -200 l100 0 l0 100 l200 0 l0 -200 l-200 0 l0 -300 l100 0 l0 -200 l-100 0 l0 -100 l-100 0 l0 -100 ZM600 0 l0 100 l100 0 l0 100 l100 0 l0 100 l-100 0 l0 -100 l-100 0 l0 -100 l-100 0 l0 -100 l100 0 ZM300 0 l0 200 l-100 0 l0 -200 l100 0 ZM500 100 l0 100 l-100 0 l0 -100 l100 0 ZM900 300 l0 200 l100 0 l0 -200 l-100 0 ZM600 300 l0 100 l-100 0 l0 -100 l100 0 ZM400 300 l0 100 l-100 0 l0 -100 l100 0 ZM300 500 l300 0 l0 100 l-300 0 l0 -100 Z" /><glyph glyph-name="" unicode="&#x5a46;" d="M0 -100 l0 100 l200 0 l0 200 l-200 0 l0 100 l100 0 l0 100 l-100 0 l0 100 l200 0 l0 -100 l100 0 l0 -100 l100 0 l0 100 l-100 0 l0 200 l100 0 l0 100 l200 0 l0 200 l200 0 l0 -200 l200 0 l0 -200 l-100 0 l0 -100 l100 0 l0 -200 l-100 0 l0 -100 l-100 0 l0 -100 l200 0 l0 -100 l-300 0 l0 100 l-400 0 l0 -100 l-300 0 ZM0 700 l0 100 l200 0 l0 -100 l100 0 l0 -100 l-200 0 l0 100 l-100 0 ZM400 100 l300 0 l0 100 l-300 0 l0 -100 ZM600 300 l200 0 l0 100 l-200 0 l0 -100 ZM600 400 l0 200 l-100 0 l0 -200 l100 0 ZM900 500 l0 100 l-100 0 l0 -100 l100 0 Z" /><glyph glyph-name="" unicode="&#x5ac1;" d="M0 500 l0 100 l100 0 l0 200 l200 0 l0 -200 l100 0 l0 100 l200 0 l0 200 l200 0 l0 -200 l200 0 l0 -200 l-100 0 l0 -100 l100 0 l0 -200 l-100 0 l0 -200 l100 0 l0 -100 l-100 0 l0 100 l-100 0 l0 -100 l-300 0 l0 100 l-100 0 l0 100 l100 0 l0 200 l100 0 l0 -100 l100 0 l0 -100 l100 0 l0 100 l100 0 l0 100 l-100 0 l0 -100 l-100 0 l0 100 l100 0 l0 100 l-100 0 l0 -100 l-100 0 l0 100 l-100 0 l0 -100 l-100 0 l0 -200 l-100 0 l0 -200 l-200 0 l0 200 l-100 0 l0 200 l100 0 l0 200 l-100 0 ZM700 0 l0 100 l-100 0 l0 -100 l100 0 ZM300 200 l0 100 l100 0 l0 200 l-100 0 l0 -200 l-100 0 l0 -100 l100 0 ZM500 500 l300 0 l0 100 l-300 0 l0 -100 Z" /><glyph glyph-name="" unicode="&#x5acc;" d="M0 500 l0 100 l100 0 l0 200 l200 0 l0 -100 l300 0 l0 100 l100 0 l0 100 l200 0 l0 -100 l-100 0 l0 -100 l200 0 l0 -500 l-200 0 l0 -100 l100 0 l0 -100 l100 0 l0 -100 l-100 0 l0 100 l-100 0 l0 -100 l-100 0 l0 300 l-100 0 l0 -300 l-100 0 l0 100 l-100 0 l0 -100 l-300 0 l0 200 l-100 0 l0 200 l100 0 l0 200 l-100 0 ZM400 800 l0 100 l200 0 l0 -100 l-200 0 ZM400 0 l0 100 l100 0 l0 100 l-100 0 l0 -100 l-100 0 l0 -100 l100 0 ZM300 200 l0 100 l100 0 l0 100 l-100 0 l0 -100 l-100 0 l0 -100 l100 0 ZM900 300 l0 100 l-100 0 l0 -100 l100 0 ZM700 300 l0 100 l-100 0 l0 -100 l100 0 ZM900 500 l0 100 l-100 0 l0 -100 l100 0 ZM700 500 l0 100 l-100 0 l0 -100 l100 0 ZM400 500 l0 100 l-100 0 l0 -100 l100 0 Z" /><glyph glyph-name="" unicode="&#x5b50;" d="M300 -100 l0 100 l100 0 l0 300 l-400 0 l0 100 l400 0 l0 100 l100 0 l0 100 l100 0 l0 100 l-500 0 l0 100 l800 0 l0 -100 l-100 0 l0 -100 l-100 0 l0 -100 l-100 0 l0 -100 l400 0 l0 -100 l-400 0 l0 -400 l-300 0 Z" /><glyph glyph-name="" unicode="&#x5b54;" d="M100 -100 l0 100 l100 0 l0 200 l-200 0 l0 100 l200 0 l0 200 l100 0 l0 100 l100 0 l0 100 l-400 0 l0 100 l600 0 l0 -200 l100 0 l0 200 l100 0 l0 -800 l100 0 l0 200 l100 0 l0 -300 l-400 0 l0 300 l100 0 l0 100 l-100 0 l0 -100 l-200 0 l0 -300 l-300 0 ZM400 300 l200 0 l0 300 l-100 0 l0 -100 l-100 0 l0 -200 Z" /><glyph glyph-name="" unicode="&#x5b57;" d="M300 -100 l0 100 l100 0 l0 100 l-400 0 l0 100 l400 0 l0 100 l100 0 l0 100 l-300 0 l0 100 l600 0 l0 -100 l-100 0 l0 -100 l-100 0 l0 -100 l400 0 l0 -100 l-400 0 l0 -200 l-300 0 ZM1000 500 l-200 0 l0 100 l-600 0 l0 -100 l-200 0 l0 200 l400 0 l0 200 l200 0 l0 -200 l400 0 l0 -200 Z" /><glyph glyph-name="" unicode="&#x5b58;" d="M500 -100 l0 100 l100 0 l0 100 l-200 0 l0 100 l200 0 l0 100 l100 0 l0 100 l-200 0 l0 100 l400 0 l0 -200 l-100 0 l0 -100 l200 0 l0 -100 l-200 0 l0 -200 l-300 0 ZM0 200 l0 100 l100 0 l0 100 l100 0 l0 200 l-200 0 l0 100 l300 0 l0 200 l200 0 l0 -200 l500 0 l0 -100 l-600 0 l0 -200 l-100 0 l0 -500 l-200 0 l0 300 l-100 0 Z" /><glyph glyph-name="" unicode="&#x5b64;" d="M0 -100 l0 100 l100 0 l0 200 l-100 0 l0 100 l100 0 l0 200 l100 0 l0 100 l100 0 l0 100 l-300 0 l0 100 l1000 0 l0 -100 l-100 0 l0 -500 l100 0 l0 -300 l-200 0 l0 100 l-400 0 l0 -100 l-400 0 ZM400 0 l0 500 l-100 0 l0 -500 l100 0 ZM800 100 l0 600 l-100 0 l0 -600 l100 0 ZM600 100 l0 600 l-100 0 l0 -600 l100 0 Z" /><glyph glyph-name="" unicode="&#x5b66;" d="M300 -100 l0 100 l100 0 l0 100 l-400 0 l0 100 l400 0 l0 100 l100 0 l0 100 l-200 0 l0 100 l500 0 l0 -100 l-100 0 l0 -100 l-100 0 l0 -100 l400 0 l0 -100 l-400 0 l0 -200 l-300 0 ZM200 400 l-200 0 l0 300 l200 0 l0 100 l200 0 l0 -100 l100 0 l0 100 l-100 0 l0 100 l200 0 l0 -200 l100 0 l0 100 l100 0 l0 -100 l200 0 l0 -300 l-100 0 l0 100 l-100 0 l0 100 l-600 0 l0 -200 Z" /><glyph glyph-name="" unicode="&#x5b89;" d="M0 -100 l0 100 l200 0 l0 300 l-200 0 l0 100 l300 0 l0 100 l200 0 l0 -100 l500 0 l0 -100 l-200 0 l0 -200 l-100 0 l0 -100 l300 0 l0 -100 l-400 0 l0 100 l-300 0 l0 -100 l-300 0 ZM400 100 l200 0 l0 200 l-200 0 l0 -200 ZM1000 500 l-200 0 l0 100 l-600 0 l0 -100 l-200 0 l0 200 l400 0 l0 200 l200 0 l0 -200 l400 0 l0 -200 Z" /><glyph glyph-name="" unicode="&#x5b9a;" d="M0 -100 l0 100 l200 0 l0 300 l200 0 l0 -200 l100 0 l0 200 l-100 0 l0 100 l-300 0 l0 100 l-100 0 l0 200 l400 0 l0 200 l200 0 l0 -200 l400 0 l0 -200 l-100 0 l0 -100 l-300 0 l0 -100 l300 0 l0 -100 l-300 0 l0 -200 l400 0 l0 -100 l-500 0 l0 100 l-200 0 l0 -100 l-300 0 ZM200 500 l600 0 l0 100 l-600 0 l0 -100 Z" /><glyph glyph-name="" unicode="&#x5b9c;" d="M0 -100 l0 100 l200 0 l0 500 l600 0 l0 -500 l200 0 l0 -100 l-1000 0 ZM400 0 l200 0 l0 200 l-200 0 l0 -200 ZM400 300 l200 0 l0 100 l-200 0 l0 -100 ZM1000 500 l-200 0 l0 100 l-600 0 l0 -100 l-200 0 l0 200 l400 0 l0 200 l200 0 l0 -200 l400 0 l0 -200 Z" /><glyph glyph-name="" unicode="&#x5b9d;" d="M0 -100 l0 100 l400 0 l0 200 l-300 0 l0 100 l300 0 l0 100 l-300 0 l0 100 l-100 0 l0 200 l400 0 l0 200 l200 0 l0 -200 l400 0 l0 -200 l-100 0 l0 -100 l-300 0 l0 -100 l300 0 l0 -100 l-100 0 l0 -100 l100 0 l0 -100 l100 0 l0 -100 l-1000 0 ZM700 0 l0 200 l-100 0 l0 -200 l100 0 ZM200 500 l600 0 l0 100 l-600 0 l0 -100 Z" /><glyph glyph-name="" unicode="&#x5b9f;" d="M0 -100 l0 100 l200 0 l0 100 l100 0 l0 100 l-300 0 l0 100 l400 0 l0 100 l-300 0 l0 100 l-100 0 l0 200 l400 0 l0 200 l200 0 l0 -200 l400 0 l0 -200 l-100 0 l0 -100 l-300 0 l0 -100 l400 0 l0 -100 l-300 0 l0 -100 l100 0 l0 -100 l200 0 l0 -100 l-300 0 l0 100 l-100 0 l0 200 l-100 0 l0 -100 l-100 0 l0 -100 l-100 0 l0 -100 l-300 0 ZM600 500 l200 0 l0 100 l-200 0 l0 -100 ZM200 500 l200 0 l0 100 l-200 0 l0 -100 Z" /><glyph glyph-name="" unicode="&#x5ba2;" d="M0 100 l0 100 l300 0 l0 100 l100 0 l0 100 l100 0 l0 -100 l100 0 l0 300 l-100 0 l0 -100 l-100 0 l0 -100 l-100 0 l0 -100 l-200 0 l0 100 l-100 0 l0 300 l400 0 l0 200 l200 0 l0 -200 l400 0 l0 -300 l-100 0 l0 200 l-100 0 l0 -200 l-100 0 l0 -200 l300 0 l0 -100 l-200 0 l0 -200 l-600 0 l0 200 l-200 0 ZM400 0 l200 0 l0 200 l-200 0 l0 -200 ZM300 400 l0 200 l-100 0 l0 -200 l100 0 Z" /><glyph glyph-name="" unicode="&#x5bb3;" d="M0 200 l0 100 l400 0 l0 100 l-300 0 l0 100 l-100 0 l0 200 l400 0 l0 200 l200 0 l0 -200 l400 0 l0 -200 l-100 0 l0 -100 l-300 0 l0 -100 l400 0 l0 -100 l-200 0 l0 -300 l-600 0 l0 300 l-200 0 ZM400 0 l200 0 l0 200 l-200 0 l0 -200 ZM600 500 l200 0 l0 100 l-200 0 l0 -100 ZM200 500 l200 0 l0 100 l-200 0 l0 -100 Z" /><glyph glyph-name="" unicode="&#x5bb6;" d="M0 0 l0 100 l200 0 l0 100 l-200 0 l0 100 l200 0 l0 100 l-100 0 l0 100 l-100 0 l0 200 l400 0 l0 200 l200 0 l0 -200 l400 0 l0 -200 l-100 0 l0 -100 l100 0 l0 -100 l-100 0 l0 -100 l-100 0 l0 -100 l200 0 l0 -100 l-200 0 l0 100 l-100 0 l0 -100 l-100 0 l0 -100 l-300 0 l0 100 l200 0 l0 100 l100 0 l0 100 l-100 0 l0 -100 l-200 0 l0 -100 l-300 0 ZM800 200 l0 200 l-200 0 l0 -100 l100 0 l0 -100 l100 0 ZM400 200 l0 100 l100 0 l0 100 l-100 0 l0 -100 l-100 0 l0 -100 l100 0 ZM200 500 l600 0 l0 100 l-600 0 l0 -100 Z" /><glyph glyph-name="" unicode="&#x5bb9;" d="M0 0 l0 100 l100 0 l0 100 l100 0 l0 100 l-100 0 l0 100 l-100 0 l0 300 l400 0 l0 200 l200 0 l0 -200 l400 0 l0 -300 l-100 0 l0 -100 l-100 0 l0 -100 l100 0 l0 -100 l100 0 l0 -100 l-100 0 l0 100 l-100 0 l0 -200 l-600 0 l0 100 l100 0 l0 100 l-100 0 l0 -100 l-200 0 ZM400 0 l200 0 l0 100 l-200 0 l0 -100 ZM400 200 l200 0 l0 100 l-200 0 l0 -100 ZM800 300 l0 100 l100 0 l0 100 l-100 0 l0 -100 l-100 0 l0 -100 l100 0 ZM400 400 l200 0 l0 200 l-100 0 l0 -100 l-100 0 l0 -100 ZM400 300 l0 100 l-100 0 l0 -100 l100 0 ZM300 400 l0 200 l-100 0 l0 -200 l100 0 ZM800 500 l0 100 l-100 0 l0 -100 l100 0 Z" /><glyph glyph-name="" unicode="&#x5bbf;" d="M0 200 l0 100 l100 0 l0 100 l100 0 l0 100 l100 0 l0 100 l-100 0 l0 -100 l-200 0 l0 200 l400 0 l0 200 l200 0 l0 -200 l400 0 l0 -200 l-100 0 l0 100 l-100 0 l0 -100 l-100 0 l0 -100 l300 0 l0 -500 l-600 0 l0 500 l100 0 l0 100 l100 0 l0 100 l-200 0 l0 -200 l-100 0 l0 -500 l-200 0 l0 300 l-100 0 ZM500 0 l300 0 l0 100 l-300 0 l0 -100 ZM500 200 l300 0 l0 100 l-300 0 l0 -100 Z" /><glyph glyph-name="" unicode="&#x5bc4;" d="M0 300 l0 100 l200 0 l0 100 l100 0 l0 100 l-100 0 l0 -100 l-200 0 l0 200 l400 0 l0 200 l200 0 l0 -200 l400 0 l0 -200 l-200 0 l0 -100 l200 0 l0 -100 l-100 0 l0 -400 l-200 0 l0 400 l-700 0 ZM600 -100 l-500 0 l0 300 l500 0 l0 -300 ZM400 0 l0 100 l-100 0 l0 -100 l100 0 ZM400 400 l200 0 l0 200 l-100 0 l0 -100 l-100 0 l0 -100 ZM800 500 l0 100 l-100 0 l0 -100 l100 0 Z" /><glyph glyph-name="" unicode="&#x5bcc;" d="M900 -100 l-800 0 l0 500 l100 0 l0 100 l100 0 l0 100 l-100 0 l0 -100 l-200 0 l0 200 l400 0 l0 200 l200 0 l0 -200 l400 0 l0 -200 l-100 0 l0 100 l-100 0 l0 -200 l100 0 l0 -500 ZM700 0 l0 100 l-100 0 l0 -100 l100 0 ZM400 0 l0 100 l-100 0 l0 -100 l100 0 ZM700 200 l0 100 l-100 0 l0 -100 l100 0 ZM400 200 l0 100 l-100 0 l0 -100 l100 0 ZM400 400 l200 0 l0 200 l-200 0 l0 -200 Z" /><glyph glyph-name="" unicode="&#x5bd2;" d="M0 0 l0 100 l200 0 l0 100 l-200 0 l0 100 l300 0 l0 100 l-200 0 l0 100 l-100 0 l0 200 l400 0 l0 200 l200 0 l0 -200 l400 0 l0 -200 l-100 0 l0 -100 l-200 0 l0 -100 l300 0 l0 -100 l-100 0 l0 -100 l100 0 l0 -100 l-200 0 l0 -100 l-300 0 l0 100 l-100 0 l0 100 l100 0 l0 100 l-100 0 l0 -100 l-100 0 l0 -100 l-300 0 ZM600 0 l200 0 l0 200 l-100 0 l0 -100 l-100 0 l0 -100 ZM600 300 l0 100 l-100 0 l0 -100 l100 0 ZM800 500 l0 100 l-100 0 l0 -100 l100 0 ZM600 500 l0 100 l-100 0 l0 -100 l100 0 ZM300 500 l0 100 l-100 0 l0 -100 l100 0 Z" /><glyph glyph-name="" unicode="&#x5bdf;" d="M0 -100 l0 100 l100 0 l0 100 l-100 0 l0 100 l1000 0 l0 -100 l-100 0 l0 -100 l100 0 l0 -100 l-200 0 l0 100 l-100 0 l0 100 l-100 0 l0 -200 l-300 0 l0 100 l100 0 l0 100 l-100 0 l0 -100 l-100 0 l0 -100 l-200 0 ZM0 300 l0 100 l100 0 l0 100 l-100 0 l0 200 l400 0 l0 200 l200 0 l0 -200 l400 0 l0 -200 l-100 0 l0 100 l-100 0 l0 -200 l200 0 l0 -100 l-200 0 l0 100 l-100 0 l0 -100 l-200 0 l0 100 l100 0 l0 100 l100 0 l0 100 l-100 0 l0 -100 l-100 0 l0 -100 l-100 0 l0 -100 l-400 0 ZM400 400 l0 200 l-200 0 l0 -100 l100 0 l0 -100 l100 0 Z" /><glyph glyph-name="" unicode="&#x5be7;" d="M0 0 l0 100 l100 0 l0 200 l-100 0 l0 100 l100 0 l0 100 l-100 0 l0 200 l400 0 l0 200 l200 0 l0 -200 l400 0 l0 -200 l-100 0 l0 -100 l100 0 l0 -100 l-100 0 l0 -200 l100 0 l0 -100 l-400 0 l0 -100 l-200 0 l0 100 l-400 0 ZM800 100 l0 100 l-100 0 l0 -100 l100 0 ZM600 100 l0 100 l-100 0 l0 -100 l100 0 ZM400 100 l0 100 l-100 0 l0 -100 l100 0 ZM500 300 l300 0 l0 300 l-200 0 l0 -100 l100 0 l0 -100 l-100 0 l0 100 l-100 0 l0 -200 ZM300 300 l0 100 l100 0 l0 200 l-200 0 l0 -100 l100 0 l0 -100 l-100 0 l0 -100 l100 0 Z" /><glyph glyph-name="" unicode="&#x5be9;" d="M0 0 l0 100 l100 0 l0 100 l100 0 l0 100 l-200 0 l0 100 l400 0 l0 100 l100 0 l0 100 l-100 0 l0 -100 l-100 0 l0 100 l-100 0 l0 -100 l-200 0 l0 200 l400 0 l0 200 l200 0 l0 -200 l400 0 l0 -200 l-100 0 l0 100 l-100 0 l0 -100 l-100 0 l0 100 l-100 0 l0 -200 l400 0 l0 -100 l-200 0 l0 -100 l100 0 l0 -100 l100 0 l0 -100 l-100 0 l0 -100 l-800 0 l0 100 l-100 0 ZM700 0 l0 100 l-100 0 l0 -100 l100 0 ZM400 0 l0 100 l-100 0 l0 -100 l100 0 ZM700 200 l0 100 l-100 0 l0 -100 l100 0 ZM500 200 l0 100 l-100 0 l0 -100 l100 0 Z" /><glyph glyph-name="" unicode="&#x5bfe;" d="M700 -100 l0 100 l100 0 l0 200 l100 0 l0 100 l-100 0 l0 -100 l-200 0 l0 200 l100 0 l0 -100 l100 0 l0 200 l-200 0 l0 100 l200 0 l0 300 l200 0 l0 -1000 l-300 0 ZM0 -100 l0 100 l100 0 l0 100 l100 0 l0 200 l-100 0 l0 100 l200 0 l0 -100 l100 0 l0 -100 l100 0 l0 -100 l100 0 l0 -100 l-200 0 l0 100 l-100 0 l0 -100 l-100 0 l0 -100 l-200 0 ZM0 500 l0 100 l200 0 l0 200 l200 0 l0 -200 l100 0 l0 -300 l-100 0 l0 100 l-100 0 l0 100 l-300 0 Z" /><glyph glyph-name="" unicode="&#x5c01;" d="M700 -100 l0 100 l100 0 l0 200 l100 0 l0 100 l-100 0 l0 -100 l-100 0 l0 100 l100 0 l0 200 l-200 0 l0 -100 l100 0 l0 -100 l-100 0 l0 -100 l-200 0 l0 -200 l200 0 l0 -100 l-600 0 l0 100 l200 0 l0 200 l-200 0 l0 100 l200 0 l0 100 l-200 0 l0 100 l200 0 l0 100 l-200 0 l0 100 l200 0 l0 100 l200 0 l0 -100 l200 0 l0 -100 l200 0 l0 300 l200 0 l0 -1000 l-300 0 ZM500 300 l0 100 l-100 0 l0 -100 l100 0 ZM500 500 l0 100 l-100 0 l0 -100 l100 0 Z" /><glyph glyph-name="" unicode="&#x5c02;" d="M600 -100 l0 100 l100 0 l0 200 l-700 0 l0 100 l100 0 l0 300 l-100 0 l0 100 l400 0 l0 200 l200 0 l0 -200 l400 0 l0 -100 l-100 0 l0 -300 l100 0 l0 -100 l-100 0 l0 -300 l-300 0 ZM200 0 l0 100 l200 0 l0 -100 l100 0 l0 -100 l-200 0 l0 100 l-100 0 ZM700 300 l0 100 l-100 0 l0 -100 l100 0 ZM400 300 l0 100 l-100 0 l0 -100 l100 0 ZM700 500 l0 100 l-100 0 l0 -100 l100 0 ZM400 500 l0 100 l-100 0 l0 -100 l100 0 Z" /><glyph glyph-name="" unicode="&#x5c04;" d="M700 -100 l0 100 l100 0 l0 200 l100 0 l0 100 l-100 0 l0 -100 l-100 0 l0 100 l100 0 l0 200 l-200 0 l0 -100 l100 0 l0 -100 l-100 0 l0 -400 l-300 0 l0 100 l100 0 l0 100 l100 0 l0 100 l-100 0 l0 -100 l-100 0 l0 -100 l-100 0 l0 -100 l-200 0 l0 100 l100 0 l0 100 l100 0 l0 100 l-200 0 l0 500 l100 0 l0 100 l100 0 l0 100 l200 0 l0 -100 l-100 0 l0 -100 l300 0 l0 -100 l200 0 l0 300 l200 0 l0 -1000 l-300 0 ZM200 300 l200 0 l0 100 l-200 0 l0 -100 ZM200 500 l200 0 l0 100 l-200 0 l0 -100 Z" /><glyph glyph-name="" unicode="&#x5c06;" d="M0 100 l0 100 l100 0 l0 300 l-100 0 l0 100 l100 0 l0 200 l200 0 l0 -200 l100 0 l0 -100 l100 0 l0 -100 l-100 0 l0 100 l-100 0 l0 -200 l400 0 l0 100 l200 0 l0 -100 l100 0 l0 -100 l-100 0 l0 -300 l-200 0 l0 300 l-400 0 l0 -300 l-200 0 l0 200 l-100 0 ZM600 -100 l-200 0 l0 200 l100 0 l0 -100 l100 0 l0 -100 ZM700 500 l-200 0 l0 100 l-100 0 l0 200 l600 0 l0 -200 l-100 0 l0 -100 l-100 0 l0 200 l-200 0 l0 -100 l100 0 l0 -100 Z" /><glyph glyph-name="" unicode="&#x5c0a;" d="M200 0 l0 100 l200 0 l0 -100 l100 0 l0 -100 l-200 0 l0 100 l-100 0 ZM0 200 l0 100 l100 0 l0 300 l-100 0 l0 100 l200 0 l0 200 l200 0 l0 -200 l100 0 l0 100 l100 0 l0 100 l200 0 l0 -100 l-100 0 l0 -100 l300 0 l0 -100 l-100 0 l0 -300 l100 0 l0 -100 l-200 0 l0 -300 l-200 0 l0 300 l-600 0 ZM300 300 l400 0 l0 100 l-200 0 l0 100 l100 0 l0 100 l-100 0 l0 -100 l-100 0 l0 -100 l-100 0 l0 -100 ZM800 500 l0 100 l-100 0 l0 -100 l100 0 ZM400 500 l0 100 l-100 0 l0 -100 l100 0 Z" /><glyph glyph-name="" unicode="&#x5c0b;" d="M0 100 l0 100 l600 0 l0 200 l-100 0 l0 -100 l-500 0 l0 100 l200 0 l0 100 l-200 0 l0 100 l700 0 l0 100 l-600 0 l0 100 l800 0 l0 -200 l100 0 l0 -300 l-200 0 l0 -100 l200 0 l0 -100 l-200 0 l0 -200 l-200 0 l0 200 l-200 0 l0 -100 l100 0 l0 -100 l-200 0 l0 100 l-100 0 l0 100 l-200 0 ZM800 400 l0 100 l-100 0 l0 -100 l100 0 ZM500 400 l0 100 l-100 0 l0 -100 l100 0 Z" /><glyph glyph-name="" unicode="&#x5c0e;" d="M0 100 l0 100 l600 0 l0 100 l-300 0 l0 100 l100 0 l0 200 l-100 0 l0 -200 l-100 0 l0 -100 l-200 0 l0 100 l100 0 l0 100 l-100 0 l0 100 l300 0 l0 100 l300 0 l0 100 l100 0 l0 100 l200 0 l0 -100 l-100 0 l0 -100 l200 0 l0 -100 l-100 0 l0 -200 l100 0 l0 -100 l-200 0 l0 -100 l200 0 l0 -100 l-200 0 l0 -200 l-200 0 l0 200 l-200 0 l0 -100 l100 0 l0 -100 l-200 0 l0 100 l-100 0 l0 100 l-200 0 ZM0 700 l0 100 l300 0 l0 -100 l-300 0 ZM400 800 l0 100 l200 0 l0 -100 l-200 0 ZM700 400 l0 200 l-100 0 l0 -200 l100 0 Z" /><glyph glyph-name="" unicode="&#x5c0f;" d="M300 -100 l0 100 l100 0 l0 900 l200 0 l0 -1000 l-300 0 ZM1000 100 l-200 0 l0 300 l-100 0 l0 200 l200 0 l0 -200 l100 0 l0 -300 ZM200 100 l-200 0 l0 200 l100 0 l0 300 l200 0 l0 -300 l-100 0 l0 -200 Z" /><glyph glyph-name="" unicode="&#x5c11;" d="M100 -100 l0 100 l300 0 l0 100 l200 0 l0 100 l100 0 l0 100 l200 0 l0 -100 l-100 0 l0 -100 l-100 0 l0 -100 l-200 0 l0 -100 l-400 0 ZM300 200 l0 100 l100 0 l0 600 l200 0 l0 -700 l-300 0 ZM0 300 l0 100 l100 0 l0 200 l200 0 l0 -200 l-100 0 l0 -100 l-200 0 ZM700 500 l0 100 l200 0 l0 -100 l100 0 l0 -100 l-200 0 l0 100 l-100 0 Z" /><glyph glyph-name="" unicode="&#x5c31;" d="M0 600 l0 100 l200 0 l0 200 l200 0 l0 -200 l100 0 l0 -100 l100 0 l0 300 l200 0 l0 -300 l100 0 l0 200 l100 0 l0 -300 l-200 0 l0 -200 l100 0 l0 -300 l100 0 l0 -100 l-300 0 l0 200 l100 0 l0 200 l-100 0 l0 -200 l-100 0 l0 -200 l-100 0 l0 300 l100 0 l0 300 l-100 0 l0 -300 l-100 0 l0 -300 l-100 0 l0 200 l-100 0 l0 -200 l-200 0 l0 200 l200 0 l0 100 l-200 0 l0 300 l400 0 l0 100 l-400 0 ZM300 300 l0 100 l-100 0 l0 -100 l100 0 Z" /><glyph glyph-name="" unicode="&#x5c3b;" d="M100 -100 l0 100 l200 0 l0 100 l100 0 l0 200 l-200 0 l0 -200 l-200 0 l0 200 l100 0 l0 500 l900 0 l0 -300 l-400 0 l0 -100 l300 0 l0 -400 l100 0 l0 -100 l-300 0 l0 400 l-100 0 l0 -200 l-100 0 l0 -100 l-100 0 l0 -100 l-300 0 ZM400 400 l0 100 l-100 0 l0 -100 l100 0 ZM300 600 l500 0 l0 100 l-500 0 l0 -100 Z" /><glyph glyph-name="" unicode="&#x5c3d;" d="M300 0 l0 100 l300 0 l0 -100 l200 0 l0 -100 l-300 0 l0 100 l-200 0 ZM200 0 l-200 0 l0 200 l100 0 l0 600 l800 0 l0 -400 l-100 0 l0 -100 l100 0 l0 -100 l100 0 l0 -100 l-200 0 l0 100 l-100 0 l0 100 l-100 0 l0 -100 l-200 0 l0 200 l-100 0 l0 -200 l-100 0 l0 -200 ZM600 300 l0 100 l-100 0 l0 -100 l100 0 ZM300 500 l400 0 l0 200 l-400 0 l0 -200 Z" /><glyph glyph-name="" unicode="&#x5c48;" d="M1000 -100 l-800 0 l0 100 l100 0 l0 100 l100 0 l0 -100 l100 0 l0 200 l-100 0 l0 200 l100 0 l0 -100 l100 0 l0 100 l-100 0 l0 100 l-200 0 l0 -300 l-100 0 l0 -200 l-200 0 l0 200 l100 0 l0 600 l900 0 l0 -300 l-300 0 l0 -200 l100 0 l0 100 l200 0 l0 -200 l-300 0 l0 -200 l100 0 l0 100 l200 0 l0 -200 ZM300 600 l500 0 l0 100 l-500 0 l0 -100 Z" /><glyph glyph-name="" unicode="&#x5c4a;" d="M1000 -100 l-700 0 l0 300 l100 0 l0 200 l200 0 l0 100 l-300 0 l0 -300 l-100 0 l0 -200 l-200 0 l0 200 l100 0 l0 600 l900 0 l0 -300 l-200 0 l0 -100 l200 0 l0 -500 ZM900 0 l0 100 l-100 0 l0 -100 l100 0 ZM600 0 l0 100 l-100 0 l0 -100 l100 0 ZM900 200 l0 100 l-100 0 l0 -100 l100 0 ZM600 200 l0 100 l-100 0 l0 -100 l100 0 ZM300 600 l500 0 l0 100 l-500 0 l0 -100 Z" /><glyph glyph-name="" unicode="&#x5c4b;" d="M1000 -100 l-800 0 l0 100 l300 0 l0 100 l-200 0 l0 100 l200 0 l0 100 l-200 0 l0 -100 l-100 0 l0 -200 l-200 0 l0 200 l100 0 l0 600 l900 0 l0 -300 l-100 0 l0 -200 l100 0 l0 -100 l-100 0 l0 -100 l-200 0 l0 -100 l300 0 l0 -100 ZM800 200 l0 100 l-100 0 l0 -100 l100 0 ZM500 400 l200 0 l0 100 l-200 0 l0 -100 ZM400 400 l0 100 l-100 0 l0 -100 l100 0 ZM300 600 l500 0 l0 100 l-500 0 l0 -100 Z" /><glyph glyph-name="" unicode="&#x5c55;" d="M1000 -100 l-300 0 l0 100 l-100 0 l0 -100 l-400 0 l0 100 l100 0 l0 200 l100 0 l0 100 l-100 0 l0 -100 l-100 0 l0 -200 l-200 0 l0 200 l100 0 l0 600 l900 0 l0 -300 l-100 0 l0 -100 l100 0 l0 -100 l-100 0 l0 -100 l100 0 l0 -100 l-200 0 l0 -100 l200 0 l0 -100 ZM600 0 l0 100 l-100 0 l0 -100 l100 0 ZM700 200 l0 100 l-100 0 l0 -100 l100 0 ZM700 400 l0 100 l-100 0 l0 -100 l100 0 ZM400 400 l0 100 l-100 0 l0 -100 l100 0 ZM300 600 l500 0 l0 100 l-500 0 l0 -100 Z" /><glyph glyph-name="" unicode="&#x5c71;" d="M1000 -100 l-1000 0 l0 700 l200 0 l0 -600 l200 0 l0 900 l200 0 l0 -900 l200 0 l0 600 l200 0 l0 -700 Z" /><glyph glyph-name="" unicode="&#x5ca1;" d="M1000 -100 l-300 0 l0 100 l-400 0 l0 200 l100 0 l0 -100 l100 0 l0 100 l-100 0 l0 100 l-200 0 l0 -400 l-200 0 l0 900 l1000 0 l0 -900 ZM900 0 l0 200 l-100 0 l0 -200 l100 0 ZM700 100 l0 100 l100 0 l0 100 l-200 0 l0 -200 l100 0 ZM800 400 l0 100 l100 0 l0 100 l-100 0 l0 -100 l-100 0 l0 -100 l100 0 ZM600 400 l0 200 l200 0 l0 100 l-600 0 l0 -300 l100 0 l0 200 l100 0 l0 -100 l100 0 l0 -100 l100 0 Z" /><glyph glyph-name="" unicode="&#x5ca9;" d="M0 100 l0 100 l200 0 l0 100 l100 0 l0 100 l-300 0 l0 100 l1000 0 l0 -100 l-500 0 l0 -100 l400 0 l0 -400 l-700 0 l0 200 l-200 0 ZM400 0 l300 0 l0 200 l-300 0 l0 -200 ZM1000 600 l-1000 0 l0 200 l200 0 l0 -100 l200 0 l0 200 l200 0 l0 -200 l200 0 l0 100 l200 0 l0 -200 Z" /><glyph glyph-name="" unicode="&#x5d0e;" d="M1000 -100 l-300 0 l0 100 l-200 0 l0 300 l-100 0 l0 -300 l-400 0 l0 600 l200 0 l0 -500 l100 0 l0 500 l-100 0 l0 200 l200 0 l0 -100 l200 0 l0 200 l200 0 l0 -200 l200 0 l0 -100 l-100 0 l0 -100 l100 0 l0 -600 ZM900 0 l0 300 l-100 0 l0 -300 l100 0 ZM700 100 l0 200 l-100 0 l0 -200 l100 0 ZM600 400 l200 0 l0 200 l-100 0 l0 -100 l-100 0 l0 -100 ZM500 400 l0 200 l-100 0 l0 -200 l100 0 Z" /><glyph glyph-name="" unicode="&#x5dba;" d="M0 100 l0 100 l400 0 l0 100 l-400 0 l0 200 l100 0 l0 100 l-100 0 l0 200 l200 0 l0 -100 l200 0 l0 200 l200 0 l0 -200 l200 0 l0 100 l200 0 l0 -200 l-200 0 l0 -100 l200 0 l0 -400 l-100 0 l0 -100 l100 0 l0 -100 l-200 0 l0 200 l-100 0 l0 -100 l-100 0 l0 -100 l-200 0 l0 200 l-100 0 l0 -200 l-200 0 l0 200 l-100 0 ZM600 0 l0 100 l-100 0 l0 -100 l100 0 ZM600 200 l200 0 l0 200 l-200 0 l0 -200 ZM200 400 l200 0 l0 200 l-100 0 l0 -100 l-100 0 l0 -100 ZM600 500 l0 100 l-100 0 l0 -100 l100 0 Z" /><glyph glyph-name="" unicode="&#x5de1;" d="M0 300 l0 100 l300 0 l0 -300 l100 0 l0 -100 l600 0 l0 -100 l-700 0 l0 200 l-100 0 l0 -200 l-200 0 l0 200 l100 0 l0 200 l-100 0 ZM0 700 l0 100 l200 0 l0 -100 l100 0 l0 -100 l100 0 l0 200 l200 0 l0 -200 l100 0 l0 -200 l100 0 l0 -200 l-100 0 l0 200 l-100 0 l0 -200 l-200 0 l0 200 l-100 0 l0 200 l-200 0 l0 100 l-100 0 ZM1000 400 l0 -200 l-100 0 l0 200 l100 0 ZM900 400 l-100 0 l0 200 l100 0 l0 -200 ZM600 400 l0 200 l-100 0 l0 -200 l100 0 ZM900 600 l0 200 l100 0 l0 -200 l-100 0 ZM800 600 l-100 0 l0 200 l100 0 l0 -200 Z" /><glyph glyph-name="" unicode="&#x5de6;" d="M0 600 l0 100 l300 0 l0 200 l200 0 l0 -200 l500 0 l0 -100 l-600 0 l0 -200 l600 0 l0 -100 l-300 0 l0 -300 l300 0 l0 -100 l-800 0 l0 100 l300 0 l0 300 l-100 0 l0 100 l-100 0 l0 -200 l-100 0 l0 -200 l-200 0 l0 200 l100 0 l0 200 l100 0 l0 200 l-200 0 Z" /><glyph glyph-name="" unicode="&#x5dee;" d="M0 0 l0 100 l200 0 l0 100 l-200 0 l0 100 l400 0 l0 100 l-300 0 l0 100 l300 0 l0 100 l-400 0 l0 100 l300 0 l0 200 l200 0 l0 -200 l100 0 l0 100 l100 0 l0 100 l200 0 l0 -100 l-100 0 l0 -100 l200 0 l0 -100 l-400 0 l0 -100 l300 0 l0 -100 l-300 0 l0 -100 l400 0 l0 -100 l-300 0 l0 -200 l300 0 l0 -100 l-800 0 l0 100 l-200 0 ZM300 0 l200 0 l0 200 l-100 0 l0 -100 l-100 0 l0 -100 Z" /><glyph glyph-name="" unicode="&#x5df1;" d="M100 700 l0 100 l800 0 l0 -400 l-600 0 l0 -400 l500 0 l0 200 l200 0 l0 -300 l-900 0 l0 600 l600 0 l0 200 l-600 0 Z" /><glyph glyph-name="" unicode="&#x5dfb;" d="M0 100 l0 100 l100 0 l0 100 l-100 0 l0 100 l300 0 l0 100 l-300 0 l0 100 l200 0 l0 200 l200 0 l0 -200 l100 0 l0 200 l-100 0 l0 100 l200 0 l0 -300 l100 0 l0 200 l200 0 l0 -100 l-100 0 l0 -100 l200 0 l0 -100 l-200 0 l0 -100 l200 0 l0 -100 l-100 0 l0 -100 l100 0 l0 -100 l-100 0 l0 -200 l-700 0 l0 200 l100 0 l0 100 l200 0 l0 100 l-200 0 l0 -100 l-100 0 l0 -100 l-200 0 ZM400 0 l300 0 l0 100 l100 0 l0 200 l-100 0 l0 -200 l-300 0 l0 -100 ZM600 400 l0 100 l-100 0 l0 -100 l100 0 Z" /><glyph glyph-name="" unicode="&#x5dfe;" d="M700 100 l0 100 l100 0 l0 400 l-200 0 l0 -700 l-200 0 l0 700 l-200 0 l0 -500 l-200 0 l0 600 l400 0 l0 200 l200 0 l0 -200 l400 0 l0 -600 l-300 0 Z" /><glyph glyph-name="" unicode="&#x5e0c;" d="M0 0 l0 100 l100 0 l0 100 l100 0 l0 100 l100 0 l0 100 l-300 0 l0 100 l200 0 l0 100 l100 0 l0 100 l-200 0 l0 100 l300 0 l0 -100 l200 0 l0 100 l300 0 l0 -100 l-200 0 l0 -100 l100 0 l0 -100 l200 0 l0 -100 l-300 0 l0 -100 l300 0 l0 -300 l-200 0 l0 200 l-100 0 l0 -300 l-200 0 l0 300 l-100 0 l0 -200 l-100 0 l0 100 l-100 0 l0 -100 l-200 0 ZM600 300 l0 100 l-100 0 l0 -100 l100 0 ZM400 500 l200 0 l0 100 l-200 0 l0 -100 Z" /><glyph glyph-name="" unicode="&#x5e2b;" d="M800 -100 l-200 0 l0 100 l100 0 l0 500 l-100 0 l0 -500 l-100 0 l0 300 l-100 0 l0 -400 l-400 0 l0 900 l100 0 l0 100 l200 0 l0 -100 l700 0 l0 -100 l-200 0 l0 -100 l200 0 l0 -600 l-200 0 l0 -100 ZM300 0 l0 200 l-100 0 l0 -200 l100 0 ZM900 100 l0 400 l-100 0 l0 -400 l100 0 ZM200 300 l200 0 l0 100 l100 0 l0 200 l100 0 l0 100 l-200 0 l0 -300 l-200 0 l0 -100 ZM300 500 l0 100 l-100 0 l0 -100 l100 0 ZM300 700 l0 100 l-100 0 l0 -100 l100 0 Z" /><glyph glyph-name="" unicode="&#x5e2d;" d="M1000 -100 l-200 0 l0 300 l-100 0 l0 -300 l-100 0 l0 300 l-100 0 l0 -300 l-200 0 l0 300 l100 0 l0 200 l-100 0 l0 -200 l-100 0 l0 -200 l-200 0 l0 200 l100 0 l0 500 l400 0 l0 200 l200 0 l0 -200 l300 0 l0 -100 l-100 0 l0 -100 l100 0 l0 -100 l-100 0 l0 -100 l100 0 l0 -400 ZM700 300 l0 100 l-100 0 l0 -100 l100 0 ZM700 500 l0 100 l-100 0 l0 -100 l100 0 ZM400 500 l0 100 l-100 0 l0 -100 l100 0 Z" /><glyph glyph-name="" unicode="&#x5e30;" d="M500 500 l0 100 l300 0 l0 100 l-300 0 l0 100 l500 0 l0 -300 l-500 0 ZM800 -100 l-200 0 l0 200 l-100 0 l0 -200 l-100 0 l0 200 l-100 0 l0 -200 l-200 0 l0 200 l100 0 l0 200 l100 0 l0 400 l-100 0 l0 -400 l-200 0 l0 400 l200 0 l0 100 l200 0 l0 -400 l600 0 l0 -500 l-100 0 l0 200 l-100 0 l0 -200 ZM400 200 l200 0 l0 100 l-200 0 l0 -100 ZM900 200 l0 100 l-100 0 l0 -100 l100 0 Z" /><glyph glyph-name="" unicode="&#x5e38;" d="M900 -100 l-200 0 l0 300 l-100 0 l0 -300 l-200 0 l0 300 l-100 0 l0 -300 l-200 0 l0 400 l300 0 l0 100 l-100 0 l0 200 l-100 0 l0 -200 l-200 0 l0 300 l200 0 l0 100 l200 0 l0 -100 l100 0 l0 100 l-100 0 l0 100 l200 0 l0 -200 l100 0 l0 100 l100 0 l0 -100 l200 0 l0 -300 l-100 0 l0 200 l-100 0 l0 -200 l-200 0 l0 -100 l300 0 l0 -400 ZM400 500 l200 0 l0 100 l-200 0 l0 -100 Z" /><glyph glyph-name="" unicode="&#x5e72;" d="M0 300 l0 100 l400 0 l0 300 l-300 0 l0 100 l800 0 l0 -100 l-300 0 l0 -300 l400 0 l0 -100 l-400 0 l0 -400 l-200 0 l0 400 l-400 0 Z" /><glyph glyph-name="" unicode="&#x5e73;" d="M0 100 l0 100 l400 0 l0 200 l100 0 l0 100 l-100 0 l0 -100 l-200 0 l0 100 l-100 0 l0 100 l200 0 l0 -100 l100 0 l0 200 l-400 0 l0 100 l1000 0 l0 -100 l-400 0 l0 -500 l400 0 l0 -100 l-400 0 l0 -200 l-200 0 l0 200 l-400 0 ZM800 500 l0 -100 l-100 0 l0 200 l200 0 l0 -100 l-100 0 Z" /><glyph glyph-name="" unicode="&#x5e74;" d="M0 100 l0 100 l200 0 l0 200 l100 0 l0 100 l200 0 l0 100 l-200 0 l0 -100 l-100 0 l0 -100 l-200 0 l0 100 l100 0 l0 100 l100 0 l0 300 l200 0 l0 -200 l600 0 l0 -100 l-300 0 l0 -100 l200 0 l0 -100 l-200 0 l0 -200 l300 0 l0 -100 l-300 0 l0 -200 l-200 0 l0 200 l-500 0 ZM500 200 l0 200 l-100 0 l0 -200 l100 0 Z" /><glyph glyph-name="" unicode="&#x5e78;" d="M100 0 l0 100 l300 0 l0 100 l-400 0 l0 100 l200 0 l0 100 l-200 0 l0 100 l400 0 l0 100 l-300 0 l0 100 l300 0 l0 200 l200 0 l0 -200 l300 0 l0 -100 l-300 0 l0 -100 l400 0 l0 -100 l-200 0 l0 -100 l200 0 l0 -100 l-400 0 l0 -100 l300 0 l0 -100 l-300 0 l0 -100 l-200 0 l0 100 l-300 0 ZM400 300 l200 0 l0 100 l-200 0 l0 -100 Z" /><glyph glyph-name="" unicode="&#x5e7c;" d="M600 -100 l0 100 l200 0 l0 500 l-100 0 l0 -300 l-100 0 l0 -100 l-100 0 l0 -200 l-500 0 l0 200 l100 0 l0 100 l100 0 l0 200 l-100 0 l0 100 l-100 0 l0 100 l100 0 l0 100 l100 0 l0 100 l200 0 l0 -100 l-100 0 l0 -100 l-100 0 l0 -100 l100 0 l0 -100 l100 0 l0 -200 l100 0 l0 200 l100 0 l0 100 l-100 0 l0 -100 l-100 0 l0 200 l100 0 l0 300 l200 0 l0 -300 l300 0 l0 -600 l-100 0 l0 -100 l-300 0 ZM300 0 l0 100 l100 0 l0 100 l-100 0 l0 -100 l-100 0 l0 -100 l100 0 Z" /><glyph glyph-name="" unicode="&#x5e7e;" d="M0 -100 l0 100 l100 0 l0 200 l-100 0 l0 200 l100 0 l0 100 l-100 0 l0 200 l100 0 l0 100 l200 0 l0 -100 l-100 0 l0 -100 l200 0 l0 -100 l100 0 l0 100 l-100 0 l0 300 l200 0 l0 -600 l100 0 l0 500 l200 0 l0 -100 l-100 0 l0 -100 l200 0 l0 -100 l-100 0 l0 -100 l100 0 l0 -200 l-100 0 l0 -100 l-100 0 l0 -100 l200 0 l0 -100 l-300 0 l0 100 l-100 0 l0 -100 l-300 0 l0 100 l-100 0 l0 -100 l-200 0 ZM500 0 l0 100 l-100 0 l0 -100 l100 0 ZM700 100 l0 100 l-100 0 l0 -100 l100 0 ZM400 100 l0 100 l-100 0 l0 -100 l100 0 ZM900 300 l0 100 l-100 0 l0 -100 l100 0 ZM500 300 l0 100 l-100 0 l0 -100 l100 0 ZM300 300 l0 100 l100 0 l0 100 l-100 0 l0 -100 l-100 0 l0 -100 l100 0 Z" /><glyph glyph-name="" unicode="&#x5e83;" d="M1000 -100 l-200 0 l0 100 l100 0 l0 100 l100 0 l0 -200 ZM700 -100 l-400 0 l0 300 l100 0 l0 200 l100 0 l0 200 l-200 0 l0 -400 l-100 0 l0 -300 l-200 0 l0 300 l100 0 l0 500 l300 0 l0 200 l200 0 l0 -200 l400 0 l0 -100 l-300 0 l0 -200 l-100 0 l0 -200 l-100 0 l0 -100 l-100 0 l0 -100 l200 0 l0 100 l100 0 l0 200 l200 0 l0 -200 l-100 0 l0 -100 l-100 0 l0 -100 Z" /><glyph glyph-name="" unicode="&#x5e8a;" d="M100 -100 l0 100 l200 0 l0 100 l100 0 l0 100 l100 0 l0 100 l-300 0 l0 -200 l-200 0 l0 200 l100 0 l0 400 l400 0 l0 200 l200 0 l0 -200 l300 0 l0 -100 l-300 0 l0 -200 l300 0 l0 -100 l-300 0 l0 -100 l100 0 l0 -100 l100 0 l0 -100 l100 0 l0 -100 l-200 0 l0 200 l-100 0 l0 -200 l-200 0 l0 100 l100 0 l0 100 l-100 0 l0 -100 l-100 0 l0 -100 l-300 0 ZM300 400 l200 0 l0 200 l-200 0 l0 -200 Z" /><glyph glyph-name="" unicode="&#x5e8f;" d="M500 -100 l0 100 l100 0 l0 100 l-300 0 l0 100 l300 0 l0 100 l100 0 l0 100 l-300 0 l0 100 l600 0 l0 -100 l-100 0 l0 -100 l-100 0 l0 -100 l200 0 l0 -100 l-200 0 l0 -200 l-300 0 ZM200 0 l-200 0 l0 200 l100 0 l0 500 l400 0 l0 200 l200 0 l0 -200 l300 0 l0 -100 l-700 0 l0 -400 l-100 0 l0 -200 Z" /><glyph glyph-name="" unicode="&#x5e95;" d="M1000 -100 l-800 0 l0 100 l100 0 l0 200 l100 0 l0 300 l600 0 l0 -100 l-200 0 l0 -100 l200 0 l0 -100 l-100 0 l0 -100 l100 0 l0 -200 ZM500 0 l300 0 l0 100 l-100 0 l0 100 l-200 0 l0 -200 ZM200 0 l-200 0 l0 200 l100 0 l0 500 l400 0 l0 200 l200 0 l0 -200 l300 0 l0 -100 l-700 0 l0 -400 l-100 0 l0 -200 ZM600 300 l0 100 l-100 0 l0 -100 l100 0 Z" /><glyph glyph-name="" unicode="&#x5e9c;" d="M600 -100 l0 100 l100 0 l0 100 l100 0 l0 100 l-100 0 l0 -100 l-200 0 l0 200 l100 0 l0 -100 l100 0 l0 200 l-300 0 l0 -500 l-200 0 l0 100 l100 0 l0 300 l-100 0 l0 -300 l-200 0 l0 700 l400 0 l0 200 l200 0 l0 -200 l400 0 l0 -100 l-100 0 l0 -100 l100 0 l0 -100 l-100 0 l0 -500 l-300 0 ZM500 500 l200 0 l0 100 l-200 0 l0 -100 ZM300 400 l0 200 l-100 0 l0 -200 l100 0 Z" /><glyph glyph-name="" unicode="&#x5ea6;" d="M100 -100 l0 100 l300 0 l0 100 l-100 0 l0 200 l100 0 l0 100 l-100 0 l0 -100 l-100 0 l0 -200 l-200 0 l0 200 l100 0 l0 400 l400 0 l0 200 l200 0 l0 -200 l300 0 l0 -100 l-100 0 l0 -100 l100 0 l0 -100 l-100 0 l0 -300 l-100 0 l0 -100 l200 0 l0 -100 l-300 0 l0 100 l-200 0 l0 -100 l-400 0 ZM500 100 l200 0 l0 100 l-200 0 l0 -100 ZM700 300 l0 100 l-100 0 l0 -100 l100 0 ZM700 500 l0 100 l-100 0 l0 -100 l100 0 ZM400 500 l0 100 l-100 0 l0 -100 l100 0 Z" /><glyph glyph-name="" unicode="&#x5ea7;" d="M1000 -100 l-800 0 l0 100 l300 0 l0 100 l-200 0 l0 100 l200 0 l0 200 l100 0 l0 -100 l100 0 l0 -100 l300 0 l0 -100 l-300 0 l0 -100 l300 0 l0 -100 ZM200 0 l-200 0 l0 200 l100 0 l0 500 l400 0 l0 200 l200 0 l0 -200 l300 0 l0 -100 l-100 0 l0 -200 l100 0 l0 -100 l-100 0 l0 100 l-100 0 l0 -100 l-100 0 l0 300 l-200 0 l0 -200 l-100 0 l0 -100 l-100 0 l0 -100 l-100 0 l0 -200 ZM400 400 l0 200 l-100 0 l0 -200 l100 0 Z" /><glyph glyph-name="" unicode="&#x5efa;" d="M500 200 l0 100 l100 0 l0 100 l-200 0 l0 -200 l-100 0 l0 -100 l200 0 l0 -100 l500 0 l0 -100 l-600 0 l0 100 l-100 0 l0 100 l-100 0 l0 -200 l-200 0 l0 200 l100 0 l0 100 l-100 0 l0 100 l200 0 l0 -100 l100 0 l0 100 l-100 0 l0 100 l-200 0 l0 100 l100 0 l0 100 l100 0 l0 100 l-200 0 l0 100 l400 0 l0 -200 l-100 0 l0 -100 l300 0 l0 100 l-100 0 l0 100 l100 0 l0 200 l200 0 l0 -200 l200 0 l0 -500 l-200 0 l0 -100 l-200 0 l0 100 l-100 0 ZM900 300 l0 100 l-100 0 l0 -100 l100 0 ZM900 500 l0 100 l-100 0 l0 -100 l100 0 Z" /><glyph glyph-name="" unicode="&#x5efb;" d="M0 200 l0 100 l200 0 l0 -100 l100 0 l0 -100 l100 0 l0 -100 l600 0 l0 -100 l-700 0 l0 200 l-100 0 l0 -200 l-200 0 l0 200 l100 0 l0 100 l-100 0 ZM0 400 l0 100 l100 0 l0 100 l100 0 l0 100 l-200 0 l0 100 l400 0 l0 -200 l100 0 l0 200 l500 0 l0 -700 l-600 0 l0 100 l100 0 l0 300 l-100 0 l0 -300 l-100 0 l0 100 l-100 0 l0 100 l-200 0 ZM600 200 l200 0 l0 100 l100 0 l0 300 l-100 0 l0 -300 l-200 0 l0 -100 ZM700 400 l0 100 l-100 0 l0 -100 l100 0 ZM600 600 l200 0 l0 100 l-200 0 l0 -100 ZM400 500 l0 100 l-100 0 l0 -100 l100 0 Z" /><glyph glyph-name="" unicode="&#x5f01;" d="M100 -100 l0 100 l100 0 l0 100 l100 0 l0 100 l-300 0 l0 100 l300 0 l0 200 l-300 0 l0 100 l200 0 l0 100 l100 0 l0 200 l200 0 l0 -200 l-100 0 l0 -100 l300 0 l0 100 l-100 0 l0 100 l200 0 l0 -100 l100 0 l0 -100 l100 0 l0 -100 l-200 0 l0 -200 l200 0 l0 -100 l-200 0 l0 -300 l-200 0 l0 300 l-100 0 l0 -100 l-100 0 l0 -100 l-100 0 l0 -100 l-200 0 ZM600 300 l0 200 l-100 0 l0 -200 l100 0 Z" /><glyph glyph-name="" unicode="&#x5f0a;" d="M0 0 l0 100 l300 0 l0 200 l-100 0 l0 -100 l-200 0 l0 400 l200 0 l0 100 l100 0 l0 100 l-100 0 l0 -100 l-200 0 l0 100 l200 0 l0 100 l200 0 l0 -100 l100 0 l0 -100 l100 0 l0 100 l-100 0 l0 100 l200 0 l0 -200 l300 0 l0 -300 l-100 0 l0 -100 l100 0 l0 -100 l-200 0 l0 -100 l200 0 l0 -100 l-200 0 l0 -100 l-200 0 l0 100 l-200 0 l0 -100 l-200 0 l0 100 l-200 0 ZM600 100 l0 100 l-100 0 l0 -100 l100 0 ZM800 200 l0 100 l-100 0 l0 -100 l100 0 ZM500 200 l0 100 l-100 0 l0 -100 l100 0 ZM700 300 l0 200 l100 0 l0 -100 l100 0 l0 100 l-100 0 l0 100 l-100 0 l0 -100 l-100 0 l0 -200 l100 0 ZM500 400 l0 100 l-100 0 l0 -100 l100 0 ZM300 400 l0 100 l-100 0 l0 -100 l100 0 ZM500 600 l0 100 l-100 0 l0 -100 l100 0 Z" /><glyph glyph-name="" unicode="&#x5f0f;" d="M0 -100 l0 100 l200 0 l0 300 l-200 0 l0 100 l600 0 l0 -100 l-200 0 l0 -200 l300 0 l0 -100 l-400 0 l0 -100 l-300 0 ZM0 600 l0 100 l500 0 l0 200 l200 0 l0 -200 l100 0 l0 200 l100 0 l0 -100 l100 0 l0 -200 l-200 0 l0 -300 l100 0 l0 -200 l100 0 l0 -200 l-200 0 l0 200 l-100 0 l0 300 l-100 0 l0 200 l-600 0 Z" /><glyph glyph-name="" unicode="&#x5f15;" d="M100 -100 l0 100 l200 0 l0 200 l-300 0 l0 300 l300 0 l0 200 l-300 0 l0 100 l500 0 l0 -400 l-300 0 l0 -100 l300 0 l0 -300 l-100 0 l0 -100 l-300 0 ZM900 -100 l-200 0 l0 900 l200 0 l0 -900 Z" /><glyph glyph-name="" unicode="&#x5f1f;" d="M700 -100 l0 100 l100 0 l0 100 l-200 0 l0 -200 l-200 0 l0 100 l100 0 l0 100 l-100 0 l0 -100 l-100 0 l0 -100 l-300 0 l0 100 l200 0 l0 100 l-100 0 l0 300 l300 0 l0 100 l-300 0 l0 100 l300 0 l0 100 l100 0 l0 100 l100 0 l0 100 l200 0 l0 -100 l-100 0 l0 -100 l-100 0 l0 -100 l300 0 l0 -300 l-300 0 l0 -100 l400 0 l0 -200 l-100 0 l0 -100 l-200 0 ZM400 200 l0 100 l-100 0 l0 -100 l100 0 ZM700 400 l0 100 l-100 0 l0 -100 l100 0 ZM400 700 l-200 0 l0 200 l200 0 l0 -200 Z" /><glyph glyph-name="" unicode="&#x5f31;" d="M0 0 l0 100 l100 0 l0 100 l-100 0 l0 400 l300 0 l0 100 l-300 0 l0 100 l500 0 l0 -300 l100 0 l0 100 l200 0 l0 100 l-200 0 l0 100 l400 0 l0 -300 l-300 0 l0 -100 l300 0 l0 -500 l-300 0 l0 100 l100 0 l0 100 l100 0 l0 100 l-100 0 l0 -100 l-100 0 l0 -100 l-100 0 l0 400 l-100 0 l0 -500 l-300 0 l0 100 l100 0 l0 100 l100 0 l0 100 l-100 0 l0 -100 l-100 0 l0 -100 l-200 0 ZM800 200 l0 100 l-100 0 l0 -100 l100 0 ZM300 200 l0 100 l-100 0 l0 -100 l100 0 ZM200 400 l300 0 l0 100 l-300 0 l0 -100 Z" /><glyph glyph-name="" unicode="&#x5f35;" d="M0 -100 l0 100 l200 0 l0 200 l-200 0 l0 400 l200 0 l0 100 l-200 0 l0 100 l400 0 l0 -300 l100 0 l0 300 l500 0 l0 -100 l-400 0 l0 -100 l400 0 l0 -100 l-400 0 l0 -100 l400 0 l0 -100 l-200 0 l0 -200 l100 0 l0 -100 l100 0 l0 -100 l-200 0 l0 100 l-100 0 l0 -100 l-300 0 l0 100 l100 0 l0 300 l-100 0 l0 -300 l-100 0 l0 -100 l-300 0 ZM700 0 l0 300 l-100 0 l0 -300 l100 0 ZM900 100 l0 100 l100 0 l0 -100 l-100 0 ZM300 300 l0 100 l100 0 l0 100 l-200 0 l0 -200 l100 0 Z" /><glyph glyph-name="" unicode="&#x5f37;" d="M0 -100 l0 100 l200 0 l0 200 l-200 0 l0 400 l200 0 l0 100 l-200 0 l0 100 l400 0 l0 -300 l200 0 l0 100 l-100 0 l0 200 l100 0 l0 100 l200 0 l0 -100 l200 0 l0 -200 l-200 0 l0 -100 l200 0 l0 -300 l-200 0 l0 -200 l100 0 l0 100 l100 0 l0 -200 l-600 0 l0 100 l200 0 l0 200 l-100 0 l0 100 l-100 0 l0 -300 l-100 0 l0 -100 l-300 0 ZM200 300 l200 0 l0 200 l-200 0 l0 -200 ZM900 300 l0 100 l-100 0 l0 -100 l100 0 ZM700 300 l0 100 l-100 0 l0 -100 l100 0 ZM800 700 l0 100 l-100 0 l0 -100 l100 0 Z" /><glyph glyph-name="" unicode="&#x5f53;" d="M100 -100 l0 100 l700 0 l0 100 l-700 0 l0 100 l700 0 l0 100 l-700 0 l0 100 l300 0 l0 100 l100 0 l0 100 l-100 0 l0 -100 l-200 0 l0 100 l-100 0 l0 100 l200 0 l0 -100 l100 0 l0 300 l200 0 l0 -500 l400 0 l0 -500 l-900 0 ZM700 500 l0 100 l100 0 l0 100 l200 0 l0 -100 l-100 0 l0 -100 l-200 0 Z" /><glyph glyph-name="" unicode="&#x5f71;" d="M800 -100 l-200 0 l0 200 l100 0 l0 -100 l100 0 l0 -100 ZM500 -100 l-200 0 l0 200 l-100 0 l0 -200 l-200 0 l0 200 l100 0 l0 200 l-100 0 l0 500 l600 0 l0 -700 l-100 0 l0 -200 ZM800 0 l0 200 l200 0 l0 -100 l-100 0 l0 -100 l-100 0 ZM800 200 l-100 0 l0 200 l100 0 l0 100 l200 0 l0 -100 l-100 0 l0 -100 l-100 0 l0 -100 ZM400 200 l0 100 l-100 0 l0 -100 l100 0 ZM200 400 l200 0 l0 100 l-200 0 l0 -100 ZM800 500 l-100 0 l0 200 l100 0 l0 100 l200 0 l0 -100 l-100 0 l0 -100 l-100 0 l0 -100 ZM200 600 l200 0 l0 100 l-200 0 l0 -100 Z" /><glyph glyph-name="" unicode="&#x5f7c;" d="M400 -100 l0 100 l200 0 l0 300 l-100 0 l0 -200 l-100 0 l0 300 l-100 0 l0 -500 l-200 0 l0 300 l-100 0 l0 100 l100 0 l0 100 l100 0 l0 100 l100 0 l0 200 l300 0 l0 200 l200 0 l0 -200 l200 0 l0 -200 l-100 0 l0 100 l-100 0 l0 -200 l200 0 l0 -300 l-100 0 l0 -100 l100 0 l0 -100 l-200 0 l0 100 l-100 0 l0 -100 l-300 0 ZM0 600 l0 100 l100 0 l0 100 l200 0 l0 -100 l-100 0 l0 -100 l-200 0 ZM800 100 l0 200 l-100 0 l0 -200 l100 0 ZM600 400 l0 200 l-100 0 l0 -200 l100 0 Z" /><glyph glyph-name="" unicode="&#x5f84;" d="M400 -100 l0 100 l200 0 l0 100 l-200 0 l0 100 l200 0 l0 100 l100 0 l0 100 l-100 0 l0 -100 l-200 0 l0 100 l100 0 l0 100 l-100 0 l0 100 l200 0 l0 -100 l100 0 l0 100 l100 0 l0 100 l-400 0 l0 100 l600 0 l0 -200 l-100 0 l0 -100 l-100 0 l0 -100 l200 0 l0 -100 l-200 0 l0 -100 l200 0 l0 -100 l-200 0 l0 -100 l200 0 l0 -100 l-600 0 ZM0 200 l0 100 l100 0 l0 100 l200 0 l0 -500 l-200 0 l0 300 l-100 0 ZM0 600 l0 100 l100 0 l0 100 l200 0 l0 -100 l-100 0 l0 -100 l-200 0 Z" /><glyph glyph-name="" unicode="&#x5f85;" d="M400 200 l0 100 l300 0 l0 100 l-400 0 l0 -500 l-200 0 l0 300 l-100 0 l0 100 l100 0 l0 100 l100 0 l0 100 l300 0 l0 100 l-200 0 l0 100 l200 0 l0 200 l200 0 l0 -200 l300 0 l0 -100 l-300 0 l0 -100 l300 0 l0 -100 l-100 0 l0 -100 l100 0 l0 -100 l-100 0 l0 -300 l-200 0 l0 300 l-300 0 ZM0 600 l0 100 l100 0 l0 100 l200 0 l0 -100 l-100 0 l0 -100 l-200 0 ZM600 -100 l-200 0 l0 200 l100 0 l0 -100 l100 0 l0 -100 Z" /><glyph glyph-name="" unicode="&#x5f8b;" d="M400 0 l0 100 l200 0 l0 100 l-200 0 l0 100 l200 0 l0 100 l-300 0 l0 -500 l-200 0 l0 300 l-100 0 l0 100 l100 0 l0 100 l100 0 l0 100 l400 0 l0 100 l-300 0 l0 100 l300 0 l0 200 l200 0 l0 -200 l200 0 l0 -500 l-200 0 l0 -100 l200 0 l0 -100 l-200 0 l0 -100 l-200 0 l0 100 l-200 0 ZM0 600 l0 100 l100 0 l0 100 l200 0 l0 -100 l-100 0 l0 -100 l-200 0 ZM900 300 l0 100 l-100 0 l0 -100 l100 0 ZM900 500 l0 100 l-100 0 l0 -100 l100 0 Z" /><glyph glyph-name="" unicode="&#x5f8c;" d="M400 -100 l0 100 l100 0 l0 100 l100 0 l0 100 l100 0 l0 -100 l100 0 l0 -100 l200 0 l0 -100 l-300 0 l0 100 l-100 0 l0 -100 l-200 0 ZM0 200 l0 100 l100 0 l0 100 l100 0 l0 100 l200 0 l0 -100 l100 0 l0 100 l-100 0 l0 100 l-100 0 l0 100 l100 0 l0 100 l100 0 l0 100 l200 0 l0 -100 l-100 0 l0 -100 l-100 0 l0 -100 l100 0 l0 -100 l100 0 l0 -100 l100 0 l0 100 l200 0 l0 -200 l-100 0 l0 -200 l-100 0 l0 100 l-100 0 l0 100 l-100 0 l0 -100 l-100 0 l0 -100 l-100 0 l0 300 l-100 0 l0 -500 l-200 0 l0 300 l-100 0 ZM0 600 l0 100 l100 0 l0 100 l200 0 l0 -100 l-100 0 l0 -100 l-200 0 ZM800 500 l-100 0 l0 200 l200 0 l0 -100 l-100 0 l0 -100 Z" /><glyph glyph-name="" unicode="&#x5f92;" d="M0 200 l0 100 l100 0 l0 100 l100 0 l0 100 l300 0 l0 100 l-200 0 l0 100 l200 0 l0 200 l200 0 l0 -200 l300 0 l0 -100 l-300 0 l0 -100 l300 0 l0 -100 l-300 0 l0 -100 l300 0 l0 -100 l-300 0 l0 -200 l300 0 l0 -100 l-400 0 l0 100 l-200 0 l0 -100 l-300 0 l0 300 l-100 0 ZM0 600 l0 100 l100 0 l0 100 l200 0 l0 -100 l-100 0 l0 -100 l-200 0 ZM400 0 l0 300 l100 0 l0 -200 l100 0 l0 200 l-100 0 l0 100 l-200 0 l0 -400 l100 0 Z" /><glyph glyph-name="" unicode="&#x5f93;" d="M0 200 l0 100 l100 0 l0 100 l100 0 l0 100 l100 0 l0 100 l700 0 l0 -100 l-200 0 l0 -200 l200 0 l0 -100 l-200 0 l0 -200 l200 0 l0 -100 l-300 0 l0 100 l-200 0 l0 -100 l-400 0 l0 300 l-100 0 ZM0 600 l0 100 l100 0 l0 100 l200 0 l0 -100 l-100 0 l0 -100 l-200 0 ZM400 0 l0 300 l200 0 l0 -200 l100 0 l0 200 l-100 0 l0 200 l-200 0 l0 -100 l-100 0 l0 -400 l100 0 ZM600 700 l-200 0 l0 200 l200 0 l0 -200 ZM800 800 l0 -100 l-100 0 l0 200 l200 0 l0 -100 l-100 0 Z" /><glyph glyph-name="" unicode="&#x5f97;" d="M0 200 l0 100 l100 0 l0 100 l100 0 l0 100 l200 0 l0 -100 l100 0 l0 100 l-100 0 l0 300 l600 0 l0 -900 l-200 0 l0 200 l-200 0 l0 -100 l100 0 l0 -100 l-200 0 l0 100 l-100 0 l0 200 l400 0 l0 100 l-400 0 l0 100 l-100 0 l0 -500 l-200 0 l0 300 l-100 0 ZM0 600 l0 100 l100 0 l0 100 l200 0 l0 -100 l-100 0 l0 -100 l-200 0 ZM600 400 l200 0 l0 100 l-200 0 l0 -100 ZM600 600 l200 0 l0 100 l-200 0 l0 -100 Z" /><glyph glyph-name="" unicode="&#x5fb3;" d="M0 200 l0 100 l100 0 l0 100 l100 0 l0 100 l400 0 l0 100 l-300 0 l0 100 l300 0 l0 200 l200 0 l0 -200 l200 0 l0 -100 l-200 0 l0 -100 l200 0 l0 -300 l-200 0 l0 -100 l200 0 l0 -200 l-100 0 l0 100 l-100 0 l0 -100 l-300 0 l0 100 l-100 0 l0 -100 l-300 0 l0 300 l-100 0 ZM0 600 l0 100 l100 0 l0 100 l200 0 l0 -100 l-100 0 l0 -100 l-200 0 ZM600 0 l200 0 l0 100 l-200 0 l0 -100 ZM400 100 l200 0 l0 100 l-200 0 l0 200 l-100 0 l0 -400 l100 0 l0 100 ZM900 300 l0 100 l-100 0 l0 -100 l100 0 ZM700 300 l0 100 l-100 0 l0 -100 l100 0 Z" /><glyph glyph-name="" unicode="&#x5fb4;" d="M0 200 l0 100 l100 0 l0 100 l200 0 l0 -500 l-200 0 l0 300 l-100 0 ZM0 600 l0 100 l100 0 l0 100 l300 0 l0 -200 l100 0 l0 200 l-100 0 l0 100 l200 0 l0 -300 l100 0 l0 300 l100 0 l0 -200 l200 0 l0 -400 l-100 0 l0 -200 l100 0 l0 -200 l-200 0 l0 100 l100 0 l0 100 l-100 0 l0 -100 l-100 0 l0 -100 l-300 0 l0 500 l400 0 l0 -100 l100 0 l0 100 l-100 0 l0 100 l100 0 l0 100 l-100 0 l0 -100 l-600 0 l0 100 l100 0 l0 100 l-100 0 l0 -100 l-200 0 ZM700 0 l0 100 l100 0 l0 100 l-100 0 l0 -100 l-100 0 l0 -100 l100 0 ZM700 200 l0 100 l-100 0 l0 -100 l100 0 Z" /><glyph glyph-name="" unicode="&#x5fc3;" d="M700 300 l0 100 l200 0 l0 -100 l100 0 l0 -100 l-200 0 l0 100 l-100 0 ZM300 700 l0 100 l300 0 l0 -100 l200 0 l0 -100 l-300 0 l0 100 l-200 0 ZM900 -100 l-600 0 l0 300 l100 0 l0 200 l-100 0 l0 -200 l-100 0 l0 -200 l-200 0 l0 200 l100 0 l0 200 l200 0 l0 100 l200 0 l0 -500 l200 0 l0 100 l200 0 l0 -200 Z" /><glyph glyph-name="" unicode="&#x5fc5;" d="M0 -100 l0 100 l200 0 l0 100 l100 0 l0 200 l100 0 l0 200 l100 0 l0 -200 l100 0 l0 -100 l-100 0 l0 -200 l200 0 l0 100 l200 0 l0 -200 l-500 0 l0 100 l-100 0 l0 -100 l-300 0 ZM200 700 l0 100 l300 0 l0 -100 l200 0 l0 -100 l200 0 l0 -200 l100 0 l0 -200 l-200 0 l0 200 l-100 0 l0 -100 l-100 0 l0 100 l100 0 l0 200 l-300 0 l0 100 l-200 0 ZM200 100 l-200 0 l0 200 l100 0 l0 200 l200 0 l0 -200 l-100 0 l0 -200 Z" /><glyph glyph-name="" unicode="&#x5fd8;" d="M0 600 l0 100 l400 0 l0 200 l200 0 l0 -200 l400 0 l0 -100 l-700 0 l0 -200 l600 0 l0 -100 l-300 0 l0 -100 l100 0 l0 -100 l-200 0 l0 100 l-100 0 l0 -200 l400 0 l0 -100 l-500 0 l0 200 l-100 0 l0 -200 l-200 0 l0 200 l200 0 l0 100 l200 0 l0 100 l-200 0 l0 100 l-100 0 l0 200 l-100 0 ZM1000 0 l-200 0 l0 200 l100 0 l0 -100 l100 0 l0 -100 Z" /><glyph glyph-name="" unicode="&#x5fdc;" d="M1000 -100 l-600 0 l0 100 l100 0 l0 100 l-100 0 l0 -100 l-100 0 l0 100 l100 0 l0 200 l200 0 l0 -300 l200 0 l0 100 l200 0 l0 -200 ZM200 -100 l-200 0 l0 200 l100 0 l0 600 l400 0 l0 200 l200 0 l0 -200 l300 0 l0 -100 l-400 0 l0 -100 l100 0 l0 -100 l200 0 l0 -100 l100 0 l0 -100 l-200 0 l0 100 l-100 0 l0 100 l-200 0 l0 100 l-100 0 l0 100 l-100 0 l0 -500 l-100 0 l0 -200 Z" /><glyph glyph-name="" unicode="&#x5fe0;" d="M800 -100 l-500 0 l0 200 l-100 0 l0 -200 l-200 0 l0 200 l200 0 l0 100 l200 0 l0 -200 l400 0 l0 -100 ZM1000 0 l-200 0 l0 200 l100 0 l0 -100 l100 0 l0 -100 ZM700 100 l-200 0 l0 100 l-100 0 l0 100 l-300 0 l0 400 l300 0 l0 200 l200 0 l0 -200 l300 0 l0 -400 l-300 0 l0 -100 l100 0 l0 -100 ZM700 400 l0 200 l-100 0 l0 -200 l100 0 ZM400 400 l0 200 l-100 0 l0 -200 l100 0 Z" /><glyph glyph-name="" unicode="&#x5feb;" d="M500 600 l0 100 l100 0 l0 200 l200 0 l0 -200 l200 0 l0 -400 l-200 0 l0 -200 l100 0 l0 -100 l100 0 l0 -100 l-200 0 l0 200 l-100 0 l0 -100 l-100 0 l0 -100 l-400 0 l0 200 l100 0 l0 500 l-100 0 l0 -500 l-200 0 l0 500 l200 0 l0 200 l200 0 l0 -400 l200 0 l0 200 l-100 0 ZM500 0 l0 100 l100 0 l0 200 l-200 0 l0 -300 l100 0 ZM900 400 l0 200 l-100 0 l0 -200 l100 0 Z" /><glyph glyph-name="" unicode="&#x5ff5;" d="M0 -100 l0 100 l100 0 l0 100 l200 0 l0 -100 l100 0 l0 100 l100 0 l0 -100 l200 0 l0 100 l200 0 l0 -100 l100 0 l0 -100 l-100 0 l0 100 l-100 0 l0 -100 l-500 0 l0 100 l-100 0 l0 -100 l-200 0 ZM0 400 l0 100 l100 0 l0 100 l100 0 l0 100 l100 0 l0 100 l400 0 l0 -100 l100 0 l0 -100 l100 0 l0 -100 l100 0 l0 -100 l-200 0 l0 -200 l-100 0 l0 -100 l-200 0 l0 100 l100 0 l0 100 l-400 0 l0 100 l600 0 l0 200 l-100 0 l0 -100 l-300 0 l0 100 l200 0 l0 100 l-200 0 l0 -100 l-100 0 l0 -100 l-100 0 l0 -100 l-200 0 Z" /><glyph glyph-name="" unicode="&#x6012;" d="M0 -100 l0 100 l100 0 l0 100 l200 0 l0 -100 l100 0 l0 100 l100 0 l0 -100 l200 0 l0 100 l200 0 l0 -100 l100 0 l0 -100 l-100 0 l0 100 l-100 0 l0 -100 l-500 0 l0 100 l-100 0 l0 -100 l-200 0 ZM0 200 l0 100 l200 0 l0 100 l-100 0 l0 200 l-100 0 l0 100 l200 0 l0 200 l200 0 l0 -200 l100 0 l0 100 l500 0 l0 -400 l-100 0 l0 -100 l100 0 l0 -100 l-100 0 l0 100 l-100 0 l0 -100 l-100 0 l0 -100 l-200 0 l0 100 l-100 0 l0 100 l-100 0 l0 -100 l-300 0 ZM700 200 l0 200 l-100 0 l0 100 l100 0 l0 100 l100 0 l0 -200 l100 0 l0 200 l-100 0 l0 100 l-200 0 l0 -200 l-100 0 l0 -200 l100 0 l0 -100 l100 0 ZM400 400 l0 200 l-100 0 l0 -200 l100 0 Z" /><glyph glyph-name="" unicode="&#x601d;" d="M800 -100 l-500 0 l0 200 l-100 0 l0 -200 l-200 0 l0 200 l200 0 l0 100 l200 0 l0 -200 l400 0 l0 -100 ZM1000 0 l-200 0 l0 200 l100 0 l0 -100 l100 0 l0 -100 ZM700 100 l-200 0 l0 100 l-100 0 l0 100 l-300 0 l0 500 l800 0 l0 -500 l-300 0 l0 -100 l100 0 l0 -100 ZM700 400 l0 100 l-100 0 l0 -100 l100 0 ZM400 400 l0 100 l-100 0 l0 -100 l100 0 ZM700 600 l0 100 l-100 0 l0 -100 l100 0 ZM400 600 l0 100 l-100 0 l0 -100 l100 0 Z" /><glyph glyph-name="" unicode="&#x6020;" d="M0 500 l0 100 l200 0 l0 100 l100 0 l0 100 l100 0 l0 100 l200 0 l0 -100 l-100 0 l0 -100 l-100 0 l0 -100 l200 0 l0 100 l200 0 l0 -100 l100 0 l0 -100 l100 0 l0 -100 l-100 0 l0 100 l-100 0 l0 -200 l-200 0 l0 -100 l100 0 l0 -100 l-200 0 l0 100 l-100 0 l0 -200 l400 0 l0 -100 l-500 0 l0 200 l-100 0 l0 -200 l-200 0 l0 200 l200 0 l0 100 l200 0 l0 100 l-200 0 l0 200 l-200 0 ZM1000 0 l-200 0 l0 200 l100 0 l0 -100 l100 0 l0 -100 ZM400 400 l200 0 l0 100 l-200 0 l0 -100 Z" /><glyph glyph-name="" unicode="&#x6027;" d="M500 200 l0 100 l100 0 l0 200 l-100 0 l0 -100 l-100 0 l0 -400 l200 0 l0 200 l-100 0 ZM1000 -100 l-800 0 l0 200 l100 0 l0 500 l-100 0 l0 -500 l-200 0 l0 500 l200 0 l0 200 l200 0 l0 -300 l100 0 l0 300 l100 0 l0 -200 l100 0 l0 200 l-100 0 l0 100 l200 0 l0 -300 l200 0 l0 -100 l-200 0 l0 -200 l200 0 l0 -100 l-200 0 l0 -200 l200 0 l0 -100 Z" /><glyph glyph-name="" unicode="&#x602a;" d="M500 100 l0 100 l100 0 l0 100 l100 0 l0 100 l-100 0 l0 -100 l-200 0 l0 -300 l200 0 l0 100 l-100 0 ZM500 700 l0 100 l500 0 l0 -200 l-100 0 l0 -100 l-100 0 l0 -100 l200 0 l0 -100 l-200 0 l0 -100 l200 0 l0 -100 l-200 0 l0 -100 l200 0 l0 -100 l-800 0 l0 200 l100 0 l0 500 l-100 0 l0 -500 l-200 0 l0 500 l200 0 l0 200 l200 0 l0 -400 l100 0 l0 200 l100 0 l0 -100 l100 0 l0 100 l100 0 l0 100 l-300 0 Z" /><glyph glyph-name="" unicode="&#x6050;" d="M0 300 l0 100 l100 0 l0 300 l-100 0 l0 100 l400 0 l0 -100 l100 0 l0 100 l400 0 l0 -400 l100 0 l0 -100 l-300 0 l0 200 l100 0 l0 100 l-100 0 l0 -100 l-100 0 l0 -100 l-100 0 l0 -100 l100 0 l0 -100 l100 0 l0 -100 l-200 0 l0 100 l-100 0 l0 -200 l400 0 l0 -100 l-500 0 l0 200 l-100 0 l0 -200 l-200 0 l0 200 l200 0 l0 100 l200 0 l0 100 l-400 0 ZM1000 0 l-200 0 l0 200 l100 0 l0 -100 l100 0 l0 -100 ZM400 400 l0 300 l-100 0 l0 -300 l100 0 ZM700 600 l0 100 l-100 0 l0 -100 l100 0 Z" /><glyph glyph-name="" unicode="&#x6065;" d="M600 700 l0 100 l200 0 l0 -100 l200 0 l0 -100 l-300 0 l0 -600 l100 0 l0 100 l200 0 l0 -200 l-500 0 l0 200 l100 0 l0 100 l-100 0 l0 -100 l-100 0 l0 -200 l-200 0 l0 100 l100 0 l0 100 l-100 0 l0 -100 l-200 0 l0 800 l500 0 l0 -100 l-100 0 l0 -500 l100 0 l0 400 l200 0 l0 100 l-100 0 ZM1000 200 l-200 0 l0 200 l100 0 l0 -100 l100 0 l0 -100 ZM300 200 l0 200 l-100 0 l0 -200 l100 0 ZM300 500 l0 200 l-100 0 l0 -200 l100 0 Z" /><glyph glyph-name="" unicode="&#x6094;" d="M1000 -100 l-500 0 l0 300 l-100 0 l0 -300 l-200 0 l0 200 l100 0 l0 500 l-100 0 l0 -500 l-200 0 l0 500 l200 0 l0 200 l200 0 l0 -200 l100 0 l0 -100 l500 0 l0 -600 ZM900 0 l0 200 l-100 0 l0 -200 l100 0 ZM700 0 l0 200 l-100 0 l0 -200 l100 0 ZM900 300 l0 100 l-100 0 l0 -100 l100 0 ZM700 300 l0 100 l-100 0 l0 -100 l100 0 ZM500 300 l0 200 l-100 0 l0 -200 l100 0 ZM1000 600 l-500 0 l0 200 l-100 0 l0 100 l200 0 l0 -200 l400 0 l0 -100 Z" /><glyph glyph-name="" unicode="&#x609f;" d="M1000 -100 l-500 0 l0 300 l500 0 l0 -300 ZM600 0 l200 0 l0 100 l-200 0 l0 -100 ZM400 -100 l-200 0 l0 200 l100 0 l0 500 l-100 0 l0 -500 l-200 0 l0 500 l200 0 l0 200 l800 0 l0 -100 l-200 0 l0 -100 l200 0 l0 -300 l-600 0 l0 -400 ZM800 400 l0 100 l-100 0 l0 -100 l100 0 ZM500 400 l0 200 l100 0 l0 100 l-200 0 l0 -300 l100 0 Z" /><glyph glyph-name="" unicode="&#x60a9;" d="M1000 -100 l-800 0 l0 200 l100 0 l0 500 l-100 0 l0 -500 l-200 0 l0 500 l200 0 l0 200 l200 0 l0 -100 l100 0 l0 -100 l100 0 l0 -100 l-100 0 l0 100 l-100 0 l0 -600 l400 0 l0 100 l100 0 l0 100 l-100 0 l0 -100 l-100 0 l0 100 l100 0 l0 100 l100 0 l0 100 l-100 0 l0 -100 l-100 0 l0 -100 l-100 0 l0 -100 l-100 0 l0 300 l100 0 l0 -100 l100 0 l0 200 l300 0 l0 -600 ZM900 600 l-200 0 l0 100 l100 0 l0 100 l200 0 l0 -100 l-100 0 l0 -100 ZM700 700 l-200 0 l0 100 l-100 0 l0 100 l200 0 l0 -100 l100 0 l0 -100 Z" /><glyph glyph-name="" unicode="&#x60aa;" d="M0 -100 l0 100 l100 0 l0 100 l-100 0 l0 100 l300 0 l0 100 l-200 0 l0 300 l200 0 l0 100 l-300 0 l0 100 l1000 0 l0 -100 l-300 0 l0 -100 l200 0 l0 -300 l-200 0 l0 -100 l300 0 l0 -100 l-100 0 l0 -100 l100 0 l0 -100 l-100 0 l0 100 l-100 0 l0 -100 l-500 0 l0 100 l100 0 l0 100 l-100 0 l0 -100 l-100 0 l0 -100 l-200 0 ZM500 0 l200 0 l0 100 l-200 0 l0 -100 ZM600 200 l0 100 l-100 0 l0 -100 l100 0 ZM800 400 l0 100 l-100 0 l0 -100 l100 0 ZM600 400 l0 100 l-100 0 l0 -100 l100 0 ZM400 400 l0 100 l-100 0 l0 -100 l100 0 ZM600 600 l0 100 l-100 0 l0 -100 l100 0 Z" /><glyph glyph-name="" unicode="&#x60b6;" d="M800 -100 l-500 0 l0 100 l100 0 l0 100 l100 0 l0 -100 l200 0 l0 100 l100 0 l0 200 l-200 0 l0 -100 l100 0 l0 -100 l-200 0 l0 100 l-100 0 l0 100 l-200 0 l0 -200 l100 0 l0 -100 l-100 0 l0 -100 l-200 0 l0 900 l500 0 l0 -500 l100 0 l0 500 l400 0 l0 -900 l-100 0 l0 100 l-100 0 l0 -100 ZM800 400 l0 100 l-100 0 l0 -100 l100 0 ZM300 400 l0 100 l-100 0 l0 -100 l100 0 ZM800 600 l0 100 l-100 0 l0 -100 l100 0 ZM300 600 l0 100 l-100 0 l0 -100 l100 0 Z" /><glyph glyph-name="" unicode="&#x60c5;" d="M500 400 l0 100 l100 0 l0 100 l-200 0 l0 -300 l200 0 l0 100 l-100 0 ZM1000 -100 l-200 0 l0 100 l-200 0 l0 -100 l-100 0 l0 300 l-100 0 l0 -300 l-200 0 l0 200 l100 0 l0 500 l-100 0 l0 -500 l-200 0 l0 500 l200 0 l0 200 l200 0 l0 -100 l200 0 l0 200 l200 0 l0 -200 l200 0 l0 -100 l-200 0 l0 -100 l200 0 l0 -100 l-200 0 l0 -100 l200 0 l0 -400 ZM600 100 l200 0 l0 100 l-200 0 l0 -100 Z" /><glyph glyph-name="" unicode="&#x60d1;" d="M0 600 l0 100 l500 0 l0 200 l200 0 l0 -200 l100 0 l0 100 l200 0 l0 -200 l-200 0 l0 -200 l100 0 l0 -100 l100 0 l0 -100 l-100 0 l0 100 l-100 0 l0 -100 l-100 0 l0 -100 l200 0 l0 -100 l100 0 l0 -100 l-100 0 l0 100 l-100 0 l0 -100 l-500 0 l0 200 l-100 0 l0 -200 l-200 0 l0 200 l200 0 l0 100 l-100 0 l0 300 l500 0 l0 -300 l100 0 l0 300 l-100 0 l0 100 l-600 0 ZM400 0 l300 0 l0 100 l-200 0 l0 100 l-100 0 l0 -200 ZM400 300 l0 100 l-100 0 l0 -100 l100 0 ZM900 400 l0 100 l100 0 l0 -100 l-100 0 Z" /><glyph glyph-name="" unicode="&#x60f3;" d="M0 -100 l0 100 l100 0 l0 100 l200 0 l0 -100 l100 0 l0 100 l-100 0 l0 100 l-100 0 l0 100 l100 0 l0 100 l-100 0 l0 -100 l-200 0 l0 100 l100 0 l0 100 l100 0 l0 100 l-200 0 l0 100 l200 0 l0 200 l200 0 l0 -200 l100 0 l0 100 l500 0 l0 -600 l-200 0 l0 -100 l200 0 l0 -200 l-100 0 l0 100 l-100 0 l0 -100 l-500 0 l0 100 l-100 0 l0 -100 l-200 0 ZM500 0 l300 0 l0 100 l-200 0 l0 100 l-100 0 l0 -200 ZM500 200 l0 200 l100 0 l0 100 l-100 0 l0 -100 l-100 0 l0 -200 l100 0 ZM800 300 l0 200 l-100 0 l0 -200 l100 0 ZM500 500 l0 100 l-100 0 l0 -100 l100 0 ZM800 600 l0 100 l-100 0 l0 -100 l100 0 Z" /><glyph glyph-name="" unicode="&#x6109;" d="M400 -100 l-200 0 l0 200 l100 0 l0 500 l-100 0 l0 -500 l-200 0 l0 500 l200 0 l0 200 l200 0 l0 -200 l100 0 l0 -100 l-100 0 l0 -600 ZM1000 400 l0 -500 l-100 0 l0 500 l100 0 ZM800 400 l0 -500 l-100 0 l0 200 l-100 0 l0 -200 l-100 0 l0 500 l300 0 ZM700 200 l0 100 l-100 0 l0 -100 l100 0 ZM1000 500 l-400 0 l0 100 l200 0 l0 100 l-200 0 l0 -100 l-100 0 l0 200 l400 0 l0 -100 l100 0 l0 -200 Z" /><glyph glyph-name="" unicode="&#x610f;" d="M0 -100 l0 100 l100 0 l0 100 l200 0 l0 -100 l100 0 l0 100 l100 0 l0 -100 l200 0 l0 100 l200 0 l0 -100 l100 0 l0 -100 l-100 0 l0 100 l-100 0 l0 -100 l-500 0 l0 100 l-100 0 l0 -100 l-200 0 ZM0 400 l0 100 l300 0 l0 100 l-300 0 l0 100 l400 0 l0 200 l200 0 l0 -200 l400 0 l0 -100 l-200 0 l0 -100 l200 0 l0 -100 l-100 0 l0 -200 l-200 0 l0 -100 l-200 0 l0 100 l-300 0 l0 200 l-200 0 ZM400 300 l300 0 l0 100 l-300 0 l0 -100 ZM600 500 l0 100 l-100 0 l0 -100 l100 0 Z" /><glyph glyph-name="" unicode="&#x611b;" d="M0 -100 l0 100 l300 0 l0 200 l100 0 l0 -100 l200 0 l0 100 l-200 0 l0 100 l-100 0 l0 -100 l-100 0 l0 -100 l-200 0 l0 100 l100 0 l0 100 l-100 0 l0 200 l200 0 l0 100 l-100 0 l0 200 l800 0 l0 -200 l-100 0 l0 -100 l200 0 l0 -200 l-100 0 l0 -100 l100 0 l0 -100 l-100 0 l0 100 l-100 0 l0 -100 l-100 0 l0 -100 l300 0 l0 -100 l-400 0 l0 100 l-200 0 l0 -100 l-400 0 ZM500 300 l300 0 l0 100 l-300 0 l0 -100 ZM300 300 l0 100 l-100 0 l0 -100 l100 0 ZM400 500 l200 0 l0 100 l100 0 l0 100 l-100 0 l0 -100 l-200 0 l0 -100 ZM400 600 l0 100 l-100 0 l0 -100 l100 0 Z" /><glyph glyph-name="" unicode="&#x611f;" d="M0 -100 l0 100 l100 0 l0 100 l200 0 l0 -100 l-100 0 l0 -100 l-200 0 ZM800 -100 l-400 0 l0 200 l-100 0 l0 100 l200 0 l0 -200 l200 0 l0 100 l200 0 l0 -100 l100 0 l0 -100 l-100 0 l0 100 l-100 0 l0 -100 ZM700 100 l-100 0 l0 200 l100 0 l0 300 l-100 0 l0 -300 l-300 0 l0 300 l-100 0 l0 -400 l-200 0 l0 500 l500 0 l0 200 l200 0 l0 -200 l100 0 l0 100 l200 0 l0 -200 l-200 0 l0 -200 l100 0 l0 -100 l100 0 l0 -100 l-100 0 l0 100 l-100 0 l0 -100 l-100 0 l0 -100 ZM900 400 l0 100 l100 0 l0 -100 l-100 0 ZM500 400 l0 200 l-100 0 l0 -200 l100 0 Z" /><glyph glyph-name="" unicode="&#x6127;" d="M1000 -100 l-400 0 l0 100 l-100 0 l0 -100 l-300 0 l0 200 l100 0 l0 500 l-100 0 l0 -500 l-200 0 l0 500 l200 0 l0 200 l200 0 l0 -800 l100 0 l0 800 l100 0 l0 100 l200 0 l0 -100 l-100 0 l0 -100 l300 0 l0 -500 l-100 0 l0 -100 l100 0 l0 -200 ZM800 0 l0 200 l-100 0 l0 -200 l100 0 ZM900 300 l0 100 l-100 0 l0 -100 l100 0 ZM700 300 l0 100 l-100 0 l0 -100 l100 0 ZM900 500 l0 100 l-100 0 l0 -100 l100 0 ZM700 500 l0 100 l-100 0 l0 -100 l100 0 Z" /><glyph glyph-name="" unicode="&#x614b;" d="M0 -100 l0 100 l100 0 l0 100 l200 0 l0 -100 l100 0 l0 100 l100 0 l0 -100 l300 0 l0 -100 l-500 0 l0 100 l-100 0 l0 -100 l-200 0 ZM1000 100 l0 -200 l-100 0 l0 100 l-100 0 l0 100 l200 0 ZM700 100 l-200 0 l0 100 l100 0 l0 500 l-100 0 l0 -500 l-200 0 l0 100 l-100 0 l0 -100 l-200 0 l0 500 l100 0 l0 100 l100 0 l0 100 l200 0 l0 -100 l-100 0 l0 -100 l200 0 l0 100 l200 0 l0 -100 l100 0 l0 100 l200 0 l0 -100 l-100 0 l0 -100 l-200 0 l0 -100 l300 0 l0 -100 l-300 0 l0 -100 l300 0 l0 -100 l-300 0 l0 -100 ZM300 400 l0 100 l-100 0 l0 -100 l100 0 ZM300 600 l0 100 l-100 0 l0 -100 l100 0 Z" /><glyph glyph-name="" unicode="&#x615a;" d="M1000 -100 l-200 0 l0 100 l100 0 l0 100 l-100 0 l0 -100 l-200 0 l0 -100 l-100 0 l0 100 l-100 0 l0 -100 l-200 0 l0 200 l100 0 l0 500 l-100 0 l0 -500 l-200 0 l0 500 l200 0 l0 200 l200 0 l0 -100 l100 0 l0 100 l-100 0 l0 100 l200 0 l0 -200 l100 0 l0 100 l300 0 l0 -100 l-200 0 l0 -200 l200 0 l0 -600 ZM600 100 l200 0 l0 100 l100 0 l0 200 l-100 0 l0 -200 l-200 0 l0 -100 ZM500 100 l0 100 l-100 0 l0 -100 l100 0 ZM700 300 l0 100 l-100 0 l0 -100 l100 0 ZM500 300 l0 100 l-100 0 l0 -100 l100 0 ZM700 500 l0 100 l-100 0 l0 -100 l100 0 ZM500 500 l0 100 l-100 0 l0 -100 l100 0 Z" /><glyph glyph-name="" unicode="&#x6163;" d="M1000 -100 l-200 0 l0 200 l-100 0 l0 -100 l-100 0 l0 -100 l-400 0 l0 200 l100 0 l0 500 l-100 0 l0 -500 l-200 0 l0 500 l200 0 l0 200 l200 0 l0 -200 l100 0 l0 200 l500 0 l0 -700 l-100 0 l0 -100 l100 0 l0 -100 ZM500 0 l0 500 l-100 0 l0 -500 l100 0 ZM600 200 l200 0 l0 100 l-200 0 l0 -100 ZM900 400 l0 100 l-100 0 l0 -100 l100 0 ZM700 400 l0 100 l-100 0 l0 -100 l100 0 ZM900 600 l0 100 l-100 0 l0 -100 l100 0 ZM700 600 l0 100 l-100 0 l0 -100 l100 0 Z" /><glyph glyph-name="" unicode="&#x616e;" d="M0 -100 l0 100 l100 0 l0 100 l200 0 l0 -100 l100 0 l0 100 l100 0 l0 -100 l300 0 l0 -100 l-500 0 l0 100 l-100 0 l0 -100 l-200 0 ZM1000 100 l0 -200 l-100 0 l0 100 l-100 0 l0 100 l200 0 ZM700 100 l-200 0 l0 100 l-200 0 l0 400 l-100 0 l0 -400 l-200 0 l0 500 l400 0 l0 200 l400 0 l0 -100 l-200 0 l0 -100 l400 0 l0 -300 l-100 0 l0 -200 l-200 0 l0 -100 ZM800 300 l0 100 l-100 0 l0 -100 l100 0 ZM500 300 l0 100 l-100 0 l0 -100 l100 0 ZM800 500 l0 100 l-100 0 l0 -100 l100 0 ZM500 500 l0 100 l-100 0 l0 -100 l100 0 Z" /><glyph glyph-name="" unicode="&#x617e;" d="M0 400 l0 100 l100 0 l0 100 l-100 0 l0 100 l100 0 l0 100 l200 0 l0 -100 l-100 0 l0 -100 l200 0 l0 200 l100 0 l0 -100 l100 0 l0 100 l-100 0 l0 100 l200 0 l0 -200 l300 0 l0 -200 l-100 0 l0 100 l-100 0 l0 -200 l100 0 l0 -100 l100 0 l0 -100 l-200 0 l0 200 l-100 0 l0 -100 l-100 0 l0 -100 l100 0 l0 -100 l200 0 l0 -100 l100 0 l0 -100 l-100 0 l0 100 l-100 0 l0 -100 l-500 0 l0 200 l-100 0 l0 -200 l-200 0 l0 200 l200 0 l0 100 l-100 0 l0 200 l-100 0 ZM400 0 l300 0 l0 100 l-200 0 l0 100 l-100 0 l0 -200 ZM600 300 l0 100 l100 0 l0 100 l-100 0 l0 -100 l-100 0 l0 -100 l100 0 ZM400 300 l0 200 l-100 0 l0 -200 l100 0 ZM600 500 l0 100 l-100 0 l0 -100 l100 0 Z" /><glyph glyph-name="" unicode="&#x6182;" d="M0 -100 l0 100 l300 0 l0 100 l-200 0 l0 100 l-100 0 l0 200 l200 0 l0 300 l-200 0 l0 100 l1000 0 l0 -100 l-200 0 l0 -300 l200 0 l0 -200 l-100 0 l0 -100 l-200 0 l0 -100 l300 0 l0 -100 l-400 0 l0 100 l-200 0 l0 -100 l-400 0 ZM500 100 l0 200 l-100 0 l0 -200 l100 0 ZM900 200 l0 100 l-100 0 l0 -100 l100 0 ZM700 200 l0 100 l-100 0 l0 -100 l100 0 ZM300 200 l0 100 l-100 0 l0 -100 l100 0 ZM400 400 l200 0 l0 100 l-200 0 l0 -100 ZM400 600 l200 0 l0 100 l-200 0 l0 -100 Z" /><glyph glyph-name="" unicode="&#x619a;" d="M800 -100 l-200 0 l0 100 l-200 0 l0 -100 l-200 0 l0 200 l100 0 l0 500 l-100 0 l0 -500 l-200 0 l0 500 l200 0 l0 200 l200 0 l0 -700 l100 0 l0 700 l500 0 l0 -800 l-200 0 l0 -100 ZM900 100 l0 100 l-100 0 l0 -100 l100 0 ZM700 100 l0 100 l-100 0 l0 -100 l100 0 ZM900 300 l0 100 l-100 0 l0 -100 l100 0 ZM700 300 l0 100 l-100 0 l0 -100 l100 0 ZM900 500 l0 200 l-100 0 l0 -200 l100 0 ZM700 500 l0 200 l-100 0 l0 -200 l100 0 Z" /><glyph glyph-name="" unicode="&#x61b6;" d="M100 -100 l0 100 l100 0 l0 100 l200 0 l0 -100 l100 0 l0 100 l100 0 l0 -100 l200 0 l0 -100 l-400 0 l0 100 l-100 0 l0 -100 l-200 0 ZM1000 100 l0 -200 l-100 0 l0 100 l-100 0 l0 100 l200 0 ZM800 100 l-200 0 l0 100 l-100 0 l0 200 l-100 0 l0 -200 l-100 0 l0 400 l-100 0 l0 -400 l-200 0 l0 400 l200 0 l0 200 l200 0 l0 -100 l200 0 l0 200 l200 0 l0 -200 l200 0 l0 -100 l-100 0 l0 -100 l100 0 l0 -300 l-200 0 l0 -100 ZM600 300 l200 0 l0 100 l-200 0 l0 -100 ZM700 500 l0 100 l-100 0 l0 -100 l100 0 ZM500 500 l0 100 l-100 0 l0 -100 l100 0 Z" /><glyph glyph-name="" unicode="&#x61ca;" d="M1000 -100 l-200 0 l0 200 l-100 0 l0 -100 l-100 0 l0 -100 l-400 0 l0 200 l100 0 l0 500 l-100 0 l0 -500 l-200 0 l0 500 l200 0 l0 200 l200 0 l0 -100 l200 0 l0 200 l200 0 l0 -200 l200 0 l0 -400 l-100 0 l0 -100 l100 0 l0 -100 l-100 0 l0 -100 l100 0 l0 -100 ZM500 0 l0 100 l-100 0 l0 -100 l100 0 ZM700 200 l0 100 l-100 0 l0 -100 l100 0 ZM500 200 l0 100 l100 0 l0 100 l100 0 l0 100 l-100 0 l0 -100 l-100 0 l0 -100 l-100 0 l0 -100 l100 0 ZM900 300 l0 100 l-100 0 l0 -100 l100 0 ZM500 400 l0 100 l100 0 l0 100 l-100 0 l0 -100 l-100 0 l0 -100 l100 0 ZM900 500 l0 100 l-100 0 l0 -100 l100 0 Z" /></font>
</defs>
</svg>
